<svg width="410" height="198" viewBox="0 0 410 198" fill="none" xmlns="http://www.w3.org/2000/svg">
<path d="M13.1334 105.939L0.913818 98.3749L62.7877 8.18262L73.4556 17.4928L13.1334 105.939ZM0.913818 110.982V98.3749L11.3878 96.4353H107.205V110.982H0.913818ZM63.5635 143.956V18.6566L62.7877 8.18262H79.4684V143.956H63.5635Z" fill="#C3C3C3"/>
<path d="M315.015 105.939L302.795 98.3749L364.669 8.18262L375.337 17.4928L315.015 105.939ZM302.795 110.982V98.3749L313.269 96.4353H409.086V110.982H302.795ZM365.445 143.956V18.6566L364.669 8.18262H381.35V143.956H365.445Z" fill="#C3C3C3"/>
<path d="M190.752 66.2956C190.752 71.5261 187.981 75.7664 184.564 75.7664C181.147 75.7664 178.377 71.5261 178.377 66.2956C178.377 61.065 181.147 56.8248 184.564 56.8248C187.981 56.8248 190.752 61.065 190.752 66.2956Z" fill="#1C1C1C"/>
<path d="M227.877 66.2956C227.877 71.5261 225.107 75.7664 221.69 75.7664C218.272 75.7664 215.502 71.5261 215.502 66.2956C215.502 61.065 218.272 56.8248 221.69 56.8248C225.107 56.8248 227.877 61.065 227.877 66.2956Z" fill="#1C1C1C"/>
<path fill-rule="evenodd" clip-rule="evenodd" d="M203.127 7.89233C166.262 7.89233 136.61 39.2635 136.61 77.6642V124.528C136.61 136.187 148.444 144.247 158.84 138.784C163.058 136.567 168.073 136.89 172.013 139.65C179.605 144.97 189.523 144.97 197.115 139.65L199.297 138.121C201.624 136.491 204.629 136.491 206.956 138.121L209.139 139.65C216.731 144.97 226.648 144.97 234.241 139.65C238.18 136.89 243.196 136.567 247.414 138.784C257.81 144.247 269.643 136.187 269.643 124.528V77.6642C269.643 39.2635 239.992 7.89233 203.127 7.89233ZM145.892 77.6642C145.892 44.2277 171.645 17.3631 203.127 17.3631C234.608 17.3631 260.362 44.2277 260.362 77.6642V124.528C260.362 129.568 255.477 132.368 251.664 130.364C244.396 126.545 235.731 127.117 228.987 131.843C224.56 134.945 218.819 134.945 214.393 131.843L212.211 130.314C206.718 126.465 199.536 126.465 194.043 130.314L191.861 131.843C187.434 134.945 181.694 134.945 177.267 131.843C170.523 127.117 161.857 126.545 154.59 130.364C150.777 132.368 145.892 129.568 145.892 124.528V77.6642Z" fill="#1C1C1C"/>
<ellipse cx="205" cy="181.464" rx="188.097" ry="15.9318" fill="url(#paint0_radial_9771_42166)"/>
<defs>
<radialGradient id="paint0_radial_9771_42166" cx="0" cy="0" r="1" gradientUnits="userSpaceOnUse" gradientTransform="translate(205 181.464) rotate(90) scale(15.9318 188.097)">
<stop stop-color="#E1E4E8"/>
<stop offset="1" stop-color="#E1E4E8" stop-opacity="0"/>
</radialGradient>
</defs>
</svg>
