<svg width="17" height="20" viewBox="0 0 17 20" fill="none" xmlns="http://www.w3.org/2000/svg">
<path d="M16.3977 12.5002C16.3977 16.7547 13.7796 18.6216 11.7565 19.2512C11.3251 19.3854 11.0415 18.8825 11.2996 18.5116C12.18 17.2464 13.1977 15.3161 13.1977 13.5002C13.1977 11.5496 11.5536 9.24671 10.2698 7.82631C9.97632 7.50158 9.46437 7.71645 9.44836 8.15388C9.39533 9.60307 9.16665 11.542 8.18053 13.0616C8.0218 13.3062 7.68486 13.3264 7.50401 13.0977C7.1959 12.708 6.88779 12.2267 6.57967 11.8464C6.41371 11.6416 6.11375 11.6388 5.92232 11.82C5.17596 12.5267 4.13104 13.6288 4.13104 15.0002C4.13104 15.9301 4.4913 16.905 4.89777 17.6893C5.12138 18.1208 4.72377 18.6402 4.29343 18.4144C2.51077 17.4789 0.397705 15.5838 0.397705 12.5002C0.397705 9.35375 4.708 4.99503 6.35376 0.877119C6.61345 0.227327 7.41379 -0.0780078 7.97045 0.346031C11.3416 2.91409 16.3977 7.87832 16.3977 12.5002Z" fill="#212121"/>
</svg>
