<svg width="25" height="25" viewBox="0 0 25 25" fill="none" xmlns="http://www.w3.org/2000/svg">
<path d="M13.5 15.9C13.5 13.8258 13.5 12.7887 14.159 12.1444C14.818 11.5 15.8787 11.5 18 11.5C20.1213 11.5 21.182 11.5 21.841 12.1444C22.5 12.7887 22.5 13.8258 22.5 15.9V18.1C22.5 20.1742 22.5 21.2113 21.841 21.8556C21.182 22.5 20.1213 22.5 18 22.5C15.8787 22.5 14.818 22.5 14.159 21.8556C13.5 21.2113 13.5 20.1742 13.5 18.1V15.9Z" fill="#1C1C1C"/>
<path d="M2.5 9.1C2.5 11.1742 2.5 12.2113 3.15901 12.8556C3.81802 13.5 4.87868 13.5 7 13.5C9.12132 13.5 10.182 13.5 10.841 12.8556C11.5 12.2113 11.5 11.1742 11.5 9.1V6.9C11.5 4.82582 11.5 3.78873 10.841 3.14437C10.182 2.5 9.12132 2.5 7 2.5C4.87868 2.5 3.81802 2.5 3.15901 3.14437C2.5 3.78873 2.5 4.82582 2.5 6.9V9.1Z" fill="#1C1C1C"/>
<path d="M13.5 6C13.5 4.9128 13.5 4.3692 13.6713 3.94041C13.8996 3.36867 14.3376 2.91443 14.889 2.67761C15.3024 2.5 15.8266 2.5 16.875 2.5H19.125C20.1734 2.5 20.6976 2.5 21.111 2.67761C21.6624 2.91443 22.1004 3.36867 22.3287 3.94041C22.5 4.3692 22.5 4.9128 22.5 6C22.5 7.0872 22.5 7.6308 22.3287 8.05959C22.1004 8.63133 21.6624 9.08557 21.111 9.32239C20.6976 9.5 20.1734 9.5 19.125 9.5H16.875C15.8266 9.5 15.3024 9.5 14.889 9.32239C14.3376 9.08557 13.8996 8.63133 13.6713 8.05959C13.5 7.6308 13.5 7.0872 13.5 6Z" fill="#1C1C1C"/>
<path d="M2.5 19C2.5 20.0872 2.5 20.6308 2.67127 21.0596C2.89963 21.6313 3.33765 22.0856 3.88896 22.3224C4.30245 22.5 4.82663 22.5 5.875 22.5H8.125C9.17337 22.5 9.69755 22.5 10.111 22.3224C10.6624 22.0856 11.1004 21.6313 11.3287 21.0596C11.5 20.6308 11.5 20.0872 11.5 19C11.5 17.9128 11.5 17.3692 11.3287 16.9404C11.1004 16.3687 10.6624 15.9144 10.111 15.6776C9.69755 15.5 9.17337 15.5 8.125 15.5H5.875C4.82663 15.5 4.30245 15.5 3.88896 15.6776C3.33765 15.9144 2.89963 16.3687 2.67127 16.9404C2.5 17.3692 2.5 17.9128 2.5 19Z" fill="#1C1C1C"/>
</svg>
