<svg width="51" height="50" viewBox="0 0 51 50" fill="none" xmlns="http://www.w3.org/2000/svg">
<g id="afghanistan" clip-path="url(#clip0_9354_13751)">
<path id="Vector" d="M36.3695 2.48066C33.0828 0.891406 29.3955 0 25.5 0C21.6045 0 17.9172 0.891406 14.6305 2.48066L12.4565 25L14.6305 47.5193C17.9172 49.1086 21.6045 50 25.5 50C29.3955 50 33.0828 49.1086 36.3695 47.5193L38.5435 25L36.3695 2.48066Z" fill="#D80027"/>
<path id="Vector_2" d="M14.6305 2.48157C6.26816 6.52522 0.5 15.0886 0.5 25C0.5 34.9115 6.26816 43.4748 14.6305 47.5185V2.48157Z" fill="black"/>
<path id="Vector_3" d="M36.3695 2.48157V47.5185C44.7318 43.4748 50.5 34.9115 50.5 25C50.5 15.0886 44.7318 6.52522 36.3695 2.48157Z" fill="#496E2D"/>
<g id="Group">
<path id="Vector_4" d="M25.5 16.3044C20.6974 16.3044 16.8044 20.1976 16.8044 25C16.8044 29.8025 20.6975 33.6957 25.5 33.6957C30.3024 33.6957 34.1956 29.8025 34.1956 25C34.1956 20.1976 30.3025 16.3044 25.5 16.3044ZM25.5 30.4348C22.4984 30.4348 20.0652 28.0015 20.0652 25C20.0652 21.9986 22.4985 19.5653 25.5 19.5653C28.5015 19.5653 30.9348 21.9986 30.9348 25C30.9348 28.0015 28.5016 30.4348 25.5 30.4348Z" fill="#FFDA44"/>
<path id="Vector_5" d="M25.4999 21.7391C24.2992 21.7391 23.326 22.7124 23.326 23.9131V27.1739H27.6738V23.9131C27.6738 22.7124 26.7006 21.7391 25.4999 21.7391Z" fill="#FFDA44"/>
</g>
</g>
<defs>
<clipPath id="clip0_9354_13751">
<rect width="50" height="50" fill="white" transform="translate(0.5)"/>
</clipPath>
</defs>
</svg>
