<svg width="51" height="50" viewBox="0 0 51 50" fill="none" xmlns="http://www.w3.org/2000/svg">
<g id="aland islands" clip-path="url(#clip0_9354_13754)">
<path id="Vector" d="M49.6388 31.5217C50.1992 29.4423 50.5 27.2565 50.5 25C50.5 22.7434 50.1992 20.5577 49.6388 18.4782L23.3261 0.0950928C18.4412 0.515991 13.9585 2.34119 10.2826 5.1655L1.36123 18.4782C0.800781 20.5577 0.5 22.7434 0.5 25C0.5 27.2433 0.797168 29.4171 1.35137 31.4856L10.2825 44.8344C13.9584 47.6588 18.4411 49.4841 23.326 49.9049L49.6388 31.5217Z" fill="#FFDA44"/>
<g id="Group">
<path id="Vector_2" d="M1.36121 31.5217C2.80769 36.8888 5.99568 41.5406 10.2826 44.8344V31.5217H1.36121Z" fill="#0052B4"/>
<path id="Vector_3" d="M23.326 49.9048C24.0427 49.9666 24.7674 50 25.5 50C37.0507 50 46.77 42.1659 49.6387 31.5217H23.326V49.9048Z" fill="#0052B4"/>
<path id="Vector_4" d="M49.6387 18.4782C46.77 7.83408 37.0507 0 25.5 0C24.7674 0 24.0427 0.0333984 23.326 0.0951172V18.4782H49.6387Z" fill="#0052B4"/>
<path id="Vector_5" d="M10.2826 5.16553C5.99568 8.45947 2.80769 13.1111 1.36121 18.4782H10.2826V5.16553Z" fill="#0052B4"/>
</g>
<path id="Vector_6" d="M50.2884 21.7392H20.0653H20.0652V0.594238C17.7549 1.10654 15.5646 1.93691 13.5435 3.03975V21.7391H0.711621C0.572461 22.8065 0.5 23.8948 0.5 25C0.5 26.1052 0.572461 27.1935 0.711621 28.2608H13.5434H13.5435V46.9602C15.5646 48.0629 17.7549 48.8935 20.0652 49.4057V28.2611V28.2609H50.2884C50.4273 27.1935 50.5 26.1052 50.5 25C50.5 23.8948 50.4273 22.8065 50.2884 21.7392Z" fill="#D80027"/>
</g>
<defs>
<clipPath id="clip0_9354_13754">
<rect width="50" height="50" fill="white" transform="translate(0.5)"/>
</clipPath>
</defs>
</svg>
