<svg width="51" height="50" viewBox="0 0 51 50" fill="none" xmlns="http://www.w3.org/2000/svg">
<g id="albania" clip-path="url(#clip0_9354_13757)">
<path id="Vector" d="M25.5 50C39.3071 50 50.5 38.8071 50.5 25C50.5 11.1929 39.3071 0 25.5 0C11.6929 0 0.5 11.1929 0.5 25C0.5 38.8071 11.6929 50 25.5 50Z" fill="#D80027"/>
<path id="Vector_2" d="M39.6305 18.5556H30.5752C31.1342 17.9702 31.4782 17.1778 31.4782 16.3044C31.4782 14.5035 30.0183 13.0436 28.2174 13.0436C27.0828 13.0436 26.0841 13.6233 25.5 14.5023C24.9159 13.6233 23.9171 13.0436 22.7826 13.0436C20.9817 13.0436 19.5218 14.5035 19.5218 16.3044C19.5218 17.1778 19.8658 17.9703 20.4248 18.5556H11.3696C11.3696 20.9569 13.4611 22.9033 15.8622 22.9033H15.7173C15.7173 25.3047 17.6639 27.2513 20.0652 27.2513C20.0652 28.029 20.2702 28.7581 20.628 29.3894L17.0216 32.9959L19.7886 35.7627L23.7136 31.8378C23.8673 31.8942 24.0264 31.9394 24.1906 31.9701L21.8188 37.3251L25.5 41.3044L29.1812 37.3249L26.8094 31.9699C26.9737 31.9392 27.1327 31.8941 27.2864 31.8376L31.2114 35.7625L33.9784 32.9956L30.3719 29.3891C30.7298 28.7579 30.9348 28.0287 30.9348 27.251C33.336 27.251 35.2826 25.3045 35.2826 22.9031H35.1378C37.5389 22.9032 39.6305 20.9569 39.6305 18.5556Z" fill="black"/>
</g>
<defs>
<clipPath id="clip0_9354_13757">
<rect width="50" height="50" fill="white" transform="translate(0.5)"/>
</clipPath>
</defs>
</svg>
