<svg width="51" height="50" viewBox="0 0 51 50" fill="none" xmlns="http://www.w3.org/2000/svg">
<g id="Algeria" clip-path="url(#clip0_9354_13760)">
<path id="Vector" d="M25.5 0C39.307 0 50.5 11.193 50.5 25C50.5 38.807 39.307 50 25.5 50C25.5 48.9131 22.2391 25 22.2391 25L25.5 0Z" fill="#F0F0F0"/>
<path id="Vector_2" d="M25.5 50C11.693 50 0.5 38.807 0.5 25C0.5 11.193 11.693 0 25.5 0" fill="#496E2D"/>
<g id="Group">
<path id="Vector_3" d="M30.8714 20.2047L28.8203 23.0314L25.4983 21.954L27.5528 24.7782L25.5018 27.6049L28.8225 26.5238L30.877 29.3479L30.8749 25.8556L34.1957 24.7743L30.8738 23.6972L30.8714 20.2047Z" fill="#D80027"/>
<path id="Vector_4" d="M27.5739 32.0653C23.6719 32.0653 20.5086 28.902 20.5086 25C20.5086 21.0981 23.6719 17.9348 27.5739 17.9348C28.7905 17.9348 29.9353 18.2424 30.9347 18.784C29.3667 17.2507 27.2226 16.3043 24.8565 16.3043C20.054 16.3043 16.1609 20.1975 16.1609 24.9999C16.1609 29.8024 20.0541 33.6955 24.8565 33.6955C27.2227 33.6955 29.3668 32.7491 30.9347 31.2158C29.9353 31.7576 28.7905 32.0653 27.5739 32.0653Z" fill="#D80027"/>
</g>
</g>
<defs>
<clipPath id="clip0_9354_13760">
<rect width="50" height="50" fill="white" transform="translate(0.5)"/>
</clipPath>
</defs>
</svg>
