<svg width="25" height="25" viewBox="0 0 25 25" fill="none" xmlns="http://www.w3.org/2000/svg">
<g id="Outline / Settings, Fine Tuning / Widget 5">
<g id="Union">
<path fill-rule="evenodd" clip-rule="evenodd" d="M6.34571 2.25C5.44724 2.24997 4.698 2.24995 4.10323 2.32991C3.47543 2.41432 2.90863 2.59999 2.45316 3.05546C1.99769 3.51093 1.81202 4.07773 1.72762 4.70552C1.64765 5.3003 1.64768 6.04951 1.64771 6.94798V9.052C1.64768 9.95047 1.64765 10.6997 1.72762 11.2945C1.81202 11.9223 1.99769 12.4891 2.45316 12.9445C2.90863 13.4 3.47543 13.5857 4.10323 13.6701C4.698 13.7501 5.44721 13.75 6.34568 13.75H6.4497C7.34817 13.75 8.09741 13.7501 8.69219 13.6701C9.31998 13.5857 9.88678 13.4 10.3423 12.9445C10.7977 12.4891 10.9834 11.9223 11.0678 11.2945C11.1478 10.6997 11.1477 9.9505 11.1477 9.05203V6.94801C11.1477 6.04954 11.1478 5.3003 11.0678 4.70552C10.9834 4.07773 10.7977 3.51093 10.3423 3.05546C9.88678 2.59999 9.31998 2.41432 8.69219 2.32991C8.09741 2.24995 7.3482 2.24997 6.44974 2.25H6.34571ZM3.51382 4.11612C3.64414 3.9858 3.84164 3.87858 4.3031 3.81654C4.78614 3.7516 5.4337 3.75 6.39771 3.75C7.36172 3.75 8.00928 3.7516 8.49232 3.81654C8.95378 3.87858 9.15128 3.9858 9.28159 4.11612C9.41191 4.24644 9.51913 4.44393 9.58117 4.9054C9.64612 5.38843 9.64771 6.03599 9.64771 7V9C9.64771 9.96401 9.64612 10.6116 9.58117 11.0946C9.51913 11.5561 9.41191 11.7536 9.28159 11.8839C9.15128 12.0142 8.95378 12.1214 8.49232 12.1835C8.00928 12.2484 7.36172 12.25 6.39771 12.25C5.4337 12.25 4.78614 12.2484 4.3031 12.1835C3.84164 12.1214 3.64414 12.0142 3.51382 11.8839C3.38351 11.7536 3.27629 11.5561 3.21424 11.0946C3.1493 10.6116 3.14771 9.96401 3.14771 9V7C3.14771 6.03599 3.1493 5.38843 3.21424 4.9054C3.27629 4.44393 3.38351 4.24644 3.51382 4.11612Z" fill="#707070"/>
<path fill-rule="evenodd" clip-rule="evenodd" d="M17.8457 11.25C16.9472 11.25 16.198 11.2499 15.6032 11.3299C14.9754 11.4143 14.4086 11.6 13.9532 12.0555C13.4977 12.5109 13.312 13.0777 13.2276 13.7055C13.1477 14.3003 13.1477 15.0495 13.1477 15.948V18.052C13.1477 18.9505 13.1477 19.6997 13.2276 20.2945C13.312 20.9223 13.4977 21.4891 13.9532 21.9445C14.4086 22.4 14.9754 22.5857 15.6032 22.6701C16.198 22.7501 16.9472 22.75 17.8456 22.75H17.9497C18.8481 22.75 19.5974 22.7501 20.1922 22.6701C20.82 22.5857 21.3868 22.4 21.8423 21.9445C22.2977 21.4891 22.4834 20.9223 22.5678 20.2945C22.6478 19.6997 22.6477 18.9505 22.6477 18.0521V15.948C22.6477 15.0496 22.6478 14.3003 22.5678 13.7055C22.4834 13.0777 22.2977 12.5109 21.8423 12.0555C21.3868 11.6 20.82 11.4143 20.1922 11.3299C19.5974 11.2499 18.8482 11.25 17.9497 11.25H17.8457ZM15.0138 13.1161C15.1441 12.9858 15.3416 12.8786 15.8031 12.8165C16.2861 12.7516 16.9337 12.75 17.8977 12.75C18.8617 12.75 19.5093 12.7516 19.9923 12.8165C20.4538 12.8786 20.6513 12.9858 20.7816 13.1161C20.9119 13.2464 21.0191 13.4439 21.0812 13.9054C21.1461 14.3884 21.1477 15.036 21.1477 16V18C21.1477 18.964 21.1461 19.6116 21.0812 20.0946C21.0191 20.5561 20.9119 20.7536 20.7816 20.8839C20.6513 21.0142 20.4538 21.1214 19.9923 21.1835C19.5093 21.2484 18.8617 21.25 17.8977 21.25C16.9337 21.25 16.2861 21.2484 15.8031 21.1835C15.3416 21.1214 15.1441 21.0142 15.0138 20.8839C14.8835 20.7536 14.7763 20.5561 14.7142 20.0946C14.6493 19.6116 14.6477 18.964 14.6477 18V16C14.6477 15.036 14.6493 14.3884 14.7142 13.9054C14.7763 13.4439 14.8835 13.2464 15.0138 13.1161Z" fill="#707070"/>
<path fill-rule="evenodd" clip-rule="evenodd" d="M16.8725 2.25H18.923C19.3674 2.25 19.7385 2.24999 20.0431 2.27077C20.3602 2.29241 20.6597 2.33905 20.9501 2.45933C21.6239 2.73844 22.1593 3.2738 22.4384 3.94762C22.5587 4.23801 22.6053 4.53754 22.6269 4.85464C22.6477 5.15925 22.6477 5.53029 22.6477 5.97475V6.02526C22.6477 6.46972 22.6477 6.84076 22.6269 7.14537C22.6053 7.46247 22.5587 7.76199 22.4384 8.05238C22.1593 8.72621 21.6239 9.26156 20.9501 9.54067C20.6597 9.66095 20.3602 9.7076 20.0431 9.72923C19.7385 9.75002 19.3674 9.75001 18.923 9.75H16.8724C16.428 9.75001 16.057 9.75002 15.7523 9.72923C15.4352 9.7076 15.1357 9.66095 14.8453 9.54067C14.1715 9.26156 13.6361 8.72621 13.357 8.05238C13.2368 7.76199 13.1901 7.46247 13.1685 7.14537C13.1477 6.84075 13.1477 6.46972 13.1477 6.02525V5.97475C13.1477 5.53029 13.1477 5.15925 13.1685 4.85464C13.1901 4.53754 13.2368 4.23801 13.357 3.94762C13.6361 3.2738 14.1715 2.73844 14.8453 2.45933C15.1357 2.33905 15.4352 2.29241 15.7523 2.27077C16.0569 2.24999 16.428 2.25 16.8725 2.25ZM15.8545 3.76729C15.6137 3.78372 15.4965 3.8132 15.4194 3.84515C15.1131 3.97202 14.8697 4.21536 14.7429 4.52165C14.7109 4.5988 14.6814 4.71602 14.665 4.95675C14.6481 5.20421 14.6477 5.5238 14.6477 6C14.6477 6.47621 14.6481 6.7958 14.665 7.04326C14.6814 7.28399 14.7109 7.4012 14.7429 7.47836C14.8697 7.78464 15.1131 8.02799 15.4194 8.15485C15.4965 8.18681 15.6137 8.21629 15.8545 8.23271C16.1019 8.2496 16.4215 8.25 16.8977 8.25H18.8977C19.3739 8.25 19.6935 8.2496 19.941 8.23271C20.1817 8.21629 20.2989 8.18681 20.3761 8.15485C20.6823 8.02799 20.9257 7.78464 21.0526 7.47836C21.0845 7.4012 21.114 7.28399 21.1304 7.04326C21.1473 6.7958 21.1477 6.47621 21.1477 6C21.1477 5.5238 21.1473 5.20421 21.1304 4.95674C21.114 4.71602 21.0845 4.5988 21.0526 4.52165C20.9257 4.21536 20.6823 3.97202 20.3761 3.84515C20.2989 3.8132 20.1817 3.78372 19.941 3.76729C19.6935 3.75041 19.3739 3.75 18.8977 3.75H16.8977C16.4215 3.75 16.1019 3.75041 15.8545 3.76729Z" fill="#707070"/>
<path fill-rule="evenodd" clip-rule="evenodd" d="M5.37246 15.25C4.928 15.25 4.55696 15.25 4.25234 15.2708C3.93524 15.2924 3.63572 15.3391 3.34533 15.4593C2.6715 15.7384 2.13615 16.2738 1.85704 16.9476C1.73676 17.238 1.69011 17.5375 1.66848 17.8546C1.6477 18.1592 1.6477 18.5302 1.64771 18.9747V19.0253C1.6477 19.4697 1.6477 19.8408 1.66848 20.1454C1.69011 20.4625 1.73676 20.762 1.85704 21.0524C2.13615 21.7262 2.6715 22.2616 3.34533 22.5407C3.63572 22.661 3.93524 22.7076 4.25234 22.7292C4.55695 22.75 4.92799 22.75 5.37245 22.75H7.42297C7.86742 22.75 8.23846 22.75 8.54307 22.7292C8.86017 22.7076 9.1597 22.661 9.45009 22.5407C10.1239 22.2616 10.6593 21.7262 10.9384 21.0524C11.0587 20.762 11.1053 20.4625 11.1269 20.1454C11.1477 19.8408 11.1477 19.4697 11.1477 19.0253V18.9747C11.1477 18.5303 11.1477 18.1592 11.1269 17.8546C11.1053 17.5375 11.0587 17.238 10.9384 16.9476C10.6593 16.2738 10.1239 15.7384 9.45009 15.4593C9.1597 15.3391 8.86017 15.2924 8.54307 15.2708C8.23846 15.25 7.86742 15.25 7.42296 15.25H5.37246ZM3.91935 16.8452C3.99651 16.8132 4.11372 16.7837 4.35445 16.7673C4.60191 16.7504 4.9215 16.75 5.39771 16.75H7.39771C7.87391 16.75 8.1935 16.7504 8.44097 16.7673C8.68169 16.7837 8.79891 16.8132 8.87606 16.8452C9.18235 16.972 9.42569 17.2154 9.55256 17.5216C9.58452 17.5988 9.61399 17.716 9.63042 17.9567C9.6473 18.2042 9.64771 18.5238 9.64771 19C9.64771 19.4762 9.6473 19.7958 9.63042 20.0433C9.61399 20.284 9.58452 20.4012 9.55256 20.4784C9.42569 20.7846 9.18235 21.028 8.87606 21.1549C8.79891 21.1868 8.68169 21.2163 8.44097 21.2327C8.1935 21.2496 7.87391 21.25 7.39771 21.25H5.39771C4.9215 21.25 4.60191 21.2496 4.35445 21.2327C4.11372 21.2163 3.99651 21.1868 3.91935 21.1549C3.61307 21.028 3.36973 20.7846 3.24286 20.4784C3.2109 20.4012 3.18142 20.284 3.165 20.0433C3.14811 19.7958 3.14771 19.4762 3.14771 19C3.14771 18.5238 3.14811 18.2042 3.165 17.9567C3.18142 17.716 3.2109 17.5988 3.24286 17.5216C3.36973 17.2154 3.61307 16.972 3.91935 16.8452Z" fill="#707070"/>
</g>
</g>
</svg>
