<svg width="51" height="50" viewBox="0 0 51 50" fill="none" xmlns="http://www.w3.org/2000/svg">
<g id="american samoa" clip-path="url(#clip0_9354_13763)">
<path id="Vector" d="M25.5 50C39.3071 50 50.5 38.8071 50.5 25C50.5 11.1929 39.3071 0 25.5 0C11.6929 0 0.5 11.1929 0.5 25C0.5 38.8071 11.6929 50 25.5 50Z" fill="#F0F0F0"/>
<g id="Group">
<path id="Vector_2" d="M37.6285 3.13594C34.0363 1.13906 29.9014 0 25.5 0C11.6939 0 0.501758 11.1912 0.5 24.9971L17.8913 16.3044L37.6285 3.13594Z" fill="#0052B4"/>
<path id="Vector_3" d="M0.5 25.0029C0.501758 38.8088 11.6939 50 25.5 50C29.9014 50 34.0363 48.8611 37.6285 46.8641L17.8913 33.6956L0.5 25.0029Z" fill="#0052B4"/>
</g>
<path id="Vector_4" d="M39.7119 4.43186C39.0404 3.96711 38.3446 3.53489 37.6276 3.13635L0.5 24.9971V25C0.5 25 0.5 25.0021 0.5 25.003L37.6277 46.8636C38.3447 46.465 39.0404 46.0328 39.712 45.5681L4.77949 25L39.7119 4.43186Z" fill="#D80027"/>
<path id="Vector_5" d="M43.9782 24.0677H41.0003C41.7746 23.138 41.7268 21.7549 40.8545 20.8827C41.7785 19.9588 41.7785 18.4607 40.8545 17.5365L40.7988 17.5924C41.7227 16.6685 41.7785 15.1145 40.8545 14.1906L27.4701 27.5749C28.3941 28.499 29.866 28.488 30.7899 27.564L31.0475 27.3285L37.4565 26.7459V29.5024H39.6304V26.5483L42.8913 26.2519L43.9782 24.0677Z" fill="#A2001D"/>
<path id="Vector_6" d="M27.6747 30.4348L25.5 29.3479L27.6747 28.2609H41.8051V30.4348H27.6747Z" fill="#FFDA44"/>
</g>
<defs>
<clipPath id="clip0_9354_13763">
<rect width="50" height="50" fill="white" transform="translate(0.5)"/>
</clipPath>
</defs>
</svg>
