<svg width="51" height="50" viewBox="0 0 51 50" fill="none" xmlns="http://www.w3.org/2000/svg">
<g id="anguilla" clip-path="url(#clip0_9354_13770)">
<path id="Vector" d="M50.25 25C50.25 38.807 39.057 50 25.25 50C11.443 50 0.25 38.807 0.25 25C0.25 25.006 25.25 0.00273438 25.25 0C39.057 0 50.25 11.193 50.25 25Z" fill="#0052B4"/>
<g id="Group">
<path id="Vector_2" d="M25.1831 25H25.25C25.25 24.9775 25.25 24.9557 25.25 24.9331C25.2277 24.9555 25.2055 24.9777 25.1831 25Z" fill="#F0F0F0"/>
<path id="Vector_3" d="M25.25 13.0435C25.25 8.64453 25.25 5.76221 25.25 0H25.2458C11.4405 0.00234375 0.25 11.1942 0.25 25H13.2935V17.6552L20.6383 25H25.1832C25.2055 24.9777 25.2277 24.9555 25.2501 24.9331C25.2501 23.2488 25.2501 21.746 25.2501 20.3885L17.9051 13.0435H25.25Z" fill="#F0F0F0"/>
</g>
<g id="Group_2">
<path id="Vector_4" d="M12.898 3.26086C8.98792 5.48733 5.73723 8.73792 3.51086 12.648V25H10.0326V9.78284V9.78264H25.25C25.25 7.72571 25.25 5.76614 25.25 3.26086H12.898Z" fill="#D80027"/>
<path id="Vector_5" d="M25.2502 21.9257L16.3679 13.0436H13.2936V13.0438L25.25 25H25.2502C25.2502 25 25.2502 22.8802 25.2502 21.9257Z" fill="#D80027"/>
</g>
<path id="Vector_6" d="M42.5292 28.6596C43.2481 27.6706 43.7282 26.4627 43.7282 25V14.1305C42.8199 14.8129 41.6909 15.2174 40.4674 15.2174C38.6895 15.2174 37.1111 14.3636 36.1196 13.0437C35.128 14.3636 33.5495 15.2174 31.7717 15.2174C30.5481 15.2174 29.4192 14.8128 28.5109 14.1307V25C28.5109 26.4627 28.991 27.6706 29.7099 28.6596H42.5292Z" fill="#F3F3F3"/>
<g id="Group_3">
<path id="Vector_7" d="M40.268 22.9834C40.6141 22.1391 40.8833 20.905 40.8833 20.2909C40.8833 19.3041 39.5967 18.5042 39.5967 18.5042C39.5967 18.5042 38.3102 19.3041 38.3102 20.2909C38.3102 20.9051 38.5795 22.1392 38.9254 22.9834L38.1827 24.6603C38.6192 24.8378 39.0963 24.9365 39.5968 24.9365C40.0973 24.9365 40.5744 24.8377 41.011 24.6603L40.268 22.9834Z" fill="#FF9811"/>
<path id="Vector_8" d="M35.2396 17.5539C34.3357 17.6764 33.1323 18.0607 32.6004 18.3677C31.7458 18.8612 31.6962 20.3751 31.6962 20.3751C31.6962 20.3751 33.0324 21.0893 33.8869 20.5959C34.4189 20.2888 35.3529 19.4388 35.9108 18.7169L37.7346 18.5216C37.6701 18.055 37.5165 17.5924 37.2666 17.1591C37.0162 16.7258 36.6925 16.3617 36.3204 16.0724L35.2396 17.5539Z" fill="#FF9811"/>
<path id="Vector_9" d="M33.0519 24.6236C33.6098 25.3451 34.5441 26.195 35.0761 26.5022C35.9307 26.9956 37.2667 26.2816 37.2667 26.2816C37.2667 26.2816 37.2169 24.7675 36.3625 24.274C35.8304 23.9669 34.6272 23.583 33.7231 23.4607L32.6423 21.979C32.2703 22.2683 31.9465 22.6325 31.6962 23.0654C31.4461 23.4989 31.293 23.9613 31.2281 24.4282L33.0519 24.6236Z" fill="#FF9811"/>
</g>
<path id="Vector_10" d="M29.441 28.2611C31.4711 31.5184 36.1196 32.6088 36.1196 32.6088C36.1196 32.6088 40.768 31.5184 42.7982 28.2611H29.441Z" fill="#338AF3"/>
</g>
<defs>
<clipPath id="clip0_9354_13770">
<rect width="50" height="50" fill="white" transform="translate(0.25)"/>
</clipPath>
</defs>
</svg>
