<svg width="135" height="42" viewBox="0 0 135 42" fill="none" xmlns="http://www.w3.org/2000/svg">
<path d="M129.356 39.9509H5.55247C3.04353 39.9509 1.01042 37.8664 1.01042 35.2941V5.22411C1.01042 2.65176 3.04353 0.567261 5.55247 0.567261H129.356C131.865 0.567261 133.898 2.65176 133.898 5.22411V35.2941C133.898 37.8664 131.865 39.9509 129.356 39.9509Z" fill="black"/>
<mask id="mask0_8333_9708" style="mask-type:luminance" maskUnits="userSpaceOnUse" x="0" y="0" width="135" height="42">
<path d="M0.513184 0.0596924H134.391V41.0597H0.513184V0.0596924Z" fill="white"/>
</mask>
<g mask="url(#mask0_8333_9708)">
<path d="M5.5503 1.07726C3.32013 1.07726 1.50571 2.93754 1.50571 5.22408V35.294C1.50571 37.5806 3.32013 39.4408 5.5503 39.4408H129.356C131.586 39.4408 133.401 37.5806 133.401 35.294V5.22408C133.401 2.93754 131.586 1.07726 129.356 1.07726H5.5503ZM129.356 40.4609H5.5503C2.7722 40.4609 0.513191 38.1423 0.513191 35.294V5.22408C0.513191 2.37576 2.7722 0.0571899 5.5503 0.0571899H129.356C132.134 0.0571899 134.393 2.37576 134.393 5.22408V35.294C134.393 38.1423 132.134 40.4609 129.356 40.4609Z" fill="#464646"/>
</g>
<path d="M46.9382 10.6324L46.4287 8.99637C46.3037 8.59228 46.198 8.14138 46.1019 7.757H46.0826C45.9889 8.14138 45.8904 8.60214 45.7774 8.99637L45.2776 10.6324H46.9382ZM45.0853 11.5465L44.5278 13.429H43.3069L45.3833 6.79114H46.8901L48.9929 13.429H47.7264L47.14 11.5465" fill="white"/>
<path d="M50.7595 8.63422L51.5189 11.0637C51.6535 11.4875 51.7472 11.8718 51.8337 12.2661H51.8625C51.949 11.8718 52.0548 11.4973 52.1798 11.0637L52.9295 8.63422H54.1672L52.3816 13.429H51.2209L49.481 8.63422" fill="white"/>
<path d="M57.7311 11.0833C56.8947 11.0735 56.0969 11.2509 56.0969 11.9802C56.0969 12.4533 56.3949 12.6701 56.7698 12.6701C57.248 12.6701 57.5869 12.3547 57.6998 12.0098C57.7311 11.9211 57.7311 11.8324 57.7311 11.7437V11.0833ZM58.8822 12.2759C58.8822 12.7095 58.9014 13.1333 58.9591 13.4265H57.8921L57.808 12.8968H57.7767C57.5003 13.2688 57.0101 13.535 56.3949 13.535C55.4528 13.535 54.9265 12.8377 54.9265 12.1083C54.9265 10.9059 55.9719 10.2875 57.6998 10.2973V10.2185C57.6998 9.9031 57.5772 9.38074 56.7505 9.38074C56.2891 9.38074 55.8085 9.52858 55.4913 9.73555L55.2606 8.94709C55.6066 8.73026 56.2122 8.52576 56.9524 8.52576C58.4496 8.52576 58.8822 9.49901 58.8822 10.5536" fill="white"/>
<path d="M60.5525 8.63421H61.7325V13.429H60.5525V8.63421ZM61.1365 7.9443C60.7447 7.9443 60.4852 7.64863 60.4852 7.29382C60.4852 6.9193 60.7519 6.63348 61.1485 6.63348C61.5498 6.63348 61.7997 6.9193 61.8094 7.29382C61.8094 7.64863 61.5498 7.9443 61.1485 7.9443" fill="white"/>
<path d="M63.4313 13.429H64.6137V6.42651H63.4313V13.429Z" fill="white"/>
<path d="M68.8001 11.0833C67.9638 11.0735 67.1659 11.2509 67.1659 11.9802C67.1659 12.4533 67.4639 12.6701 67.8388 12.6701C68.3195 12.6701 68.6559 12.3547 68.7713 12.0098C68.8001 11.9211 68.8001 11.8324 68.8001 11.7437V11.0833ZM69.9512 12.2759C69.9512 12.7095 69.9705 13.1333 70.0281 13.4265H68.9635L68.877 12.8968H68.8482C68.5694 13.2688 68.0791 13.535 67.4639 13.535C66.5243 13.535 65.9956 12.8377 65.9956 12.1083C65.9956 10.9059 67.0434 10.2875 68.7713 10.2973V10.2185C68.7713 9.9031 68.6463 9.38074 67.8196 9.38074C67.3582 9.38074 66.8775 9.52858 66.5627 9.73555L66.332 8.94709C66.6781 8.73026 67.2813 8.52576 68.0215 8.52576C69.5187 8.52576 69.9512 9.49901 69.9512 10.5536" fill="white"/>
<path d="M72.8038 11.448C72.8038 11.5466 72.8135 11.6451 72.8327 11.7338C72.9576 12.2266 73.371 12.5814 73.8781 12.5814C74.6183 12.5814 75.0701 11.9802 75.0701 11.007C75.0701 10.1594 74.6759 9.46948 73.8877 9.46948C73.407 9.46948 72.9673 9.82429 72.8423 10.3565C72.8231 10.4452 72.8038 10.5536 72.8038 10.6719V11.448ZM71.6215 6.42651H72.8038V9.29208H72.8231C73.1115 8.82886 73.6185 8.52579 74.3203 8.52579C75.4642 8.52579 76.2789 9.49905 76.2693 10.9577C76.2693 12.68 75.2046 13.5375 74.1472 13.5375C73.5416 13.5375 73.0057 13.3009 72.6693 12.7096H72.65L72.5924 13.429H71.583C71.6022 13.1038 71.6215 12.5716 71.6215 12.0887" fill="white"/>
<path d="M77.6607 13.429H78.8407V6.42651H77.6607V13.429Z" fill="white"/>
<path d="M83.4403 10.524C83.4499 10.0805 83.2576 9.35118 82.4718 9.35118C81.7412 9.35118 81.4336 10.0312 81.3855 10.524H83.4403ZM81.3855 11.3691C81.4144 12.2365 82.0777 12.611 82.8275 12.611C83.373 12.611 83.7575 12.5223 84.1228 12.3941L84.2958 13.2196C83.8921 13.3994 83.3345 13.5251 82.664 13.5251C81.1452 13.5251 80.2512 12.5716 80.2512 11.1055C80.2512 9.77498 81.0395 8.52576 82.5391 8.52576C84.0555 8.52576 84.5554 9.80454 84.5554 10.8591C84.5554 11.0858 84.5361 11.2632 84.5169 11.3691" fill="white"/>
<path d="M90.4219 12.6603C91.0924 12.6603 91.5634 11.9901 91.5634 11.0168C91.5634 10.2678 91.2366 9.40046 90.4315 9.40046C89.5952 9.40046 89.2587 10.2382 89.2587 11.0365C89.2587 11.9605 89.7105 12.6603 90.4099 12.6603H90.4219ZM90.3834 13.5374C89.0665 13.5374 88.0403 12.611 88.0403 11.0661C88.0403 9.48916 89.0473 8.52576 90.4603 8.52576C91.8518 8.52576 92.7842 9.52858 92.7842 10.9872C92.7842 12.749 91.573 13.5374 90.3931 13.5374" fill="white"/>
<path d="M94.1731 10.0608C94.1731 9.50887 94.1562 9.04565 94.137 8.63171H95.1632L95.2209 9.35118H95.2497C95.4612 8.97666 95.9707 8.52576 96.7493 8.52576C97.564 8.52576 98.4099 9.06536 98.4099 10.5831V13.4265H97.2275V10.7211C97.2275 10.0312 96.9776 9.50887 96.336 9.50887C95.8649 9.50887 95.5381 9.85382 95.4131 10.2185C95.3747 10.317 95.3554 10.4649 95.3554 10.6029V13.4265H94.1731" fill="white"/>
<path d="M103.853 7.40228V8.63179H104.975V9.53852H103.853V11.6452C103.853 12.2365 104.007 12.5322 104.456 12.5322C104.668 12.5322 104.783 12.5224 104.918 12.4829L104.937 13.3971C104.764 13.4685 104.446 13.5252 104.081 13.5252C103.641 13.5252 103.286 13.3773 103.065 13.1334C102.805 12.8575 102.69 12.4139 102.69 11.7832V9.53852H102.026V8.63179H102.69V7.73738" fill="white"/>
<path d="M106.29 6.42651H107.473V9.28222H107.492C107.636 9.05554 107.838 8.86828 108.078 8.74016C108.319 8.60464 108.595 8.52579 108.893 8.52579C109.691 8.52579 110.525 9.0654 110.525 10.6029V13.429H109.345V10.731C109.345 10.0411 109.095 9.50891 108.441 9.50891C107.982 9.50891 107.655 9.82429 107.521 10.189C107.482 10.2974 107.473 10.4255 107.473 10.5536V13.429H106.29" fill="white"/>
<path d="M115.096 10.524C115.105 10.0805 114.913 9.35118 114.125 9.35118C113.394 9.35118 113.089 10.0312 113.041 10.524H115.096ZM113.041 11.3691C113.07 12.2365 113.731 12.611 114.48 12.611C115.028 12.611 115.413 12.5223 115.776 12.3941L115.951 13.2196C115.547 13.3994 114.99 13.5251 114.317 13.5251C112.801 13.5251 111.907 12.5716 111.907 11.1055C111.907 9.77498 112.695 8.52576 114.192 8.52576C115.708 8.52576 116.208 9.80454 116.208 10.8591C116.208 11.0858 116.189 11.2632 116.17 11.3691" fill="white"/>
<path d="M30.3918 19.8648C30.3606 16.5804 33.0137 14.9813 33.1363 14.9074C31.6343 12.6603 29.3056 12.3547 28.4861 12.3301C26.5323 12.1207 24.6362 13.5325 23.6413 13.5325C22.6247 13.5325 21.0891 12.3523 19.4381 12.3868C17.3088 12.4213 15.319 13.6853 14.2279 15.6441C11.9785 19.6431 13.656 25.5171 15.814 28.7498C16.8955 30.3317 18.1547 32.1008 19.8057 32.0367C21.4207 31.9677 22.0239 30.9821 23.9729 30.9821C25.9051 30.9821 26.4722 32.0367 28.1569 31.9973C29.8896 31.9677 30.9806 30.408 32.0212 28.8089C33.2709 26.9955 33.7707 25.2091 33.79 25.118C33.7491 25.1032 30.4255 23.8022 30.3918 19.8648Z" fill="white"/>
<path d="M27.2103 10.2062C28.0779 9.09252 28.6763 7.57473 28.508 6.03723C27.2512 6.09637 25.6795 6.92918 24.7735 8.01824C23.9732 8.97918 23.2546 10.5536 23.4421 12.032C24.8552 12.1404 26.3043 11.3027 27.2103 10.2062Z" fill="white"/>
<path d="M49.882 26.1356L48.767 22.6047C48.6492 22.245 48.4281 21.3949 48.1013 20.0595H48.0628C47.933 20.6336 47.7216 21.4836 47.4356 22.6047L46.3397 26.1356H49.882ZM53.7368 31.7755H51.485L50.2521 27.8037H45.9696L44.7945 31.7755H42.6027L46.8516 18.2534H49.4711" fill="white"/>
<path d="M62.5039 26.86C62.5039 25.9089 62.2948 25.1278 61.8767 24.5118C61.4201 23.8712 60.8072 23.5484 60.0382 23.5484C59.5167 23.5484 59.0409 23.7283 58.6203 24.0806C58.1974 24.4379 57.9186 24.9011 57.7864 25.4777C57.7215 25.7438 57.6903 25.9631 57.6903 26.1356V27.7618C57.6903 28.4714 57.9018 29.0701 58.3247 29.558C58.7501 30.0483 59.3004 30.2898 59.9781 30.2898C60.776 30.2898 61.396 29.9769 61.8358 29.3461C62.2828 28.7178 62.5039 27.8899 62.5039 26.86ZM64.6572 26.7787C64.6572 28.4369 64.2198 29.7502 63.345 30.7111C62.5616 31.5686 61.5883 31.9948 60.4299 31.9948C59.1755 31.9948 58.2767 31.5316 57.7287 30.6101H57.6903V35.7474H55.5755V25.2338C55.5755 24.1915 55.5514 23.1222 55.4986 22.0232H57.3563L57.474 23.5706H57.5149C58.219 22.4052 59.2884 21.8237 60.7231 21.8237C61.843 21.8237 62.7827 22.2795 63.5301 23.1887C64.2799 24.1004 64.6572 25.2954 64.6572 26.7787Z" fill="white"/>
<path d="M73.4409 26.86C73.4409 25.9089 73.2318 25.1278 72.8137 24.5118C72.3571 23.8712 71.7443 23.5484 70.9752 23.5484C70.4537 23.5484 69.9803 23.7283 69.5574 24.0806C69.132 24.4379 68.858 24.9011 68.7282 25.4777C68.661 25.7438 68.6297 25.9631 68.6297 26.1356V27.7618C68.6297 28.4714 68.8388 29.0701 69.2618 29.558C69.6871 30.0483 70.2375 30.2898 70.9176 30.2898C71.713 30.2898 72.333 29.9769 72.7752 29.3461C73.2174 28.7178 73.4409 27.8899 73.4409 26.86ZM75.5918 26.7787C75.5918 28.4369 75.1568 29.7502 74.282 30.7111C73.4986 31.5686 72.5277 31.9948 71.367 31.9948C70.1149 31.9948 69.2161 31.5316 68.6658 30.6101H68.6297V35.7474H66.5149V25.2338C66.5149 24.1915 66.4885 23.1222 66.438 22.0232H68.2957L68.4134 23.5706H68.4543C69.156 22.4052 70.2254 21.8237 71.6602 21.8237C72.7824 21.8237 73.7173 22.2795 74.4695 23.1887C75.2193 24.1004 75.5918 25.2954 75.5918 26.7787Z" fill="white"/>
<path d="M87.8239 27.9835C87.8239 29.1317 87.4346 30.068 86.6512 30.7924C85.7908 31.5809 84.5964 31.9751 83.0608 31.9751C81.6405 31.9751 80.5014 31.6942 79.6386 31.1325L80.1289 29.3289C81.0589 29.903 82.0755 30.1888 83.1858 30.1888C83.9812 30.1888 84.6012 30.0064 85.0458 29.6393C85.488 29.2697 85.7091 28.7769 85.7091 28.1609C85.7091 27.614 85.5289 27.1483 85.1636 26.7737C84.7983 26.3992 84.1903 26.0518 83.342 25.729C81.0325 24.8445 79.8789 23.5509 79.8789 21.8508C79.8789 20.7396 80.2827 19.8279 81.0926 19.1183C81.9 18.4087 82.9767 18.0514 84.3201 18.0514C85.5217 18.0514 86.519 18.2682 87.3145 18.6945L86.7857 20.4611C86.0432 20.0472 85.202 19.8377 84.2624 19.8377C83.5174 19.8377 82.9382 20.025 82.5225 20.3995C82.1716 20.7346 81.9938 21.1436 81.9938 21.6241C81.9938 22.1588 82.1932 22.5998 82.5994 22.9472C82.9502 23.2676 83.5895 23.615 84.5171 23.992C85.6514 24.4601 86.4853 25.0071 87.0213 25.6354C87.5548 26.2637 87.8239 27.0472 87.8239 27.9835Z" fill="white"/>
<path d="M94.8077 23.6495H92.479V28.3827C92.479 29.5876 92.89 30.1888 93.7143 30.1888C94.0892 30.1888 94.404 30.1568 94.6515 30.0902L94.7092 31.7337C94.2959 31.8963 93.7455 31.9752 93.0678 31.9752C92.2339 31.9752 91.5802 31.714 91.1092 31.1941C90.6406 30.6717 90.4051 29.7946 90.4051 28.5651V23.6495H89.016V22.0233H90.4051V20.2394L92.479 19.5963V22.0233H94.8077" fill="white"/>
<path d="M103.125 26.8895C103.125 25.9902 102.935 25.2214 102.556 24.5759C102.116 23.7973 101.481 23.408 100.66 23.408C99.8113 23.408 99.1648 23.7973 98.7226 24.5759C98.3429 25.2214 98.1579 26.005 98.1579 26.9314C98.1579 27.8308 98.3429 28.5995 98.7226 29.2426C99.1792 30.0212 99.8185 30.4105 100.643 30.4105C101.448 30.4105 102.082 30.0163 102.539 29.2229C102.931 28.5675 103.125 27.7889 103.125 26.8895ZM105.317 26.8205C105.317 28.3186 104.901 29.5481 104.065 30.5115C103.19 31.502 102.029 31.9948 100.583 31.9948C99.184 31.9948 98.0737 31.5193 97.2446 30.5707C96.4179 29.622 96.0046 28.4246 96.0046 26.9807C96.0046 25.4678 96.43 24.2309 97.2855 23.27C98.1386 22.3041 99.2898 21.8237 100.736 21.8237C102.133 21.8237 103.257 22.2992 104.103 23.2478C104.913 24.1743 105.317 25.3619 105.317 26.8205Z" fill="white"/>
<path d="M112.185 23.9303C111.976 23.8909 111.755 23.8712 111.52 23.8712C110.777 23.8712 110.2 24.1595 109.796 24.7336C109.446 25.2436 109.27 25.8842 109.27 26.6579V31.7755H107.158L107.175 25.0958C107.175 23.9698 107.148 22.9472 107.098 22.0232H108.939L109.015 23.8909H109.071C109.294 23.2503 109.647 22.7329 110.128 22.346C110.599 21.9986 111.109 21.8237 111.657 21.8237C111.851 21.8237 112.029 21.8385 112.185 21.8631" fill="white"/>
<path d="M119.618 25.8769C119.633 25.2362 119.496 24.6794 119.21 24.2112C118.845 23.61 118.28 23.307 117.525 23.307C116.835 23.307 116.273 23.6026 115.843 24.1915C115.492 24.6597 115.281 25.2214 115.221 25.8769H119.618ZM121.632 26.4386C121.632 26.8279 121.608 27.1532 121.558 27.4217H115.221C115.242 28.3851 115.55 29.1219 116.139 29.6294C116.672 30.0853 117.364 30.3095 118.213 30.3095C119.15 30.3095 120.005 30.1567 120.777 29.8487L121.108 31.3542C120.207 31.7534 119.145 31.9579 117.917 31.9579C116.444 31.9579 115.285 31.5119 114.444 30.6199C113.606 29.7329 113.183 28.5379 113.183 27.0398C113.183 25.5689 113.572 24.3443 114.358 23.3686C115.177 22.3238 116.288 21.804 117.681 21.804C119.051 21.804 120.092 22.3238 120.796 23.3686C121.356 24.1964 121.632 25.2214 121.632 26.4386Z" fill="white"/>
</svg>
