<svg width="44" height="44" viewBox="0 0 44 44" fill="none" xmlns="http://www.w3.org/2000/svg">
<path fill-rule="evenodd" clip-rule="evenodd" d="M20.5303 15.4697C20.8232 15.7626 20.8232 16.2374 20.5303 16.5303L15.8107 21.25H30C30.4142 21.25 30.75 21.5858 30.75 22C30.75 22.4142 30.4142 22.75 30 22.75H15.8107L20.5303 27.4697C20.8232 27.7626 20.8232 28.2374 20.5303 28.5303C20.2374 28.8232 19.7626 28.8232 19.4697 28.5303L13.4697 22.5303C13.1768 22.2374 13.1768 21.7626 13.4697 21.4697L19.4697 15.4697C19.7626 15.1768 20.2374 15.1768 20.5303 15.4697Z" fill="#1C1C1C"/>
<rect x="0.5" y="0.5" width="43" height="43" rx="21.5" stroke="#E1E4E8"/>
</svg>
