<svg width="33" height="32" viewBox="0 0 33 32" fill="none" xmlns="http://www.w3.org/2000/svg">
<path fill-rule="evenodd" clip-rule="evenodd" d="M31.0967 7.68202C31.0967 8.37109 30.5381 8.92969 29.849 8.92969L3.23216 8.92969C2.5431 8.92969 1.9845 8.37109 1.9845 7.68202C1.9845 6.99296 2.5431 6.43436 3.23216 6.43436L29.849 6.43436C30.5381 6.43436 31.0967 6.99296 31.0967 7.68202Z" fill="#212121"/>
<path fill-rule="evenodd" clip-rule="evenodd" d="M31.0967 16.0004C31.0967 16.6894 30.5381 17.248 29.849 17.248L3.23216 17.248C2.5431 17.248 1.9845 16.6894 1.9845 16.0004C1.9845 15.3113 2.5431 14.7527 3.23216 14.7527L29.849 14.7527C30.5381 14.7527 31.0967 15.3113 31.0967 16.0004Z" fill="#212121"/>
<path fill-rule="evenodd" clip-rule="evenodd" d="M31.0967 24.3178C31.0967 25.0068 30.5381 25.5654 29.849 25.5654L3.23216 25.5654C2.5431 25.5654 1.9845 25.0068 1.9845 24.3178C1.9845 23.6287 2.5431 23.0701 3.23216 23.0701L29.849 23.0701C30.5381 23.0701 31.0967 23.6287 31.0967 24.3178Z" fill="#212121"/>
</svg>
