<svg width="26" height="26" viewBox="0 0 26 26" fill="none" xmlns="http://www.w3.org/2000/svg">
<g id="Bold / Essentional, UI / Bolt">
<path id="Vector" d="M6.50651 10.8813L9.70849 6.54902C11.7782 3.74867 12.8131 2.34849 13.7787 2.64438C14.7442 2.94027 14.7442 4.65758 14.7442 8.09221V8.41606C14.7442 9.65485 14.7442 10.2743 15.14 10.6628L15.161 10.6829C15.5653 11.0632 16.21 11.0632 17.4993 11.0632C19.8195 11.0632 20.9796 11.0632 21.3717 11.7669C21.3782 11.7785 21.3845 11.7903 21.3906 11.8021C21.7607 12.5167 21.089 13.4255 19.7456 15.2431L16.5436 19.5753C14.4738 22.3756 13.4389 23.7758 12.4734 23.4799C11.5079 23.184 11.5079 21.4667 11.508 18.032L11.508 17.7083C11.508 16.4695 11.508 15.8501 11.1122 15.4616L11.0912 15.4414C10.6869 15.0611 10.0422 15.0611 8.75284 15.0611C6.43264 15.0611 5.27254 15.0611 4.88047 14.3574C4.87398 14.3458 4.86767 14.3341 4.86154 14.3222C4.49142 13.6077 5.16312 12.6989 6.50651 10.8813Z" fill="white"/>
</g>
</svg>
