<svg width="25" height="25" viewBox="0 0 25 25" fill="none" xmlns="http://www.w3.org/2000/svg">
<g id="Outline / Essentional, UI / Bolt">
<path id="Vector" fill-rule="evenodd" clip-rule="evenodd" d="M21.4254 10.8731C21.0547 10.2311 20.3754 10.0201 19.7269 9.92944C19.0732 9.83803 18.1983 9.83806 17.1401 9.83809L17.08 9.83809C16.4498 9.83809 16.0379 9.83188 15.7377 9.79015C15.4663 9.75241 15.38 9.69655 15.3432 9.66397C15.3162 9.63587 15.2681 9.57014 15.2354 9.33317C15.1968 9.05376 15.1952 8.67061 15.1952 8.05655V7.68206C15.1952 6.09454 15.1952 4.8228 15.073 3.91611C14.9583 3.06505 14.6857 2.1092 13.7415 1.81986C12.8139 1.5356 12.0359 2.14515 11.4312 2.77356C10.7869 3.44301 10.0217 4.47846 9.06348 5.7749L5.92649 10.0192C5.31615 10.8449 4.80736 11.5332 4.50421 12.1024C4.20032 12.673 3.97916 13.3504 4.31624 14.0263L4.31741 14.0288L4.32097 14.036L4.325 14.044L4.32898 14.0517L4.33333 14.0599L4.33775 14.068L4.34193 14.0755L4.34636 14.0833L4.35041 14.0902L4.3519 14.0927C4.71941 14.7291 5.39577 14.9519 6.05013 15.0518C6.72445 15.1548 7.62423 15.1614 8.71547 15.1614C9.35208 15.1614 9.758 15.1628 10.0561 15.2008C10.3195 15.2344 10.3982 15.2862 10.432 15.316C10.4619 15.3473 10.5143 15.4202 10.5513 15.6658C10.5936 15.9468 10.6003 16.3359 10.6003 16.943L10.6003 17.3173C10.6002 18.9049 10.6002 20.1766 10.7224 21.0833C10.837 21.9344 11.1096 22.8902 12.0538 23.1796C12.9814 23.4639 13.7594 22.8543 14.3642 22.2259C15.0084 21.5564 15.7737 20.521 16.7319 19.2245L19.8313 15.0312C20.4621 14.1778 20.9809 13.4648 21.2868 12.8713C21.5862 12.2906 21.7951 11.6092 21.4611 10.9395L21.46 10.9371L21.4564 10.9299L21.4523 10.9218L21.4484 10.9141L21.444 10.9059L21.4396 10.8978L21.4354 10.8902L21.4309 10.8824L21.4268 10.8754L21.4254 10.8731ZM12.512 3.81367C11.944 4.40386 11.2363 5.35878 10.2325 6.71684L7.17038 10.8599C6.5127 11.7497 6.07266 12.3485 5.82814 12.8076C5.70913 13.031 5.66445 13.172 5.65173 13.2573C5.64387 13.31 5.64867 13.3338 5.65495 13.3491C5.67913 13.3847 5.78415 13.4939 6.27652 13.569C6.81442 13.6512 7.58784 13.6614 8.71547 13.6614L8.76145 13.6614C9.33858 13.6614 9.84145 13.6613 10.2458 13.7129C10.679 13.7681 11.1093 13.8937 11.4656 14.2288L11.4714 14.2343L11.4771 14.2399C11.8271 14.5834 11.9694 15.0094 12.0346 15.4424C12.0969 15.8563 12.1003 16.3654 12.1003 16.943L12.1003 17.2526C12.1002 18.9195 12.1019 20.0889 12.2089 20.883C12.2622 21.2784 12.3339 21.5103 12.4025 21.6399C12.4539 21.7369 12.4835 21.7433 12.4918 21.7451L12.4933 21.7454L12.4948 21.7459C12.5053 21.7495 12.5422 21.7623 12.6558 21.7051C12.7978 21.6336 13.0007 21.4795 13.2834 21.1858C13.8513 20.5956 14.5591 19.6407 15.5629 18.2826L18.625 14.1396C19.279 13.2548 19.7147 12.6473 19.9536 12.184C20.1583 11.7868 20.136 11.6523 20.1224 11.6166C20.1 11.5838 19.9991 11.4821 19.5192 11.415C18.9821 11.3399 18.2136 11.3381 17.08 11.3381C16.4771 11.3381 15.9543 11.3347 15.5312 11.2759C15.0943 11.2151 14.663 11.0836 14.3099 10.7515L14.304 10.746L14.2983 10.7404C13.9451 10.3937 13.8089 9.96825 13.7495 9.53838C13.6951 9.14405 13.6951 8.65573 13.6951 8.10489L13.6952 7.74685C13.6952 6.07995 13.6935 4.9105 13.5864 4.11643C13.5332 3.72104 13.4615 3.48911 13.3929 3.35959C13.3415 3.26252 13.3118 3.25617 13.3035 3.25438L13.302 3.25403L13.3005 3.25352C13.2901 3.24991 13.2532 3.23719 13.1395 3.29439C12.9975 3.36584 12.7947 3.51993 12.512 3.81367Z" fill="#707070"/>
</g>
</svg>
