<svg width="32" height="32" viewBox="0 0 32 32" fill="none" xmlns="http://www.w3.org/2000/svg">
<g id="Bold / School / Bookmark Square Minimalistic">
<g id="Vector">
<path d="M10.3532 13.1968C10.3338 12.859 10.3334 12.4058 10.3334 11.7435V2.75834C11.8744 2.66669 13.7328 2.66669 16 2.66669C18.2673 2.66669 20.1256 2.66669 21.6667 2.75834V11.7435C21.6667 12.4058 21.6663 12.859 21.6468 13.1968C21.6266 13.5468 21.5898 13.6544 21.5806 13.6751C21.3844 14.1168 20.9004 14.3549 20.4308 14.2409C20.4088 14.2356 20.301 14.1991 20.0114 14.0016C19.7319 13.8109 19.3725 13.5347 18.8478 13.1307L18.7584 13.0618C18.2648 12.6813 17.8802 12.3847 17.4611 12.2026C16.5291 11.7977 15.4709 11.7977 14.5389 12.2026C14.1199 12.3847 13.7352 12.6813 13.2416 13.0618L13.1523 13.1307C12.6275 13.5347 12.2682 13.8109 11.9887 14.0016C11.6991 14.1991 11.5912 14.2356 11.5693 14.2409C11.0996 14.3549 10.6156 14.1168 10.4194 13.6751C10.4103 13.6544 10.3734 13.5468 10.3532 13.1968Z" fill="#1C1C1C"/>
<path d="M16 29.3334C9.71463 29.3334 6.57193 29.3334 4.61931 27.3807C2.66669 25.4281 2.66669 22.2854 2.66669 16C2.66669 9.71463 2.66669 6.57193 4.61931 4.61931C5.53136 3.70726 6.70304 3.22122 8.33335 2.9622L8.33335 11.7747C8.33335 12.3981 8.33334 12.9095 8.35653 13.3119C8.37941 13.7088 8.42862 14.1199 8.59164 14.4869C9.1802 15.812 10.6322 16.5265 12.0412 16.1845C12.4314 16.0897 12.7872 15.8779 13.1156 15.6538C13.4486 15.4267 13.8538 15.1147 14.3478 14.7344L14.3725 14.7153C14.9982 14.2335 15.1744 14.1072 15.3359 14.037C15.7595 13.8529 16.2405 13.8529 16.6641 14.037C16.8257 14.1072 17.0018 14.2335 17.6276 14.7153L17.6523 14.7344C18.1463 15.1147 18.5514 15.4267 18.8844 15.6538C19.2128 15.8779 19.5686 16.0897 19.9589 16.1845C21.3678 16.5265 22.8198 15.812 23.4084 14.4869C23.5714 14.1199 23.6206 13.7088 23.6435 13.3119C23.6667 12.9095 23.6667 12.3981 23.6667 11.7747V2.9622C25.297 3.22122 26.4687 3.70726 27.3807 4.61931C29.3334 6.57193 29.3334 9.71463 29.3334 16C29.3334 22.2854 29.3334 25.4281 27.3807 27.3807C25.4281 29.3334 22.2854 29.3334 16 29.3334Z" fill="#1C1C1C"/>
</g>
</g>
</svg>
