<svg width="25" height="24" viewBox="0 0 25 24" fill="none" xmlns="http://www.w3.org/2000/svg">
<path d="M14.5 4H10.5C6.72876 4 4.84315 4 3.67157 5.17157C2.82803 6.01511 2.59185 7.22882 2.52572 9.25H22.4743C22.4082 7.22882 22.172 6.01511 21.3284 5.17157C20.1569 4 18.2712 4 14.5 4Z" fill="white"/>
<path d="M10.5 20H14.5C18.2712 20 20.1569 20 21.3284 18.8284C22.5 17.6569 22.5 15.7712 22.5 12C22.5 11.5581 22.5 11.142 22.4981 10.75H2.50189C2.5 11.142 2.5 11.5581 2.5 12C2.5 15.7712 2.5 17.6569 3.67157 18.8284C4.84315 20 6.72876 20 10.5 20Z" fill="white"/>
<path fill-rule="evenodd" clip-rule="evenodd" d="M5.75 16C5.75 15.5858 6.08579 15.25 6.5 15.25H10.5C10.9142 15.25 11.25 15.5858 11.25 16C11.25 16.4142 10.9142 16.75 10.5 16.75H6.5C6.08579 16.75 5.75 16.4142 5.75 16Z" fill="#1B201B"/>
<path fill-rule="evenodd" clip-rule="evenodd" d="M12.25 16C12.25 15.5858 12.5858 15.25 13 15.25H14.5C14.9142 15.25 15.25 15.5858 15.25 16C15.25 16.4142 14.9142 16.75 14.5 16.75H13C12.5858 16.75 12.25 16.4142 12.25 16Z" fill="#1B201B"/>
</svg>
