<svg width="25" height="25" viewBox="0 0 25 25" fill="none" xmlns="http://www.w3.org/2000/svg">
<g id="colour palette">
<path id="Vector" fill-rule="evenodd" clip-rule="evenodd" d="M11.7496 22.4342C6.76996 21.8624 2.90283 17.6328 2.90283 12.5C2.90283 6.97715 7.37998 2.5 12.9028 2.5C18.4257 2.5 22.9028 6.97715 22.9028 12.5C22.9028 17.6565 19.6201 17.2325 16.8164 16.8703C15.1992 16.6614 13.7414 16.4731 13.1647 17.388C12.7703 18.0136 13.1966 18.7938 13.7196 19.3168C14.3731 19.9703 14.3731 21.0297 13.7196 21.6832C13.1966 22.2062 12.4844 22.5186 11.7496 22.4342ZM11.9878 7.49976C11.9878 8.32818 11.3163 8.99976 10.4878 8.99976C9.65941 8.99976 8.98783 8.32818 8.98783 7.49976C8.98783 6.67133 9.65941 5.99976 10.4878 5.99976C11.3163 5.99976 11.9878 6.67133 11.9878 7.49976ZM7.40283 13.5C8.23126 13.5 8.90283 12.8284 8.90283 12C8.90283 11.1716 8.23126 10.5 7.40283 10.5C6.5744 10.5 5.90283 11.1716 5.90283 12C5.90283 12.8284 6.5744 13.5 7.40283 13.5ZM18.4028 13.5C19.2313 13.5 19.9028 12.8284 19.9028 12C19.9028 11.1716 19.2313 10.5 18.4028 10.5C17.5744 10.5 16.9028 11.1716 16.9028 12C16.9028 12.8284 17.5744 13.5 18.4028 13.5ZM15.4028 8.99998C16.2313 8.99998 16.9028 8.32841 16.9028 7.49998C16.9028 6.67156 16.2313 5.99998 15.4028 5.99998C14.5744 5.99998 13.9028 6.67156 13.9028 7.49998C13.9028 8.32841 14.5744 8.99998 15.4028 8.99998Z" fill="#1C1C1C"/>
</g>
</svg>
