<svg width="25" height="25" viewBox="0 0 25 25" fill="none" xmlns="http://www.w3.org/2000/svg">
<g id="Outline / Design, Tools / Pallete 2">
<path id="Vector" fill-rule="evenodd" clip-rule="evenodd" d="M12.8977 3.25C7.79091 3.25 3.64771 7.40121 3.64771 12.5261C3.64771 17.2885 7.22631 21.2112 11.8303 21.7412C12.2927 21.7944 12.7877 21.6004 13.1835 21.2036C13.545 20.8412 13.545 20.2528 13.1835 19.8904C12.8716 19.5776 12.5588 19.1609 12.3876 18.6872C12.2123 18.202 12.169 17.5933 12.5247 17.0276C12.8476 16.514 13.3318 16.239 13.8398 16.1053C14.329 15.9766 14.8711 15.9693 15.3917 16.0009C15.8757 16.0303 16.3968 16.0978 16.9022 16.1633C16.9448 16.1689 16.9873 16.1744 17.0297 16.1798C17.5866 16.2517 18.1305 16.3188 18.6558 16.3439C19.7301 16.3954 20.5576 16.26 21.1231 15.7976C21.6644 15.3552 22.1477 14.4568 22.1477 12.5261C22.1477 7.40121 18.0045 3.25 12.8977 3.25ZM2.14771 12.5261C2.14771 6.57647 6.9588 1.75 12.8977 1.75C18.8366 1.75 23.6477 6.57647 23.6477 12.5261C23.6477 14.6713 23.1109 16.1101 22.0725 16.959C21.0585 17.7879 19.7472 17.898 18.584 17.8422C17.9906 17.8138 17.3911 17.739 16.8376 17.6675C16.7988 17.6625 16.7602 17.6575 16.7218 17.6525C16.2023 17.5853 15.7312 17.5243 15.3009 17.4982C14.8347 17.4699 14.4805 17.4878 14.2216 17.5559C13.9814 17.6191 13.8657 17.7127 13.7945 17.826C13.7557 17.8877 13.7284 17.9837 13.7984 18.1775C13.8726 18.3829 14.0345 18.6195 14.2455 18.8311C15.191 19.779 15.191 21.315 14.2455 22.2629C13.5953 22.9148 12.6659 23.3473 11.6587 23.2314C6.30336 22.6148 2.14771 18.0562 2.14771 12.5261ZM10.4827 6.74977C10.0685 6.74977 9.73271 7.08556 9.73271 7.49977C9.73271 7.91399 10.0685 8.24977 10.4827 8.24977C10.8969 8.24977 11.2327 7.91399 11.2327 7.49977C11.2327 7.08556 10.8969 6.74977 10.4827 6.74977ZM8.23271 7.49977C8.23271 6.25713 9.24007 5.24977 10.4827 5.24977C11.7253 5.24977 12.7327 6.25713 12.7327 7.49977C12.7327 8.74241 11.7253 9.74977 10.4827 9.74977C9.24007 9.74977 8.23271 8.74241 8.23271 7.49977ZM15.3977 6.75C14.9835 6.75 14.6477 7.08579 14.6477 7.5C14.6477 7.91421 14.9835 8.25 15.3977 8.25C15.8119 8.25 16.1477 7.91421 16.1477 7.5C16.1477 7.08579 15.8119 6.75 15.3977 6.75ZM13.1477 7.5C13.1477 6.25736 14.1551 5.25 15.3977 5.25C16.6403 5.25 17.6477 6.25736 17.6477 7.5C17.6477 8.74264 16.6403 9.75 15.3977 9.75C14.1551 9.75 13.1477 8.74264 13.1477 7.5ZM7.39771 11.25C6.98349 11.25 6.64771 11.5858 6.64771 12C6.64771 12.4142 6.98349 12.75 7.39771 12.75C7.81192 12.75 8.14771 12.4142 8.14771 12C8.14771 11.5858 7.81192 11.25 7.39771 11.25ZM5.14771 12C5.14771 10.7574 6.15506 9.75 7.39771 9.75C8.64035 9.75 9.64771 10.7574 9.64771 12C9.64771 13.2426 8.64035 14.25 7.39771 14.25C6.15506 14.25 5.14771 13.2426 5.14771 12ZM18.3977 11.25C17.9835 11.25 17.6477 11.5858 17.6477 12C17.6477 12.4142 17.9835 12.75 18.3977 12.75C18.8119 12.75 19.1477 12.4142 19.1477 12C19.1477 11.5858 18.8119 11.25 18.3977 11.25ZM16.1477 12C16.1477 10.7574 17.1551 9.75 18.3977 9.75C19.6403 9.75 20.6477 10.7574 20.6477 12C20.6477 13.2426 19.6403 14.25 18.3977 14.25C17.1551 14.25 16.1477 13.2426 16.1477 12Z" fill="#707070"/>
</g>
</svg>
