<svg width="26" height="26" viewBox="0 0 26 26" fill="none" xmlns="http://www.w3.org/2000/svg">
<g id="colour palette">
<path id="Vector" fill-rule="evenodd" clip-rule="evenodd" d="M11.7015 23.45C6.49442 22.8521 2.45068 18.4294 2.45068 13.0621C2.45068 7.28708 7.1323 2.60547 12.9074 2.60547C18.6824 2.60547 23.364 7.28708 23.364 13.0621C23.364 18.4542 19.9314 18.0108 16.9996 17.632C15.3086 17.4136 13.7843 17.2167 13.1812 18.1733C12.7688 18.8276 13.2146 19.6434 13.7615 20.1903C14.4448 20.8736 14.4448 21.9814 13.7615 22.6647C13.2146 23.2116 12.4698 23.5383 11.7015 23.45ZM11.9506 7.83355C11.9506 8.69981 11.2483 9.40205 10.3821 9.40205C9.51582 9.40205 8.81358 8.69981 8.81358 7.83355C8.81358 6.96729 9.51582 6.26505 10.3821 6.26505C11.2483 6.26505 11.9506 6.96729 11.9506 7.83355ZM7.15619 14.1078C8.02245 14.1078 8.72469 13.4056 8.72469 12.5393C8.72469 11.673 8.02245 10.9708 7.15619 10.9708C6.28993 10.9708 5.58769 11.673 5.58769 12.5393C5.58769 13.4056 6.28993 14.1078 7.15619 14.1078ZM18.6585 14.1078C19.5248 14.1078 20.227 13.4056 20.227 12.5393C20.227 11.673 19.5248 10.9708 18.6585 10.9708C17.7923 10.9708 17.09 11.673 17.09 12.5393C17.09 13.4056 17.7923 14.1078 18.6585 14.1078ZM15.5215 9.40229C16.3878 9.40229 17.09 8.70005 17.09 7.83379C17.09 6.96753 16.3878 6.26529 15.5215 6.26529C14.6553 6.26529 13.953 6.96753 13.953 7.83379C13.953 8.70005 14.6553 9.40229 15.5215 9.40229Z" fill="white"/>
</g>
</svg>
