<svg width="32" height="32" viewBox="0 0 32 32" fill="none" xmlns="http://www.w3.org/2000/svg">
<g id="Bold / Arrows Action / Download">
<g id="Vector">
<path fill-rule="evenodd" clip-rule="evenodd" d="M16 1.66666C15.4477 1.66666 15 2.11437 15 2.66666V17.2967L12.7593 14.6825C12.3999 14.2632 11.7686 14.2146 11.3492 14.5741C10.9299 14.9335 10.8813 15.5648 11.2408 15.9841L15.2408 20.6508C15.4307 20.8724 15.7081 21 16 21C16.2919 21 16.5693 20.8724 16.7593 20.6508L20.7593 15.9841C21.1187 15.5648 21.0701 14.9335 20.6508 14.5741C20.2315 14.2146 19.6002 14.2632 19.2408 14.6825L17 17.2967L17 2.66666C17 2.11437 16.5523 1.66666 16 1.66666Z" fill="#1C1C1C"/>
<path d="M19 12V12.5044C19.9781 12.1596 21.1083 12.3321 21.9523 13.0556C23.2103 14.1338 23.356 16.0277 22.2777 17.2857L18.2777 21.9524C17.7078 22.6173 16.8757 23 16 23C15.1242 23 14.2921 22.6173 13.7222 21.9524L9.7222 17.2857C8.64393 16.0277 8.78961 14.1338 10.0476 13.0556C10.8916 12.3321 12.0218 12.1596 13 12.5044V12H10.6667C6.89545 12 5.00983 12 3.83826 13.1716C2.66669 14.3431 2.66669 16.2288 2.66669 20V21.3333C2.66669 25.1046 2.66669 26.9902 3.83826 28.1618C5.00983 29.3333 6.89545 29.3333 10.6667 29.3333H21.3334C25.1046 29.3333 26.9902 29.3333 28.1618 28.1618C29.3334 26.9902 29.3334 25.1046 29.3334 21.3333V20C29.3334 16.2288 29.3334 14.3431 28.1618 13.1716C26.9902 12 25.1046 12 21.3334 12H19Z" fill="#1C1C1C"/>
</g>
</g>
</svg>
