<svg width="411" height="630" viewBox="0 0 411 630" fill="none" xmlns="http://www.w3.org/2000/svg">
<path d="M333.075 71.1568C334.414 76.2519 338.917 77.8096 344.129 79.6065C347.735 80.8466 351.814 82.2563 356.123 85.0453C361.311 88.4087 363.301 91.4719 365.6 95.0136C367.569 98.0463 369.798 101.488 374.244 105.091C378.702 108.711 383.963 111.33 389.983 112.944C382.509 113.336 375.954 111.987 370.42 108.859C365.892 106.3 363.647 103.624 361.051 100.526C358.352 97.3152 355.291 93.6691 349.296 89.5834C334.019 79.1801 315.012 75.9256 308.09 78.1794C306.348 78.7494 305.198 79.7023 304.675 81.0119C303.311 84.4232 306.863 87.8344 309.454 90.3231C313.438 94.152 317.221 95.3746 321.6 96.7888C323.764 97.4893 326.211 98.2855 329 99.4995C333.986 101.671 337.929 103.381 340.87 106.561C343.429 109.324 345.147 113.266 345.942 118.074C342.774 112.957 338.926 108.858 334.427 105.821C329.437 102.454 325.745 101.849 322.173 101.257C318.836 100.713 315.387 100.143 310.217 97.2282C304.84 94.1912 301.345 90.7365 298.264 87.6907C293.948 83.4224 290.216 79.7501 283.735 80.0112C278.535 80.2331 274.711 82.2128 272.964 85.5849C270.744 89.875 272.69 94.6568 273.342 96.0273C275.37 100.265 279.272 102.789 287.741 105.343C294.183 107.279 298.023 107.649 301.11 107.945C303.665 108.188 305.351 108.345 307.584 109.307C310.299 110.468 312.779 112.426 315.012 115.154C311.667 113.109 308.173 111.578 304.547 110.564C299.966 109.285 297.332 109.459 294.78 109.642C292.748 109.781 290.636 109.925 287.132 109.298C278.61 107.771 272.56 103.589 267.699 100.23C262.333 96.519 257.698 93.321 252.478 95.8794C249.059 97.5632 245.858 101.671 246.415 105.63C247.931 116.434 278.75 120.428 284.915 121.12L286.561 121.294C292.087 121.872 297.306 122.421 301.11 126.567C301.13 126.598 301.153 126.615 301.172 126.641C296.488 124.205 290.196 121.986 283.695 122.938L282.981 123.039C271.415 124.722 260.511 126.302 242.474 112.352C237.717 108.676 230.044 104.503 218.214 102.023C228.427 98.7641 235.344 94.3217 242.027 89.9968C246.865 86.864 251.866 83.6312 258.157 80.8422C268.905 76.0779 277.111 74.8552 281.518 74.1982C282.176 74.0938 282.74 74.0154 283.204 73.9328C301.479 70.7827 315.527 72.4099 320.146 72.9407C321.938 73.1452 322.618 73.2322 323.463 72.4839C323.965 72.0488 324.283 71.4048 324.34 70.7174C324.402 69.9559 324.134 69.1902 323.623 68.655C322.025 66.9755 290.238 59.7528 251.823 63.4468C236.655 64.9044 227.504 67.2409 220.153 69.1118C217.897 69.6862 215.802 70.217 213.73 70.6782C219.155 67.0494 224.564 61.4845 228.515 52.8129C229.111 51.4989 229.724 50.0935 230.356 48.6315C236.169 35.2347 243.797 17.6609 266.486 13.0444C260.11 16.8777 252.72 22.6995 247.334 31.0969C238.947 44.1588 236.521 51.2248 238.966 55.4714C241.228 59.4047 246.545 58.739 248.286 58.5302C260.508 57.0117 265.293 48.1138 270.363 38.6938C272.671 34.4124 275.057 29.9743 278.294 25.893C289.981 11.1474 306.368 4.60785 327.117 6.33954C315.597 8.29315 301.482 13.0096 289.971 23.9568C277.883 35.4479 272.693 45.4335 275.725 51.3466C277.378 54.5663 281.022 55.7455 285.492 54.488C294.802 51.8644 300.423 45.0115 305.857 38.3849C312.903 29.7829 319.602 21.6813 334.2 22.4775C345.378 23.0997 350.4 25.2622 355.258 27.355C360.837 29.7568 365.802 31.8801 377.746 31.3536C371.986 34.1426 364.553 36.4399 358.319 34.147C343.623 28.7212 328.143 25.4754 314.514 38.2369C307.188 45.1029 306.789 52.1472 309.644 56.0805C310.95 57.8862 313.9 59.5875 325.222 56.6722C332.585 54.7709 336.853 52.6301 340.289 50.9028C343.413 49.332 345.675 48.2051 349.144 47.7657C355.435 46.9738 362.444 49.0188 368.859 53.5308C373.984 57.1291 376.122 60.9711 378.607 65.4222C380.988 69.6949 383.687 74.5419 389.451 79.1279C390.996 80.3636 392.632 81.4732 394.35 82.4609C389.303 81.8212 384.865 80.2505 381.067 77.753C376.947 75.0423 374.499 71.8748 372.13 68.8116C368.912 64.6434 365.579 60.3315 358.538 57.6382C356.951 57.0334 342.832 51.9557 336.005 59.9355C333.932 62.3634 331.913 66.7623 333.075 71.1568ZM165.941 94.0215C157.301 91.363 148.779 88.0955 140.78 84.8104C141.584 84.8017 142.492 84.8843 143.583 85.1628C144.388 85.3673 145.304 85.5849 146.3 85.8242C151.94 87.1643 162.49 89.6748 165.941 94.0215ZM147.375 80.7857C146.405 80.5551 145.51 80.3419 144.726 80.1461C139.093 78.7059 135.715 80.4724 133.972 81.9735C133.046 81.5819 132.141 81.199 131.235 80.8118C133.21 78.4274 137.464 75.3208 145.45 77.7182C147.051 78.2012 148.718 78.6667 150.412 79.141C164.167 82.9786 174.132 86.603 174.73 96.4668C173.782 96.2275 172.834 95.9926 171.884 95.7315C170.826 86.3768 156.326 82.909 147.375 80.7857ZM229.571 91.6198C225.636 93.7648 221.262 95.7184 215.923 97.3457C216.573 96.0578 217.946 95.0092 219.23 94.2565C222.826 92.1462 226.934 91.5197 229.571 91.6198ZM235.214 88.3086C231.879 85.4935 224.88 86.3158 220.075 88.1954C214.093 90.532 210.759 94.3957 210.686 98.6728C210.01 98.8163 209.353 98.9991 208.667 99.1122C208.52 96.0665 209.037 90.8844 213.806 88.6436C217.972 86.6857 229.03 81.4688 234.894 84.1795C236.065 84.7147 236.968 85.5849 237.659 86.764C236.847 87.2818 236.029 87.7996 235.214 88.3086ZM106.036 71.0089C104.134 67.5237 98.4938 58.9217 88.488 57.4293C76.5568 55.6323 66.2029 65.3699 62.1569 75.9038C57.3269 88.4652 60.3074 106.344 72.3044 111.917C74.821 113.083 77.3706 113.532 79.7916 113.532C84.5133 113.532 88.7377 111.839 91.3235 110.516C93.0881 111.63 94.9463 112.687 96.8935 113.693C96.9462 113.727 96.9879 113.771 97.0406 113.806C97.1251 113.858 97.2202 113.862 97.3076 113.906C101.394 115.981 105.817 117.861 110.54 119.584C109.86 122.638 109.322 127.894 111.908 133.098C114.852 139.016 120.903 143.023 129.889 145.007L133.388 145.786C140.374 147.356 147.517 148.949 152.732 149.14C151.336 149.837 149.931 150.707 148.566 151.821C147.215 152.921 146.115 154.096 145.172 155.28C142.291 153.435 139.182 151.694 135.849 150.063C135.797 150.037 135.758 149.997 135.704 149.976C135.686 149.967 135.667 149.971 135.65 149.963C127.66 146.069 118.432 142.775 108.014 140.151C77.3322 132.428 53.8227 115.785 45.1263 95.6401C41.5726 87.4079 40.7243 78.993 42.4725 70.861C43.3793 67.6368 44.4934 64.3953 45.8456 61.1494C59.3816 33.8598 76.3286 26.3847 135.886 57.6121C160.661 70.5999 177.007 76.3215 192.304 77.344C192.371 77.3483 192.428 77.3484 192.494 77.3527C192.504 77.3527 192.512 77.3614 192.523 77.3614C192.542 77.3614 192.619 77.3614 192.652 77.3614C205.378 78.1794 212.424 76.3911 221.297 74.1329C228.874 72.2054 237.457 70.0125 252.267 68.5897C265.472 67.3149 277.668 67.3627 288.012 67.9893C286.196 68.2286 284.328 68.5071 282.415 68.8378C281.981 68.9073 281.453 68.9901 280.83 69.0858C276.533 69.7253 267.595 71.0612 256.266 76.0779C250.659 78.5623 246.122 81.3296 241.835 84.0751C240.622 81.9909 238.966 80.4159 236.844 79.4412C229.89 76.2432 219.817 80.1635 211.815 83.9271C204.886 87.1904 203.488 94.5436 203.788 99.6735C196.129 100.243 187.95 99.3515 179.648 97.5937C179.852 82.0562 164.304 77.679 151.66 74.146C149.999 73.6804 148.362 73.2236 146.785 72.7493C135.986 69.5078 129.406 74.468 126.521 78.806C121.188 76.5391 116.133 74.3984 111.641 72.6928C109.783 71.9879 107.906 71.4266 106.036 71.0089ZM75.5186 81.2164C74.0637 84.3143 72.3048 91.1585 78.7076 99.5734C78.036 99.1731 77.3759 98.7162 76.76 98.1288C74.2615 95.7488 72.7474 91.9939 72.6068 87.8212C72.454 83.3267 73.9055 78.9452 76.4909 76.1127C79.7887 72.4883 84.3789 71.9444 85.7048 71.8661C86.0274 71.8443 86.3294 71.8617 86.6393 71.8617C81.576 73.7022 77.5576 76.8741 75.5186 81.2164ZM97.1733 70.056C94.9274 68.507 90.8612 66.4055 85.4267 66.7101C83.1491 66.8493 77.3735 67.6934 72.9657 72.5318C69.4314 76.4086 67.5193 82.0518 67.7195 88.004C67.9053 93.569 70.0091 98.651 73.4865 101.966C77.563 105.839 82.6118 106.574 85.7411 106.6C85.9446 106.766 86.1313 106.927 86.3414 107.092C83.0708 108.276 78.4983 109.154 74.2735 107.188C65.2598 103.002 62.7943 87.9779 66.6874 77.8444C69.9403 69.3816 78.3821 61.1407 87.8024 62.5417C93.243 63.3511 97.1321 67.0408 99.5057 70.1169C98.722 70.0778 97.9429 70.0473 97.1733 70.056ZM93.4165 89.9794C99.6742 100.47 110.444 109.446 118.327 112.113C121.857 113.301 124.703 113.21 126.786 111.843C129.528 110.033 129.863 107.653 129.821 106.396C129.692 102.789 126.206 99.1209 122.537 96.2449C126.813 96.606 132.146 97.5023 137.179 99.5952C144.167 102.493 147.431 109.094 150.313 114.924C153.306 120.976 156.397 127.259 163.307 125.062C166.733 123.978 167.859 121.772 168.196 120.115C168.996 116.19 165.907 111.334 162.861 107.662C172.682 109.12 190.039 113.723 190.527 128.068C190.874 138.224 195.913 139.681 197.449 139.886C201.644 140.499 205.609 136.614 207.36 130.366C208.772 125.332 213.345 124.131 216.382 123.913C213.258 138.071 215.975 145.542 219.087 154.105C222.112 162.42 225.431 171.622 224.127 189.722C221.845 180.329 217.865 171.052 212.052 161.871C209.155 157.29 205.536 153.326 201.41 149.797C201.341 149.736 201.277 149.676 201.202 149.623C192.488 142.235 181.425 136.879 169.391 132.485C169.29 132.437 169.19 132.402 169.082 132.372C159.523 128.895 149.389 125.989 139.358 123.139C124.543 118.918 110.448 114.859 99.3998 109.237C92.5286 104.599 92.4664 95.8925 93.4165 89.9794ZM243.318 201.179C244.29 201.2 245.268 201.227 246.252 201.235C246.298 201.235 246.347 201.235 246.396 201.235C250.979 201.235 257.88 198.829 264.553 196.497C269.916 194.63 275.461 192.69 278.584 192.503C279.471 192.424 280.491 192.59 281.59 192.886C281.704 192.925 281.815 192.968 281.932 192.986C284.595 193.773 287.715 195.374 290.779 196.919C296.009 199.564 300.914 202.088 305.128 201.692C320.196 200.4 323.595 200.918 329.388 205.464C334.282 209.306 335.807 225.14 330.343 239.041C329.651 240.817 328.753 242.422 327.723 243.888C326.936 242.996 326.096 242.431 325.387 242.087C323.553 241.208 321.716 241.282 320.402 241.521C313.665 232.758 316.698 223.948 316.833 223.573C317.217 222.538 316.936 221.363 316.133 220.65C315.33 219.94 314.184 219.84 313.29 220.419C301.792 227.781 294.209 219.027 293.902 218.665C293.27 217.9 292.266 217.591 291.353 217.891C290.434 218.178 289.766 219.018 289.635 220.023C287.744 234.969 267.122 241.208 266.914 241.269C265.874 241.578 265.147 242.566 265.124 243.71C265.107 244.85 265.799 245.872 266.826 246.216C270.19 247.347 271.604 251.059 272.155 253.16C270.998 254.109 269.6 255.645 269.101 257.829C268.938 258.543 268.86 259.452 269.006 260.492C266.535 260.322 264.087 259.865 261.747 258.973C255.696 256.667 251.165 252.116 249.316 246.49C245.929 236.178 263.667 221.729 270.789 217.034C271.813 216.359 272.218 214.989 271.738 213.818C271.259 212.648 270.053 212.03 268.866 212.348C254.366 216.399 244.463 220.784 239.429 225.383C237.16 227.455 229.515 228.738 223.533 229.273C223.537 229.26 223.54 229.252 223.543 229.243C223.547 229.217 223.563 229.199 223.566 229.178C223.569 229.165 223.566 229.156 223.566 229.143C225.255 222.66 226.174 216.255 226.321 209.924C226.692 207.94 227.035 206.021 227.328 204.177C231.733 200.918 237.124 201.013 243.318 201.179ZM288.556 179.019C288.657 176.53 288.423 174.233 288.211 172.201C287.611 166.379 287.282 163.172 294.352 159.739C299.914 157.037 309.397 156.977 316.768 162.072C318.873 163.529 320.673 165.331 322.177 167.428C321.559 167.819 320.945 168.281 320.369 168.929C318.453 171.087 318.082 173.628 318.094 175.368C316.899 176.052 315.317 176.7 313.385 176.891C309.895 177.226 307.118 175.904 305.783 175.068C304.877 174.503 303.731 174.616 302.936 175.338C302.14 176.065 301.876 177.248 302.274 178.275C303.213 180.685 304.234 184.536 303.768 189.179C303.526 191.585 302.88 193.973 301.909 196.197C299.281 195.488 296.047 193.856 292.889 192.259C290.695 191.154 288.478 190.04 286.307 189.144C287.36 187.047 288.361 183.862 288.556 179.019ZM322.981 175.425C322.96 174.633 323.092 173.41 323.932 172.462C324.171 172.192 324.427 172.001 324.686 171.84C325.692 174.089 326.45 176.574 326.936 179.289C325.721 177.892 324.382 176.613 322.981 175.425ZM321.094 246.638C321.683 246.508 322.569 246.408 323.364 246.791C323.772 246.986 324.114 247.33 324.415 247.774C322.083 250.054 319.524 251.825 317.241 253.139L321.094 246.638ZM274.049 260.392C273.857 259.905 273.766 259.448 273.854 259.052C273.974 258.504 274.356 257.999 274.77 257.59C275.908 258.369 277.28 258.978 278.753 259.417C277.198 259.892 275.627 260.196 274.049 260.392ZM202.434 262.928C200.133 260.718 196.754 256.036 199.747 249.305L200.046 248.622C204.481 238.611 208.945 230.37 217.998 230.84C214.906 241.282 209.718 251.96 202.434 262.928ZM147.647 297.415C143.219 299.099 138.601 300.865 133.863 302.761C133.462 301.205 133.195 298.968 134.049 296.675C135.363 293.153 138.926 290.399 144.646 288.488C154.901 285.06 160.254 286.299 162.945 287.941C164.176 288.695 164.955 289.597 165.462 290.382C159.891 292.75 153.951 295.019 147.647 297.415ZM92.932 335.969C95.6641 338.354 100.027 338.148 104.69 335.676C103.522 339.226 101.867 342.375 99.7459 345.081C96.6187 349.068 93.1116 351.271 90.0145 353.213C86.0344 355.712 82.2756 358.077 81.0874 363.289C80.2135 367.124 81.0128 371.834 83.1223 375.283C84.5017 377.538 86.3121 378.991 88.2185 379.373C92.0041 380.137 96.2326 376.805 99.4735 370.846C100.644 378.478 99.9222 384.95 97.3129 390.159C96.4749 391.842 95.4337 393.412 94.4251 394.931C91.9625 398.652 89.4097 402.501 90.5617 407.317C91.5822 411.61 95.7864 416.147 99.9824 415.655C104.339 415.221 107.745 409.758 109.42 400.927C111.612 405.51 112.94 410.143 113.386 414.77C113.867 419.772 113.302 424.11 112.802 427.938C112.045 433.711 111.393 438.693 115.068 442.542C117.788 445.396 122.824 447.106 126.54 445.037C131.054 442.528 131.146 436.004 131.185 433.205C131.239 429.129 130.24 425.525 128.854 422.509C131.796 423.896 135.545 426.217 139.462 430.045C142.643 433.15 144.385 436.51 145.92 439.478C148.207 443.891 150.561 448.439 156.927 448.435C157.924 448.435 159.022 448.325 160.231 448.087C162.657 447.602 164.836 445.392 166.21 442.018C167.756 438.218 168.352 432.42 165.384 427.556C163.312 424.165 159.644 422.144 155.283 421.827C158.267 417.032 161.392 414.236 164.768 413.328C167.718 412.529 170.758 412.704 173.451 412.849C177.452 413.07 181.226 413.283 183.186 409.937C184.707 407.354 184.063 403.953 182.755 401.733C179.912 396.906 172.577 395.547 163.031 397.853C163.495 397.206 164.034 396.566 164.663 395.943C167.127 393.505 169.807 392.493 171.7 392.066C174.835 392.207 177.754 392.3 180.363 392.335C181.802 394.163 185.195 397.347 192.618 399.974C194.036 400.473 195.374 400.7 196.674 400.814C196.798 400.831 196.909 400.886 197.038 400.886C197.178 400.883 197.297 400.883 197.433 400.879C197.604 400.886 197.786 400.927 197.954 400.927C198.194 400.927 198.415 400.876 198.65 400.865C209.39 400.766 210.981 401.709 212.521 402.617C214.386 403.716 216.244 404.594 221.662 405.031C222.164 405.072 222.653 405.093 223.136 405.093C233.431 405.089 239.511 396.187 241.913 391.715C244.678 393.109 249.74 395.289 255.983 396.49C253.499 399.471 251.781 403.492 253.512 407.926C255.514 413.035 258.663 414.564 262.376 414.564C265.068 414.564 268.055 413.765 271.109 412.946C275.689 411.716 281.417 410.105 288.142 410.284C290.114 410.312 291.972 410.45 293.759 410.636C293.805 411.462 293.847 412.288 293.89 413.097C294.039 415.789 294.18 418.491 294.258 421.067C286.659 420.464 279.474 422.251 274.564 423.986L272.488 424.729C259.07 429.522 252.332 431.935 244.065 421.297C235.752 410.598 242.52 401.998 242.813 401.636C243.693 400.562 243.585 398.937 242.571 398.005C241.555 397.061 240.012 397.168 239.122 398.246C235.677 402.404 231.491 413.252 240.283 424.571C242.529 427.463 244.749 429.532 246.985 431.005C243.481 436.083 233.574 448.673 217.115 455.902C219.214 450.473 222.011 441.01 224.065 425.807C224.221 424.637 223.609 423.507 222.572 423.053C221.538 422.609 220.345 422.953 219.68 423.903C219.583 424.045 210.496 436.693 192.125 441.819C195.399 435.247 200.456 423.469 200.599 413.183C200.618 411.847 199.675 410.722 198.418 410.577C198.272 410.563 182.509 408.942 175.076 424.747C173.802 427.453 172.78 430.279 171.807 433.085C171.786 433.143 171.763 433.198 171.746 433.26C171.48 434.031 171.195 434.809 170.935 435.57C167 447.131 163.6 457.111 149.062 459.483C130.701 462.461 98.9919 446.046 87.1506 407.41C75.6784 369.978 76.631 346.579 90.6848 332.079C91.0474 333.48 91.7206 334.912 92.932 335.969ZM124.216 381.452C124.279 380.33 124.512 379.356 125.281 378.654C126.257 377.769 129.036 376.471 136.65 377.748C151.528 380.251 179.224 384.905 200.818 372.997C201.746 372.488 202.264 371.407 202.105 370.316C201.943 369.224 201.144 368.36 200.114 368.168C199.447 368.04 133.178 355.564 122.046 351.505C121.474 351.295 121.289 351.092 121.268 351.092C121.268 350.968 121.406 350.455 122.094 349.749C123.207 348.603 125.458 347.35 128.217 347.612C134.133 348.163 142.446 350.101 151.244 352.149C160.697 354.352 170.474 356.631 178.015 357.327C186.032 358.074 193.013 357.464 199.765 356.883C206.71 356.287 213.261 355.719 219.794 356.848C221.118 357.082 222.383 356.125 222.605 354.72C222.826 353.312 221.92 351.984 220.59 351.753C215.506 350.869 210.558 350.934 205.509 351.264C208.625 347.859 214.044 343.233 220.841 342.702C227.204 342.217 228.795 342.94 229.975 343.467C231.462 344.135 232.733 344.562 235.677 344.031C238.425 343.529 242.526 340.995 247.217 337.979C248.553 337.119 249.701 336.378 250.451 335.969C253.818 334.131 258.294 334.075 263.742 335.776C265.28 339.16 265.619 342.004 265.642 342.227C265.759 343.353 266.555 344.269 267.611 344.486C270.46 345.071 273.596 348.458 276.383 351.888C276.387 351.895 276.393 351.894 276.397 351.901C276.423 351.935 276.452 351.97 276.478 352.001C277.133 352.806 277.766 353.616 278.376 354.39C280.762 357.423 282.819 360.043 284.859 361.327C284.993 361.41 285.15 361.465 285.293 361.537C285.381 361.585 285.466 361.633 285.564 361.668C286.799 362.226 288.338 362.474 290.049 362.474C293.912 362.474 298.515 361.331 301.944 360.281C301.951 362.36 302.362 364.198 302.721 365.341C301.85 367.162 299.852 371.465 296.507 379.304C296.168 380.1 295.868 380.939 295.588 381.81C288.488 381.611 284.273 384.327 280.204 386.999C276.491 389.443 272.99 391.749 266.926 392.128C253.652 392.951 242.194 386.066 242.079 385.997C241.476 385.632 240.74 385.556 240.084 385.787C239.419 386.017 238.878 386.541 238.601 387.222C238.552 387.353 233.043 400.821 222.034 399.881C217.259 399.495 216.119 398.82 214.91 398.108C213.558 397.313 212.195 396.658 209.564 396.235C211.261 394.896 212.806 393.453 214.198 392.138C215.044 391.34 215.862 390.565 216.66 389.87C221.134 385.956 229.405 387.794 229.483 387.811C230.826 388.138 232.104 387.229 232.391 385.842C232.681 384.448 231.85 383.074 230.533 382.768C230.105 382.668 219.866 380.365 213.542 385.886C212.698 386.627 211.831 387.446 210.936 388.293C206.124 392.837 201.153 397.543 194.169 395.075C191.216 394.029 189.084 392.923 187.529 391.925C203.924 389.642 217.14 378.385 217.757 377.851C218.8 376.946 218.953 375.318 218.096 374.216C217.241 373.114 215.703 372.956 214.655 373.855C214.5 373.989 199.02 387.191 181.882 387.191C181.804 387.191 181.723 387.191 181.645 387.191C162.089 387.057 130.075 383.797 124.216 381.452ZM162.313 325.321C162.52 323.851 162.708 323.138 163.37 322.701C164.683 321.83 168.879 321.066 182.235 325.627C194.198 329.72 204.825 332.168 214.718 333.108C217.6 333.38 219.266 333.363 221.189 333.349C223.211 333.325 225.502 333.308 230.001 333.594C234.262 333.862 238.5 334.302 242.709 334.822C239.908 336.592 236.486 338.644 234.842 338.943C233.111 339.26 232.749 339.105 231.892 338.716C229.845 337.797 227.429 337.012 220.482 337.553C216.747 337.842 213.411 339.102 210.516 340.751C189.401 335.229 166.585 328.227 162.313 325.321ZM274.643 332.216C275.22 333.06 276.224 333.459 277.182 333.211C278.141 332.977 278.867 332.154 279.034 331.128C279.106 330.671 279.507 327.82 278.773 324.856C281.75 325.341 285.74 327.121 287.464 332.953C288.276 335.707 283.22 342.128 278.519 346.634C275.992 343.715 273.251 341.109 270.219 339.917C269.874 338.207 269.107 335.432 267.601 332.454C267.595 332.433 267.585 332.419 267.578 332.402C266.503 330.285 265.062 328.068 263.077 326.04C266.783 326.229 271.425 327.545 274.643 332.216ZM290.698 350.923C290.375 355.099 288.152 356.236 286.952 356.549C285.652 355.53 283.881 353.306 282.137 351.089C281.997 350.91 281.854 350.734 281.714 350.548C282.551 349.756 283.555 348.761 284.602 347.632C284.559 347.87 284.504 348.107 284.524 348.359C284.638 349.849 285.877 350.958 287.288 350.838C288.697 350.714 289.746 349.405 289.632 347.918C289.515 346.427 288.276 345.319 286.868 345.443C286.708 345.453 286.578 345.532 286.431 345.574C286.933 344.975 287.428 344.352 287.911 343.711C289.277 344.944 290.985 347.24 290.698 350.923ZM317.217 354.573C318.078 354.975 319.062 354.814 319.779 354.184C320.492 353.55 320.805 352.531 320.583 351.574C320.575 351.547 319.899 348.582 321.18 346.407C321.881 345.209 323.08 344.431 324.831 344.024C326.52 343.632 328.036 344.045 329.515 345.284C331.04 346.555 332.371 348.686 333.417 351.233C331.967 351.192 330.838 351.695 330.109 352.187C327.018 354.29 326.145 359.138 327.089 362.604C327.459 363.971 328.786 364.773 330.113 364.374C331.406 363.981 332.16 362.549 331.786 361.179C331.295 359.368 331.909 357.107 332.762 356.524C333.236 356.201 334.122 356.511 335.168 357.306C335.461 358.962 335.638 360.673 335.663 362.37C335.671 363.3 336.215 364.181 336.981 364.625C337.088 364.687 338.885 365.785 340.186 369.424L338.588 368.195C337.826 367.617 336.824 367.534 335.988 368.009C335.16 368.481 334.661 369.41 334.707 370.402C334.711 370.46 334.843 375.603 332.095 379.28L323.949 373.393C323.141 372.815 322.083 372.791 321.254 373.352C320.43 373.906 319.998 374.929 320.158 375.948C320.163 376.01 320.937 381.329 317.447 385.659C315.997 382.682 314.493 380.964 312.965 380.382C312.812 380.31 312.668 380.248 312.511 380.206C312.446 380.192 312.38 380.141 312.314 380.13C312.198 380.117 312.079 380.134 311.963 380.137C311.873 380.137 311.79 380.13 311.7 380.141C311.424 380.172 311.156 380.237 310.905 380.361C310.892 380.365 310.447 380.582 309.648 380.857C311.432 375.779 314.028 370.598 317.802 365.317C318.663 364.109 321.613 365.579 322.589 366.25C323.722 367.035 325.234 366.701 325.972 365.513C326.722 364.325 326.409 362.721 325.28 361.937C322.511 360.005 316.99 357.881 313.9 362.208C308.704 369.472 305.557 376.65 303.69 383.583C303.67 383.663 303.645 383.742 303.628 383.825C301.129 393.247 301.009 402.212 301.443 410.301C301.573 412.777 301.756 415.176 301.928 417.486C302.443 424.317 302.89 430.213 301.831 434.913C299.581 444.934 292.478 446.349 284.957 447.846C278.913 449.052 272.664 450.294 269.632 456.364C266.125 463.39 268.071 470.368 270.33 478.445C272.331 485.609 274.597 493.719 274.04 504.291C273.492 514.637 267.35 522.992 261.169 528.858C265.926 521.508 270.663 512.306 271.292 504.099C272.048 494.253 269.042 484.607 266.389 476.093C263.328 466.292 260.69 457.827 264.361 451.909C267.865 446.256 274.767 445.096 281.44 443.974C286.541 443.116 291.363 442.308 294.854 439.557C300.022 435.495 299.47 425.476 298.773 412.798C298.264 403.544 297.687 393.054 299.721 385.153C299.721 385.15 299.721 385.146 299.721 385.146C300.074 383.79 300.491 382.537 300.967 381.425C305.466 370.887 307.534 366.756 307.551 366.715C307.909 365.999 307.934 365.149 307.608 364.418C307.584 364.364 305.293 359.017 308.573 355.592C311.84 352.163 317.011 354.476 317.217 354.573ZM349.412 354.903C352.168 358.99 352.877 363.713 353.499 367.878C354.158 372.323 354.735 376.165 357.668 378.206C359.584 379.549 362.151 379.765 365.501 378.874C369.131 377.914 371.45 375.07 372.019 370.87C373.383 360.814 364.537 344.63 354.158 338.193C352.065 336.898 349.77 335.6 347.389 334.251C335.255 327.397 321.506 319.63 321.205 304.276C321.09 298.438 322.148 293.855 323.788 290.272C321.724 296.017 321.362 302.596 324.571 309.402C329.964 320.818 338.452 325.066 347.442 329.562C351.863 331.779 356.445 334.065 360.857 337.342C370.012 344.141 376.687 360.49 374.87 371.648C373.906 377.538 370.787 381.297 365.6 382.826C360.478 384.331 356.762 384.286 354.562 382.695C351.488 380.471 350.969 374.905 350.462 369.527C349.939 363.93 349.44 358.642 346.206 355.557C343.841 353.309 341.245 352.759 339.185 352.869C338.856 351.677 338.452 350.517 337.999 349.385C341.175 349.275 346.115 350.008 349.412 354.903ZM340.508 360.949C340.454 360.005 340.36 359.034 340.228 358.053C341.027 358.153 341.979 358.49 342.931 359.396C344.76 361.141 345.184 365.661 345.596 370.037C345.629 370.399 345.67 370.77 345.703 371.138C344.509 365.29 342.061 362.287 340.508 360.949ZM348.126 399.767C348.921 400.883 349.564 402.008 350.104 403.117C348.419 401.943 346.49 400.824 344.393 399.981C344.455 398.545 344.476 397.106 344.414 395.671C345.802 396.879 347.051 398.256 348.126 399.767ZM366.506 434.71L357.186 429.325C356.383 428.854 355.378 428.906 354.615 429.473C353.853 430.035 353.462 431.005 353.598 431.976C354.533 438.517 353.692 444.301 352.868 447.895L344.463 439.113C343.709 438.324 342.556 438.138 341.616 438.655C340.673 439.175 340.154 440.273 340.331 441.378C341.291 447.358 339.432 451.899 337.743 454.618L332.952 443.082C332.54 442.08 331.579 441.481 330.545 441.54C329.511 441.619 328.638 442.369 328.362 443.423C327.422 446.972 325.815 449.151 324.464 450.435C321.316 438.152 315.523 429.639 307.279 424.97C307.18 422.464 307.015 419.865 306.805 417.077C306.731 416.113 306.673 415.073 306.599 414.082C310.876 416.181 313.809 418.863 316.636 421.48C318.992 423.663 321.3 425.759 324.126 427.25C324.155 427.263 324.176 427.291 324.204 427.305C324.221 427.311 324.237 427.308 324.254 427.315C326.66 428.564 329.445 429.384 333.009 429.384H333.013C335.387 429.384 337.62 428.885 339.717 428.079C339.762 428.062 339.807 428.044 339.853 428.024C347.751 424.936 353.499 417.328 355.831 413.785C364.331 417.889 366.164 428.706 366.506 434.71ZM337.121 380.544C337.348 380.127 337.562 379.721 337.751 379.301C337.747 379.318 337.747 379.332 337.747 379.349C337.661 379.962 337.554 380.571 337.418 381.174L337.121 380.544ZM341.402 421.538C341.249 418.801 340.706 415.576 339.367 412.191C337.99 408.711 336.136 405.964 334.237 403.802C335.498 403.73 336.721 403.678 337.883 403.716C343.66 403.884 349.226 408.573 351.711 410.976C350.001 413.541 346.301 418.464 341.402 421.538ZM319.862 417.596C316.421 414.415 312.528 410.852 306.249 408.326C306.051 403.699 306.068 398.948 306.628 394.08C306.751 394.276 306.867 394.476 307.019 394.665C313.092 402.174 319.705 403.909 325.778 404.112C326.042 407.899 325.873 411.692 325.222 415.417C324.884 417.314 324.386 419.184 323.817 421.028C322.523 420.044 321.259 418.887 319.862 417.596ZM333.013 424.22H333.009C331.151 424.22 329.598 423.924 328.193 423.442C328.955 421.122 329.606 418.763 330.026 416.357C330.545 413.424 330.805 410.453 330.813 407.475C332.313 409.217 333.763 411.427 334.855 414.185C336.276 417.793 336.59 421.139 336.54 423.714C335.399 424.02 334.225 424.22 333.013 424.22ZM324.897 380.334L325.082 380.468C325.424 382.537 325.416 384.675 325.008 386.72C324.942 387.057 324.864 387.391 324.781 387.721C324.583 387.346 324.382 386.971 324.176 386.592C323.937 386.145 323.694 385.711 323.45 385.27C324.225 383.542 324.674 381.838 324.897 380.334ZM314.32 390.889C314.596 391.622 315.173 392.183 315.89 392.407C316.121 392.479 316.356 392.514 316.59 392.514C317.089 392.514 317.575 392.355 317.991 392.049C318.885 391.384 319.643 390.672 320.336 389.939C321.193 391.557 322.029 393.168 322.795 394.741C323.195 395.564 323.986 396.094 324.864 396.135C324.897 396.139 324.934 396.139 324.971 396.139C325.803 396.139 326.582 395.691 327.035 394.941C328.362 392.734 329.289 390.324 329.8 387.78C330.034 386.592 330.142 385.377 330.187 384.155L331.032 384.764C331.831 385.339 332.857 385.329 333.673 384.806L335.601 388.854C336.017 389.725 336.862 390.276 337.784 390.276H337.789C338.258 390.276 338.699 390.135 339.082 389.883C338.996 390.231 338.955 390.6 339.016 390.968C339.276 392.572 339.445 394.197 339.523 395.808C339.564 396.765 339.581 397.726 339.56 398.686C339.053 398.624 338.538 398.569 338.019 398.552C336.075 398.49 334.052 398.628 332.09 398.759C330.739 398.848 329.4 398.934 328.073 398.969C328.065 398.969 328.065 398.969 328.057 398.969C322.05 399.124 316.298 398.184 310.736 391.309C310.266 390.724 310.991 388.655 312.277 386.551C312.944 387.697 313.727 389.333 314.32 390.889ZM284.585 399.006C285.417 396.101 285.57 392.989 285.11 389.904C287.758 388.283 290.489 387.05 294.333 386.95C293.326 392.686 293.286 399.127 293.518 405.423C291.81 405.265 290.052 405.145 288.207 405.121C285.739 405.079 283.471 405.279 281.293 405.551C282.633 403.764 283.833 401.633 284.585 399.006ZM280.497 392.851C280.527 394.269 280.38 395.853 279.904 397.512C278.842 401.213 276.559 403.774 274.519 405.413C274.532 403.812 274.447 402.208 274.271 400.617C274.102 399.106 273.818 397.616 273.482 396.142C276.227 395.295 278.483 394.101 280.497 392.851ZM262.539 397.285C264.064 397.364 265.622 397.385 267.22 397.285C267.729 397.254 268.195 397.185 268.677 397.13C268.994 398.476 269.261 399.839 269.414 401.22C269.668 403.492 269.632 405.782 269.44 408.06C261.59 410.143 259.67 410.136 258.034 405.953C256.521 402.084 260.954 398.435 262.539 397.285ZM292.041 555.831C293.251 555.507 294.861 555.297 295.937 555.903C296.161 556.03 296.742 556.406 297.156 557.597C295.105 560.344 292.393 562.953 289.916 565.05C290.894 561.907 291.783 558.482 292.041 555.831ZM235.84 546.935C235.523 547.637 235.523 548.45 235.837 549.152C236.15 549.855 236.749 550.371 237.46 550.556C244.72 552.44 262.047 556.633 265.958 554.925C266.395 554.733 266.77 554.416 267.037 554.003C267.435 553.397 276.775 539.017 279.269 531.358C281.342 524.995 285.254 517.7 291.927 519.071C294.531 519.601 298.196 521.945 300.673 526.94C302.652 530.934 305.112 539.534 299.904 552.653C299.337 552.058 298.747 551.631 298.212 551.335C295.484 549.81 292.328 550.361 290.405 550.946C288.791 548.815 285.971 543.802 289.143 537.719C289.792 536.47 289.361 534.9 288.178 534.211C286.994 533.519 285.508 533.984 284.856 535.23C280.468 543.651 284.149 551.386 287.236 554.994C287.001 558.598 284.36 566.537 282.597 571.078C282.196 572.111 282.473 573.302 283.279 574.025C283.731 574.434 284.295 574.641 284.859 574.641C285.303 574.641 285.749 574.514 286.144 574.256C286.629 573.939 296.465 567.456 301.772 559.687C301.808 559.635 301.847 559.587 301.879 559.532C302.733 558.265 303.477 556.97 304.024 555.655C308.568 544.777 308.437 536.356 307.122 530.583C310.653 525.185 319.198 513.342 325.037 510.354C328.296 508.688 333.108 509.084 337.595 511.394C342.428 513.886 345.74 517.949 346.68 522.545C347.722 527.636 348.324 532.39 348.522 536.824C347.879 536.748 347.294 536.783 346.795 536.886C343.582 537.519 341.291 540.811 340.03 543.155C337.241 541.895 332.045 538.8 330.084 532.6C329.857 531.874 329.33 531.292 328.658 531.013C327.97 530.728 327.216 530.789 326.582 531.158C325.947 531.529 311.024 540.398 309.899 553.301C309.837 554.041 310.076 554.774 310.563 555.314C311.045 555.852 311.762 556.189 312.433 556.113C312.594 556.124 329.392 555.665 331.308 565.136C332.898 573.033 333.026 582.983 326.883 590.467C326.38 589.727 325.799 589.052 325.082 588.522C322.635 586.718 319.602 586.597 317.649 586.759C316.323 583.616 314.159 575.843 321.18 568.779C322.157 567.794 322.194 566.162 321.259 565.126C320.336 564.096 318.778 564.055 317.806 565.043C316.005 566.854 314.679 568.751 313.698 570.662C310.563 570.001 304.267 569.147 298.147 571.175C295.829 571.942 293.967 572.789 292.165 573.605C287.803 575.588 284.344 577.154 276.439 576.61C273.587 576.414 270.509 575.901 267.249 575.354C259.158 574.001 249.437 572.448 236.926 574.493C236.788 574.504 236.652 574.476 236.511 574.517C236.387 574.552 236.273 574.593 236.146 574.628C233.216 575.137 230.18 575.781 226.924 576.741C219.618 578.889 213.093 562.337 208.296 550.25C205.813 543.985 204.026 539.616 202.275 536.903C204.496 535.643 206.655 534.294 208.697 532.782C212.763 529.777 216.385 526.279 219.651 522.462C219.69 522.421 219.729 522.372 219.765 522.327C225.457 515.642 230.005 507.948 233.62 499.957C246.063 523.526 235.951 546.691 235.84 546.935ZM343.849 546.532C344.801 544.553 346.433 542.212 347.698 541.961C347.813 541.944 348.101 541.916 348.559 542.202C348.353 547.902 347.36 552.973 345.567 557.377C345.328 553.621 344.813 549.527 343.849 546.532ZM319.503 596.447C317.427 597.562 315.433 597.978 313.698 598.044C315.478 596.505 317.167 594.443 318.102 591.903C319.388 591.813 321.143 591.91 322.289 592.763C322.589 592.987 322.952 593.362 323.232 593.999C322.107 594.873 320.892 595.703 319.503 596.447ZM207.85 596.137C203.499 602.206 200.064 607.002 193.211 608.775C185.469 610.789 179.149 608.888 174.795 606.537C182.387 606.158 193.166 603.173 200.498 590.832C201.108 589.809 200.962 588.474 200.145 587.623C199.331 586.773 198.065 586.642 197.101 587.29C196.395 587.771 181.175 597.907 169.537 586.742C176.27 586.325 187.307 583.592 194.944 571.298C195.482 570.435 195.479 569.309 194.932 568.444C194.384 567.587 193.399 567.157 192.439 567.35C192.292 567.371 180.364 569.653 168.188 561.194C175.49 560.726 186.607 558.554 193.582 550.274C194.172 549.576 194.357 548.595 194.067 547.71C193.774 546.825 193.052 546.175 192.179 546.016C191.835 545.95 188.157 545.266 182.931 544.515C188.125 543.197 193.131 541.431 197.852 539.189C199.434 541.275 201.912 547.52 203.787 552.244C208.405 563.883 213.922 577.763 221.731 581.268C215.247 585.819 211.286 591.345 207.85 596.137ZM97.7769 526.565C99.2581 525.061 102.388 524.386 106.009 523.608C108.537 523.067 111.361 522.448 114.258 521.432C112.331 526.369 111.609 531.485 111.343 534.8C105.486 532.476 100.707 529.774 97.4856 526.899C97.5791 526.792 97.6945 526.648 97.7769 526.565ZM101.79 555.283C109.884 548.357 117.393 551.727 129.958 558.282C131.817 559.249 133.357 560.661 134.681 562.286C134.43 562.382 134.164 562.427 133.918 562.544C130.826 563.976 128.993 566.406 127.954 568.345C127.246 568.41 126.541 568.551 125.85 568.82C118.075 571.839 113.317 567.945 111.752 566.665C111.108 566.141 110.259 565.99 109.486 566.255C109.149 566.375 101.678 569.05 97.2812 575.085C91.5649 574.307 86.0921 572.882 82.075 568.833C81.6498 568.407 81.3296 567.821 81.1162 567.085C85.0967 565.618 94.1429 561.824 101.79 555.283ZM133.284 569.353C133.933 568.568 134.759 567.794 135.886 567.27C136.411 567.026 136.964 566.868 137.531 566.758C138.766 569.243 139.667 571.88 140.291 574.293C138.234 572.342 135.812 570.475 133.284 569.353ZM237.199 474.093C231.974 474.861 226.706 474.906 221.499 474.138C218.158 473.642 214.875 472.75 211.662 471.638C212.586 468.626 213.428 465.576 214.224 462.516C226.676 458.133 236.009 450.873 242.34 444.449C241.691 451.207 240.264 462.075 237.199 474.093ZM157.358 542.535C157.342 542.535 157.329 542.546 157.313 542.546C142.429 542.783 127.732 540.367 116.134 536.521C116.347 532.658 117.334 523.463 121.962 517.656C122.005 517.601 122.017 517.532 122.055 517.477C122.715 517.012 123.37 516.527 124.015 515.979C124.062 515.941 124.096 515.9 124.143 515.862C127.438 517.143 135.788 519.804 148.365 519.804C150.657 519.804 153.128 519.683 155.695 519.481C156.028 524.269 157.26 534.359 161.767 542.391C160.451 542.46 159.135 542.508 157.819 542.532C157.667 542.535 157.509 542.532 157.358 542.535ZM167.38 541.964C162.236 534.738 160.905 523.721 160.573 518.984C175.497 517.002 186.027 511.624 193.725 504.181C196.86 507.734 204.153 515.329 213.963 521.281C211.486 523.939 208.815 526.396 205.896 528.555C195.233 536.428 181.534 540.529 167.38 541.964ZM217.368 517.373C207.563 511.635 200.112 503.834 197.172 500.501C203.027 493.602 206.997 485.35 210.047 476.582C213.559 477.804 217.169 478.713 220.822 479.253C223.641 479.67 226.477 479.873 229.323 479.873C231.459 479.873 233.594 479.715 235.726 479.481C231.938 492.538 226.171 506.364 217.368 517.373ZM136.848 464.233C138.1 466.55 141.311 471.356 147.237 473.277C148.898 473.814 150.624 474.083 152.42 474.083C157.235 474.083 162.526 472.151 168.212 468.306C174.78 463.869 178.161 458.966 178.261 453.744C178.359 448.735 175.384 445 173.486 443.116C174.027 441.678 174.542 440.225 175.04 438.768C178.237 442.641 183.123 449.978 181.965 457.568C180.93 464.371 175.157 470.196 164.812 474.885C155.993 478.878 148.685 479.281 143.089 476.076C137.833 473.064 135.06 467.411 133.702 463.507C134.756 463.786 135.805 464.034 136.848 464.233ZM171.341 448.225C172.393 449.592 173.422 451.489 173.371 453.665C173.293 457.004 170.6 460.564 165.578 463.958C159.06 468.358 153.393 469.841 148.727 468.354C146.484 467.641 144.775 466.309 143.504 464.963C143.801 464.97 144.106 465.015 144.4 465.015C146.249 465.015 148.057 464.874 149.811 464.588C161.863 462.622 167.594 456.061 171.341 448.225ZM184.898 445.419C182.547 439.787 178.859 435.381 176.935 433.329C177.705 431.178 178.515 429.043 179.457 427.039C183.847 417.703 191.661 415.961 195.56 415.703C194.276 428.713 185.341 444.029 185.245 444.191C185.022 444.566 184.92 444.993 184.898 445.419ZM97.6875 320.202C97.1535 320.398 96.6409 320.625 96.1527 320.887C90.6111 317.936 85.4881 317.451 80.9226 319.506C73.9653 322.639 68.7343 331.476 65.3735 345.773C63.4383 354.019 69.7767 359.644 74.4473 362.078C74.4078 363.22 74.388 364.37 74.3975 365.527C70.8624 363.751 65.3958 360.263 62.9018 354.741C61.1244 350.803 61.1425 346.334 62.9558 341.456C68.5312 326.436 74.7732 318.098 82.033 315.96C86.7715 314.577 92.1627 315.94 98.1019 319.964C97.9631 320.047 97.8259 320.119 97.6875 320.202ZM74.8651 356.394C72.2801 354.655 69.0648 351.515 70.1199 347.02C73.8215 331.273 79.0796 325.951 82.838 324.257C85.4176 323.1 88.3578 323.162 91.6152 324.409C81.1397 332.85 76.289 344.052 74.8651 356.394ZM94.9372 441.264C92.8838 441.041 90.9683 439.619 89.2391 437.04C84.1849 429.515 78.5708 420.106 80.0223 414.126C80.4121 412.522 81.37 411.159 82.8339 409.964C86.5915 421.769 92.3856 431.921 99.2762 440.197C98.1234 440.844 96.5672 441.447 94.9372 441.264ZM81.2699 404.88C78.1332 406.945 76.0773 409.592 75.285 412.842C73.3489 420.808 78.9296 430.616 85.2475 440.029C87.8296 443.877 90.9209 446.019 94.4371 446.401C94.8083 446.438 95.1733 446.459 95.5322 446.459C98.5337 446.459 101.079 445.151 102.695 444.056C103.591 445.007 104.488 445.957 105.412 446.845C101.289 449.482 92.7548 453.568 86.6174 447.258C77.79 438.19 68.9379 424.675 70.5657 413.958C71.3543 408.783 74.5738 404.411 80.1484 400.927C80.5138 402.253 80.8884 403.571 81.2699 404.88ZM117.863 613.057C117.255 614.242 116.529 615.46 115.664 616.641C113.278 612.331 109.074 610.919 105.852 610.813C105.139 608.981 104.354 607.728 103.741 606.757C102.481 604.757 101.903 603.841 103.753 597.855C104.049 596.891 103.782 595.83 103.07 595.145C102.361 594.467 101.338 594.292 100.449 594.688C100.317 594.749 87.2491 600.571 72.6188 593.4C58.5868 586.511 56.9499 580.631 56.9437 580.631C56.7224 579.337 55.5642 578.397 54.376 578.517C54.1939 578.514 35.6997 579.66 31.1663 566.32C30.8223 565.308 29.9097 564.637 28.8891 564.623C27.9287 564.579 26.9407 565.284 26.5728 566.289C26.3392 566.937 24.1254 572.097 16.5723 571.494C15.8925 568.393 13.83 564.675 9.12558 563.367C11.6982 556.326 16.2015 549.038 24.0261 543.575C26.3903 541.926 28.7392 541.347 31.0197 541.84C34.3236 542.57 37.7232 545.648 40.8561 550.75C46.1769 559.411 55.6125 559.583 56.3483 559.583C56.3632 559.583 56.3722 559.583 56.3813 559.583C57.7071 559.573 58.7813 558.447 58.8052 557.049C58.8085 556.915 58.991 547.844 60.7206 538.611C60.7379 538.532 60.7536 538.453 60.7651 538.37C60.7651 538.367 60.7651 538.367 60.7651 538.363C61.5912 534.022 62.7613 529.657 64.4164 526.19C68.3277 517.99 68.546 509.907 68.7372 502.77C68.9263 495.795 69.0726 490.284 72.6126 487.075C81.0783 479.408 99.0393 478.324 99.2218 478.314C100.338 478.252 101.272 477.398 101.49 476.241C101.709 475.084 101.158 473.917 100.15 473.404C100.03 473.346 87.994 467.198 81.1562 458.915C67.0257 441.798 60.0321 439.398 51.6921 437.877C50.1034 437.584 48.4759 437.522 46.8308 437.567C44.1201 432.331 25.5209 393.966 35.1584 345.515C44.411 298.975 98.1234 279.087 105.545 276.549C112.16 279.744 119.369 281.713 126.647 282.068C117.527 291.518 119.488 303.209 120.936 308.235C115.06 310.876 109.044 313.819 102.929 317.214C94.936 311.131 87.4662 308.996 80.7223 310.986C71.8797 313.588 64.5779 322.935 58.401 339.57C56.0731 345.846 56.1056 351.702 58.4999 356.99C62.3192 365.414 71.0544 369.785 74.6307 371.276C75.2013 379.404 76.7715 387.721 78.8073 395.832C71.2435 400.204 66.8238 406.009 65.7386 413.142C63.3118 429.088 78.4958 446.122 83.2059 450.962C86.5758 454.422 90.5019 455.703 94.3922 455.703C100.051 455.703 105.628 452.993 109.302 450.367C115.293 455.413 121.682 459.204 128.041 461.672C128.934 465.479 132.045 475.601 140.722 480.596C143.954 482.455 147.566 483.385 151.534 483.385C156.137 483.385 161.218 482.135 166.739 479.632C178.727 474.2 185.476 467.05 186.795 458.388C187.386 454.508 186.789 450.783 185.645 447.403C186.192 447.96 186.95 448.229 187.732 448.101C202.299 445.485 212.297 438.41 217.972 433.16C214.599 452.315 210.271 458.949 210.229 459.008C210.058 459.255 209.945 459.527 209.867 459.81C209.862 459.827 209.848 459.841 209.843 459.858C203.036 486.431 193.878 510.585 157.1 514.199C143.206 515.576 133.208 513.38 128.216 511.827C133.725 505.582 135.274 499.589 135.452 495.351C135.701 489.402 133.501 483.622 129.423 479.498C128.447 478.51 126.897 478.548 125.966 479.577C125.033 480.606 125.065 482.242 126.041 483.226C129.102 486.325 130.751 490.659 130.565 495.124C130.34 500.539 127.484 505.886 122.338 510.688C122.11 510.832 121.914 511.012 121.738 511.235C121.474 511.469 121.233 511.714 120.957 511.948C115.923 516.21 110.139 517.452 105.037 518.551C100.668 519.487 96.8968 520.296 94.3893 522.833C90.6844 526.586 75.8894 550.447 75.9042 564.468C75.9104 567.98 76.8502 570.706 78.6993 572.569C84.0737 577.988 91.1776 579.54 98.0026 580.366C98.0377 580.373 98.0715 580.373 98.1069 580.38C99.5576 580.552 100.999 580.707 102.403 580.845C109.519 581.537 115.666 582.143 118.823 586.164C122.486 590.839 122.854 603.332 117.863 613.057ZM106.937 616.1C108.729 616.424 110.944 617.519 111.986 620.507C109.763 622.325 107.029 623.757 103.612 624.322C105.351 622.146 106.858 619.34 106.937 616.1ZM6.00209 578.091C6.22499 575.226 6.70294 571.853 7.61349 568.283C10.1836 568.916 11.2293 570.655 11.6657 572.07C9.75268 573.195 7.82114 575.423 6.00209 578.091ZM39.7309 524.999C53.257 527.415 56.7434 518.262 56.8992 517.818C57.1353 517.16 57.1056 516.423 56.8151 515.786C56.5251 515.149 56.001 514.664 55.3669 514.451C38.0581 508.533 32.5639 498.109 30.8969 490.951C32.8482 492.945 35.2572 494.907 38.2048 496.553C42.3373 498.859 47.0178 500.198 51.7366 500.433C52.8173 500.522 53.7271 499.84 54.116 498.828C54.505 497.816 54.2507 496.652 53.4786 495.926C49.2023 491.898 45.722 486.855 43.4114 481.34C41.6044 477.016 40.4882 472.348 40.1166 467.624C43.1815 469.907 46.2218 472.261 49.1994 474.657C53.0176 477.725 56.83 480.944 60.5319 484.225C61.2534 484.862 62.2529 485.006 63.1115 484.6C63.9673 484.187 64.5239 483.299 64.5478 482.304C64.6286 478.713 64.1737 466.251 54.8968 456.78C48.9988 450.763 41.0745 447.502 32.8214 447.406C39.3267 443.461 45.3627 441.96 50.8603 442.965C58.1946 444.304 64.3979 446.473 77.4699 462.306C81.5035 467.198 87.0006 471.308 91.2979 474.107C84.702 475.271 75.3538 477.791 69.4286 483.157C64.2454 487.853 64.0538 495.028 63.8503 502.625C63.6707 509.222 63.4704 516.695 60.047 523.866C58.485 527.14 57.3178 531.041 56.4501 534.996C47.8315 533.058 42.6397 528.586 39.7309 524.999ZM30.3707 344.455C29.8467 347.088 29.4235 349.681 29.0511 352.249C25.0459 350.524 17.6864 348.083 9.8359 348.999C12.6788 332.76 18.4668 317.85 27.2415 305.192C34.4843 305.695 40.1693 313.01 42.2809 316.153C36.8126 324.285 32.5161 333.666 30.3707 344.455ZM10.2619 402.001C7.43427 385.573 6.99958 369.441 9.02093 354.325C17.1051 352.893 25.1555 356.056 28.3733 357.564C26.6783 373.111 27.5666 387.257 29.5706 399.302C24.9577 398.975 16.4162 398.917 10.2619 402.001ZM24.0578 447.43C18.2245 434.162 13.9659 420.65 11.2561 407.275C16.3293 403.988 25.6742 404.081 30.536 404.559C33.9009 421.235 39.1393 433.188 41.6068 438.218C36.0178 439.495 30.1487 442.59 24.0578 447.43ZM36.4537 460.302C35.6577 460.729 35.1464 461.576 35.1134 462.516C35.0372 464.888 35.1934 467.256 35.453 469.618C32.2747 464.216 29.3461 458.742 26.71 453.21C35.8032 451.306 45.0867 453.95 51.4977 460.498C56.516 465.617 58.4821 471.804 59.2271 476.403C56.8901 474.406 54.5289 472.448 52.1618 470.547C47.8468 467.077 43.3966 463.686 38.9378 460.471C38.1962 459.944 37.2473 459.875 36.4537 460.302ZM66.294 272.955C67.7945 274.115 69.1925 275.417 70.4042 276.894C72.4688 279.421 74.0056 282.33 75.048 285.528C64.9285 291.852 54.0361 300.493 45.3574 311.85C42.6912 308.18 37.5365 302.355 30.6777 300.538C30.8751 300.286 31.0563 300.025 31.2562 299.773C41.4902 287.077 53.9879 278.618 66.294 272.955ZM94.1919 266.509C95.512 269.294 97.343 271.527 99.6441 273.217C94.922 275.031 87.5832 278.195 79.3763 282.925C78.1308 279.472 76.3455 276.26 74.1029 273.52C73.2883 272.522 72.407 271.589 71.4788 270.711C79.1818 267.619 86.6512 265.583 93.3069 264.234C93.5731 265.008 93.8479 265.783 94.1919 266.509ZM105.737 217.221C106.045 216.547 106.057 215.755 105.77 215.063C105.483 214.375 104.923 213.853 104.241 213.631L77.6882 205.138C77.4546 205.064 77.2152 205.029 76.9787 205.029C76.3294 205.029 75.6949 205.299 75.2281 205.808C74.5907 206.496 74.3723 207.505 74.6562 208.419C74.6958 208.545 78.448 221.046 70.8109 237.205C67.5073 244.197 60.1549 249.266 51.6262 250.437C50.7416 250.559 49.8772 250.576 49.0099 250.606C49.138 249.728 49.1492 248.757 48.9151 247.7C48.4356 245.524 47.0689 243.714 45.2474 242.614C45.8221 240.247 47.1612 236.252 50.0519 233.977C51.9554 232.471 54.2297 231.962 57.022 232.428C57.9074 232.58 58.7874 232.202 59.3346 231.466C59.8826 230.722 60.0025 229.721 59.649 228.856C58.8348 226.863 58.2844 224.766 58.0182 222.621C57.5782 219.105 57.8983 215.572 58.97 212.122C59.3437 210.908 58.8262 209.589 57.7488 209.011C56.6742 208.436 55.3578 208.78 54.6549 209.82C54.4629 210.103 35.1608 238.323 20.6777 228.947C13.1028 224.043 10.0839 217.708 9.72631 211.73C10.2487 211.852 10.7852 211.961 11.3921 211.961C11.4007 211.961 11.4069 211.961 11.4156 211.961C13.2494 211.956 14.7953 211.23 16.0231 210.303C17.0775 210.89 18.2369 211.221 19.3786 211.521C20.0189 211.691 20.6983 211.865 21.4078 212.113C26.1834 213.758 26.7405 216.59 26.7524 216.634C26.86 217.556 27.4257 218.344 28.2394 218.705C29.0478 219.057 29.9814 218.931 30.6785 218.361L40.7453 210.124C41.4128 209.576 41.7659 208.697 41.6793 207.81C41.6703 207.723 40.8203 198.564 44.645 189.448C47.5234 182.595 52.2784 178.192 58.3981 176.717C65.362 175.042 72.7383 177.505 76.4225 180.812L77.8885 182.134C86.9108 190.279 87.6141 190.362 105.566 192.446L111.512 193.142C135.473 195.992 139.196 202.784 139.552 224.652C139.672 231.949 139.124 256.58 127.07 267.236C122.142 271.592 115.768 273 108.131 271.41C103.543 270.453 100.417 268.098 98.5638 264.199C91.4088 249.114 105.59 217.539 105.737 217.221ZM42.683 246.982C43.4222 247.369 43.9714 248.057 44.151 248.875C44.2746 249.427 44.1798 249.919 44.0422 250.341C41.7251 249.954 39.5447 249.231 37.588 248.187C39.4235 248.022 41.2525 247.665 42.683 246.982ZM12.2355 200.469C12.3377 202.51 12.5836 204.551 13.0607 206.23C12.6331 206.526 12.0851 206.796 11.3974 206.8C11.395 206.8 11.3921 206.8 11.3888 206.8C10.8734 206.8 10.4424 206.648 10.0819 206.465C10.3517 205.077 10.7378 203.737 11.2392 202.488C11.5474 201.727 11.8857 201.057 12.2355 200.469ZM30.3555 193.66C23.8135 188.661 19.1631 179.872 18.5018 171.27C18.1026 166.105 19.2364 161.819 21.6851 159.196C22.0736 159.9 22.5952 160.601 23.3084 161.232C24.6256 162.398 26.2716 163.011 27.9559 163.059C28.4355 164.312 29.2204 165.344 29.9216 166.244C30.8281 167.402 31.6809 168.502 32.1033 170.091C32.6537 172.175 32.2973 174.646 31.0374 177.431C30.6756 178.236 30.7325 179.184 31.1845 179.933C31.6389 180.685 32.3542 181.068 33.273 181.125C35.6911 181.173 37.9951 181.677 40.0271 182.809C40.6522 183.157 41.2467 183.557 41.8153 184.005C41.2389 185.045 40.6831 186.142 40.1738 187.355C38.4598 191.441 37.5686 195.501 37.1204 198.951C35.563 197.694 33.3995 195.992 30.3555 193.66ZM28.1562 157.895C27.5324 157.89 26.9238 157.694 26.4471 157.272C26.0734 156.937 25.8769 156.546 25.7397 156.163C27.2468 155.445 28.7285 155.114 30.0832 155.036C29.3531 155.789 28.6498 156.759 28.1562 157.895ZM123.393 173.319C123.176 174.52 122.997 175.73 122.905 176.943C122.132 175.442 121.483 173.872 120.954 172.249C121.767 172.605 122.583 172.954 123.393 173.319ZM124.615 168.263C119.472 165.97 114.22 163.79 109.013 161.741C109.237 159.509 109.541 157.277 109.989 155.088C110.579 152.23 111.421 149.419 112.395 146.656C119.284 148.631 125.559 150.929 131.216 153.513C129.391 156.594 126.486 162.063 124.615 168.263ZM159.593 152.16C157.014 155.249 153.958 159.679 151.911 165.156C150.263 169.564 148.297 176.286 150.224 183.735C157.429 211.582 153.683 227.907 151.696 233.716C151.366 234.586 151.008 235.469 150.619 236.361C150.071 237.619 150.556 239.102 151.717 239.733C152.884 240.368 154.305 239.925 154.958 238.728C155.059 238.541 155.724 237.288 156.508 234.912C161.212 222.081 160.258 211.8 159.407 202.641C158.408 191.85 157.543 182.539 165.731 170.813C174.819 157.808 184.605 154.318 191.23 153.678C191.071 153.779 190.941 153.883 190.784 153.987C190.688 154.031 190.613 154.105 190.524 154.161C166.912 169.438 168.85 188.4 170.938 208.367C172.542 223.704 174.2 239.555 164.444 255.667C152.618 275.193 135.529 278.567 121.328 276.164C124.581 275.19 127.553 273.544 130.209 271.196C143.55 259.404 144.607 234.66 144.442 224.565C144.074 202.014 139.636 191.789 113.932 188.278C113.647 185.811 113.623 182.587 114.544 178.984C114.978 177.287 115.594 175.634 116.369 174.063C117.267 176.791 118.464 179.38 119.954 181.795C121.289 183.957 122.86 185.981 124.629 187.812C125.445 188.665 126.711 188.796 127.675 188.134C128.635 187.473 129.034 186.198 128.629 185.067C126.137 178.031 129.067 169.016 132.095 162.494C132.211 167.145 132.682 171.779 133.499 176.347C134.468 181.773 135.938 187.134 137.87 192.29C138.247 193.299 139.163 193.926 140.145 193.926C140.363 193.926 140.588 193.891 140.806 193.825C142.015 193.469 142.769 192.207 142.553 190.902C141.486 184.401 141.087 174.65 145.241 165.117C146.399 162.463 147.988 158.817 151.555 155.911C154.216 153.739 157.121 152.673 159.593 152.16ZM155.356 170.426C156.713 172.04 157.56 173.315 158.041 174.133C156.625 177.004 155.605 179.785 154.97 182.482C154.958 182.448 154.949 182.408 154.94 182.374C153.811 178.005 154.41 173.819 155.356 170.426ZM190.682 148.196C190.851 148.301 191.028 148.401 191.195 148.509C190.899 148.531 190.596 148.562 190.29 148.596C190.413 148.462 190.555 148.331 190.682 148.196ZM200.121 177.531C194.671 170.021 192.56 163.316 193.896 158.034C195.619 156.95 197.499 155.884 199.528 154.84C202.798 157.799 205.662 161.062 207.988 164.739C212.371 171.666 215.62 178.653 217.858 185.719C208.946 189.705 205.228 184.571 200.121 177.531ZM188.599 161.789C188.741 167.506 191.288 173.846 196.329 180.798C200.151 186.059 204.651 192.268 212.226 192.263C214.316 192.263 216.644 191.789 219.253 190.693C219.563 191.963 219.889 193.229 220.13 194.509C216.416 196.527 206.319 200.787 199.301 192.198C193.502 185.102 185.667 175.49 184.405 165.587C185.645 164.295 187.049 163.033 188.599 161.789ZM165.578 283.589C160.431 280.326 152.89 280.312 143.17 283.565C135.979 285.969 131.38 289.741 129.5 294.782C128.067 298.624 128.599 302.252 129.283 304.621C128.012 305.15 126.725 305.701 125.438 306.256C124.058 301.326 122.483 289.604 135.169 281.727C140.909 280.949 146.55 279.035 151.83 275.799C166.2 273.816 172.385 282.209 174.486 286.237C173.035 286.963 171.552 287.672 170.038 288.365C169.237 286.857 167.874 285.042 165.578 283.589ZM178.831 283.958C176.581 279.668 170.802 271.578 158.861 270.459C162.379 267.214 165.653 263.255 168.562 258.447C179.248 240.803 177.417 223.269 175.798 207.801C174.364 194.073 173.066 181.573 180.416 170.53C183.089 180.237 190.174 188.935 195.596 195.575C199.801 200.717 204.996 202.467 209.948 202.467C214.006 202.467 217.884 201.283 220.936 199.839C221.61 205.739 221.545 211.704 220.766 217.743C214.495 216.386 199.655 215.837 189.498 236.814C184.952 246.208 183.83 254.679 186.157 261.997C187.941 267.597 191.352 271.182 193.815 273.176C189.374 277.39 184.37 280.88 178.831 283.958ZM199.438 267.036C198.762 267.889 198.079 268.733 197.369 269.529C195.517 268.172 192.357 265.269 190.793 260.353C188.899 254.401 189.928 247.273 193.854 239.168C202.762 220.754 215.17 221.629 219.925 222.777C219.733 223.774 219.537 224.77 219.305 225.766C205.451 224.309 199.34 238.032 195.617 246.438L195.318 247.113C191.274 256.219 195.446 263.346 199.438 267.036ZM170.328 138.311C175.969 140.469 181.335 142.857 186.276 145.59C184.925 147.13 183.773 148.723 182.817 150.35C176.304 152.717 168.813 157.703 161.795 167.75C161.429 168.272 161.146 168.777 160.811 169.294C159.96 168.107 158.812 166.692 157.313 165.1C161.075 156.694 167.355 151.338 167.421 151.285C168.194 150.641 168.529 149.58 168.271 148.579C168.017 147.578 167.224 146.834 166.251 146.695C166.122 146.673 165.033 146.525 163.362 146.556C167.415 144.276 169.47 141.082 170.328 138.311ZM138.086 128.121C144.354 129.909 150.662 131.71 156.835 133.655C151.999 137.475 139.165 133.181 132.55 130.966C131.278 130.54 130.171 130.17 129.291 129.909C125.882 128.886 124.848 126.293 124.578 124.205C128.977 125.527 133.499 126.815 138.086 128.121ZM115.2 121.207C116.646 121.694 118.104 122.177 119.589 122.647C119.53 126.894 121.186 132.846 127.956 134.878C128.797 135.126 129.856 135.482 131.069 135.887C136.446 137.693 144.365 140.343 151.071 140.343C155.714 140.343 159.754 139.042 161.99 135.335C163.231 135.752 164.463 136.174 165.686 136.609C165.061 138.768 162.961 142.427 155.885 143.841C151.831 144.65 142.165 142.479 134.405 140.734L130.889 139.951C123.425 138.306 118.503 135.208 116.258 130.74C114.498 127.229 114.756 123.508 115.2 121.207ZM142.404 159.548C141.753 160.797 141.233 161.967 140.8 162.959C139.394 166.183 138.448 169.421 137.847 172.566C137.075 167.236 136.832 161.828 137.065 156.415C138.933 157.42 140.706 158.473 142.404 159.548ZM67.9564 145.516C66.4007 144.781 64.8886 143.924 63.4177 142.962C63.8486 141.387 64.3744 139.842 65.0834 138.385C66.5737 135.33 68.6404 132.689 71.1829 130.457C81.4236 136.749 93.4985 141.805 106.883 145.172C107.139 145.237 107.381 145.311 107.637 145.377C106.665 148.201 105.814 151.072 105.213 153.992C104.812 155.941 104.522 157.921 104.286 159.909C100.702 158.53 97.1646 157.185 93.7968 155.919C84.173 152.299 75.0814 148.875 67.9564 145.516ZM39.4862 94.5958C39.8652 95.6575 40.22 96.7235 40.6765 97.7808C45.5436 109.059 54.6537 119.262 66.7987 127.607C64.3229 130.044 62.257 132.902 60.7379 136.018C60.1413 137.24 59.63 138.506 59.1953 139.803C47.8385 130.165 40.0576 113.662 39.4862 94.5958ZM93.1771 20.0366C102.074 17.2302 109.148 17.3215 113.515 17.9002C110.264 20.7632 106.518 24.8706 106.326 28.7343C106.231 30.701 106.982 32.4326 108.499 33.738C116.989 41.0521 121.801 36.5706 125.664 32.9679C128.701 30.1397 131.631 27.4551 136.763 27.8815C141.479 28.26 145.932 30.5009 149.4 32.8547C147.578 32.994 145.768 33.49 144.242 34.5864C142.593 35.7699 140.617 38.1673 140.579 42.8273C140.558 45.4597 141.216 47.4351 142.59 48.8708C145.247 51.6425 149.667 51.525 156.376 51.3858C159.255 51.3162 162.517 51.2465 166.215 51.377C174.115 51.6599 179.744 54.3575 183.297 56.8376C173.805 57.4337 169.645 61.1755 169.002 64.9609C168.891 65.6093 168.919 66.3011 169.03 67.0103C160.207 63.908 150.186 59.3439 138.059 52.9826C105.538 35.931 83.9834 29.226 68.3281 33.1245C76.6281 26.8242 85.5726 22.434 93.1771 20.0366ZM356.877 62.494C362.645 64.7 365.286 68.1198 368.34 72.0706C370.836 75.3077 373.671 78.9756 378.483 82.1389C386.295 87.2731 396.282 89.0222 408.186 87.3384C409.372 87.1643 410.27 86.1157 410.303 84.8495C410.336 83.579 409.496 82.4782 408.321 82.2389C402.232 81.0076 396.876 78.5754 392.393 75.0075C387.412 71.035 385.179 67.0364 382.822 62.8029C380.267 58.2212 377.626 53.483 371.561 49.232C364.182 44.0456 356.024 41.7047 348.567 42.6401C344.303 43.171 341.464 44.5939 338.188 46.2385C334.789 47.9485 330.937 49.876 324.064 51.6512C319.437 52.839 316.739 53.1044 315.235 53.1044C313.896 53.1044 313.48 52.8956 313.529 52.9435C312.095 50.9724 312.808 46.7389 317.76 42.1006C328.844 31.7234 341.348 33.3595 356.708 39.0201C371.195 44.3763 389.291 30.4051 390.053 29.809C390.943 29.1085 391.281 27.8641 390.864 26.7763C390.456 25.6842 389.381 25.0272 388.289 25.1708C369.077 27.7336 363.531 25.3405 357.108 22.5732C352.114 20.4282 346.457 17.9872 334.455 17.3215C317.443 16.4165 309.322 26.2673 302.16 34.9998C296.98 41.3174 292.09 47.2827 284.227 49.4974C282.173 50.0761 280.514 49.8368 280.028 48.8883C278.845 46.5822 281.388 39.0637 293.244 27.7945C314.951 7.1532 347.961 10.4295 348.299 10.4687C349.597 10.6166 350.714 9.69421 350.948 8.37585C351.183 7.0575 350.425 5.76953 349.201 5.40839C316.809 -4.09857 290.991 1.83185 274.548 22.5732C271.024 27.02 268.527 31.6582 266.112 36.1441C261.287 45.1072 257.479 52.1864 247.716 53.396C244.791 53.7571 243.435 53.2915 243.145 52.7911C242.719 52.0558 242.06 48.5141 251.38 33.9947C261.75 17.8393 281.032 11.8784 281.225 11.8219C282.388 11.4694 283.135 10.2729 282.981 9.00671C282.829 7.74054 281.818 6.78333 280.612 6.7572C243.478 5.84784 232.932 30.3051 225.913 46.4778C225.287 47.9137 224.691 49.2842 224.107 50.5721C214.589 71.4788 195.491 72.2011 192.927 72.2011C192.855 72.2011 192.814 72.2011 192.771 72.2011C192.716 72.1967 192.671 72.1968 192.615 72.1924C188.4 71.9096 184.074 71.2308 179.486 70.1213C175.304 68.8073 173.647 66.8493 173.813 65.8703C174.077 64.3301 178.452 61.2147 189.728 62.0588C190.688 62.0806 191.607 61.5933 192.059 60.6926C192.511 59.7876 192.418 58.6868 191.82 57.8862C191.484 57.4337 183.396 46.8259 166.383 46.2124C162.547 46.0818 159.21 46.1515 156.269 46.2211C151.415 46.3342 147.213 46.4299 146.025 45.1943C145.648 44.7983 145.459 44.0195 145.468 42.8708C145.492 39.9338 146.621 39.1246 146.992 38.8591C149.634 36.9578 155.44 38.6155 157.265 39.3464C158.333 39.7728 159.542 39.3682 160.174 38.3674C160.805 37.358 160.697 36.0266 159.907 35.152C159.485 34.6865 149.425 23.7089 137.131 22.7342C129.916 22.1729 125.754 26.0018 122.432 29.0954C118.608 32.6459 116.869 34.2732 111.587 29.7394C111.192 29.4 111.201 29.1868 111.21 29.004C111.33 26.611 116.198 21.8118 120.642 18.7356C121.412 18.2004 121.834 17.2562 121.732 16.2903C121.633 15.3287 121.029 14.502 120.167 14.1583C119.712 13.9712 108.75 9.73773 91.7767 15.0851C74.8157 20.437 51.5141 35.0868 41.5067 58.7651C41.498 58.7825 41.4882 58.8043 41.4787 58.8217C41.4634 58.8521 41.454 58.8826 41.4387 58.913C41.4301 58.9348 41.4185 58.9565 41.4095 58.9783C41.4029 58.9957 41.3971 59.0131 41.3897 59.0305C39.6864 62.507 38.4866 66.0748 37.703 69.6862C28.7519 101.927 40.0568 132.35 59.0738 146.138C59.1513 146.199 59.2332 146.251 59.3181 146.303C61.4454 147.826 63.6645 149.145 65.9635 150.228C73.2591 153.674 82.44 157.125 92.1566 160.779C96.4535 162.398 100.812 164.056 105.178 165.753C105.319 165.84 105.477 165.874 105.634 165.931C108.256 166.953 110.876 168.002 113.496 169.077C111.856 171.713 110.595 174.616 109.822 177.64C108.993 180.885 108.703 184.288 108.948 187.643L106.099 187.312C88.9428 185.324 88.9428 185.324 81.0663 178.21L79.5885 176.878C75.123 172.871 66.2622 169.521 57.3091 171.679C53.5046 172.597 48.7236 174.82 44.6664 179.802C43.9162 179.219 43.1284 178.693 42.3044 178.236C40.5599 177.265 38.6568 176.595 36.6816 176.247C37.3878 173.571 37.4327 171.043 36.813 168.698C36.113 166.057 34.7756 164.343 33.6982 162.964C32.6146 161.571 32.3336 161.119 32.4201 160.566C32.6236 159.226 34.4192 157.838 35.0059 157.516C36.4451 156.759 37.8727 156.463 37.8814 156.463C38.9139 156.259 39.7099 155.384 39.8566 154.283C40.0028 153.182 39.4676 152.108 38.5282 151.612C35.3611 149.945 28.5731 148.449 22.2223 152.282C21.9104 152.395 21.6335 152.582 21.3971 152.817C20.3205 153.552 19.2595 154.436 18.2385 155.523C14.7463 159.235 13.1094 164.978 13.6273 171.692C14.3994 181.725 19.8367 191.994 27.4825 197.846C33.3076 202.301 35.7179 204.307 36.7038 205.173C36.7018 205.826 36.7092 206.413 36.7265 206.879L30.0865 212.313C28.7845 210.429 26.5427 208.449 22.9219 207.196C22.0962 206.918 21.3031 206.705 20.5578 206.509C19.4359 206.217 18.3733 205.939 18.0173 205.578C17.314 204.559 16.9069 199.43 17.1492 194.609C17.1945 193.712 16.7932 192.851 16.0903 192.342C15.3837 191.833 14.483 191.75 13.7051 192.12C13.247 192.337 9.16844 194.417 6.73837 200.469C2.8061 210.264 3.73107 224.035 18.1219 233.35C30.9451 241.643 45.2223 228.925 52.9459 220.08C52.964 221.163 53.0386 222.233 53.1704 223.295C53.3319 224.596 53.5804 225.884 53.9096 227.15C51.3839 227.363 49.1063 228.268 47.1043 229.852C42.505 233.489 40.7931 239.733 40.2397 242.487C38.3037 243.192 34.0031 243.31 30.5677 242.94C29.5562 242.805 28.6044 243.375 28.1442 244.328C27.6832 245.268 27.815 246.412 28.4792 247.213C33.9104 253.735 42.8194 256.876 52.2574 255.558C62.3786 254.17 71.1644 248.022 75.1865 239.511C80.9374 227.341 80.8871 216.977 80.1871 211.338L100.156 217.721C97.2025 224.901 89.9873 244.489 92.1273 259.213C72.6823 263.198 46.4995 272.897 27.5336 296.424C15.2704 311.64 7.67035 330.543 4.55263 351.33C4.46528 351.598 4.42614 351.87 4.42655 352.159C-0.0462908 383.25 5.52292 418.484 20.7251 451.985C20.7716 452.219 20.8272 452.456 20.9381 452.677C21.0081 452.811 21.1136 452.911 21.203 453.031C26.4912 464.519 32.8894 475.801 40.4322 486.624C41.7436 489.206 43.2742 491.674 45.0129 493.971C43.4448 493.454 41.9274 492.786 40.4882 491.984C35.0566 488.958 31.7741 484.641 29.9752 481.55C29.4396 480.627 28.4281 480.138 27.4018 480.373C26.3932 480.593 25.6239 481.45 25.4744 482.527C25.4385 482.775 22.4493 506.743 50.6147 518.155C48.4813 519.935 43.9862 521.646 35.0805 518.379C34.1708 518.048 33.1745 518.307 32.5099 519.036C31.8486 519.769 31.6513 520.84 32.0102 521.784C32.2405 522.39 37.6449 536.084 55.4864 540.057C54.5618 545.751 54.1786 551.039 54.02 554.14C51.5125 553.621 47.5415 552.144 44.959 547.937C41.0473 541.568 36.6935 537.816 32.0192 536.786C28.419 535.984 24.8221 536.828 21.3303 539.265C-2.4607 555.872 0.995699 586.26 1.15432 587.544C1.29194 588.66 2.09414 589.551 3.13818 589.751C4.17688 589.94 5.2304 589.417 5.73264 588.432C8.72552 582.535 12.7896 576.814 14.0133 576.421C21.1354 577.733 25.8188 575.237 28.5327 572.314C34.8205 582.669 48.0923 583.699 52.922 583.716C54.4213 586.687 58.6614 592.247 70.5595 598.082C81.9073 603.649 92.2703 602.392 97.9289 600.932C97.2231 605.036 98.0492 607.046 99.6713 609.618C100.41 610.792 101.176 612.007 101.811 614.207C103.424 619.784 95.8227 624.711 95.7444 624.762C94.8499 625.33 94.3955 626.442 94.6167 627.523C94.8409 628.6 95.688 629.413 96.7266 629.537C97.9116 629.682 99.0727 629.754 100.21 629.754C106.398 629.754 111.814 627.602 116.166 623.554L116.171 623.55C118.484 621.399 120.512 618.738 122.163 615.519C127.744 604.644 127.938 589.692 122.588 582.872C118.247 577.337 111.071 576.51 103.427 575.76C105.759 573.663 108.421 572.283 109.896 571.625C115.229 575.453 121.157 576.142 127.537 573.667C132.194 571.863 140.896 581.874 142 583.868C142.419 584.769 143.281 585.313 144.197 585.313C144.403 585.313 144.613 585.282 144.819 585.227C145.948 584.914 146.707 583.805 146.638 582.577C146.587 581.678 145.238 560.489 132.125 553.648C120.556 547.62 109.633 541.926 98.7134 551.27C92.5612 556.533 85.2195 559.935 81.0396 561.608C82.4124 552.185 89.7838 538.28 94.5252 530.989C98.6829 534.583 104.937 537.915 112.534 540.649C112.674 540.725 112.82 540.769 112.974 540.818C124.883 545.035 139.997 547.785 155.437 547.785C156.392 547.785 157.351 547.723 158.308 547.703C167.995 547.648 179.674 549.235 186.235 550.254C176.396 557.38 161.538 556.034 161.368 556.014C160.386 555.917 159.339 556.516 158.911 557.525C158.483 558.53 158.704 559.711 159.465 560.465C169.792 570.72 181.002 572.696 187.6 572.824C177.955 583.523 165.01 581.537 164.411 581.437C163.439 581.282 162.469 581.74 161.945 582.618C161.425 583.502 161.454 584.628 162.023 585.479C170.363 597.924 181.525 598.141 189.533 596.044C179.499 603.979 167.649 600.964 167.03 600.798C165.988 600.523 164.881 601.004 164.324 601.986C163.773 602.967 163.896 604.22 164.633 605.057C165.039 605.521 173.353 614.792 186.711 614.792C189.111 614.792 191.673 614.496 194.378 613.794C202.916 611.581 207.207 605.59 211.75 599.256C217.227 591.617 222.901 583.726 237.141 579.691C249.225 577.636 258.65 579.144 266.483 580.456C269.857 581.021 273.045 581.554 276.123 581.764C285.212 582.366 289.524 580.425 294.095 578.349C295.786 577.585 297.534 576.793 299.614 576.101C304.205 574.576 309.079 575.054 311.914 575.564C310.653 581.265 312.017 586.625 313.636 589.902C312.388 593.576 307.831 596.192 306.059 596.932C305.153 597.311 304.543 598.22 304.51 599.249C304.473 600.275 305.021 601.225 305.894 601.669C306.092 601.762 309.038 603.211 313.216 603.211C315.717 603.211 318.663 602.691 321.716 601.049C323.768 599.948 325.601 598.664 327.253 597.242C327.282 597.225 327.307 597.19 327.34 597.169C335.844 589.792 338.959 578.294 336.091 564.062C333.92 553.321 321.271 551.335 315.313 551.001C317.221 544.732 323.282 539.647 326.648 537.22C330.113 544.226 336.614 547.372 339.346 548.429C340.784 553.221 340.961 562.723 340.899 566.224C340.879 567.329 341.526 568.324 342.506 568.703C343.479 569.078 344.591 568.754 345.246 567.897C350.499 561.025 353.219 552.147 353.453 541.42C353.49 541.159 353.482 540.904 353.445 540.642C353.507 534.776 352.881 528.4 351.459 521.456C350.207 515.301 345.93 509.941 339.742 506.753C333.936 503.768 327.488 503.366 322.907 505.71C316.644 508.908 309.026 519.036 305.083 524.713C305.058 524.661 305.033 524.596 305.005 524.544C302.258 519.009 297.606 514.967 292.856 514.003C284.941 512.395 278.467 517.952 274.643 529.678C272.69 535.688 265.58 547.049 263.549 550.23C260.569 550.447 250.572 548.512 241.385 546.236C244.09 538.435 249.597 516.392 236.042 494.222C245.825 469.435 247.474 443.712 247.716 438.4C249.46 436.228 250.734 434.414 251.543 433.174C253.231 433.69 254.943 433.952 256.697 433.952C261.939 433.952 267.569 431.938 274.056 429.618L276.123 428.885C280.667 427.273 287.33 425.621 294.271 426.261C294.144 430.675 293.55 434.145 291.933 435.416C289.407 437.405 285.163 438.118 280.67 438.875C273.306 440.115 264.961 441.516 260.266 449.079C255.308 457.076 258.434 467.098 261.74 477.708C264.374 486.149 267.096 494.876 266.421 503.679C265.274 518.616 247.484 538.845 247.305 539.048C246.5 539.957 246.422 541.341 247.119 542.343C247.592 543.021 248.328 543.392 249.088 543.392C249.447 543.392 249.812 543.314 250.151 543.138C251.272 542.567 277.636 528.848 278.923 504.581C279.53 493.117 277.029 484.173 275.021 476.985C272.905 469.415 271.376 463.944 273.958 458.77C275.888 454.907 280.511 453.985 285.867 452.921C293.769 451.348 303.604 449.389 306.587 436.111C306.953 434.472 307.143 432.744 307.25 430.964C313.71 435.656 318.173 443.723 320.5 455.062C320.649 455.785 321.081 456.401 321.687 456.763C322.297 457.125 323.018 457.2 323.677 456.963C323.887 456.887 327.752 455.448 330.702 450.521L334.847 460.501C335.156 461.255 335.794 461.806 336.553 461.986C336.73 462.03 336.907 462.047 337.088 462.047C337.669 462.047 338.246 461.827 338.695 461.41C338.979 461.149 344.381 456.05 345.345 447.296L352.296 454.563C352.877 455.173 353.705 455.434 354.496 455.258C355.295 455.094 355.958 454.515 356.276 453.723C356.416 453.368 359.23 446.105 358.871 436.187L367.8 441.343C368.521 441.764 369.403 441.76 370.132 441.35C370.861 440.934 371.343 440.156 371.409 439.285C371.487 438.29 372.971 415.586 357.059 408.79C356.469 405.437 355.114 401 352.04 396.669C349.547 393.157 346.26 390.238 342.535 388.231C341.781 387.825 340.887 387.887 340.166 388.348C341.348 385.721 342.181 382.957 342.584 380.11C342.696 379.318 342.716 378.519 342.77 377.721C343.491 378.099 344.34 378.11 345.052 377.69C345.753 377.277 346.181 376.533 346.268 375.714C346.972 380.186 348.32 384.437 351.797 386.954C353.767 388.376 356.189 389.085 359.119 389.085C361.401 389.085 363.993 388.655 366.91 387.801C373.877 385.756 378.413 380.33 379.686 372.522C381.821 359.451 374.334 341.04 363.671 333.122C358.913 329.59 354.146 327.201 349.535 324.894C340.978 320.615 333.586 316.914 328.951 307.092C321.415 291.139 338.761 277.909 339.498 277.352C340.438 276.653 340.788 275.355 340.339 274.239C339.894 273.12 338.765 272.487 337.636 272.707C337.418 272.752 315.791 277.338 316.314 304.386C316.673 322.76 332.424 331.659 345.081 338.806C347.405 340.117 349.642 341.381 351.682 342.648C361.067 348.469 368.162 362.87 367.178 370.137C366.807 372.867 365.447 373.566 364.306 373.868C362.415 374.371 361.051 374.378 360.363 373.899C359.23 373.107 358.793 370.178 358.323 367.073C357.656 362.577 356.82 356.983 353.396 351.908C347.78 343.57 339.074 343.883 335.391 344.455C334.546 343.239 333.619 342.128 332.552 341.236C329.923 339.04 326.895 338.261 323.776 338.981C320.69 339.697 318.407 341.298 316.994 343.732C316.014 345.422 315.635 347.219 315.532 348.772C312.606 348.29 308.453 348.452 305.128 351.918C304.374 352.707 303.83 353.547 303.372 354.397C300.272 355.481 296.875 356.39 293.958 356.896C294.776 355.444 295.392 353.654 295.571 351.347C296.057 345.102 292.967 341.343 290.672 339.439C292.106 336.692 292.862 333.886 292.132 331.418C288.849 320.295 279.05 318.904 274.359 319.72C273.456 319.875 272.71 320.549 272.429 321.469C272.214 322.171 272.296 322.925 272.631 323.548C264.984 319.045 256.244 321.52 255.774 321.658C254.806 321.944 254.102 322.825 253.998 323.882C253.896 324.935 254.415 325.951 255.308 326.44C256.954 327.338 258.333 328.419 259.5 329.583C255.934 329.142 252.726 329.462 249.916 330.584C243.491 329.586 236.899 328.853 230.295 328.433C225.626 328.14 223.142 328.164 221.147 328.181C219.279 328.206 217.799 328.216 215.155 327.965C205.63 327.059 195.354 324.688 183.743 320.718C171.632 316.577 164.549 315.84 160.778 318.318C158.073 320.105 157.69 322.966 157.435 324.856L157.334 325.572C156.934 328.037 156.348 331.72 205.084 344.644C201.535 347.763 199.296 350.903 198.7 351.791C192.354 352.338 185.786 352.869 178.44 352.183C171.216 351.512 161.598 349.275 152.297 347.109C143.341 345.019 134.878 343.047 128.648 342.465C122.51 341.894 117.303 345.946 116.495 349.942C116.04 352.194 116.839 355.065 120.448 356.383C129.659 359.747 172.964 368.223 191.209 371.72C172.305 378.509 150.053 374.77 137.416 372.65C130.024 371.414 125 372.092 122.088 374.74C119.254 377.321 119.29 380.946 119.308 382.688C119.332 385.164 119.353 387.301 144.203 389.973C149.9 390.586 156.075 391.109 162.044 391.515C161.802 391.732 161.557 391.939 161.317 392.176C158.187 395.278 156.69 398.782 155.984 401.179C155.712 402.104 155.951 403.117 156.609 403.792C157.265 404.473 158.22 404.711 159.099 404.394C169.549 400.673 176.947 401.654 178.601 404.463C179.137 405.372 179.344 406.68 179.03 407.217C178.59 407.964 175.885 407.813 173.709 407.692C170.821 407.534 167.23 407.334 163.558 408.322C157.905 409.847 153.046 414.808 148.704 423.48C148.264 424.358 148.338 425.421 148.895 426.217C149.449 427.019 150.409 427.422 151.313 427.225C154.623 426.578 159.228 427.005 161.272 430.358C163.202 433.522 162.717 437.519 161.715 439.98C160.886 442.018 159.829 442.91 159.321 443.01C153.872 444.094 152.809 442.015 150.212 436.999C148.58 433.849 146.552 429.931 142.784 426.251C132.807 416.509 123.734 415.39 123.351 415.345C122.345 415.228 121.4 415.775 120.933 416.705C120.466 417.638 120.583 418.777 121.226 419.583C123.581 422.523 126.373 427.263 126.296 433.143C126.271 434.847 126.208 439.385 124.26 440.466C122.812 441.271 120.074 440.514 118.512 438.879C116.659 436.934 116.941 434.032 117.644 428.64C118.156 424.733 118.793 419.861 118.252 414.246C117.515 406.639 114.717 399.085 109.932 391.791C109.34 390.892 108.275 390.469 107.278 390.768C106.278 391.057 105.561 391.98 105.483 393.071C104.644 405.058 101.185 410.35 99.5184 410.519C98.3005 410.67 95.9183 408.645 95.3019 406.057C94.7275 403.647 96.1189 401.385 98.432 397.894C99.4736 396.318 100.656 394.541 101.637 392.576C105.671 384.523 105.973 374.23 102.541 361.978C102.235 360.893 101.302 360.143 100.23 360.129C99.2251 360.043 98.2049 360.832 97.8729 361.905C95.1136 370.767 90.8278 374.633 89.1287 374.299C88.6948 374.213 87.9701 373.689 87.2309 372.481C86.067 370.581 85.1869 367.372 85.8395 364.494C86.5157 361.541 88.593 360.115 92.5154 357.654C95.7807 355.602 99.8444 353.051 103.51 348.376C107.371 343.457 109.893 337.353 111.007 330.24C111.174 329.173 110.693 328.109 109.804 327.576C108.915 327.039 107.802 327.149 107.018 327.844C101.942 332.364 97.3817 333.146 96.0443 331.986C95.559 331.562 95.2154 330.602 95.2302 329.7C95.2438 328.836 95.6455 327.986 96.2627 327.218C97.4407 326.364 98.6648 325.545 99.9671 324.77C117.381 314.411 134.342 307.963 149.305 302.276C169.048 294.768 186.525 288.093 199.299 274.78C199.431 274.666 199.552 274.542 199.66 274.398C201.525 272.422 203.285 270.298 204.937 268.006C204.961 267.971 205.003 267.958 205.025 267.915C205.037 267.897 205.036 267.876 205.047 267.854C205.471 267.262 205.909 266.692 206.318 266.079C213.472 255.336 218.654 244.854 221.982 234.573C226.829 234.255 238.441 233.111 242.624 229.291C244.749 227.35 248.873 224.674 256.876 221.624C249.385 228.634 241.577 238.676 244.694 248.183C247.028 255.292 252.638 260.997 260.087 263.834C263.533 265.143 267.142 265.792 270.78 265.792C271.412 265.792 272.045 265.691 272.68 265.652C272.687 265.652 272.697 265.657 272.703 265.657C272.733 265.657 272.762 265.644 272.788 265.644C278.274 265.287 283.77 263.551 288.801 260.331C289.727 259.739 290.173 258.578 289.896 257.472C289.622 256.363 288.69 255.58 287.611 255.54C283.611 255.406 278.646 254.427 277.195 253.174C276.866 251.446 275.846 247.448 273.075 244.428C279.386 241.682 289.987 235.648 293.498 225.044C297.518 227.877 303.814 230.017 311.209 227.189C310.876 231.636 311.551 238.197 316.492 244.667L308.943 257.394C308.408 258.303 308.453 259.469 309.063 260.322C309.673 261.175 310.715 261.545 311.687 261.249C312.388 261.04 329.025 255.889 334.863 241.017C340.203 227.42 340.244 207.544 332.305 201.314C325.449 195.936 320.719 195.274 307.13 196.349C307.876 194.217 308.404 192.011 308.63 189.722C308.935 186.716 308.729 183.983 308.301 181.629C309.916 182.034 311.786 182.234 313.846 182.034C316.566 181.76 318.803 180.846 320.472 179.889C321.798 181.073 323.034 182.365 324.151 183.762C325.589 185.55 326.841 187.49 327.88 189.54C328.403 190.575 329.511 191.119 330.607 190.828C331.687 190.558 332.457 189.548 332.482 188.369C332.807 170.739 325.572 161.989 319.446 157.751C310.175 151.346 298.89 151.86 292.312 155.049C282.04 160.035 282.701 166.501 283.35 172.758C283.549 174.698 283.754 176.704 283.673 178.801C283.464 183.949 282.248 186.498 281.505 187.608C280.4 187.395 279.327 187.281 278.303 187.347C274.535 187.577 268.941 189.527 263.018 191.598C256.951 193.712 250.157 196.149 246.304 196.071C245.343 196.066 244.388 196.036 243.435 196.014C238.294 195.884 233.033 195.77 228.228 197.802C231.266 173.267 227.103 161.741 223.654 152.256C220.499 143.58 218.008 136.727 221.871 122.086C222.063 121.368 221.946 120.598 221.555 119.971C221.164 119.345 220.531 118.931 219.834 118.835C215.044 118.174 205.324 119.44 202.67 128.899C201.468 133.194 199.217 134.882 198.062 134.76C196.895 134.608 195.569 132.389 195.416 127.886C194.57 103.15 157.938 101.88 156.379 101.836C155.35 101.801 154.41 102.471 154.036 103.485C153.662 104.503 153.934 105.656 154.715 106.37C159.306 110.573 163.896 116.664 163.414 119.031C163.325 119.462 162.819 119.823 161.907 120.115C159.255 120.954 157.971 119.253 154.646 112.535C151.534 106.23 147.656 98.39 138.969 94.7873C127.103 89.8619 114.182 90.9323 113.634 90.9801C112.55 91.0759 111.659 91.9113 111.441 93.0381C111.225 94.1651 111.737 95.3051 112.698 95.8359C118.419 99.0208 124.85 104.22 124.931 106.587C124.94 106.844 124.691 107.135 124.195 107.462C123.44 107.967 121.801 107.862 119.817 107.192C111.653 104.434 99.42 93.3688 94.9158 81.9039C94.5359 80.9423 93.6439 80.3114 92.6563 80.3114C92.6506 80.3114 92.6444 80.3114 92.6357 80.3114C91.6424 80.3201 90.7504 80.9641 90.382 81.9431C88.5498 86.8293 86.966 95.3138 89.1163 102.815C80.7087 96.1884 77.2655 89.1223 79.8995 83.5094C83.248 76.3824 96.1366 72.2794 109.983 77.5529C114.897 79.4194 120.532 81.8212 126.496 84.3666C139.017 89.7009 153.785 95.9795 168.771 100.209C168.903 100.252 169.018 100.331 169.16 100.348C169.198 100.348 169.236 100.348 169.274 100.352C171.677 101.027 174.083 101.64 176.488 102.188C176.6 102.219 176.695 102.284 176.812 102.297C176.911 102.31 177.007 102.319 177.103 102.319H177.106C183.846 103.824 190.545 104.782 197.037 104.951C197.149 104.969 197.249 105.021 197.365 105.025C220.42 105.369 233.046 111.465 239.582 116.521C259.214 131.697 271.63 129.909 283.644 128.155L284.361 128.055C294.903 126.493 305.705 135.652 305.816 135.739C306.261 136.126 306.805 136.322 307.357 136.322C307.769 136.322 308.185 136.213 308.56 135.987C309.434 135.465 309.92 134.43 309.78 133.377C309.751 133.15 308.976 127.725 304.621 122.982C299.572 117.469 292.918 116.773 287.047 116.155L285.427 115.981C267.774 114.001 251.804 108.811 251.25 104.873C251.093 103.742 252.58 101.527 254.539 100.565C257.176 99.2863 259.944 101.044 265.019 104.551C270.261 108.175 276.788 112.683 286.317 114.393C290.372 115.115 292.879 114.946 295.096 114.793C297.446 114.628 299.483 114.493 303.298 115.555C309.961 117.417 316.17 121.302 321.753 127.115C322.585 127.981 323.875 128.107 324.835 127.42C325.799 126.733 326.174 125.423 325.729 124.292C321.724 114.097 316.24 107.449 309.43 104.521C306.517 103.272 304.218 103.054 301.55 102.798C298.669 102.528 295.079 102.18 289.081 100.374C281.15 97.9809 278.796 95.9795 277.707 93.7039C277.544 93.3558 276.126 90.2405 277.257 88.0649C278.121 86.3942 280.615 85.3107 283.94 85.1672C288.237 84.9974 290.975 87.5558 294.92 91.4631C298.059 94.561 301.968 98.4247 307.913 101.784C313.809 105.112 317.855 105.778 321.423 106.365C324.773 106.914 327.674 107.392 331.798 110.177C338.143 114.458 343.062 121.276 346.412 130.44C346.824 131.558 347.879 132.237 349.032 132.067C350.157 131.902 351.023 130.94 351.13 129.748C352.407 115.015 348.159 107.044 344.364 102.95C340.722 99.0121 336.153 97.0193 330.863 94.7264C327.863 93.4167 325.296 92.5857 323.034 91.8547C318.902 90.5189 315.919 89.553 312.746 86.4986C312.087 85.8677 310.311 84.1664 309.574 83.0526C313.698 81.608 331.485 83.6008 346.647 93.9258C352.077 97.6285 354.78 100.844 357.388 103.951C360.177 107.275 362.81 110.416 368.113 113.41C378.512 119.288 391.771 119.732 407.522 114.741C408.692 114.367 409.426 113.144 409.24 111.874C409.055 110.612 408.025 109.685 406.822 109.685C406.805 109.685 406.797 109.685 406.785 109.685C394.54 109.846 384.561 106.953 377.223 100.992C373.391 97.8895 371.566 95.0745 369.633 92.094C367.239 88.4 364.759 84.5797 358.678 80.642C353.878 77.5311 349.317 75.9647 345.654 74.6942C340.899 73.0582 338.398 72.0923 337.78 69.7733C337.199 67.5629 338.337 64.9175 339.639 63.3946C343.446 58.9391 352.58 60.858 356.877 62.494Z" fill="#FFB3C7"/>
</svg>
