<svg width="24" height="25" viewBox="0 0 24 25" fill="none" xmlns="http://www.w3.org/2000/svg">
<g id="Group">
<path id="Vector" d="M0 18.2506V6.80055C0 3.34501 2.82353 0.521484 6.27907 0.521484H17.7209C21.1765 0.521484 24 3.34501 24 6.80055V18.2424C24 21.698 21.1765 24.5215 17.7209 24.5215H13.8714L11.8605 24.029L10.1286 24.5215H6.27907C2.82353 24.5215 0 21.698 0 18.2424V18.2506Z" fill="black"/>
<path id="Vector_2" d="M16.6703 16.3868L17.2038 12.9148H13.8714V10.6659C13.8714 9.71374 14.3392 8.79445 15.8249 8.79445H17.3351V5.83959C17.3351 5.83959 15.9644 5.60156 14.6511 5.60156C11.9097 5.60156 10.1203 7.25957 10.1203 10.2719V12.9148H7.0752V16.3868H10.1203V24.5209H13.8714V16.3868H16.6703Z" fill="white"/>
</g>
</svg>
