<svg width="475" height="401" viewBox="0 0 475 401" fill="none" xmlns="http://www.w3.org/2000/svg">
<path fill-rule="evenodd" clip-rule="evenodd" d="M255.169 134.245C250.327 128.879 243.663 127.135 236.961 130.042C231.049 132.609 228.716 137.783 228.214 144.148C227.516 152.988 234.254 161.28 242.715 160.714C247.991 160.725 252.981 159.35 256.492 155.243C262.364 148.378 262.145 142.965 256.463 135.8C256.043 135.271 255.618 134.745 255.169 134.245ZM152.103 185.589C149.528 185.467 146.949 185.749 144.615 187.391C135.269 193.981 135.703 206.93 141.786 213.101C146.446 217.83 152.401 221.237 157.893 225.059C158.497 225.481 160.053 225.039 160.836 224.498C162.025 223.67 161.492 222.438 160.623 221.632C157.334 218.589 154.033 215.557 150.641 212.636C147.769 210.16 146.296 206.985 145.6 203.303C144.831 199.245 145.842 196.446 148.881 194.443C151.793 192.53 155.844 192.894 158.736 195.463C159.732 196.344 160.481 197.51 161.407 198.477C162.843 199.977 163.907 200.053 165.485 198.884C167.395 197.463 167.898 195.928 166.811 194.266C163.334 188.938 159.272 184.566 152.103 185.589ZM320.109 209.636C319.257 209.631 318.377 209.945 317.551 210.241C313.958 211.532 310.72 213.444 307.779 215.935C299.775 222.714 290.815 227.036 280.433 228.972C269.954 230.925 259.778 230.73 249.427 228.562C244.159 227.463 239.218 225.585 234.237 223.676C232.026 222.827 230.859 223.437 229.84 225.397C228.861 227.277 229.065 228.995 230.893 230.137C233.53 231.788 236.255 233.399 239.133 234.526C247.088 237.648 255.464 238.573 265.631 239.041C268.112 238.619 272.233 237.68 276.405 237.276C281.761 236.756 286.946 235.634 291.859 233.477C295.308 231.966 298.558 229.986 301.941 228.309C304.969 226.806 307.572 224.83 309.919 222.318C312.042 220.042 314.6 218.2 316.981 216.176C318.514 214.874 320.114 213.651 321.57 212.261C321.903 211.947 321.996 210.939 321.752 210.537C321.454 210.058 320.682 209.639 320.109 209.636ZM336.04 109.396C330.889 105.085 325.799 100.681 320.492 96.58C316.252 93.3041 311.827 90.2435 307.297 87.3949C302.023 84.0813 296.948 80.288 290.84 78.6021C283.143 76.4773 275.525 74.0996 267.623 72.7161C262.988 71.9051 258.444 71.3731 253.778 71.5998C251.559 71.7073 249.339 71.7509 247.12 71.7626C236.164 71.8236 225.486 73.8496 214.945 76.6721C202.286 80.0613 191.487 87.3483 180.494 94.2111C179.557 94.7924 178.658 95.5191 177.917 96.3417C172.675 102.181 166.944 107.562 162.621 114.264C159.704 118.787 156.76 123.409 151.989 126.255C150.272 127.278 148.493 128.188 146.784 129.228C144.823 130.423 144.539 132.606 146.029 134.463C147.513 136.312 149.642 136.768 152.029 135.553C156.397 133.338 159.741 129.705 163.198 126.365C166.067 123.589 168.167 119.979 170.617 116.744C175.808 109.884 181.294 103.207 188.492 98.5479C195.744 93.8593 202.897 88.9994 211.204 86.0956C221.076 82.6453 230.953 79.7997 241.423 79.1777C249.657 78.6864 257.88 78.5555 265.977 80.1077C272.937 81.4419 279.95 82.9476 286.623 85.3137C292.015 87.2263 296.937 90.5282 302.06 93.2256C302.455 93.432 302.792 93.743 303.153 94.0134C311.361 100.222 319.788 106.158 327.707 112.735C332.801 116.971 338.435 119.979 344.231 122.851C344.978 123.223 345.957 123.496 346.718 123.328C347.41 123.173 347.961 122.348 348.841 121.581C347.646 120.081 346.828 118.732 345.716 117.726C342.559 114.872 339.304 112.125 336.04 109.396ZM275.483 148.671C275.128 154.269 272.67 159.237 268.412 162.856C265.364 165.449 261.935 167.602 258.538 169.724C251.658 174.02 244.154 173.474 236.592 172.451C226.562 171.093 220.528 164.463 215.958 156.028C215.027 154.316 214.763 152.133 214.536 150.124C213.48 140.681 215.073 132.021 222.021 125.06C222.18 124.9 222.415 124.784 222.498 124.592C224.544 119.944 228.634 119.22 232.914 118.936C236.456 118.7 240.004 118.572 243.549 118.398C243.569 118.258 243.586 118.119 243.609 117.982C248.658 118.555 253.724 119.008 258.748 119.755C261.186 120.121 263.269 120.988 263.673 124.31C263.84 125.702 265.889 126.92 267.189 128.094C273.269 133.565 275.991 140.567 275.483 148.671ZM318.877 138.079C311.412 133.617 303.874 129.266 296.208 125.194C289.523 121.642 282.53 118.924 275.159 116.968C267.192 114.854 259.245 112.817 251.11 111.573C249.793 111.372 248.462 110.962 247.162 111.047C241.415 111.416 235.673 111.875 229.94 112.404C219.918 113.323 210.174 115.372 201.168 120.235C199.598 121.084 197.941 121.796 196.479 122.81C189.131 127.917 181.726 132.952 174.551 138.309C169.169 142.323 164.103 146.773 158.906 151.046C156.46 153.057 153.914 154.65 150.684 155.266C146.517 156.06 142.617 157.801 139.038 160.205C137.656 161.135 136.623 162.298 136.546 164.021C136.436 166.568 136.617 169.216 138.564 171.003C141.689 173.875 144.862 176.767 149.648 176.195C153.706 175.712 157.788 176.343 161.344 178.282C166.235 180.947 171.142 183.531 176.154 185.95C180.355 187.976 184.289 190.589 188.311 192.993C199.667 199.794 211.772 204.93 224.152 209.299C233.002 212.424 242.263 213.854 249.359 213.892C261.938 213.401 271.972 211.901 281.454 207.538C286.515 205.209 291.729 203.227 296.744 200.812C304.552 197.047 309.57 189.667 316.308 184.485C317.072 183.895 317.41 182.534 317.662 181.459C318.255 178.947 316.243 176.875 313.839 177.48C311.429 178.084 309.485 179.215 307.992 181.514C303.973 187.702 298.615 192.542 291.962 195.507C285.048 198.591 277.997 201.431 270.833 203.846C266.871 205.18 262.566 205.951 258.39 206.058C245.38 206.392 232.707 204.189 220.548 199.326C212.286 196.024 204.143 192.522 196.428 187.897C188.237 182.985 179.486 179.055 171.227 174.253C164.1 170.108 156.84 167.198 148.484 167.989C146.966 168.131 145.053 168.213 144.567 166.37C144.434 165.873 146.338 164.652 147.445 164.016C148.393 163.475 149.585 163.402 150.587 162.937C156.045 160.403 161.795 158.327 166.408 154.287C174.874 146.872 183.889 140.282 193.153 133.963C198.531 130.292 204.157 127.193 209.87 124.197C210.373 123.929 211.074 124.054 211.684 123.999C211.65 124.604 211.846 125.394 211.545 125.79C208.567 129.737 207.628 134.437 206.796 139.152C204.741 150.767 208.224 160.772 215.799 169.317C224.626 179.279 236.499 180.872 248.709 181.287C249.143 181.305 249.595 181.177 250.02 181.055C262.33 177.564 273.317 171.986 279.604 159.839C282.766 153.738 284.267 147.308 282.121 140.198C280.801 135.847 279.976 131.388 277.407 127.545C277.205 127.246 277.197 126.42 277.362 126.33C277.892 126.037 278.625 125.697 279.138 125.856C281.258 126.51 283.424 127.147 285.4 128.15C289.978 130.469 294.451 133.016 298.981 135.44C301.532 136.803 304.081 138.158 306.678 139.416C312.403 142.18 311.892 141.503 311.517 148.148C311.48 148.819 311.114 149.47 311.08 150.142C310.751 156.316 307.447 161.402 304.725 166.492C300.241 174.881 294.754 182.639 286.433 187.752C282.78 189.999 278.871 191.516 274.881 192.897C273.624 193.333 272.278 193.667 271.194 194.391C270.632 194.763 270.203 195.975 270.357 196.658C270.516 197.373 271.353 198.071 272.062 198.469C272.559 198.748 273.351 198.626 273.975 198.489C277.015 197.832 280.078 197.254 283.052 196.361C285.377 195.667 287.906 195.004 289.787 193.562C298.334 187.025 306.914 180.436 310.978 169.687C311.214 169.059 311.651 168.509 311.994 167.922C315.477 162.03 318.423 155.947 318.63 148.854C318.661 147.75 319.308 147.04 320.33 147.726C326.293 151.738 331.984 156.043 335.799 162.463C337.062 164.591 338.583 166.591 340.181 168.48C341.45 169.983 343.431 169.73 344.841 168.158C346.204 166.637 346.133 165.579 344.725 163.283C338.194 152.633 329.413 144.378 318.877 138.079ZM456.42 326.655C456.281 326.704 455.968 326.53 455.863 326.367C453.38 322.478 449.594 319.963 446.364 316.862C445.569 316.097 444.703 315.284 444.232 314.31C442.313 310.33 439.242 307.374 436.22 304.348C433.688 301.814 430.969 299.523 428.959 296.39C426.941 293.236 423.728 293.416 421.114 296.387C419.491 298.239 418.077 300.294 416.386 302.073C415.111 303.413 414.232 303.215 413.125 301.727C412.452 300.823 411.74 299.919 411.226 298.919C407.624 291.864 403.205 285.376 398.624 278.958C395.502 274.587 392.919 269.799 390.277 265.093C389.297 263.347 388.659 261.341 388.199 259.373C387.975 258.408 388.179 256.978 388.764 256.234C394.56 248.862 396.254 239.846 398.482 231.065C398.928 229.309 399.492 228.35 401.312 227.896C404.542 227.091 407.689 225.934 410.874 224.929C412.724 224.344 412.815 224.498 413.281 226.731C413.78 229.149 413.993 231.797 415.143 233.878C418.727 240.372 419.25 247.758 421.39 254.655C422.389 257.876 422.988 261.228 422.792 264.707C422.656 267.148 423.453 267.773 425.741 268.477C427.501 269.02 428.792 268.515 429.76 267.003C431.466 264.332 433.075 261.602 434.849 258.984C436.052 257.21 437.642 257.388 438.235 259.402C439.83 264.841 441.286 270.323 442.753 275.799C443.222 277.549 443.46 279.368 443.982 281.098C448.22 295.219 452.509 309.328 456.772 323.44C457.036 324.3 457.254 325.172 457.481 325.998C457.044 326.28 456.755 326.533 456.42 326.655ZM380.32 254.583C378.677 256.431 377.175 258.423 375.682 260.408C368.947 269.363 359.6 273.755 349.227 276.348C346.857 276.941 344.376 277.127 342.057 277.86C336.321 279.676 330.65 279.188 324.954 277.819C321.088 276.889 316.97 276.877 313.49 274.534C312.934 274.162 312.417 273.726 311.844 273.38C310.391 272.5 310.212 271.433 311.199 270.032C313.799 266.346 316.382 262.646 318.919 258.917C319.555 257.989 320.393 256.96 320.455 255.934C320.532 254.699 320.154 253.228 319.473 252.211C318.681 251.025 316.442 251.205 315.224 252.307C314.398 253.057 313.632 253.906 312.962 254.804C312.289 255.705 311.804 256.748 311.171 257.681C304.26 267.872 296.165 276.837 285.632 283.211C283.742 284.356 281.678 285.269 279.612 286.03C273.751 288.184 267.853 290.207 261.967 292.271C260.704 292.713 259.449 293.312 258.149 293.486C243.595 295.413 229.468 295.248 216.075 287.423C206.033 281.557 197.544 274.194 190.462 264.954C188.024 261.777 186.423 258.021 183.014 255.475C181.49 254.336 181.138 251.516 180.324 249.429C179.461 247.214 178.189 246.296 176.356 246.706C174.207 247.188 173.217 248.862 173.719 251.351C173.989 252.682 174.539 253.964 174.727 255.304C174.789 255.757 174.159 256.341 173.79 256.824C173.679 256.969 173.387 257.007 173.171 257.024C167.194 257.536 161.217 258.408 155.242 258.408C151.552 258.405 147.791 257.338 144.195 256.283C136.921 254.153 129.797 251.571 123.249 247.557C122.116 246.863 120.828 246.435 119.61 245.886C107.139 240.267 97.8094 231.169 91.3552 218.952C88.4318 213.421 87.6683 207.352 87.6626 201.169C87.6598 198.44 88.0969 195.705 88.0032 192.984C87.9379 191.243 87.6002 189.33 86.7885 187.839C85.2813 185.066 81.918 185.403 80.513 188.295C79.8347 189.693 79.2642 191.147 78.6483 192.574C77.0844 191.804 75.4807 191.109 73.9708 190.246C68.7484 187.263 65.1182 182.587 62.209 177.471C57.716 169.564 54.7869 161.141 53.5324 151.88C51.9855 140.497 55.5107 130.324 58.6526 119.921C65.8477 107.123 74.1382 95.4202 87.9464 89.2522C89.1641 88.7086 90.4157 88.2116 91.6958 87.8599C93.9636 87.232 94.6051 87.828 95.36 90.3627C96.0611 92.7171 96.8189 95.1034 97.94 97.2631C98.6496 98.6263 100.063 99.6844 101.874 98.9258C103.571 98.2137 104.21 96.7922 103.829 95.054C101.459 84.1916 106.764 75.4628 111.879 67.0217C114.981 61.9001 118.901 57.1273 123.782 53.3108C126.277 51.3633 128.704 49.5728 131.579 48.2357C140.826 43.928 150.406 41.0969 160.618 42.1113C165.585 42.6055 170.404 43.6925 174.971 46.669C179.926 49.9012 185.79 51.7732 191.935 51.622C192.494 51.6104 193.445 51.1831 193.519 50.8082C193.675 49.9914 193.681 48.7909 193.204 48.2765C192.324 47.3172 191.024 46.7766 189.951 45.9888C188.694 45.0674 187.434 44.1314 186.278 43.0792C185.333 42.2246 185.22 41.062 186.043 40.0592C188.748 36.7484 191.455 33.4376 194.285 30.2403C195.773 28.5573 197.668 27.2464 199.113 25.5315C203.325 20.5349 209.078 17.9943 214.616 15.1254C217.182 13.7999 219.875 12.7274 222.535 11.5996C223.343 11.2595 224.221 10.9863 225.086 10.9078C232.605 10.2102 240.129 9.56204 247.65 8.90222C247.656 9.00977 247.665 9.12018 247.673 9.23065C249.231 9.23065 250.807 9.39056 252.342 9.20453C260.425 8.23367 267.68 10.8904 274.779 14.361C278.976 16.4131 283.135 18.5901 287.457 20.34C297.227 24.2989 304.89 31.1153 312.037 38.7076C314.866 44.6489 320.974 48.1921 323.103 54.6596C323.801 56.7727 325.351 57.9615 327.528 58.3335C330.068 58.7666 332.035 56.6245 331.093 54.177C330.111 51.6424 328.811 49.2386 327.693 46.7563C326.625 44.3786 327.082 43.5153 329.603 43.1229C331.57 42.8148 333.539 42.463 335.518 42.2886C339.988 41.902 344.314 42.0735 348.486 44.3436C352.397 46.4684 356.694 47.8579 360.656 49.8984C363.617 51.4244 366.234 53.6247 369.151 55.2612C377.612 60.0108 384.58 66.6875 391.608 73.2916C396.666 78.044 399.901 84.0173 401.343 90.7928C402.717 97.2516 403.333 103.856 401.984 110.474C401.533 112.704 401.181 114.959 400.914 117.221C400.208 123.223 398.462 128.775 394.605 133.492C394.193 133.998 393.691 134.707 393.745 135.268C393.824 136.079 394.182 137.126 394.775 137.547C395.371 137.969 396.507 138.015 397.21 137.727C397.96 137.422 398.613 136.617 399.084 135.882C402.362 130.757 406.196 125.932 407.559 119.749C407.914 118.122 408.632 117.587 410.36 118.284C416.976 120.958 422.457 125.04 425.979 131.46C428.806 136.614 431.46 141.869 434.023 147.168C434.792 148.761 435.311 150.627 435.394 152.395C435.768 160.807 436.526 169.259 436.078 177.637C435.357 191.074 428.954 201.785 419.079 210.482C414.598 214.427 409.571 217.191 403.914 218.784C401.181 219.551 400.758 219.263 399.515 216.447C399.058 215.418 398.763 214.124 397.98 213.485C397.029 212.706 395.649 212.148 394.437 212.122C392.771 212.087 392.434 213.767 392.286 215.078C391.789 219.58 391.494 224.106 391.009 228.611C389.97 238.346 386.885 247.208 380.32 254.583ZM326.725 321.553C329.549 319.76 332.24 317.743 335.083 315.987C336.42 315.161 337.771 316.077 337.851 317.679C337.908 318.809 337.964 319.969 337.805 321.085C336.809 328.056 335.722 335.017 334.72 341.987C333.426 350.958 332.208 359.942 330.9 368.912C330.335 372.79 331.292 377.016 328.476 380.397C325.646 377.728 324.397 374.086 322.7 370.703C320.781 366.872 318.539 363.212 316.646 359.37C313.05 352.074 309.587 344.708 306.099 337.354C302.9 330.625 301.666 330.544 296.236 335.968C294.78 337.424 293.94 340.069 291.164 339.816C290.608 337.889 289.904 335.991 289.521 334.029C287.999 326.251 286.668 318.431 285.087 310.671C284.145 306.034 282.919 301.453 281.713 296.878C280.821 293.506 280.671 293.309 283.305 292.454C290.281 290.19 295.887 285.929 300.885 280.589C302.985 278.339 303.065 278.653 305.926 280.22C308.242 281.487 310.714 282.833 313.249 283.205C316.345 283.661 317.358 285.452 317.901 288.071C318.922 292.975 319.774 297.899 319.172 305.261C319.328 308.177 319.436 313.403 319.936 318.588C320.313 322.536 323.279 323.742 326.725 321.553ZM201.384 293.425C197.756 297.413 193.899 301.18 190.167 305.069C188.927 306.363 187.786 307.761 186.557 309.072C184.993 310.74 183.477 312.394 184.053 315.025C184.141 315.42 183.923 315.906 183.778 316.324C181.956 321.582 181.908 321.652 185.762 324.428C188.115 326.12 190.669 327.515 193.082 329.128C195.676 330.858 198.293 332.567 200.737 334.506C202.828 336.159 202.735 336.875 200.192 338.412C196.195 340.833 192.026 342.961 188.041 345.4C178.882 350.992 169.794 356.698 160.669 362.346C158.776 363.517 156.846 364.634 154.927 365.758C153.386 366.66 151.805 367.488 150.292 368.438C147.096 370.447 143.96 372.56 140.744 374.537C139.186 375.493 137.943 377.4 135.681 376.554C136.419 374.731 137.032 372.842 137.914 371.098C140.565 365.854 143.298 360.654 146.052 355.466C146.9 353.867 147.808 352.292 148.839 350.812C153.471 344.165 158.154 337.555 162.817 330.933C163.078 330.564 163.337 330.192 163.609 329.832C164.603 328.512 165.375 327.102 164.384 325.472C163.459 323.951 161.915 323.696 160.294 323.759C160.073 323.768 159.851 323.797 158.418 323.925C157.862 324.033 156.074 324.219 154.388 324.754C147.911 326.806 141.184 326.265 134.568 326.829C133.296 326.939 132.561 325.655 133.231 324.55C134.985 321.646 136.847 318.809 138.618 315.917C144.161 306.869 149.608 297.759 155.248 288.774C158.367 283.81 161.787 279.046 165.105 274.212C165.996 272.915 167.134 271.782 167.94 270.433C168.826 268.948 169.076 266.727 170.299 265.887C171.605 264.989 173.73 265.387 175.479 265.108C176.347 264.971 177.176 264.37 178.019 264.376C178.774 264.378 179.901 264.71 180.219 265.277C185.342 274.369 193.289 280.659 200.864 287.324C203.615 289.745 203.859 290.704 201.384 293.425ZM107.499 250.13C106.449 251.853 105.271 253.574 103.832 254.958C99.467 259.152 94.9399 263.169 90.5066 267.291C89.0278 268.666 87.5406 270.055 86.235 271.596C83.9246 274.311 84.1375 276.584 87.1659 278.331C91.8178 281.019 96.1462 284.144 100.284 287.571C100.778 287.978 101.062 288.652 101.471 289.239C101.071 289.832 100.812 290.568 100.304 290.902C98.2607 292.257 96.2626 293.826 94.0204 294.684C90.6116 295.986 87.7676 298.087 84.8839 300.215C76.2385 306.592 67.6897 313.124 58.8655 319.237C50.9779 324.704 42.7327 329.631 34.726 334.921C27.8261 339.479 21.0484 344.226 14.1769 348.83C13.8363 349.059 13.0785 348.783 12.6045 348.554C12.4739 348.49 12.5676 347.682 12.7379 347.298C13.0103 346.682 13.3453 346.054 13.7994 345.574C22.5271 336.36 28.7315 325.254 35.6484 314.705C41.2426 306.174 47.6089 298.323 54.1 290.545C55.1105 289.335 56.2855 288.248 57.1881 286.961C58.9592 284.435 58.1503 281.519 55.2467 280.298C53.6374 279.621 51.8464 279.368 50.1208 278.999C46.4282 278.211 42.7129 277.531 39.0317 276.691C37.0931 276.246 36.6277 275.171 37.8254 273.93C44.7196 266.8 50.3961 258.635 56.6857 251.005C63.543 242.686 71.3823 235.224 78.7987 227.391C79.2613 226.902 79.7439 226.426 80.2548 225.987C83.3371 223.324 83.8707 223.405 86.5131 226.934C87.1886 227.835 87.9266 228.71 88.4715 229.693C92.289 236.616 98.221 241.331 104.389 245.81C105.294 246.467 106.358 246.985 107.057 247.825C107.505 248.365 107.809 249.624 107.499 250.13ZM474.587 348.446C474.349 347.376 473.58 346.443 473.089 345.423C471.431 341.958 469.762 338.505 468.162 335.017C465.499 329.224 463.947 323.05 462.179 316.94C459.593 307.996 456.584 299.175 454.03 290.222C451.793 282.377 449.934 274.415 447.908 266.509C446.503 261.007 445.325 255.432 443.602 250.037C442.731 247.299 440.962 244.834 439.433 242.354C438.746 241.238 436.719 241.328 435.916 242.482C435.028 243.755 434.38 245.212 433.657 246.607C432.831 248.194 432.144 249.874 431.204 251.385C430.251 252.914 428.86 252.769 428.324 251.057C426.51 245.203 424.651 239.352 423.124 233.413C422.207 229.826 421.029 226.481 418.534 223.748C417.547 222.664 417.626 221.847 418.855 221.1C424.114 217.915 428.017 213.2 432.053 208.663C437.423 202.62 440.531 195.298 442.234 187.473C443.582 181.273 444.499 174.948 443.846 168.483C443.168 161.696 442.864 154.868 442.319 148.069C442.231 146.968 441.845 145.843 441.385 144.828C437.988 137.402 434.417 130.048 429.604 123.464C425 117.177 419.221 112.169 411.93 109.541C409.673 108.727 409.299 107.643 409.196 105.716C408.901 100.269 408.873 94.7808 408.155 89.3917C406.977 80.5844 403.472 72.8556 396.839 66.8067C393.708 63.9523 390.819 60.8102 387.665 57.9848C383.138 53.9358 378.424 50.1193 372.759 47.7881C372.146 47.5381 371.368 47.4189 370.968 46.9596C367.403 42.8757 362.581 41.1811 357.787 39.3179C355.315 38.3558 353.055 36.8444 350.663 35.6555C349.476 35.0655 348.253 34.3969 346.976 34.1731C339.733 32.9058 332.407 32.0164 325.308 34.6324C321.735 35.9491 319.714 34.9143 317.307 32.1326C310.632 24.4008 302.744 17.9915 293.707 13.4512C285.743 9.45447 277.435 6.14658 269.15 2.87363C263.707 0.722687 257.823 0.434845 252.067 0.562744C245.195 0.713898 238.347 1.67603 231.472 2.02191C226.948 2.25156 222.685 3.40274 218.53 5.05084C214.389 6.69601 210.33 8.5563 206.24 10.3381C205.227 10.7828 204.108 11.1258 203.263 11.8059C198.389 15.7474 193.383 19.5552 188.816 23.8455C185.069 27.3626 181.794 31.4232 178.47 35.3822C177.463 36.5856 176.404 37.0943 175.036 36.8647C173.518 36.606 171.951 36.3065 170.56 35.6729C164.455 32.894 158.089 32.8534 151.623 33.5103C143.738 34.3126 136.699 37.7018 129.451 40.6522C122.616 43.4281 117.036 47.605 112.375 53.2556C106.463 60.4177 101.596 68.26 98.2465 77.0005C97.4121 79.1863 96.2512 80.1339 94.0317 80.6716C90.166 81.6105 86.3116 82.8139 82.6559 84.3951C76.8573 86.9036 72.2706 90.9701 67.9905 95.833C62.5836 101.978 58.2695 108.838 53.7027 115.54C51.9543 118.101 50.643 121.159 49.8653 124.188C48.1737 130.774 46.8511 137.469 45.6051 144.163C45.2475 146.093 45.6987 148.177 45.7243 150.191C45.8265 158.76 47.5862 166.867 52.0906 174.212C53.6488 182.278 59.3423 187.682 64.2724 193.466C66.7162 196.335 69.8894 198.899 73.6926 199.649C77.7712 200.451 79.0768 202.995 79.355 206.733C79.4714 208.32 79.6899 209.907 80.0106 211.465C80.6095 214.363 80.7855 216.886 77.1071 217.827C76.1421 218.075 75.302 219.118 74.564 219.946C71.5668 223.292 68.5809 226.649 65.6859 230.088C59.8816 236.983 54.2051 243.994 48.3582 250.848C41.342 259.074 34.5273 267.486 26.5063 274.773C23.0181 277.938 24.0825 281.516 28.5641 282.769C29.197 282.943 29.9094 282.821 30.5509 282.978C34.6635 283.973 38.7904 284.917 42.8577 286.068C45.1113 286.708 45.4915 288.318 44.0923 290.204C43.8226 290.565 43.4934 290.879 43.2125 291.233C36.1508 300.064 29.6767 309.287 24.4656 319.428C22.7173 322.832 20.424 325.971 18.1761 329.073C13.6745 335.273 8.98568 341.333 4.47566 347.528C3.1587 349.336 2.04043 351.333 1.11232 353.373C0.700766 354.286 0.587242 355.733 1.01298 356.582C3.09344 360.721 7.4218 362.006 11.1144 359.564C16.5071 355.998 21.7692 352.219 27.1251 348.594C37.0761 341.868 45.8606 333.363 56.8475 328.207C58.0311 327.649 58.9762 326.573 60.0632 325.783C61.6896 324.6 63.3216 323.425 64.9877 322.297C72.5886 317.144 80.2065 312.016 87.8074 306.869C89.8424 305.491 91.7384 303.857 93.887 302.706C99.5777 299.651 105.447 296.942 111.098 293.817C115.98 291.117 115.926 287.644 110.86 285.019C105.564 282.275 101.635 277.956 97.3865 273.976C96.2143 272.878 96.3392 271.482 97.3071 270.314C98.1699 269.282 99.2031 268.395 100.196 267.491C104.687 263.402 109.31 259.466 113.621 255.196C115.452 253.385 116.993 253.519 118.96 254.44C122.599 256.155 126.206 257.952 129.933 259.443C133.841 261.009 137.801 262.591 141.876 263.567C147.258 264.864 152.775 265.561 158.231 266.558C159.357 266.765 159.57 267.646 159.145 268.59C158.585 269.826 157.95 271.029 157.251 272.186C152.912 279.345 148.541 286.484 144.195 293.637C140.438 299.823 137.244 306.479 132.791 312.08C128.301 317.722 125.355 324.541 119.911 329.413C119.284 329.974 118.986 330.956 118.625 331.788C117.351 334.721 119.011 337.45 122.185 337.36C124.169 337.302 126.226 337.032 128.099 336.389C134.505 334.197 141.13 333.86 147.78 333.593C150.383 333.488 150.967 334.302 149.812 336.819C148.964 338.665 148.138 340.647 146.818 342.11C142.677 346.708 140.006 352.199 137.117 357.596C134.551 362.387 131.67 366.997 128.94 371.691C124.512 379.298 120.01 386.861 115.705 394.541C113.843 397.863 115.347 400.148 119.128 400.52C121.061 400.709 121.915 399.313 122.976 398.241C131.758 389.396 142.069 382.646 152.449 376.077C161.898 370.101 170.779 363.151 180.894 358.288C181.093 358.195 181.269 358.044 181.456 357.922C189.313 352.786 197.229 347.749 205.633 343.586C207.832 342.499 210.14 341.636 212.303 340.488C214.647 339.238 215.541 336.395 214.238 334.084C213.486 332.756 212.442 331.401 211.198 330.596C206.138 327.32 200.935 324.268 195.809 321.088C194.481 320.263 193.221 319.309 191.969 318.362C190.661 317.368 190.473 316.126 191.597 314.9C197.078 308.924 202.511 302.901 208.128 297.07C211.085 294.001 211.619 294.236 215.76 296.093C220.014 298.003 224.249 300.363 228.73 301.244C241.355 303.732 253.946 303.32 266.196 298.712C268.472 297.858 270.814 297.195 273.127 296.445C275.29 298.428 274.762 301.398 275.659 303.851C277.211 308.107 278.888 312.409 279.675 316.85C281.338 326.219 284.457 335.343 284.423 345.025C284.417 346.592 284.872 348.182 285.249 349.725C285.513 350.818 285.859 351.94 286.416 352.893C288.05 355.693 291.048 355.948 293.02 353.417C294.542 351.469 295.816 349.327 297.263 347.318C299.233 344.592 300.377 344.609 302.256 347.353C302.764 348.092 303.176 348.903 303.613 349.687C306.366 354.623 309.252 359.489 311.829 364.517C314.486 369.709 317.551 374.656 319.252 380.4C320.455 384.478 322.819 388.233 324.922 391.98C326.251 394.355 328.521 395.192 331.232 394.625C334.944 393.849 335.932 393.14 336.406 389.486C337.224 383.164 338.086 376.819 338.353 370.462C338.892 357.442 340.859 344.638 343.173 331.872C344.348 325.373 345.67 318.902 346.965 312.429C347.467 309.926 347.688 307.479 346.604 305.061C345.693 303.029 344.444 302.291 342.332 302.843C341.277 303.119 340.252 303.587 339.287 304.11C335.963 305.909 332.679 307.787 329.364 309.601C327.815 310.453 326.713 309.903 326.597 308.18C326.379 304.994 326.254 301.808 326.098 298.622C326.066 298.622 326.032 298.625 326.007 298.625C325.862 295.896 325.777 293.158 325.555 290.434C325.326 287.638 326.566 286.696 329.106 286.722C336.256 286.795 343.286 285.847 350.186 284.112C360.858 281.429 371.039 277.77 378.472 268.663C381.367 265.111 382.193 265.317 384.83 269.384C389.127 276.023 393.356 282.708 397.443 289.481C401.53 296.248 405.674 302.985 408.629 310.409C410.496 315.103 412.986 315.658 416.763 312.505C418.14 311.357 419.329 309.982 420.632 308.741C421.605 307.81 422.613 306.912 423.626 306.029C424.424 305.34 425.281 305.424 426.005 306.113C431.028 310.909 436.705 315.01 440.522 321.077C441.825 323.137 443.73 324.809 445.418 326.599C446.491 327.736 447.754 328.689 448.793 329.849C451.944 333.372 455.094 336.898 458.111 340.537C460.405 343.298 462.471 346.254 464.688 349.083C465.786 350.487 466.876 351.943 468.193 353.114C469.873 354.608 471.573 353.44 473.129 352.609C474.786 351.722 474.942 350.042 474.587 348.446Z" fill="#C0FFD5"/>
</svg>
