<svg width="25" height="25" viewBox="0 0 25 25" fill="none" xmlns="http://www.w3.org/2000/svg">
<g id="flame">
<path id="Vector" fill-rule="evenodd" clip-rule="evenodd" d="M9.75961 3.59899C10.1636 2.58817 11.4948 1.96319 12.5272 2.74963C14.2471 4.05978 16.4044 5.98593 18.1398 8.18907C19.8595 10.3724 21.25 12.9352 21.25 15.5004C21.25 17.7937 20.5398 19.4979 19.5117 20.7184C18.4933 21.9274 17.1994 22.6197 16.0816 22.9675C15.5076 23.1462 14.9825 22.8829 14.7275 22.455C14.4871 22.0516 14.4859 21.5152 14.7863 21.0835C15.6436 19.8515 16.55 18.0797 16.55 16.5004C16.55 15.7169 16.2123 14.7894 15.6668 13.8376C15.2566 13.1219 14.7539 12.4355 14.2643 11.8469C14.1627 13.2498 13.8578 15.0125 12.912 16.47C12.4822 17.1323 11.5267 17.2064 11.018 16.5631C10.8592 16.3622 10.7023 16.1416 10.5588 15.9397C10.5501 15.9276 10.5415 15.9155 10.533 15.9035C10.4545 15.7931 10.3799 15.6886 10.3076 15.5904C9.62187 16.2735 8.98333 17.0906 8.98333 18.0004C8.98333 18.8042 9.38448 19.9029 9.85898 20.8339C10.1156 21.3374 10.0083 21.8955 9.6994 22.261C9.37092 22.6497 8.77312 22.8495 8.20569 22.521C6.26159 21.3957 3.75 18.9921 3.75 15.5004C3.75 14.5535 4.07109 13.574 4.5203 12.6172C4.97254 11.654 5.5858 10.6504 6.22984 9.64782C6.45297 9.30047 6.67941 8.95349 6.90546 8.60711C8.01002 6.91454 9.10528 5.23622 9.75961 3.59899ZM11.3983 3.91786C11.2958 3.95335 11.1992 4.03889 11.1525 4.15567C10.4372 5.94546 9.24008 7.77756 8.13532 9.46832C7.91569 9.80446 7.69971 10.135 7.49189 10.4585C6.85264 11.4536 6.28547 12.3871 5.8781 13.2547C5.46769 14.1288 5.25 14.8741 5.25 15.5004C5.25 17.7949 6.65653 19.5766 8.13307 20.6786C7.77845 19.8375 7.48333 18.8674 7.48333 18.0004C7.48333 16.2698 8.7827 14.9633 9.50894 14.2756C9.97929 13.8303 10.7914 13.7903 11.2647 14.3745C11.4359 14.5858 11.6032 14.8202 11.7553 15.034L11.7734 15.0594C11.8161 15.1194 11.8576 15.1779 11.8983 15.2346C12.5671 13.9603 12.7543 12.406 12.8012 11.1267C12.8204 10.6002 13.1468 10.1839 13.5747 10.0098C14.0118 9.83196 14.5549 9.9103 14.9285 10.3236L14.3721 10.8265L14.9285 10.3236C15.5949 11.0609 16.3626 12.0352 16.9682 13.0917C17.5657 14.1341 18.05 15.3333 18.05 16.5004C18.05 18.193 17.2822 19.9105 16.5062 21.1889C17.1582 20.8696 17.8159 20.4033 18.3644 19.7521C19.1512 18.8181 19.75 17.4616 19.75 15.5004C19.75 13.4438 18.6125 11.2135 16.9614 9.11722C15.3259 7.04076 13.2696 5.20076 11.6183 3.94285C11.5636 3.90122 11.493 3.88509 11.3983 3.91786Z" fill="#666666"/>
</g>
</svg>
