<svg width="25" height="25" viewBox="0 0 25 25" fill="none" xmlns="http://www.w3.org/2000/svg">
<g id="Bold / Nature, Travel / Flame">
<path id="Vector" d="M20.3977 15.5002C20.3977 19.7547 17.7796 21.6216 15.7565 22.2512C15.3251 22.3854 15.0415 21.8825 15.2996 21.5116C16.18 20.2464 17.1977 18.3161 17.1977 16.5002C17.1977 14.5496 15.5536 12.2467 14.2698 10.8263C13.9763 10.5016 13.4644 10.7164 13.4484 11.1539C13.3953 12.6031 13.1666 14.542 12.1805 16.0616C12.0218 16.3062 11.6849 16.3264 11.504 16.0977C11.1959 15.708 10.8878 15.2267 10.5797 14.8464C10.4137 14.6416 10.1137 14.6388 9.92232 14.82C9.17596 15.5267 8.13104 16.6288 8.13104 18.0002C8.13104 18.9301 8.4913 19.905 8.89777 20.6893C9.12138 21.1208 8.72377 21.6402 8.29343 21.4144C6.51077 20.4789 4.39771 18.5838 4.39771 15.5002C4.39771 12.3538 8.708 7.99503 10.3538 3.87712C10.6135 3.22733 11.4138 2.92199 11.9704 3.34603C15.3416 5.91409 20.3977 10.8783 20.3977 15.5002Z" fill="#212121"/>
</g>
</svg>
