<svg width="26" height="26" viewBox="0 0 26 26" fill="none" xmlns="http://www.w3.org/2000/svg">
<g id="Bold / Nature, Travel / Flame">
<path id="Vector" d="M21.7102 16.199C21.7102 20.6477 18.9725 22.5999 16.857 23.2583C16.4059 23.3986 16.1094 22.8727 16.3793 22.4849C17.2999 21.1619 18.364 19.1434 18.364 17.2446C18.364 15.205 16.6449 12.7969 15.3025 11.3116C14.9955 10.9721 14.4602 11.1967 14.4435 11.6541C14.388 13.1695 14.1489 15.197 13.1177 16.7859C12.9518 17.0417 12.5994 17.0629 12.4103 16.8238C12.0881 16.4163 11.766 15.9129 11.4438 15.5153C11.2702 15.3011 10.9566 15.2982 10.7564 15.4877C9.97596 16.2267 8.88332 17.3791 8.88332 18.8131C8.88332 19.7855 9.26004 20.8049 9.68507 21.6251C9.91889 22.0763 9.50312 22.6194 9.05313 22.3832C7.18906 21.405 4.97949 19.4234 4.97949 16.199C4.97949 12.9088 9.48662 8.35104 11.2075 4.04507C11.4791 3.36561 12.316 3.04633 12.8981 3.48973C16.4232 6.17507 21.7102 11.366 21.7102 16.199Z" fill="white"/>
</g>
</svg>
