<svg width="389" height="570" viewBox="0 0 389 570" fill="none" xmlns="http://www.w3.org/2000/svg">
<path d="M298.12 430.664C275.792 437.412 260.75 445.203 246.105 459.442C246.178 458.31 246.178 457.181 245.988 456.088C245.636 454.146 244.778 452.461 243.532 451.041C249.97 446.333 269.995 432.653 294.174 425.53C306.535 421.891 360.165 404.491 380.652 371.657C374.187 389.079 354.658 413.562 298.12 430.664ZM224.77 467.544C220.87 464.941 216.988 464.291 213.25 464.848C213.99 464.077 214.676 463.335 215.363 462.599C215.408 462.545 215.48 462.516 215.525 462.455C215.57 462.388 215.633 462.321 215.688 462.251C216.699 461.154 217.656 460.089 218.541 459.062C224.509 453.279 233.05 449.688 238.151 452.873C239.641 453.801 240.517 455.105 240.833 456.865C241.6 461.227 238.72 467.086 236.418 469.857C236.409 469.862 236.409 469.876 236.399 469.882C234.44 472.178 232.454 474.632 230.441 477.206C230.287 473.596 228.734 470.189 224.77 467.544ZM169.361 544.736C170.986 540.607 170.968 536.231 169.135 531.847C168.26 529.768 167.023 527.798 165.515 525.978C186.272 508.217 198.488 502.982 207.499 508.201C195.301 523.432 182.579 535.611 169.361 544.736ZM29.6145 531.888C35.5915 536.005 41.8846 538.698 47.5275 539.839C49.8208 540.303 52.0238 540.533 54.1185 540.533C58.669 540.533 62.6777 539.439 65.901 537.316C70.9842 539.21 80.8074 542.484 90.7841 543.732C106.575 546.319 109.212 551.478 108.246 558.418C107.776 561.776 103.858 564.943 96.1743 564.537C88.1207 563.699 79.9407 561.969 71.6342 559.31C53.1524 553.4 39.5371 543.645 29.6145 531.888ZM5.23692 450.794C10.5368 448.463 13.751 444.695 16.1617 439.751C16.5499 442.072 17.2 444.279 18.2021 446.288C20.5857 451.108 24.6487 454.354 30.2465 455.96C30.102 458.007 29.9846 461.412 30.2104 465.433C30.1472 465.647 30.084 465.858 30.084 466.089C30.8153 485.854 24.8383 496.745 11.846 499.329C6.4197 482.823 4.84869 465.625 5.23692 450.794ZM18.1661 393.195C18.9787 395.789 20.3149 398.181 22.2831 400.174C22.8158 400.714 23.3937 401.207 23.9805 401.671C23.0054 403.817 21.3532 407.754 19.7642 412.548C18.3918 416.585 17.2542 420.387 16.252 423.797C13.2815 433.882 11.0966 441.068 5.48971 444.983C6.12172 434.64 7.63855 425.777 9.28178 419.627C11.4938 411.384 14.2928 402.525 18.1661 393.195ZM75.8506 316.342C72.2571 325.217 71.4175 335.883 79.5975 344.331C79.1009 344.721 78.5502 345.163 77.9453 345.671C63.4722 356.322 51.5995 359.063 40.2143 354.354C49.2972 342.037 60.8809 329.298 75.8506 316.342ZM135.521 235.383C133.192 222.925 129.4 215.295 126.348 209.165C123.712 203.874 121.735 199.776 121.518 194.427C121.816 194.452 122.096 194.452 122.385 194.468C125.563 195.264 128.66 195.605 131.495 195.605C139.557 195.605 145.616 193.208 145.995 193.05C147.322 192.519 147.909 191.101 147.331 189.89C146.744 188.679 145.2 188.14 143.891 188.662C143.819 188.687 139.765 190.28 134.077 190.686C134.781 189.624 135.034 188.571 135.097 187.758C146.816 177.051 151.06 168.408 147.972 161.391C146.871 158.903 144.984 156.838 142.329 155.162C142.32 155.154 142.311 155.146 142.311 155.146C142.284 155.129 142.257 155.129 142.239 155.113C139.151 153.197 134.98 151.828 129.743 150.965C129.734 150.965 129.725 150.957 129.716 150.957C127.793 150.642 125.771 150.368 123.549 150.194C122.692 150.128 121.906 150.153 121.094 150.144C125.798 146.677 131.63 141.859 138.618 133.747C139.512 132.71 139.323 131.201 138.194 130.379C137.056 129.55 135.413 129.733 134.519 130.769C127.919 138.441 122.403 143.02 117.915 146.329C113.934 141.875 103.172 130.537 89.3485 121.629C84.4369 118.469 80.1844 115.823 76.4917 113.517C61.1789 103.988 56.0235 100.778 52.1141 91.3141C48.8006 83.2688 47.9338 76.2685 49.7847 72.5942C50.3174 71.516 51.0487 70.8442 52.0147 70.529C58.3258 68.4555 75.7242 64.1674 100.833 69.0858C124.272 73.6808 153.94 80.6395 159.727 82.008C160.901 85.0852 162.445 87.7974 164.45 90.0202C150.013 91.5961 138.573 93.5369 125.581 95.7514L116.715 97.2527C98.9642 100.23 77.1327 90.7584 76.916 90.6589C75.6069 90.0949 74.0539 90.6008 73.4309 91.7869C72.8079 92.9812 73.3587 94.4161 74.6589 94.9884C75.4714 95.345 91.9849 102.511 108.869 102.619C114.069 106.302 132.1 118.577 141.489 118.577C142.293 118.577 143.033 118.486 143.701 118.295C156.965 114.413 170.607 118.112 170.743 118.154C171.998 118.519 173.334 117.947 173.876 116.843C175.185 114.189 175.943 106.078 176.313 100.57C181.153 104.062 186.2 106.467 191.5 106.467C196.339 106.467 200.962 104.46 205.422 101.45C205.287 104.294 205.35 108.135 205.946 113.161C206.424 117.225 208.6 119.133 210.343 120.012C211.462 120.584 212.681 120.883 213.909 120.99C210.505 123.951 206.686 127.095 202.262 130.62C201.16 131.491 201.043 133 201.991 134.004C202.939 135.008 204.582 135.107 205.675 134.253C212.907 128.488 218.631 123.678 223.416 119.133C223.759 118.934 224.021 118.652 224.238 118.336C232.4 110.432 237.682 103.258 242.656 93.3047C243.027 92.6826 243.938 91.0155 244.932 88.5107C246.855 84.289 248.796 79.5862 250.909 74.1618C259.585 51.9335 275.061 38.1984 296.91 33.3215L297.271 33.2385C300.395 32.5418 301.596 33.0146 302.228 33.4294C303.835 34.491 304.873 37.4603 305.316 42.2543C307.266 63.2882 281.182 100.579 268.244 115.342C267.133 116.603 266.023 118.112 264.912 119.73C264.903 119.746 264.876 119.755 264.867 119.771C257.716 128.696 246.069 136.625 245.952 136.708C244.796 137.496 244.552 138.997 245.401 140.059C245.916 140.697 246.701 141.037 247.505 141.037C248.047 141.037 248.588 140.888 249.058 140.573C249.302 140.407 252.218 138.408 256.037 135.323C254.051 139.238 252.01 143.426 249.879 147.839C244.769 158.397 239.271 169.727 233.104 180.045V180.053C228.165 188.314 222.802 195.928 216.861 201.95C212.473 206.403 208.943 210.849 206.045 215.096C206.036 215.104 206.036 215.112 206.027 215.121C196.402 229.246 194.226 240.932 194.109 241.562C193.883 242.873 194.849 244.1 196.276 244.316C196.411 244.333 196.556 244.341 196.691 244.341C197.955 244.341 199.057 243.511 199.273 242.334C199.282 242.276 199.653 240.293 200.736 237.05C204.772 239.58 212.636 244.847 220.518 252.146C214.974 254.037 204.022 258.449 188.565 267.88C184.322 270.467 180.611 272.881 177.207 275.095C162.554 284.642 154.482 289.909 135.205 288.938C129.31 288.64 125.238 286.923 123.089 283.846C118.692 277.509 122.475 266.345 125.12 260.266C125.129 260.257 125.12 260.257 125.129 260.249L135.377 236.677C135.558 236.271 135.603 235.823 135.521 235.383ZM128.777 188.928C127.82 189.45 125.825 190.014 121.717 189.641C118.195 189.309 115.938 188.629 114.548 187.883L128.777 188.928ZM105.88 162.005C105.853 162.42 105.817 162.834 105.826 163.241C105.88 166.019 106.485 168.732 107.632 171.311C108.047 172.24 109.022 172.804 110.051 172.804C110.386 172.804 110.72 172.746 111.036 172.621C112.372 172.124 113.013 170.722 112.462 169.495C111.568 167.471 111.081 165.339 111.045 163.166C111 160.885 111.487 158.58 112.399 156.431C113.473 155.992 114.674 155.652 115.956 155.386C115.469 157.269 115.099 159.16 114.927 161.084C114.62 164.676 114.864 168.292 115.667 171.833C115.92 172.97 117.013 173.749 118.222 173.749C118.403 173.749 118.575 173.733 118.755 173.7C120.164 173.426 121.076 172.157 120.787 170.863C120.082 167.761 119.866 164.601 120.137 161.466C120.326 159.251 120.823 157.07 121.491 154.93C122.033 154.947 122.538 154.93 123.098 154.972C124.136 155.054 125.102 155.171 126.068 155.287C125.482 156.788 124.958 158.314 124.552 159.857C123.504 163.929 123.089 168.118 123.315 172.323C123.396 173.608 124.543 174.604 125.924 174.604C125.969 174.604 126.014 174.604 126.059 174.596C127.504 174.529 128.614 173.401 128.533 172.082C128.326 168.333 128.696 164.593 129.635 160.977C130.059 159.334 130.646 157.725 131.305 156.141C133.508 156.622 135.413 157.219 137.029 157.924C135.594 159.973 134.276 162.096 133.237 164.344C131.865 167.288 130.854 170.399 130.222 173.575C129.969 174.877 130.908 176.122 132.325 176.362C132.479 176.387 132.641 176.404 132.795 176.404C134.032 176.404 135.133 175.591 135.359 174.43C135.919 171.61 136.822 168.848 138.041 166.227C138.934 164.294 140.072 162.461 141.3 160.686C142.085 161.458 142.726 162.279 143.133 163.199C145.291 168.093 141.264 175.375 131.495 184.316L111.668 182.856C106.332 173.575 103.605 166.782 105.88 162.005ZM141.219 57.7228C141.643 56.6197 142.004 55.5166 142.32 54.4218C144.361 49.0887 147.268 44.4357 151.078 40.5291C170.851 20.2251 183.545 20.2085 187.563 20.8886C187.599 29.6804 183.581 31.0406 176.602 33.3962C170.734 35.3702 163.357 37.875 157.082 45.8705C157.046 45.912 157.01 45.9535 156.983 46.0032C154.283 49.4702 151.791 53.949 149.715 59.8711C149.588 60.2526 149.453 60.6839 149.317 61.0737C149.308 61.1152 149.29 61.1483 149.281 61.1898C148.044 64.8889 146.798 69.2268 145.67 73.7968C143.548 73.3158 141.282 72.8016 138.907 72.2708C139.115 67.004 139.891 62.1519 141.219 57.7228ZM144.559 37.3193C144.559 31.1152 150.609 23.9243 160.342 18.5579C170.21 13.1004 181.035 11.085 187.509 13.2995C187.509 13.3244 187.509 13.3492 187.509 13.3741V16.0366C181.153 15.2984 167.104 16.8826 147.178 37.3276C146.202 38.3312 145.291 39.4011 144.415 40.4877C144.469 39.4177 144.514 38.356 144.559 37.3193ZM154.383 11.143C165.181 3.91052 176.539 3.63678 182.525 6.42365C183.238 6.75537 183.997 7.20331 184.692 7.75903C176.133 6.83838 165.623 10.0399 157.651 14.4441C152.866 17.0816 148.947 20.1255 145.932 23.3354C147.105 18.5994 149.444 14.4607 154.383 11.143ZM225.863 11.1513C231.885 15.1573 234.467 19.3956 235.614 24.115C232.517 20.731 228.418 17.5129 223.353 14.7261C215.101 10.1643 204.284 6.83008 195.554 7.76727C196.24 7.21991 196.98 6.78027 197.675 6.44849C203.652 3.66168 215.01 3.93536 225.863 11.1513ZM233.059 37.3276C213.141 16.8743 199.093 15.2984 192.737 16.0366V13.3741C192.737 13.3492 192.746 13.3327 192.746 13.2995C199.309 11.0684 210.433 13.1917 220.662 18.8317C230.513 24.2726 236.634 31.4553 236.634 37.5847C236.661 38.862 236.716 40.1808 236.797 41.5244C235.65 40.131 234.431 38.7293 233.059 37.3276ZM223.777 111.626C222.486 103.805 221.231 95.9339 220.085 88.1126C220.96 86.8684 221.737 85.5165 222.414 84.0567C225.032 90.6837 227.633 97.3522 230.161 104.021C228.247 106.617 226.143 109.113 223.777 111.626ZM211.128 97.0288C212.627 95.7432 214.099 94.3912 215.552 93.0061C216.69 100.529 217.882 108.068 219.146 115.55C217.177 116.147 214.46 116.628 212.862 115.815C212.509 115.633 211.426 115.085 211.137 112.638C210.036 103.357 210.857 98.3392 211.128 97.0288ZM226.152 68.9614C226.585 65.0714 226.766 60.9659 226.829 56.8105C227.461 57.615 228.093 58.4611 228.716 59.3485C229.24 63.0726 227.903 66.3819 226.152 68.9614ZM239.885 56.1718C239.903 56.2133 239.939 56.2382 239.957 56.2797C242.828 63.056 243.451 69.3927 243.027 74.7507C241.519 70.3797 238.891 65.8013 235.325 60.0867C234.711 59.0914 234.088 58.1459 233.456 57.2335C233.456 57.2335 233.447 57.2252 233.438 57.2169C224.084 43.6892 213.683 38.9864 205.955 35.4946C197.937 31.8783 193.305 29.7799 192.782 20.8803C196.944 20.2084 209.593 20.4324 229.167 40.5291C234.278 45.7627 237.645 50.9714 239.803 55.9396C239.839 56.0225 239.858 56.0972 239.885 56.1718ZM154.482 61.9529C154.554 61.7538 154.626 61.5382 154.689 61.3391C155.168 59.9872 155.665 58.743 156.179 57.5487C156.242 61.1235 156.414 64.6484 156.748 68.0324C155.321 65.3866 154.689 62.9482 154.482 61.9529ZM152.008 70.0811C153.182 72.2458 154.807 74.5185 157.091 76.4344C155.358 76.028 153.191 75.522 150.735 74.958C151.15 73.2992 151.575 71.6653 152.008 70.0811ZM169.081 87.6398C163.971 82.655 162.165 73.1583 161.596 62.9814C161.624 62.9979 161.642 63.0311 161.669 63.0477C162.581 63.7195 164.504 65.0881 167.059 64.6402C168.657 64.3499 169.551 63.4375 170.201 62.7823C170.508 62.4671 170.752 62.2183 171.059 62.0358C171.817 61.563 172.666 61.4552 173.803 61.4221C173.803 61.505 173.776 61.5796 173.776 61.6625C173.776 64.0181 175.871 65.9424 178.435 65.9424C179.825 65.9424 181.071 65.3617 181.929 64.4659C182.949 65.3036 183.581 66.0004 183.654 66.0668C184.168 66.6391 184.909 66.9377 185.658 66.9377C186.245 66.9377 186.841 66.7552 187.328 66.382C188.439 65.5359 188.592 64.0264 187.671 63.0062C187.039 62.3012 184.593 59.8047 181.08 58.1459C180.683 57.897 180.241 57.7145 179.78 57.5818C178.245 57.0095 176.548 56.6115 174.724 56.6115C174.706 56.6115 174.679 56.6115 174.661 56.6115C173.632 56.6198 172.449 56.6447 171.221 56.8852C171.194 56.8934 171.176 56.8851 171.158 56.8934C169.298 57.4492 168.296 56.3212 168.025 55.9562C167.248 54.8614 165.659 54.5296 164.441 55.2346C163.222 55.9396 162.861 57.4243 163.619 58.544C163.691 58.6435 163.781 58.7514 163.863 58.8509C163.005 58.6684 162.093 58.9172 161.452 59.5227C161.38 57.0593 161.353 54.5877 161.362 52.1575C161.371 51.4608 161.407 50.764 161.47 50.0756C162.31 50.3908 163.285 50.2913 164.043 49.7605C165.407 48.79 167.637 47.5792 170.499 47.2806C178.146 46.4843 183.618 52.9289 183.843 53.2109C184.349 53.8246 185.125 54.1481 185.92 54.1481C186.353 54.1481 186.796 54.0485 187.202 53.8412C188.331 53.2523 188.818 51.9916 188.349 50.8719C185.613 44.4606 179.853 40.1807 173.867 39.5172C175.392 38.9117 176.918 38.3975 178.408 37.8998C183.148 36.2908 187.726 34.7315 190.398 30.601C193.36 35.1462 198.271 37.3774 203.643 39.7993C205.864 40.8029 208.221 41.8728 210.677 43.1998C205.846 44.22 200.447 47.7698 195.996 53.2689C195.228 54.2227 195.328 55.558 196.249 56.3958C196.745 56.8602 197.422 57.1008 198.091 57.1008C198.632 57.1008 199.183 56.9432 199.644 56.628C202.135 54.9277 204.79 53.4762 207.517 52.3151C211.426 50.6479 213.385 49.8766 215.101 50.4324C216.067 50.7475 216.934 51.4359 217.674 52.481C218.36 53.4514 219.696 53.8246 220.852 53.3933C221.141 53.2772 221.403 53.1196 221.629 52.9288C221.629 55.1185 221.61 57.3247 221.547 59.5227C220.897 58.9172 219.994 58.6684 219.137 58.8509C219.218 58.7431 219.308 58.6435 219.371 58.544C220.139 57.4243 219.778 55.9396 218.55 55.2346C217.331 54.5213 215.724 54.8614 214.947 55.9894C214.911 56.0475 213.891 57.5238 211.832 56.8934C211.814 56.8851 211.796 56.8934 211.769 56.8852C210.541 56.6447 209.368 56.6198 208.329 56.6115C208.311 56.6115 208.293 56.6115 208.266 56.6115C201.485 56.6115 196.303 61.928 195.328 62.998C194.407 64.0181 194.551 65.5276 195.653 66.382C196.14 66.7552 196.736 66.9377 197.332 66.9377C198.073 66.9377 198.822 66.639 199.337 66.075C199.472 65.9174 202.226 62.9814 205.738 61.8616C205.792 64.3084 207.959 66.2824 210.632 66.2824C212.347 66.2824 213.855 65.4696 214.731 64.2503C215.092 64.4162 215.48 64.5572 215.94 64.6402C218.477 65.1046 220.41 63.7195 221.331 63.0559C221.358 63.0311 221.367 62.9979 221.394 62.9814C220.834 73.1583 219.028 82.6633 213.918 87.6398C206.939 94.4327 198.885 101.673 191.5 101.673C184.114 101.673 176.061 94.4327 169.081 87.6398ZM165.443 112.273C162.608 106.899 160.612 101.25 159.466 95.4363C162.472 95.063 165.614 94.7147 168.91 94.3829C169.713 95.1211 170.517 95.851 171.329 96.5642C171.04 102.03 170.427 109.312 169.668 112.962C168.567 112.738 167.113 112.497 165.443 112.273ZM146.591 112.663C145.932 108.981 145.959 103.714 146.672 97.1698C149.164 96.7965 151.701 96.4399 154.283 96.0916C155.34 101.483 157.064 106.733 159.457 111.784C155.592 111.626 151.186 111.792 146.591 112.663ZM136.56 98.7788C138.149 105.505 140 110.847 141.128 113.833C136.822 113.799 126.448 108.392 116.832 102.072C117.103 102.03 117.383 102.014 117.654 101.972L126.529 100.471C129.951 99.882 133.264 99.3179 136.56 98.7788ZM233.7 98.8036C230.946 91.6126 228.147 84.4133 225.312 77.3219C227.497 75.4972 231.425 71.6404 233.185 66.3902C239.415 76.932 240.688 82.3067 237.808 91.4468C236.481 94.0761 235.126 96.5062 233.7 98.8036ZM281.733 191.383C287.313 194.7 293.271 194.75 299.583 194.792C305.623 194.841 311.88 194.891 318.832 197.728C322.172 199.096 325.26 201.186 328.023 203.525C325.387 202.265 322.669 201.203 319.852 200.415C309.677 197.57 302.734 199.096 296.612 200.448C291.926 201.485 287.863 202.373 282.952 201.137C270.952 198.118 265.237 185.32 253.373 152.409C253.807 151.538 254.231 150.659 254.647 149.788C255.92 147.175 257.139 144.654 258.348 142.199C259.134 163.838 274.844 187.285 281.733 191.383ZM303.311 209.746C298.58 210.841 293.678 211.985 286.816 211.488C274.717 210.633 260.064 198.101 254.349 187.02C251.432 180.733 248.958 173.542 246.918 165.464C248.038 163.266 249.13 161.068 250.213 158.886C260.75 187.841 267.242 202.157 281.57 205.765C287.791 207.332 292.892 206.204 297.831 205.118C303.573 203.841 309.514 202.53 318.335 205.01C322.615 206.204 326.696 208.054 330.56 210.517C317.812 206.395 310.715 208.029 303.311 209.746ZM300.142 224.576C307.356 225.165 314.814 225.779 323.626 229.801C331.725 233.484 338.849 239.099 344.961 246.497C341.404 243.984 337.639 241.836 333.675 240.078C321.378 234.595 310.715 234.288 300.404 233.99C289.958 233.683 280.099 233.393 269.67 227.354C260.741 222.187 256.452 215.817 249.347 205.251C244.354 197.836 241.085 190.885 238.178 181.504C239.975 178.477 241.708 175.375 243.388 172.24C244.733 176.818 246.232 181.123 247.884 185.112C247.893 185.129 247.893 185.146 247.893 185.162C248.372 186.506 249.013 187.891 249.735 189.284C256.922 204.595 266.664 214.955 278.844 220.172C286.5 223.456 293.434 224.029 300.142 224.576ZM296.693 246.307C296.675 246.315 296.648 246.298 296.621 246.307C257.807 253.979 229.041 209.995 223.976 201.659C227.768 197.338 231.307 192.469 234.639 187.277C237.338 194.949 240.471 201.186 244.905 207.78C252.146 218.546 256.931 225.654 266.89 231.419C278.519 238.145 289.561 238.469 300.242 238.784C310.002 239.066 320.096 239.364 331.409 244.391C336.041 246.456 340.392 249.093 344.437 252.287C336.989 249.044 329.323 246.862 321.504 245.792C311.88 244.465 303.844 245.087 296.693 246.307ZM259.964 251.333C242.774 249.251 226.423 237.506 211.327 216.448C213.828 212.906 216.798 209.232 220.364 205.566C226.396 215.245 246.62 244.274 275.756 250.727C270.727 251.598 265.598 252.013 259.964 251.333ZM206.903 357.931C208.943 353.181 210.37 348.47 210.866 346.748C220.708 334.772 226.125 321.684 227.633 317.686C227.687 317.678 227.732 317.678 227.777 317.669C232.138 316.898 235.641 314.675 238.169 311.084C242.602 304.772 243.297 295.01 242.774 286.293C247.586 304.133 245.88 331.819 206.903 357.931ZM176.313 374.447C165.407 379.257 155.087 383.574 145.986 387.384C135.296 391.855 125.617 395.91 116.895 399.934C118.06 396.368 121.175 390.697 129.445 384.08C129.454 384.07 129.463 384.057 129.472 384.048C140.749 377.331 149.561 369.617 152.739 366.688C156.468 367.778 160.667 368.53 165.398 368.878C166.635 368.968 167.835 369.012 169.027 369.012C182.552 369.012 193.549 363.329 202.244 355.71C201.052 358.557 199.644 361.388 198.1 363.428C191.68 367.164 184.475 370.849 176.313 374.447ZM71.7065 431.863C66.235 431.374 62.0908 429.487 59.4996 426.103C55.9152 421.411 55.3644 413.937 58.0279 406.11C61.3415 396.391 69.3951 389.597 72.8892 387.01C79.0919 392.395 86.5046 395.204 94.9735 395.303C95.127 395.306 95.2715 395.307 95.4249 395.307C102.296 395.307 109.275 393.503 115.938 390.822C112.101 396.215 111.18 400.465 111.017 402.713C93.881 411.049 80.8616 419.636 71.7065 431.863ZM57.6487 466.342C56.0687 475.016 56.8993 483.123 59.9149 490.355C53.5045 491.963 48.3311 491.394 44.5119 488.63C35.0137 481.77 35.0679 463.54 35.429 456.894C36.1604 456.958 36.9006 457.047 37.6139 457.047C51.8883 457.047 61.3956 444.577 65.4405 435.615C66.4607 435.922 67.5351 436.162 68.6457 436.353C63.5174 444.519 59.8607 454.229 57.6487 466.342ZM28.4859 404.252C30.9959 405.256 33.7948 405.778 36.7743 405.778C40.0427 405.778 43.5278 405.16 47.0851 403.907C49.9021 402.915 52.4752 401.757 54.7595 400.583C54.1275 401.891 53.5316 403.247 53.044 404.677C49.8569 414.055 50.6515 422.866 55.229 428.86C56.6917 430.776 58.5335 432.352 60.6823 433.596C58.0369 439.353 48.7645 456.097 31.953 451.444C27.6914 450.26 24.748 447.925 22.9513 444.305C17.0917 432.461 25.4161 411.275 28.4859 404.252ZM83.516 347.686C88.9152 351.552 94.6484 353.079 100.318 353.079C113.239 353.079 125.743 345.287 132.849 339.901C132.407 344.587 132.876 350.76 136.777 356.315C139.268 359.865 142.844 362.673 147.421 364.756C139.539 371.766 116.489 390.508 95.4429 390.508C95.3075 390.508 95.1721 390.508 95.0366 390.506C87.2629 390.416 80.5185 387.624 75.0019 382.209C70.5869 377.876 68.6005 373.161 69.1152 368.21C69.9458 360.185 76.9431 353.072 81.3762 349.314C82.1075 348.771 82.8208 348.226 83.516 347.686ZM85.394 309.549C89.3034 314.741 94.1789 317.769 99.9483 318.499C100.878 318.615 101.799 318.673 102.729 318.673C111.09 318.673 119.143 314.144 124.263 310.511C123.784 315.82 124.046 323.268 127.955 329.024C129.228 330.898 130.836 332.416 132.677 333.669C125.391 339.716 102.819 356.168 86.1343 343.49C71.7877 332.599 80.8074 316.168 85.394 309.549ZM122.981 305.278C118.358 308.853 109.203 314.808 100.653 313.746C96.0388 313.157 92.0843 310.445 88.8791 305.717C95.0999 300.898 101.826 296.071 109.085 291.228C110.683 295.267 114.466 301.686 122.981 305.278ZM226.784 312.958C220.726 314.028 215.381 313.074 210.92 310.113C201.521 303.859 198.145 290.431 197.269 286.019C215.652 274.805 229.953 271.471 235.298 270.55C236.788 277.385 240.67 298.684 233.772 308.479C232.03 310.968 229.745 312.436 226.784 312.958ZM129.96 307.293C131.314 307.534 132.741 307.716 134.266 307.816C153.146 309.06 168.368 304.249 191.581 289.602C190.85 298.278 187.753 316.865 174.634 326.768C166.364 333.013 155.258 334.822 141.607 332.176C137.463 331.371 134.456 329.513 132.398 326.494C128.28 320.456 129.219 311.482 129.96 307.293ZM165.813 364.096C153.696 363.204 145.408 359.721 141.192 353.744C136.831 347.565 137.833 340.061 138.727 336.364C139.332 336.53 139.891 336.746 140.532 336.87C144.966 337.733 149.173 338.164 153.146 338.164C162.861 338.164 171.167 335.593 177.957 330.475C189.152 322.024 193.766 308.479 195.68 298.327C198.091 303.909 201.892 310.03 207.842 313.987C211.986 316.749 216.681 318.142 221.854 318.175C217.159 329.314 198.948 366.486 165.813 364.096ZM118.692 286.425C121.789 290.888 127.242 293.343 134.917 293.724C136.469 293.807 137.968 293.84 139.404 293.84C157.461 293.84 166.725 287.81 180.232 279.01C183.59 276.821 187.256 274.432 191.454 271.877C208.943 261.211 220.527 257.164 224.445 255.977C227.47 259.063 230.395 262.439 233.014 266.055C225.989 267.398 210.505 271.562 190.985 284.144C167.51 299.273 152.748 304.2 134.637 303.03C117.627 301.91 113.907 290.232 113.275 287.512L116.281 280.586C116.706 282.676 117.464 284.659 118.692 286.425ZM24.9106 378.77C24.9196 378.767 24.9196 378.765 24.9196 378.761C28.3866 372.131 32.4766 365.315 37.3431 358.353C42.056 360.406 46.6698 361.346 51.1029 361.346C56.8993 361.346 62.3978 359.865 67.481 357.626C65.6662 360.697 64.2939 364.103 63.9147 367.736C63.3368 373.343 65.1516 378.627 69.3138 383.478C67.472 384.854 64.7724 387.089 62.0186 390.093C61.2873 390.701 54.6602 396.096 45.2161 399.425C37.3702 402.189 30.4271 401.287 26.1565 396.953C21.7866 392.52 21.2991 385.385 24.9106 378.77ZM13.5523 503.919C24.3507 501.6 31.1404 494.499 33.9212 482.781C35.5915 486.574 37.9389 489.986 41.2705 492.398C46.6426 496.281 53.6399 497.074 62.0818 494.781C62.2894 495.149 62.5332 495.5 62.7499 495.862C66.4878 502.86 74.8394 521.376 64.8627 531.751C61.3957 535.362 55.6353 536.567 48.647 535.154C35.9346 532.579 20.2246 521.107 13.5523 503.919ZM84.5724 514.406C90.5675 517.237 97.4835 519.348 104.869 520.585C104.878 520.589 104.887 520.595 104.887 520.598C104.995 520.63 115.595 523.761 114.593 530.021C114.06 533.366 112.354 535.745 109.365 537.29C102.034 541.083 86.7935 539.625 69.9188 533.625C76.1757 525.961 75.4895 515.817 73.0608 507.3C76.4194 509.967 80.2476 512.359 84.5724 514.406ZM140.397 519.527C147.105 518.906 154.879 522.21 159.953 527.327C159.98 527.359 159.989 527.398 160.016 527.426C160.053 527.455 160.098 527.465 160.125 527.493C161.903 529.326 163.339 531.383 164.26 533.564C167.312 540.885 163.718 548.072 154.13 553.803C154.121 553.81 154.112 553.822 154.103 553.829C139.982 560.897 125.337 564.636 110.205 565.068C112.029 563.309 113.121 561.198 113.428 559.029C114.521 551.168 111.18 546.444 106.07 543.466C108.164 543.025 110.151 542.391 111.929 541.471C116.354 539.181 118.999 535.56 119.766 530.717C120.362 526.959 118.827 524.023 116.624 521.785C124.452 522.072 132.524 521.376 140.397 519.527ZM173.162 502.62L181.559 494.89C182.706 493.831 183.78 492.846 184.882 491.829C186.064 493.565 187.437 496.249 187.166 499.258C186.877 502.434 184.782 505.406 180.954 508.099C174.562 511.982 168.142 517.134 161.994 522.424C158.825 519.706 155.024 517.556 151.033 516.21C159.041 513.105 166.598 508.668 173.162 502.62ZM198.795 478.946C208.943 469.524 215.57 467.343 221.701 471.427C228.752 476.134 223.958 485.528 218.387 493.626C215.805 497.34 213.196 500.916 210.55 504.341C204.691 500.807 198.253 500.819 191.608 503.02C192.014 501.913 192.276 500.771 192.375 499.601C192.8 494.688 190.362 490.604 188.647 488.362C192.294 484.998 195.671 481.869 198.759 478.965C198.777 478.955 198.786 478.953 198.795 478.946ZM245.853 361.34C254.141 344.152 264.777 311.167 271.341 289.751C269.616 306.63 264.966 332.906 252.696 365.075C235.172 410.997 235.388 437.454 236.409 447.161C233.122 446.576 229.538 447.093 226.016 448.437C227.38 445.706 228.174 443.137 228.391 440.585C229.664 425.003 233.926 386.079 245.853 361.34ZM278.374 323.036C282.464 328.103 285.994 332.483 285.489 339.927C285.137 345.003 281.191 348.876 275.205 354.732C268.126 361.66 258.908 370.749 250.728 386.638C252.642 380.433 254.89 373.813 257.617 366.662C265.147 346.947 269.851 329.538 272.785 315.057C274.401 318.051 276.433 320.63 278.374 323.036ZM291.691 370.58C291.7 373.029 289.497 375.208 284.505 379.903C281.164 383.037 277.038 386.926 272.189 392.447C270.384 392.709 268.524 393.186 266.646 393.892C259.712 396.506 252.064 402.522 246.178 412.231C255.432 381.189 269.309 367.515 279.006 358.017C280.685 356.376 282.256 354.831 283.683 353.312C286.139 354.211 291.628 357.655 291.691 370.58ZM304.63 377.056C307.085 379.234 307.528 382.013 307.564 383.581C303.42 385.954 299.601 390.563 291.538 400.295L290.996 400.951C289.931 399.346 288.531 397.781 286.78 396.272C284.532 394.324 281.832 393.112 278.871 392.565C282.455 388.702 285.597 385.733 288.233 383.255C291.701 380.002 294.355 377.475 295.772 374.833C299.005 374.239 302.309 375.003 304.63 377.056ZM241.79 446.179C243.297 419.588 256.245 403.004 268.632 398.332C274.338 396.182 279.656 396.704 283.204 399.765C286.969 403.018 288.622 406.261 288.242 409.689C287.204 419.184 271.043 428.547 261.888 433.751C252.859 438.583 245.844 443.278 241.79 446.179ZM320.665 385.506C328.7 384.803 332.492 387.55 333.982 389.127C333.341 390.096 332.745 391.123 332.149 392.2C328.854 398.069 323.888 406.932 299.438 418.798C296.549 419.758 294.183 420.487 292.576 420.964C290.319 421.629 288.107 422.358 285.94 423.119C290.066 419.118 292.928 414.816 293.443 410.169C293.587 408.816 293.506 407.482 293.235 406.168L295.7 403.203C309.568 386.443 309.568 386.443 320.665 385.506ZM342.523 388.097C349.042 385.282 355.678 386.859 359.091 388.056C348.771 396.506 336.564 403.324 325.296 408.557C332.059 402.813 334.731 398.066 336.79 394.397C338.551 391.247 339.616 389.347 342.523 388.097ZM388.326 349.365C388.055 348.217 386.972 347.417 385.617 347.491C384.344 347.561 383.306 348.476 383.18 349.646C381.69 363.217 373.817 374.808 363.235 384.473C360.436 383.2 350.496 379.366 340.302 383.75C339.146 384.25 338.18 384.819 337.341 385.449C334.758 383.031 329.567 379.944 320.186 380.728C317.098 380.987 314.688 381.253 312.611 381.707C312.259 379.315 311.212 376.222 308.259 373.606C305.216 370.909 301.081 369.588 296.883 369.815C296.603 356.603 290.969 351.454 286.951 349.471C289.082 346.608 290.464 343.666 290.698 340.224C291.321 331.031 286.879 325.516 282.572 320.182C278.41 315.023 274.492 310.13 275.16 301.703C278.193 281.565 277.498 269.663 277.444 268.784C277.363 267.606 276.37 266.66 275.097 266.544C273.869 266.412 272.641 267.183 272.307 268.319C272.126 268.966 253.536 333.544 241.076 359.395C228.824 384.819 224.482 424.392 223.172 440.227C222.811 444.653 220.211 449.387 214.92 455.598C213.611 456.852 212.392 458.188 211.327 459.603C204.031 467.413 193.134 477.446 177.866 491.499L169.461 499.233C147.078 519.875 109.943 520.995 86.965 510.136C77.9002 505.857 71.1918 499.972 67.0296 492.955C66.7587 492.469 66.5239 492.056 66.3253 491.714C62.4249 484.498 61.1518 476.154 62.8041 467.134C65.1967 454.021 69.2867 443.911 75.2637 435.567C75.2998 435.509 75.345 435.464 75.3721 435.407C88.9964 416.508 112.399 406.705 148.144 391.75C157.272 387.934 167.619 383.603 178.57 378.774C265.689 340.365 252.742 291.85 243.117 272.773C242.07 270.691 240.869 268.692 239.614 266.735C239.542 266.611 239.469 266.486 239.379 266.378C227.723 248.48 208.537 235.989 202.506 232.356C203.86 229.08 205.756 225.19 208.338 220.976C223.94 242.06 241.058 253.887 259.278 256.085C269.58 257.329 277.959 255.372 286.834 253.307C296.657 251.001 306.842 248.637 320.737 250.537C333.16 252.245 345.223 256.94 356.581 264.496C356.662 264.554 356.761 264.57 356.843 264.612C356.924 264.653 356.996 264.695 357.078 264.728C357.412 264.86 357.764 264.952 358.116 264.952C358.396 264.952 358.676 264.91 358.937 264.827C359.037 264.794 359.118 264.736 359.208 264.703C359.353 264.637 359.506 264.587 359.642 264.504C359.66 264.487 359.669 264.471 359.687 264.454C359.714 264.438 359.741 264.438 359.759 264.421C359.994 264.247 360.183 264.039 360.337 263.815C360.364 263.774 360.373 263.724 360.4 263.674C360.517 263.467 360.608 263.251 360.662 263.019C360.689 262.92 360.68 262.828 360.689 262.729C360.698 262.538 360.698 262.356 360.671 262.165C360.644 262.057 360.617 261.958 360.581 261.85C360.554 261.759 360.545 261.667 360.508 261.584C352.148 244.275 340.519 232.14 325.946 225.497C316.25 221.084 308.304 220.429 300.612 219.799C294.057 219.259 287.881 218.753 281.056 215.826C280.008 215.378 278.988 214.88 277.986 214.349C280.803 215.386 283.638 216.074 286.419 216.274C294.129 216.813 299.691 215.535 304.593 214.399C313.794 212.267 321.739 210.426 342.704 220.877C342.731 220.885 342.758 220.885 342.785 220.893C343.146 221.067 343.543 221.167 343.95 221.167C344.266 221.167 344.573 221.109 344.871 221.001C344.979 220.968 345.06 220.902 345.16 220.852C345.313 220.777 345.467 220.727 345.611 220.62C345.638 220.595 345.647 220.562 345.683 220.545C345.71 220.52 345.746 220.503 345.783 220.479C345.963 220.321 346.099 220.13 346.225 219.931C346.234 219.906 346.261 219.89 346.27 219.873C346.415 219.616 346.487 219.342 346.532 219.069C346.541 218.977 346.532 218.894 346.532 218.803C346.532 218.612 346.514 218.422 346.469 218.223C346.442 218.123 346.406 218.024 346.369 217.924C346.324 217.841 346.315 217.75 346.27 217.667C345.855 216.929 335.896 199.445 320.954 193.34C313.008 190.097 305.894 190.047 299.619 189.998C293.849 189.956 288.875 189.915 284.577 187.36C278.112 183.52 254.583 148.494 266.926 126.033C268.759 122.998 270.546 120.36 272.307 118.345C282.943 106.219 312.773 66.1331 310.525 41.8479C309.92 35.3287 308.304 31.53 305.271 29.5394C302.21 27.5156 298.535 28.0133 296.034 28.5773L295.682 28.6602C268.993 34.6071 255.17 52.3151 248.038 67.7753C247.685 63.6697 246.71 59.2572 244.814 54.6789C244.796 54.6125 244.805 54.5462 244.778 54.4799C242.024 47.7451 241.916 41.4581 241.817 35.3619C241.645 25.2099 241.492 15.6219 228.924 7.26141C218.098 0.0620728 204.266 -2.01984 195.301 2.177C193.134 3.1972 191.409 4.53259 190.127 6.10022C188.827 4.51605 187.094 3.17236 184.891 2.14386C175.889 -2.05292 162.084 0.0454712 151.313 7.26965C140.198 14.7095 139.801 25.0938 139.386 36.0835C139.178 41.5908 138.934 47.239 137.372 52.8542C136.939 53.9822 136.578 55.1599 136.217 56.3377C136.145 56.5119 136.099 56.6861 136.027 56.8603C136 56.9266 136.009 56.9846 135.991 57.0427C134.745 61.3805 134.005 66.0833 133.743 71.1096C123.622 68.8619 112.182 66.4068 101.926 64.3914C75.5076 59.2075 56.9896 63.8025 50.2541 66.0087C47.9699 66.7552 46.1732 68.3393 45.0446 70.5787C42.5346 75.5469 43.3201 83.5093 47.2295 93.0144C51.7258 103.896 58.1182 107.878 73.5573 117.49C77.232 119.78 81.4665 122.417 86.3511 125.561C101.23 135.14 112.751 148.054 114.999 150.65C108.074 152.019 103.515 155.701 101.51 159.16C97.1765 166.625 101.962 176.329 107.397 185.701C107.424 186.63 107.695 188.082 108.887 189.566C110.386 191.424 112.877 192.768 116.29 193.606C116.317 200.423 118.764 205.475 121.599 211.164C124.47 216.929 128.028 224.07 130.249 235.532L108.417 285.729C34.6074 334.208 13.9587 382.125 4.21669 418.481C2.31163 425.614 0.578134 436.267 0.126698 448.658C0.0364103 448.971 0.0273816 449.288 0.081554 449.614C-1.1283 488.81 10.609 544.88 69.9188 563.846C82.7576 567.95 95.2985 570 107.523 570C145.959 569.997 181.279 549.661 213.006 509.362C213.051 509.324 213.105 509.304 213.142 509.263C213.232 509.164 213.277 509.039 213.349 508.927C216.13 505.37 218.893 501.686 221.629 497.819C221.656 497.784 221.701 497.771 221.728 497.737C222.089 497.228 222.513 496.623 222.956 495.981C222.974 495.964 222.983 495.948 222.992 495.929C248.886 458.662 265.382 445.613 299.754 435.218C400.56 404.732 388.868 351.61 388.326 349.365Z" fill="#C0FFD5"/>
<path d="M177.462 158.879C178.58 158.953 179.585 159.07 180.631 159.165C179.809 160.595 179.074 162.062 178.492 163.58C176.768 168.038 176.097 172.738 176.496 177.548C176.6 178.81 177.741 179.763 179.098 179.763C179.162 179.763 179.226 179.763 179.298 179.763C180.735 179.66 181.812 178.509 181.701 177.189C181.365 173.046 181.94 169.006 183.409 165.178C184.135 163.316 185.117 161.548 186.242 159.855C190.122 160.456 193.426 161.248 196.06 162.23C194.552 163.895 193.115 165.618 191.854 167.444C189.435 170.927 187.48 174.681 186.027 178.612C185.564 179.873 186.298 181.229 187.663 181.655C187.943 181.743 188.23 181.779 188.501 181.779C189.595 181.779 190.609 181.149 190.976 180.151C192.293 176.588 194.065 173.178 196.252 170.018C197.577 168.111 199.102 166.322 200.714 164.613C202.199 165.691 203.221 166.894 203.699 168.236C205.583 173.515 199.828 181.992 187.895 191.569L162.966 189.303C158.888 182.909 156.828 177.174 156.82 172.452C157.044 171.528 157.299 170.604 157.626 169.673C157.73 170.494 157.858 171.33 158.065 172.188C158.616 174.527 159.542 176.786 160.811 178.898C161.29 179.69 162.184 180.144 163.102 180.144C163.525 180.144 163.964 180.049 164.363 179.843C165.624 179.206 166.087 177.746 165.393 176.588C164.363 174.872 163.613 173.046 163.166 171.162C162.216 167.158 162.799 163.653 163.557 161.174C164.587 160.595 165.752 160.067 167.189 159.664C166.351 163.572 166.064 167.517 166.367 171.455C166.527 173.633 166.87 175.825 167.381 177.959C167.652 179.081 168.738 179.843 169.935 179.843C170.119 179.843 170.31 179.821 170.502 179.785C171.906 179.499 172.801 178.216 172.489 176.925C172.026 175.019 171.723 173.068 171.571 171.125C171.268 167.026 171.699 162.905 172.777 158.843C174.205 158.777 175.73 158.762 177.462 158.879ZM185.771 196.195C185.189 196.841 183.105 198.19 176.576 197.794C172.322 197.442 168.546 196.349 165.449 194.582C165.353 194.502 165.241 194.414 165.162 194.326L172.689 195.008L185.771 196.195ZM152.733 187.726C154.689 192.338 158.065 195.997 162.496 198.564C165.305 200.727 169.544 202.062 175.171 202.524C175.498 202.553 175.778 202.546 176.089 202.568C176.488 202.597 176.863 202.67 177.278 202.692C178.292 202.744 179.29 202.773 180.248 202.773C206.278 202.773 211.666 183.261 214.922 171.44C215.513 169.292 216.032 167.444 216.575 165.999C220.143 156.569 228.851 148.592 228.931 148.518C229.961 147.58 229.969 146.062 228.955 145.123C227.941 144.184 226.289 144.17 225.267 145.101C224.876 145.453 215.617 153.915 211.642 164.423C211.019 166.065 210.484 168.009 209.862 170.26C207.259 179.682 203.891 191.818 191.343 196.247C191.431 195.814 191.455 195.426 191.463 195.066C201.377 187.088 211.961 175.972 208.664 166.74C206.469 160.58 198.83 156.679 185.452 154.861C185.436 154.861 185.42 154.861 185.404 154.854C183.058 154.538 180.559 154.282 177.861 154.091C173.838 153.805 170.262 154.01 167.117 154.7C167.883 153.878 168.682 153.064 169.528 152.265C170.526 151.312 170.502 149.794 169.464 148.87C168.434 147.946 166.774 147.968 165.768 148.929C161.833 152.668 158.64 156.65 156.222 160.698C155.767 161.182 155.312 161.651 154.896 162.186C153.093 164.533 151.624 167.803 151.568 172.195C150.387 177.651 150.714 182.967 152.733 187.726Z" fill="#C0FFD5"/>
<path d="M261.251 413.445C265.264 408.078 269.62 405.193 273.633 405.193C274.025 405.193 274.4 405.222 274.783 405.276C277.364 405.641 278.905 407.144 279.08 407.665C280.329 412.949 276.123 415.825 266.472 421.821C262.333 424.399 257.437 427.444 252.174 431.4C253.864 425.388 257.012 419.103 261.251 413.445ZM269.403 425.797C279.179 419.717 286.241 415.326 284.176 406.645C283.635 404.329 280.612 401.431 276.082 400.613C272.276 399.94 264.723 400.322 256.945 410.726C250.658 419.119 246.569 428.858 245.72 437.442C245.62 438.43 246.203 439.374 247.169 439.812C247.535 439.978 247.927 440.059 248.318 440.059C248.959 440.059 249.601 439.841 250.092 439.422C257.187 433.389 263.957 429.18 269.403 425.797Z" fill="#C0FFD5"/>
<path d="M187.085 77.5768L187.333 77.6978C187.72 77.8828 188.139 77.9682 188.541 77.9682C189.486 77.9682 190.401 77.5056 190.865 76.6873C191.531 75.5131 191.036 74.0614 189.758 73.4495C189.742 73.4423 189.393 73.2645 189.37 73.2645C188.1 72.6738 186.589 73.1648 185.931 74.339C185.272 75.506 185.815 76.9648 187.085 77.5768Z" fill="#C0FFD5"/>
<path d="M191.541 93.0279C193.487 93.0279 195.105 92.4751 196.48 91.7284C196.582 91.6853 196.668 91.6136 196.769 91.5562C198.653 90.4577 199.981 88.9932 200.747 87.945C201.88 87.6866 202.74 86.7819 202.74 85.662C202.74 84.3338 201.568 83.2569 200.13 83.2569C198.371 83.2569 198.051 82.819 197.465 82.0293C196.949 81.3185 195.988 80.0047 194.034 80.0047C193.057 80.0047 192.174 80.3422 191.494 80.9093C190.822 80.3422 189.939 80.0047 188.962 80.0047C187.008 80.0047 186.039 81.3185 185.523 82.0293C184.961 82.7975 184.625 83.2569 182.866 83.2569C181.42 83.2569 180.256 84.3338 180.256 85.662C180.256 86.8178 181.162 87.7368 182.35 87.9593C182.811 88.5911 183.444 89.3737 184.304 90.1347C186.406 92.03 188.907 93.0279 191.541 93.0279Z" fill="#C0FFD5"/>
<path d="M194.527 77.97C194.931 77.97 195.352 77.8842 195.733 77.6983L195.99 77.5767C197.259 76.9617 197.796 75.5028 197.142 74.3371C196.488 73.1643 194.97 72.6709 193.701 73.2644C193.686 73.2644 193.328 73.4432 193.312 73.4503C192.036 74.0582 191.545 75.5099 192.215 76.6828C192.682 77.5052 193.585 77.97 194.527 77.97Z" fill="#C0FFD5"/>
</svg>
