<svg width="187" height="200" viewBox="0 0 187 200" fill="none" xmlns="http://www.w3.org/2000/svg">
<path d="M186.104 126.298C186.104 126.239 186.104 126.18 186.104 126.062C186.104 125.944 186.045 125.885 186.045 125.767C185.691 101.377 165.862 81.6519 141.37 81.6519C116.702 81.6519 96.637 101.731 96.637 126.416C96.637 151.102 116.702 171.181 141.37 171.181C143.613 171.181 145.738 170.826 147.921 170.531C140.308 175.787 131.22 180.098 120.597 182.933C83.5357 192.972 34.7303 183.819 13.2488 146.968C11.4194 143.779 7.34738 142.716 4.16057 144.546C0.973762 146.377 -0.0885293 150.452 1.74093 153.641C20.5667 185.945 56.9199 200 91.6797 200C102.834 200 113.81 198.524 124.02 195.807C162.026 185.531 185.691 159.074 185.986 126.712C185.986 126.653 185.986 126.534 185.986 126.475C186.104 126.357 186.104 126.298 186.104 126.298ZM109.974 126.357C109.974 108.995 124.079 94.9395 141.37 94.9395C158.662 94.9395 172.707 108.936 172.766 126.239C172.766 127.42 172.53 128.483 172.471 129.605C170.819 145.432 157.6 157.834 141.37 157.834C124.079 157.775 109.974 143.72 109.974 126.357Z" fill="black"/>
<path d="M0.955444 74.2099C1.30953 98.6 21.1386 118.325 45.6298 118.325C70.298 118.325 90.3631 98.2457 90.3631 73.5603C90.3631 48.8749 70.298 28.7958 45.6298 28.7958C43.3872 28.7958 41.2627 29.1502 39.0791 29.4455C46.692 24.1895 55.7803 19.8784 66.403 17.0437C103.464 7.00417 152.27 16.1578 173.751 53.0087C175.581 56.1978 179.653 57.2608 182.84 55.43C186.026 53.5993 187.089 49.5245 185.259 46.3355C160.414 3.69708 104.94 -7.16925 62.9801 4.22855C24.9745 14.5043 1.3095 40.9613 1.01443 73.324C1.01443 73.3831 1.01443 73.5012 1.01443 73.5603C1.01443 73.6193 1.01443 73.6193 1.01443 73.6783C1.01443 73.7374 1.01443 73.7965 1.01443 73.9146C0.896396 74.0327 0.955444 74.1508 0.955444 74.2099ZM77.0257 73.6193C77.0257 90.9817 62.9212 105.037 45.6298 105.037C28.3384 105.037 14.2928 91.0408 14.2338 73.7374C14.2338 72.5563 14.4698 71.4933 14.5289 70.3712C16.1813 54.5442 29.4007 42.1425 45.6298 42.1425C62.9212 42.2015 77.0257 56.3159 77.0257 73.6193Z" fill="black"/>
</svg>
