<svg width="480" height="352" viewBox="0 0 480 352" fill="none" xmlns="http://www.w3.org/2000/svg">
<path d="M472.176 48.2441C464.925 70.745 448.334 66.8261 423.23 60.9124C420.791 60.3371 418.267 59.744 415.681 59.1599C415.647 59.151 415.608 59.1422 415.568 59.1333C402.121 56.0936 386.791 53.2698 370.048 54.1697C369.761 54.1224 369.456 54.149 369.164 54.2318C356.206 55.0282 342.42 58.0855 328.026 65.0116C327.756 65.0736 327.502 65.1943 327.266 65.3717C316.9 70.4529 306.218 77.5439 295.312 87.2589C312.015 68.0572 333.48 47.2792 358.578 31.4062C386.397 13.8152 415.895 4.25742 438.323 4.25742C450.176 4.25742 460.057 6.93109 466.66 12.502C475.42 19.8944 477.325 32.2559 472.176 48.2441ZM405.929 163.101C395.597 181.919 366.938 176.283 328.916 163.626C328.454 163.467 327.959 163.308 327.508 163.148C327.497 163.145 327.486 163.148 327.48 163.145C325.587 162.511 323.688 161.867 321.75 161.203C326.426 162.13 331.097 162.939 335.699 163.617C335.919 163.694 336.145 163.744 336.375 163.748C336.375 163.748 336.375 163.748 336.381 163.748C336.409 163.748 336.432 163.73 336.46 163.73C336.584 163.748 336.708 163.768 336.832 163.785C336.899 163.803 336.95 163.847 337.018 163.859C341.074 164.565 344.77 164.954 348.15 165.093C366.916 166.678 382.898 164.836 389.541 156.069C410.751 128.07 427.957 77.7597 431.393 67.3222C437.714 68.6998 443.607 69.7298 448.965 69.8777C443.348 83.1863 420.915 135.84 405.929 163.101ZM326.178 167.353C328.438 168.138 330.787 168.926 333.204 169.735C345.925 173.996 360.583 178.909 372.009 187.42C371.834 187.39 371.659 187.352 371.485 187.328C359.637 185.593 347.254 192.844 342.15 200.864C334.026 213.636 333.683 229.138 334.235 237.427C328.674 232.927 318.021 226.34 304.241 227.561C292.269 228.586 281.791 236.211 277.543 246.988C276.54 249.525 275.971 252.116 275.751 254.71C273.419 244.801 274.123 232.033 274.811 219.577C275.689 203.656 276.512 188.621 270.433 181.211C266.039 175.858 260.507 174.589 256.315 174.533C259.532 167.97 259.802 157.674 257.081 143.318C259.988 144.321 264.461 145.832 270.084 147.614C279.036 150.698 287.796 153.835 296.376 156.904C306.765 160.622 316.731 164.187 326.178 167.351V167.353ZM388.831 254.099C386.769 253.506 384.335 253.075 381.969 253.197C383.631 250.473 385.214 247.711 386.667 244.919C387.051 248.549 387.924 251.697 388.831 254.099ZM377.389 280.652C373.84 279.861 368.871 279.357 364.612 281.015C366.888 276.603 369.975 271.791 373.231 266.824C373.935 271.723 375.856 276.993 377.389 280.652ZM374.668 327.236C378.499 331.438 381.806 335.068 381.321 337.576C380.882 339.831 377.394 342.459 370.949 345.381C366.307 347.488 363.288 348.081 361.716 347.181C359.676 346.016 358.944 341.392 358.014 335.537C356.595 326.578 354.651 314.305 346.674 300.684C340.854 290.747 330.821 289.195 320.196 287.552C308.855 285.793 296.247 283.798 285.306 271.678C279.74 264.64 278.354 256.493 281.436 248.682C285.086 239.424 294.174 232.867 304.579 231.973C322.686 230.433 335.299 244.261 335.423 244.4C336.066 245.123 337.08 245.312 337.913 244.866C338.747 244.424 339.209 243.453 339.035 242.485C338.995 242.26 335.17 219.809 345.66 203.322C349.947 196.588 360.826 190.244 370.904 191.713C377.062 192.613 382.042 196.329 385.631 202.514C385.794 202.8 385.974 203.069 386.132 203.361C386.42 203.889 386.667 204.476 386.938 205.04C387.231 205.665 387.535 206.285 387.811 206.934C388.211 207.92 388.572 208.968 388.921 210.042C394.048 227.255 381.828 245.928 370.949 262.492C362.578 275.24 355.35 286.247 356.871 295.2C359.49 310.587 368.257 320.21 374.668 327.236ZM325.018 300.742C324.432 297.909 323.564 294.876 322.336 292.362C325.553 292.881 328.533 293.436 331.238 294.256C328.494 295.593 326.449 298.125 325.018 300.742ZM302.072 301.728C300.455 297.452 297.717 290.924 293.937 284.252C299.216 287.294 304.59 289.018 309.762 290.169C306.703 293.247 303.976 297.948 302.072 301.728ZM239.628 265.73C236.462 260.311 229.78 247.386 226.102 229.792C230.186 232.239 235.521 232.26 239.628 232.26C243.735 232.26 249.07 232.239 253.155 229.792C249.476 247.386 242.789 260.311 239.628 265.73ZM208.823 181.211C202.739 188.621 203.567 203.656 204.446 219.577C205.128 232.029 205.832 244.798 203.499 254.707C203.285 252.11 202.716 249.523 201.719 246.988C197.466 236.211 186.987 228.586 175.021 227.561C161.252 226.349 150.588 232.929 145.016 237.427C145.574 229.138 145.23 213.639 137.101 200.864C131.997 192.844 119.596 185.614 107.764 187.328C107.596 187.352 107.416 187.39 107.244 187.42C118.671 178.909 133.32 173.996 146.047 169.735C148.464 168.926 150.813 168.138 153.072 167.353C153.078 167.353 153.078 167.351 153.078 167.351C162.526 164.187 172.492 160.622 182.88 156.904C191.46 153.835 200.226 150.698 209.172 147.614C214.795 145.832 219.268 144.321 222.175 143.318C219.454 157.662 219.719 167.956 222.93 174.518C218.744 174.586 213.206 175.875 208.823 181.211ZM177.179 301.728C175.275 297.948 172.537 293.25 169.478 290.172C174.655 289.024 180.029 287.297 185.319 284.255C181.539 290.924 178.801 297.452 177.179 301.728ZM154.233 300.742C152.802 298.122 150.757 295.593 148.013 294.256C150.717 293.436 153.698 292.881 156.92 292.362C155.686 294.876 154.819 297.909 154.233 300.742ZM121.236 335.537C120.311 341.392 119.577 346.016 117.543 347.181C115.969 348.081 112.952 347.488 108.304 345.381C101.86 342.459 98.3703 339.831 97.9348 337.576C97.448 335.068 100.757 331.438 104.587 327.236C110.992 320.21 119.762 310.587 122.38 295.2C123.904 286.247 116.672 275.24 108.301 262.492C97.4255 245.928 85.2083 227.261 90.3344 210.048C90.6803 208.973 91.0431 207.926 91.4447 206.937C91.7231 206.273 92.0329 205.639 92.3388 204.998C92.598 204.453 92.8397 203.88 93.118 203.367C93.278 203.063 93.4723 202.785 93.6408 202.487C97.2289 196.32 102.206 192.613 108.349 191.713C118.435 190.238 129.315 196.588 133.591 203.322C144.087 219.809 140.256 242.26 140.216 242.485C140.047 243.453 140.503 244.424 141.337 244.866C142.182 245.312 143.191 245.123 143.833 244.4C143.957 244.261 156.537 230.462 174.677 231.973C185.083 232.867 194.164 239.421 197.815 248.682C200.897 256.487 199.511 264.629 193.962 271.66C183.015 283.798 170.401 285.793 159.055 287.552C148.43 289.195 138.396 290.747 132.577 300.684C124.598 314.308 122.655 326.581 121.236 335.537ZM101.868 280.652C103.403 276.993 105.318 271.723 106.024 266.824C109.28 271.791 112.367 276.603 114.645 281.015C110.382 279.357 105.414 279.861 101.868 280.652ZM90.4245 254.099C91.3299 251.697 92.2014 248.549 92.5867 244.919C94.043 247.711 95.6289 250.473 97.2852 253.2C94.923 253.075 92.4853 253.506 90.4245 254.099ZM73.3234 163.101C58.3423 135.84 35.9045 83.1863 30.295 69.8777C35.6487 69.7298 41.5393 68.6998 47.8569 67.3222C51.2957 77.7597 68.5066 128.07 89.7129 156.069C96.3601 164.842 112.347 166.681 131.129 165.093C134.504 164.951 138.188 164.565 142.239 163.859C142.306 163.847 142.357 163.803 142.425 163.785C142.548 163.768 142.672 163.748 142.791 163.73C142.819 163.73 142.847 163.748 142.875 163.748C142.875 163.748 142.875 163.748 142.881 163.748C143.112 163.744 143.337 163.694 143.551 163.617C148.16 162.939 152.83 162.128 157.506 161.2C155.568 161.864 153.664 162.511 151.776 163.145C151.765 163.148 151.76 163.145 151.748 163.148C151.269 163.314 150.751 163.484 150.267 163.65C112.285 176.292 83.6562 181.907 73.3234 163.101ZM7.07804 48.2441C1.92716 32.2559 3.83361 19.8944 12.5951 12.502C31.6837 -3.61575 78.1538 4.51407 120.676 31.4062C145.754 47.2644 167.207 68.03 183.911 87.2263C172.999 77.5149 162.323 70.4234 151.951 65.348C151.726 65.1854 151.489 65.0737 151.236 65.0146C136.847 58.0886 123.069 55.043 110.112 54.2436C109.794 54.149 109.474 54.1253 109.156 54.1874C107.019 54.0721 104.896 53.9958 102.805 53.9958C88.535 53.9958 75.4012 56.4892 63.682 59.1392C63.6482 59.1451 63.6172 59.154 63.5834 59.1628C60.9992 59.747 58.4601 60.3371 56.0224 60.9124C30.9193 66.835 14.3297 70.742 7.07804 48.2441ZM207.764 119.332C190.277 104.66 172.204 97.2121 155.636 93.3376C157.376 90.3777 159.314 85.653 158.824 79.7339C158.599 77.0454 157.917 74.7112 157.061 72.7192C173.286 82.0564 190.249 96.7905 207.764 119.332ZM243.155 109.757C242.811 111.84 242.783 114.906 244.456 117.993C246.045 120.923 248.405 122.452 250.208 123.24C250.084 123.473 249.943 123.694 249.786 123.906H229.521C229.352 123.691 229.178 123.482 229.042 123.24C230.84 122.455 233.206 120.929 234.794 117.993C236.473 114.9 236.439 111.835 236.101 109.751C237.183 109.37 238.355 109.143 239.628 109.143C240.896 109.143 242.068 109.379 243.155 109.757ZM251.729 114.774C252.327 116.437 252.107 118.023 251.769 119.144C250.625 118.639 249.132 117.66 248.124 115.803C247.087 113.891 247.087 111.952 247.29 110.621C249.352 111.235 251.014 112.749 251.729 114.774ZM323.621 93.3376C307.052 97.2121 288.979 104.66 271.492 119.33C289.007 96.7905 305.97 82.0564 322.195 72.7192C321.339 74.7112 320.652 77.0454 320.432 79.7339C319.942 85.6565 321.88 90.3777 323.621 93.3376ZM356.584 73.5872C355.378 79.4708 355.986 84.662 357.045 88.6306C352.764 87.9524 346.758 86.1757 341.001 81.5958C335.649 77.3375 332.471 72.2533 330.646 68.2961C342.156 62.8718 353.265 60.0362 363.907 58.8879C361.04 62.173 357.919 67.0331 356.584 73.5872ZM413.303 63.1438C415.219 79.2024 395.293 89.1296 395.084 89.2271C394.036 89.7374 393.569 91.0417 394.048 92.1486C403.276 113.587 381.377 125.4 380.437 125.892C379.552 126.359 379.096 127.409 379.332 128.419C381.642 137.95 380.183 146.322 375.214 151.997C371.13 156.662 364.747 159.477 356.606 160.371C361.107 157.341 365.451 152.994 368.623 148.028C373.496 140.385 375.056 132.352 373.113 125.176C377.918 122.579 384.887 117.379 387.67 108.19C390.036 100.358 388.566 93.4115 387.27 89.5488C392.831 86.0426 406.261 74.9411 407.929 61.9837C409.743 62.3615 411.534 62.7482 413.303 63.1438ZM313.982 154.98C312.996 152.035 311.542 145.584 314.579 138.759C316.117 135.312 318.32 132.886 320.359 131.207C319.739 134.663 319.57 138.8 320.55 143.336C321.953 149.801 325.198 154.567 328.364 157.886C323.61 157.034 318.793 156.054 313.982 154.98ZM316.477 128.858C314.398 130.812 312.297 133.423 310.759 136.882C307.813 143.509 308.354 149.831 309.294 153.909C295.993 150.784 282.991 147.078 272.095 143.648C268.422 142.382 264.664 141.149 260.929 139.904C282.647 132.364 301.007 129.661 316.477 128.858ZM168.492 136.882C166.954 133.423 164.852 130.812 162.779 128.858C178.244 129.661 196.609 132.361 218.322 139.904C214.586 141.146 210.834 142.379 207.161 143.648C196.266 147.075 183.263 150.781 169.962 153.906C170.903 149.831 171.444 143.522 168.492 136.882ZM158.7 143.336C159.686 138.797 159.517 134.66 158.892 131.207C160.937 132.886 163.134 135.309 164.672 138.759C167.714 145.599 166.261 152.038 165.275 154.977C160.464 156.048 155.641 157.031 150.892 157.884C154.058 154.564 157.298 149.795 158.7 143.336ZM61.5699 64.1465C60.6814 79.5122 75.3195 89.2803 80.5858 92.278C73.0699 112.908 90.2048 125.647 95.4599 128.982C93.3512 139.334 95.2689 148.523 100.932 154.992C102.557 156.848 104.708 158.734 107.531 160.369C100.926 159.265 95.834 157.037 93.0166 153.318C72.817 126.648 55.7553 77.5675 52.0185 66.3839C53.6382 66.012 55.2804 65.6223 56.9474 65.2298C58.4685 64.8726 60.0093 64.5096 61.5699 64.1465ZM138.25 81.5958C132.498 86.1757 126.491 87.9524 122.214 88.6306C123.268 84.662 123.876 79.4708 122.675 73.5872C121.334 67.0331 118.215 62.173 115.35 58.8879C125.987 60.0332 137.095 62.8718 148.61 68.2961C146.785 72.2533 143.608 77.3346 138.25 81.5958ZM151.168 92.3697C144.858 91.1097 138.813 90.3334 133.135 89.829C135.647 88.6601 138.244 87.1613 140.802 85.125C146.171 80.849 149.568 75.8535 151.692 71.6745C153.005 73.6812 154.323 76.5086 154.621 80.1117C155.1 85.9338 152.655 90.292 151.168 92.3697ZM146.509 156.134C147.179 152.103 147.27 146.829 145.241 141.102C143.208 135.388 139.81 131.438 136.712 128.805C141.946 128.655 147.664 128.501 153.906 128.581C154.982 132.01 155.782 136.849 154.588 142.353C153.185 148.806 149.613 153.295 146.509 156.134ZM110.067 126.972C115.106 128.828 121.376 129.109 129.197 128.985C131.659 130.195 138.256 134.128 141.287 142.648C143.816 149.774 142.481 156.128 141.382 159.427C138.887 159.781 136.442 160.085 134.036 160.345C127.871 159.929 119.239 153.564 114.136 145.563C111.735 141.795 108.248 134.636 110.067 126.972ZM149.996 96.6752C150.154 100.34 149.686 105.263 147.162 110.258C143.422 117.668 137.202 121.224 133.016 122.865C133.906 118.751 134.335 113.209 132.628 107C131.005 101.063 127.987 96.7048 125.214 93.7006C132.718 94.1228 141.101 94.9073 149.996 96.6752ZM154.464 124.158C149.258 124.081 144.408 124.163 139.895 124.287C143.799 121.856 147.979 118.099 150.886 112.333C153.185 107.789 154.013 103.323 154.193 99.5523C155.9 101.373 157.686 103.961 158.542 107.467C160.52 115.532 156.103 122.074 154.464 124.158ZM95.8509 91.3959C100.007 92.7593 106.195 92.9805 114.293 93.2519C115.635 93.2962 117.032 93.3435 118.461 93.3967C121.061 95.3177 126.336 100.051 128.577 108.225C130.453 115.069 129.337 121.011 128.194 124.577C120.212 124.668 114.085 124.281 109.648 122.033C109.623 122.021 109.595 122.024 109.569 122.012C109.544 122 109.527 121.973 109.502 121.962C105.436 120.035 98.2266 115.502 95.6092 106.853C93.6633 100.423 94.7771 94.7276 95.8509 91.3959ZM217.933 135.102C194.852 127.282 175.596 124.866 159.534 124.287C161.821 120.469 164.492 113.98 162.627 106.363C161.883 103.323 160.588 100.83 159.162 98.8262C178.142 103.987 198.784 114.26 217.933 135.102ZM227.488 119.144C227.15 118.017 226.93 116.429 227.521 114.774C228.237 112.749 229.904 111.235 231.966 110.621C232.169 111.952 232.169 113.891 231.133 115.806C230.124 117.657 228.631 118.639 227.488 119.144ZM251.566 174.258C251.307 174.627 251.014 174.931 250.727 175.244C250.524 175.244 250.321 175.232 250.124 175.294L243.684 177.375C249.312 164.529 251.594 151.56 252.473 141.849C255.78 157.846 255.493 168.728 251.566 174.258ZM226.778 141.851C227.657 151.563 229.938 164.529 235.566 177.372L229.133 175.294C228.935 175.229 228.727 175.244 228.524 175.244C228.237 174.931 227.95 174.627 227.685 174.258C223.764 168.731 223.476 157.849 226.778 141.851ZM248.749 130.18C248.772 138.242 247.836 157.542 239.628 176.02C231.414 157.542 230.485 138.242 230.507 130.183C232.727 131.213 235.465 131.6 239.628 131.6C243.786 131.6 246.535 131.213 248.749 130.18ZM319.728 124.284C303.666 124.86 284.41 127.273 261.329 135.09C280.478 114.257 301.114 103.987 320.088 98.8291C318.663 100.83 317.373 103.323 316.629 106.363C314.765 113.965 317.441 120.463 319.728 124.284ZM325.345 128.581C331.587 128.501 337.305 128.655 342.539 128.805C339.446 131.434 336.043 135.385 334.015 141.102C331.981 146.832 332.083 152.109 332.747 156.14C329.638 153.304 326.071 148.812 324.669 142.353C323.474 136.852 324.274 132.013 325.345 128.581ZM346.246 122.865C342.049 121.224 335.829 117.668 332.094 110.258C329.564 105.254 329.102 100.335 329.26 96.6752C338.15 94.9073 346.533 94.1228 354.037 93.7006C351.265 96.7018 348.251 101.06 346.623 107C344.922 113.209 345.344 118.751 346.246 122.865ZM320.714 107.464C321.57 103.958 323.35 101.37 325.063 99.5493C325.238 103.318 326.071 107.78 328.364 112.33C331.277 118.099 335.457 121.856 339.361 124.287C334.849 124.166 329.998 124.081 324.793 124.158C323.153 122.062 318.736 115.502 320.714 107.464ZM365.119 145.563C360.009 153.573 351.361 159.943 345.198 160.348C342.803 160.088 340.358 159.787 337.874 159.43C336.781 156.131 335.44 149.777 337.97 142.648C340.995 134.12 347.598 130.195 350.054 128.985C357.879 129.109 364.15 128.828 369.192 126.972C371.006 134.636 367.519 141.798 365.119 145.563ZM383.405 91.3959C384.476 94.7276 385.591 100.42 383.648 106.853C380.932 115.827 373.023 120.41 369.654 122.012C369.642 122.015 369.642 122.024 369.631 122.027C369.625 122.03 369.614 122.03 369.609 122.033C365.175 124.281 359.045 124.674 351.062 124.579C349.919 121.014 348.798 115.072 350.674 108.225C352.922 100.039 358.2 95.3118 360.798 93.3967C362.223 93.3435 363.62 93.2962 364.961 93.2519C373.062 92.9805 379.248 92.7593 383.405 91.3959ZM324.635 80.1117C324.933 76.5145 326.252 73.6871 327.564 71.6745C329.688 75.8594 333.085 80.8549 338.454 85.125C341.012 87.1613 343.609 88.6601 346.122 89.829C340.443 90.3334 334.392 91.1097 328.088 92.3697C326.601 90.292 324.156 85.9338 324.635 80.1117ZM108.58 58.3688C111.169 60.4051 116.742 65.6696 118.55 74.5137C119.776 80.5244 118.733 85.7328 117.704 88.9374C116.588 88.8966 115.491 88.8612 114.428 88.8257C105.673 88.5336 98.7612 88.3059 95.6204 86.5653C95.5782 86.5416 95.5303 86.5446 95.4881 86.5239C95.4515 86.5062 95.4239 86.4707 95.3872 86.4559C92.7693 85.4052 76.9391 73.8142 75.511 61.1548C85.8606 59.2013 96.914 57.8497 108.58 58.3688ZM71.3241 61.9837C72.9916 74.9411 86.4234 86.0426 91.985 89.5488C90.6887 93.4115 89.2183 100.361 91.5884 108.19C94.3551 117.338 101.269 122.529 106.142 125.17C104.193 132.346 105.754 140.379 110.63 148.025C113.801 152.997 118.148 157.344 122.653 160.377C114.512 159.483 108.124 156.665 104.039 151.997C99.0733 146.322 97.608 137.95 99.9195 128.419C100.164 127.409 99.7032 126.359 98.8176 125.892C97.8812 125.4 75.9831 113.587 85.2054 92.1486C85.6809 91.0417 85.2195 89.7374 84.1655 89.2271C83.957 89.1296 64.0222 79.2408 65.9535 63.1438C67.7225 62.7482 69.5106 62.3586 71.3241 61.9837ZM254.732 201.156C252.974 203.31 247.375 203.31 239.628 203.31C231.876 203.31 226.282 203.31 224.519 201.156C223.961 200.478 223.713 199.398 223.736 197.931C224.513 187.91 226.919 182.923 228.417 180.745C232.383 183.182 236.862 183.212 239.623 183.212C239.623 183.212 239.623 183.212 239.628 183.212C242.389 183.212 246.867 183.182 250.834 180.747C252.343 182.94 254.738 187.927 255.515 197.913C255.543 199.392 255.295 200.475 254.732 201.156ZM255.273 215.542C255.149 216.977 254.997 218.384 254.822 219.777C253.543 227.249 247.713 227.833 239.628 227.833C231.538 227.833 225.713 227.249 224.434 219.777C224.259 218.384 224.102 216.977 223.978 215.542C223.668 211.951 223.527 208.735 223.499 205.79C226.896 207.702 232.237 207.737 239.628 207.737C247.02 207.737 252.36 207.702 255.757 205.79C255.729 208.732 255.588 211.951 255.273 215.542ZM422.306 65.2298C423.974 65.6223 425.619 66.009 427.236 66.3839C423.5 77.5645 406.442 126.642 386.239 153.315C383.417 157.04 378.324 159.271 371.71 160.374C374.544 158.737 376.696 156.851 378.324 154.992C383.98 148.523 385.901 139.334 383.794 128.982C389.05 125.647 406.182 112.908 398.667 92.278C403.935 89.2803 418.571 79.5122 417.686 64.1465C419.247 64.5096 420.785 64.8726 422.306 65.2298ZM403.743 61.1548C402.312 73.8142 386.487 85.4052 383.867 86.4559C383.834 86.4707 383.805 86.5062 383.772 86.5239C383.727 86.5446 383.676 86.5416 383.636 86.5653C380.498 88.3059 373.58 88.5336 364.826 88.8257C363.766 88.8612 362.668 88.8966 361.552 88.9374C360.521 85.7328 359.479 80.5244 360.707 74.5137C362.516 65.6696 368.087 60.4051 370.673 58.3688C382.341 57.8497 393.394 59.2013 403.743 61.1548ZM469.302 9.04959C448.903 -8.16605 400.363 -0.184113 356.398 27.6139C302.455 61.7242 265.132 118.111 255.11 134.327C254.512 131.88 253.836 129.324 253.104 126.683C253.983 125.521 254.574 124.16 254.89 122.691C255.611 121.327 257.222 117.553 255.684 113.224C254.411 109.644 251.403 107.042 247.769 106.204C247.515 101.73 248.242 97.9618 250.045 95.0759C253.729 89.2212 260.771 87.8696 268.219 86.4441C276.236 84.9068 284.517 83.3193 288.5 75.5844C289.345 73.9437 291.926 68.1098 289.684 61.963C289.391 61.1637 286.602 54.1283 279.543 52.9186C278.805 52.8004 272.225 51.8531 268.354 56.9994C267.943 57.5546 264.388 62.562 266.783 67.5788C268.732 71.6744 273.571 73.6457 278.281 72.2681C279.408 71.9405 280.061 70.7213 279.746 69.5412C279.441 68.3634 278.27 67.6616 277.154 68.0039C274.416 68.8004 271.588 67.7645 270.551 65.5987C269.301 62.9724 271.582 59.8623 271.673 59.7382C274.044 56.5808 278.388 57.2153 278.867 57.2886C283.689 58.1181 285.667 63.3383 285.751 63.5536C287.391 68.0448 285.238 72.6128 284.788 73.4837C281.768 79.3472 274.822 80.6781 267.464 82.0889C259.47 83.6202 251.205 85.2019 246.529 92.6411C244.372 96.0793 243.358 100.326 243.465 105.275C242.253 104.944 240.992 104.716 239.628 104.716C238.265 104.716 237.003 104.946 235.792 105.271C235.899 100.323 234.885 96.0763 232.727 92.6381C228.051 85.2018 219.786 83.6202 211.792 82.0889C210.874 81.9115 209.956 81.7377 209.06 81.5544C202.761 80.2737 197.105 78.6123 194.463 73.4778C194.463 73.4778 194.463 73.4719 194.457 73.4689C193.995 72.572 191.877 68.0246 193.511 63.5506C193.528 63.4973 195.539 58.1181 200.384 57.2915C200.587 57.259 205.161 56.5188 207.584 59.7382C207.606 59.7707 209.967 62.9516 208.699 65.6017C207.668 67.7674 204.835 68.8004 202.102 68.0039C200.987 67.6646 199.815 68.3634 199.505 69.5412C199.195 70.7213 199.849 71.9405 200.97 72.2681C205.685 73.6457 210.525 71.6745 212.479 67.5818C214.885 62.5295 211.308 57.5458 210.896 56.9965C207.02 51.8443 200.452 52.7915 199.708 52.9215C192.474 54.1579 189.68 61.6562 189.567 61.9689C189.28 62.76 189.077 63.5417 188.936 64.3151C188.925 64.3535 188.931 64.389 188.919 64.4244C188.243 68.2458 189.162 71.71 189.984 73.8438C190.007 73.897 190.024 73.9319 190.04 73.9822C190.176 74.3127 190.3 74.6225 190.418 74.8797C190.559 75.1895 190.677 75.4343 190.756 75.5844C194.733 83.3193 203.02 84.9068 211.032 86.4441C218.485 87.8696 225.521 89.2212 229.206 95.0759C231.02 97.9618 231.741 101.73 231.488 106.204C227.854 107.042 224.845 109.644 223.572 113.224C222.034 117.529 223.64 121.316 224.355 122.682C224.676 124.158 225.268 125.518 226.158 126.683C225.414 129.324 224.744 131.88 224.141 134.327C214.124 118.111 176.801 61.7242 122.855 27.6139C78.885 -0.187073 30.3457 -8.16605 9.9518 9.04959C2.79589 15.0905 -4.2051 27.0415 3.08263 49.6637C7.60986 63.7131 15.4463 68.895 25.6332 69.7653C29.4122 78.7601 53.7002 136.256 69.6677 165.311C75.311 175.577 85.1497 179.641 98.2356 179.641C102.973 179.638 108.158 179.081 113.7 178.119C104.655 183.108 96.5399 189.58 90.9895 198.557C89.7721 200.416 88.6415 202.573 87.6268 205.061C87.5057 205.347 87.3598 205.606 87.2443 205.896C87.0477 206.388 86.9209 206.885 86.7519 207.377C86.5299 208.006 86.3051 208.628 86.0995 209.295C86.0944 209.313 86.0995 209.331 86.0945 209.345C83.9153 217.151 84.77 225.021 87.326 232.782C91.2144 245.896 84.4945 256.732 84.4268 256.844C83.8984 257.67 83.9627 258.774 84.5869 259.527C85.2139 260.279 86.2404 260.5 87.095 260.066C89.9208 258.632 98.6035 255.478 101.34 259.653C103.999 263.723 99.5342 276.178 96.0925 283.072C95.688 283.886 95.8058 284.881 96.385 285.569C96.9675 286.253 97.8953 286.501 98.7105 286.168C98.8091 286.132 108.178 282.473 114.083 285.548C116.127 286.616 117.474 288.381 118.218 290.921C118.387 292.161 118.413 293.338 118.23 294.422C115.834 308.492 107.571 317.557 101.539 324.175C96.7004 329.487 92.8791 333.68 93.7985 338.453C94.5658 342.428 98.4041 345.714 106.632 349.445C110.41 351.159 113.38 352 115.772 352C117.232 352 118.477 351.687 119.56 351.068C123.401 348.872 124.238 343.584 125.397 336.265C126.761 327.667 128.622 315.89 136.171 303.002C136.847 301.843 137.602 300.837 138.419 299.937C141.281 297.853 143.816 297.216 145.923 298.063C150.143 299.768 152.537 307.037 153.1 309.693C153.326 310.708 154.182 311.425 155.157 311.425C155.207 311.425 155.258 311.422 155.309 311.419C156.351 311.342 157.179 310.481 157.264 309.389C157.821 302.2 160.21 291.936 163.252 291.361C165.934 290.848 171.911 299.848 175.534 308.252C175.894 309.082 176.677 309.61 177.567 309.551C178.435 309.5 179.184 308.896 179.46 308.028C179.528 307.813 186.373 286.244 198.35 273.231C198.356 273.227 198.356 273.222 198.356 273.218C200.113 271.127 201.82 268.777 203.471 266.142C210.609 254.743 209.612 236.736 208.654 219.322C207.832 204.32 207.049 190.153 212.017 184.1C215.899 179.373 221.054 178.75 224.428 178.959C221.533 183.634 217.871 194.039 219.775 215.944C219.905 217.413 220.085 218.839 220.26 220.267C220.265 220.323 220.248 220.376 220.254 220.432C220.271 220.506 220.288 220.568 220.305 220.641C224.023 250.13 237.307 270.194 237.899 271.076C238.299 271.663 238.941 272.012 239.628 272.012C240.31 272.012 240.952 271.663 241.352 271.076C241.944 270.194 255.233 250.13 258.957 220.641C258.969 220.568 258.991 220.506 259.002 220.432C259.008 220.376 258.991 220.323 258.997 220.267C259.171 218.839 259.346 217.413 259.476 215.944C261.385 194.033 257.724 183.628 254.822 178.954C258.197 178.741 263.352 179.367 267.233 184.1C272.202 190.153 271.425 204.32 270.597 219.32C269.639 236.736 268.647 254.743 275.78 266.142C277.43 268.777 279.137 271.124 280.895 273.218C280.901 273.222 280.901 273.227 280.906 273.231C292.883 286.244 299.728 307.813 299.796 308.028C300.066 308.896 300.821 309.5 301.683 309.551C302.607 309.613 303.362 309.079 303.723 308.252C307.345 299.848 313.289 290.842 316.004 291.361C319.035 291.936 321.429 302.2 321.987 309.389C322.072 310.481 322.905 311.342 323.942 311.419C323.993 311.422 324.043 311.425 324.094 311.425C325.069 311.422 325.931 310.708 326.15 309.693C326.714 307.037 329.114 299.768 333.333 298.063C335.44 297.213 337.97 297.853 340.832 299.937C341.649 300.837 342.404 301.843 343.085 303.002C350.629 315.89 352.493 327.664 353.857 336.265C355.012 343.584 355.857 348.872 359.693 351.068C360.775 351.687 362.026 352 363.485 352C365.873 352 368.842 351.159 372.623 349.445C380.848 345.714 384.684 342.428 385.451 338.453C386.374 333.68 382.549 329.487 377.71 324.175C371.682 317.557 363.417 308.492 361.023 294.422C360.837 293.335 360.865 292.161 361.034 290.918C361.778 288.381 363.13 286.616 365.175 285.548C371.073 282.473 380.453 286.132 380.544 286.168C381.36 286.498 382.29 286.253 382.87 285.569C383.451 284.881 383.569 283.886 383.163 283.072C379.721 276.178 375.254 263.723 377.918 259.653C381.163 254.693 392.053 260.016 392.16 260.069C393.022 260.5 394.048 260.276 394.667 259.523C395.287 258.771 395.355 257.67 394.825 256.844C394.757 256.732 388.036 245.893 391.929 232.779C394.487 225.021 395.338 217.151 393.163 209.348C393.157 209.331 393.163 209.313 393.157 209.295C392.943 208.607 392.712 207.97 392.487 207.321C392.318 206.846 392.2 206.371 392.014 205.896C391.895 205.609 391.749 205.35 391.631 205.066C390.611 202.573 389.479 200.404 388.256 198.539C382.701 189.571 374.594 183.108 365.558 178.119C371.102 179.084 376.279 179.641 381.017 179.641C394.104 179.641 403.946 175.577 409.585 165.311C425.557 136.256 449.844 78.7601 453.624 69.7653C463.809 68.895 471.646 63.7131 476.17 49.6637C483.46 27.0415 476.463 15.0905 469.302 9.04959Z" fill="#C0FFD5"/>
</svg>
