<svg width="355" height="385" viewBox="0 0 355 385" fill="none" xmlns="http://www.w3.org/2000/svg">
<path d="M161.855 141.652C178.7 141.652 192.407 155.479 192.407 172.478C192.407 189.473 178.7 203.301 161.855 203.301C145.015 203.301 131.308 189.473 131.308 172.478C131.308 155.479 145.015 141.652 161.855 141.652ZM161.855 206.76C180.594 206.76 195.833 191.381 195.833 172.478C195.833 153.572 180.594 138.193 161.855 138.193C143.122 138.193 127.883 153.572 127.883 172.478C127.883 191.381 143.122 206.76 161.855 206.76Z" fill="#C0FFD5"/>
<path d="M307.698 141.584C304.572 141.856 302.085 139.297 302.078 136.242C302.078 133.978 303.467 132.045 305.495 131.275C305.863 131.847 306.206 132.458 306.509 133.108C307.388 134.994 307.84 137.056 307.917 139.262C307.892 140.018 307.833 140.789 307.698 141.584ZM306.206 148.705C300.083 148.305 295.309 143.192 295.309 136.984C295.309 136.982 295.309 136.982 295.309 136.979C296.479 136.274 297.641 135.548 298.784 134.801C298.707 135.271 298.655 135.751 298.655 136.242C298.655 141.07 302.524 144.997 307.297 145.048C307.02 146.254 306.658 147.478 306.206 148.705ZM281.313 144.457C284.342 143.007 288.121 141.102 292.015 138.9C292.467 142.532 294.192 145.767 296.756 148.14C292.642 147.568 287.423 146.475 281.313 144.457ZM296.95 124.24C297.874 124.646 299.275 125.367 300.761 126.426C299.682 128.686 297.912 131.135 294.986 133.087C294.282 133.526 293.559 133.966 292.81 134.409C292.803 134.414 292.797 134.423 292.79 134.427C290.187 135.967 287.52 137.429 284.969 138.755C290.879 132.343 295.245 126.576 296.95 124.24ZM308.99 151.02C310.682 146.834 311.45 142.927 311.347 139.313C311.47 135.089 310.236 131.287 307.678 128.16C307.646 128.121 307.594 128.109 307.562 128.072C310.656 125.16 312.833 122.172 313.278 119.301C313.427 118.358 312.787 117.473 311.851 117.325C310.921 117.16 310.036 117.821 309.894 118.764C309.564 120.878 307.814 123.226 305.224 125.622C305.108 125.515 304.998 125.409 304.882 125.306C305.825 122.354 305.863 120.09 305.863 119.896C305.863 118.941 305.095 118.172 304.152 118.167C304.152 118.167 304.152 118.167 304.145 118.167C303.202 118.167 302.44 118.939 302.434 119.889C302.434 120.019 302.408 121.28 301.969 123.055C299.288 121.293 297.04 120.556 296.86 120.498C296.149 120.27 295.368 120.537 294.935 121.153C294.857 121.268 286.842 132.716 275.719 143.242C275.002 143.565 274.331 143.858 273.73 144.119C272.858 144.489 272.451 145.507 272.819 146.385C273.097 147.042 273.73 147.439 274.395 147.439C274.621 147.439 274.847 147.395 275.067 147.3C275.409 147.155 276.004 146.897 276.798 146.544C290.187 151.471 299.992 152.212 304.623 152.212C306.27 152.212 307.233 152.122 307.504 152.094C307.517 152.094 307.517 152.092 307.53 152.092C307.549 152.089 307.594 152.085 307.601 152.085C308.221 152.011 308.757 151.603 308.99 151.02Z" fill="#C0FFD5"/>
<path d="M342.797 209.18C341.715 210.548 339.768 211.32 337.008 211.477C336.994 211.479 336.981 211.486 336.961 211.486C336.948 211.488 336.941 211.481 336.927 211.483C334.114 211.781 331.051 212.448 327.814 213.148C326.539 213.425 325.256 213.702 323.973 213.962C325.437 212.826 326.948 211.583 328.493 210.305C331.944 207.446 336.672 203.533 338.304 203.533C339.62 203.533 342.098 204.894 343.797 206.065C343.797 206.81 343.663 208.085 342.797 209.18ZM341.125 221.91C340.319 222.994 339.526 223.771 338.747 224.385C331.723 227.933 321.75 218.18 321.65 218.081C321.589 218.02 321.515 217.995 321.448 217.946C323.872 217.539 326.263 217.027 328.533 216.531C331.528 215.88 334.362 215.272 336.894 214.976C338.297 215.54 341.292 217.093 341.89 219.06C341.991 219.378 342.28 220.343 341.125 221.91ZM267.382 126.483C272.244 119.594 278.368 112.746 284.634 110.442C294.432 107.687 300.496 106.855 304.257 106.855C309.475 106.855 310.24 108.457 310.341 108.761C310.784 110.117 310.656 110.532 310.67 110.532C310.213 110.945 307.675 110.928 305.633 110.922C301.248 110.903 294.62 110.862 286.548 113.338C279.913 115.372 273.057 120.864 267.382 126.483ZM330.998 264.844C323.261 274.235 304.935 276.248 276.535 270.834C262.742 268.205 253.36 264.302 248.733 262.059C244.146 253.199 238.606 244.119 232.401 235.277C247.403 229.171 255.959 221.534 257.792 212.553C258.88 207.267 257.316 203.633 255.67 199.786C254.126 196.185 252.534 192.459 252.856 186.671C253.273 179.078 256.563 174.967 260.049 170.616C263.561 166.238 267.187 161.709 267.295 153.818C267.375 147.771 265.3 143.943 263.098 139.887C262.701 139.158 262.298 138.402 261.895 137.623C267.738 130.576 278.06 119.564 287.548 116.656C295.124 114.334 301.194 114.355 305.62 114.392C309.508 114.413 312.107 114.424 313.437 112.589C314.525 111.076 314.054 109.066 313.611 107.685V107.682C311.805 102.139 302.027 101.952 283.586 107.143C273.909 110.693 264.998 123.158 259.552 132.246C258.692 129.783 257.98 126.924 257.624 123.368C257.013 117.288 257.51 111.048 259.048 104.812C267.953 98.436 277.576 92.1389 287.864 86.2016C289.066 88.6227 291.86 92.7013 298.078 96.1626C302.712 98.745 307.386 98.3851 311.153 98.0945C316.271 97.698 319.38 97.4561 321.2 103.308C323.436 110.514 323.04 118.042 322.717 124.093C322.603 126.253 322.496 128.294 322.516 130.108C322.623 139.723 331.998 148.13 340.278 155.548C346.02 160.692 351.44 165.555 351.567 169.032C351.755 174.187 347.027 178.995 343.24 182.86C340.278 185.876 338.129 188.055 338.082 190.349C338.042 192.263 338.297 196.205 340.231 200.411C339.566 200.217 338.908 200.074 338.304 200.074C335.578 200.074 331.971 202.947 326.317 207.63C322.442 210.838 317.688 214.764 315.257 215.205C313.517 215.302 311.805 215.288 310.153 215.073C309.206 214.956 308.353 215.625 308.232 216.572C308.111 217.518 308.776 218.385 309.723 218.507C310.912 218.659 312.127 218.726 313.363 218.726C313.813 218.726 314.276 218.673 314.733 218.657C314.86 218.684 314.981 218.728 315.109 218.728C315.156 218.728 315.203 218.726 315.25 218.724C315.451 218.707 315.673 218.638 315.881 218.597C316.962 218.525 318.037 218.419 319.118 218.276C318.594 218.959 318.621 219.93 319.245 220.548C319.601 220.905 326.089 227.239 333.2 228.415C332.441 229.531 332.032 231.113 332.354 233.616C332.562 235.192 333.086 236.99 333.691 239.07C335.732 246.095 338.526 255.72 330.998 264.844ZM264.924 314.69C259.035 330.9 255.603 346.703 254.327 358.908C251.513 359.657 249.076 361.317 247.33 363.566C245.819 359.927 242.743 356.996 238.687 355.873C235.309 354.937 231.75 355.385 228.701 357.139C227.855 357.626 227.089 358.214 226.384 358.857C225.524 354.559 222.59 350.773 218.238 349.081C213.92 347.395 209.253 348.188 205.754 350.757C205.667 349.821 205.485 348.889 205.197 347.974C204.122 344.598 201.812 341.843 198.696 340.22C195.573 338.592 192.008 338.292 188.663 339.371C187.757 339.661 186.904 340.06 186.098 340.529C186.111 339.59 186.031 338.642 185.836 337.7C185.131 334.227 183.13 331.239 180.195 329.283C177.267 327.33 173.762 326.652 170.31 327.356C169.383 327.55 168.497 327.854 167.644 328.232C167.751 327.298 167.771 326.35 167.684 325.391C167.348 321.861 165.676 318.674 162.97 316.412C159.397 313.429 154.703 312.691 150.58 314.019C150.788 313.097 150.909 312.149 150.922 311.18C150.922 310.763 150.909 310.348 150.875 309.938C155.133 309.763 159.673 308.252 164.582 306.604C174.386 303.307 185.5 299.567 199.959 303.675C209.918 306.5 218.117 312.176 225.357 317.185C232.965 322.446 239.775 327.16 246.705 327.16C248.807 327.16 250.929 326.724 253.085 325.737C255.771 324.504 257.47 322.869 258.074 322.223C261.445 318.64 263.057 313.212 262.869 306.089C262.634 297.164 259.579 286.087 254.461 274.152C254.267 273.465 253.971 272.801 253.602 272.163C252.836 270.442 252.024 268.703 251.178 266.954C256.59 269.236 264.911 272.142 275.897 274.233C281.283 275.259 286.313 276.008 291.014 276.506C282.169 284.332 271.438 296.758 264.924 314.69ZM267.409 371.726C267.409 377.14 263.044 381.541 257.685 381.541C252.359 381.541 248.035 377.204 247.968 371.85C248.189 370.944 248.31 370.037 248.344 369.138C249.479 364.986 253.212 361.912 257.685 361.912C263.044 361.912 267.409 366.314 267.409 371.726ZM244.543 371.384C243.838 373.861 242.246 375.927 240.023 377.202C237.767 378.495 235.141 378.832 232.636 378.138C230.131 377.444 228.043 375.807 226.76 373.531C225.471 371.253 225.142 368.606 225.827 366.077C226.518 363.549 228.137 361.442 230.393 360.144C231.884 359.29 233.529 358.855 235.195 358.855C236.054 358.855 236.927 358.973 237.78 359.21C242.092 360.402 244.892 364.366 244.892 368.671C244.69 369.547 244.57 370.453 244.543 371.384ZM222.576 364.997C220.649 370.042 215.001 372.563 209.998 370.619C207.581 369.674 205.66 367.833 204.612 365.438C203.558 363.047 203.498 360.383 204.424 357.939C204.445 357.91 204.451 357.877 204.471 357.845C205.982 354.006 209.642 351.649 213.517 351.649C214.679 351.649 215.861 351.859 217.009 352.306C222.006 354.257 224.51 359.95 222.576 364.997ZM201.309 356.512C198.844 361.32 192.961 363.21 188.207 360.737C185.896 359.532 184.191 357.497 183.398 355C182.606 352.502 182.828 349.847 184.016 347.52C184.023 347.513 184.023 347.503 184.03 347.497C185.225 345.177 187.233 343.459 189.704 342.666C190.678 342.35 191.678 342.196 192.672 342.196C194.203 342.196 195.728 342.565 197.125 343.293C199.435 344.495 201.141 346.53 201.926 349.028C202.719 351.525 202.504 354.183 201.309 356.512ZM181.068 345.769C179.638 347.958 177.442 349.452 174.903 349.975C172.351 350.501 169.759 349.996 167.59 348.55C163.118 345.569 161.882 339.477 164.83 334.963C164.843 334.948 164.85 334.93 164.864 334.917C166.294 332.751 168.47 331.268 171.002 330.745C171.653 330.609 172.318 330.545 172.969 330.545C174.856 330.545 176.696 331.098 178.308 332.172C180.477 333.616 181.954 335.827 182.478 338.393C183.002 340.962 182.498 343.579 181.068 345.769ZM148.391 334.209C144.261 330.759 143.676 324.563 147.088 320.392C147.094 320.39 147.094 320.385 147.101 320.383C148.753 318.365 151.083 317.12 153.669 316.871C153.985 316.844 154.294 316.828 154.602 316.828C156.859 316.828 159.028 317.612 160.781 319.08C162.789 320.75 164.024 323.108 164.273 325.719C164.514 328.329 163.735 330.879 162.083 332.897C158.665 337.07 152.521 337.656 148.391 334.209ZM144.576 318.047C144.576 318.049 144.569 318.049 144.569 318.052C140.735 321.838 134.563 321.769 130.816 317.904C129.889 316.948 129.218 315.836 128.761 314.66C128.842 314.535 128.929 314.413 129.01 314.287C129.372 313.738 129.715 313.187 130.057 312.631C130.145 312.488 130.239 312.347 130.326 312.204C130.662 311.649 130.984 311.088 131.306 310.528C131.387 310.385 131.474 310.242 131.555 310.099C131.864 309.541 132.159 308.979 132.455 308.418C132.529 308.273 132.609 308.128 132.683 307.983C132.965 307.429 133.227 306.876 133.489 306.325C133.563 306.168 133.643 306.011 133.711 305.856C133.959 305.31 134.187 304.768 134.416 304.224C134.483 304.061 134.557 303.897 134.624 303.731C134.839 303.203 135.027 302.675 135.215 302.146C135.282 301.969 135.349 301.789 135.41 301.609C135.416 301.591 135.423 301.57 135.43 301.549C136.195 301.346 136.974 301.231 137.767 301.231C140.292 301.231 142.817 302.216 144.717 304.176C148.471 308.038 148.404 314.259 144.576 318.047ZM94.734 355.158C92.4037 356.268 90.1003 357.247 87.8171 358.145C83.7475 359.537 76.2732 361.121 68.8123 357.679C60.3239 353.761 56.3618 345.514 55.3612 341.259C52.0101 327.077 65.797 307.978 80.9471 295.34C97.8164 281.263 115.277 275.146 125.451 279.76C127.029 280.477 130.85 282.598 132.656 286.822C132.777 289.524 133.073 292.059 133.583 294.394C132.529 304.531 123.919 317.277 114.142 327.012C100.966 340.13 86.7022 347.105 79.4361 343.966C75.6217 342.316 74.1846 338.158 73.8421 336.922C70.9746 326.766 83.0557 310.881 95.889 301.987C103.847 296.479 111.006 294.464 114.142 296.843C116.143 298.361 117.096 300.555 116.989 303.371C116.673 311.247 108.501 321.628 96.6546 329.2C94.5057 330.572 92.7261 331.01 91.7658 330.406C90.8323 329.818 90.4025 328.098 90.6443 325.924C91.2016 320.881 95.1638 314.582 101.658 312.301C102.551 311.985 103.021 310.999 102.712 310.097C102.396 309.196 101.423 308.713 100.529 309.032C92.3366 311.916 87.8976 319.606 87.2328 325.538C86.8366 329.154 87.817 331.997 89.9458 333.339C91.4635 334.296 94.1833 334.87 98.4879 332.121C111.442 323.844 120.051 312.612 120.414 303.507C120.568 299.548 119.111 296.288 116.203 294.079C111.67 290.638 103.565 292.486 93.9483 299.138C80.0271 308.782 67.0864 325.635 70.5449 337.872C70.9948 339.477 72.8818 344.893 78.0863 347.146C88.7438 351.753 105.472 340.506 116.553 329.473C117.103 328.921 117.661 328.357 118.211 327.778C118.453 327.527 118.695 327.261 118.937 327.005C119.245 326.675 119.554 326.35 119.863 326.016C120.179 325.67 120.488 325.313 120.803 324.958C121.032 324.7 121.267 324.445 121.488 324.185C121.844 323.775 122.2 323.353 122.549 322.936C122.731 322.721 122.912 322.514 123.093 322.299C123.469 321.843 123.839 321.374 124.208 320.909C124.356 320.724 124.504 320.544 124.651 320.357C125.027 319.88 125.39 319.394 125.759 318.907C125.894 318.728 126.035 318.55 126.169 318.368C126.283 318.211 126.397 318.049 126.518 317.89C127.029 318.755 127.64 319.576 128.372 320.328C128.916 320.888 129.5 321.379 130.118 321.822C124.363 331.317 113.672 346.164 94.734 355.158ZM50.4992 362.908C44.2135 361.225 39.4522 357.084 36.7392 350.909C32.0115 340.157 33.818 324.808 41.5811 309.85C49.1964 295.146 72.0021 261.828 118.93 269.819C125.639 271.632 130.762 273.098 133.079 273.772C132.858 276.177 132.71 278.498 132.636 280.742C132.502 280.604 132.374 280.472 132.24 280.341C132.092 280.191 131.938 280.053 131.79 279.912C131.562 279.702 131.333 279.502 131.112 279.313C130.944 279.177 130.789 279.047 130.628 278.92C130.407 278.752 130.198 278.593 129.983 278.441C129.822 278.328 129.675 278.215 129.513 278.111C129.305 277.97 129.11 277.844 128.909 277.719C128.768 277.632 128.627 277.541 128.493 277.466C128.284 277.339 128.09 277.233 127.895 277.129C127.794 277.076 127.687 277.014 127.593 276.966C127.324 276.825 127.069 276.703 126.861 276.606C113.06 270.34 92.3298 281.353 78.7646 292.672C63.9637 305.02 48.0816 325.362 52.0236 342.059C53.5615 348.58 58.9069 356.911 67.3818 360.824C69.195 361.661 71.0082 362.223 72.7811 362.601C64.9442 364.119 57.5101 364.225 50.4992 362.908ZM36.5646 358.161C29.7148 354.654 23.2612 349.494 17.9023 343.245C17.8956 343.238 17.8956 343.233 17.8956 343.226C11.3816 333.609 11.0727 318.935 17.0562 303.971C24.1678 286.191 42.1653 265.031 71.3775 258.786C81.0747 260.497 91.7926 262.919 101.611 265.34C74.9972 266.75 52.1579 281.976 38.5389 308.246C30.3057 324.132 28.459 340.607 33.603 352.311C34.6506 354.683 35.9803 356.772 37.5249 358.613C37.2093 358.458 36.8802 358.324 36.5646 358.161ZM5.24362 293.908C9.61539 278.893 22.724 265.462 38.6329 259.69C43.8777 257.788 49.4314 256.753 55.1463 256.612C57.5773 256.79 60.2299 257.08 63.037 257.465C37.0011 265.764 20.6758 285.681 13.8798 302.679C9.83033 312.792 8.52078 322.844 9.89074 331.543C3.87368 320.183 1.44267 306.952 5.24362 293.908ZM38.8479 206.415C40.9028 195 46.846 186.761 51.9094 181.546C56.7043 186.424 62.5669 189.415 68.8928 191.107C65.4075 195.283 62.6744 199.849 60.8545 204.769C53.0645 225.814 63.3123 246.287 68.6108 254.816C64.0174 254.067 59.7128 253.504 55.9051 253.206C52.7959 250.225 34.3552 231.334 38.8479 206.415ZM47.2489 133.564C49.8209 128.494 52.675 126.541 55.6835 124.473C58.7995 122.335 62.0229 120.126 64.8837 114.733C69.7659 105.535 67.7848 98.0579 65.4881 89.3972C64.6218 86.1094 63.7152 82.6116 63.0974 78.756C62.2512 70.1509 63.2586 64.011 66.1127 60.5172C68.0601 58.1354 70.9679 56.8052 75.0107 56.4454C78.4423 56.1317 83.0155 57.3954 88.3005 60.5477C86.118 68.0923 87.3604 75.8347 88.6766 83.8936C90.3622 94.2808 92.0881 105.01 87.3201 117.343C83.4453 115.349 79.5167 113.47 75.5345 111.759C74.6682 111.39 73.6541 111.793 73.2848 112.672C72.9087 113.55 73.3183 114.567 74.1914 114.941C78.1669 116.65 82.0888 118.524 85.9434 120.516C82.5521 127.691 78.3079 131.932 74.5271 135.665C69.7591 140.38 65.6425 144.45 64.9777 152.485C64.9173 153.208 64.8971 153.931 64.8971 154.656C62.5064 153.929 60.1224 153.159 57.772 152.324C56.8789 152.015 55.8984 152.483 55.5828 153.383C55.2672 154.284 55.7439 155.271 56.6371 155.587C59.4576 156.588 62.3117 157.485 65.1926 158.335C66.6499 168.411 73.916 178.887 86.9239 189.588C82.0954 189.731 77.2603 189.459 72.6468 188.527C72.4252 188.433 72.1834 188.377 71.9417 188.384C64.8166 186.832 58.269 183.653 53.2122 177.912C43.0853 166.419 40.4663 146.938 47.2489 133.564ZM87.1992 21.0705C92.5045 18.0707 97.8499 16.2099 101.093 16.2099C101.295 16.2099 101.49 16.2187 101.671 16.233C112.94 17.1159 122.361 29.3089 130.104 46.4018C126.102 42.742 120.609 39.3987 113.84 39.3987C113.833 39.3987 113.819 39.3987 113.813 39.3987C103.209 39.4129 95.7883 47.635 93.082 51.1702C91.5441 53.1854 90.3689 55.2095 89.4825 57.2505C83.7206 53.9389 78.6437 52.6454 74.7085 52.9984C69.7054 53.4456 66.0253 55.1817 63.4667 58.3156C63.4667 58.3204 63.46 58.3272 63.4533 58.334C65.0314 50.4478 70.5583 30.4826 87.1992 21.0705ZM153.179 13.4913C153.313 13.429 161.728 9.58286 174.4 6.67114C171.371 13.0489 168.611 19.5486 166.16 26.1641C158.659 28.1699 151.52 31.211 144.932 35.2645C140.634 37.9092 136.591 40.9971 132.851 44.4232C130.635 39.6453 128.284 35.2394 125.786 31.3147C134.06 24.0242 143.26 18.0246 153.179 13.4913ZM178.61 5.77396C185.44 4.43158 193.25 3.45853 201.517 3.45853C212.624 3.45853 222.664 4.23782 231.797 5.59372C229.728 7.77768 227.7 10.005 225.733 12.2784C225.706 12.3062 225.679 12.3387 225.659 12.3685C218.695 20.4179 212.376 28.9904 206.822 37.9899C204.713 41.4071 202.719 44.8819 200.818 48.4055C200.818 48.4096 200.818 48.4143 200.812 48.4218C188.751 70.8638 181.088 95.4341 177.965 121.648C176.213 121.422 174.433 121.678 172.795 122.451C171.848 122.896 171.022 123.514 170.29 124.221C168.738 121.083 165.562 118.9 161.855 118.9C159.33 118.9 157.054 119.935 155.368 121.581C154.233 102.162 155.516 82.6827 159.229 63.5841C163.118 43.5653 169.638 24.1252 178.597 5.80853C178.603 5.797 178.604 5.78546 178.61 5.77396ZM235.886 6.29709C241.803 7.93692 246.188 12.7236 246.893 18.5158C247.766 25.6471 242.501 30.612 241.897 31.1534C241.527 31.4854 241.319 31.9625 241.326 32.4632C241.333 32.9633 241.554 33.4336 241.924 33.7589C243.562 35.1676 244.744 36.8095 245.429 38.6336C247.262 43.4941 245.57 49.8278 241.91 53.817C240.715 54.6978 239.573 55.6364 238.398 56.5376C238.358 56.5586 238.317 56.5864 238.277 56.6047C235.06 58.1862 230.984 58.2235 227.103 56.6989C223.664 55.3504 220.703 52.911 218.594 49.7635C226.666 52.3438 233.415 51.7096 236.074 47.8885C237.209 46.2541 237.538 44.0776 237.028 41.5711C236.269 37.8727 233.388 34.8037 229.299 33.0168C230.581 32.2952 231.73 31.3723 232.71 30.282C234.825 27.9185 235.927 24.9254 235.745 22.0754C235.504 18.419 233.194 15.041 229.701 12.9635C231.709 10.6941 233.771 8.4736 235.886 6.29709ZM263.83 13.904C260.559 17.0305 258.726 21.5082 259.062 26.0808C259.431 31.0287 262.191 35.3641 266.307 37.8957C260.217 41.4051 254.287 45.1448 248.532 49.1312C249.841 45.2715 250.009 41.0547 248.632 37.4065C247.941 35.5715 246.886 33.893 245.476 32.3989C247.544 30.0489 251.131 24.8841 250.298 18.091C249.841 14.3492 248.169 10.9408 245.644 8.24588C252.272 9.82474 258.323 11.7363 263.83 13.904ZM267.395 15.3934C270.31 16.6504 273.063 17.969 275.662 19.35C274.319 20.6734 272.882 22.6635 272.338 25.4926C271.646 29.067 272.781 31.974 273.789 33.7405C272.479 34.4412 271.143 35.1148 269.84 35.8364C265.69 34.1512 262.815 30.3071 262.48 25.8226C262.184 21.7596 264.098 17.782 267.395 15.3934ZM278.865 21.1023C282.055 22.9447 284.983 24.8726 287.696 26.8485C284.023 28.5317 280.403 30.3023 276.824 32.1475C276.085 30.9162 275.192 28.7851 275.702 26.1546C276.199 23.5722 277.791 21.9419 278.865 21.1023ZM197.675 73.211C199.509 78.9613 197.38 85.7794 192.122 91.0066C191.504 91.6178 191.443 92.5976 191.967 93.2915C192.303 93.732 192.807 93.9678 193.33 93.9678C193.626 93.9678 193.921 93.8912 194.19 93.732C205.217 87.2045 211.57 76.1112 210.771 64.7835C210.28 57.8312 207.191 52.4888 204.411 48.9862C206.097 45.8895 207.869 42.8322 209.73 39.8188C214.961 31.3405 220.891 23.247 227.405 15.6197C230.212 17.0834 232.146 19.6542 232.321 22.3064C232.448 24.2268 231.662 26.2908 230.165 27.9625C228.298 30.0489 225.538 31.3031 222.597 31.4048C221.69 31.4373 220.965 32.1753 220.938 33.0907C220.918 34.0055 221.603 34.7807 222.509 34.8566C228.284 35.3526 232.878 38.4025 233.677 42.3015C233.986 43.7984 233.838 45.0778 233.261 45.9037C231.521 48.4143 224.766 48.9381 215.673 44.9673C215.042 44.6929 214.303 44.8264 213.806 45.3136C213.302 45.7974 213.148 46.5374 213.396 47.1879C215.693 53.077 220.233 57.716 225.86 59.9223C228.009 60.7686 230.225 61.2003 232.381 61.2531C226.834 65.7904 221.455 70.5547 216.284 75.5671C203.538 87.9288 192.055 101.685 182.082 116.532C184.513 99.7898 188.878 83.7669 195.097 68.5809C196.265 69.9917 197.145 71.5346 197.675 73.211ZM200.939 72.1526C200.106 69.5214 198.609 67.1674 196.561 65.1013C198.434 60.7754 200.449 56.5193 202.631 52.3391C204.814 55.4053 206.97 59.6831 207.352 65.0302C207.829 71.8321 205.351 78.5648 200.603 84.0176C201.98 80.057 202.141 75.9337 200.939 72.1526ZM243.126 278.155C239.694 279.522 236.477 277.175 231.085 272.916C227.27 269.907 222.946 266.495 217.412 264.24C216.7 263.951 215.995 263.703 215.29 263.469C213.927 259.263 212.288 255.152 210.421 251.39C209.266 249.061 208.084 246.78 206.889 244.539C209.663 245.178 212.201 245.959 214.478 246.674C220.595 248.59 225.424 250.105 229.016 246.598C230.554 245.095 231.461 242.976 231.736 240.29C237.068 248.122 241.843 256.091 245.866 263.869C245.919 264.06 246.013 264.232 246.134 264.396C247.108 266.292 248.048 268.18 248.928 270.048C247.571 274.42 245.624 277.159 243.126 278.155ZM250.533 279.603C248.908 282.794 245.53 285.093 243.388 285.239C235.792 285.737 232.273 282.838 227.814 279.154C225.068 276.88 222.032 274.415 217.761 272.559C217.405 270.927 216.996 269.287 216.546 267.65C221.435 269.725 225.437 272.852 228.969 275.641C233.241 279.011 237.041 282.012 241.145 282.012C242.206 282.012 243.28 281.815 244.388 281.371C247.101 280.288 249.291 277.968 250.922 274.461C250.956 274.542 250.99 274.622 251.03 274.703C251.715 276.537 251.178 278.34 250.533 279.603ZM215.183 301.646C219.521 296.645 220.192 287.141 218.54 276.767C221.307 278.271 223.503 280.06 225.645 281.83C229.943 285.384 234.02 288.755 241.709 288.753C242.32 288.753 242.958 288.732 243.616 288.688C247.182 288.448 251.56 285.153 253.582 281.185C253.595 281.15 253.609 281.116 253.629 281.081C257.168 290.42 259.25 299.027 259.444 306.184C259.605 312.357 258.309 316.95 255.59 319.844C255.227 320.233 253.864 321.577 251.661 322.587C244.18 326.011 236.733 320.86 227.297 314.333C222.476 310.996 217.224 307.383 211.288 304.434C212.987 303.754 214.263 302.707 215.183 301.646ZM136.974 269.356C137.888 271.162 139.07 272.833 140.587 274.33C148.901 282.515 163.118 282.967 168.309 281.916C174.554 280.656 179.638 278.833 184.124 277.221C192.619 274.173 199.334 271.765 210.159 273.823C211.858 274.145 213.356 274.576 214.739 275.07C216.747 285.785 216.197 295.223 212.604 299.368C210.374 301.932 207.111 302.424 202.625 300.869C202.558 300.846 202.497 300.858 202.43 300.844C201.913 300.68 201.416 300.493 200.885 300.343C196.057 298.974 191.551 298.43 187.334 298.43C178.06 298.43 170.216 301.065 163.5 303.325C158.309 305.07 153.971 306.507 150.123 306.502C149.492 304.748 148.498 303.129 147.168 301.755C144.697 299.212 141.46 297.902 138.183 297.8C135.329 290.961 135.638 280.965 136.974 269.356ZM113.524 228.113C115.565 219.565 119.286 211.645 124.564 204.52C124.41 205.346 124.316 206.187 124.389 207.05C124.611 209.586 125.793 211.883 127.727 213.518C129.446 214.972 131.568 215.749 133.784 215.749C134.06 215.749 134.342 215.735 134.624 215.71C135.665 215.62 136.645 215.323 137.579 214.91C137.908 217.827 139.546 220.494 142.112 222.039C141.407 224.717 140.728 227.398 140.104 230.084C139.99 230.317 139.936 230.57 139.936 230.827C139.607 232.238 139.298 233.649 138.996 235.06C138.928 235.233 138.881 235.408 138.875 235.593C137.901 240.151 137.048 244.724 136.309 249.3C136.283 249.418 136.256 249.534 136.256 249.656C136.007 251.189 135.745 252.72 135.524 254.253C134.738 259.815 133.979 265.187 133.428 270.274C130.856 269.531 125.954 268.134 119.642 266.433C119.635 266.433 119.628 266.425 119.622 266.425C119.615 266.423 119.608 266.423 119.601 266.421C118.332 266.08 116.989 265.723 115.619 265.36C112.57 256.691 109.877 243.442 113.524 228.113ZM91.5038 192.763C91.5844 192.763 91.6583 192.722 91.7389 192.71C93.0954 192.608 94.4385 192.482 95.7749 192.334C90.7249 198.861 86.9978 206.289 84.9361 214.062C79.7921 233.476 85.7823 250.331 90.1003 259.072C84.4123 257.793 78.6908 256.6 73.2445 255.614C69.4637 250.191 55.7977 228.307 64.0644 205.98C65.9448 200.893 68.8593 196.194 72.6737 191.965C76.6224 192.699 80.6852 193.005 84.7481 193.005C86.9575 193.005 89.1602 192.894 91.3427 192.738C91.3964 192.742 91.4501 192.763 91.5038 192.763ZM72.7005 160.36C74.5204 166.747 78.7176 172.331 81.3702 175.862C85.198 180.939 89.8048 185.315 95.0496 188.993C94.0624 189.104 93.0752 189.203 92.0746 189.288C78.6034 178.868 70.8135 168.836 68.8257 159.373C70.115 159.721 71.4111 160.041 72.7005 160.36ZM91.6046 123.569C88.643 128.351 85.1846 132.13 81.9947 135.584C76.0583 142.011 70.9276 147.593 71.9618 156.624C70.7597 156.316 69.5644 155.981 68.369 155.647C68.322 154.683 68.3153 153.724 68.3892 152.774C68.9533 146.02 72.4722 142.541 76.9313 138.137C80.8934 134.217 85.3458 129.765 88.9788 122.127C89.8586 122.602 90.7315 123.08 91.6046 123.569ZM120.696 47.4596C113.322 46.4018 105.143 49.4822 99.8579 55.2975C98.0111 57.3331 96.7553 59.4364 95.936 61.615C94.7474 60.6927 93.5856 59.8627 92.444 59.097C93.2498 57.1393 94.3243 55.2027 95.795 53.2816C98.1925 50.1511 104.733 42.8714 113.819 42.8578C113.826 42.8578 113.833 42.8578 113.84 42.8578C120.857 42.8578 126.444 47.2915 130.044 51.2509C127.176 49.2586 124.013 47.9326 120.696 47.4596ZM139.009 70.2756C139.023 70.3217 139.056 70.3562 139.069 70.4023C140.869 76.1227 142.535 82.0139 144.073 87.9444C140.157 84.6959 134.154 81.1635 127.68 82.7173C124.725 83.4234 121.912 85.3112 119.279 88.309C112.282 77.5688 105.297 69.598 98.7969 63.9738C99.4416 61.7417 100.57 59.6343 102.39 57.6353C106.929 52.6365 113.927 49.9823 120.219 50.8842C128.6 52.0829 135.974 59.6919 139.009 70.2756ZM148.364 58.0805C145.55 59.9596 143.025 62.2031 140.829 64.7672C138.821 58.809 136.659 53.0838 134.335 47.7415C138.136 44.1515 142.286 40.9416 146.712 38.2182C152.339 34.7577 158.403 32.0939 164.743 30.1851C162.063 37.8496 159.78 45.6476 157.906 53.5561C154.522 54.6057 151.312 56.1087 148.364 58.0805ZM151.56 104.12C148.948 92.3788 145.812 80.1993 142.118 68.6893C144.402 65.6664 147.121 63.0583 150.251 60.9624C152.373 59.5489 154.636 58.3963 157.007 57.4991C156.61 59.3023 156.214 61.1054 155.858 62.9201C153.219 76.5151 151.782 90.2991 151.56 104.12ZM140.997 131.868C140.641 129.112 142.179 126.371 144.865 125.381C145.543 125.132 146.235 125.01 146.933 125.01C147.8 125.01 148.659 125.204 149.465 125.584C150.519 126.075 151.345 126.869 151.943 127.834C148.088 128.706 144.422 130.073 140.997 131.868ZM118.238 192.929C118.54 191.804 119.151 190.828 119.984 190.063C121.502 193.729 123.51 197.13 125.874 200.245C123.241 201.096 120.286 200.049 118.843 197.533C118.043 196.131 117.828 194.495 118.238 192.929ZM116.593 174.55C116.774 178.559 117.412 182.449 118.554 186.129C117.439 186.083 116.358 185.76 115.418 185.098C114.101 184.169 113.222 182.777 112.946 181.179C112.443 178.322 114.041 175.606 116.593 174.55ZM109.454 179.779C105.546 174.616 103.35 169.645 102.813 164.902C105.029 165.031 107.238 165.112 109.454 165.151C109.562 168.087 111.012 170.773 113.302 172.476C111.019 174.176 109.568 176.851 109.454 179.779ZM96.2315 164.392C97.2523 164.492 98.2731 164.573 99.3005 164.655C99.9049 171.64 103.666 178.937 110.542 186.426C109.857 186.567 109.172 186.706 108.467 186.844C100.926 179.156 96.8024 171.621 96.2315 164.392ZM83.5661 162.681C86.615 163.219 89.6974 163.639 92.7865 164.008C93.1894 171.736 97.0911 179.652 104.418 187.61C103.061 187.852 101.664 188.085 100.254 188.301C93.9214 184.453 88.4819 179.578 84.0967 173.763C81.7395 170.63 78.4624 166.251 76.6291 161.305C78.9325 161.815 81.2493 162.274 83.5661 162.681ZM99.4214 128.183C102.336 130.012 105.19 131.955 108.01 133.954C105.626 139.585 102.658 143.066 99.9855 146.168C96.6009 150.081 93.4244 153.805 92.8469 160.535C89.9324 160.182 87.0314 159.781 84.1571 159.274C81.2829 158.769 78.4221 158.156 75.568 157.496C75.5345 157.284 75.4673 157.076 75.4337 156.864C74.2585 149.027 78.778 144.136 84.4996 137.943C87.8439 134.323 91.4702 130.362 94.5929 125.278C96.2114 126.23 97.8298 127.185 99.4214 128.183ZM117.09 118.667C117.049 123.283 117.009 127.643 115.626 132.624C115.411 133.382 115.176 134.079 114.934 134.759C114.014 134.062 113.107 133.355 112.174 132.675C112.342 132.202 112.517 131.759 112.678 131.261C115.021 123.866 115.129 117.684 115.216 112.232C115.324 105.92 115.445 100.38 119.044 94.4448C119.702 95.531 120.367 96.6349 121.032 97.7766C117.244 105.773 117.143 112.331 117.09 118.667ZM118.238 152.025C117.828 150.459 118.043 148.822 118.843 147.417C119.648 146.013 120.944 145.008 122.496 144.588C123.013 144.45 123.543 144.381 124.067 144.381C124.678 144.381 125.283 144.521 125.867 144.722C123.503 147.83 121.502 151.226 119.984 154.891C119.151 154.125 118.54 153.149 118.238 152.025ZM112.946 163.774C113.222 162.177 114.101 160.786 115.418 159.855C116.358 159.188 117.446 158.831 118.567 158.778C117.419 162.472 116.774 166.378 116.593 170.406C114.041 169.348 112.443 166.631 112.946 163.774ZM99.3408 160.157C99.3005 160.498 99.2871 160.842 99.2602 161.185C98.2596 161.105 97.2523 161.015 96.2517 160.916C96.7083 155.255 99.2938 152.23 102.564 148.441C105.183 145.404 108.313 141.741 110.865 135.988C111.764 136.654 112.644 137.348 113.537 138.03C111.603 141.856 109.172 144.367 106.788 146.791C103.337 150.302 100.079 153.618 99.3408 160.157ZM102.746 160.547C103.35 155.199 105.942 152.564 109.219 149.227C111.596 146.811 114.175 144.141 116.297 140.157C117.231 140.897 118.131 141.662 119.051 142.421C117.761 143.235 116.653 144.323 115.874 145.688C114.612 147.892 114.276 150.461 114.927 152.919C115.203 153.938 115.659 154.865 116.224 155.718C115.25 156.006 114.31 156.417 113.45 157.021C111.805 158.185 110.616 159.825 109.971 161.709C107.554 161.67 105.136 161.573 102.719 161.427C102.739 161.134 102.712 160.837 102.746 160.547ZM137.438 133.961C134.14 136.097 131.145 138.653 128.506 141.554C127.962 140.533 127.7 139.386 127.808 138.206C127.942 136.592 128.701 135.126 129.93 134.085C131.058 133.133 132.428 132.665 133.791 132.665C135.094 132.665 136.37 133.127 137.438 133.961ZM123.134 101.484C127.599 109.571 132.005 118.897 136.215 129.573C133.348 128.799 130.172 129.368 127.727 131.434C125.793 133.071 124.611 135.37 124.389 137.906C124.302 138.955 124.416 139.984 124.658 140.98C124.04 140.938 123.422 140.971 122.798 141.042C121.153 139.647 119.48 138.275 117.781 136.933C118.198 135.884 118.587 134.782 118.923 133.56C120.434 128.137 120.474 123.338 120.515 118.699C120.568 113.112 120.629 107.79 123.134 101.484ZM147.081 100.244C148.894 108.07 150.479 115.761 151.849 123C151.547 122.806 151.251 122.605 150.916 122.451C148.632 121.369 146.067 121.256 143.696 122.13C141.46 122.953 139.741 124.553 138.687 126.516C134.261 115.487 129.628 105.905 124.933 97.6337C125.961 95.7546 127.076 94.3018 128.802 93.467C135.329 90.3127 145.019 98.4082 147.081 100.244ZM127.317 90.3473C125.377 91.2878 124.027 92.681 122.966 94.23C122.382 93.2455 121.797 92.2839 121.213 91.3413C123.557 88.4499 125.994 86.6766 128.472 86.0837C136.457 84.1843 144.207 92.6044 145.684 94.3106C145.718 94.4679 145.758 94.6244 145.798 94.7816C141.138 91.3989 133.61 87.3061 127.317 90.3473ZM99.7168 81.9868C98.7297 76.801 97.8567 72.1919 98.1186 68.0137C104.102 73.5105 110.549 81.131 117.023 91.2166C112.033 98.4936 111.912 105.146 111.791 112.171C111.697 117.641 111.603 123.297 109.414 130.207C109.367 130.352 109.313 130.475 109.266 130.618C106.627 128.764 103.954 126.954 101.235 125.245C99.6094 124.226 97.9507 123.246 96.2919 122.273C97.2523 120.435 98.1522 118.483 98.9379 116.329C103.739 103.128 101.604 91.899 99.7168 81.9868ZM137.458 211.004C136.551 211.712 135.483 212.164 134.322 212.267C132.744 212.394 131.165 211.912 129.93 210.868C128.701 209.826 127.942 208.362 127.808 206.748C127.7 205.564 127.962 204.419 128.506 203.399C131.152 206.302 134.147 208.864 137.458 211.004ZM205.472 152.025C205.177 153.149 204.565 154.125 203.733 154.888C202.215 151.226 200.214 147.83 197.85 144.722C198.434 144.521 199.032 144.381 199.65 144.381C200.174 144.381 200.697 144.45 201.221 144.588C202.772 145.008 204.069 146.013 204.868 147.42C205.674 148.822 205.888 150.459 205.472 152.025ZM208.299 159.855C209.609 160.786 210.489 162.177 210.771 163.774C211.274 166.629 209.676 169.348 207.117 170.406C206.943 166.378 206.291 162.472 205.143 158.778C206.264 158.831 207.352 159.188 208.299 159.855ZM205.15 186.152C206.298 182.468 206.943 178.569 207.117 174.55C209.676 175.606 211.274 178.322 210.771 181.179C210.274 184.015 207.883 186.017 205.15 186.152ZM205.472 192.929C205.888 194.495 205.674 196.131 204.868 197.536C203.431 200.047 200.476 201.098 197.837 200.243C200.207 197.132 202.208 193.731 203.733 190.063C204.559 190.828 205.177 191.804 205.472 192.929ZM222.032 237.149C220.535 238.611 217.983 237.87 213.228 236.326C209.757 235.201 205.586 233.866 200.59 233.33C196.319 226.081 192.33 219.953 189.476 215.729C189.624 215.735 189.778 215.749 189.932 215.749C192.149 215.749 194.271 214.972 195.983 213.518C198.817 211.12 199.865 207.395 199.059 203.99C199.254 204.004 199.448 204.029 199.643 204.029C200.194 204.029 200.744 203.962 201.282 203.868C208.763 211.077 215.928 219.157 222.529 227.643C223.711 232.374 223.55 235.664 222.032 237.149ZM202.793 237.126C206.372 237.746 209.495 238.749 212.174 239.619C217.311 241.288 221.374 242.609 224.416 239.635C225.934 238.148 226.693 236.012 226.727 233.208C227.197 233.847 227.667 234.482 228.123 235.122C228.788 239.462 228.291 242.492 226.633 244.113C224.598 246.1 221.408 245.224 215.492 243.37C212.369 242.392 208.796 241.295 204.74 240.582C204.089 239.411 203.444 238.261 202.793 237.126ZM178.845 219.572C176.152 220.566 173.231 219.462 171.754 217.121C175.615 216.25 179.288 214.882 182.713 213.084C183.076 215.841 181.538 218.581 178.845 219.572ZM196.93 236.55C197.481 236.559 198.011 236.593 198.548 236.628C199.186 237.73 199.831 238.86 200.482 240.006C198.542 239.838 196.493 239.78 194.345 239.884C186.165 240.285 180.914 242.791 176.28 245.002C175.796 245.233 175.333 245.452 174.863 245.671L174.567 243.26C176.166 242.621 177.717 241.879 179.295 241.122C184.124 238.805 189.18 236.391 196.93 236.55ZM186.259 211.004C189.563 208.866 192.558 206.307 195.204 203.406C196.493 205.878 195.99 209 193.78 210.868C192.551 211.912 191 212.404 189.395 212.267C188.227 212.164 187.159 211.714 186.259 211.004ZM196.467 233.103C188.092 233.091 182.666 235.676 177.824 238C176.562 238.604 175.346 239.185 174.124 239.701L171.928 222.003C173.386 222.888 175.064 223.395 176.797 223.395C177.865 223.395 178.953 223.211 180.02 222.821C182.969 221.737 185.023 219.302 185.823 216.462C188.421 220.273 192.256 226.086 196.467 233.103ZM144.865 219.572C142.179 218.581 140.641 215.841 140.997 213.084C144.422 214.882 148.102 216.25 151.963 217.121C150.479 219.464 147.558 220.566 144.865 219.572ZM171.25 244.371L171.586 247.08C168.591 248.217 165.575 248.809 161.607 248.171C154.737 247.06 148.303 242.701 142.461 235.272C142.521 234.984 142.588 234.696 142.656 234.408C148.706 240.442 155.173 243.981 161.909 244.915C163.124 245.083 164.273 245.16 165.361 245.16C167.509 245.16 169.437 244.857 171.25 244.371ZM156.019 217.829C157.933 218.081 159.874 218.253 161.855 218.253C163.836 218.253 165.777 218.081 167.691 217.829C167.1 220.545 164.723 222.593 161.855 222.593C158.988 222.593 156.617 220.545 156.019 217.829ZM161.855 226.051C164.521 226.051 166.905 224.912 168.611 223.109L170.82 240.894C168.309 241.618 165.622 241.936 162.379 241.486C155.838 240.58 149.519 236.821 143.549 230.358C144.113 227.988 144.717 225.623 145.335 223.259C145.866 223.349 146.389 223.397 146.92 223.395C149.351 223.395 151.695 222.434 153.441 220.757C154.992 223.882 158.162 226.051 161.855 226.051ZM212.597 266.28C213.087 267.92 213.524 269.548 213.913 271.164C212.926 270.885 211.899 270.634 210.791 270.424C199.045 268.19 191.598 270.864 182.975 273.963C178.382 275.612 173.634 277.316 167.637 278.526C162.459 279.564 149.922 278.685 142.985 271.854C139.096 268.028 137.653 262.866 138.673 256.518C142.065 264.27 146.665 269.737 152.447 272.732C162.614 278.008 172.607 274.348 183.19 270.475C192.578 267.039 202.255 263.513 212.597 266.28ZM182.015 267.223C172.163 270.832 162.856 274.237 154.011 269.656C147.706 266.389 142.904 259.638 139.734 249.616C140.278 246.271 140.869 242.925 141.548 239.586C147.477 246.411 154.032 250.449 161.069 251.588C162.372 251.8 163.601 251.894 164.763 251.894C167.456 251.894 169.806 251.371 172.022 250.599L173.439 262.063C173.553 262.94 174.285 263.578 175.138 263.578C175.212 263.578 175.279 263.573 175.353 263.564C176.293 263.446 176.958 262.582 176.844 261.634L175.313 249.266C176.119 248.899 176.931 248.519 177.744 248.132C182.304 245.955 187.011 243.705 194.512 243.337C197.367 243.19 200.039 243.37 202.551 243.725C204.176 246.702 205.794 249.778 207.359 252.935C208.884 256.022 210.206 259.227 211.341 262.45C200.751 260.391 190.886 263.977 182.015 267.223ZM234.443 144.252C235.47 145.721 236.8 146.934 238.089 148.103C240.379 150.187 242.743 152.338 243.838 156.237C244.57 158.824 244.422 161.068 244.274 162.17C243.71 166.281 241.44 168.361 238.814 170.773C236.679 172.739 234.463 174.776 233.079 178.017C230.749 183.482 232.636 188.052 234.463 192.472C236.048 196.307 237.552 199.934 236.618 204.352C235.376 210.247 230.031 215.502 220.797 220.001C217.412 215.885 213.9 211.904 210.294 208.092C218.782 205.306 223.523 201.596 224.665 196.775C225.565 192.961 223.839 189.823 222.321 187.059C220.797 184.294 219.487 181.905 220.266 178.91C220.918 176.383 222.684 175.08 224.725 173.569C227.23 171.713 230.071 169.613 231.219 165.022C232.267 160.819 231.77 155.089 228.311 151.766C226.25 149.786 223.946 149.456 222.093 149.191C220.474 148.96 219.528 148.792 218.843 148.012C217.365 146.324 217.822 142.294 220.105 136.659C224.437 132.64 229.211 128.4 234.362 124.044C231.239 132.979 231.239 139.652 234.443 144.252ZM208.682 147.694C210.636 145.725 212.745 143.655 214.988 141.498C214.162 145.442 214.578 148.365 216.277 150.307C217.835 152.075 219.843 152.363 221.616 152.617C223.261 152.852 224.678 153.055 225.948 154.273C228.285 156.517 228.694 160.952 227.895 164.178C227.049 167.558 225.034 169.05 222.697 170.778C220.454 172.438 217.909 174.319 216.949 178.036C215.827 182.373 217.681 185.751 219.319 188.734C220.716 191.271 221.918 193.464 221.327 195.975C220.434 199.752 215.8 202.888 207.614 205.313C206.681 204.354 205.734 203.411 204.78 202.482C206.003 201.688 207.064 200.616 207.843 199.265C209.098 197.061 209.434 194.49 208.783 192.034C208.514 191.015 208.051 190.088 207.493 189.235C210.824 188.244 213.504 185.46 214.148 181.781C214.793 178.098 213.208 174.557 210.415 172.476C213.208 170.395 214.793 166.853 214.148 163.173C213.712 160.664 212.329 158.481 210.26 157.023C209.407 156.417 208.467 156.006 207.487 155.718C208.051 154.865 208.514 153.938 208.783 152.919C209.246 151.173 209.192 149.38 208.682 147.694ZM186.279 133.961C187.34 133.127 188.616 132.665 189.919 132.665C191.282 132.665 192.659 133.133 193.78 134.085C195.99 135.951 196.5 139.075 195.204 141.547C192.565 138.651 189.577 136.094 186.279 133.961ZM171.74 127.828C172.345 126.861 173.191 126.077 174.245 125.584C175.051 125.204 175.917 125.01 176.784 125.01C177.475 125.01 178.174 125.132 178.845 125.381C181.538 126.371 183.076 129.112 182.713 131.868C179.288 130.069 175.608 128.699 171.74 127.828ZM156.053 127.117C156.657 124.408 158.994 122.359 161.855 122.359C164.723 122.359 167.1 124.406 167.691 127.122C165.777 126.873 163.836 126.7 161.855 126.7C159.887 126.7 157.96 126.871 156.053 127.117ZM161.855 130.159C184.983 130.159 203.793 149.142 203.793 172.476C203.793 195.809 184.983 214.795 161.855 214.795C138.734 214.795 119.917 195.809 119.917 172.476C119.917 149.142 138.734 130.159 161.855 130.159ZM92.0545 83.3305C90.8323 75.8253 89.7377 69.0098 91.3292 62.5094C92.5112 63.3395 93.7267 64.2549 94.969 65.27C94.0692 70.5981 95.1504 76.3606 96.3457 82.6394C98.1522 92.1064 100.194 102.84 95.7211 115.134C95.0093 117.092 94.1833 118.877 93.3036 120.564C92.3298 120.02 91.3494 119.483 90.3689 118.953C95.6473 105.575 93.7535 93.778 92.0545 83.3305ZM111.657 264.321C106.345 262.942 100.496 261.482 94.5057 260.082C90.5301 252.928 82.8207 235.431 88.2468 214.953C90.4831 206.506 94.8146 198.479 100.751 191.691C106.197 190.877 111.207 189.832 115.384 188.945C115.659 189.053 115.928 189.178 116.21 189.26C115.653 190.107 115.196 191.024 114.927 192.034C114.276 194.492 114.612 197.061 115.874 199.263C117.07 201.352 118.943 202.793 121.045 203.508C115.894 210.732 112.241 218.719 110.193 227.304C106.647 242.206 108.783 255.233 111.657 264.321ZM252.527 201.159C254.079 204.778 255.301 207.637 254.435 211.855C252.816 219.782 244.697 226.683 230.339 232.381C228.775 230.22 227.176 228.076 225.545 225.959C225.471 225.846 225.397 225.749 225.303 225.657C224.551 224.682 223.792 223.709 223.02 222.745C232.797 217.822 238.539 211.891 239.969 205.071C241.124 199.597 239.271 195.103 237.632 191.137C235.933 187.042 234.469 183.503 236.229 179.385C237.317 176.827 239.17 175.131 241.124 173.332C243.851 170.83 246.933 167.994 247.665 162.645C247.86 161.269 248.041 158.485 247.142 155.294C245.772 150.436 242.911 147.833 240.386 145.536C239.184 144.443 238.049 143.413 237.25 142.264C234.161 137.833 235.06 130.152 239.882 119.467C244.603 115.616 249.606 111.715 254.898 107.811C253.931 113.156 253.689 118.489 254.213 123.719C255.079 132.32 257.739 137.221 260.089 141.547C262.238 145.506 263.937 148.635 263.87 153.77C263.769 160.464 260.814 164.162 257.383 168.442C253.884 172.816 249.915 177.771 249.432 186.475C249.062 193.081 250.902 197.372 252.527 201.159ZM318.245 67.9419C316.459 68.484 313.692 69.478 309.3 71.0576C309.273 71.0691 309.26 71.0894 309.233 71.1009C309.206 71.1125 309.179 71.1077 309.152 71.1219C307.789 71.765 306.459 72.4433 305.116 73.1026C305.049 73.1277 304.982 73.1277 304.915 73.1622C304.868 73.1853 304.841 73.2293 304.794 73.2592C299.039 76.0882 293.451 79.0562 288.032 82.1366C287.884 82.201 287.743 82.268 287.622 82.3697C276.609 88.6525 266.321 95.3508 256.859 102.141C256.651 102.233 256.469 102.361 256.315 102.529C249.747 107.253 243.596 112.003 237.861 116.673C237.606 116.785 237.397 116.965 237.216 117.191C230.078 123.029 223.624 128.706 217.896 134.023C217.674 134.15 217.486 134.328 217.332 134.549C213.564 138.056 210.099 141.404 206.996 144.501C205.747 142.928 204.069 141.78 202.108 141.247C201.094 140.973 200.066 140.913 199.052 140.98C199.871 137.572 198.824 133.837 195.983 131.434C193.149 129.031 189.321 128.639 186.132 130.043C185.823 127.244 184.292 124.678 181.901 123.105C192.424 106.686 204.774 91.5304 218.661 78.06C225.524 71.4031 232.777 65.2145 240.312 59.4107C241.722 58.6409 243.005 57.6374 244.14 56.4569C258.591 45.7723 274.205 36.6645 290.812 29.1978C310.415 44.7389 316.714 62.5515 318.245 67.9419ZM338.465 85.9156C342.958 94.5993 343.979 107.662 337.935 114.495C336.82 115.754 335.524 116.714 334.147 117.728C332.321 119.084 330.313 120.58 328.412 123.002C328.849 121.291 329.339 119.607 329.95 117.982C331.098 114.931 332.287 112.738 333.335 110.807C335.101 107.553 336.498 104.984 336.256 100.869C335.927 95.1292 332.549 89.236 327.848 86.2016C325.216 84.5022 323.02 84.2074 320.898 83.9214C319.017 83.6673 317.238 83.4275 314.954 82.1915C312.275 80.7414 310.018 78.4449 308.165 75.4499C308.957 75.067 309.73 74.6659 310.529 74.2898C317.13 71.9174 319.393 71.2046 320.159 70.9904C323.436 71.9608 333.147 75.6206 338.465 85.9156ZM324.477 102.275C321.838 93.799 316.015 94.2531 310.891 94.6454C307.238 94.9313 303.471 95.222 299.73 93.1377C294.036 89.9597 291.719 86.3541 290.846 84.5042C295.466 81.9015 300.214 79.3855 305.083 76.9643C307.279 80.6329 310.025 83.4484 313.336 85.2401C316.17 86.7735 318.44 87.0778 320.441 87.3495C322.355 87.6083 324.007 87.8293 326.001 89.114C329.816 91.5812 332.562 96.3842 332.838 101.067C333.012 104.196 332.005 106.059 330.333 109.144C329.285 111.076 327.982 113.479 326.747 116.753C326.606 117.12 326.512 117.507 326.377 117.878C326.451 112.986 326.129 107.62 324.477 102.275ZM347.142 204.875C347.142 204.861 347.135 204.82 347.135 204.813C347.101 204.631 347.034 204.458 346.947 204.297C346.92 204.251 346.886 204.213 346.86 204.172C346.799 204.089 346.752 204.001 346.685 203.93C341.863 198.884 341.46 192.802 341.514 190.422C341.534 189.512 343.925 187.072 345.671 185.294C349.935 180.957 355.234 175.558 354.992 168.905C354.811 163.952 349.129 158.856 342.548 152.96C336.303 147.36 329.393 141.158 326.901 134.724C327.385 132.232 328.211 129.887 329.379 127.758C331.441 124.023 333.744 122.321 336.175 120.516C337.632 119.441 339.137 118.328 340.487 116.799C347.793 108.549 346.463 93.9074 341.507 84.3151C335.886 73.4509 325.927 69.2172 321.771 67.8707C320.548 63.1715 314.303 43.381 292.793 26.3687C292.558 25.8544 292.095 25.5387 291.585 25.4302C288.2 22.8343 284.439 20.3142 280.282 17.9297C279.987 17.5469 279.577 17.3232 279.127 17.2724C275.83 15.4374 272.291 13.6899 268.49 12.0595C268.195 11.7919 267.839 11.6489 267.449 11.6279C258.471 7.87659 248.062 4.77988 235.98 2.7301C235.893 2.70978 235.813 2.67249 235.725 2.65421C235.665 2.64267 235.604 2.65894 235.544 2.65421C235.47 2.64471 235.41 2.62167 235.336 2.62167C225.256 0.949982 214.028 -3.05176e-05 201.517 -3.05176e-05C174.359 -3.05176e-05 152.662 9.92639 151.755 10.3459C141.668 14.9557 132.3 21.0427 123.859 28.428C117.473 19.3229 110.193 13.431 101.94 12.7832C96.151 12.3265 87.9111 16.7032 85.5204 18.0524C65.2464 29.5258 60.3911 55.2603 59.6188 60.3031C58.4906 67.7162 58.8264 73.8378 59.6994 79.2472C59.6994 79.2913 59.7061 79.3306 59.7061 79.3739C59.7128 79.397 59.7262 79.4132 59.7262 79.4363C60.3709 83.3678 61.2909 86.9348 62.1774 90.2896C64.3733 98.5674 66.106 105.109 61.8618 113.098C59.3972 117.745 56.6572 119.624 53.7629 121.611C50.5193 123.834 47.175 126.131 44.2001 131.99C37.0548 146.076 39.4992 166.341 49.6329 178.951C44.1732 184.52 37.7062 193.406 35.4767 205.798C31.3601 228.643 45.1469 246.669 51.2782 253.37C46.5236 253.804 41.8966 254.83 37.4779 256.434C20.5683 262.565 6.62701 276.894 1.95304 292.935C-3.55364 311.849 3.14172 331.096 15.055 345.17C15.055 345.172 15.0616 345.174 15.0616 345.177C15.0616 345.182 15.0683 345.182 15.0683 345.184C20.7765 351.928 27.68 357.49 35.0133 361.248C42.9107 365.293 51.4259 367.315 60.5052 367.315C69.3965 367.315 78.8452 365.343 88.7841 361.465C89.0057 361.389 89.2407 361.312 89.4489 361.237C89.5094 361.214 89.5496 361.167 89.61 361.138C91.806 360.259 94.0221 359.32 96.2651 358.255C116.123 348.823 127.23 333.265 133.146 323.452C134.637 324.012 136.202 324.305 137.767 324.305C139.13 324.305 140.486 324.04 141.796 323.613C140.701 328.368 142.232 333.558 146.201 336.874C148.652 338.917 151.621 339.913 154.576 339.913C156.402 339.913 158.222 339.521 159.908 338.772C159.337 343.602 161.412 348.578 165.703 351.437C167.879 352.888 170.377 353.639 172.922 353.639C173.809 353.639 174.702 353.547 175.588 353.365C176.999 353.074 178.301 352.51 179.517 351.801C179.497 353.224 179.691 354.656 180.135 356.051C181.202 359.429 183.513 362.182 186.635 363.807C188.556 364.81 190.611 365.283 192.646 365.283C195.432 365.283 198.152 364.363 200.415 362.703C200.543 364.112 200.892 365.507 201.476 366.84C202.9 370.079 205.492 372.567 208.769 373.845C210.321 374.449 211.919 374.735 213.49 374.735C216.761 374.735 219.917 373.49 222.328 371.297C223.288 376.047 226.787 380.105 231.73 381.474C232.891 381.795 234.053 381.947 235.208 381.947C239.264 381.947 243.065 380.006 245.543 376.824C247.524 381.62 252.218 385 257.685 385C264.938 385 270.834 379.047 270.834 371.726C270.834 364.458 265.011 358.541 257.826 358.46C259.082 347.045 262.271 332.029 268.141 315.88C275.064 296.834 286.931 284.231 295.842 276.912C298.454 277.092 300.986 277.214 303.363 277.214C317.916 277.214 328.056 273.823 333.637 267.057C342.333 256.515 339.11 245.429 336.981 238.097C336.417 236.153 335.927 234.477 335.752 233.167C335.403 230.435 335.886 230.158 337.935 229.005C339.54 228.103 341.736 226.867 343.871 223.981C345.691 221.52 345.584 219.395 345.167 218.048C344.643 216.309 343.367 214.938 342.011 213.909C343.461 213.298 344.63 212.425 345.516 211.288C347.665 208.53 347.215 205.297 347.148 204.884C347.148 204.882 347.148 204.88 347.142 204.875Z" fill="#C0FFD5"/>
<path d="M326.319 188.103C327.209 188.442 328.099 188.59 328.97 188.59C333.362 188.59 337.262 184.79 338.923 182.392C339.866 181.036 341.036 181.221 341.282 181.28C342.179 181.513 343.115 180.99 343.368 180.083C343.627 179.164 343.102 178.209 342.192 177.946C340.83 177.559 338.033 177.642 336.112 180.407C334.936 182.106 331.096 186.21 327.521 184.866C325.176 183.981 325.781 181.094 325.854 180.777C326.086 179.851 325.521 178.912 324.611 178.68C323.701 178.456 322.757 179.011 322.532 179.941C322 182.069 322.113 186.517 326.319 188.103Z" fill="#C0FFD5"/>
</svg>
