<svg width="510" height="425" viewBox="0 0 510 425" fill="none" xmlns="http://www.w3.org/2000/svg">
<path d="M480.389 240.542C473.791 243.195 467.186 246.095 460.755 249.146C459.919 249.544 459.364 250.386 459.319 251.339C459.265 252.293 459.729 253.198 460.512 253.683C467.201 257.862 476.589 265.474 483.293 278.02C485.968 283.001 487.983 288.333 489.321 293.918C481.377 290.208 467.155 285.147 448.616 285.147C448.403 285.147 448.191 285.154 447.985 285.154C435.504 285.234 423.152 289.596 417.482 291.9C417.102 285.552 416.243 280.427 414.631 276.017C425.174 274.706 431.209 268.819 431.263 259.412L431.498 219.693C442.839 218.017 454.264 218.104 465.514 220.003C478.139 222.14 490.195 226.439 501.444 232.803C494.345 235.163 487.283 237.761 480.389 240.542ZM412.465 271.131C408.178 262.741 401.23 255.28 392.086 249.162C406.832 247.311 417.778 247.891 423.069 252.038C425.334 253.81 426.375 256.138 426.36 259.38C426.307 268.159 419.093 270.678 412.465 271.131ZM412.115 327.861C411.91 333.478 411.629 339.111 411.294 344.681C404.218 337.753 396.67 333.478 388.818 331.945C386.37 331.476 384.044 331.293 381.802 331.11C377.781 330.8 373.623 330.475 368.234 328.425C364.121 326.859 360.222 324.611 356.589 321.798C357.463 314.687 356.011 308.689 352.233 303.937C348.212 298.868 341.903 295.73 334.712 293.791C341.926 291.94 348.273 288.889 352.355 283.875C356.163 279.196 357.698 273.252 356.931 266.181C362.365 274.746 368.614 281.5 375.614 286.267L376.937 287.149C380.722 289.652 386.446 293.434 390.285 300.568C392.17 304.072 393.409 308.005 393.964 312.248C394.131 313.535 395.187 314.465 396.396 314.465C396.502 314.465 396.616 314.457 396.73 314.441C398.068 314.242 399.011 312.955 398.828 311.557C398.182 306.662 396.753 302.126 394.557 298.058C390.117 289.795 383.763 285.591 379.559 282.811L378.298 281.96C370.012 276.327 362.822 267.595 356.862 256.059C366.782 253.643 376.002 251.673 384.287 250.306C396.852 257.33 405.426 266.284 409.729 276.955C413.484 286.275 413.172 299.289 412.115 327.861ZM326.359 368.088C321.35 372.625 316.447 374.365 311.377 373.387C302.134 371.608 293.696 361.199 286.84 350.084C283.496 343.076 279.741 336.513 276.693 331.214C276.312 330.546 275.993 329.982 275.636 329.354C280.341 326.136 284.294 321.981 287.349 317.206L317.671 335.766C318.058 336.005 318.491 336.124 318.91 336.124C319.753 336.124 320.574 335.671 321.03 334.852C321.714 333.629 321.319 332.064 320.149 331.349L289.827 312.78C292.328 307.664 293.848 302.015 294.228 296.151C294.897 296.175 295.581 296.191 296.304 296.214C299.861 296.326 303.92 296.453 308.215 296.453C311.103 296.453 314.106 296.397 317.123 296.238C329.726 297.065 342.473 299.663 348.463 307.203C351.754 311.358 352.704 316.666 351.367 323.459C348.379 338.619 352.074 349.829 354.81 355.534C348.706 355.828 337.555 357.95 326.359 368.088ZM289.212 386.561C287.425 391.622 283.496 395.134 277.202 397.327C263.147 402.205 255.713 411.143 252.354 416.475C249.055 411.104 241.727 402.062 227.726 397.001C221.458 394.736 217.574 391.161 215.844 386.092C212.692 376.836 217.096 364.004 222.874 352.237C227.013 345.706 230.578 339.016 233.449 333.605C233.795 332.954 234.126 332.334 234.453 331.722C239.393 334.336 244.821 335.885 250.377 336.267L250.157 372.982C250.149 374.396 251.236 375.548 252.597 375.556C252.597 375.556 252.604 375.556 252.612 375.556C253.957 375.556 255.052 374.428 255.06 373.014L255.28 336.219C260.836 335.909 266.249 334.431 271.22 331.889C271.554 332.517 271.889 333.176 272.238 333.851C275.043 339.302 278.524 346.04 282.591 352.626C288.231 364.465 292.48 377.352 289.212 386.561ZM193.841 372.617C188.74 373.522 183.878 371.727 178.925 367.126C167.853 356.837 156.722 354.581 150.627 354.199C153.429 348.534 157.255 337.371 154.453 322.172C153.999 319.725 153.92 317.508 154.064 315.442C170.978 311.295 190.51 305.709 212.322 299.114C212.934 303.723 214.215 308.164 216.154 312.28L185.569 330.475C184.391 331.174 183.982 332.739 184.65 333.971C185.101 334.797 185.931 335.266 186.785 335.266C187.197 335.266 187.612 335.154 187.995 334.924L218.574 316.737C221.566 321.544 225.489 325.715 230.146 328.989C229.77 329.632 229.43 330.212 229.028 330.896C225.915 336.163 222.073 342.687 218.646 349.663C211.652 360.683 203.102 370.972 193.841 372.617ZM150.696 366.959C145.438 368.93 140.824 367.905 134.439 366.491C130.136 365.529 125.256 364.441 118.991 363.956C110.317 363.281 101.521 363.972 92.7643 366.022C94.5331 360.595 95.6938 355.057 96.2206 349.488C96.6098 345.38 96.5543 342.258 96.5049 339.5C96.4532 336.275 96.4008 333.486 97.0089 329.664C97.3456 327.551 97.9043 325.453 98.5519 323.371C100.099 323.483 101.701 323.554 103.411 323.554C114.208 323.554 128.314 321.369 145.399 317.492C141.201 322.601 136.665 327.424 131.845 331.889C125.836 337.451 119.325 342.512 112.495 346.921C111.344 347.668 110.987 349.241 111.7 350.449C112.164 351.236 112.965 351.665 113.789 351.665C114.228 351.665 114.676 351.546 115.078 351.283C122.144 346.715 128.88 341.487 135.099 335.726C140.157 331.047 144.921 325.97 149.319 320.599C149.414 321.441 149.476 322.267 149.636 323.149C153.272 342.853 144.385 355.121 144.3 355.24C143.685 356.051 143.607 357.171 144.097 358.077C144.585 358.982 145.592 359.491 146.537 359.364C146.629 359.348 151.86 358.752 159.093 361.072C156.536 363.861 153.773 365.807 150.696 366.959ZM238.504 293.163C238.504 292.432 238.573 291.725 238.687 291.018C244.167 289.318 249.731 287.586 255.447 285.782C258.26 284.9 261.072 284.018 263.885 283.136C266.241 285.854 267.693 289.413 267.67 293.354C267.647 297.43 266.104 301.244 263.337 304.104C260.563 306.972 256.747 308.53 252.992 308.498C249.1 308.474 245.444 306.869 242.708 303.969C239.971 301.077 238.474 297.231 238.504 293.163ZM252.962 313.631H253.091C258.252 313.631 263.109 311.549 266.781 307.751C270.482 303.929 272.542 298.828 272.573 293.386C272.603 288.968 271.242 284.9 268.962 281.547C274.511 279.815 280.045 278.091 285.555 276.391C288.064 281.643 289.455 287.443 289.425 293.497C289.341 307.099 282.234 319.701 270.878 326.383C265.405 329.601 259.043 331.206 252.855 331.237C246.478 331.198 240.214 329.402 234.749 326.057C234.742 326.049 234.742 326.049 234.734 326.041C234.734 326.041 234.726 326.041 234.719 326.041C234.711 326.033 234.711 326.025 234.704 326.025C234.704 326.025 234.704 326.025 234.696 326.017C224.843 319.963 218.463 309.364 217.146 297.66C222.498 296.032 228.018 294.331 233.635 292.591C233.628 292.774 233.596 292.949 233.596 293.132C233.527 304.366 242.221 313.559 252.962 313.631ZM348.615 280.554C342.526 288.039 329.673 290.47 317.017 291.113C309.552 290.637 302.248 290.756 296.334 290.859C295.597 290.875 294.882 290.883 294.19 290.899C293.894 285.29 292.594 279.887 290.344 274.913C311.673 268.358 332.364 262.256 350.941 257.537C351.07 259.714 351.275 261.946 351.716 264.346C352.97 271.147 351.96 276.446 348.615 280.554ZM86.4112 314.624C84.1514 312.852 83.1055 310.524 83.1253 307.274L83.5798 231.015C83.7166 231.126 83.8512 231.238 83.9918 231.349C101.832 245.301 163.67 227.36 255.964 198.408C329.931 175.199 406.414 151.212 423.593 164.656C425.858 166.428 426.9 168.764 426.884 172.005L426.611 217.444V217.452L426.428 248.272C426.292 248.153 426.155 248.042 426.018 247.931C418.896 242.361 404.765 241.884 384.508 245.142C384.325 245.158 384.151 245.166 383.976 245.221C374.892 246.707 364.585 248.94 353.145 251.784C352.788 251.792 352.438 251.864 352.104 252.038C352.096 252.038 352.089 252.046 352.081 252.046C325.264 258.776 292.275 268.875 254.041 280.872C180.078 304.08 103.594 328.067 86.4112 314.624ZM78.7432 219.868L78.5045 259.586C67.178 261.263 55.7435 261.176 44.4922 259.277C31.8735 257.147 19.8111 252.849 8.56291 246.477C15.6556 244.117 22.7148 241.527 29.6175 238.738C36.2191 236.076 42.8215 233.184 49.2528 230.133C50.0836 229.736 50.6363 228.894 50.6849 227.94C50.7374 226.987 50.2798 226.081 49.4946 225.596C42.8078 221.417 33.4203 213.805 26.7077 201.26C24.0458 196.294 22.0345 190.987 20.7043 185.425C30.7196 190.295 44.9924 194.959 62.1163 194.125C71.053 193.696 79.8324 191.733 88.3009 188.46L89.4456 204.668C82.5886 207.211 78.7827 212.526 78.7432 219.868ZM91.1916 229.442C89.5239 228.862 88.085 228.147 86.9312 227.241C84.6713 225.477 83.6284 223.141 83.6482 219.9C83.6551 218.541 83.8375 217.309 84.178 216.189L88.7593 210.524C89.0861 210.333 89.4616 210.175 89.8219 210.008L91.1916 229.442ZM153.544 163.321C152.736 151.832 161.015 141.797 172.005 140.947C183.041 140.073 192.592 148.757 193.406 160.246C193.75 165.117 192.439 169.987 189.626 174.087C185.738 180.523 181.01 185.552 176.007 190.875C169.523 197.78 162.238 205.527 154.95 218.048C145.984 206.79 137.695 200.243 130.312 194.411C124.613 189.906 119.23 185.647 114.381 179.768C111.121 176.256 109.136 171.64 108.793 166.769C108.401 161.2 110.104 155.813 113.59 151.586C117.079 147.359 121.928 144.808 127.255 144.395C127.758 144.363 128.255 144.34 128.758 144.34C133.542 144.34 138.117 146.111 141.779 149.409C145.821 153.056 148.263 158.125 148.652 163.694C148.75 165.109 149.925 166.086 151.278 166.062C152.57 165.967 153.55 164.839 153.55 163.504C153.55 163.44 153.547 163.384 153.544 163.321ZM87.7749 111.279C87.467 106.925 88.801 102.698 91.5284 99.3929C94.2587 96.0876 98.0547 94.0934 102.221 93.7755L194.453 86.6645C194.845 86.6327 195.231 86.6169 195.617 86.6169C200.4 86.6169 204.72 88.9448 207.607 92.5837L207.437 92.6315L208.736 95.7062C209.043 96.4293 209.301 97.2159 209.503 98.066L215.2 158.443L218.463 204.732C197.347 211.215 176.874 217.23 158.504 221.886C165.717 209.205 173.019 201.371 179.5 194.475C184.692 188.945 189.6 183.725 193.685 176.955C197.088 172.005 198.726 165.943 198.298 159.865C197.288 145.563 185.379 134.789 171.646 135.83C161.81 136.593 153.717 143.259 150.317 152.261C148.933 149.75 147.139 147.478 144.98 145.531C139.945 140.995 133.507 138.786 126.894 139.286C120.264 139.795 114.218 142.973 109.878 148.233C105.533 153.501 103.411 160.214 103.902 167.143C104.326 173.213 106.798 178.965 110.759 183.224C115.853 189.405 121.437 193.823 127.35 198.495C134.932 204.486 143.509 211.295 152.707 223.324C128.474 229.211 108.398 232.413 96.1947 230.618L87.7749 111.279ZM239.743 131.889C245.3 132.62 250.316 135.528 253.851 140.097C257.484 144.792 259.149 150.68 258.541 156.679C257.94 162.685 255.136 168.08 250.651 171.878C246.159 175.684 240.518 177.416 234.78 176.788C229.924 176.248 225.378 173.976 221.883 170.353L218.214 131.444L216.092 101.387C215.978 99.7504 215.674 98.1852 215.232 96.6836C216.782 96.4929 218.342 96.4611 219.885 96.6359C231.741 97.9389 240.366 109.078 239.12 121.473C238.899 123.698 238.36 125.859 237.539 127.893L236.102 131.42L239.743 131.889ZM222.704 191.765C222.688 191.106 222.668 190.375 222.642 189.596C223.574 190.565 224.499 191.376 225.385 192.059L222.704 191.765ZM165.554 67.4368C166.398 59.0465 173.202 52.8015 181.095 52.8015C181.641 52.8015 182.191 52.8254 182.74 52.8889L274.716 63.0112C278.874 63.4721 282.606 65.5935 285.236 68.9861C287.866 72.3788 289.075 76.6375 288.634 80.9757L278.038 186.172C270.444 188.524 262.623 190.963 254.558 193.497C244.121 196.771 233.642 200.052 223.28 203.254L222.881 197.597L231.676 198.566L232.131 198.59C234.248 198.59 236.079 196.938 236.391 194.737C236.718 192.353 235.213 190.144 232.955 189.676C232.514 189.572 226.075 187.84 221.916 178.33L221.585 177.567C225.316 180.3 229.643 182.032 234.202 182.541C235.175 182.644 236.148 182.7 237.113 182.7C243.293 182.7 249.245 180.507 254.132 176.375C259.772 171.6 263.292 164.823 264.044 157.29C264.812 149.75 262.714 142.353 258.153 136.458C254.429 131.651 249.404 128.298 243.749 126.804C244.167 125.271 244.463 123.682 244.623 122.077C246.189 106.512 235.35 92.5202 220.464 90.8835C217.91 90.6054 215.327 90.7245 212.773 91.2171C208.797 84.9165 201.751 80.9757 194.093 81.5477L163.899 83.8757L165.554 67.4368ZM292.891 73.6024C292.913 73.5865 292.936 73.5626 292.959 73.5388C294.297 78.9337 297.36 88.9686 304.224 104.081C311.392 119.844 316.948 128.473 319.936 132.573C315.238 134.408 305.881 138.722 291.226 148.265C289.531 149.369 287.973 150.418 286.468 151.443L293.514 81.5159C293.78 78.8145 293.552 76.1449 292.891 73.6024ZM248.15 30.4513C249.321 26.2562 251.973 22.8 255.637 20.6945C259.301 18.5969 263.527 18.1122 267.533 19.3279L356.33 46.3738C360.336 47.5974 363.65 50.3782 365.657 54.1999C366.599 55.9797 367.162 57.8865 367.413 59.8331L347.262 135.973L347.277 136.434C347.285 136.649 347.315 136.855 347.33 137.078L338.619 168.326C322.056 172.816 303.487 178.338 283.131 184.606L285.806 158.045C288.216 156.345 290.861 154.541 293.826 152.619C314.805 138.953 324.61 136.339 324.702 136.323C325.553 136.1 326.237 135.417 326.48 134.535C326.724 133.637 326.488 132.684 325.872 132.024C325.804 131.953 318.955 124.532 308.656 101.88C298.333 79.1482 296.866 68.2234 296.851 68.1201C296.722 67.119 296.053 66.2848 295.125 65.9987C294.198 65.7047 293.195 65.9987 292.564 66.7694C292.549 66.7853 291.994 67.4289 290.861 68.5571C290.329 67.5878 289.736 66.6423 289.052 65.7604C285.594 61.303 280.691 58.5143 275.233 57.9104L241.529 54.1999L248.15 30.4513ZM352.91 137.324C352.879 137.093 352.856 136.839 352.834 136.593L357.683 118.271L371.677 68.0724C371.768 67.7467 371.829 67.413 371.905 67.0872C374.208 78.6874 377.583 87.3398 380.639 95.1422C383.421 102.237 386.051 108.943 387.366 116.714L387.396 116.873C388.552 121.989 387.951 127.392 385.716 132.096C383.147 137.499 378.723 141.527 373.25 143.45C367.785 145.372 361.932 144.951 356.756 142.266C355.448 141.583 354.179 140.732 352.97 139.715C352.993 139.453 353.008 139.191 353.016 138.937C353.024 138.54 352.978 137.967 352.91 137.324ZM333.542 14.1953C337.38 6.11484 346.791 2.81754 354.506 6.82993L437.328 49.8617C445.051 53.8741 448.206 63.7025 444.367 71.775L404.423 155.765C389.722 156.138 369.397 160.19 344.146 166.849L350.295 144.792C351.579 145.802 352.902 146.723 354.293 147.446C358.109 149.425 362.221 150.426 366.349 150.426C369.26 150.426 372.179 149.933 375.014 148.932C381.885 146.517 387.449 141.455 390.672 134.67C393.477 128.791 394.222 122.029 392.801 115.617C391.372 107.283 388.643 100.323 385.754 92.9493C382.053 83.4944 377.849 72.7682 375.842 56.8775C375.652 55.3918 374.771 54.1125 373.501 53.461C372.589 52.9764 371.555 52.873 370.598 53.1114C370.4 52.6506 370.202 52.1818 369.967 51.7369C367.321 46.7075 362.966 43.0526 357.698 41.4556L325.279 31.5796L333.542 14.1953ZM508.818 231.317C495.683 222.998 481.37 217.492 466.289 214.942C454.796 213.003 443.121 212.852 431.536 214.489L431.787 172.037C431.818 167.166 430.046 163.305 426.535 160.556C422.841 157.664 417.231 156.162 409.881 155.821L448.761 74.0632C453.8 63.4562 449.65 50.545 439.51 45.2693L356.695 2.23755C346.555 -3.02228 334.195 1.30795 329.148 11.907L320.491 30.1176L268.909 14.4098C263.634 12.8048 258.085 13.4405 253.281 16.1975C248.469 18.9625 244.973 23.5151 243.437 29.0212L236.573 53.6597L183.253 47.7881C172.005 46.5724 161.865 55.1216 160.676 66.8965L158.926 84.257L101.861 88.6588C96.3871 89.0799 91.4007 91.7019 87.8175 96.0479C84.2335 100.386 82.4807 105.932 82.8828 111.653L87.9254 183.152C79.5246 186.569 70.7847 188.571 61.8875 189.008C43.0731 189.898 27.8684 183.796 18.4247 178.504C17.6007 178.044 16.5936 178.115 15.835 178.679C15.0764 179.251 14.691 180.229 14.8476 181.19C16.139 189.191 18.693 196.787 22.4275 203.763C28.4438 215.005 36.4388 222.569 43.1027 227.392C38.073 229.696 32.9627 231.897 27.8517 233.955C19.3141 237.403 10.5286 240.549 1.74541 243.322C0.816546 243.616 0.143083 244.451 0.019184 245.452C-0.101675 246.461 0.355921 247.446 1.18293 247.97C14.3277 256.281 28.6369 261.787 43.7108 264.338C55.2107 266.276 66.8937 266.427 78.4718 264.791L78.2202 307.242C78.1906 312.113 79.9563 315.974 83.4681 318.723C85.9795 320.686 89.3772 322.005 93.5852 322.768C93.003 324.77 92.496 326.788 92.173 328.822C91.4896 333.112 91.5451 336.267 91.6006 339.596C91.6492 342.337 91.6986 345.173 91.3391 348.987C90.7112 355.653 89.099 362.288 86.5488 368.707C86.1923 369.613 86.3588 370.654 86.9768 371.393C87.5978 372.124 88.5563 372.426 89.4685 372.164C99.1896 369.359 109.006 368.318 118.625 369.073C124.563 369.534 129.265 370.583 133.415 371.504C137.476 372.41 141.027 373.197 144.604 373.197C147.115 373.197 149.636 372.807 152.351 371.79C156.66 370.177 160.545 367.174 163.965 362.995C167.679 364.735 171.675 367.254 175.664 370.956C180.69 375.62 185.941 377.972 191.327 377.972C192.435 377.972 193.547 377.876 194.669 377.678C200.871 376.565 206.623 372.426 211.829 366.888C209.752 374.341 209.111 381.611 211.224 387.808C213.451 394.355 218.467 399.075 226.124 401.847C244.274 408.41 249.99 422.593 250.043 422.72C250.415 423.689 251.305 424.317 252.3 424.325C252.3 424.325 252.316 424.325 252.323 424.325C253.304 424.325 254.201 423.705 254.581 422.76C254.641 422.617 260.525 408.514 278.752 402.189C286.437 399.519 291.507 394.863 293.818 388.348C296.007 382.175 295.445 374.897 293.461 367.42C298.599 373.022 304.3 377.241 310.495 378.425C311.688 378.663 312.882 378.774 314.068 378.774C319.373 378.774 324.572 376.494 329.574 371.957C344.085 358.808 358.679 360.715 358.823 360.746C359.812 360.873 360.777 360.405 361.286 359.507C361.788 358.609 361.727 357.481 361.127 356.654C361.043 356.535 353.191 345.38 355.692 327.447C359.12 329.855 362.761 331.794 366.561 333.248C372.582 335.536 377.287 335.901 381.437 336.227C383.649 336.402 385.732 336.561 387.913 336.99C396.16 338.595 404.111 343.727 411.553 352.253C412.024 352.793 412.685 353.095 413.369 353.095C413.635 353.095 413.909 353.047 414.168 352.952C415.095 352.618 415.741 351.736 415.809 350.711C416.334 343.267 416.737 335.647 417.018 328.059C417.482 315.466 417.847 305.51 417.687 297.351C421.852 295.563 435.063 290.359 448.016 290.279C448.213 290.279 448.411 290.279 448.616 290.279C470.462 290.279 485.915 297.605 491.578 300.775C491.943 300.982 492.346 301.077 492.741 301.077C493.243 301.077 493.744 300.918 494.17 300.6C494.93 300.028 495.318 299.051 495.158 298.089C493.866 290.089 491.312 282.493 487.58 275.517C481.56 264.274 473.571 256.71 466.897 251.895C471.937 249.583 477.045 247.382 482.153 245.325C490.681 241.884 499.468 238.73 508.255 235.957C509.182 235.671 509.859 234.837 509.981 233.828C510.102 232.827 509.646 231.833 508.818 231.317Z" fill="#C0FFD5"/>
<path d="M343.379 191.074C343.603 191.074 343.827 191.04 344.051 190.971L349.26 189.436L366.69 208.399L366.216 232.09L359.032 234.21C357.728 234.589 356.971 236.006 357.339 237.369C357.642 238.498 358.63 239.235 359.697 239.235C359.914 239.235 360.145 239.207 360.362 239.138L378.227 233.873C379.524 233.487 380.288 232.069 379.919 230.713C379.55 229.351 378.2 228.552 376.897 228.938L371.155 230.631L371.602 208.178L390.949 177.136L396.684 175.443C397.988 175.057 398.745 173.639 398.377 172.276C398.015 170.92 396.658 170.122 395.354 170.507L377.489 175.78C376.192 176.158 375.428 177.583 375.797 178.939C376.1 180.068 377.088 180.811 378.161 180.811C378.378 180.811 378.602 180.777 378.826 180.708L383.771 179.249L368.791 203.284L354.607 187.86L361.909 185.705C363.207 185.32 363.97 183.902 363.602 182.539C363.24 181.176 361.883 180.378 360.573 180.77L342.714 186.042C341.411 186.428 340.653 187.846 341.022 189.202C341.325 190.331 342.313 191.074 343.379 191.074Z" fill="#C0FFD5"/>
<path d="M227.845 256.025C229.161 262.04 232.361 266.827 236.851 269.511C239.712 271.22 243.104 272.055 246.744 272.055C252.697 272.055 259.327 269.825 265.414 265.532C274.075 259.423 278.718 251.091 280.711 246.665C281.292 245.383 280.762 243.854 279.536 243.253C278.316 242.646 276.853 243.2 276.278 244.482C274.841 247.66 270.651 255.658 262.667 261.279C254.396 267.114 245.218 268.596 239.278 265.051C235.075 262.548 233.338 258.135 232.629 254.883C231.026 247.566 232.929 238.613 237.592 231.523C242.625 223.879 250.66 218.271 258.075 217.236C266.41 216.074 270.958 220.928 272.152 222.437C272.861 223.325 274.043 223.612 275.045 223.145C276.048 222.671 276.629 221.562 276.47 220.421C276.348 219.586 276.227 217.35 277.658 214.659C279.74 210.74 283.342 209.271 283.751 209.118C285.016 208.631 285.674 207.155 285.207 205.826C284.741 204.498 283.342 203.817 282.065 204.304C281.12 204.665 276.253 206.741 273.366 212.169C272.746 213.344 272.318 214.472 272.037 215.527C268.901 213.311 264.047 211.234 257.423 212.156C248.565 213.391 239.418 219.7 233.549 228.619C228.049 236.978 225.916 247.226 227.845 256.025Z" fill="#C0FFD5"/>
<path d="M169.312 242.436C169.526 242.436 169.752 242.41 169.978 242.344L176.345 240.463C173.659 256.811 172.803 276.362 181.592 284.825C183.58 286.745 186.744 288.665 191.431 288.665C193.205 288.665 195.206 288.389 197.446 287.725C215.539 282.385 223.68 259.534 218.993 227.877L227.07 225.49C228.373 225.109 229.134 223.688 228.763 222.327C228.398 220.966 227.045 220.17 225.737 220.558L207.549 225.924C206.241 226.312 205.486 227.726 205.85 229.087C206.152 230.218 207.14 230.955 208.21 230.955C208.43 230.955 208.656 230.928 208.877 230.856L214.237 229.278C218.332 257.844 211.513 278.249 196.112 282.793C191.274 284.22 187.606 283.648 184.914 281.057C179.013 275.369 177.836 260.047 181.598 238.912L188.172 236.972C189.468 236.59 190.236 235.17 189.865 233.809C189.5 232.447 188.147 231.645 186.839 232.04L168.645 237.412C167.342 237.794 166.581 239.214 166.952 240.575C167.254 241.7 168.242 242.436 169.312 242.436Z" fill="#C0FFD5"/>
<path d="M119.84 257.046C120.055 257.046 120.276 257.014 120.504 256.95L127.133 254.991L126.205 301.134C124.78 302.04 123.25 303.099 121.579 304.358C120.485 305.193 120.233 306.792 121.032 307.942C121.511 308.635 122.255 309.001 123.023 309.001C123.52 309.001 124.018 308.847 124.454 308.513C134.143 301.192 138.432 301.121 143.857 301.031C147.23 300.98 151.052 300.916 156.495 299.304C167.198 296.151 170.197 286.646 170.295 282.067C170.319 280.654 169.244 279.485 167.893 279.453C166.418 279.382 165.417 280.545 165.392 281.964C165.386 282.06 165.085 291.45 155.162 294.372C150.333 295.797 146.997 295.855 143.777 295.907C139.833 295.971 136.232 296.041 131.17 298.379L132.073 253.533L142.18 250.553C143.482 250.168 144.244 248.748 143.876 247.387C143.507 246.025 142.161 245.236 140.847 245.621L119.17 252.017C117.868 252.396 117.106 253.816 117.475 255.177C117.782 256.307 118.765 257.046 119.84 257.046Z" fill="#C0FFD5"/>
<path d="M288.771 254.856C287.47 255.235 286.706 256.655 287.075 258.015C287.38 259.145 288.363 259.883 289.438 259.883C289.658 259.883 289.878 259.856 290.105 259.788L295.179 258.293C295.516 258.266 295.826 258.171 296.118 258.015L303.283 255.898C304.584 255.512 305.341 254.098 304.972 252.731C304.61 251.371 303.251 250.573 301.95 250.965L297.529 252.271L297.93 232.387C302.047 233.456 305.167 236.642 308.558 240.194C312.649 244.484 317.193 249.24 323.905 249.24C325.342 249.24 326.882 249.017 328.533 248.53C343.906 243.99 344.339 231.236 344.352 230.695C344.378 229.281 343.304 228.111 341.951 228.077C340.663 228.077 339.472 229.173 339.446 230.587C339.446 230.682 339.122 240.079 327.2 243.597C320.908 245.451 317.342 242.136 312.028 236.575C309.84 234.281 307.425 231.764 304.519 229.856C329.491 221.812 334.035 192.672 334.08 192.347C334.287 190.946 333.368 189.641 332.028 189.424C330.669 189.235 329.439 190.175 329.232 191.576C329.187 191.887 324.552 221.629 298.053 226.189L298.487 204.41L304.351 202.685C305.652 202.299 306.409 200.885 306.04 199.525C305.678 198.159 304.332 197.367 303.018 197.753L289.839 201.643C288.538 202.022 287.781 203.443 288.15 204.803C288.454 205.932 289.438 206.67 290.506 206.67C290.726 206.67 290.953 206.636 291.173 206.575L293.555 205.872L293.127 226.947C291.923 227.075 290.655 227.319 289.315 227.718C288.014 228.097 287.25 229.518 287.619 230.878C287.988 232.238 289.334 233.036 290.648 232.65C291.483 232.4 292.26 232.272 293.024 232.163L292.597 253.726L288.771 254.856Z" fill="#C0FFD5"/>
</svg>
