<svg width="33" height="33" viewBox="0 0 33 33" fill="none" xmlns="http://www.w3.org/2000/svg">
<path fill-rule="evenodd" clip-rule="evenodd" d="M31.0966 7.89931C31.0966 8.58837 30.538 9.14697 29.849 9.14697L3.2321 9.14697C2.54304 9.14697 1.98444 8.58837 1.98444 7.89931C1.98444 7.21024 2.54304 6.65164 3.2321 6.65164L29.849 6.65164C30.538 6.65164 31.0966 7.21024 31.0966 7.89931Z" fill="white"/>
<path fill-rule="evenodd" clip-rule="evenodd" d="M31.0966 16.2172C31.0966 16.9062 30.538 17.4648 29.849 17.4648L3.2321 17.4648C2.54304 17.4648 1.98444 16.9062 1.98444 16.2172C1.98444 15.5281 2.54304 14.9695 3.2321 14.9695L29.849 14.9695C30.538 14.9695 31.0966 15.5281 31.0966 16.2172Z" fill="white"/>
<path fill-rule="evenodd" clip-rule="evenodd" d="M31.0966 24.5351C31.0966 25.2241 30.538 25.7827 29.849 25.7827L3.2321 25.7827C2.54304 25.7827 1.98444 25.2241 1.98444 24.5351C1.98444 23.846 2.54304 23.2874 3.2321 23.2874L29.849 23.2874C30.538 23.2874 31.0966 23.846 31.0966 24.5351Z" fill="white"/>
</svg>
