<svg width="303" height="16" viewBox="0 0 303 16" fill="none" xmlns="http://www.w3.org/2000/svg">
<path d="M12.3576 4.34718C16.1378 4.42096 19.1876 4.21279 22.2901 3.96381C30.6413 3.29504 38.9999 2.62971 47.4264 2.1936C52.7353 1.91981 58.1572 2.08245 63.5264 2.00521C66.1996 1.96659 68.8653 1.83568 71.5386 1.73521C74.2119 1.63473 76.8777 1.50129 79.5509 1.41369C85.0481 1.23472 90.5452 0.974114 96.0499 0.937693C103.354 0.888713 110.681 0.947115 117.978 1.10505C122.316 1.19955 126.631 1.22875 130.931 1.04288C136.902 0.784476 142.859 0.879302 148.808 1.1107C149.553 1.1399 150.299 1.15873 151.037 1.19735C156.873 1.50474 162.618 1.33864 168.387 0.859199C176.203 0.210523 184.102 0.285263 192.009 0.605519C194.667 0.714468 197.371 0.754028 200.029 0.682756C205.549 0.535501 211.038 0.526077 216.558 0.803318C222.055 1.08025 227.598 1.06298 233.087 0.758736C237.568 0.511008 242.011 0.572853 246.484 0.679291C249.752 0.757471 253.043 0.806766 256.303 0.734237C260.935 0.631253 265.528 0.622161 270.159 0.82656C273.54 0.97507 276.997 0.867679 280.423 0.861713C281.312 0.860457 282.208 0.771614 283.089 0.795162C285.054 0.846654 286.455 1.41117 286.703 2.1936C286.96 2.98262 286.041 3.72393 284.226 3.97197C283.127 4.12048 281.846 4.21185 280.732 4.12991C274.452 3.66208 268.247 3.86333 262.049 4.36381C259.376 4.58014 256.748 4.55314 254.044 4.4175C251.394 4.28406 248.683 4.29945 246.002 4.31578C242.719 4.33556 239.451 4.36946 236.205 4.04669C235.06 3.93209 233.84 3.87621 232.658 3.88783C224.013 3.96727 215.361 3.63067 206.724 4.17542C203.96 4.34968 201.061 4.24324 198.244 4.13806C195.405 4.03288 192.612 4.04921 189.765 4.15439C187.258 4.24795 184.705 4.20934 182.175 4.16727C178.899 4.11232 175.623 4.02 172.363 3.89944C169.094 3.77793 165.826 3.63287 162.581 3.43884C160.344 3.30445 158.16 3.29158 155.901 3.39425C150.268 3.65046 144.621 3.85266 138.973 4.05141C137.339 4.10887 135.675 4.1522 134.056 4.07967C128.242 3.82221 122.421 3.87149 116.608 3.97793C113.483 4.03507 110.312 4.1029 107.278 4.37543C103.279 4.73211 99.2956 4.74498 95.2668 4.70511C85.4171 4.60463 75.5824 4.64074 65.7252 4.83258C56.7641 5.00809 47.9235 5.59743 39 5.88158C34.3989 6.02758 29.7677 6.12711 25.1516 6.09759C20.3322 6.0662 15.6333 6.21942 11.0322 6.85177C8.91619 7.14314 6.71734 7.3535 4.53354 7.53592C2.39492 7.71363 0.745798 7.28819 0.346689 6.54909C-0.0674806 5.77953 0.828602 5.02191 2.80156 4.80463C4.94771 4.56821 7.19177 4.46648 9.40569 4.35785C10.5804 4.29945 11.7853 4.34718 12.3576 4.34718Z" fill="#C0FFD5"/>
<path d="M107.434 9.31723C110.569 9.25425 113.713 9.25076 116.818 9.11398C121.418 8.91166 126.026 8.68357 130.574 8.3397C136.364 7.90263 142.163 7.86256 147.976 8.08269C157.536 8.44374 167.065 8.27418 176.594 7.92808C177.784 7.88482 178.982 7.74582 180.157 7.77985C186.283 7.95863 192.386 7.57753 198.497 7.61125C203.571 7.63924 208.637 7.75281 213.703 7.87432C218.334 7.98661 222.934 8.07314 227.565 7.8263C231.708 7.60553 235.873 7.44394 240.047 7.35042C242.259 7.30016 244.517 7.39845 246.73 7.51678C249.278 7.65102 251.773 7.68378 254.283 7.42643C258.258 7.01958 262.256 6.99286 266.269 7.33418C267.299 7.42071 268.336 7.52823 269.374 7.52346C275.63 7.49674 281.886 7.47225 288.15 7.37968C291.438 7.33196 294.718 7.20568 297.923 7.6208C299.044 7.76554 300.219 7.93636 301.158 8.21597C303.088 8.78633 302.859 9.89714 300.791 10.3813C300.158 10.5298 299.41 10.6059 298.701 10.6841C294.879 11.0993 291.018 11.0315 287.127 10.9065C279.246 10.6514 271.357 10.4048 263.446 10.7881C261.539 10.8807 259.57 10.8292 257.648 10.7484C253.169 10.5578 248.767 10.5391 244.281 10.8655C239.558 11.2068 234.737 11.0398 229.991 10.7671C224.773 10.4678 219.676 10.4888 214.427 10.8817C209.919 11.2208 205.211 11.1403 200.588 11.1753C197.757 11.1975 194.912 11.1167 192.089 11.0315C188.343 10.9179 184.643 11.0608 180.912 11.1285C173.16 11.2675 165.401 11.3028 157.642 11.3086C153.751 11.3108 149.891 11.3226 146.038 11.6022C144.428 11.7189 142.765 11.7504 141.133 11.7434C133.816 11.7154 126.499 11.6559 119.191 11.6136C115.452 11.5926 111.721 11.5529 107.991 11.5821C106.061 11.5961 104.069 11.6464 102.215 11.8452C97.9811 12.2979 93.6934 12.4534 89.3523 12.4792C87.5594 12.4897 85.7818 12.5937 83.9965 12.6545C82.9513 12.6894 81.8833 12.8075 80.8762 12.7445C74.1471 12.3259 67.4791 13.0871 60.7653 12.9188C59.8803 12.8965 58.9648 12.9443 58.1027 13.0273C51.5186 13.6578 44.7895 13.757 38.1062 14.0341C35.4435 14.1441 32.8267 14.4225 30.1717 14.5885C27.2268 14.773 24.2742 14.9521 21.3064 15.0584C20.3298 15.0937 19.2084 14.9718 18.3158 14.787C16.0651 14.3242 15.9354 13.0683 18.0258 12.4884C18.6285 12.3211 19.361 12.1948 20.0705 12.1388C21.8252 11.9985 23.6028 11.8675 25.3805 11.8102C30.7439 11.6394 36.1073 11.5157 41.4708 11.3518C43.401 11.2923 45.3159 11.1578 47.2461 11.0875C50.3741 10.973 53.4945 10.8829 56.6226 10.7847C56.9201 10.7754 57.2253 10.7929 57.5152 10.7754C64.168 10.3686 70.8741 10.2353 77.565 10.0517C85.0113 9.84688 92.4422 9.65983 99.8351 9.17918C102.307 9.0179 104.893 9.15374 107.426 9.15374C107.434 9.20845 107.434 9.2622 107.434 9.31723Z" fill="#C0FFD5"/>
</svg>
