<svg width="25" height="24" viewBox="0 0 25 24" fill="none" xmlns="http://www.w3.org/2000/svg">
<g id="Bold / Time / Hourglass">
<path id="Vector" d="M5.69825 3.29918C6.30046 2 8.36697 2 12.5 2C16.633 2 18.6995 2 19.3017 3.29918C19.3535 3.41086 19.3972 3.52686 19.4323 3.6461C19.8414 5.0333 18.3802 6.64111 15.4577 9.85674L13.5 12L15.4577 14.1433C18.3802 17.3589 19.8414 18.9667 19.4323 20.3539C19.3972 20.4731 19.3535 20.5891 19.3017 20.7008C18.6995 22 16.633 22 12.5 22C8.36697 22 6.30046 22 5.69825 20.7008C5.64649 20.5891 5.60282 20.4731 5.56765 20.3539C5.15857 18.9667 6.61981 17.3589 9.5423 14.1433L11.5 12L9.5423 9.85674C6.61981 6.64111 5.15857 5.0333 5.56765 3.6461C5.60282 3.52686 5.64649 3.41086 5.69825 3.29918Z" fill="white"/>
</g>
</svg>
