<svg width="25" height="24" viewBox="0 0 25 24" fill="none" xmlns="http://www.w3.org/2000/svg">
<path d="M24.708 17.7209V6.27907C24.708 2.81124 21.8968 0 18.4289 0L6.98708 0C3.51924 0 0.708008 2.81124 0.708008 6.27907V17.7209C0.708008 21.1888 3.51924 24 6.98708 24H18.4289C21.8968 24 24.708 21.1888 24.708 17.7209Z" fill="#B9B9B9"/>
<path d="M16.4346 7.47754C15.9831 7.47754 15.6138 7.8469 15.6138 8.29833C15.6138 8.74977 15.9831 9.12733 16.4346 9.12733C16.886 9.12733 17.2636 8.75798 17.2636 8.29833C17.2636 7.83869 16.8942 7.47754 16.4346 7.47754Z" fill="#0D0D0D"/>
<path d="M12.7654 8.53638C10.8529 8.53638 9.30164 10.0877 9.30164 12.0001C9.30164 13.9126 10.8529 15.4639 12.7654 15.4639C14.6778 15.4639 16.2291 13.9126 16.2291 12.0001C16.2291 10.0877 14.6778 8.53638 12.7654 8.53638ZM12.7654 14.2245C11.5424 14.2245 10.5492 13.2313 10.5492 12.0083C10.5492 10.7854 11.5424 9.79219 12.7654 9.79219C13.9884 9.79219 14.9815 10.7854 14.9815 12.0083C14.9815 13.2313 13.9884 14.2245 12.7654 14.2245Z" fill="#0D0D0D"/>
<path d="M15.5151 19.0342H9.90091C7.56986 19.0342 5.67383 17.1382 5.67383 14.8071V9.19291C5.67383 6.86185 7.56986 4.96582 9.90091 4.96582H15.5151C17.8462 4.96582 19.7422 6.86185 19.7422 9.19291V14.8071C19.7422 17.1382 17.8462 19.0342 15.5151 19.0342ZM9.90091 6.2873C8.30037 6.2873 6.99531 7.59236 6.99531 9.19291V14.8071C6.99531 16.4077 8.30037 17.7127 9.90091 17.7127H15.5151C17.1157 17.7127 18.4208 16.4077 18.4208 14.8071V9.19291C18.4208 7.59236 17.1157 6.2873 15.5151 6.2873H9.90091Z" fill="#0D0D0D"/>
</svg>
