<svg width="25" height="24" viewBox="0 0 25 24" fill="none" xmlns="http://www.w3.org/2000/svg">
<path d="M0.708008 17.7291V6.27907C0.708008 2.82353 3.53154 0 6.98708 0H18.4289C21.8845 0 24.708 2.82353 24.708 6.27907V17.7209C24.708 21.1765 21.8845 24 18.4289 24H14.5794L12.5685 23.5075L10.8366 24H6.98708C3.53154 24 0.708008 21.1765 0.708008 17.7209V17.7291Z" fill="#B9B9B9"/>
<path d="M17.3784 15.8659L17.9119 12.394H14.5795V10.145C14.5795 9.19286 15.0473 8.27357 16.533 8.27357H18.0432V5.31872C18.0432 5.31872 16.6725 5.08069 15.3592 5.08069C12.6178 5.08069 10.8285 6.73869 10.8285 9.751V12.394H7.78333V15.8659H10.8285V24H14.5795V15.8659H17.3784Z" fill="#0D0D0D"/>
</svg>
