<svg width="25" height="24" viewBox="0 0 25 24" fill="none" xmlns="http://www.w3.org/2000/svg">
<path d="M24.708 17.7209V6.27907C24.708 2.81124 21.8968 0 18.4289 0L6.98708 0C3.51925 0 0.708012 2.81124 0.708012 6.27907V17.7209C0.708012 21.1888 3.51925 24 6.98708 24H18.4289C21.8968 24 24.708 21.1888 24.708 17.7209Z" fill="#B9B9B9"/>
<path d="M7.66837 9.76736H9.99121V17.2366H7.66837V9.76736ZM8.83389 6.05737C9.58082 6.05737 10.18 6.65655 10.18 7.40347C10.18 8.1504 9.58082 8.74958 8.83389 8.74958C8.08697 8.74958 7.48779 8.14219 7.48779 7.40347C7.48779 6.66476 8.08697 6.05737 8.83389 6.05737Z" fill="#0D0D0D"/>
<path d="M11.4523 9.7674H13.6767V10.7852H13.7095C14.0214 10.1942 14.7765 9.57861 15.9092 9.57861C18.2567 9.57861 18.6917 11.1217 18.6917 13.1326V17.2284H16.3689V13.6005C16.3689 12.7305 16.3524 11.6224 15.1623 11.6224C13.9721 11.6224 13.7669 12.5663 13.7669 13.543V17.2366H11.4441V9.7674H11.4523Z" fill="#0D0D0D"/>
</svg>
