<svg width="105" height="31" viewBox="0 0 105 31" fill="none" xmlns="http://www.w3.org/2000/svg">
<g id="Inckd-logo-new">
<path id="Vector" d="M100.655 22.865C98.6382 22.865 96.9792 24.5327 96.9792 26.541C96.9792 28.558 98.6469 30.217 100.655 30.217C102.672 30.217 104.331 28.5492 104.331 26.541C104.34 24.5153 102.681 22.865 100.655 22.865Z" fill="white"/>
<path id="Vector_2" d="M87.8021 3.64697V12.3698C87.1473 11.5665 85.0255 10.0472 82.31 10.0472C76.7654 10.0472 72.4259 14.5352 72.4259 20.0798C72.4259 25.6243 76.7567 30.1211 82.31 30.1211C85.139 30.1211 87.3481 28.5057 87.9506 27.7024H88.003V29.8766H94.0539V3.64697H87.8021ZM82.6592 24.6289C80.1882 24.6289 78.1712 22.6119 78.1712 20.1409C78.1712 17.6699 80.1882 15.6529 82.6592 15.6529C85.139 15.6529 87.1473 17.6699 87.1473 20.1409C87.1473 22.6032 85.1303 24.6289 82.6592 24.6289Z" fill="white"/>
<path id="Vector_3" d="M23.7221 10.405C21.3995 10.405 18.78 11.6624 17.575 13.627H17.5226V10.9638H11.4804V29.9201H17.7235V19.8351C17.7235 17.7133 18.7887 15.6527 21.2074 15.6527C23.7744 15.6527 24.3769 17.2156 24.3769 19.0842V21.0488V29.9201H30.62V17.9666C30.5851 15.2947 30.2271 10.405 23.7221 10.405Z" fill="white"/>
<path id="Vector_4" d="M4.17168 0.782959C2.04991 0.782959 0.286133 2.49434 0.286133 4.6685C0.286133 6.79027 1.99752 8.55405 4.17168 8.55405C6.29345 8.55405 8.05722 6.84266 8.05722 4.6685C8.04849 2.54673 6.28471 0.782959 4.17168 0.782959Z" fill="white"/>
<path id="Vector_5" d="M43.2802 10.0996C37.7356 10.0996 33.396 14.5876 33.396 20.1322C33.396 25.6767 37.7269 30.1647 43.2802 30.1647C46.2576 30.1647 49.1303 28.855 50.9901 26.7856L47.0085 23.1096C46.2052 24.0177 44.9915 24.6289 43.6294 24.6289C41.1584 24.6289 39.1414 22.6119 39.1414 20.1409C39.1414 17.6699 41.1584 15.6529 43.6294 15.6529C44.9915 15.6529 46.1441 16.2554 47.0085 17.1722L50.9901 13.4962C49.0866 11.4093 46.2576 10.0996 43.2802 10.0996Z" fill="white"/>
<path id="Vector_6" d="M72.7838 10.9639H65.3795L59.6254 17.4165V3.69922H53.3823V29.9114H57.0583H59.573V22.865L65.816 29.9288H73.2815L64.4539 20.1495L72.7838 10.9639Z" fill="white"/>
<path id="Vector_7" d="M1.06353 10.9639V25.6678L7.26294 29.9114V10.9639" fill="white"/>
</g>
</svg>
