<svg width="127" height="37" viewBox="0 0 127 37" fill="none" xmlns="http://www.w3.org/2000/svg">
<g id="Inckd-logo-new">
<path id="Vector" d="M122.131 27.5664C119.686 27.5664 117.675 29.588 117.675 32.0223C117.675 34.4672 119.697 36.4782 122.131 36.4782C124.576 36.4782 126.587 34.4566 126.587 32.0223C126.598 29.5668 124.587 27.5664 122.131 27.5664Z" fill="black"/>
<path id="Vector_2" d="M106.552 4.27148V14.8449C105.758 13.8712 103.186 12.0296 99.8942 12.0296C93.1733 12.0296 87.9131 17.4698 87.9131 24.1906C87.9131 30.9115 93.1628 36.3623 99.8942 36.3623C103.323 36.3623 106.001 34.4042 106.732 33.4305H106.795V36.0659H114.13V4.27148H106.552ZM100.318 29.7049C97.3223 29.7049 94.8774 27.26 94.8774 24.2647C94.8774 21.2695 97.3223 18.8245 100.318 18.8245C103.323 18.8245 105.758 21.2695 105.758 24.2647C105.758 27.2494 103.313 29.7049 100.318 29.7049Z" fill="black"/>
<path id="Vector_3" d="M28.8764 12.4629C26.0611 12.4629 22.8859 13.987 21.4253 16.3684H21.3618V13.1403H14.0376V36.1182H21.6052V23.8937C21.6052 21.3217 22.8964 18.8239 25.8282 18.8239C28.9399 18.8239 29.6702 20.7184 29.6702 22.9834V25.3648V36.1182H37.2378V21.6287C37.1955 18.3899 36.7615 12.4629 28.8764 12.4629Z" fill="black"/>
<path id="Vector_4" d="M5.17816 0.798828C2.60624 0.798828 0.468262 2.8733 0.468262 5.50873C0.468262 8.08065 2.54273 10.2186 5.17816 10.2186C7.75008 10.2186 9.88806 8.14415 9.88806 5.50873C9.87747 2.9368 7.7395 0.798828 5.17816 0.798828Z" fill="black"/>
<path id="Vector_5" d="M52.5837 12.0918C45.8628 12.0918 40.6025 17.532 40.6025 24.2529C40.6025 30.9737 45.8522 36.4139 52.5837 36.4139C56.1928 36.4139 59.675 34.8263 61.9294 32.3179L57.1031 27.862C56.1293 28.9628 54.6581 29.7036 53.007 29.7036C50.0118 29.7036 47.5668 27.2587 47.5668 24.2634C47.5668 21.2682 50.0118 18.8232 53.007 18.8232C54.6581 18.8232 56.0552 19.5535 57.1031 20.6649L61.9294 16.209C59.6221 13.6794 56.1928 12.0918 52.5837 12.0918Z" fill="black"/>
<path id="Vector_6" d="M88.3468 13.1399H79.3716L72.3967 20.9615V4.33398H64.8291V36.1073H69.285H72.3332V27.566L79.9008 36.1284H88.9501L78.2497 24.2743L88.3468 13.1399Z" fill="black"/>
<path id="Vector_7" d="M1.41064 13.1387V30.9622L8.92531 36.106V13.1387" fill="black"/>
</g>
</svg>
