<svg width="105" height="30" viewBox="0 0 105 30" fill="none" xmlns="http://www.w3.org/2000/svg">
<g id="Inckd-logo-new">
<path id="Vector" d="M100.869 22.582C98.8519 22.582 97.1929 24.2498 97.1929 26.258C97.1929 28.275 98.8606 29.934 100.869 29.934C102.886 29.934 104.545 28.2663 104.545 26.258C104.554 24.2323 102.895 22.582 100.869 22.582Z" fill="#101010"/>
<path id="Vector_2" d="M88.0159 3.36401V12.0868C87.3611 11.2835 85.2393 9.76425 82.5238 9.76425C76.9792 9.76425 72.6396 14.2523 72.6396 19.7968C72.6396 25.3414 76.9705 29.8381 82.5238 29.8381C85.3528 29.8381 87.5619 28.2228 88.1644 27.4195H88.2168V29.5936H94.2677V3.36401H88.0159ZM82.873 24.346C80.402 24.346 78.385 22.329 78.385 19.8579C78.385 17.3869 80.402 15.3699 82.873 15.3699C85.3528 15.3699 87.3611 17.3869 87.3611 19.8579C87.3611 22.3202 85.3441 24.346 82.873 24.346Z" fill="#101010"/>
<path id="Vector_3" d="M23.936 10.1221C21.6134 10.1221 18.9939 11.3794 17.789 13.344H17.7366V10.6809H11.6943V29.6371H17.9374V19.5522C17.9374 17.4304 19.0027 15.3697 21.4213 15.3697C23.9884 15.3697 24.5909 16.9327 24.5909 18.8012V20.7658V29.6371H30.8339V17.6836C30.799 15.0117 30.441 10.1221 23.936 10.1221Z" fill="#101010"/>
<path id="Vector_4" d="M4.38554 0.5C2.26378 0.5 0.5 2.21139 0.5 4.38554C0.5 6.50731 2.21139 8.27109 4.38554 8.27109C6.50731 8.27109 8.27109 6.5597 8.27109 4.38554C8.26236 2.26378 6.49858 0.5 4.38554 0.5Z" fill="#101010"/>
<path id="Vector_5" d="M43.494 9.81665C37.9494 9.81665 33.6099 14.3047 33.6099 19.8492C33.6099 25.3938 37.9407 29.8818 43.494 29.8818C46.4715 29.8818 49.3441 28.572 51.204 26.5027L47.2224 22.8267C46.4191 23.7348 45.2054 24.346 43.8433 24.346C41.3722 24.346 39.3552 22.329 39.3552 19.8579C39.3552 17.3869 41.3722 15.3699 43.8433 15.3699C45.2054 15.3699 46.3579 15.9724 47.2224 16.8892L51.204 13.2132C49.3005 11.1264 46.4715 9.81665 43.494 9.81665Z" fill="#101010"/>
<path id="Vector_6" d="M72.9977 10.6809H65.5934L59.8393 17.1335V3.41626H53.5962V29.6284H57.2722H59.7869V22.582L66.0299 29.6459H73.4954L64.6678 19.8665L72.9977 10.6809Z" fill="#101010"/>
<path id="Vector_7" d="M1.27734 10.6809V25.3849L7.47675 29.6284V10.6809" fill="#101010"/>
</g>
</svg>
