<svg width="127" height="37" viewBox="0 0 127 37" fill="none" xmlns="http://www.w3.org/2000/svg">
<path d="M122.176 27.1479C119.731 27.1479 117.721 29.1695 117.721 31.6038C117.721 34.0487 119.742 36.0597 122.176 36.0597C124.621 36.0597 126.632 34.0382 126.632 31.6038C126.643 29.1483 124.632 27.1479 122.176 27.1479Z" fill="white"/>
<path d="M106.596 3.85254V14.426C105.803 13.4523 103.231 11.6106 99.9391 11.6106C93.2183 11.6106 87.958 17.0508 87.958 23.7717C87.958 30.4926 93.2077 35.9433 99.9391 35.9433C103.368 35.9433 106.046 33.9853 106.776 33.0116H106.84V35.647H114.175V3.85254H106.596ZM100.362 29.286C97.3672 29.286 94.9223 26.8411 94.9223 23.8458C94.9223 20.8505 97.3672 18.4056 100.362 18.4056C103.368 18.4056 105.803 20.8505 105.803 23.8458C105.803 26.8305 103.358 29.286 100.362 29.286Z" fill="white"/>
<path d="M28.9212 12.0444C26.1059 12.0444 22.9307 13.5685 21.4701 15.9499H21.4066V12.7218H14.0824V35.6998H21.65V23.4752C21.65 20.9033 22.9413 18.4054 25.873 18.4054C28.9847 18.4054 29.7151 20.3 29.7151 22.565V24.9464V35.6998H37.2826V21.2102C37.2403 17.9715 36.8064 12.0444 28.9212 12.0444Z" fill="white"/>
<path d="M5.22308 0.380859C2.65116 0.380859 0.513184 2.45533 0.513184 5.09076C0.513184 7.66268 2.58766 9.80065 5.22308 9.80065C7.795 9.80065 9.93298 7.72618 9.93298 5.09076C9.92239 2.51884 7.78442 0.380859 5.22308 0.380859Z" fill="white"/>
<path d="M52.6288 11.674C45.9079 11.674 40.6476 17.1141 40.6476 23.835C40.6476 30.5559 45.8973 35.9961 52.6288 35.9961C56.2379 35.9961 59.7201 34.4085 61.9745 31.9L57.1482 27.4442C56.1744 28.5449 54.7032 29.2858 53.0521 29.2858C50.0569 29.2858 47.6119 26.8409 47.6119 23.8456C47.6119 20.8503 50.0569 18.4054 53.0521 18.4054C54.7032 18.4054 56.1003 19.1357 57.1482 20.247L61.9745 15.7911C59.6672 13.2616 56.2379 11.674 52.6288 11.674Z" fill="white"/>
<path d="M88.3919 12.7219H79.4166L72.4418 20.5435V3.91602H64.8742V35.6893H69.3301H72.3783V27.148L79.9458 35.7105H88.9952L78.2947 23.8563L88.3919 12.7219Z" fill="white"/>
<path d="M1.45551 12.7219V30.5454L8.97018 35.6893V12.7219" fill="white"/>
</svg>
