<svg width="24" height="25" viewBox="0 0 24 25" fill="none" xmlns="http://www.w3.org/2000/svg">
<g id="Group">
<path id="Vector" d="M24 18.2424V6.80055C24 3.33272 21.1888 0.521484 17.7209 0.521484L6.27907 0.521484C2.81124 0.521484 0 3.33272 0 6.80055V18.2424C0 21.7102 2.81124 24.5215 6.27907 24.5215H17.7209C21.1888 24.5215 24 21.7102 24 18.2424Z" fill="black"/>
<g id="Group_2">
<path id="Vector_2" d="M15.7266 8C15.2751 8 14.9058 8.36936 14.9058 8.82079C14.9058 9.27223 15.2751 9.6498 15.7266 9.6498C16.178 9.6498 16.5556 9.28044 16.5556 8.82079C16.5556 8.36115 16.1862 8 15.7266 8Z" fill="white"/>
<path id="Vector_3" d="M12.0575 9.05859C10.145 9.05859 8.59375 10.6099 8.59375 12.5223C8.59375 14.4348 10.145 15.9861 12.0575 15.9861C13.9699 15.9861 15.5212 14.4348 15.5212 12.5223C15.5212 10.6099 13.9699 9.05859 12.0575 9.05859ZM12.0575 14.7467C10.8345 14.7467 9.84136 13.7535 9.84136 12.5306C9.84136 11.3076 10.8345 10.3144 12.0575 10.3144C13.2805 10.3144 14.2736 11.3076 14.2736 12.5306C14.2736 13.7535 13.2805 14.7467 12.0575 14.7467Z" fill="white"/>
<path id="Vector_4" d="M14.8071 19.5567H9.19291C6.86185 19.5567 4.96582 17.6606 4.96582 15.3296V9.71537C4.96582 7.38431 6.86185 5.48828 9.19291 5.48828H14.8071C17.1382 5.48828 19.0342 7.38431 19.0342 9.71537V15.3296C19.0342 17.6606 17.1382 19.5567 14.8071 19.5567ZM9.19291 6.80976C7.59236 6.80976 6.2873 8.11482 6.2873 9.71537V15.3296C6.2873 16.9301 7.59236 18.2352 9.19291 18.2352H14.8071C16.4077 18.2352 17.7127 16.9301 17.7127 15.3296V9.71537C17.7127 8.11482 16.4077 6.80976 14.8071 6.80976H9.19291Z" fill="white"/>
</g>
</g>
</svg>
