<svg width="81" height="34" viewBox="0 0 81 34" fill="none" xmlns="http://www.w3.org/2000/svg">
<rect x="0.990234" y="0.990234" width="79.5326" height="32.3989" rx="5.11562" fill="white"/>
<path d="M64.368 14.9447C63.6166 14.41 62.7399 14.0993 61.8321 14.0462C60.9243 13.9932 60.0198 14.1997 59.216 14.6436C58.4123 15.0875 57.7396 15.7519 57.2704 16.5654C56.8012 17.3789 56.5532 18.3107 56.5532 19.2604C56.5532 20.2102 56.8012 21.1419 57.2704 21.9554C57.7396 22.7689 58.4123 23.4334 59.216 23.8773C60.0198 24.3212 60.9243 24.5277 61.8321 24.4746C62.7399 24.4216 63.6166 24.1109 64.368 23.5761V24.2085H67.2047V14.3117H64.368V14.9447ZM61.788 21.8068C61.3114 21.7803 60.8527 21.6085 60.4686 21.3126C60.0845 21.0166 59.7919 20.6095 59.6269 20.1417C59.462 19.6739 59.432 19.1658 59.5406 18.6803C59.6492 18.1948 59.8916 17.7533 60.238 17.4102C60.5843 17.0672 61.0193 16.8377 61.4892 16.7502C61.9591 16.6627 62.4432 16.721 62.8817 16.9179C63.3202 17.1148 63.6938 17.4417 63.9563 17.858C64.2188 18.2744 64.3587 18.762 64.3587 19.2606C64.3406 19.9541 64.0596 20.6118 63.5777 21.0892C63.0957 21.5666 62.452 21.8247 61.788 21.8068Z" fill="black"/>
<path d="M25.4648 9.90137H22.4961V24.2088H25.4648V9.90137Z" fill="black"/>
<path d="M51.5155 14.0444C50.9578 14.0099 50.4004 14.1177 49.8913 14.3583C49.3823 14.5989 48.937 14.9652 48.5936 15.4257V14.3111H45.7686V24.2075H48.6276V19.0066C48.6056 18.7078 48.6455 18.4076 48.7445 18.1264C48.8435 17.8452 48.9994 17.5895 49.2014 17.3768C49.4034 17.1641 49.647 16.9993 49.9154 16.8937C50.1839 16.788 50.4709 16.744 50.7571 16.7646C52.0039 16.7646 52.7205 17.5427 52.7205 18.9861V24.2075H55.5542V17.9139C55.5541 15.6106 53.801 14.0444 51.5155 14.0444Z" fill="black"/>
<path d="M34.4412 14.9447C33.6899 14.41 32.8131 14.0993 31.9053 14.0462C30.9975 13.9932 30.0931 14.1997 29.2893 14.6436C28.4855 15.0875 27.8128 15.7519 27.3436 16.5654C26.8744 17.3789 26.6265 18.3107 26.6265 19.2604C26.6265 20.2102 26.8744 21.1419 27.3436 21.9554C27.8128 22.7689 28.4855 23.4334 29.2893 23.8773C30.0931 24.3212 30.9975 24.5277 31.9053 24.4746C32.8131 24.4216 33.6899 24.1109 34.4412 23.5761V24.2085H37.278V14.3117H34.4412V14.9447ZM31.8612 21.8068C31.3845 21.7804 30.9258 21.6086 30.5416 21.3127C30.1575 21.0168 29.8648 20.6098 29.6998 20.1419C29.5349 19.6741 29.5048 19.166 29.6134 18.6805C29.7219 18.195 29.9644 17.7534 30.3107 17.4103C30.657 17.0673 31.092 16.8378 31.5619 16.7502C32.0318 16.6627 32.5159 16.721 32.9544 16.9179C33.393 17.1148 33.7666 17.4416 34.0291 17.858C34.2916 18.2744 34.4316 18.762 34.4315 19.2606C34.4134 19.9541 34.1325 20.6118 33.6506 21.0892C33.1687 21.5666 32.5251 21.8247 31.8612 21.8068Z" fill="black"/>
<path d="M41.6661 15.6008V14.3118H38.7617V24.2087H41.6723V19.5883C41.6723 18.0293 43.29 17.1913 44.4125 17.1913C44.4238 17.1913 44.4348 17.1925 44.4462 17.1926V14.3124C43.9202 14.2976 43.3977 14.4056 42.9168 14.6285C42.4359 14.8514 42.0086 15.1836 41.6661 15.6008Z" fill="black"/>
<path d="M70.216 20.6987C69.8638 20.6987 69.5196 20.8078 69.2268 21.0122C68.934 21.2166 68.7058 21.5071 68.5711 21.8469C68.4363 22.1868 68.4011 22.5607 68.4698 22.9215C68.5385 23.2823 68.7081 23.6136 68.9571 23.8737C69.2061 24.1338 69.5233 24.311 69.8687 24.3827C70.2141 24.4545 70.5721 24.4176 70.8974 24.2769C71.2228 24.1361 71.5009 23.8977 71.6965 23.5919C71.8921 23.286 71.9966 22.9264 71.9966 22.5586C71.9966 22.3143 71.9505 22.0725 71.8611 21.8468C71.7716 21.6211 71.6404 21.4161 71.4751 21.2434C71.3097 21.0707 71.1134 20.9337 70.8974 20.8402C70.6814 20.7468 70.4498 20.6987 70.216 20.6987Z" fill="black"/>
<path d="M20.4512 9.89697H17.3746C17.3793 11.1858 17.0939 12.4577 16.5413 13.61C15.9887 14.7623 15.1844 15.7628 14.1934 16.5306L12.9746 17.4841L17.6975 24.2116H21.5804L17.2349 18.0214C18.2598 16.9574 19.0719 15.6913 19.624 14.2965C20.1762 12.9018 20.4574 11.4063 20.4512 9.89697Z" fill="black"/>
<path d="M12.5982 9.89697H9.51611V24.2111H12.5982V9.89697Z" fill="black"/>
</svg>
