<svg width="30" height="24" viewBox="0 0 30 24" fill="none" xmlns="http://www.w3.org/2000/svg">
<path d="M6.18755 0.104492V23.8954H0.725037V0.104492H6.18755ZM19.8201 0.104492C19.8201 5.09345 17.937 9.74577 14.5681 13.2704L14.2374 13.607L21.7829 23.8954H15.0404L6.84063 12.7137L8.95688 11.1292C12.3567 8.58358 14.3516 4.73183 14.4729 0.513697L14.4789 0.104492H19.8201ZM26.3008 17.9477C27.0896 17.9477 27.846 18.261 28.4037 18.8187C28.9615 19.3764 29.2748 20.1329 29.2748 20.9216C29.2748 21.7103 28.9615 22.4667 28.4037 23.0244C27.846 23.5821 27.0896 23.8954 26.3008 23.8954C25.5121 23.8954 24.7557 23.5821 24.198 23.0244C23.6402 22.4667 23.3269 21.7103 23.3269 20.9216C23.3269 20.1329 23.6402 19.3764 24.198 18.8187C24.7557 18.261 25.5121 17.9477 26.3008 17.9477Z" fill="black"/>
</svg>
