<svg width="186" height="41" viewBox="0 0 186 41" fill="none" xmlns="http://www.w3.org/2000/svg">
<g clip-path="url(#clip0_9354_13592)">
<path d="M32.7139 0H23.5619C23.5773 3.62431 22.7293 7.2013 21.0866 10.4417C19.444 13.682 17.0527 16.4948 14.1062 18.6525L10.4844 21.3314L24.5044 40.2456H36.0554L23.1413 22.8402C26.1901 19.851 28.6066 16.2921 30.25 12.3709C31.8934 8.4496 32.731 4.24433 32.7139 0Z" fill="white"/>
<path d="M0 40.2456H9.37005V0H0V40.2456Z" fill="white"/>
<path d="M38.7812 40.2264H47.6061V0.00390625H38.7812V40.2264Z" fill="white"/>
<path d="M125.005 11.6638C121.64 11.6638 118.454 12.6954 116.328 15.5129V12.4105H107.932V40.2314H116.429V25.6051C116.429 21.3711 119.296 19.3003 122.754 19.3003C126.461 19.3003 128.588 21.4866 128.588 25.5435V40.2314H137.008V22.5258C137.008 16.0517 131.797 11.6484 125.005 11.6484V11.6638Z" fill="white"/>
<path d="M66.603 33.4762C64.6306 33.5258 62.7189 32.7998 61.2877 31.4575C59.8566 30.1151 59.0229 28.2663 58.9699 26.317C59.0779 24.3873 59.9296 22.5718 61.35 21.2436C62.7704 19.9153 64.6515 19.1751 66.6069 19.1751C68.5623 19.1751 70.4435 19.9153 71.8638 21.2436C73.2842 22.5718 74.1359 24.3873 74.2439 26.317C74.1909 28.2677 73.3562 30.1177 71.9233 31.4602C70.4905 32.8028 68.5768 33.5279 66.603 33.4762ZM74.2673 12.4065V14.1848C72.3454 12.8906 70.1428 12.0606 67.837 11.7615C65.5311 11.4624 63.1865 11.7027 60.9917 12.4629C58.797 13.223 56.8135 14.4819 55.201 16.1382C53.5885 17.7945 52.3921 19.8018 51.708 21.9986C51.0239 24.1954 50.8712 26.5202 51.2624 28.786C51.6535 31.0517 52.5775 33.1951 53.9599 35.0434C55.3423 36.8917 57.1445 38.3934 59.2215 39.4275C61.2984 40.4616 63.592 40.9993 65.9176 40.9972C68.8936 41.0145 71.8049 40.1395 74.2673 38.4876V40.2659H82.7027V12.4065H74.2673Z" fill="white"/>
<path d="M95.7414 16.032V12.4062H87.1113V40.2271H95.757V27.2405C95.757 22.8526 100.563 20.4969 103.904 20.4969H103.998V12.4062C100.578 12.4062 97.4316 13.8535 95.7414 16.032Z" fill="white"/>
<path d="M155.529 33.4762C153.556 33.5258 151.645 32.7998 150.214 31.4575C148.782 30.1151 147.949 28.2663 147.896 26.317C148.004 24.3873 148.855 22.5718 150.276 21.2436C151.696 19.9153 153.577 19.1751 155.533 19.1751C157.488 19.1751 159.369 19.9153 160.79 21.2436C162.21 22.5718 163.062 24.3873 163.17 26.317C163.117 28.2677 162.282 30.1177 160.849 31.4602C159.416 32.8028 157.503 33.5279 155.529 33.4762ZM163.201 12.4065V14.1848C160.969 12.6817 158.364 11.8086 155.667 11.6596C152.97 11.5106 150.283 12.0913 147.895 13.3391C145.507 14.5869 143.509 16.4547 142.115 18.7415C140.721 21.0282 139.984 23.6473 139.984 26.317C139.984 28.9866 140.721 31.6057 142.115 33.8925C143.509 36.1792 145.507 38.047 147.895 39.2948C150.283 40.5427 152.97 41.1233 155.667 40.9743C158.364 40.8253 160.969 39.9523 163.201 38.4492V40.2274H171.629V12.4065H163.201Z" fill="white"/>
<path d="M180.58 30.3594C179.532 30.3579 178.507 30.6636 177.635 31.2378C176.763 31.8121 176.083 32.6291 175.681 33.5855C175.279 34.5419 175.173 35.5947 175.376 36.6106C175.58 37.6265 176.084 38.56 176.824 39.2928C177.564 40.0257 178.508 40.525 179.536 40.7276C180.563 40.9302 181.629 40.827 182.597 40.431C183.565 40.0351 184.393 39.3641 184.975 38.5031C185.557 37.6421 185.868 36.6297 185.868 35.5941C185.869 34.907 185.733 34.2265 185.468 33.5914C185.203 32.9564 184.813 32.3792 184.322 31.8931C183.831 31.4069 183.247 31.0212 182.605 30.758C181.963 30.4948 181.275 30.3594 180.58 30.3594Z" fill="white"/>
</g>
<defs>
<clipPath id="clip0_9354_13592">
<rect width="185.867" height="41" fill="white"/>
</clipPath>
</defs>
</svg>
