<svg width="136" height="31" viewBox="0 0 136 31" fill="none" xmlns="http://www.w3.org/2000/svg">
<g id="Group 82705">
<path id="Vector" d="M24.4035 0.537109H17.785C17.7961 3.18904 17.1829 5.80635 15.9949 8.17736C14.807 10.5484 13.0777 12.6065 10.9469 14.1853L8.32764 16.1454L18.4666 29.9851H26.8199L17.4808 17.2495C19.6856 15.0622 21.4331 12.4582 22.6216 9.58896C23.8101 6.71974 24.4159 3.64272 24.4035 0.537109Z" fill="white"/>
<path id="Vector_2" d="M0.745605 29.9851H7.5218V0.537109H0.745605V29.9851Z" fill="white"/>
<path id="Vector_3" d="M28.791 29.9741H35.1729V0.542969H28.791V29.9741Z" fill="white"/>
<path id="Vector_4" d="M91.1453 9.06986C88.712 9.06986 86.4082 9.82465 84.8704 11.8862V9.61624H78.7983V29.973H84.9437V19.2708C84.9437 16.1727 87.0165 14.6575 89.5175 14.6575C92.1986 14.6575 93.7364 16.2572 93.7364 19.2257V29.973H99.8254V17.0177C99.8254 12.2805 96.0571 9.05859 91.1453 9.05859V9.06986Z" fill="white"/>
<path id="Vector_5" d="M48.9116 25.0348C47.4852 25.0711 46.1027 24.5399 45.0677 23.5577C44.0327 22.5755 43.4298 21.2227 43.3915 19.7963C43.4696 18.3844 44.0855 17.056 45.1127 16.0841C46.1399 15.1122 47.5003 14.5706 48.9144 14.5706C50.3285 14.5706 51.6889 15.1122 52.716 16.0841C53.7432 17.056 54.3591 18.3844 54.4373 19.7963C54.3989 21.2237 53.7953 22.5774 52.7591 23.5597C51.7229 24.5421 50.3389 25.0726 48.9116 25.0348ZM54.4542 9.61796V10.9191C53.0643 9.97219 51.4714 9.36485 49.8039 9.14601C48.1364 8.92717 46.4408 9.10294 44.8536 9.65918C43.2664 10.2154 41.832 11.1366 40.6659 12.3485C39.4998 13.5603 38.6345 15.0291 38.1398 16.6365C37.6451 18.244 37.5347 19.9451 37.8176 21.6029C38.1004 23.2608 38.7686 24.8291 39.7683 26.1815C40.7681 27.5339 42.0714 28.6327 43.5734 29.3894C45.0754 30.1461 46.7341 30.5395 48.4159 30.538C50.568 30.5506 52.6734 29.9104 54.4542 28.7017V30.0029H60.5544V9.61796H54.4542Z" fill="white"/>
<path id="Vector_6" d="M69.9833 12.2702V9.61719H63.7422V29.9739H69.9945V20.4715C69.9945 17.2608 73.4699 15.5372 75.8864 15.5372H75.954V9.61719C73.4812 9.61719 71.2056 10.6761 69.9833 12.2702Z" fill="white"/>
<path id="Vector_7" d="M113.22 25.0348C111.794 25.0711 110.411 24.5399 109.376 23.5577C108.341 22.5755 107.739 21.2227 107.7 19.7963C107.778 18.3844 108.394 17.056 109.422 16.0841C110.449 15.1122 111.809 14.5706 113.223 14.5706C114.637 14.5706 115.998 15.1122 117.025 16.0841C118.052 17.056 118.668 18.3844 118.746 19.7963C118.708 21.2237 118.104 22.5774 117.068 23.5597C116.032 24.5421 114.648 25.0726 113.22 25.0348ZM118.769 9.61797V10.9191C117.154 9.81928 115.271 9.18047 113.32 9.07144C111.37 8.9624 109.427 9.38727 107.7 10.3003C105.973 11.2134 104.528 12.5801 103.52 14.2533C102.512 15.9265 101.979 17.8429 101.979 19.7963C101.979 21.7497 102.512 23.6662 103.52 25.3394C104.528 27.0126 105.973 28.3793 107.7 29.2923C109.427 30.2054 111.37 30.6303 113.32 30.5212C115.271 30.4122 117.154 29.7734 118.769 28.6735V29.9747H124.863V9.61797H118.769Z" fill="white"/>
<path id="Vector_8" d="M131.335 22.7539C130.578 22.7528 129.837 22.9765 129.206 23.3967C128.575 23.8169 128.083 24.4147 127.793 25.1145C127.502 25.8143 127.425 26.5846 127.572 27.328C127.72 28.0713 128.084 28.7544 128.619 29.2906C129.155 29.8268 129.837 30.1922 130.58 30.3404C131.324 30.4887 132.094 30.4132 132.794 30.1234C133.494 29.8337 134.093 29.3427 134.514 28.7127C134.935 28.0827 135.16 27.342 135.16 26.5842C135.161 26.0814 135.062 25.5835 134.871 25.1188C134.679 24.6541 134.397 24.2319 134.042 23.8761C133.687 23.5204 133.265 23.2381 132.8 23.0456C132.336 22.853 131.838 22.7539 131.335 22.7539Z" fill="white"/>
</g>
</svg>
