<svg width="24" height="25" viewBox="0 0 24 25" fill="none" xmlns="http://www.w3.org/2000/svg">
<g id="Group">
<path id="Vector" d="M24 18.2424V6.80055C24 3.33272 21.1888 0.521484 17.7209 0.521484L6.27907 0.521484C2.81124 0.521484 3.8147e-06 3.33272 3.8147e-06 6.80055V18.2424C3.8147e-06 21.7102 2.81124 24.5215 6.27907 24.5215H17.7209C21.1888 24.5215 24 21.7102 24 18.2424Z" fill="black"/>
<path id="Vector_2" d="M6.96036 10.2881H9.2832V17.7573H6.96036V10.2881ZM8.12589 6.57812C8.87281 6.57812 9.47199 7.1773 9.47199 7.92423C9.47199 8.67115 8.87281 9.27033 8.12589 9.27033C7.37896 9.27033 6.77979 8.66294 6.77979 7.92423C6.77979 7.18551 7.37896 6.57812 8.12589 6.57812Z" fill="white"/>
<path id="Vector_3" d="M10.744 10.2884H12.9684V11.3062H13.0012C13.3131 10.7152 14.0683 10.0996 15.201 10.0996C17.5484 10.0996 17.9834 11.6427 17.9834 13.6536V17.7494H15.6606V14.1215C15.6606 13.2515 15.6442 12.1434 14.454 12.1434C13.2639 12.1434 13.0587 13.0873 13.0587 14.064V17.7576H10.7358V10.2884H10.744Z" fill="white"/>
</g>
</svg>
