<svg width="16" height="17" viewBox="0 0 16 17" fill="none" xmlns="http://www.w3.org/2000/svg">
<g id="Location small">
<path id="Vector" fill-rule="evenodd" clip-rule="evenodd" d="M2.16699 7.26187C2.16699 3.99586 4.77033 1.33301 8.00033 1.33301C11.2303 1.33301 13.8337 3.99586 13.8337 7.26187C13.8337 8.8386 13.3843 10.5316 12.59 11.9942C11.7966 13.4551 10.6374 14.7245 9.18733 15.4023C8.43404 15.7544 7.56661 15.7544 6.81332 15.4023C5.36324 14.7245 4.20407 13.4551 3.4107 11.9942C2.61634 10.5316 2.16699 8.8386 2.16699 7.26187ZM8.00033 2.33301C5.33928 2.33301 3.16699 4.53133 3.16699 7.26187C3.16699 8.65992 3.56875 10.1899 4.28946 11.517C5.01115 12.8458 6.03101 13.9328 7.23676 14.4963C7.72169 14.723 8.27896 14.723 8.7639 14.4963C9.96965 13.9328 10.9895 12.8458 11.7112 11.517C12.4319 10.1899 12.8337 8.65992 12.8337 7.26187C12.8337 4.53133 10.6614 2.33301 8.00033 2.33301ZM8.00033 5.66634C7.1719 5.66634 6.50033 6.33791 6.50033 7.16634C6.50033 7.99477 7.1719 8.66634 8.00033 8.66634C8.82875 8.66634 9.50033 7.99477 9.50033 7.16634C9.50033 6.33791 8.82875 5.66634 8.00033 5.66634ZM5.50033 7.16634C5.50033 5.78563 6.61961 4.66634 8.00033 4.66634C9.38104 4.66634 10.5003 5.78563 10.5003 7.16634C10.5003 8.54705 9.38104 9.66634 8.00033 9.66634C6.61961 9.66634 5.50033 8.54705 5.50033 7.16634Z" fill="#707070"/>
</g>
</svg>
