<svg width="169" height="135" viewBox="0 0 169 135" fill="none" xmlns="http://www.w3.org/2000/svg">
<path fill-rule="evenodd" clip-rule="evenodd" d="M97.4763 126.186C97.5584 126.267 97.6392 126.345 97.7211 126.423C100.623 124.049 103.488 121.617 106.434 119.311C110.96 115.769 115.539 112.307 120.099 108.818C123.248 106.411 126.414 104.034 129.553 101.614C131.88 99.8204 134.242 98.0719 136.468 96.1342C141.701 91.5826 146.864 86.9276 152.049 82.3104C152.271 82.1136 152.445 81.8537 152.866 81.3592C152.214 81.4223 151.9 81.445 151.589 81.4879C148.045 81.9874 144.482 82.2801 140.931 81.8184C139.599 81.6443 138.242 81.0539 137.061 80.3247C135.737 79.5098 135.77 78.8159 136.825 77.5822C137.64 76.6285 138.52 75.7353 139.301 74.7488C141.563 71.8977 143.729 68.9458 146.047 66.1502C151.489 59.5852 157.001 53.0934 162.474 46.5612C162.798 46.1726 163.027 45.6882 163.482 44.9515C161.356 44.9515 159.58 45.0196 157.809 44.9363C155.363 44.8203 152.883 44.5907 150.672 43.3771C148.369 42.1156 148.249 40.7733 149.603 39.1459C149.913 38.7725 150.145 38.3209 150.413 37.9046C153.651 32.8459 156.894 27.7897 160.121 22.7234C160.428 22.2415 160.641 21.6864 161.027 20.9017C155.746 20.8714 150.843 22.9403 145.906 20.8538C142.994 26.1295 140.218 31.2437 137.362 36.305C134.491 41.394 131.391 46.3316 128.882 51.9933C132.153 51.8546 135.127 51.9 138.057 51.5165C139.213 51.3651 139.948 51.7991 140.744 52.3516C141.659 52.9874 141.723 53.4845 141.046 54.5038C140.069 55.9747 139.002 57.37 138.009 58.8258C132.526 66.8743 126.499 74.4208 120.467 81.9647C118.913 83.9075 117.54 86.0268 115.89 88.3379C116.604 88.2951 116.975 88.3001 117.338 88.2446C119.89 87.8661 122.458 87.5735 124.984 87.0436C126.238 86.7787 127.156 87.3615 128.149 87.8813C128.961 88.3052 128.954 88.9561 128.408 89.6424C127.624 90.6289 126.86 91.6381 126.021 92.5641C123.453 95.3975 120.776 98.1123 118.286 101.024C113.712 106.37 109.228 111.815 104.731 117.245C102.286 120.199 99.8928 123.204 97.4763 126.186ZM151.598 41.5681C153.01 41.8002 154.093 42.1156 155.178 42.1307C158.018 42.1686 160.858 42.0727 163.698 42.0298C164.294 42.0197 164.889 41.9667 165.483 41.997C166.638 42.0525 167.468 42.8902 168.029 43.8086C168.627 44.7799 167.574 45.3552 167.086 45.9456C164.859 48.6377 162.56 51.2541 160.317 53.9285C154.622 60.7231 148.934 67.5227 143.26 74.34C141.974 75.8867 140.758 77.509 139.388 79.2524C140.602 79.8681 141.713 79.7142 142.786 79.7243C147.103 79.7646 151.36 79.1566 155.567 78.1473C157.048 77.7916 158.434 77.7663 159.646 78.9143C159.873 79.1288 159.987 79.4871 160.15 79.7772C156.254 82.9512 152.382 85.9865 148.631 89.1933C144.826 92.448 141.155 95.892 137.394 99.2098C136.372 100.113 135.234 100.852 134.157 101.68C132.375 103.052 130.606 104.443 128.823 105.813C124.985 108.765 121.126 111.686 117.305 114.666C113.041 117.989 108.788 121.327 104.573 124.723C101.327 127.339 98.1337 130.039 94.9452 132.741C94.2405 133.339 93.6215 133.559 92.7836 133.089C92.2039 132.764 91.5083 132.696 90.9122 132.398C89.7369 131.81 89.5411 130.904 90.3051 129.787C90.5423 129.439 90.8477 129.151 91.1199 128.83C94.6408 124.693 98.2182 120.608 101.67 116.399C107.384 109.433 112.972 102.343 119.125 95.8289C120.785 94.0729 122.241 92.0822 124.148 89.766C121.229 90.3387 118.768 90.8232 116.307 91.3051C115.266 91.5094 114.228 91.8374 113.183 91.8652C112.516 91.8828 111.755 91.5927 111.187 91.1865C110.379 90.6062 110.309 89.8694 111.044 89.2008C114.445 86.1101 116.781 81.9925 119.643 78.3895C124.952 71.7085 130.348 65.0905 135.037 57.8367C135.647 56.8931 136.324 56 136.953 55.0689C137.015 54.9781 136.962 54.7939 136.962 54.4155C134.279 54.5668 131.604 54.7864 128.926 54.8368C127.987 54.8545 126.945 54.6652 126.122 54.201C125.147 53.651 125.119 52.8688 125.688 51.8369C131.184 41.8708 136.687 31.9098 142.172 21.9362C142.853 20.6999 143.441 19.4005 144.136 18.0002C148.814 19.7916 153.515 18.5326 158.213 18.1566C159.533 18.0507 160.852 17.9397 162.173 17.8665C162.484 17.8488 162.832 17.9018 163.114 18.0456C165.201 19.1028 165.459 19.6932 164.152 21.805C160.879 27.0983 157.479 32.2958 154.134 37.5337C153.345 38.77 152.571 40.0189 151.598 41.5681Z" fill="#592D62"/>
<path fill-rule="evenodd" clip-rule="evenodd" d="M80.4597 71.2468C84.2942 58.2086 88.5238 45.4595 91.7902 31.8695C90.7577 32.3767 90.1655 32.6526 89.5875 32.9574C87.859 33.8665 86.163 34.8598 84.4035 35.6875C83.0258 36.3312 81.5786 37.0617 79.9942 35.7742C81.0891 32.1455 82.187 28.4931 83.2927 24.8407C85.0498 19.0416 86.8365 13.2504 88.5496 7.43552C88.8819 6.30828 88.9357 5.08118 89.1328 3.79891C88.7004 3.84621 88.496 3.81731 88.3283 3.89088C82.5582 6.416 76.7839 8.92536 70.7024 10.4257C69.8575 10.6333 69.5125 11.2061 69.37 12.0732C68.5708 16.9474 67.7413 21.8137 66.953 26.6879C66.2576 30.9867 65.5951 35.2933 64.9338 39.6C64.6527 41.4314 64.4109 43.2681 64.1203 45.3255C64.7173 45.1389 65.0472 45.0916 65.329 44.9392C67.3394 43.8435 69.3215 42.6848 71.3533 41.6416C72.0336 41.2948 72.8393 41.0451 73.5762 41.0767C74.6584 41.124 74.9474 41.618 74.758 42.8083C74.5312 44.2429 74.2087 45.6566 73.9161 47.0781C72.3028 54.8847 70.7465 62.7071 69.0423 70.4874C68.2995 73.8744 67.2408 77.1773 66.3486 80.5275C66.1814 81.1528 66.1238 81.8123 65.9394 82.9133C69.4391 80.4828 72.5392 78.4149 75.5532 76.1998C76.6748 75.3774 77.6489 75.1776 79.006 76.0579C77.2958 83.0237 74.9862 89.753 73.0695 96.6162C71.132 103.55 69.184 110.485 67.2415 117.419C70.8694 113.194 92.1477 69.9356 92.6125 66.1308C91.3847 66.8508 90.2943 67.4551 89.2345 68.1173C87.5112 69.1946 85.8167 70.3297 84.0933 71.4044C82.9175 72.1402 81.7249 72.2558 80.4597 71.2468ZM63.008 123.021C67.03 108.606 71.0036 94.3644 74.9779 80.1202C72.4779 80.8848 70.5759 82.3694 68.6137 83.7357C67.6653 84.3953 66.7157 85.0574 65.7326 85.6486C64.5912 86.3344 63.4725 86.2793 62.2521 85.1783C66.7572 72.2348 69.1704 58.6868 71.339 44.7632C70.7086 44.9524 70.2906 45.0312 69.9096 45.2046C68.142 46.0034 66.3932 46.8521 64.6196 47.6351C64.1401 47.8454 63.594 47.9872 63.0833 47.9767C61.7814 47.9478 61.1803 47.1596 61.3621 45.7354C61.5565 44.2219 61.8336 42.7189 62.0661 41.2107C62.8605 36.0422 63.6603 30.8763 64.4419 25.7052C65.2657 20.2556 66.0702 14.8033 66.8551 9.54021C71.0028 8.19226 75.0093 7.00984 78.9405 5.5778C82.3872 4.32181 85.7671 2.83458 89.1409 1.34998C90.3687 0.808701 91.4173 0.84288 92.5034 1.71262C90.6267 12.7853 86.0606 22.8858 82.9629 34.0715C84.4223 33.3988 85.4901 32.9495 86.5237 32.4213C88.3785 31.4702 90.2224 30.4901 92.052 29.4837C93.1573 28.8741 94.1829 28.9608 95.3464 29.7254C91.4938 42.7636 87.6517 55.7623 83.6588 69.2734C84.7053 68.6454 85.3693 68.246 86.0332 67.8466C88.6415 66.2806 91.2427 64.6988 93.8613 63.1511C95.0005 62.4785 96.1683 62.0843 97.4218 63.2667C96.3071 65.5449 95.1908 67.7521 94.1379 69.9934C91.8907 74.7809 89.7064 79.6025 87.4306 84.3742C86.512 86.2976 85.3628 88.0897 84.4233 90.0026C82.2218 94.4879 80.1914 99.0809 77.8921 103.503C75.0977 108.871 72.0913 114.106 69.1933 119.411C68.4438 120.78 67.752 122.191 67.0423 123.589C66.1037 125.441 65.1909 125.478 63.9192 123.765C63.6479 123.399 63.2131 123.181 63.008 123.021Z" fill="#592D62"/>
<path fill-rule="evenodd" clip-rule="evenodd" d="M39.6433 125.983C40.7516 108.652 41.9425 91.3892 41.6799 73.8755C39.1879 76.2237 37.6753 79.7895 33.7877 79.2291C33.1166 74.1284 32.5368 69.2237 31.8089 64.3438C31.0794 59.4441 30.5538 54.4947 29.3598 49.4263C28.3522 50.3091 27.6034 51.0182 26.8057 51.6505C25.7377 52.5011 24.6896 53.421 23.5278 54.0831C21.928 54.9981 20.4146 54.6782 20.3795 52.2928C20.3642 51.2042 20.1657 50.1206 20.0853 49.0321C19.6192 42.7164 19.1626 36.4008 18.7063 30.0852C18.6761 29.676 18.6665 29.2644 18.635 28.58C17.9559 29.0536 17.4624 29.3661 16.9993 29.7256C15.3833 30.9853 13.7665 32.2424 12.1715 33.5343C9.51534 35.6842 6.89899 37.896 4.21903 40.0087C2.83599 41.0972 2.8859 42.5255 3.17276 44.0703C3.50188 45.8432 3.85843 47.6087 4.1934 49.3792C5.54114 56.5032 6.87989 63.6297 8.24359 70.7487C8.32722 71.1851 8.59946 71.5794 8.80426 72.0356C11.6996 68.6857 14.4924 65.4944 17.234 62.2485C17.8706 61.4947 18.5118 60.9765 19.4587 61.1947C20.556 61.4476 20.3424 62.556 20.4353 63.3321C20.8617 66.8706 21.1158 70.4388 21.5827 73.9698C22.2893 79.301 23.0865 84.6198 23.914 89.9287C24.291 92.3414 24.8346 94.7218 25.3719 97.4717C26.1857 96.7229 26.8235 96.2344 27.3518 95.6319C28.7742 94.0077 30.1511 92.3339 31.547 90.6775C32.3167 89.7675 33.1926 89.284 34.3643 89.7477C36.8914 101.744 37.6827 113.956 39.6433 125.983ZM18.2423 64.4083C15.1147 67.6789 12.4511 70.5826 10.2622 73.9772C9.21836 75.5989 9.22106 75.6013 7.04714 75.0459C4.83681 63.6445 2.60219 52.1192 0.37207 40.6137C6.44735 35.6792 12.3898 30.8464 18.3423 26.0285C18.7036 25.7384 19.1269 25.4904 19.5561 25.3565C20.9461 24.925 21.3615 25.2697 21.3862 26.8815C21.4458 30.6009 21.3053 34.3353 21.5625 38.0349C21.8788 42.5999 22.5157 47.1376 23.0433 51.9531C23.5981 51.6233 24.005 51.4621 24.3234 51.1794C25.6621 49.9917 27.0112 48.8114 28.2854 47.5418C29.2488 46.5822 30.2642 46.1482 31.7199 46.6491C33.5217 56.4685 34.4091 66.5383 36.1396 76.9056C37.1308 75.822 37.9352 75.0236 38.651 74.1384C39.6633 72.8886 40.6368 71.5992 41.5776 70.2825C42.3201 69.2411 43.2239 68.9782 44.4421 69.2113C44.4421 71.443 44.4801 73.5383 44.4338 75.6286C44.3196 80.8755 44.1822 86.12 44.0238 91.3644C43.9203 94.7863 43.6647 98.2057 43.6542 101.628C43.6344 107.67 42.5584 113.639 42.7931 119.709C42.8876 122.142 42.2358 124.606 41.9672 127.061C41.7388 129.144 41.5726 131.239 41.3658 133.466C40.3836 133.883 39.4347 134.284 38.4269 134.713C36.0562 120.624 35.6493 106.49 32.5739 92.5521C29.6523 95.3368 27.6967 99.1604 23.5039 100.078C21.3332 88.2475 19.4655 76.6701 18.2423 64.4083Z" fill="#592D62"/>
</svg>
