<svg width="68" height="16" viewBox="0 0 68 16" fill="none" xmlns="http://www.w3.org/2000/svg">
<path fill-rule="evenodd" clip-rule="evenodd" d="M4.10319 15.7036H0.737793V0H4.10319V15.7036ZM12.5053 0H9.21285C9.21285 2.88987 7.97216 5.5423 5.809 7.27762L4.5046 8.32375L9.55872 15.7043H13.7142L9.06371 8.91305C11.2681 6.56231 12.5053 3.39972 12.5053 0ZM17.8732 15.699H14.6949V0.00264422H17.8732V15.699ZM27.4755 4.84168V5.53625C26.6179 4.90974 25.5828 4.54157 24.4664 4.54157C21.5118 4.54157 19.1166 7.10663 19.1166 10.2708C19.1166 13.435 21.5118 16.0001 24.4664 16.0001C25.5828 16.0001 26.6179 15.6319 27.4755 15.0055V15.6995H30.5111V4.84168H27.4755ZM27.4664 10.2711C27.4664 11.8139 26.2349 13.0647 24.7157 13.0647C23.1967 13.0647 21.9652 11.8139 21.9652 10.2711C21.9652 8.72827 23.1967 7.47779 24.7157 7.47779C26.2349 7.47779 27.4664 8.72827 27.4664 10.2711ZM59.5005 5.53625V4.84168H62.536V15.6995H59.5005V15.0055C58.6429 15.6319 57.6078 16.0001 56.4913 16.0001C53.5366 16.0001 51.1414 13.435 51.1414 10.2708C51.1414 7.10663 53.5366 4.54157 56.4913 4.54157C57.6078 4.54157 58.6429 4.90974 59.5005 5.53625ZM56.7405 13.0647C58.2597 13.0647 59.4911 11.8139 59.4911 10.2711C59.4911 8.72827 58.2597 7.47779 56.7405 7.47779C55.2214 7.47779 53.99 8.72827 53.99 10.2711C53.99 11.8139 55.2214 13.0647 56.7405 13.0647ZM63.8534 13.8881C63.8534 12.7613 64.7062 11.848 65.7582 11.848C66.8102 11.848 67.6632 12.7613 67.6632 13.8881C67.6632 15.0146 66.8102 15.928 65.7582 15.928C64.7062 15.928 63.8534 15.0146 63.8534 13.8881ZM45.7472 4.5495C44.5346 4.5495 43.387 4.95266 42.6197 6.06495V4.84217H39.5972V15.6993H42.6568V9.9935C42.6568 8.3424 43.6907 7.53386 44.9356 7.53386C46.2697 7.53386 47.0367 8.38735 47.0367 9.97102V15.6993H50.0686V8.79463C50.0686 6.26787 48.1927 4.5495 45.7472 4.5495ZM35.2071 4.8418V6.25595C35.8157 5.40768 36.9495 4.84244 38.1822 4.84244V8.00187L38.1761 8.00171L38.1653 8.00116C38.159 8.0008 38.1527 8.00044 38.1461 8.00044C36.945 8.00044 35.2141 8.91978 35.2141 10.6301V15.6994H32.0992V4.8418H35.2071Z" fill="black"/>
</svg>
