<svg width="32" height="32" viewBox="0 0 32 32" fill="none" xmlns="http://www.w3.org/2000/svg">
<g id="Bold / Money / Money Bag">
<path id="Union" fill-rule="evenodd" clip-rule="evenodd" d="M16.0694 1.66669H15.9307C14.7327 1.66665 13.7337 1.66662 12.9407 1.77324C12.1037 1.88578 11.3479 2.13334 10.7406 2.74063C10.1333 3.34793 9.88578 4.10366 9.77324 4.94072C9.69681 5.5092 9.67518 6.86865 9.66908 8.03423C6.97274 8.1223 5.35384 8.43706 4.22878 9.56212C2.66669 11.1242 2.66669 13.6384 2.66669 18.6667C2.66669 23.695 2.66669 26.2092 4.22878 27.7713C5.79088 29.3334 8.30503 29.3334 13.3333 29.3334H18.6667C23.695 29.3334 26.2092 29.3334 27.7713 27.7713C29.3334 26.2092 29.3334 23.695 29.3334 18.6667C29.3334 13.6384 29.3334 11.1242 27.7713 9.56212C26.6462 8.43707 25.0273 8.1223 22.331 8.03423C22.3249 6.86865 22.3032 5.5092 22.2268 4.94072C22.1143 4.10366 21.8667 3.34793 21.2594 2.74063C20.6521 2.13334 19.8964 1.88578 19.0593 1.77324C18.2663 1.66662 17.2673 1.66665 16.0694 1.66669ZM20.3306 8.00252C20.3245 6.87367 20.3054 5.65878 20.2446 5.20721C20.1619 4.59193 20.019 4.3286 19.8452 4.15485C19.6714 3.98109 19.4081 3.83813 18.7928 3.75541C18.1488 3.66882 17.2854 3.66669 16 3.66669C14.7147 3.66669 13.8513 3.66882 13.2072 3.75541C12.5919 3.83813 12.3286 3.98109 12.1548 4.15485C11.9811 4.3286 11.8381 4.59193 11.7554 5.20721C11.6947 5.65878 11.6755 6.87367 11.6695 8.00252C12.1914 8.00002 12.7452 8.00002 13.3334 8.00002H18.6667C19.2549 8.00002 19.8087 8.00002 20.3306 8.00252ZM16 12.3334C16.5523 12.3334 17 12.7811 17 13.3334V13.347C18.4517 13.7127 19.6667 14.8574 19.6667 16.4445C19.6667 16.9967 19.219 17.4445 18.6667 17.4445C18.1144 17.4445 17.6667 16.9967 17.6667 16.4445C17.6667 15.9324 17.099 15.2222 16 15.2222C14.9011 15.2222 14.3334 15.9324 14.3334 16.4445C14.3334 16.9565 14.9011 17.6667 16 17.6667C17.8466 17.6667 19.6667 18.9464 19.6667 20.8889C19.6667 22.476 18.4517 23.6206 17 23.9864V24C17 24.5523 16.5523 25 16 25C15.4477 25 15 24.5523 15 24V23.9864C13.5483 23.6206 12.3334 22.476 12.3334 20.8889C12.3334 20.3366 12.7811 19.8889 13.3334 19.8889C13.8856 19.8889 14.3334 20.3366 14.3334 20.8889C14.3334 21.401 14.9011 22.1111 16 22.1111C17.099 22.1111 17.6667 21.401 17.6667 20.8889C17.6667 20.3769 17.099 19.6667 16 19.6667C14.1534 19.6667 12.3334 18.387 12.3334 16.4445C12.3334 14.8574 13.5483 13.7127 15 13.347V13.3334C15 12.7811 15.4477 12.3334 16 12.3334Z" fill="#1C1C1C"/>
</g>
</svg>
