<svg width="51" height="50" viewBox="0 0 51 50" fill="none" xmlns="http://www.w3.org/2000/svg">
<g id="mongolia" clip-path="url(#clip0_9354_13776)">
<path id="Vector" d="M25.75 50C28.808 50 31.7374 49.45 34.4456 48.445L35.5326 25L34.4457 1.55498C31.7374 0.550098 28.808 0 25.75 0C22.692 0 19.7626 0.550098 17.0544 1.55498L15.9674 25L17.0543 48.445C19.7626 49.45 22.692 50 25.75 50Z" fill="#0052B4"/>
<g id="Group">
<path id="Vector_2" d="M0.75 25C0.75 35.7491 7.53437 44.9126 17.0544 48.445V1.55493C7.53437 5.08726 0.75 14.2508 0.75 25Z" fill="#A2001D"/>
<path id="Vector_3" d="M34.4456 1.55493V48.4451C43.9656 44.9126 50.75 35.7491 50.75 25C50.75 14.2508 43.9656 5.08726 34.4456 1.55493Z" fill="#A2001D"/>
</g>
<g id="Group_2">
<path id="Vector_4" d="M12.7065 25H14.8805V33.6956H12.7065V25Z" fill="#FFDA44"/>
<path id="Vector_5" d="M4.01086 25H6.18479V33.6956H4.01086V25Z" fill="#FFDA44"/>
<path id="Vector_6" d="M9.44565 30.4348C10.6463 30.4348 11.6196 29.4615 11.6196 28.2608C11.6196 27.0602 10.6463 26.0869 9.44565 26.0869C8.24503 26.0869 7.27173 27.0602 7.27173 28.2608C7.27173 29.4615 8.24503 30.4348 9.44565 30.4348Z" fill="#FFDA44"/>
<path id="Vector_7" d="M9.44568 21.739C10.046 21.739 10.5326 21.2524 10.5326 20.6521C10.5326 20.0518 10.046 19.5652 9.44568 19.5652C8.84539 19.5652 8.35876 20.0518 8.35876 20.6521C8.35876 21.2524 8.84539 21.739 9.44568 21.739Z" fill="#FFDA44"/>
<path id="Vector_8" d="M7.27185 31.5217H11.6197V33.6957H7.27185V31.5217Z" fill="#FFDA44"/>
<path id="Vector_9" d="M7.27185 22.826H11.6197V25H7.27185V22.826Z" fill="#FFDA44"/>
<path id="Vector_10" d="M9.44565 13.0435L10.2156 15.4126H12.7066L10.6915 16.8769L11.4608 19.246L9.44565 17.7817L7.43061 19.246L8.19995 16.8769L6.18481 15.4126H8.67583L9.44565 13.0435Z" fill="#FFDA44"/>
</g>
</g>
<defs>
<clipPath id="clip0_9354_13776">
<rect width="50" height="50" fill="white" transform="translate(0.75)"/>
</clipPath>
</defs>
</svg>
