<svg width="50" height="50" viewBox="0 0 50 50" fill="none" xmlns="http://www.w3.org/2000/svg">
<g id="montenegro" clip-path="url(#clip0_9354_13779)">
<path id="Vector" d="M25 50C38.8071 50 50 38.8071 50 25C50 11.1929 38.8071 0 25 0C11.1929 0 0 11.1929 0 25C0 38.8071 11.1929 50 25 50Z" fill="#FFDA44"/>
<path id="Vector_2" d="M50 25C50 16.4199 45.6769 8.85015 39.0905 4.3479H10.9095C4.32324 8.85015 0 16.4199 0 25C0 33.5804 4.32324 41.1499 10.9095 45.6522H39.0905C45.6769 41.1499 50 33.5804 50 25Z" fill="#A2001D"/>
<g id="Group">
<path id="Vector_3" d="M19.5652 18.4782H30.4347V14.1305L28.2608 15.2174L25 11.9565L21.7391 15.2174L19.5652 14.1305V18.4782Z" fill="#FFDA44"/>
<path id="Vector_4" d="M34.7826 25H29.3499C29.563 24.6315 29.6868 24.205 29.6868 23.7488C29.6868 22.3633 28.5636 21.2404 27.1784 21.2404C26.2213 21.2404 25.39 21.7767 24.9671 22.5648C24.5441 21.7766 23.7129 21.2404 22.7557 21.2404C21.3705 21.2404 20.2473 22.3633 20.2473 23.7488C20.2473 24.2051 20.3714 24.6316 20.5843 25H15.2172C15.2172 26.6624 16.6651 28.01 18.3274 28.01H18.2272C18.2272 29.3736 19.1342 30.5249 20.3776 30.8947L17.9345 33.338L20.2403 35.6438L23.5111 32.373C23.6392 32.4199 23.7718 32.4574 23.9088 32.4832L21.9324 36.9456C22.8795 37.3308 23.9145 37.5446 25 37.5446C26.0853 37.5446 27.1204 37.3308 28.0675 36.9456L26.0912 32.4832C26.2281 32.4575 26.3606 32.4199 26.4886 32.373L29.7594 35.6438L32.0651 33.338L29.6219 30.8948C30.8653 30.5248 31.7723 29.3737 31.7723 28.0101H31.672C33.3345 28.01 34.7826 26.6624 34.7826 25Z" fill="#FFDA44"/>
</g>
<path id="Vector_5" d="M25 26.6305L21.4674 28.2609V31.5218L25 33.6956L28.5326 31.5218V28.2609L25 26.6305Z" fill="#6DA544"/>
<path id="Vector_6" d="M21.4674 25H28.5326V29.3479H21.4674V25Z" fill="#0052B4"/>
</g>
<defs>
<clipPath id="clip0_9354_13779">
<rect width="50" height="50" fill="white"/>
</clipPath>
</defs>
</svg>
