<svg width="51" height="50" viewBox="0 0 51 50" fill="none" xmlns="http://www.w3.org/2000/svg">
<g id="mozambique" clip-path="url(#clip0_9354_13786)">
<path id="Vector" d="M25.25 50C39.0571 50 50.25 38.8071 50.25 25C50.25 11.1929 39.0571 0 25.25 0C11.4429 0 0.25 11.1929 0.25 25C0.25 38.8071 11.4429 50 25.25 50Z" fill="#F0F0F0"/>
<path id="Vector_2" d="M13.7628 34.7827L7.57312 42.677C12.0969 47.2014 18.3463 50.0001 25.25 50.0001C35.5849 50.0001 44.4535 43.7277 48.2608 34.7827H13.7628Z" fill="#FFDA44"/>
<path id="Vector_3" d="M48.2997 15.3079C44.5136 6.31465 35.6199 0 25.25 0C18.3463 0 12.0969 2.79873 7.57312 7.32314L13.8339 15.3079H48.2997Z" fill="#496E2D"/>
<path id="Vector_4" d="M5.68475 18.3877V31.5217H49.3889C49.9496 29.4425 50.25 27.2565 50.25 25C50.25 22.7107 49.9416 20.4939 49.3651 18.3877H5.68475Z" fill="black"/>
<path id="Vector_5" d="M7.57225 7.32227C-2.19083 17.0854 -2.19083 32.9145 7.57225 42.6777C11.6067 38.6433 15.4869 34.7631 25.25 25L7.57225 7.32227Z" fill="#A2001D"/>
<path id="Vector_6" d="M10.3682 18.4783L11.9868 23.4603H17.2257L12.9876 26.5396L14.6062 31.5218L10.3682 28.4426L6.13 31.5218L7.74895 26.5396L3.51086 23.4603H8.74934L10.3682 18.4783Z" fill="#FFDA44"/>
<path id="Vector_7" d="M5.63153 25H15.1065V29.3479H5.63153V25Z" fill="#F0F0F0"/>
<path id="Vector_8" d="M16.9004 20.0156L15.3632 18.4783L10.3682 23.4732L5.37333 18.4783L3.83612 20.0156L8.83544 25.006L3.83612 30.0054L5.37333 31.5218L10.3682 26.5359L15.3632 31.5218L16.9004 30.0054L11.9011 25.006L16.9004 20.0156Z" fill="black"/>
</g>
<defs>
<clipPath id="clip0_9354_13786">
<rect width="50" height="50" fill="white" transform="translate(0.25)"/>
</clipPath>
</defs>
</svg>
