<svg width="51" height="50" viewBox="0 0 51 50" fill="none" xmlns="http://www.w3.org/2000/svg">
<g id="myanmar" clip-path="url(#clip0_9354_13789)">
<path id="Vector" d="M48.945 33.6956C49.95 30.9874 50.5 28.058 50.5 25C50.5 21.942 49.95 19.0126 48.945 16.3044L25.5 14.1305L2.05498 16.3044C1.0501 19.0126 0.5 21.942 0.5 25C0.5 28.058 1.0501 30.9874 2.05498 33.6956L25.5 35.8696L48.945 33.6956Z" fill="#6DA544"/>
<path id="Vector_2" d="M48.945 16.3044C45.4127 6.78437 36.2491 0 25.5 0C14.7509 0 5.58732 6.78437 2.05499 16.3044H48.945Z" fill="#FFDA44"/>
<path id="Vector_3" d="M25.5 50C36.2491 50 45.4127 43.2156 48.945 33.6956H2.05499C5.58732 43.2156 14.7509 50 25.5 50Z" fill="#D80027"/>
<path id="Vector_4" d="M42.6435 21.1509H29.5471L25.5 8.69556L21.453 21.1509H8.35657L18.9518 28.8488L14.9047 41.3043L25.5 33.6956L36.0953 41.3042L32.0484 28.8487L42.6435 21.1509Z" fill="#F0F0F0"/>
</g>
<defs>
<clipPath id="clip0_9354_13789">
<rect width="50" height="50" fill="white" transform="translate(0.5)"/>
</clipPath>
</defs>
</svg>
