<svg width="51" height="50" viewBox="0 0 51 50" fill="none" xmlns="http://www.w3.org/2000/svg">
<g id="namibia" clip-path="url(#clip0_9354_13792)">
<path id="Vector" d="M25.75 50C39.5571 50 50.75 38.8071 50.75 25C50.75 11.1929 39.5571 0 25.75 0C11.9429 0 0.75 11.1929 0.75 25C0.75 38.8071 11.9429 50 25.75 50Z" fill="#F0F0F0"/>
<path id="Vector_2" d="M8.07234 42.6777C9.12107 43.7265 10.24 44.6617 11.4137 45.4852L46.2349 10.6639C45.4116 9.49014 44.4763 8.37119 43.4275 7.32246C42.3788 6.27373 41.2598 5.33857 40.0861 4.51514L5.26501 39.3364C6.08835 40.51 7.02361 41.629 8.07234 42.6777Z" fill="#A2001D"/>
<path id="Vector_3" d="M8.07239 7.32228C0.185285 15.2094 -1.32878 27.0543 3.52698 36.4627L37.2127 2.77706C27.8043 -2.0787 15.9593 -0.56444 8.07239 7.32228Z" fill="#0052B4"/>
<path id="Vector_4" d="M43.4277 42.6778C51.3146 34.7909 52.8287 22.9459 47.9731 13.5374L14.2874 47.2231C23.6957 52.0789 35.5407 50.5648 43.4277 42.6778Z" fill="#496E2D"/>
<path id="Vector_5" d="M21.4022 14.1304L18.6008 15.4481L20.0926 18.1612L17.0507 17.5793L16.6652 20.6521L14.5464 18.392L12.4276 20.6521L12.0422 17.5793L9.00024 18.1611L10.4919 15.448L7.69067 14.1304L10.492 12.8126L9.00024 10.0998L12.0421 10.6816L12.4277 7.60864L14.5464 9.8688L16.6653 7.60864L17.0507 10.6816L20.0926 10.0998L18.601 12.8127L21.4022 14.1304Z" fill="#FFDA44"/>
</g>
<defs>
<clipPath id="clip0_9354_13792">
<rect width="50" height="50" fill="white" transform="translate(0.75)"/>
</clipPath>
</defs>
</svg>
