<svg width="50" height="50" viewBox="0 0 50 50" fill="none" xmlns="http://www.w3.org/2000/svg">
<g id="nato" clip-path="url(#clip0_9354_13795)">
<path id="Vector" d="M25 50C38.8071 50 50 38.8071 50 25C50 11.1929 38.8071 0 25 0C11.1929 0 0 11.1929 0 25C0 38.8071 11.1929 50 25 50Z" fill="#0052B4"/>
<path id="Vector_2" d="M35.729 26.7441C35.821 26.176 35.8695 25.5935 35.8695 25C35.8695 25.5935 35.821 26.176 35.729 26.7441L40.2174 25L35.729 23.2559L33.2636 22.298L29.2583 20.7417L27.7019 16.7363C30.3263 17.5966 32.4032 19.6734 33.2635 22.2979L35.7289 23.2558C34.9839 18.6566 31.3431 15.0158 26.744 14.2709L25 9.78259L23.2558 14.271C18.6566 15.0161 15.016 18.6567 14.271 23.2559L9.78259 25L14.2711 26.7441C15.0161 31.3433 18.6567 34.984 23.2559 35.729L25 40.2174L26.7441 35.729C31.3432 34.984 34.984 31.3432 35.729 26.7441ZM27.5789 22.4212L25 25H34.2153L27.5788 27.5789L25 25V34.2154L22.4211 27.5788L25 25H15.7846L22.4211 22.4212L25 25V15.7846L27.5789 22.4212ZM22.2979 16.7364L20.7415 20.7418L16.7363 22.2981C17.5966 19.6734 19.6734 17.5968 22.2979 16.7364ZM16.7364 27.702L20.7415 29.2584L22.2979 33.2635C19.6734 32.4032 17.5968 30.3265 16.7364 27.702ZM27.702 33.2635L29.2584 29.2584L33.2635 27.702C32.4032 30.3265 30.3265 32.4032 27.702 33.2635Z" fill="#F0F0F0"/>
<g id="Group">
<path id="Vector_3" d="M34.2153 25H25L27.5789 27.5789L34.2153 25Z" fill="#0052B4"/>
<path id="Vector_4" d="M15.7847 25H25L22.4211 22.4211L15.7847 25Z" fill="#0052B4"/>
<path id="Vector_5" d="M25 34.2154V25L22.4211 27.5789L25 34.2154Z" fill="#0052B4"/>
<path id="Vector_6" d="M25 25L27.5789 22.4212L25 15.7847V25Z" fill="#0052B4"/>
</g>
<g id="Group_2">
<path id="Vector_7" d="M23.9131 3.26086H26.087V7.60872H23.9131V3.26086Z" fill="#F0F0F0"/>
<path id="Vector_8" d="M3.26086 23.9131H7.60872V26.087H3.26086V23.9131Z" fill="#F0F0F0"/>
<path id="Vector_9" d="M23.9131 42.3914H26.087V46.7392H23.9131V42.3914Z" fill="#F0F0F0"/>
<path id="Vector_10" d="M42.3914 23.9131H46.7392V26.087H42.3914V23.9131Z" fill="#F0F0F0"/>
</g>
</g>
<defs>
<clipPath id="clip0_9354_13795">
<rect width="50" height="50" fill="white"/>
</clipPath>
</defs>
</svg>
