<svg width="425" height="400" viewBox="0 0 425 400" fill="none" xmlns="http://www.w3.org/2000/svg">
<path fill-rule="evenodd" clip-rule="evenodd" d="M387.726 86.5446C381.038 82.5547 374.547 83.3992 368.399 88.1732C363.858 91.6999 361.708 97.1853 360.907 103.491C360.708 105.065 360.596 106.782 362.34 107.602C364.054 108.41 364.841 108.329 366.346 106.222C367.095 105.18 367.672 103.936 368.242 102.722C369.951 99.0742 369.919 99.0954 372.87 100.866C374.057 101.578 375.323 102.089 376.612 102.722C378.354 101.917 380.023 101.327 381.556 100.394C385.014 98.2963 387.022 94.5244 388.794 90.5526C389.592 88.7635 389.279 87.4739 387.726 86.5446ZM412.622 83.4961C410.744 85.5607 408.821 87.5647 406.905 89.5778C406.019 90.5071 404.879 91.2186 404.265 92.3538C400.749 98.8533 396.696 104.962 394.21 112.231C391.817 119.236 389.622 126.35 387.025 133.243C383.743 141.958 381.802 151.149 380.294 160.445C377.709 176.369 373.066 191.429 367.786 206.214C363.753 217.512 359.678 228.846 354.828 239.635C350.178 249.985 345.498 260.48 338.872 269.284C332.39 277.896 325.07 285.437 317.041 291.794C312.66 295.266 307.905 298.239 303.038 300.573C292.889 305.441 282.561 309.797 271.745 311.98C267.719 312.791 263.624 313.115 259.551 313.554C259.118 313.602 258.384 313.045 258.242 312.573C258.128 312.18 258.568 311.305 258.956 310.963C267.951 302.989 275.85 293.562 283.412 283.687C284.606 282.128 285.88 280.654 287.132 279.155C287.963 278.162 289.057 277.372 289.625 276.195C293.13 268.929 298.681 263.85 302.956 257.447C306.206 252.573 309.691 247.739 311.236 241.463C311.495 240.416 312.194 239.432 312.874 238.651C314.426 236.856 316.106 235.224 317.711 233.496C318.639 232.494 319.099 231.271 318.855 229.696C318.584 227.95 317.019 226.727 315.817 227.562C314.645 228.38 313.588 229.448 312.493 230.429C310.139 232.536 307.82 234.707 305.444 236.768C298.808 242.529 291.506 241.739 284.126 239.826C283.272 239.605 282.852 238.542 283.509 237.658C284.808 235.905 286.134 234.122 287.664 232.702C294.937 225.949 301.466 218.111 308.776 211.421C309.395 210.855 310.017 210.201 310.42 209.423C310.672 208.942 310.719 207.988 310.483 207.531C310.226 207.032 309.467 206.508 309.047 206.623C308.129 206.874 307.255 207.461 306.412 208.024C299.209 212.838 292.506 218.538 286.338 225.134C280.675 231.189 274.375 235.485 266.94 237.619C263.159 238.702 259.476 240.243 255.56 240.361C253.831 240.416 252.089 240.243 250.37 240.016C250.143 239.986 249.725 238.772 249.872 238.515C250.427 237.561 251.188 236.783 251.857 235.924C256.684 229.736 261.519 223.551 266.321 217.336C266.983 216.48 267.548 215.499 268.07 214.506C268.622 213.461 268.911 212.332 267.966 211.339C267.067 210.392 266.162 210.592 265.375 211.521C264.821 212.172 264.41 213.004 263.87 213.679C259.108 219.613 254.48 225.698 248.877 230.562C245.53 233.468 242.328 236.484 238.011 236.847C237.257 236.907 236.483 237.28 235.797 237.694C227.302 242.835 219.176 240.482 211.182 235.884C209.681 235.018 209.591 234.019 210.871 232.724C215.509 228.022 220.385 223.639 224.819 218.671C229.397 213.546 233.575 207.888 237.897 202.427C238.28 201.946 238.601 201.216 238.648 200.568C238.693 199.957 238.476 199.115 238.121 198.725C237.76 198.331 237.053 198.162 236.551 198.262C236.021 198.368 235.493 198.834 235.058 199.279C233.266 201.11 231.38 202.842 229.763 204.882C223.918 212.26 217.026 218.108 210.563 224.58C204.309 230.844 196.777 232.073 189.073 231.755C186.66 231.658 184.231 230.102 181.932 228.879C180.77 228.259 179.236 227.054 179.02 225.816C178.67 223.821 180.643 223.53 181.822 223.012C193.154 218.002 201.531 208.009 210.077 198.31C212.069 196.049 213.966 193.651 215.777 191.175C216.666 189.97 217.407 188.517 217.907 187.022C218.119 186.392 217.706 185.199 217.278 184.563C216.593 183.546 215.523 183.386 214.673 184.249C213.482 185.459 212.424 186.867 211.308 188.187C207.546 192.652 203.812 197.154 200.013 201.573C193.569 209.063 185.817 213.994 177.717 218.211C175.93 219.141 174.135 220.067 172.293 220.818C163.723 224.302 155.818 222.909 148.769 215.82C147.911 214.957 148.576 213.849 149.28 213.74C154.999 212.853 159.108 208.291 163.589 204.613C167.944 201.041 172.226 197.338 176.522 193.66C177.155 193.118 177.862 192.519 178.232 191.735C180.922 186.032 185.634 182.723 189.16 178.006C190.576 176.114 192.585 174.894 194.181 173.169C194.595 172.724 194.746 171.41 194.532 170.717C194.154 169.494 193.174 169 192.138 169.636C190.401 170.705 188.539 171.631 187.044 173.093C182.343 177.692 177.733 182.438 173.188 187.267C165.649 195.28 157.52 202.079 147.989 206.135C146.885 206.608 145.75 207.016 144.712 207.658C136.469 212.744 127.829 212.702 119.018 210.737C117.875 210.486 116.697 210.464 115.538 210.307C112.944 209.959 110.652 208.784 108.712 206.614C107.607 205.379 107.696 204.225 109.031 203.387C109.204 203.278 109.367 203.126 109.551 203.066C115.743 201.022 121.203 196.594 127.538 194.974C130.215 194.293 132.581 192.794 134.857 190.745C137.97 187.945 141.473 185.774 144.846 183.41C149.061 180.449 153.318 177.583 157.539 174.637C158.022 174.298 158.532 173.802 158.782 173.22C159.395 171.798 160.31 170.351 159.2 168.646C158.408 167.429 156.92 167.269 155.655 169.067C152.324 173.792 147.426 175.342 143.288 178.345C129.446 188.393 114.368 194.693 98.5689 198.422C96.8623 198.828 95.0748 198.861 93.3281 198.834C83.8549 198.685 74.8434 195.897 66.1019 191.632C65.6712 191.423 65.3689 190.824 65.0074 190.403C65.4605 190.021 65.8792 189.407 66.3739 189.292C81.0149 185.901 94.614 178.896 108.152 171.64C111.514 169.839 115.024 168.446 118.448 166.812C119.35 166.379 120.3 165.9 121.01 165.141C121.487 164.635 121.905 163.491 121.759 162.825C121.59 162.062 120.805 161.024 120.226 160.96C118.718 160.797 117.095 160.772 115.665 161.29C113.061 162.231 110.554 163.576 108.024 164.805C98.2539 169.545 88.4987 174.325 78.7204 179.036C77.6433 179.553 76.4624 179.795 75.3127 180.041C66.7083 181.866 58.2439 184.727 49.4158 184.927C45.7341 185.008 42.0624 185.705 38.3825 186.089C33.3908 186.61 28.7587 184.503 24.0467 183.056C22.6852 182.638 21.4897 181.588 21.4235 179.668C21.3633 177.928 21.9502 176.641 23.4063 175.736C25.2713 174.58 26.9819 173.021 28.6818 171.507C33.3023 167.399 38.442 164.699 43.9168 162.782C51.7815 160.031 59.7181 157.512 67.4305 154.218C73.8773 151.467 80.325 148.912 87.0322 147.347C87.6047 147.21 88.2666 147.253 88.7378 146.911C93.8648 143.199 99.745 142.252 105.284 140.045C109.713 138.283 114.052 136.1 118.293 133.733C126.25 129.295 134.739 126.44 142.48 121.294C145.098 119.553 148.438 119.408 151.457 118.582C153.162 118.113 155.025 118.113 156.568 117.244C159.359 115.676 162.167 115.361 164.555 115.812C170.408 116.066 175.56 116.874 180.282 120.15C181.616 121.076 183.176 121.564 184.668 122.109C191.698 124.682 197.746 129.401 203.332 135.004C208.04 139.727 213.339 143.287 218.79 146.329C224.289 149.399 229.333 153.392 234.732 156.634C244.886 162.734 255.276 168.068 266.224 171.673C268.09 172.288 270.041 172.536 271.964 172.866C272.924 173.03 273.94 172.821 274.878 173.069C284.591 175.645 294.215 174.135 303.869 172.397C308.146 171.625 312.117 169.836 316.21 168.325C321.445 166.397 326.536 164.236 331.48 161.375C333.719 160.079 336.354 159.843 338.698 158.762C346.227 155.299 352.726 149.623 359.295 144.135C360.551 143.084 361.825 141.67 362.502 140.057C363.748 137.081 365.219 134.517 367.396 132.41C368.827 131.03 368.267 128.711 366.518 127.963C365.806 127.657 365.017 127.518 364.258 127.494C362.9 127.458 361.536 127.621 360.175 127.6C347.782 127.406 338.651 110.351 343.896 94.8422C344.117 94.1883 344.515 93.6131 344.707 92.9502C347.914 81.819 354.806 76.5486 364.022 75.2348C370.603 74.2963 377.209 73.6303 383.817 73.0309C385.106 72.9159 386.482 73.5244 387.761 74.0178C392.77 75.9462 397.741 78.0168 402.755 79.9209C405.72 81.044 408.681 82.3578 411.903 81.6646C412.192 81.6041 412.702 81.9461 412.834 82.267C412.958 82.5698 412.839 83.26 412.622 83.4961ZM108.05 324.597C107.826 323.913 106.992 323.341 106.334 323.111C105.859 322.944 105.243 323.471 104.676 323.592C99.7109 324.667 94.7668 325.969 89.7672 326.707C85.1388 327.391 80.4521 327.73 75.7929 327.712C72.5222 327.697 69.2227 327.028 65.9939 326.28C61.1645 325.163 59.273 318.11 62.6728 313.509C63.6459 312.198 64.6673 311.374 66.2076 311.58C69.1061 311.971 72.0159 312.231 76.3507 312.703C79.5902 312.328 84.2234 311.701 88.8692 311.283C93.1251 310.896 97.3938 310.611 101.66 310.502C107.884 310.345 114.116 310.515 120.274 309.089C121.42 308.822 122.585 308.583 123.746 308.52C134.006 307.938 144.189 306.131 154.497 306.11C158.901 306.104 163.359 304.723 167.69 303.449C171.297 302.389 174.859 301.342 178.579 301.351C178.904 301.354 179.436 301.605 179.499 301.875C179.579 302.205 179.364 302.871 179.115 303.046C177.771 303.979 176.396 304.854 174.993 305.647C170.766 308.041 166.568 310.424 162.714 313.733C160.052 316.024 156.983 317.686 153.971 319.278C147.03 322.947 140.071 326.583 133.008 329.883C128.126 332.162 123.044 333.788 118.083 335.822C104.832 341.253 91.575 346.657 78.3763 352.269C75.1057 353.662 71.9343 353.971 68.6871 352.808C67.4343 352.363 66.1116 351.606 65.1796 350.529C61.2033 345.933 62.3396 338.922 67.6102 337.145C73.2172 335.256 79.0177 334.209 84.7424 332.85C91.2356 331.309 97.7446 329.856 104.235 328.297C105.354 328.027 106.509 327.6 107.465 326.886C107.912 326.55 108.249 325.2 108.05 324.597ZM246.59 311.586C243.537 313.505 241.144 316.917 238.28 319.357C228.559 327.64 218.313 334.85 207.752 341.444C202.394 344.786 197.005 347.937 191.275 350.256C189.287 351.061 187.591 352.878 185.659 353.961C180.008 357.143 174.31 360.188 168.623 363.273C168.091 363.558 167.526 363.788 166.958 363.939C158.6 366.158 150.759 370.635 142.267 372.27C141.883 372.346 141.471 372.391 141.13 372.594C133.517 377.105 125.127 378.5 117.113 381.397C113.954 382.539 110.654 383.429 107.38 383.674C104.789 383.868 102.453 384.57 100.065 385.644C96.4005 387.294 92.6245 388.024 88.6455 388.184C81.846 388.451 75.0611 389.413 68.2847 390.279C63.8663 390.842 59.4375 391.157 55.0335 392.159C51.8427 392.883 48.4507 392.298 45.1462 392.298C39.473 392.867 33.8885 392.631 28.434 390.228C26.0927 389.195 24.4082 387.412 22.9233 385.181C22.0542 383.874 22.1662 382.266 23.4286 381.567C26.6077 379.805 29.8084 377.998 33.139 376.772C41.5317 373.681 50.0038 370.908 58.4412 367.993C60.4977 367.284 62.5212 366.419 64.5914 365.771C75.723 362.295 86.6804 358.109 97.5619 353.65C105.306 350.474 112.863 346.557 120.695 343.763C129.307 340.693 137.669 336.93 145.923 332.722C146.637 332.359 147.534 332.417 148.156 331.92C154.359 326.98 161.654 324.491 167.624 319.03C168.703 318.043 169.947 317.308 171.157 316.554C176.872 312.988 182.707 309.746 187.913 304.999C190.017 303.083 192.853 302.335 195.376 301.118C198.306 299.71 199.207 296.983 197.745 293.853C197.113 292.502 196.272 291.694 194.929 291.861C185.082 293.069 175.087 292.811 165.521 296.783C162.793 297.915 159.799 298.266 156.898 298.566C150.877 299.19 144.832 299.459 138.807 300.028C136.091 300.283 133.406 300.979 130.692 301.348C116.349 303.282 101.918 303.461 87.5336 304.536C78.9371 305.178 70.418 305.05 61.8758 304.094C58.9717 303.77 56.0608 303.494 53.1754 302.998C45.087 301.611 37.0083 300.128 28.9276 298.675C22.4488 297.51 16.5378 294.758 11.5412 289.448C11.2495 289.139 10.8616 288.952 10.5904 288.622C8.22399 285.737 8.74873 282.722 11.9415 281.765C14.5811 280.975 17.3084 280.602 20.0035 280.097C23.0816 279.522 26.1589 278.904 29.2523 278.483C31.7191 278.144 34.1343 277.009 36.7244 278.335C37.8908 278.934 39.4178 278.535 40.7803 278.517C42.1458 278.502 43.5426 278.126 44.8693 278.368C52.0575 279.676 59.2499 278.517 66.4283 278.402C73.9733 278.281 81.5302 277.938 89.0585 276.827C95.0504 275.944 101.111 275.783 107.137 275.226C109.07 275.047 110.995 274.675 112.912 274.312C118.469 273.252 124.078 272.474 129.559 270.991C138.102 268.678 146.737 267.21 155.392 265.824C155.779 265.763 156.195 265.784 156.545 265.612C166.146 260.85 176.497 259.409 186.318 255.628C187.414 255.207 188.457 254.544 189.492 253.911C192.809 251.898 196.144 250.07 199.853 249.222C202.113 248.707 204.319 247.566 206.412 246.355C208.507 245.141 210.549 244.96 212.626 245.947C220.559 249.719 228.606 249.18 236.74 247.185C238.036 246.867 239.454 247.003 240.783 247.233C243.283 247.666 245.772 248.266 248.247 248.898C252.731 250.046 257.147 249.831 261.521 248.184C262.639 247.766 263.758 247.354 264.865 246.897C269.142 245.138 273.201 244.827 277.754 246.688C283.807 249.162 290.209 250.69 296.726 248.638C297.191 248.496 298.049 248.783 298.258 249.21C298.487 249.682 298.388 250.748 298.079 251.205C295.855 254.493 293.571 257.726 291.242 260.91C289.821 262.854 288.097 264.507 286.835 266.583C281.817 274.848 275.729 281.819 269.436 288.588C265.801 292.5 262.519 296.904 258.822 300.718C254.98 304.687 251.178 308.701 246.59 311.586ZM84.3341 118.343C83.8103 117.758 83.2961 116.777 83.3194 116.006C83.3331 115.536 84.3505 114.816 84.9755 114.713C89.9615 113.902 94.9835 113.378 99.95 112.418C103.571 111.719 107.119 110.478 110.704 109.506C111.638 109.252 112.585 109.034 113.533 108.943C113.776 108.922 114.09 109.412 114.299 109.736C114.382 109.866 114.309 110.196 114.244 110.408C114.177 110.623 114.062 110.862 113.911 110.98C109.537 114.441 105.241 118.064 100.73 121.237C99.1384 122.36 97.0225 122.372 95.7115 122.738C91.1911 122.432 87.3773 121.73 84.3341 118.343ZM68.584 101.215C65.8578 99.825 64.1445 96.6949 62.6593 93.5768C61.7574 91.6878 61.9721 89.6747 63.1142 88.3003C64.4582 86.6747 66.0979 85.2731 67.8065 84.262C75.8648 79.4911 84.2485 75.7433 92.8937 72.8342C98.1422 71.0663 103.339 69.0683 108.547 67.1399C109.288 66.8645 110.041 66.5012 110.679 65.9835C116.573 61.1944 123.175 58.4639 129.922 56.1935C134.078 54.7949 137.946 52.7424 141.688 50.0966C152.452 42.474 163.444 35.3873 175.165 30.1048C177.712 28.9575 180.104 27.3015 182.549 25.8333C190.569 21.0139 198.414 15.7011 206.652 11.5295C211.568 9.04117 217.079 7.48825 222.416 10.9726C222.746 11.1875 223.184 11.466 223.5 11.3692C227.297 10.2037 229.213 13.1552 230.977 16.3853C234.958 23.6597 239.051 30.8524 242.843 38.2752C248.088 48.5406 252.893 59.145 258.269 69.3044C263.641 79.4608 269.175 89.6868 276.584 97.7604C282.787 104.517 289.811 110.272 298.072 113.112C299.194 113.496 300.291 113.989 301.403 114.416C302.58 114.867 302.961 115.733 302.232 117.017C297.758 124.888 291.844 130.476 284.176 132.801C281.396 133.642 278.388 133.37 275.482 133.606C263.487 133.978 253 128.941 243.211 120.997C238.69 117.328 233.903 114.15 229.34 110.553C226.414 108.247 223.413 105.919 220.913 103.007C217.509 99.044 213.716 95.7655 209.875 92.5839C205.047 88.5819 200.004 84.9582 195.006 81.265C190.079 77.6293 184.623 75.4406 178.951 75.256C173.736 75.0865 168.474 76.0552 163.267 76.8453C157.181 77.7746 151.596 80.2903 146.805 85.2368C145.205 86.8896 143.204 88.1005 141.238 89.0692C137.942 90.6949 134.913 92.714 132.39 95.7957C131.476 96.9128 130.657 96.9763 129.328 96.2498C128.275 95.6716 126.691 96.2075 125.418 96.6071C121.486 97.8452 117.75 99.7917 113.798 101.081C104.123 104.233 94.2381 105.053 84.3575 105.904C78.801 106.382 73.6051 103.776 68.584 101.215ZM314.702 109.512C316.85 104.242 319.609 99.2498 322.577 94.5909C324.57 91.4637 327.466 89.2055 329.87 86.4477C334.458 81.1894 340.313 78.2075 345.271 73.6182C345.493 73.4124 345.993 73.6485 346.364 73.6758C346.336 74.0239 346.421 74.484 346.269 74.6989C344.876 76.6727 343.475 78.6434 342.02 80.5446C335.846 88.6061 331.758 105.637 337.322 118.382C340.258 125.112 344.269 130.897 350.546 133.551C351.818 134.09 353.072 134.753 354.239 135.559C354.515 135.749 354.669 137.009 354.45 137.311C353.686 138.368 352.828 139.424 351.838 140.118C345.928 144.244 340.007 148.346 334.01 152.278C332.495 153.271 330.694 153.613 329.027 154.27C326.802 155.142 324.555 155.938 322.368 156.925C317.447 159.15 312.662 161.929 307.629 163.624C302.976 165.192 298.072 165.643 293.28 166.585C286.186 166.857 279.289 165.398 272.36 164.236C265.741 163.125 259.653 159.919 253.385 157.448C250.825 156.437 248.501 154.56 246.05 153.129C239.387 149.23 232.749 145.267 226.036 141.495C219.106 137.605 212.513 132.943 206.593 127.194C199.444 120.247 191.223 116.142 182.917 112.079C180.753 111.02 178.513 110.187 176.333 109.164C170.949 106.639 165.507 106.161 159.732 107.057C152.492 108.183 145.974 112.094 138.957 113.956C133.406 118.476 127.087 121.028 120.973 124.04C113.579 127.688 106.046 130.918 98.5542 134.269C98.0867 134.478 97.4559 134.154 96.9021 134.078C97.1382 133.56 97.2683 132.758 97.6251 132.565C106.913 127.445 114.393 118.812 123.261 112.96C130.68 108.065 136.417 100.331 143.951 95.7352C146.549 94.1489 149.36 92.9229 151.694 90.8886C158.042 85.3669 165.542 84.9643 172.766 83.3357C175.663 82.6848 185.123 85.2095 188.634 87.156C197.039 91.8179 204.512 98.1328 211.366 105.634C213.673 108.159 216.24 110.348 218.783 112.524C224.035 117.02 229.377 121.361 234.632 125.85C241.241 131.493 248.486 135.45 256.202 138.207C256.575 138.341 256.988 138.38 257.324 138.592C264.751 143.254 272.805 143.308 280.747 142.494C287.542 141.798 294.054 139.094 299.348 133.421C305.685 126.634 310.908 118.824 314.702 109.512ZM424.225 76.0642C422.299 74.4235 420.336 72.9402 417.77 73.3761C416.243 73.6334 414.623 73.8846 413.137 73.5395C405.887 71.8533 398.662 70.0067 391.807 66.5072C381.013 60.9977 381.011 60.9795 371.086 60.2105C368.57 60.0138 366.04 60.0411 363.514 60.0562C356.07 60.1077 348.703 60.6102 342.199 65.8322C340.258 67.3882 338.287 68.8927 336.374 70.4941C334.772 71.8382 333.306 73.4366 331.651 74.6656C323.212 80.9441 316.034 88.7423 311.125 99.3527C310.453 100.8 309.734 102.217 309 103.615C307.619 106.237 307.208 106.558 304.693 105.798C297.054 103.494 290.033 99.716 283.875 93.5405C276.236 85.8846 270.558 76.2398 265.179 66.3983C258.722 54.58 253.634 41.7172 246.978 30.0049C243.776 24.3712 241.096 18.2954 238.218 12.3923C235.277 6.36511 231.196 2.23907 225.379 1.1886C221.56 0.498413 217.626 -0.863953 213.859 0.776794C206.93 3.79797 199.416 5.1452 193.414 10.9454C192.965 11.3813 192.418 11.6839 191.89 11.9776C181.262 17.8777 170.627 23.7537 160.004 29.6628C152.388 33.9009 144.96 38.5749 137.845 43.9695C136.694 44.8443 135.445 45.5588 134.184 46.1703C125.504 50.3812 116.735 54.3408 108.132 58.7756C98.4191 63.7827 88.2034 66.7736 78.172 70.5062C71.1063 73.1399 64.1542 75.5556 57.9503 81.1197C52.2772 86.2054 51.8798 95.8745 56.3039 101.554C59.8853 106.155 63.9987 109.57 68.9749 111.359C71.533 112.276 73.4389 113.778 74.6789 116.874C76.3363 121.004 79.0274 124.088 82.4543 126.207C83.6529 126.946 84.7772 127.984 85.724 129.144C86.039 129.528 85.9136 130.897 85.5879 131.49C85.1885 132.219 84.4177 132.743 83.7198 133.125C75.5451 137.593 67.5918 142.691 58.9874 145.927C58.0583 146.275 57.0979 146.523 56.2029 146.968C45.9354 152.042 35.7448 157.367 25.391 162.156C19.1172 165.059 16.0198 171.141 13.5792 177.913C11.9853 182.335 13.7444 186.549 17.3997 188.341C19.3805 189.313 21.5158 189.828 23.4792 190.842C29.9532 194.187 36.5876 194.944 43.4707 193.243C45.1696 192.825 46.9588 192.722 48.6898 192.834C49.7696 192.903 51.0719 193.312 51.831 194.157C53.9342 196.503 56.4525 197.644 59.0807 198.573C64.3027 200.42 69.4997 202.309 74.8987 203.399C81.0296 204.634 87.0021 206.953 93.267 207.371C94.1468 207.428 95.0146 208.282 95.8416 208.86C102.441 213.486 109.369 216.997 116.896 218.783C120.568 219.652 124.159 220.27 127.892 219.522C130.965 218.907 134.073 218.505 137.179 218.184C138.057 218.096 139.257 218.26 139.833 218.923C143.123 222.7 147.106 225.119 151.135 227.263C154.684 229.149 158.541 230.938 162.472 229.896C166.261 228.891 169.337 231.019 172.584 232.279C174.947 233.193 177.284 234.728 179.232 236.602C182.736 239.977 186.692 240.401 190.845 240.28C192.21 240.237 193.575 240.119 194.94 240.113C195.242 240.113 195.547 240.431 195.85 240.604C195.669 240.952 195.552 241.478 195.292 241.624C191.932 243.504 188.64 245.656 185.149 247.091C180.555 248.977 175.813 250.348 171.113 251.838C164.727 253.857 158.383 256.209 151.904 257.629C145.018 259.136 138.311 262.036 131.192 261.937C130.636 261.93 130.08 262.354 129.51 262.506C120.946 264.831 112.323 266.713 103.544 267.37C97.1218 267.849 90.7069 268.497 84.2866 268.993C78.2653 269.459 72.2433 269.953 66.2146 270.198C61.3444 270.395 56.4652 270.237 51.5909 270.237C51.5909 270.116 51.5909 269.995 51.5909 269.874C49.6462 269.986 47.6801 270.376 45.7595 270.161C35.185 268.99 24.7212 270.588 14.2487 271.875C9.91019 272.405 5.98742 274.566 2.33585 277.36C0.243341 278.959 -0.498118 281.871 0.334655 284.834C1.4777 288.906 3.22635 292.445 5.97299 295.397C12.1164 301.993 19.33 305.193 27.3367 305.556C35.5913 305.931 43.4229 309.04 51.5163 310.384C52.8243 310.602 53.5068 311.444 53.3734 313.297C52.9196 319.593 53.6185 325.542 57.442 330.349C58.6734 331.896 58.3285 333.319 57.2524 334.687C54.671 337.956 54.8344 341.895 55.1104 346.033C55.3699 349.914 56.8132 352.663 59.3519 354.782C59.8241 355.181 60.2859 355.654 60.6357 356.205C61.2528 357.176 60.9117 357.963 60.0983 358.439C59.4054 358.847 58.6773 359.19 57.9376 359.447C52.1304 361.46 46.332 363.506 40.5024 365.407C38.2514 366.14 35.9275 366.543 33.6339 367.075C28.4457 368.292 23.5637 370.445 19.0316 373.811C16.7388 375.515 15.452 378.182 14.2246 380.84C12.8706 383.765 13.4595 388.272 15.766 389.774C18.7848 391.744 20.8569 394.896 23.4364 397.381C24.7349 398.628 25.9713 399.21 27.6137 399.412C34.4239 400.263 41.2468 400.027 48.0454 399.715C54.4475 399.421 60.8243 398.347 67.2146 397.651C69.9244 397.351 72.6379 397.045 75.3535 396.906C81.7577 396.582 88.2258 397.078 94.4187 394.366C95.142 394.048 95.9457 393.909 96.7182 393.873C103.942 393.524 110.578 389.362 117.809 389.102C121.289 386.813 125.431 387.912 129.014 385.654C131.549 384.058 134.544 383.532 137.333 382.533C138.821 381.997 140.315 381.485 141.8 380.934C146.629 379.136 151.387 376.956 156.3 375.615C162.996 373.784 169.363 370.917 175.607 367.629C180.938 364.823 185.919 361.06 191.605 359.205C193.087 358.72 194.448 357.691 195.867 356.916C199.23 355.085 202.585 353.241 205.957 351.434C207.025 350.865 208.203 350.559 209.209 349.875C217.021 344.55 224.899 339.358 232.56 333.724C237.384 330.176 241.843 325.89 246.535 322.06C247.608 321.189 249.135 320.038 250.166 320.368C255.403 322.033 260.548 320.931 265.793 320.647C279.284 319.911 291.665 314.326 304.128 308.904C304.859 308.586 305.578 308.211 306.293 307.836C317.521 301.954 327.265 293.402 336.269 283.442C342.064 277.036 347.389 270.213 351.345 261.903C353.587 257.19 356.085 252.652 358.352 247.951C360.419 243.661 362.492 239.356 364.278 234.891C368.195 225.104 372.23 215.359 375.656 205.315C379.083 195.271 382.076 184.978 384.785 174.61C386.612 167.635 387.637 160.349 388.99 153.195C391.023 142.491 394.987 132.67 398.353 122.572C401.448 113.299 405.161 104.457 410.535 96.8311C414.436 91.2973 417.671 84.9068 423.239 81.3649C423.727 81.0531 424.088 80.3992 424.456 79.8543C425.247 78.6677 425.18 76.8755 424.225 76.0642Z" fill="#C0FFD5"/>
</svg>
