<svg width="480" height="372" viewBox="0 0 480 372" fill="none" xmlns="http://www.w3.org/2000/svg">
<path fill-rule="evenodd" clip-rule="evenodd" d="M273.04 127.551C270.777 127.457 269.242 128.674 269.133 130.647C269.013 132.8 270.36 134.744 272.126 134.959C274.242 135.216 276.391 133.093 276.375 130.76C276.36 129.038 274.899 127.634 273.04 127.551ZM185.997 95.2959C183.222 93.6163 179.21 96.0438 178.945 99.5682C178.875 100.502 179.372 101.873 180.022 102.409C181.599 103.713 183.368 103.435 185.113 102.427C186.791 101.463 187.448 99.9739 187.385 97.4238C187.086 96.9425 186.726 95.7394 185.997 95.2959ZM129.346 189.996C131.237 190.073 132.462 188.533 132.508 186.025C132.538 184.311 130.923 182.668 129.256 182.721C127.717 182.77 125.932 184.605 125.94 186.125C125.953 188.248 127.422 189.918 129.346 189.996ZM123.696 226.74C125.405 226.953 127.108 225.134 127.201 222.994C127.304 220.626 126.026 218.826 124.201 218.757C122.395 218.694 120.738 220.412 120.607 222.48C120.475 224.57 121.887 226.521 123.696 226.74ZM146.656 215.063C148.599 215.093 150.397 213.263 150.597 211.057C150.791 208.896 148.692 206.762 146.399 206.785C144.628 206.806 143.348 208.462 143.277 210.833C143.197 213.507 144.414 215.028 146.656 215.063ZM289.768 175.37C290.581 174.907 291.32 173.976 291.735 173.053C292.044 172.362 292 171.231 291.707 170.501C291.251 169.351 290.126 169.038 289.171 169.552C285.474 171.546 281.495 171.81 277.589 171.456C273.678 171.098 269.827 169.923 265.947 169.152C264.657 168.894 263.349 168.698 262.042 168.618C260.532 168.526 259.935 169.203 259.865 170.829C259.751 173.487 260.615 174.966 263.4 176.056C267.926 177.828 272.61 178.759 277.431 178.5C278.417 178.5 279.408 178.552 280.394 178.491C283.737 178.295 286.832 177.056 289.768 175.37ZM282.185 280.081C281.853 281.256 282.114 282.284 283.093 282.94C284.095 283.613 285.512 283.202 286.147 282.107C286.328 281.803 286.497 281.475 286.613 281.133C288.017 276.991 289.516 272.88 290.77 268.682C291.499 266.246 292.131 263.684 292.278 261.14C292.491 257.491 292.223 253.806 292.16 250.136C292.128 241.376 289.512 233.548 284.994 226.476C284.52 225.738 283.869 225.108 283.21 224.561C282.164 223.697 281.048 223.9 279.947 224.54C278.697 225.261 278.425 226.509 278.762 227.826C279.017 228.842 279.48 229.907 280.116 230.671C285.282 236.868 286.899 244.417 286.872 252.596C286.863 254.632 286.497 256.677 286.644 258.685C286.962 263.047 286.057 267.114 284.794 271.15C283.869 274.106 283.032 277.094 282.185 280.081ZM343.402 133.886C343.925 132.543 344.394 131.114 345.181 129.981C348.619 125.041 352.064 120.125 356.765 116.499C362.748 111.894 369.529 109.807 376.464 108.108C377.272 107.912 377.803 108.408 377.525 109.288C377.03 110.83 376.575 112.489 375.712 113.77C373.533 117.009 371.293 120.224 368.788 123.138C366.866 125.372 364.72 127.613 362.287 128.995C358.045 131.404 353.518 133.208 349.072 135.145C348.024 135.603 346.815 135.593 346.007 135.735C345.169 135.655 344.659 135.685 344.19 135.542C343.447 135.317 343.095 134.676 343.402 133.886ZM339.762 143.076C343.634 142.265 347.56 141.552 351.299 140.213C355.682 138.639 359.956 136.601 364.142 134.438C366.346 133.3 368.474 131.722 370.264 129.889C374.283 125.77 377.921 121.236 381.106 116.254C383.142 113.076 384.369 109.46 385.839 105.973C386.184 105.154 386.371 104.216 386.468 103.31C386.727 100.84 385.584 99.3913 383.417 99.3464C382.925 99.337 382.409 99.3111 381.942 99.4503C378.771 100.408 375.605 101.382 372.447 102.394C370.078 103.156 367.742 104.05 365.36 104.756C360.672 106.143 356.207 108.424 352.537 111.715C347.802 115.954 343.455 120.875 340.017 126.577C337.779 130.29 336.771 134.617 335.861 138.247C335.754 141.972 337.196 143.617 339.762 143.076ZM295.044 139.304C291.779 142.147 287.966 143.888 284.088 145.416C283.842 145.513 283.261 145.33 283.234 145.176C283.143 144.73 283.107 144.121 283.318 143.78C283.966 142.727 284.836 141.84 285.442 140.76C286.825 138.302 288.16 135.952 288.347 132.758C288.61 128.186 288.625 123.94 285.48 120.472C285.253 120.219 285.025 119.889 284.949 119.557C284.842 119.097 284.8 118.573 284.907 118.127C284.947 117.962 285.495 117.844 285.794 117.879C290.074 118.384 294.08 119.955 298.015 121.824C300.084 122.807 301.139 124.402 300.737 127.047C300.381 131.994 298.59 136.221 295.044 139.304ZM282.606 133.831C281.823 136.794 280.063 139.491 277.573 141.064C276.078 142.01 274.206 142.208 272.505 142.746C268.042 142.623 265.583 140.012 263.768 135.806C261.968 131.642 262.341 128.066 264.92 124.621C265.234 124.202 265.547 123.527 265.924 123.468C270.008 122.81 274.04 119.979 278.225 122.269C282.44 124.574 283.909 128.91 282.606 133.831ZM260.193 120.092C259.292 122.64 258.28 125.15 257.509 127.747C256.427 131.394 256.602 134.994 258.345 138.405C258.756 139.2 259.099 140.038 259.408 140.887C259.509 141.161 259.53 141.656 259.381 141.817C259.196 142.027 258.734 142.159 258.505 142.043C254.488 140.026 250.261 138.472 247.002 134.867C245.019 132.675 242.787 130.779 240.72 128.681C240.033 127.983 239.998 127.179 240.802 126.367C243.042 124.114 245.604 122.42 248.431 121.441C251.703 120.307 255.084 119.573 258.419 118.688C258.73 118.603 259.076 118.677 259.661 118.677C260.231 118.738 260.509 119.207 260.193 120.092ZM299.52 143.133C304.261 138.174 307.368 132.461 307.15 124.798C307 119.54 304.962 116.601 301.83 115.204C300.611 114.661 299.459 113.921 298.221 113.456C296.686 112.878 295.063 112 293.535 112.121C290.183 112.394 286.987 111.753 283.735 111.128C280.834 110.569 277.869 110.394 274.932 110.052C266.768 110.278 258.907 112.439 250.998 114.161C248.593 114.683 246.04 115.355 244.01 116.775C240.379 119.314 236.661 121.618 232.869 123.819C231.172 124.803 230.673 126.792 231.682 128.519C232.576 130.04 233.619 131.529 234.831 132.737C238.021 135.903 241.313 138.946 244.621 141.965C245.505 142.772 246.522 143.489 247.583 143.946C253.417 146.455 259.301 148.807 265.126 151.333C271.259 153.995 277.471 153.857 283.533 151.557C288.343 149.733 292.926 147.151 297.581 144.829C298.312 144.466 298.922 143.758 299.52 143.133ZM266.644 69.6741C260.4 69.1363 254.156 68.589 247.907 68.1195C246.284 67.9992 245.021 67.6477 244.69 65.5316C244.551 64.6422 244.008 63.8401 243.846 62.9484C242.551 55.9113 240.408 49.0063 241.132 41.5187C240.534 36.3688 241.642 31.3299 242.995 26.3664C244.2 21.9502 245.6 17.6025 246.955 13.2382C247.419 11.7544 248.014 11.6435 249.017 12.8254C249.808 13.7572 250.539 14.7621 251.25 15.7742C256.669 23.5143 261.172 31.9078 264.543 40.9596C267.674 49.3767 268.973 58.3223 269.177 67.4377C269.217 69.3462 268.522 69.8392 266.644 69.6741ZM198.993 96.5816C200.604 97.8225 200.938 99.9174 201.791 101.684C202.926 104.036 203.334 106.537 203.401 109.141C203.45 110.984 202.787 111.897 201.1 112.031C199.3 112.182 197.484 112.067 195.675 112.067C195.673 112.114 195.673 112.163 195.673 112.21C194.029 112.21 192.38 112.232 190.736 112.192C190.477 112.184 190.084 111.949 190.01 111.72C189.94 111.493 190.121 111.024 190.324 110.856C190.848 110.422 191.418 110.021 192.02 109.738C194.357 108.632 195.433 106.393 196.263 103.928C196.435 103.411 196.446 102.828 196.62 102.314C197.292 100.342 196.919 97.8225 198.993 96.5816ZM184.677 107.266C183.917 107.511 183.041 107.608 182.273 107.455C178.713 106.733 175.572 102.496 175.502 97.2068C175.833 95.9518 176.332 93.4511 177.159 91.0968C177.789 89.3015 178.803 88.9382 180.66 89.9975C182.073 90.8019 183.271 90.5353 184.34 89.7498C185.717 88.7354 187.124 88.7943 188.585 88.976C191.964 89.3983 193.959 92.5453 193.606 96.2749C193.02 102.465 189.633 105.648 184.677 107.266ZM169.904 95.2558C169.791 96.8222 169.1 98.3391 168.675 99.8796C166.654 99.8371 166.258 97.655 165.151 96.4354C164.473 95.6899 163.959 94.6378 163.633 93.6257C162.685 90.6769 161.831 87.695 161.029 84.6967C160.797 83.8332 160.873 82.8637 160.843 82.4626C160.984 77.2491 164.928 74.0101 169.008 75.3406C170.904 75.9587 172.784 76.69 174.603 77.5463C176.256 78.3248 177.816 79.3439 179.416 80.2545C178.915 82.4603 177.067 83.1609 175.664 84.2461C172.182 86.9472 170.248 90.4882 169.904 95.2558ZM63.0995 211.775C60.609 213.877 58.1795 216.087 55.5563 217.962C49.9162 221.992 43.8152 221.949 37.4846 220.397C30.5035 218.684 27.1267 213.025 24.7477 206.301C22.9161 201.121 21.9898 195.7 22.6761 189.93C22.1898 183.489 23.9224 177.25 25.3393 171.033C26.6509 165.278 30.4172 161.251 34.632 157.88C35.5246 157.165 36.7562 156.924 37.8678 156.632C39.3162 156.247 40.0594 157.125 39.6004 158.743C38.691 161.961 38.3709 165.143 38.8214 168.547C39.3393 172.461 40.2173 176.108 42.3794 179.302C42.9689 180.175 43.5878 181.128 43.8468 182.152C45.1247 187.231 48.4468 191.053 50.411 195.723C51.131 197.434 52.8868 198.604 54.1921 199.996C57.1563 203.169 60.1353 206.325 63.11 209.484C63.8385 210.256 63.9248 211.078 63.0995 211.775ZM44.7183 233.28C43.1436 237.331 41.0783 241.14 39.192 245.033C38.7793 245.885 38.2151 245.832 37.7246 245.035C36.152 242.466 35.7941 239.585 36.0025 236.602C36.053 235.455 36.0657 234.344 36.1646 233.242C36.6909 227.455 36.6951 227.573 41.752 227.748C46.611 227.915 46.5036 228.689 44.7183 233.28ZM52.4995 159.587C53.8826 160.17 55.2047 160.93 56.5668 161.571C57.8342 162.168 58.27 163.206 58.0047 164.608C57.4763 168.509 55.9332 170.46 52.8531 171.161C51.7037 171.42 50.9163 170.921 50.6194 169.651C50.0826 167.334 49.5057 165.018 49.1121 162.669C48.7289 160.378 50.5395 158.764 52.4995 159.587ZM72.0469 207.83C73.1943 199.373 74.8849 191.185 80.186 184.449C82.6744 181.289 84.6028 177.57 86.7944 174.119C89.7881 169.399 93.7229 166.346 98.9019 165.408C102.795 164.701 106.662 163.817 110.557 163.121C117.119 161.946 123.694 163.336 130.262 163.124C134.207 165.081 138.572 164.98 142.69 166.393C148.852 168.514 154.732 171.301 160.673 173.968C162.645 174.853 164.5 176.096 166.349 177.297C167.972 178.356 167.936 179.281 166.216 180.491C164.128 181.961 161.938 183.249 159.856 184.726C158.33 185.809 156.803 186.939 155.466 188.283C154.174 189.585 154.113 191.135 154.898 192.815C155.523 194.155 156.586 194.875 157.715 194.313C159.031 193.653 160.336 192.803 161.41 191.737C164.14 189.029 167.029 186.611 170.342 184.879C172.163 183.928 173.654 184.36 174.374 186.445C176.153 191.607 177.886 196.816 177.582 202.508C177.433 205.372 176.909 205.969 174.273 206.191C172.144 206.37 170.01 206.481 167.881 206.672C167.235 206.731 166.561 206.849 165.972 207.127C164.42 207.866 163.597 210.069 164.163 211.753C164.639 213.176 166.083 213.962 167.845 213.714C169.965 213.419 172.079 213.037 174.206 212.794C175.427 212.66 176.119 213.501 175.77 214.801C174.016 221.35 172.094 227.823 168.117 233.228C167.045 234.684 165.909 236.004 164.22 236.448C162.488 236.904 161.492 237.944 160.696 239.842C159.73 242.138 157.858 242.096 156.321 240.22C154.332 237.793 152.279 235.426 150.323 232.963C148.915 231.188 146.946 230.772 145.106 230.048C144.071 229.639 142.982 230.001 142.584 231.109C142.25 232.046 142.1 233.421 142.485 234.242C142.986 235.313 144.058 236.08 144.946 236.894C147.502 239.227 150.125 241.468 152.648 243.844C153.866 244.995 153.643 246.276 152.159 246.644C145.753 248.234 139.462 250.798 132.761 249.704C126.761 249.977 120.856 249.234 115.121 247.606C110.03 246.165 105.112 243.964 100.093 242.192C96.6239 240.968 93.2513 239.569 90.1797 237.333C86.4113 234.584 83.1986 231.126 80.3775 227.291C79.0617 225.5 78.3628 223.087 77.5817 220.871C76.6743 218.279 75.8322 215.763 73.7901 213.888C72.1543 212.388 71.7438 210.062 72.0469 207.83ZM111.931 254.329C111.161 255.727 110.432 257.253 109.365 258.319C107.696 259.987 106.555 262.415 104.19 263.146C102.274 260.997 103.748 258.319 103.308 256.394C103.308 255.76 103.296 255.573 103.308 255.391C103.468 253.221 103.635 251.051 103.795 248.882C106.281 248.413 108.117 250.225 110.19 251.185C110.641 251.391 111.049 251.716 111.475 251.992C112.382 252.581 112.39 253.499 111.931 254.329ZM128.064 294.439C124.738 293.521 121.188 293.587 118.104 291.627C117.397 291.179 116.624 290.714 116.136 290.034C115.845 289.626 115.786 288.508 116.066 288.168C118.982 284.66 121.978 281.235 124.969 277.807C125.626 277.055 126.59 277.168 126.982 278.1C127.473 279.253 127.934 280.454 128.199 281.69C128.932 285.099 129.557 288.534 130.222 291.957C130.58 293.801 129.833 294.66 128.064 294.439ZM68.4975 276.238C67.3522 277.239 66.1332 278.145 64.8701 278.951C64.628 279.107 63.8743 278.784 63.7016 278.451C63.2953 277.678 62.9669 276.788 62.849 275.904C62.6111 274.103 61.7858 272.86 60.3584 272.113C58.8447 271.31 58.7079 269.961 59.1795 268.437C59.9227 266.033 60.7248 263.648 61.5753 261.287C61.729 260.87 62.2406 260.378 62.6069 260.355C62.9711 260.334 63.5227 260.765 63.7122 261.164C64.2406 262.294 64.5985 263.519 65.0722 264.684C66.1501 267.336 67.2701 269.97 68.3458 272.624C68.6132 273.282 68.7754 273.99 68.9733 274.637C68.8069 275.245 68.8091 275.965 68.4975 276.238ZM479.576 142.971C479.382 142.322 478.431 141.722 477.755 141.593C477.33 141.51 476.454 142.244 476.313 142.786C475.21 147.028 474.142 151.286 473.241 155.584C471.919 161.892 470.262 168.071 468.1 174.082C466.064 179.73 464.264 185.49 461.336 190.684C459.919 193.197 459.254 193.509 457.092 191.767C455.085 190.154 453.18 188.349 451.395 186.436C443.732 178.228 434.814 171.878 426.249 165.001C424.253 163.402 421.963 162.246 420.931 159.441C420.639 158.646 419.906 157.96 419.235 157.458C413.995 153.532 409.55 148.563 404.872 143.895C403.902 142.925 402.546 142.322 401.813 141.189C400.104 138.566 397.784 136.846 395.495 135.039C394.822 134.511 394.079 134.084 393.42 133.534C392.175 132.489 392.022 131.675 393.098 130.373C395.735 127.176 397.226 123.317 398.603 119.335C399.489 116.766 400.567 114.265 401.75 111.847C403.188 108.898 404.245 105.843 404.778 102.534C405.59 97.4899 406.087 92.3707 407.963 87.5936C408.86 85.3029 408.207 84.0786 406.169 83.6327C405.525 83.4959 404.858 83.4652 404.199 83.4298C398.43 83.1208 392.664 82.7646 386.893 82.5617C384.925 82.4909 382.902 82.5782 380.977 83.0123C375.647 84.2154 370.257 85.2746 365.072 87.0581C356.76 89.9149 347.998 91.637 340.899 97.9239C340.08 98.6505 339.594 98.1929 338.908 97.4333C337.878 96.2891 336.674 95.1898 335.36 94.5387C327.979 90.8915 320.434 87.6266 313.613 82.6844C313.337 82.4862 313.023 82.3329 312.71 82.2361C306.674 80.3748 300.657 78.4357 294.596 76.6947C289.017 75.0929 283.392 73.7128 277.789 72.2077C276.73 71.9247 276.236 71.1674 276.029 69.8841C274.596 61.0022 273.095 52.1321 271.56 43.2691C271.375 42.2028 270.878 41.1931 270.465 40.1858C269.644 38.1735 268.726 36.2037 267.939 34.1725C265.697 28.4023 263.103 22.8443 259.956 17.6308C257.01 12.7428 253.907 7.97751 250.987 3.073C248.598 -0.946838 246.164 -1.06244 243.861 2.95978C243.522 3.55426 243.391 4.31387 243.225 5.0145C242.539 7.86426 241.998 10.7635 241.187 13.5661C239.819 18.3173 238.219 22.9835 236.852 27.737C236.204 30.0088 235.547 32.3797 235.456 34.734C235.181 41.9409 235.189 49.1526 236.814 56.2393C237.465 59.0937 237.852 62.0284 238.337 64.9277C238.745 67.3434 238.532 67.7137 236.075 67.8482C231.465 68.1006 226.844 68.1313 222.237 68.4356C220.286 68.563 218.282 68.8909 216.435 69.5798C208.623 72.4979 200.692 74.9231 192.711 77.1595C190.246 77.8506 187.97 77.6879 185.519 76.4847C179.932 73.7482 174.195 71.3868 168.49 68.9594C165.17 67.5463 162.119 68.5654 159.174 70.5069C156.109 72.5239 154.296 75.2132 154.656 79.4194C154.749 80.4904 154.304 81.6086 154.29 82.7079C154.273 83.7931 154.29 84.9703 154.626 85.9587C156.273 90.7878 157.9 95.638 159.824 100.33C160.549 102.09 161.86 103.751 163.262 104.911C164.98 106.334 166.692 107.629 167.976 109.615C168.787 110.868 170.544 111.264 170.673 113.201C169.245 113.557 167.822 113.963 166.384 114.246C165.578 114.404 164.742 114.341 163.921 114.414C158.344 114.916 152.753 115.268 147.195 115.975C141.315 116.726 135.466 117.768 129.612 118.762C123.42 119.814 117.199 120.736 111.062 122.116C102.363 124.069 93.6976 126.211 85.0597 128.5C80.6765 129.658 76.5459 131.373 72.5543 133.619C68.289 136.016 64.1206 138.658 59.7564 140.807C56.1037 142.606 52.6784 144.615 49.6278 147.561C47.6152 149.505 45.211 150.299 42.2994 149.467C36.5309 147.818 31.573 149.694 27.6698 154.827C26.3877 156.516 25.1287 158.229 23.8193 159.892C22.7414 161.26 22.1098 161.367 20.8719 160.307C18.6445 158.401 16.4908 156.389 14.2634 154.485C12.3792 152.876 10.5707 152.984 9.59599 154.659C8.71388 156.171 9.12443 158.021 10.716 159.451C11.7455 160.373 12.8466 161.196 13.8739 162.123C15.5371 163.622 17.1624 165.176 18.8108 166.698C19.6487 167.469 19.9034 168.255 19.5708 169.569C18.6782 173.114 17.9539 176.722 17.2845 180.329C17.0318 181.697 16.436 182.116 15.2802 182.119C10.9981 182.128 6.71389 182.14 2.43597 182.308C1.7686 182.336 0.812797 183.034 0.564375 183.69C0.311742 184.365 0.617006 185.46 0.958061 186.207C1.23175 186.799 1.86964 187.326 2.45069 187.568C3.98544 188.206 5.51386 188.549 7.25703 188.384C9.68231 188.158 12.1729 188.486 14.6045 188.826C15.2087 188.911 16.0866 189.899 16.1897 190.591C16.8866 195.325 17.4024 200.09 17.9961 204.844C18.1834 206.351 17.655 207.248 16.3855 207.83C11.5118 210.071 6.66334 212.382 1.80858 214.671C0.515935 215.282 -0.281945 216.611 0.0927948 217.597C0.591745 218.904 1.68436 218.899 2.62542 218.647C5.66755 217.828 8.67599 216.858 11.7034 215.972C13.9329 215.314 16.1539 214.6 18.4108 214.101C19.7876 213.799 21.1919 214.228 21.6466 215.913C22.4361 218.847 24.4972 220.345 26.5582 221.883C27.9288 222.902 29.9519 223.522 30.5667 224.936C31.2846 226.585 30.8172 228.895 30.7983 230.923C30.7898 232.025 30.5793 233.125 30.5751 234.226C30.5561 240.545 30.5603 246.842 34.8298 251.902C35.592 252.808 35.914 254.163 36.5035 255.269C36.9162 256.045 37.3541 256.844 37.9246 257.467C38.8572 258.482 40.1941 258.371 40.9478 257.187C41.7036 255.993 42.6888 254.733 42.8804 253.381C43.5457 248.687 45.8299 244.766 47.411 240.523C50.9584 231.006 58.2763 222.429 66.3206 218.031C68.089 217.061 69.2322 217.587 70.2069 219.668C72.649 224.891 74.9522 230.235 79.3796 233.855C79.906 234.288 80.3817 234.837 80.7923 235.408C84.0176 239.88 88.2512 242.759 93.0365 244.41C95.6429 245.304 96.7481 247.196 97.4513 249.702C97.7903 250.914 97.9587 252.261 97.8955 253.528C97.6724 258.131 97.7082 262.752 96.2282 267.208C95.1376 270.489 97.3776 273.214 100.314 272.353C101.723 271.94 103.115 271.271 104.382 270.457C110.06 266.831 114.441 261.631 118.127 255.68C118.78 254.624 119.479 254.068 120.515 254.131C122.982 254.281 125.447 254.544 127.917 254.733C130.382 254.927 132.852 255.285 135.315 255.217C141.774 255.035 148.085 253.995 154.168 251.263C157.313 249.847 160.534 249.786 163.321 252.785C165.1 254.698 167.069 256.418 169.073 258.034C171.473 259.966 173.997 261.709 176.481 263.511C177.387 264.167 178.33 264.368 179.132 263.316C179.959 262.226 180.187 261.124 179.307 259.841C178.048 258.001 177.347 255.597 174.673 255.512C173.818 255.486 172.89 254.668 172.163 253.99C170.517 252.459 169.077 250.626 167.368 249.203C163.995 246.392 164.012 245.852 167.845 243.167C169.551 241.973 171.264 241.086 173.252 240.607C178.561 239.328 183.812 237.946 189.256 237.222C199.25 235.892 209.256 234.967 219.294 234.389C221.915 234.238 224.557 234.622 227.189 234.61C232.953 234.589 238.713 234.377 244.473 234.445C247.101 234.481 249.793 234.684 252.328 235.392C255.008 236.142 257.551 237.542 260.12 238.755C260.467 238.918 260.791 239.633 260.783 240.086C260.777 240.385 260.17 240.907 259.81 240.928C254.396 241.244 249.644 243.832 244.84 246.281C242.89 247.276 240.926 248.144 239.795 250.461C239.45 251.178 238.595 251.671 237.884 252.061C232.764 254.845 227.589 255.719 222.242 252.697C218.109 250.364 213.856 249.881 209.319 251.477C205.166 252.943 201.663 255.583 198.023 258.074C194.949 260.185 192.995 263.301 191.06 266.491C188.214 271.176 191.039 278.024 194.77 279.6C197.33 280.686 199.663 281.223 202.372 279.945C209.218 276.71 216.284 275.606 223.545 278.268C223.854 278.383 224.191 278.425 224.515 278.472C228.145 278.98 231.734 279.072 235.29 277.765C239.675 276.156 244.164 274.882 248.494 273.111C251.065 272.056 253.665 272.093 256.278 271.862C256.549 271.836 257.094 272.164 257.084 272.29C257.048 272.778 256.974 273.445 256.676 273.705C251.829 277.964 246.475 281.634 240.564 283.094C231.444 285.356 222.332 288.034 212.848 288.185C203.974 288.329 195.151 290.228 186.229 289.284C185.265 289.183 184.267 289.525 183.283 289.579C178.675 289.848 174.069 290.183 169.458 290.32C163.721 290.492 157.925 289.978 152.254 290.718C147.58 291.332 143.041 290.624 138.441 290.641C136.824 290.645 136.123 289.596 135.822 287.944C135.359 285.41 134.828 282.891 134.319 280.371C133.106 274.372 131.355 271.532 127.241 268.335C125.27 266.805 123.298 267.008 121.953 269.742C120.685 272.325 119.275 274.865 117.622 277.144C114.712 281.155 111.136 283.641 106.195 283.724C102.5 283.78 99.0134 283.127 95.5081 282.118C90.3881 280.648 85.3965 278.812 80.6049 276.252C77.9481 274.835 75.9522 272.736 74.5375 269.982C73.1522 267.283 71.6427 264.531 70.9017 261.574C69.7017 256.795 67.0954 253.014 64.8111 248.979C63.9753 247.505 62.1163 247.182 60.9374 248.283C60.3269 248.852 59.8026 249.643 59.4679 250.449C55.6952 259.515 52.8763 268.98 51.0342 278.732C49.7373 285.594 49.1521 292.639 51.5794 299.49C51.8784 300.327 51.8342 301.313 51.9857 302.218C53.1605 309.249 56.8237 314.8 61.11 319.645C63.6195 322.479 66.8364 324.489 68.748 328.112C69.5417 329.62 71.6238 329.273 72.5059 327.763C72.7775 327.3 73.028 326.801 73.1733 326.281C73.3691 325.581 73.4154 324.833 73.5901 324.125C73.8575 323.026 74.6764 322.78 75.2996 323.717C78.1901 328.053 81.7102 331.596 85.8071 334.427C88.4702 336.272 91.2303 337.942 93.8661 339.834C97.5208 342.453 97.8597 342.413 99.3082 337.862C99.6176 336.892 99.4492 335.741 99.5671 334.684C99.624 334.177 99.8366 333.691 99.9797 333.193C100.413 333.441 100.931 333.585 101.266 333.946C103.403 336.242 105.527 338.555 107.603 340.922C110.302 343.998 113.464 346.274 116.961 348.039C118.283 348.704 119.607 348.947 120.637 347.773C121.559 346.718 122.087 345.277 121.662 343.689C121.327 342.453 120.896 341.245 120.578 340.004C120.508 339.73 120.651 339.228 120.851 339.068C121.041 338.917 121.502 338.955 121.717 339.117C123.209 340.261 124.9 341.229 126.092 342.698C128.199 345.295 130.795 346.449 133.713 347.407C139.001 349.143 139.037 349.36 141.527 343.475C142.14 342.021 142.78 341.941 143.767 342.469C148.077 344.778 152.367 347.137 156.662 349.485C158.336 350.402 160.094 350.88 161.938 350.509C162.538 350.389 163.25 349.978 163.589 349.445C164.317 348.296 164.923 347.022 165.42 345.725C166.321 343.366 166.258 343.396 168.191 344.069C169.275 344.444 170.429 344.571 171.54 344.854C175.471 345.855 179.42 345.029 183.357 345.076C189.78 345.159 196.197 345.593 202.618 345.819C204.429 345.883 206.248 345.812 208.058 345.687C215.473 345.187 222.88 344.604 230.296 344.137C232.101 344.022 233.917 344.29 235.728 344.258C239.844 344.175 243.985 344.281 248.067 343.821C255.269 343.005 262.44 341.842 269.617 340.785C271.238 340.544 272.874 340.275 274.452 339.803C278.271 338.664 282.088 337.48 285.863 336.154C289.792 334.776 293.817 333.564 297.543 331.655C303.164 328.77 309.276 327.98 315.07 325.885C315.451 325.744 316.377 326.364 316.56 326.86C317.192 328.555 317.594 330.358 318.114 332.113C318.428 333.179 318.798 334.255 320.007 334.361C321.207 334.463 321.611 333.335 322.255 332.502C323.48 330.919 323.59 329.364 322.903 327.392C322.135 325.175 321.823 322.762 321.219 320.466C320.672 318.381 319.468 317.371 317.564 317.569C316.44 317.685 315.204 317.956 314.278 318.62C312.145 320.134 309.771 320.813 307.419 321.629C304.116 322.771 300.79 323.845 297.52 325.1C288.175 328.669 279.029 332.844 269.109 334.377C261.431 335.564 253.798 337.067 246.044 337.489C241.435 337.739 236.819 337.838 232.206 338.072C228.913 338.237 225.627 338.565 222.334 338.725C218.543 338.909 214.751 339.025 210.959 339.107C206.682 339.204 202.404 339.348 198.13 339.259C192.355 339.136 186.585 338.832 180.814 338.56C178.673 338.462 176.5 338.454 174.408 338.008C171.528 337.395 168.582 336.748 165.896 335.493C162.578 333.942 162.751 333.762 160.485 336.246C159.159 337.704 158.909 339.327 158.856 341.238C158.816 342.735 158.022 343.262 156.888 342.735C152.599 340.742 148.468 338.489 145.298 334.484C144.561 333.552 143.557 332.741 142.532 332.271C139.645 330.94 137.382 332.177 136.403 335.463C136.092 336.512 135.946 337.619 135.696 338.695C135.46 339.709 134.959 340.37 133.938 339.881C129.485 337.763 125.256 335.486 123.458 329.735C122.468 326.571 118.942 326.264 117.113 328.909C116.719 329.478 116.506 330.207 116.216 330.863C115.258 333.024 114.531 335.236 114.502 337.711C114.489 338.78 113.464 339.247 112.731 338.638C112.203 338.202 111.656 337.756 111.239 337.197C107.955 332.814 104.3 328.768 101.78 323.691C100.31 320.733 97.2303 320.593 95.3545 323.054C93.7102 325.215 93.485 327.664 93.5503 330.32C93.5861 331.778 92.7944 332.236 91.5818 331.561C87.9902 329.562 84.8007 326.979 82.447 323.276C81.0133 321.018 79.5923 318.742 78.2617 316.409C77.3501 314.812 76.108 314.319 74.4975 314.312C72.8975 314.307 71.6785 314.968 70.5312 316.173C68.6427 318.152 68.6196 318.074 66.9564 315.88C65.3585 313.776 63.5985 311.813 62.11 309.617C60.8279 307.727 59.4132 305.746 58.7984 303.545C57.4742 298.804 56.3479 293.945 55.7016 289.036C55.3816 286.616 56.2889 283.986 56.6826 281.454C56.731 281.143 57.0995 280.607 57.1921 280.638C57.6321 280.787 58.1689 280.987 58.4089 281.377C58.9689 282.275 59.2511 283.421 59.8826 284.238C60.8848 285.534 62.2637 286.397 63.8132 285.852C65.8343 285.142 68.1901 284.643 69.6554 283.143C72.5607 280.171 75.2427 280.81 78.188 282.537C78.9185 282.965 79.6323 283.432 80.3712 283.842C85.1228 286.487 90.245 287.911 95.3419 289.348C98.5271 290.246 101.811 290.718 105.056 291.362C105.693 291.488 106.395 291.707 106.982 291.53C108.759 290.996 109.723 291.884 110.609 293.493C112.325 296.611 114.843 298.657 118.039 299.492C120.603 300.162 123.222 300.561 125.784 301.235C130.14 302.384 134.231 301.919 138.066 299.195C138.595 298.822 139.294 298.645 139.929 298.574C146.635 297.869 153.346 297.194 160.056 296.531C160.542 296.484 161.054 296.508 161.53 296.631C166.262 297.824 171.077 297.119 175.803 296.989C183.027 296.788 190.229 295.62 197.488 296.406C198.124 296.477 198.787 296.177 199.441 296.139C201.41 296.032 203.38 295.949 205.351 295.897C206.831 295.861 208.313 295.89 210.286 295.89C219.037 295.46 228.136 293.967 237.05 291.141C237.682 290.94 238.336 290.822 238.989 290.7C244.071 289.742 248.772 287.695 253.324 284.979C257.574 282.445 261.252 279.089 265.092 275.925C266.627 274.658 267.899 273.209 268.69 271.478C270.255 268.06 272.059 264.698 272.366 260.697C272.608 257.569 273.084 254.459 273.305 251.327C273.404 249.885 273.345 248.345 273.008 246.957C271.223 239.569 266.798 234.561 260.998 230.966C256.692 228.298 251.987 227.592 247.101 227.793C241.838 228.003 236.545 228.342 231.301 227.977C227.339 227.699 223.416 227.543 219.469 227.849C217.326 228.015 215.187 228.172 213.048 228.347C204.85 229.015 196.646 229.621 188.454 230.391C185.006 230.711 181.589 231.425 178.149 231.87C177.38 231.968 176.907 231.327 177.214 230.444C178.178 227.703 179.29 225.025 180.187 222.258C181.031 219.657 181.909 217.021 182.349 214.32C182.791 211.591 184.218 210.971 186.349 210.345C194.997 207.818 203.797 206.36 212.646 205.158C213.629 205.025 214.633 204.96 215.581 204.667C217.24 204.16 218.507 201.692 218.153 199.88C217.917 198.666 216.202 197.858 214.368 198.158C213.89 198.238 213.446 198.562 212.97 198.663C210.549 199.175 208.126 199.658 205.7 200.137C202.296 200.81 198.881 201.418 195.488 202.156C192.576 202.794 189.702 203.645 186.789 204.268C184.441 204.768 183.793 204.152 183.717 201.459C183.532 194.91 182.401 188.688 179.265 183.005C177.791 180.338 177.999 179.899 180.174 177.955C183.429 175.042 187.077 172.931 190.951 171.253C191.679 170.939 192.582 170.411 192.875 169.705C193.475 168.264 193.825 166.652 194.027 165.072C194.073 164.7 193.166 163.886 192.622 163.784C191.869 163.638 190.947 163.763 190.267 164.148C187.347 165.804 184.435 167.495 181.622 169.368C179.498 170.781 177.528 172.482 175.494 174.062C174.584 174.77 173.7 174.812 172.747 174.133C170.374 172.449 168.014 170.746 165.587 169.167C164.168 168.248 162.675 167.426 161.138 166.787C157.142 165.129 153.062 163.706 149.087 161.982C143.561 159.587 138.113 156.948 131.967 157.674C131.485 157.729 130.982 157.585 130.492 157.511C121.944 156.242 113.416 155.709 104.963 158.309C104.491 158.455 103.995 158.559 103.506 158.578C98.8576 158.75 94.4682 160.229 90.1776 162.048C88.8976 162.59 88.1481 162.642 87.2239 161.423C84.7313 158.125 81.5754 155.872 78.0891 154.018C73.4827 151.569 68.9859 148.906 63.7522 148.536C63.5669 148.521 63.1795 147.509 63.3079 147.318C63.7879 146.603 64.3795 145.924 65.0448 145.426C70.8238 141.074 77.1333 137.974 83.6933 135.417C87.1376 134.074 90.8681 133.907 94.1965 132.6C101.906 129.571 110.106 129.564 117.849 127.006C118.161 126.903 118.504 126.86 118.828 126.867C123.169 126.943 127.319 125.747 131.489 124.598C136.13 123.319 140.78 121.984 145.652 123.006C146.416 123.166 147.262 122.803 148.075 122.713C154.755 121.968 161.294 119.528 168.132 120.658C168.934 120.793 169.799 120.701 170.599 120.519C175.462 119.408 180.401 119.476 185.311 119.061C191.595 118.523 197.82 118.79 204.073 118.835C206.846 118.854 209.134 116.487 209.227 113.43C209.286 111.595 209.124 109.745 208.966 107.908C208.328 100.417 205.073 94.3075 200.894 88.6646C199.852 87.2562 198.972 85.6969 198.016 84.2083C198.873 81.9625 201.01 82.3163 202.54 81.5874C207.842 79.0561 213.412 77.4024 219.035 76.0271C219.305 75.961 219.753 76.112 219.903 76.3361C220.021 76.5225 219.894 77.0344 219.736 77.2939C219.178 78.1998 218.555 79.0537 217.962 79.936C216.098 82.7032 215.995 85.6992 216.974 88.8793C217.943 92.0286 219.905 93.345 222.69 92.0428C225.404 90.7712 228.355 89.4667 230.416 87.2515C234.299 83.0713 239.313 81.7219 243.897 79.2968C244.88 78.7801 246.158 78.8297 247.292 78.8674C247.804 78.8816 248.417 79.4123 248.751 79.903C248.888 80.1082 248.543 81.0378 248.208 81.2807C243.372 84.8382 242.113 91.2478 238.833 96.0461C237.484 98.0159 239.288 101.142 241.541 100.998C242.802 100.913 244.132 100.505 245.263 99.8654C249.968 97.1974 254.6 94.3641 259.28 91.6394C262.189 89.9408 265.13 88.3084 268.074 86.683C268.562 86.4141 269.046 85.3171 269.64 86.3881C269.775 86.6382 269.351 87.3813 269.067 87.7941C268.362 88.8156 267.459 89.6931 266.876 90.7878C265.865 92.6821 264.8 94.6095 264.183 96.6783C263.341 99.5116 265.109 101.571 267.652 100.823C269.387 100.314 271.027 99.3701 272.707 98.627C274.846 97.6786 276.926 96.4236 279.143 95.848C286.196 94.0244 293.299 92.4367 300.394 90.8137C301.32 90.6014 302.526 90.3183 303.234 90.7783C305.855 92.4792 308.657 92.0145 311.434 92.1631C313.545 92.274 315.68 92.4839 317.739 92.9722C319.322 93.345 320.861 94.114 322.329 94.9114C326.185 97.0063 330.019 99.1554 333.802 101.408C335.204 102.243 335.253 103.119 334.078 104.48C330.386 108.759 327.158 113.392 324.992 118.865C323.19 123.416 321.503 128.028 319.116 132.26C318.783 132.852 318.503 133.76 318.67 134.357C318.943 135.343 319.455 136.384 320.141 137.044C320.895 137.773 321.613 136.952 322.255 136.346C324.592 134.136 326.183 131.253 327.223 128.167C328.52 124.327 330.284 120.84 332.238 117.424C335.293 112.081 339.396 107.813 343.621 103.697C346.143 101.238 349.211 99.8442 352.28 98.4807C362.249 94.0621 372.243 89.7592 383.169 89.469C383.662 89.4549 384.148 89.2756 384.639 89.2591C389.251 89.1034 393.864 88.9359 398.477 88.8486C399.59 88.825 400.184 89.4431 400.178 90.9104C400.129 103.208 395.895 114.065 390.331 124.18C384.11 135.483 375.805 144.766 365.453 151.442C357.066 156.848 348.106 159.351 338.404 156.813C337.44 156.558 336.478 156.28 335.499 156.145C334.405 155.997 333.663 156.626 333.112 157.698C332.451 158.985 332.495 160.121 333.322 161.272C334.196 162.494 335.301 163.216 336.691 163.336C338 163.454 339.375 163.294 340.611 163.68C343.906 164.714 347.112 164.504 350.396 163.652C352.803 163.023 355.276 162.739 357.712 162.239C359.005 161.972 360.371 161.8 361.548 161.201C368.333 157.738 374.638 153.409 380.07 147.622C382.46 145.077 384.742 142.397 387.156 139.88C387.695 139.321 388.725 138.736 389.291 138.948C390.672 139.479 392.055 140.279 393.173 141.324C394.331 142.409 392.904 143.683 392.919 144.897C392.935 146.188 393.024 147.476 393.072 148.767C393.285 154.089 391.879 159.008 389.805 163.669C389.098 165.261 387.857 166.636 386.649 167.842C385.175 169.312 383.59 170.725 381.86 171.77C376.931 174.742 373.434 179.302 370.005 184.098C366.878 188.467 365.973 193.258 366.462 198.63C366.628 200.451 366.765 202.319 366.567 204.119C366.365 205.958 366.116 207.685 366.443 209.586C366.819 211.77 366.588 214.233 365.226 215.892C362.354 219.385 359.468 222.798 355.327 224.78C351.739 226.495 348.007 228.682 345.341 231.752C341.826 235.8 339.171 240.886 337.592 246.38C336.335 250.76 335.508 255.294 334.522 259.767C333.558 264.169 333.99 268.602 334.476 273.009C334.666 274.722 336.386 276.196 337.583 276.028C338.834 275.856 340.35 274.236 340.592 272.745C340.678 272.21 340.64 271.641 340.645 271.089C340.674 267.572 341.836 264.629 344.129 262.211C344.842 261.461 345.449 260.565 346.059 259.694C347.855 257.135 350.106 255.418 352.979 254.715C356.394 253.877 359.611 252.431 362.582 250.381C364.257 249.22 365.752 247.722 367.422 246.547C372.234 243.162 376.35 239.043 379.19 233.433C379.748 232.325 380.54 231.324 381.367 230.439C383.369 228.298 384.358 225.573 384.948 222.68C385.386 220.527 385.533 218.298 385.75 216.096C386.291 210.595 387.891 205.841 391.839 202.037C396.321 197.712 400.437 192.902 404.643 188.224C405.557 187.208 406.224 185.898 406.933 184.669C408.453 182.034 409.085 178.915 410.333 176.202C411.502 173.655 412.325 171.263 412.51 168.429C412.639 166.433 413.163 164.459 413.59 162.494C413.776 161.628 414.354 161.34 415.051 161.902C416.653 163.199 418.23 164.532 419.82 165.851C421.778 167.476 422.986 169.418 422.66 172.395C422.42 174.584 422.851 176.879 422.51 179.033C421.942 182.647 421.525 186.481 420.102 189.701C416.936 196.863 412.649 203.131 406.5 207.635C404.773 208.896 403.037 210.803 402.234 212.869C400.54 217.231 398.893 221.742 399.258 226.719C399.668 232.292 397.615 236.766 394.262 240.638C393.114 241.959 391.853 243.16 390.719 244.497C387.192 248.64 383.485 252.53 379.068 255.491C373.582 259.166 369.243 264.254 365.758 270.131C364.066 272.985 363.108 276.441 362.099 279.733C361.375 282.096 362.529 284.373 364.384 285.149C365.855 285.762 367.222 285.014 368.392 282.91C368.651 282.445 368.729 281.825 369.043 281.426C370.459 279.63 371.681 277.446 373.432 276.229C377.163 273.627 380.982 271.162 385.43 270.086C388.125 269.438 390.851 268.276 393.213 266.696C399.765 262.311 405.641 256.892 410.645 250.421C413.681 246.498 416.184 242.138 416.788 236.754C416.952 235.295 417.435 233.879 417.584 232.417C417.936 228.956 419.39 226.075 421.378 223.568C423.009 221.506 424.83 219.609 426.704 217.814C434.193 210.64 440.599 202.579 444.14 192.053C444.79 190.132 445.588 189.878 447.001 191.312C449.927 194.278 452.736 197.396 455.559 200.489C456.298 201.3 455.917 202.209 455.435 202.994C453.563 206.032 451.626 209.024 449.799 212.091C446.687 217.314 443.679 222.61 440.555 227.821C436.786 234.108 432.961 240.352 429.119 246.585C428.091 248.253 426.862 249.767 425.832 251.44C420.533 260.046 414.142 267.446 406.529 273.504C401.418 277.566 396.127 281.362 391.203 285.689C385.072 291.079 378.133 294.946 371.506 299.372C366.565 302.674 361.358 305.494 356.506 309.006C354.569 310.407 352.605 311.764 350.611 313.066C345.192 316.607 339.79 320.159 335.015 324.793C333.278 326.479 331.312 327.869 329.436 329.37C325.15 332.8 321.135 336.449 317.983 341.349C314.68 346.501 311.872 351.804 310.162 357.881C309.141 361.505 308.87 365.597 305.895 368.245C305.785 368.343 305.766 368.575 305.71 368.75C305.12 370.519 306.32 372.169 307.994 371.986C309.606 371.809 310.924 370.852 311.71 369.504C313.139 367.058 314.28 364.399 315.447 361.774C317.354 357.48 318.857 352.915 321.122 348.879C324.924 342.091 330.804 337.388 335.874 331.884C337.39 330.24 339.657 329.456 341.127 327.779C343.849 324.67 347.188 322.79 350.512 320.77C354.714 318.213 358.981 315.734 362.941 312.757C368.428 308.633 373.996 304.779 380.009 301.645C383.561 299.794 387.047 297.683 390.159 294.802C393.956 291.28 398.024 288.095 402.114 284.993C408.266 280.327 414.159 275.332 419.456 269.48C420.976 267.803 422.683 266.285 423.997 264.425C428.089 258.63 432.083 252.744 436.022 246.818C440.948 239.414 445.736 231.907 449.462 223.622C449.902 222.648 450.437 221.685 451.094 220.885C457.626 212.907 461.108 202.676 466.856 194.126C466.957 193.98 467.014 193.798 467.081 193.631C469.287 187.863 471.751 182.199 473.612 176.297C475.191 171.286 477.073 166.309 477.401 160.873C477.645 156.811 478.393 152.836 479.534 148.965C480.123 146.962 480.172 144.914 479.576 142.971Z" fill="#C0FFD5"/>
</svg>
