<svg width="386" height="411" viewBox="0 0 386 411" fill="none" xmlns="http://www.w3.org/2000/svg">
<path fill-rule="evenodd" clip-rule="evenodd" d="M187.647 122.635C188.786 122.422 189.839 122.26 190.872 122.018C192.048 121.743 192.262 121.013 191.361 120.171C186.164 115.304 180.665 110.812 174.648 106.976C172.997 105.925 171.292 104.925 169.785 103.693C163.858 98.851 157.081 95.2028 151.224 90.2228C146.767 86.4316 141.826 83.1963 137.011 79.843C133.366 77.3088 129.587 74.9628 125.843 72.5738C125.46 72.3265 124.906 72.3469 124.43 72.2471C124.359 72.9209 123.996 73.7491 124.262 74.2414C125.865 77.2044 127.584 80.104 129.333 82.9853C129.785 83.734 130.398 84.4487 131.093 84.9751C134.062 87.2348 136.927 89.6987 140.146 91.5319C142.537 92.8931 145.067 94.268 148.157 94.1137C151.806 93.93 152.795 94.8828 153.755 98.3723C154.083 99.5656 154.341 100.784 154.61 101.993C155.282 105.024 156.787 107.459 159.012 109.719C163.384 114.163 168.596 116.929 174.459 118.714C177.853 119.747 181.22 120.863 184.611 121.906C185.619 122.217 186.664 122.406 187.647 122.635ZM220.218 122.916C220.243 123.009 220.27 123.102 220.295 123.195C223.424 122.685 226.635 122.458 229.657 121.584C233.249 120.543 236.737 118.909 238.918 115.665C240.891 112.729 242.56 109.589 244.268 106.485C245.293 104.627 246.21 102.699 247.037 100.741C247.817 98.8896 249.138 97.9866 251.101 97.8232C252.863 97.6758 254.616 97.4262 256.376 97.2424C262.304 96.6344 267.29 93.7916 271.324 89.7736C276.431 84.6778 278.78 77.826 281.404 71.2511C281.59 70.786 281.52 70.1916 281.481 69.6629C281.413 68.803 280.91 68.3425 280.092 68.7758C276.492 70.6862 272.85 72.5262 269.969 75.5346C264.775 80.9525 258.588 85.2087 252.483 89.4264C246.162 93.7961 240.507 98.885 234.609 103.72C231.062 106.626 228.069 110.12 224.193 112.725C220.68 115.084 217.678 118.202 214.474 121.013C213.897 121.523 214.192 122.571 214.909 122.623C216.675 122.762 218.447 122.823 220.218 122.916ZM223.401 104.888C223.256 104.45 223.219 104.069 223.024 103.797C220.352 100.074 216.967 97.2787 212.444 96.1375C208.488 95.1393 204.504 94.2227 200.507 93.3991C198.249 92.9362 195.943 92.5052 193.652 92.4643C190.456 92.4076 187.191 92.3962 184.071 92.9771C180.434 93.6509 176.904 94.9305 173.363 96.0627C172.322 96.3961 172.21 97.4784 173.105 98.1159C175.568 99.8719 178.083 101.549 180.597 103.23C183.549 105.206 187.071 106.667 189.361 109.224C193.239 113.555 198.164 116.316 202.651 119.742C203.74 120.575 204.527 120.389 205.459 119.647C211.141 115.114 216.837 110.599 222.512 106.054C222.897 105.748 223.133 105.247 223.401 104.888ZM192.116 85.4878C197.373 86.241 202.719 86.2546 207.81 88.0674C212.148 89.6147 216.537 91.0236 220.909 92.4734C221.969 92.825 222.708 92.217 222.953 91.3322C223.69 88.6664 223.051 86.0573 222.367 83.4799C220.791 77.5765 216.976 73.1682 212.499 69.3113C207.683 65.1617 202.025 63.3285 195.713 64.6625C186.113 66.6931 179.955 73.0253 175.686 81.4448C174.815 83.16 174.357 85.0953 173.806 86.9603C173.481 88.0674 174.117 88.5892 175.315 88.14C180.737 86.0959 186.508 86.4588 192.116 85.4878ZM368.652 310.831C369.998 310.768 370.905 310.815 371.771 310.648C372.21 310.561 372.788 310.151 372.913 309.765C373.035 309.37 372.799 308.719 372.501 308.367C371.93 307.7 371.266 307.07 370.53 306.598C367.39 304.592 364.313 302.453 361.023 300.719C353.742 296.89 347.776 291.202 340.877 286.843C340.436 286.564 339.931 286.197 339.74 285.752C338.969 283.937 337.328 283.297 335.763 282.435C333.114 280.972 330.568 279.334 327.978 277.768C324.34 275.567 320.738 273.301 317.045 271.198C314.897 269.975 312.632 268.239 310.36 268.142C307.864 268.037 305.272 269.473 302.777 270.39C301.64 270.812 300.633 271.59 299.578 272.226C298.6 272.811 298.525 273.571 299.278 274.383C299.637 274.771 300.106 275.055 300.522 275.391C307.118 280.729 312.748 286.739 314.926 295.29C315.217 296.429 315.931 297.768 316.866 298.378C320.104 300.499 323.376 302.695 326.921 304.195C331.773 306.248 337.091 306.305 342.116 305.109C348.487 303.589 353.945 305.445 359.586 307.943C362.571 309.266 365.477 311.408 368.652 310.831ZM332.869 241.241C332.043 241.479 331.173 241.622 330.395 241.973C324.995 244.415 324.413 246.116 326.98 251.743C327.835 253.619 327.785 255.028 326.127 255.772C322.889 257.227 321.332 260.45 318.533 262.327C317.505 263.019 317.523 264.214 318.437 265.09C319.581 266.191 320.747 267.311 322.077 268.151C328.524 272.221 335.04 276.185 341.507 280.225C344.054 281.816 346.769 283.184 348.508 285.854C349.042 286.671 350.188 287.097 351.071 287.681C353.285 289.151 355.684 290.401 357.685 292.121C360.541 294.571 363.654 296.552 366.921 298.36C369.718 299.907 372.462 301.541 375.236 303.127C375.698 303.39 376.166 303.678 376.671 303.828C377.133 303.964 377.649 303.93 378.138 303.971C378.17 303.505 378.381 302.952 378.204 302.587C377.278 300.669 376.032 298.879 375.309 296.896C373.788 292.715 370.771 289.761 367.615 286.886C366.171 285.573 364.568 284.434 363.133 283.113C361.842 281.927 360.666 280.616 359.463 279.338C356.278 275.955 355.086 271.618 354.106 267.314C353.142 263.078 351.316 259.3 349.124 255.661C346.371 251.089 343.306 246.742 338.815 243.643C337.043 242.42 335.229 241.297 332.869 241.241ZM20.8092 329.751C21.2703 329.676 22.5234 329.594 23.7049 329.256C27.1271 328.283 30.489 327.087 33.9306 326.193C39.4038 324.771 43.4007 321.25 46.6586 316.987C49.4254 313.366 52.8786 310.663 56.4528 308.023C58.6272 306.416 61.0829 305.495 63.7912 305.019C68.852 304.127 73.8757 303.02 78.9074 301.956C80.4459 301.631 81.3765 300.647 81.5605 299.031C81.8411 296.563 82.5501 294.06 82.3341 291.637C81.8661 286.371 83.3804 281.886 86.3648 277.643C88.7462 274.258 88.6102 274.188 84.9587 272.509C83.1797 271.69 81.4557 270.76 79.6767 269.948C77.8967 269.133 76.2571 269.319 74.8075 270.762C71.1536 274.397 67.4923 278.022 63.7974 281.612C61.3787 283.962 58.898 286.244 56.4387 288.552C54.3682 290.494 52.2606 292.4 50.2212 294.373C48.9563 295.601 47.8026 296.939 46.5733 298.201C43.3536 301.5 39.3586 303.982 36.6203 307.8C35.6068 309.218 34.2805 310.441 32.9706 311.614C27.6715 316.351 22.3228 321.03 17.0033 325.746C16.6115 326.094 16.308 326.547 15.9871 326.969C15.1586 328.063 15.5112 329.027 16.8612 329.258C17.9092 329.435 18.9742 329.528 20.8092 329.751ZM6.99585 320.984C7.10795 322.157 7.11841 323.239 7.34511 324.272C7.47744 324.88 7.95335 325.406 8.27577 325.969C8.71553 325.715 9.21462 325.526 9.58866 325.195C16.1204 319.432 22.6869 313.708 29.1281 307.848C31.4862 305.702 33.4645 303.14 35.7551 300.912C38.2972 298.437 41.086 296.211 43.6183 293.725C49.0638 288.382 54.4561 282.982 59.7846 277.525C63.2494 273.977 66.5944 270.313 69.9321 266.651C71.6854 264.727 71.6358 264.67 70.458 262.647C69.9216 261.726 69.227 260.877 68.8202 259.901C66.5766 254.513 63.6073 249.088 69.1044 243.804C69.2633 243.652 68.9844 242.634 68.7713 242.579C66.4575 242.014 65.5452 239.866 63.9829 238.473C63.165 237.74 62.4038 237.447 61.2127 237.363C56.9332 237.071 53.6674 238.881 50.7017 241.631C48.2103 243.94 46.4099 246.711 44.6263 249.603C40.9928 255.505 38.7394 261.698 38.6035 268.648C38.5628 270.778 38.186 272.904 38.1621 275.032C38.1141 279.143 36.5925 282.63 33.9902 285.727C32.5033 287.501 30.9233 289.212 29.6122 291.109C28.2834 293.035 26.7363 294.639 24.9466 296.159C19.0906 301.125 14.0819 306.89 9.56365 313.098C7.79009 315.535 7.29963 318.253 6.99585 320.984ZM292.091 143.267C292.166 143.265 292.241 143.263 292.318 143.26C292.181 140.599 292.329 137.89 291.854 135.29C290.14 125.872 288.562 116.436 284.974 107.441C283.186 102.957 281.251 98.6082 278.743 94.5062C277.634 92.6935 277.07 92.6345 275.574 94.2431C270.835 99.341 265.255 102.842 258.186 103.627C257.663 103.688 257.17 103.99 256.647 104.065C253.388 104.518 251.224 106.163 249.752 109.217C247.774 113.321 245.669 117.317 242.215 120.62C240.168 122.58 238.436 124.79 235.839 126.09C235.205 126.406 234.532 126.71 234.006 127.17C233.665 127.467 233.47 128.021 233.397 128.491C233.367 128.667 233.824 129.049 234.118 129.133C238.57 130.399 243.036 131.606 247.488 132.869C251.765 134.083 256.221 134.9 260.257 136.674C269.525 140.747 279.219 143.823 288.164 148.665C292.038 150.761 292.131 150.584 292.091 145.935C292.084 145.046 292.091 144.157 292.091 143.267ZM97.1137 134.233C97.1137 135.689 97.1131 136.402 97.1146 137.112C97.1219 139.685 97.5473 140.057 99.8309 139.199C107.488 136.338 115.036 133.216 123.08 131.449C131.932 129.502 140.694 127.15 149.513 125.058C152.798 124.282 156.155 123.821 159.444 123.061C161.206 122.657 163.298 123.708 164.735 121.891C163.335 120.87 161.933 119.853 160.535 118.825C158.958 117.671 157.28 116.618 155.835 115.313C154.262 113.895 152.701 112.38 151.506 110.649C149.799 108.176 148.129 105.589 147.011 102.821C146.146 100.68 144.81 99.8402 142.79 99.3252C138.946 98.3451 135.407 96.4415 132.47 93.9572C128.038 90.2114 123.121 86.8014 120.585 81.1975C119.923 79.7318 118.889 79.8135 117.612 81.0727C117.107 81.5695 116.561 82.0641 116.2 82.6586C113.617 86.9012 111.002 91.1303 108.553 95.4524C107.422 97.4466 106.792 99.7199 105.68 101.723C99.933 112.08 98.2454 123.447 97.1137 134.233ZM66.6476 352.171C67.8841 354.896 66.2185 357.521 68.0207 359.647C69.4641 358.131 70.8968 356.604 72.3562 355.105C72.9742 354.469 73.7266 353.95 74.288 353.274C75.6336 351.652 76.8717 349.939 78.2121 348.31C81.9257 343.797 85.4348 339.08 89.4763 334.881C92.7101 331.516 95.4707 327.897 98.0428 324.052C99.4125 322.005 101.034 320.097 102.722 318.296C106.477 314.287 110.499 310.516 114.128 306.4C117.525 302.546 120.651 298.444 123.716 294.319C125.954 291.304 128.411 288.554 131.202 286.042C132.9 284.513 134.338 282.673 135.756 280.865C136.545 279.86 136.181 278.987 134.982 278.306C127.859 274.267 120.128 273.609 112.221 274.549C107.782 275.077 103.407 275.545 98.9773 274.635C97.081 274.247 95.4166 274.853 94.2042 276.352C91.1621 280.114 88.7568 284.082 88.2832 289.148C87.7016 295.342 87.6154 301.525 87.73 307.723C87.7709 309.899 87.2423 311.875 86.4421 313.906C84.9018 317.81 81.9327 320.682 79.5114 323.934C77.8344 326.189 75.3965 327.89 73.7782 330.177C72.1606 332.462 71.1267 335.164 69.8727 337.701C69.3272 338.799 68.6344 339.899 68.4152 341.072C67.7038 344.888 67.1815 348.736 66.6476 352.171ZM71.9812 367.197C74.9781 366.48 77.8256 366.356 80.0862 365.142C84.6087 362.714 89.2257 360.164 93.0441 356.808C98.6335 351.89 103.777 346.46 109.69 341.88C113.885 338.626 117.878 335.053 123.218 333.651C124.057 333.429 124.821 332.907 125.598 332.48C128.093 331.114 130.528 329.635 133.073 328.374C137.506 326.175 142.142 324.347 146.434 321.912C150.345 319.693 154.729 317.524 154.318 311.757C154.26 310.949 154.874 310.089 155.19 309.261C156.715 305.266 158.496 301.418 161.064 297.947C162.667 295.782 162.477 295.376 160.132 293.763C157.934 292.254 155.783 290.671 153.543 289.223C150.405 287.197 147.208 285.262 144.025 283.302C143.011 282.678 142.026 282.664 141.129 283.569C138.38 286.347 135.432 288.953 132.916 291.925C128.689 296.917 124.888 302.273 120.621 307.228C116.801 311.664 112.617 315.789 108.548 320.006C106.821 321.796 105.134 323.543 103.842 325.744C102.321 328.331 100.405 330.715 98.4691 333.027C94.4839 337.796 90.3956 342.481 86.3043 347.157C82.3359 351.697 79.1507 356.877 74.7009 361.033C73.4371 362.215 72.5933 363.878 71.704 365.407C71.4883 365.782 71.855 366.492 71.9812 367.197ZM196.94 339.747C196.94 332.641 196.949 325.531 196.929 318.423C196.925 317.359 196.768 316.295 196.699 315.233C196.561 313.1 195.747 311.498 193.502 310.902C192.644 310.67 191.838 310.266 190.993 309.987C184.021 307.694 177.549 304.358 171.291 300.576C170.684 300.209 170.119 299.673 169.46 299.508C168.859 299.358 167.912 299.354 167.548 299.714C166.301 300.955 164.917 302.23 164.182 303.773C162.66 306.974 161.468 310.337 160.258 313.674C159.906 314.645 159.834 315.761 159.852 316.81C159.913 320.54 159.959 324.274 160.208 327.997C160.834 337.34 163.837 345.648 170.786 352.316C175.396 356.743 179.868 361.287 183.223 366.846C185.267 370.228 187.441 373.407 187.258 377.607C187.213 378.621 187.769 379.655 187.989 380.69C188.465 382.945 188.897 385.209 189.361 387.467C189.533 388.315 189.557 389.255 189.962 389.976C192.23 394.021 194.932 397.753 198.419 400.859C198.638 401.057 199.101 401.134 199.386 401.048C199.608 400.984 199.874 400.576 199.872 400.324C199.856 399.264 199.763 398.205 199.67 397.15C199.374 393.792 198.958 390.441 198.79 387.079C198.468 380.531 198.592 373.947 197.964 367.431C197.075 358.204 197.096 348.988 196.94 339.747ZM204.515 379.576C204.431 379.58 204.349 379.585 204.267 379.592C204.267 381.368 204.326 383.151 204.254 384.926C204.031 390.482 205.163 395.898 205.925 401.347C206.193 403.267 207.364 403.616 208.965 402.556C209.261 402.359 209.538 402.134 209.82 401.917C217.369 396.034 219.809 387.821 219.529 378.841C219.334 372.588 220.136 366.678 223.285 361.416C225.802 357.215 228.051 352.629 232.358 349.721C232.933 349.331 233.474 348.766 233.802 348.158C236.569 343.023 239.704 338.025 241.908 332.65C244.718 325.792 245.157 318.509 243.609 311.172C243.245 309.445 242.967 307.664 242.972 305.91C242.983 301.992 243.07 301.983 239.286 301.357C238.056 301.153 236.812 301.023 235.578 300.837C232.146 300.322 228.99 300.887 225.737 302.278C218.883 305.207 212.533 309.366 205.095 310.888C204.924 310.922 204.713 310.99 204.618 311.113C204.108 311.771 203.233 312.435 203.203 313.127C202.971 318.634 202.869 324.142 202.794 329.646C202.746 333.186 202.824 336.727 202.819 340.267C202.814 345.052 202.58 349.848 202.817 354.621C203.233 362.946 203.935 371.258 204.515 379.576ZM199.049 41.5798C180.468 41.5639 164.634 47.3947 150.759 59.7528C147.325 62.8112 143.897 65.9807 141.599 70.0827C139.291 74.2005 139.292 74.2255 143.037 76.7597C148.923 80.7437 155.048 84.3897 160.352 89.1905C161.389 90.1297 162.713 90.7696 163.938 91.491C165.243 92.2579 165.953 91.8699 166.053 90.4292C166.148 89.0316 166.093 87.5842 166.442 86.2501C167.945 80.5055 170.769 75.3712 174.21 70.5795C178.101 65.1639 183.746 62.253 189.805 59.9684C193.538 58.5594 197.377 57.906 201.339 58.564C211.844 60.311 219.793 66.1281 225.029 75.0649C228.324 80.6915 230.502 87.0419 229.782 93.9005C229.691 94.774 229.688 95.6951 229.87 96.5436C229.998 97.1404 230.418 97.7688 230.896 98.1454C231.078 98.2928 231.867 97.8731 232.237 97.5487C238.815 91.8291 245.487 86.2319 253.09 81.8713C253.243 81.7828 253.384 81.6694 253.525 81.5651C255.235 80.2469 255.521 79.598 254.705 77.5175C253.734 75.0491 252.467 72.6986 251.492 70.2301C250.228 67.0402 248.34 64.2791 246.13 61.6927C238.704 53.0055 228.963 48.1434 218.263 44.8673C216.228 44.2434 214.001 44.0619 212.128 43.1362C209.108 41.6479 205.975 41.6093 202.78 41.5821C201.534 41.5707 200.293 41.5798 199.049 41.5798ZM335.108 363.077C334.626 356.74 332.157 350.134 327.73 344.385C324.822 340.607 321.42 337.213 318.255 333.633C317.787 333.102 317.348 332.53 316.998 331.92C315.408 329.156 313.892 326.468 313.451 323.121C312.732 317.683 311.047 312.358 310.449 306.915C309.899 301.892 308.58 297.185 306.809 292.527C305.911 290.165 304.667 288.041 302.832 286.281C300.795 284.325 298.66 282.456 296.752 280.38C293.882 277.253 292.143 277.001 289.544 280.259C287.225 283.157 285.324 286.396 283.323 289.539C281.611 292.225 280.114 295.05 278.332 297.688C277.481 298.947 275.239 299.626 275.708 301.336C276.088 302.711 277.636 303.78 278.698 304.953C279.053 305.345 279.473 305.704 279.923 305.978C283.818 308.324 286.613 311.748 289.362 315.271C291.324 317.787 293.55 320.106 295.763 322.418C300.429 327.287 305.208 332.054 309.853 336.947C312.53 339.768 314.967 342.815 317.625 345.657C322.232 350.583 326.905 355.447 331.593 360.298C333.062 361.818 332.971 363.483 332.284 365.223C331.741 366.612 329.97 367.143 328.774 366.21C327.669 365.353 326.675 364.318 325.743 363.27C318.678 355.288 311.67 347.25 304.571 339.3C301.977 336.392 299.364 333.447 296.424 330.908C292.372 327.407 288.559 323.732 285.224 319.541C283.68 317.604 282.088 315.655 280.249 314.01C277.606 311.648 274.632 309.652 271.961 307.315C269.844 305.461 267.859 304.123 264.935 305.688C264.077 306.146 262.831 306.035 261.785 305.938C259.127 305.686 256.471 305.359 253.834 304.939C249.3 304.213 249.268 304.177 249.455 308.851C249.509 310.255 249.709 311.687 250.082 313.041C250.887 315.979 251.394 318.906 250.921 321.962C250.455 324.975 251.649 327.353 253.506 329.73C256.337 333.356 260.221 335.641 263.945 337.912C268.134 340.464 272.675 342.538 277.813 343.098C286.438 344.042 293.512 348.241 299.699 354.215C303.012 357.414 306.62 360.332 310.272 363.15C315.827 367.438 322.378 369.071 329.253 369.421C333.976 369.657 334.979 368.577 335.108 363.077ZM297.172 178.168C297.823 177.973 299.326 177.837 300.447 177.12C302.982 175.491 305.37 173.628 307.723 171.741C308.437 171.169 308.63 170.15 307.691 169.467C303.821 166.647 299.99 163.77 296.02 161.1C293.523 159.421 290.819 158.048 288.186 156.574C284.476 154.493 280.862 152.184 276.995 150.446C270.835 147.682 264.528 145.241 258.231 142.798C254.427 141.318 250.585 139.866 246.651 138.804C240.321 137.094 233.886 135.76 227.517 134.188C220.796 132.524 214.229 130.145 207.212 129.897C205.281 129.829 203.215 130.283 201.441 129.747C196.908 128.368 192.366 128.422 187.722 128.586C180.841 128.829 173.943 128.339 167.068 129.046C165.306 129.23 163.486 129.026 161.758 129.348C155.814 130.451 149.887 131.655 143.979 132.926C136.166 134.609 128.426 136.574 120.776 138.909C113.46 141.139 106.191 143.419 99.5519 147.335C98.1797 148.145 96.7301 148.905 95.2192 149.388C89.5588 151.199 84.7759 154.677 79.603 157.413C78.8906 157.79 78.743 158.636 79.5291 159.101C84.0705 161.806 88.2923 164.809 94.1205 164.936C98.1574 165.023 101.918 164.753 105.55 163.267C110.521 161.236 115.238 158.738 118.598 154.309C119.131 153.604 119.799 152.994 120.456 152.395C123.071 150.008 124.639 150.042 127.38 152.399C128.573 153.425 129.728 154.65 131.13 155.262C138.986 158.686 147.084 158.316 155.21 156.374C156.398 156.09 157.637 155.616 158.609 154.902C162.175 152.277 166.107 150.055 168.579 146.162C169.044 145.429 169.779 144.853 170.438 144.261C171.813 143.022 172.615 142.959 174.216 144.05C174.937 144.535 175.625 145.13 176.178 145.799C178.407 148.499 181.298 150.217 184.553 151.281C189.277 152.828 194.105 154.069 198.803 155.684C203.731 157.381 208.272 156.392 212.724 154.248C213.997 153.633 215.154 152.776 216.378 152.054C218.062 151.058 219.709 149.985 221.464 149.132C223.288 148.243 225.029 148.851 225.975 150.616C226.646 151.866 227.308 153.166 227.669 154.525C228.52 157.738 230.93 159.566 233.499 161.141C238.549 164.226 244.143 166.057 249.889 167.267C252.263 167.766 254.932 167.913 257.258 167.355C261.376 166.366 265.339 164.732 269.357 163.337C272.077 162.393 273.534 162.736 275.314 165.129C276.369 166.547 277.138 168.17 278.127 169.644C278.7 170.5 279.344 171.371 280.142 171.999C284.896 175.75 290.613 176.979 297.172 178.168ZM332.955 94.3248C333.685 88.3329 329.037 84.6415 324.056 81.3382C322.86 80.5464 320.938 80.4216 319.437 80.6235C317.573 80.8708 315.572 81.4403 314.03 82.4658C310.199 85.0204 306.34 87.6205 303.607 91.4842C300.629 95.6906 297.7 99.9786 293.425 103.005C291.89 104.09 291.979 105.115 292.466 106.619C293.553 109.998 294.487 113.426 295.49 116.829C295.872 118.118 296.624 118.56 297.911 117.988C300.51 116.831 303.046 115.524 305.617 114.306C306.409 113.934 307.229 113.451 308.062 113.394C308.635 113.353 309.367 113.852 309.803 114.317C310.035 114.562 309.976 115.425 309.717 115.722C308.789 116.788 307.839 117.898 306.686 118.685C304.196 120.375 301.563 121.857 299.014 123.461C297.147 124.636 296.993 125.099 297.436 127.467C297.841 129.629 298.218 130.108 300.583 130.303C302.516 130.464 304.48 130.344 306.425 130.242C307.839 130.165 309.246 129.811 310.658 129.779C311.575 129.759 312.496 130.283 312.43 131.331C312.398 131.882 311.836 132.695 311.325 132.885C307.832 134.19 304.324 135.474 300.749 136.518C299.178 136.978 299.112 137.607 299.089 139.115C299.028 142.993 298.498 146.863 298.155 150.736C296.004 153.132 297.661 154.548 299.524 155.834C301.131 156.946 302.689 158.305 304.485 158.938C308.635 160.406 310.974 163.773 313.521 166.899C315.765 169.656 315.42 173.05 312.975 175.611C312.484 176.122 311.954 176.616 311.37 177.018C306.616 180.278 302.568 185.054 295.792 183.953C294.498 183.745 294.382 185.308 294.121 186.306C293.844 187.359 294.378 188.008 295.344 188.291C296.368 188.593 297.429 188.768 298.45 189.074C302.191 190.211 305.933 191.35 309.649 192.561C310.465 192.831 311.325 193.283 311.884 193.9C312.266 194.322 312.327 195.207 312.216 195.831C312.159 196.146 311.372 196.595 310.97 196.541C309.756 196.389 308.571 196.008 307.368 195.738C303.037 194.769 298.723 193.591 294.214 194.39C293.248 194.56 293.086 195.481 293.537 195.962C294.853 197.373 296.229 198.803 297.825 199.858C300.631 201.714 303.66 203.222 306.497 205.031C307.368 205.589 307.939 206.671 307.314 207.826C306.809 208.761 305.995 208.79 305.033 208.481C300.085 206.907 295.46 204.638 290.954 202.099C288.261 200.584 288.082 200.645 286.565 203.442C286.142 204.221 285.644 205.01 285.46 205.856C285.337 206.424 285.487 207.352 285.885 207.69C292.222 213.101 298.234 218.852 304.101 224.765C308.357 229.053 312.593 233.363 316.882 237.622C318.871 239.6 319.424 239.666 322.08 238.42C326.648 236.276 330.747 233.522 333.696 229.307C335.322 226.979 336.887 224.594 338.667 222.382C343.337 216.586 345.011 209.766 345.532 202.58C345.67 200.67 345.407 198.676 345 196.79C343.954 191.931 342.576 187.137 341.612 182.263C340.713 177.732 340.193 173.181 341.75 168.589C342.887 165.231 343.51 161.703 344.442 158.271C347.576 146.711 345.854 136.157 337.989 126.852C337.76 126.582 337.446 126.367 337.269 126.067C334.915 122.115 332.587 118.27 332.489 113.333C332.384 108.019 331.491 102.719 332.932 97.4466C333.112 96.7864 332.955 96.0332 332.955 94.3248ZM311.641 75.1716C310.988 72.2357 310.058 69.7151 308.134 67.7753C304.844 64.4583 302.586 60.3972 299.835 56.6922C299.094 55.694 298.482 54.5664 297.602 53.7111C289.849 46.215 281.067 40.9876 269.873 40.425C264.025 40.13 258.184 39.1408 252.631 37.1103C249.798 36.0757 247.042 34.8074 244.327 33.4915C238.563 30.6918 232.703 27.8014 228.097 23.4022C224.056 19.5453 219.763 16.2827 214.988 13.4989C213.467 12.6141 212.069 11.4547 210.773 10.2477C207.255 6.97614 202.933 5.78049 198.428 6.41803C193.372 7.1395 188.24 7.9812 183.51 10.1184C177.35 12.9045 171.328 15.956 165.817 19.9218C165.103 20.4346 164.328 20.8748 163.545 21.2787C159.598 23.3138 155.342 24.911 151.752 27.4452C146.469 31.1797 140.327 32.4093 134.403 33.8931C127.187 35.7059 119.64 36.1755 112.27 37.4166C110.032 37.7909 107.748 38.5101 105.753 39.5719C102 41.5707 98.5571 44.1549 94.7726 46.0811C91.2214 47.8848 88.9158 50.7276 87.0922 53.9924C83.6415 60.1771 80.2503 66.4073 77.7573 73.0639C77.1639 74.6543 76.544 76.2289 75.9374 77.8102C77.4979 78.9695 79.0273 80.172 80.6305 81.2701C81.8004 82.0687 83.0403 82.7788 84.2927 83.4459C89.7905 86.368 95.3036 89.2563 100.81 92.1626C101.809 92.6935 102.446 92.3146 102.968 91.4184C103.864 89.8847 104.744 88.3306 105.738 86.8581C108.013 83.4844 109.492 79.6184 112.586 76.7371C114.084 75.3395 115.006 73.3316 116.188 71.5982C115.228 69.3181 114.311 67.0175 113.28 64.7692C112.996 64.152 112.315 63.7278 111.92 63.1424C111.094 61.915 111.707 60.6127 113.237 60.4335C117.209 59.9661 120.899 60.4244 124.134 63.1924C126.562 65.2683 129.244 67.0583 131.869 68.8938C133.679 70.1575 133.903 70.0441 135.054 68.1497C138.872 61.8787 143.887 56.6219 149.545 52.0412C152.839 49.3731 156.418 46.9455 160.166 44.9739C166.434 41.6751 172.593 37.9724 179.917 37.2487C182.748 36.9696 185.569 36.4932 188.36 35.9373C194.196 34.7757 200.022 34.7802 205.9 35.6129C216.396 37.0989 226.303 40.2798 235.684 45.2439C246.078 50.7412 254.152 58.4165 259.248 69.0867C259.857 70.364 260.528 71.6232 261.221 72.8597C261.767 73.8352 262.561 73.8965 263.422 73.2544C263.85 72.9368 264.266 72.592 264.634 72.2108C269.976 66.6387 276.84 63.0562 282.87 58.3847C283.7 57.7404 285.287 57.5612 286.354 57.8334C288.705 58.4256 290.381 62.3687 289.546 64.785C287.463 70.8132 286.513 77.243 283.118 82.8083C282.304 84.1447 282.422 85.4447 283.245 86.8196C284.796 89.4105 286.195 92.0877 287.686 94.7127C288.455 96.0604 289.025 96.2373 290.203 95.3888C292.638 93.6305 295.326 92.1376 296.768 89.279C297.075 88.6641 297.654 88.165 298.177 87.6885C301.982 84.215 305.808 80.7642 309.608 77.2884C310.354 76.6032 311.013 75.8272 311.641 75.1716ZM64.8649 77.91C63.9358 78.2412 63.4297 78.3955 62.9411 78.5952C57.9787 80.619 54.33 84.19 51.4779 88.5824C50.0764 90.7423 49.7521 93.1767 50.4327 95.7609C51.4247 99.5316 52.0739 103.4 53.1912 107.132C55.2431 113.982 52.7667 119.742 48.9422 125.056C45.1006 130.396 40.8186 135.415 36.8538 140.665C35.0125 143.106 34.0525 145.888 33.848 149.055C33.5327 153.946 34.4467 158.616 35.7398 163.246C37.1441 168.272 39.6826 172.614 43.3384 176.453C46.8815 180.171 50.0161 184.38 51.2221 189.489C52.4461 194.671 53.4116 199.937 54.0671 205.219C55.164 214.04 57.4733 222.273 63.8115 228.91C64.1785 229.291 64.4911 229.742 64.7494 230.203C66.1849 232.787 68.1008 234.759 71.0567 235.616C71.8657 235.85 72.8498 236.358 73.2309 237.034C74.3003 238.938 75.3787 238.303 76.5777 237.334C77.2705 236.773 77.9465 236.195 78.6232 235.616C86.9947 228.479 95.364 221.339 103.732 214.194C104.408 213.616 105.048 212.994 105.718 212.409C106.95 211.331 107.255 210.172 106.392 208.649C103.385 203.354 101.472 197.625 99.8007 191.797C99.0837 189.301 98.4205 188.934 95.9982 189.247C95.4679 189.317 94.9502 189.464 94.4297 189.582C91.3094 190.286 88.1909 190.991 85.0715 191.695C83.6149 192.021 82.5651 191.622 82.4275 190.69C82.2674 189.601 82.9709 189.086 83.8325 188.738C85.1552 188.205 86.5185 187.772 87.8205 187.198C90.4124 186.052 92.9909 184.872 95.5266 183.611C95.8429 183.454 95.9273 182.715 95.9768 182.229C95.9893 182.114 95.4441 181.809 95.1519 181.807C89.9772 181.741 84.8327 182.03 79.754 183.119C79.078 183.266 78.3053 183.52 77.7094 183.323C77.1223 183.132 76.5572 182.504 76.273 181.923C76.1309 181.637 76.5236 180.816 76.8842 180.614C77.7919 180.106 78.7983 179.734 79.8038 179.443C84.0767 178.204 88.3855 177.081 92.64 175.786C94.9502 175.078 95.2103 173.535 93.2155 172.147C92.274 171.491 90.9497 171.344 89.7737 171.074C83.0482 169.524 77.0138 167.01 73.1554 160.737C71.1429 157.468 71.0228 155.877 74.2027 153.638C77.9659 150.983 81.827 148.426 85.8373 146.171C91.4301 143.024 91.5723 142.988 90.7666 136.733C90.582 135.304 89.9408 134.596 88.5515 134.153C85.1097 133.06 81.5569 132.919 78.0113 132.627C76.3824 132.497 75.034 131.483 75.3005 130.669C75.7037 129.446 76.8219 129.296 77.8995 129.212C78.7885 129.139 79.6883 129.212 80.5719 129.117C83.5785 128.792 86.5788 128.411 89.5854 128.082C91.0279 127.928 91.8387 127.2 92.0413 125.752C92.1382 125.051 92.3895 124.37 92.4891 123.667C92.7155 122.068 92.17 120.852 90.5411 120.341C88.3482 119.658 86.1658 118.914 83.9321 118.397C81.3304 117.795 78.6739 117.439 76.052 116.92C74.8476 116.677 74.2932 115.767 74.232 114.61C74.1795 113.637 75.2098 112.87 76.5636 113.015C79.9111 113.371 83.2445 113.855 86.5895 114.245C88.6945 114.49 90.8112 114.653 92.9224 114.853C93.8445 112.979 94.8188 111.13 95.6749 109.226C96.8402 106.631 97.9468 104.012 99.0199 101.378C99.9055 99.2072 99.7554 98.7738 97.8261 97.4171C97.1005 96.9066 96.3472 96.4166 95.5603 96.0105C90.2355 93.2357 85.6454 89.0385 79.5373 87.7884C75.7889 85.1293 71.3587 83.4935 68.1221 80.0382C67.2117 79.0626 65.8304 78.5226 64.8649 77.91ZM259.634 299.179C265.76 299.276 269.589 297.128 272.672 293.731C274.323 291.914 275.485 289.645 276.822 287.554C279.114 283.96 280.974 280.005 283.721 276.804C289.005 270.642 295.815 266.279 303.253 263.164C308.194 261.093 312.914 258.98 316.907 255.271C320.149 252.258 320.347 252.448 317.978 248.712C317.414 247.825 316.807 246.944 316.1 246.175C313.573 243.428 310.954 240.764 308.444 238.005C300.406 229.168 291.477 221.28 282.466 213.473C281.365 212.522 280.651 212.667 279.96 213.945C278.527 216.601 277.409 219.49 275.624 221.879C272.229 226.434 268.886 231.065 264.557 234.863C262.347 236.805 262.467 237.1 264.257 239.759C265.844 242.112 267.386 244.499 268.886 246.908C269.348 247.652 269.782 248.498 269.894 249.345C269.969 249.894 269.562 250.647 269.134 251.071C268.893 251.314 268.116 251.212 267.681 251.024C267.224 250.826 266.863 250.375 266.503 249.989C264.805 248.172 263.175 246.289 261.41 244.539C260.414 243.55 259.248 242.715 258.079 241.926C256.34 240.753 255.08 242.062 253.759 242.913C252.481 243.739 252.442 244.821 252.931 246.159C254.086 249.327 255.18 252.512 256.217 255.72C256.703 257.229 257.038 258.794 257.37 260.348C257.495 260.938 256.428 261.653 255.858 261.372C255.235 261.068 254.448 260.793 254.114 260.26C252.972 258.465 251.555 256.668 251.08 254.674C250.507 252.265 248.925 250.622 247.74 248.684C246.685 246.962 244.304 247.101 243.572 248.92C242.92 250.54 242.403 252.306 243.167 254.068C243.59 255.042 244.368 255.904 244.591 256.904C244.757 257.642 244.525 258.726 244.038 259.291C243.233 260.228 241.99 259.99 241.153 259.243C240.382 258.558 239.741 257.637 239.311 256.698C238.872 255.745 238.8 254.633 238.499 253.612C238.033 252.013 237.422 251.736 235.725 252.138C231.05 253.236 226.357 254.257 221.698 255.402C217.31 256.48 212.874 256.317 208.417 256.249C204.511 256.187 200.577 256.133 196.699 256.519C195.066 256.682 193.538 256.727 191.992 256.385C188.648 255.645 185.316 255.654 181.918 256.004C177.638 256.446 173.412 256.292 169.395 254.291C167.83 253.515 165.977 253.329 164.267 252.83C157.691 250.906 157.551 251.046 154.189 256.963C153.666 257.884 153.103 258.828 152.363 259.568C151.951 259.976 150.964 260.305 150.546 260.083C150.091 259.842 149.788 258.924 149.789 258.304C149.792 257.458 150.091 256.594 150.362 255.77C150.802 254.425 151.431 253.136 151.759 251.766C151.889 251.216 151.633 250.241 151.211 249.944C147.736 247.493 145.866 247.718 142.932 250.747C141.446 252.281 140.013 253.871 138.436 255.303C138.039 255.661 136.942 255.795 136.585 255.509C136.156 255.166 135.987 254.252 136.044 253.617C136.105 252.952 136.523 252.296 136.862 251.679C137.802 249.973 138.856 248.322 139.699 246.568C139.934 246.075 139.827 244.982 139.471 244.725C137.46 243.271 135.329 241.992 133.238 240.653C131.705 241.513 130.168 242.364 128.644 243.237C128.029 243.591 127.49 244.158 126.838 244.331C126.008 244.551 125.087 244.576 124.224 244.49C123.43 244.412 123 243.795 123.136 242.976C123.442 241.114 124.596 239.804 125.979 238.602C128.624 236.313 127.774 236.41 126.29 234.387C125.657 233.524 124.947 232.726 124.249 231.914C120.416 227.471 116.575 223.031 112.738 218.593C112.388 218.187 112.063 217.765 111.694 217.382C111.144 216.812 110.574 216.704 109.857 217.205C108.691 218.017 107.43 218.698 106.268 219.519C103.66 221.366 100.865 223.027 98.5544 225.198C95.5985 227.975 93.0734 231.206 90.2933 234.176C89.4558 235.074 88.3703 235.739 87.4174 236.528C83.5874 239.709 79.7503 242.879 75.9445 246.084C73.5711 248.083 73.2868 250.72 74.3305 253.367C77.592 261.646 83.3627 266.828 92.5884 267.5C95.4316 267.706 98.2879 267.806 101.115 268.151C106.118 268.759 111.053 268.287 116.005 267.615C117.739 267.379 119.518 267.416 121.276 267.436C122.334 267.445 123.441 267.931 124.438 267.736C127.615 267.128 130.544 268.121 133.205 269.394C139.781 272.534 146.458 275.561 152.228 280.146C152.923 280.699 153.594 281.296 154.346 281.759C162.224 286.585 170.064 291.474 178.021 296.168C184.477 299.973 191.307 302.968 198.627 304.801C200.647 305.309 202.51 305.241 204.363 304.472C208.965 302.566 213.735 300.96 218.094 298.6C228.517 292.951 239.154 293.087 250.109 296.479C253.661 297.582 257.27 298.512 259.634 299.179ZM209.947 249.215C218.829 249.687 227.144 247.001 235.434 244.315C239.664 242.94 243.49 240.605 247.49 238.679C258.115 233.561 266.226 225.91 272.163 215.864C274.512 211.887 276.433 207.656 278.893 203.753C282.329 198.308 284.498 192.287 287.231 186.529C288.671 183.497 288.168 182.694 285.003 181.226C284.362 180.929 283.705 180.616 283.02 180.457C278.268 179.371 274.548 176.843 272.104 172.605C271.044 170.765 269.482 170.336 267.563 170.661C264.935 171.105 262.279 171.45 259.691 172.065C256.237 172.889 254.821 173.091 251.533 172.659C246.792 172.038 242.062 171.67 237.465 169.912C234.538 168.793 232.408 166.593 229.666 165.463C226.028 163.965 223.167 161.896 221.644 158.178C221.141 156.955 220.232 156.821 219.047 157.409C216.509 158.665 213.924 159.823 211.368 161.034C207.514 162.863 203.551 162.999 199.449 161.998C196.686 161.322 193.874 160.834 191.084 160.258C189.868 160.006 188.577 159.925 187.453 159.455C182.867 157.527 178.304 155.546 173.798 153.44C172.472 152.826 171.514 152.919 170.386 153.749C167.531 155.852 164.654 157.933 161.71 159.909C160.554 160.687 159.245 161.313 157.919 161.749C154.758 162.792 151.224 162.271 148.199 164.018C147.822 164.235 147.153 163.884 146.626 163.911C139.414 164.324 132.447 163.239 125.793 160.415C123.899 159.614 122.521 159.907 121.016 161.34C117.907 164.306 114.349 166.649 110.253 168.117C107.914 168.952 105.617 169.901 103.295 170.788C101.749 171.378 101.43 171.943 101.78 173.619C101.89 174.139 102.074 174.642 102.232 175.153C104.534 182.626 106.622 190.172 109.224 197.537C110.692 201.695 112.501 205.918 115.046 209.475C119.576 215.812 123.884 222.398 129.888 227.578C132.172 229.549 134.062 231.986 136.412 233.862C139.993 236.723 143.648 239.523 148.188 240.884C154.829 242.876 161.386 245.152 168.055 247.051C171.107 247.92 174.324 248.548 177.487 248.648C188.302 248.989 199.124 249.05 209.947 249.215ZM338.767 102.969C339.247 106.456 338.194 111.279 339.858 115.978C340.943 119.03 342.182 121.854 344.556 124.18C347.846 127.399 349.445 131.615 350.523 135.932C351.555 140.061 352.157 144.299 352.771 148.513C352.974 149.885 352.78 151.365 352.496 152.744C351.53 157.431 350.7 162.135 349.095 166.706C347.246 171.988 347.123 177.519 348.508 183.005C349.333 186.279 350.104 189.564 351.055 192.8C352.38 197.319 352.917 201.861 351.835 206.492C351.152 209.407 350.702 212.354 349.893 215.265C348.485 220.336 346.33 224.842 342.81 228.728C342.457 229.116 342.253 229.633 341.948 230.067C340.729 231.791 339.495 233.511 338.269 235.235C339.929 236.522 341.625 237.765 343.246 239.103C350.388 245.007 355.716 252.158 358.713 261.02C360.129 265.204 362.017 269.226 363.647 273.344C364.522 275.552 365.882 277.346 367.737 278.837C369.536 280.28 371.191 281.9 372.967 283.374C376.337 286.165 378.62 289.77 380.534 293.598C382.201 296.93 383.656 300.377 385.046 303.837C385.491 304.944 385.471 306.251 385.582 307.469C385.662 308.333 385.569 309.207 385.623 310.076C385.687 311.095 386.276 312.401 385.841 313.059C385.105 314.176 383.872 315.344 382.626 315.689C375.011 317.801 367.351 319.308 359.752 315.491C358.167 314.695 356.346 314.316 354.87 313.375C352.242 311.707 349.479 311.739 346.625 312.193C343.647 312.669 340.67 313.168 337.717 313.769C334.003 314.529 330.72 312.989 327.389 311.891C324.694 311.002 322.136 309.706 319.503 308.626C318.357 308.156 317.53 308.583 317.7 309.615C318.844 316.608 319.674 323.72 323.937 329.73C325.061 331.316 326.418 332.748 327.794 334.13C333.155 339.507 337.105 345.644 339.406 352.981C340.593 356.765 341.375 360.529 341.646 364.413C341.764 366.145 341.475 367.939 341.134 369.659C340.536 372.706 338.924 374.167 335.502 374.895C321.805 377.806 310.57 373.364 300.917 364.098C296.395 359.751 291.74 355.663 286.217 352.718C284.069 351.572 281.551 350.435 279.216 350.463C273.941 350.522 269.471 348.312 265.078 346.113C259.687 343.414 254.45 340.308 250.3 335.738C249.252 334.581 248.745 334.667 247.931 336.117C246.892 337.966 246.071 339.942 245.039 341.8C243.152 345.195 241.403 348.7 239.17 351.858C237.03 354.882 234.293 357.482 231.926 360.357C228.279 364.786 226.657 370.011 226.667 375.644C226.678 382.146 225.502 388.479 223.294 394.464C221.143 400.301 217.414 405.333 212.153 409.007C209.513 410.849 206.523 411.205 203.472 410.906C202.571 410.817 201.371 410.048 200.993 409.261C200.372 407.974 199.761 407.323 198.259 407.287C195.366 407.223 193.365 405.379 191.433 403.489C185.707 397.883 182.539 390.918 182.055 383.108C181.507 374.237 177.199 367.71 170.994 361.99C169.031 360.182 166.936 358.512 165.035 356.643C161.312 352.979 158.761 348.654 156.9 343.711C155.001 338.663 153.709 333.59 153.2 328.256C153.008 326.246 152.28 325.917 150.436 326.856C145.683 329.277 140.977 331.79 136.204 334.173C130.483 337.036 124.709 339.793 118.97 342.619C118.023 343.085 117.031 343.556 116.245 344.239C110.877 348.902 105.236 353.31 100.307 358.401C94.0584 364.858 86.4776 368.981 78.372 372.25C74.9628 373.623 71.1445 374.226 67.3413 373.554C66.2949 373.371 65.231 373.18 64.2387 372.817C61.846 371.939 60.9915 370.83 61.5324 368.382C61.9037 366.694 61.6932 365.339 61.17 363.767C60.5618 361.95 60.089 359.969 60.137 358.072C60.258 353.285 60.5722 348.491 61.0847 343.729C61.2873 341.844 62.0068 339.931 62.8594 338.218C65.6323 332.634 69.0696 327.45 72.8791 322.513C75.1539 319.564 77.3788 316.574 79.5461 313.543C80.1544 312.694 80.6164 311.68 80.8872 310.673C81.1005 309.876 80.9184 308.978 80.9122 308.122C80.1066 308.152 79.2815 308.07 78.4988 308.22C76.4197 308.617 74.3589 309.109 72.292 309.574C69.862 310.117 67.4309 310.661 65.0036 311.219C61.9961 311.914 59.4442 313.22 57.2086 315.523C54.0173 318.813 50.2603 321.551 47.0415 324.814C43.31 328.596 38.8745 331.064 33.944 332.743C30.4135 333.948 26.8713 335.216 23.2333 335.967C19.3801 336.764 15.4339 336.439 11.5923 335.436C11.0789 335.303 10.508 335.164 10.1135 334.844C8.88515 333.848 7.83625 332.117 6.51631 331.899C5.23207 331.688 3.74068 333.17 2.2493 333.544C1.72087 333.676 0.714485 332.868 0.31407 332.244C0.0039237 331.759 0.0937396 330.797 0.362957 330.209C1.32568 328.115 1.07693 326.028 0.551228 323.938C-0.92242 318.096 0.602617 313.118 4.5995 308.696C6.49857 306.593 7.97745 304.107 9.90563 302.035C12.199 299.576 14.868 297.466 17.2022 295.038C20.7728 291.331 24.3595 287.608 27.6262 283.635C29.7668 281.035 31.1729 277.925 31.4189 274.417C31.6311 271.402 31.9687 268.396 32.2521 265.387C32.9324 258.148 35.6352 251.659 39.6987 245.703C41.1979 243.505 42.7168 241.288 44.5101 239.335C45.9355 237.783 47.7512 236.574 49.4679 235.314C50.3206 234.691 51.3902 234.368 52.2826 233.792C56.4564 231.079 57.2807 232.025 54.3486 226.584C52.7526 223.617 51.3893 220.513 50.1137 217.393C48.761 214.088 47.9526 210.628 48.1943 207.014C48.4315 203.42 47.5077 200.026 46.878 196.525C45.82 190.637 43.2479 185.882 39.1392 181.721C38.2954 180.868 37.892 179.588 37.2553 178.524C36.351 177.002 35.6068 175.332 34.4592 174.014C31.5174 170.636 30.2154 166.692 29.7313 162.348C29.4373 159.702 29.312 156.975 28.533 154.461C27.4068 150.827 27.8668 147.337 29.0189 143.982C30.4019 139.95 32.4651 136.272 35.4513 133.028C38.5689 129.645 41.0132 125.65 43.9817 122.113C45.8964 119.833 46.8451 117.228 47.5486 114.467C47.7619 113.634 47.8355 112.688 47.6748 111.851C46.7377 106.976 45.8157 102.091 44.6565 97.2651C44.2666 95.6429 44.2152 94.2249 44.5847 92.6005C46.5565 83.9268 51.6601 77.7489 59.1929 73.1886C62.6755 71.0832 65.8954 71.1036 69.1851 73.0389C70.5033 73.8126 71.1179 73.5176 71.6188 72.3515C72.6022 70.0645 73.7088 67.8071 74.4301 65.4362C76.1639 59.7324 79.8081 55.0451 82.4452 49.8268C85.6295 43.5264 91.5209 40.5271 97.0544 37.0331C99.1549 35.7059 101.284 34.3695 103.545 33.3645C107.392 31.6583 111.111 29.9091 115.708 30.2903C119.331 30.592 123.081 29.3351 126.777 28.8019C133.145 27.8831 139.228 25.848 145.232 23.713C148.877 22.4153 152.196 20.1851 155.626 18.3088C159.37 16.2646 163.099 14.1909 166.781 12.0401C168.923 10.7877 170.936 9.32205 173.045 8.01978C174.1 7.36633 175.19 6.69931 176.355 6.31363C182.249 4.36472 188.181 2.5293 194.084 0.603088C196.355 -0.136536 198.628 -0.0843506 200.957 0.172028C205.752 0.698395 210.711 1.08182 214.454 4.43057C218.729 8.24896 223.526 11.2278 228.32 14.2635C228.913 14.6378 229.5 15.1098 229.916 15.6611C233.54 20.5005 238.502 23.4476 243.947 25.7958C246.389 26.8463 248.741 28.1303 251.051 29.4508C256.631 32.6339 262.888 33.0491 269.027 33.9975C273.248 34.6441 277.463 35.3497 281.665 36.1097C282.7 36.2958 283.78 36.6338 284.669 37.1761C289.833 40.3138 295.033 43.4016 300.028 46.789C301.729 47.9438 302.966 49.8495 304.253 51.5353C307.596 55.9163 310.883 60.3359 314.117 64.7964C315.149 66.2212 316.238 67.7209 316.773 69.3589C317.712 72.2244 319.854 73.3883 322.425 73.3679C327.816 73.3225 331.432 76.6622 334.626 80.0109C337.953 83.4958 339.529 88.2081 339.424 93.1972C339.365 96.0377 339.054 98.8737 338.767 102.969Z" fill="#C0FFD5"/>
</svg>
