<svg width="463" height="380" viewBox="0 0 463 380" fill="none" xmlns="http://www.w3.org/2000/svg">
<path fill-rule="evenodd" clip-rule="evenodd" d="M407.345 169.92C402.992 167.754 398.655 168.228 394.456 170.29C385.666 174.604 379.269 181.059 377.335 191.288C376.947 193.337 376.336 195.444 376.471 197.479C376.895 203.928 377.364 210.397 378.304 216.78C379.528 225.058 379.009 233.05 376.258 240.939C375.03 244.454 373.143 247.223 370.118 249.449C362.945 254.732 355.005 256.316 346.419 255.39C345.32 255.271 344.243 254.875 343.145 254.8C341.945 254.717 340.972 255.274 340.581 256.53C340.212 257.719 340.406 258.801 341.488 259.53C343.37 260.794 345.342 261.757 347.671 261.874C357.188 262.343 366.077 260.459 374.05 254.809C378.32 251.785 381.286 247.738 383.133 242.847C385.796 235.797 386.665 228.522 385.507 220.991C384.643 215.366 384.002 209.704 383.261 204.057C383.393 204.04 383.528 204.021 383.666 204.001C383.573 202.674 383.486 201.344 383.389 200.015C382.719 190.867 386.265 183.582 393.369 178.406C396.936 175.805 401.155 174.092 405.915 175.205C408.91 175.903 410.283 175.375 410.683 173.965C411.034 172.725 409.72 171.104 407.345 169.92ZM292.272 225.177C290.655 223.016 288.716 221.107 285.835 222.452C285.262 222.401 284.9 222.342 284.536 222.34C281.539 222.32 281.432 222.289 280.644 225.024C279.15 230.204 276.764 234.849 273.381 238.992C271.835 240.88 270.448 242.905 269.028 244.899C267.799 246.629 266.914 248.557 267.451 250.728C268.497 254.97 270.983 257.882 275.391 258.405C277.758 258.684 280.185 258.585 282.573 258.48C284.458 258.397 286.122 258.337 287.727 259.834C288.714 260.758 290.421 261.4 291.749 261.312C296.183 261.018 300.051 258.767 302.655 255.344C307.157 249.43 305.517 240.127 301.741 236.232C298.346 232.727 295.196 229.086 292.272 225.177ZM340.051 299.139C341.62 295.539 343.045 291.849 344.897 288.404C346.895 284.678 352.283 284.666 354.335 288.307C354.775 289.083 354.434 290.485 354.134 291.504C353.4 294.008 352.394 296.431 351.66 298.937C351.241 300.367 350.843 301.439 349.082 300.853C348.571 300.683 347.995 300.717 347.763 300.69C345.439 300.885 343.431 301.096 341.417 301.196C340.564 301.237 339.705 299.929 340.051 299.139ZM341.161 308.401C342.063 308.326 342.948 307.988 343.855 307.905C346.923 307.628 347.872 308.795 346.961 311.923C346.495 313.528 345.806 315.093 345.022 316.566C344.104 318.302 342.321 318.562 340.912 317.135C340.181 316.389 339.613 315.348 339.293 314.335C338.962 313.287 339.019 312.108 338.952 311.437C338.9 309.415 339.566 308.535 341.161 308.401ZM325.059 283.922C328.046 282.723 331.922 284.5 332.575 287.685C333.214 290.813 333.635 294.039 333.69 297.231C333.747 300.678 332.745 301.485 329.362 301.748C328.629 301.803 327.885 301.755 326.33 301.755C323.837 301.48 320.526 301.171 317.237 300.685C316.724 300.61 315.978 299.769 315.923 299.222C315.296 292.386 318.923 286.387 325.059 283.922ZM316.598 307.387C317.699 307.317 318.807 307.375 319.912 307.375C319.912 307.509 319.912 307.642 319.912 307.776C322.67 307.776 325.43 307.822 328.184 307.766C332.542 307.674 332.49 307.623 330.892 312.047C330.456 313.253 330.326 314.621 330.295 315.92C330.26 317.218 330.785 318.606 329.519 319.578C328.065 320.696 326.616 321.832 325.068 322.794C324.488 323.156 323.634 323.066 322.907 323.169C317.749 323.876 316.404 323.03 314.967 317.782C314.288 315.288 312.969 312.91 313.698 310.098C314.191 308.187 314.64 307.518 316.598 307.387ZM298.548 307.013C300.337 307.664 302.537 307.117 304.549 307.159C306.443 307.195 307.134 308.046 306.954 310.037C306.362 314.303 305.252 318.214 300.778 319.955C298.739 320.747 297.082 320.305 296.093 318.343C295.506 317.186 295.134 315.89 294.84 314.614C294.592 313.518 294.748 312.315 294.448 311.243C293.202 306.823 294.197 305.43 298.548 307.013ZM276.196 303.267C279.131 303.629 282.076 303.957 284.971 304.526C287.282 304.978 287.608 305.535 287.746 308.029C287.819 309.351 287.76 310.686 287.76 312.016C287.758 312.016 287.755 312.016 287.753 312.016C287.753 313.72 287.909 315.446 287.713 317.128C287.488 319.06 286.257 320.14 284.358 320.324C281.044 320.648 278.502 319.741 276.201 316.795C273.32 313.109 273.315 309.269 273.866 305.109C274.042 303.777 274.913 303.109 276.196 303.267ZM287.362 290.565C287.362 291.134 287.329 291.703 287.367 292.267C287.81 298.578 286.884 298.337 281.056 297.931C274.922 297.506 274.861 297.192 274.775 290.697C274.726 287.026 275.303 283.562 277.176 280.385C278.416 278.282 280.26 277.655 282.308 278.985C285.21 280.861 287.481 283.261 287.355 287.167C287.32 288.3 287.35 289.435 287.35 290.565C287.355 290.565 287.358 290.565 287.362 290.565ZM257.996 299.64C260.498 300.221 262.979 300.936 265.422 301.743C267.349 302.377 267.593 302.917 267.432 306.386C267.11 307.72 266.556 310.299 265.832 312.825C265.666 313.406 264.925 314.233 264.445 314.233C260.041 314.24 255.532 312.55 254.999 307.56C254.753 305.236 255.624 302.756 256.188 300.398C256.282 299.997 257.449 299.514 257.996 299.64ZM268.419 289.52C268.237 296.686 268.867 296.84 261.89 294.591C256.389 292.816 256.358 292.933 256.595 287.121C256.628 286.37 256.486 285.611 256.502 284.858C256.63 279.293 256.751 279.094 261.407 276.588C263.673 275.367 265.808 275.975 266.774 278.469C267.851 281.255 268.947 284.106 268.436 287.255C268.317 287.989 268.419 288.764 268.419 289.52ZM240.587 295.126C241.091 295.362 241.551 295.695 242.055 295.916C244.252 296.866 247.047 297.238 248.506 298.874C250.139 300.707 248.115 303.542 248.288 305.965C248.409 307.662 248.603 309.346 248.759 311.038C248.887 312.448 248.025 313.195 246.887 313.389C244.105 313.858 241.759 312.84 240.081 310.557C238.291 308.124 236.802 305.511 237.048 302.256C237.093 301.694 237.053 301.123 237.053 300.554C237.039 300.554 237.024 300.554 237.013 300.554C237.013 299.421 236.918 298.276 237.029 297.156C237.299 294.438 238.139 293.983 240.587 295.126ZM239.24 276.838C239.56 273.505 241.695 271.424 245.002 271.167C246.094 271.084 247.218 271.045 248.305 271.189C250.052 271.422 251.309 272.946 251.098 274.801C250.518 279.845 249.815 284.875 249.119 289.904C248.93 291.28 248.084 291.679 246.7 291.066C245.693 290.619 244.77 289.953 243.752 289.535C239.853 287.923 237.612 285.422 239.221 280.871C239.221 279.481 239.117 278.148 239.24 276.838ZM456.324 232.817C454.492 239.796 453.233 246.97 450.141 253.54C448.531 256.956 446.839 260.359 444.852 263.553C442.582 267.204 440.961 271.398 437.166 273.909C436.432 274.398 435.881 275.314 435.469 276.15C433.251 280.65 429.385 283.192 425.251 285.473C418.59 289.146 411.389 290.66 403.953 291.426C400.464 291.786 397 292.427 393.551 293.094C390.926 293.602 388.888 295.23 387.089 297.209C386.087 298.313 385.181 299.654 383.947 300.362C379.409 302.96 376.41 307.027 373.477 311.221C370.342 315.706 367.043 320.074 363.982 324.608C362.407 326.944 360.883 329.409 359.881 332.034C356.274 341.49 350.46 349.728 346.132 358.779C345.735 359.605 345.103 360.371 344.425 360.988C341.526 363.626 338.784 366.531 335.577 368.699C331.879 371.203 327.845 372.863 323.037 372.404C318.615 371.981 314.21 371.969 309.941 370.391C308.055 369.693 305.945 369.662 303.969 369.185C300.198 368.279 296.491 367.044 292.686 366.37C289.611 365.826 286.432 365.894 283.3 365.714C281.641 365.622 279.917 365.86 278.331 365.469C273.234 364.214 268.024 364.642 262.885 364.1C254.89 363.259 247.003 364.914 239.065 365.354C234.764 365.595 231.985 363.606 231.504 359.18C231.239 356.739 231.189 354.196 231.535 351.775C232.387 345.803 233.573 339.881 234.529 333.923C235.012 330.926 235.268 327.892 235.642 324.875C235.829 323.368 235.978 321.846 236.286 320.361C236.722 318.253 236.873 318.239 239.335 318.635C241.163 318.929 243.075 318.912 244.825 319.454C246.991 320.127 248.811 320.098 250.419 318.319C251.517 317.101 252.708 317.342 253.882 318.197C255.885 319.658 258.259 320.154 260.494 321.039C263.472 322.22 266.137 322.911 268.701 320.227C269.459 319.435 270.453 319.826 271.191 320.531C272.283 321.567 273.26 322.731 274.397 323.701C277.245 326.125 280.639 327.082 284.237 326.849C285.61 326.759 286.938 325.762 288.262 325.125C289.685 324.442 291.036 324.209 292.461 325.181C297.331 328.497 302.013 327.145 306.575 324.437C308.971 323.015 308.98 322.918 310.488 324.751C312.176 326.81 313.809 328.869 316.707 329.144C320.788 329.53 324.879 330.041 328.524 327.401C330.191 326.193 331.803 324.899 333.489 323.728C334.613 322.95 335.842 322.578 337.108 323.521C337.407 323.745 337.733 323.937 338.069 324.095C343.01 326.426 347.56 325.15 350.377 320.225C351.866 317.626 352.732 314.653 353.871 311.843C354.723 309.743 355.578 307.645 356.399 305.53C357.012 303.945 357.547 302.326 358.163 300.741C358.984 298.638 359.543 296.334 360.783 294.52C362.109 292.573 362.308 290.789 361.771 288.638C361.117 286.044 360.608 283.55 357.964 282.031C355.384 280.548 353.071 278.817 349.929 278.447C347.891 278.209 346.326 278.472 344.757 279.668C343.566 280.574 342.333 281.43 341.073 282.23C340.446 282.626 339.663 283.163 339.054 283.051C338.512 282.949 338.119 282.038 337.65 281.491C335.226 278.669 331.995 277.169 328.626 276.102C327.327 275.691 325.608 275.822 324.337 276.354C321.617 277.499 318.977 278.926 316.47 280.516C315.107 281.379 314.086 281.591 313.161 280.224C310.978 277.003 307.768 276.381 304.317 276.491C301.164 276.588 297.999 276.765 295.177 278.53C293.647 279.485 292.459 278.919 291.242 277.708C289.519 276.002 287.684 274.395 285.769 272.917C283.773 271.373 281.458 270.953 278.93 271.062C276.785 271.157 274.929 271.437 273.504 273.299C272.884 274.106 271.71 274.417 271.203 273.299C269.312 269.125 265.666 269.477 262.196 269.49C260.932 269.494 259.682 270.131 258.403 270.25C257.8 270.304 257.082 269.92 256.545 269.541C256.117 269.237 255.863 268.653 255.563 268.17C253.92 265.522 251.612 264.202 248.527 264.518C245.772 264.8 243.016 265.119 240.268 265.479C238.603 265.692 238.22 265.452 238.087 263.847C237.929 261.954 237.986 260.012 237.578 258.179C236.624 253.866 233.644 252.597 230.19 255.373C225.176 259.409 220.018 259.003 214.464 257.109C210.087 255.616 206.368 253.339 204.006 249.177C203.179 247.718 202.529 246.116 202.041 244.502C200.871 240.623 200.547 236.532 201.165 232.613C202.571 223.689 201.492 223.835 209.467 227.214C217.568 230.649 225.884 233.165 234.752 233.218C235.306 233.223 235.879 233.245 236.416 233.374C246.6 235.836 255.302 231.482 263.945 226.995C272.247 222.688 277.335 215.806 279.11 206.396C279.387 204.937 280.308 205.175 281.151 205.654C283.421 206.947 285.715 208.221 287.876 209.694C292.487 212.842 297.804 214.78 302.084 218.497C303.63 219.841 305.287 221.051 306.944 222.25C308.604 223.456 310.301 224.606 312.025 225.716C313.121 226.421 314.685 226.725 315.358 227.702C317.846 231.337 322.107 232.26 325.213 234.905C326.725 236.198 328.558 236.417 330.487 235.946C333.754 235.139 337.051 235.024 340.425 235.112C342.78 235.173 345.304 234.706 347.494 233.809C350.995 232.375 353.698 230.024 355.071 226.006C356.376 222.182 357.322 218.429 357.419 214.359C357.614 206.029 356.392 198.172 352.536 190.626C348.741 183.2 346.402 175.117 344.603 166.92C343.339 161.162 342.428 155.313 340.941 149.62C339.892 145.606 338.458 141.62 336.623 137.922C334.099 132.842 331.417 127.749 328.089 123.215C325.222 119.306 321.577 115.896 317.872 112.772C314.013 109.52 309.679 106.868 305.538 103.977C304.932 103.552 304.276 103.08 303.583 102.939C301.256 102.465 300.515 101.165 301.114 98.8286C301.481 97.3993 300.818 96.2397 299.774 95.2941C298.46 94.0957 297.272 93.9523 295.719 94.8274C293.297 96.1887 293.086 96.8305 293.65 100.139C294.478 105.003 295.229 109.879 296.031 114.746C296.188 115.68 296.244 116.696 296.656 117.505C298.964 122.012 300.46 126.923 303.763 130.951C306.22 133.953 308.055 137.492 310.166 140.793C309.835 141.024 309.503 141.255 309.172 141.486C306.289 138.817 303.469 136.077 300.51 133.503C297.686 131.048 294.604 128.906 291.851 126.375C287.573 122.442 283.231 118.524 279.377 114.168C275.898 110.237 272.993 105.762 269.932 101.452C268.55 99.5069 268.72 98.2671 270.806 97.3117C276.189 94.8541 281.07 91.4193 286.924 89.81C292.265 88.3393 297.504 86.3994 302.851 84.8218C307.553 83.4362 312.33 82.8941 317.079 82.3958C328.323 81.2241 339.639 80.998 350.888 82.2548C355.613 82.7823 360.364 83.8203 364.621 86.4335C366.517 87.5954 368.647 88.4049 370.75 89.1464C380.451 92.5667 389.269 97.7396 397.815 103.457C400.606 105.324 403.378 107.223 406.133 109.145C414.862 115.227 421.516 123.327 427.553 132.098C431.217 137.426 434.001 143.19 436.555 149.09C440.163 157.44 443.809 165.79 446.993 174.315C449.637 181.399 452.222 188.572 451.95 196.431C451.843 199.635 452.603 202.696 453.822 205.807C454.956 208.688 454.764 212.147 454.992 215.363C455.219 218.596 455.394 221.793 456.45 224.914C457.326 227.501 457.011 230.204 456.324 232.817ZM185.908 205.744C182.977 204.128 180.073 202.448 177.244 200.652C174.883 199.152 172.559 197.557 170.379 195.797C167.857 193.76 165.14 192.245 162.034 191.431C160.966 191.152 159.856 190.867 158.921 190.308C152.877 186.705 146.303 184.877 139.443 183.944C139.074 183.895 138.674 183.873 138.371 183.691C138.11 183.533 137.824 183.168 137.819 182.889C137.814 182.575 138.039 182.075 138.29 181.97C139.485 181.467 140.695 180.823 141.947 180.679C145.626 180.256 149.326 180.047 153.853 179.692C157.633 180.424 162.176 181.299 166.716 182.191C167.258 182.298 167.772 182.553 168.317 182.634C170.073 182.896 171.529 182.194 172.074 180.881C172.843 179.021 172.519 176.617 171.015 175.718C167.213 173.452 163.835 170.591 159.24 169.558C152.2 167.973 145.363 165.462 138.425 163.383C137.009 162.956 135.563 162.521 134.102 162.375C129.867 161.957 125.613 161.757 121.383 161.317C118.814 161.05 116.284 160.364 113.718 160.094C108.552 159.557 103.368 159.188 98.1954 158.728C95.6269 158.5 93.0608 158.264 90.4994 157.967C85.8974 157.43 81.2931 156.893 76.7029 156.268C73.403 155.823 70.1929 155.187 67.0563 153.781C60.4137 150.808 53.8398 147.78 48.0541 143.207C47.6138 142.862 47.138 142.495 46.6243 142.332C38.5258 139.76 32.9888 133.401 26.8173 128.046C23.5741 125.238 20.7855 121.876 17.8619 118.696C17.4334 118.227 17.4026 117.374 17.1848 116.698C17.9021 116.567 18.6478 116.244 19.3319 116.348C20.6032 116.54 21.8436 116.941 23.0699 117.335C26.6042 118.465 30.1693 119.506 33.6374 120.811C40.0006 123.203 46.6953 123.407 53.3024 124.19C54.3819 124.319 55.5205 124.073 56.6166 123.913C59.3934 123.505 62.1229 123.466 64.9044 124.095C66.6917 124.501 68.5902 124.414 70.4415 124.526C73.7722 124.727 77.0367 125.087 80.1828 126.458C81.8589 127.185 83.7834 127.287 85.592 127.686C89.9123 128.644 94.1237 129.499 97.9516 132.317C100.747 134.373 103.903 136.019 106.729 138.146C107.913 139.036 109.336 139.694 110.891 138.824C112.657 137.837 113.457 135.861 112.553 133.992C110.747 130.253 108.945 126.543 105.835 123.609C99.2891 117.432 93.236 110.679 85.6015 105.813C80.8883 100.282 74.0279 98.3959 68.0032 95.1847C62.9325 92.4815 57.412 90.566 51.9412 88.7939C48.4968 87.6781 45.4572 85.9668 42.607 83.8932C38.3743 80.8133 34.3145 77.4756 30.2427 74.1769C25.7686 70.5549 23.1409 65.4573 20.2363 60.6028C19.7012 59.701 20.3783 59.2805 21.2447 59.2902C21.9833 59.2975 22.7952 59.1661 23.4462 59.4311C28.9431 61.6529 34.3239 64.2005 39.9083 66.1598C45.488 68.1191 50.767 70.9949 56.7018 71.9357C59.6136 72.3976 62.4851 73.2216 65.3282 74.0432C71.7861 75.9005 78.4808 76.1533 85.0476 77.2399C88.1961 77.7576 91.1386 78.4675 93.8941 80.3125C95.8731 81.6374 98.3493 82.1575 100.53 83.1979C103.034 84.3939 105.451 85.7771 107.92 87.0509C108.739 87.4739 109.67 88.2397 110.429 88.1133C113.429 87.6076 114.312 89.6058 115.164 91.8325C115.5 92.7124 115.846 93.6216 116.369 94.3849C121.897 102.472 127.427 110.563 133.042 118.587C134.218 120.272 135.745 121.701 137.109 123.249C142.677 129.565 148.136 135.987 153.853 142.154C156.516 145.023 159.619 147.476 162.63 149.979C166.948 153.572 171.262 157.19 175.769 160.517C180.274 163.843 184.802 167.249 189.7 169.862C195.91 173.168 202.524 175.667 208.922 178.603C211.119 179.612 213.089 181.202 215.338 181.994C224.61 185.257 233.556 189.433 243.033 192.119C252.672 194.851 262.26 197.778 271.52 201.723C273.005 202.353 273.308 202.975 272.943 204.675C271.094 213.421 265.787 219.136 258.138 222.722C254.949 224.217 251.51 225.16 248.158 226.278C244.2 227.598 240.199 227.756 236.08 226.951C233.178 226.387 230.164 226.453 227.236 226.001C219.234 224.759 212.118 221.003 204.863 217.605C198.066 214.42 192.432 209.347 185.908 205.744ZM98.9506 47.104C97.4924 44.4835 95.3997 42.2399 93.6526 39.7774C93.3638 39.3665 93.1437 38.365 93.3023 38.2507C93.8396 37.8715 94.6587 37.4437 95.1961 37.6163C97.8403 38.4501 100.541 39.2328 103.015 40.4677C108.675 43.2949 114.478 45.896 119.411 50.0625C120.838 51.2707 122.396 52.3329 123.956 53.3612C131.451 58.2959 136.993 65.1364 142.009 72.536C143.38 74.5586 145.068 76.3526 146.59 78.2681C148.341 80.4778 150.152 82.6438 151.802 84.9361C156.648 91.6502 161.423 98.4202 166.236 105.161C166.783 105.929 167.275 106.826 168.004 107.349C172.367 110.482 175.186 114.984 178.349 119.207C180.037 121.458 181.933 123.565 183.9 125.564C188.126 129.852 192.297 134.22 196.795 138.19C200.715 141.651 204.858 144.943 209.252 147.724C216.661 152.41 224.371 156.599 231.909 161.072C234.148 162.401 236.44 162.747 238.852 162.012C239.673 161.76 240.493 161.14 241.075 160.471C242.206 159.173 242.081 157.61 240.824 156.414C239.598 155.252 238.4 153.978 236.975 153.137C232.659 150.585 229.52 146.827 226.864 142.684C220.342 132.497 214.301 122.051 210.617 110.322C209.429 106.537 207.734 102.883 205.944 99.3415C200.98 89.5183 195.607 79.926 187.776 72.1399C184.049 68.4352 179.975 65.1049 176.129 61.529C166.375 52.4715 155.884 44.1652 148.45 32.7375C146.502 29.7378 144.196 26.9812 142.258 23.9766C141.467 22.7587 141.185 21.1834 140.738 19.7492C140.645 19.4502 140.75 18.9397 140.956 18.7379C141.124 18.575 141.668 18.6068 141.9 18.7696C142.816 19.4138 143.704 20.1066 144.549 20.848C151.937 27.3117 159.901 32.5941 169.202 35.9657C179.724 39.7798 189.643 45.1594 198.208 52.6003C205.855 59.2415 212.589 66.8818 218.543 75.1906C220.738 78.2559 222.854 81.3893 224.928 84.5446C227.97 89.1755 229.572 94.4627 231.362 99.6697C231.973 101.449 232.531 103.301 233.464 104.908C236.788 110.633 240.097 116.382 243.733 121.903C246.629 126.3 249.992 130.377 253.143 134.597C254.045 135.803 254.904 137.045 255.844 138.216C256.536 139.079 257.234 139.991 258.096 140.647C259.608 141.792 260.932 141.69 262.151 140.594C263.571 139.315 263.919 137.562 262.802 136.007C261.486 134.176 259.857 132.584 258.562 130.739C252.831 122.576 246.453 114.822 242.864 105.266C242.332 103.844 241.645 102.456 241.328 100.985C238.866 89.4843 235.431 78.1976 235.358 66.2109C235.327 60.9431 233.997 55.6852 233.265 50.4223C232.95 48.181 232.6 45.9421 232.368 43.6887C232.316 43.1879 232.541 42.4173 232.894 42.1863C233.187 41.9967 234.075 42.2617 234.331 42.6093C240.097 50.5414 246.065 58.3445 249.112 67.9758C250.537 72.4899 252.535 76.8242 253.844 81.3724C255.428 86.8954 258.126 91.8253 260.603 96.9083C264.449 104.804 269.099 112.028 275.445 118.081C277.862 120.391 279.749 123.281 282.138 125.622C285.35 128.77 288.818 131.641 292.175 134.631C298.325 140.11 304.587 145.468 309.515 152.216C313.213 157.272 316.011 162.863 318.508 168.598C319.498 170.873 320.897 172.38 323.122 173.202C324.782 173.814 326.179 173.25 326.657 171.527C327.436 168.727 327.395 165.982 326.477 163.118C324.602 157.306 322.313 151.701 319.526 146.304C316.404 140.253 313.208 134.239 310.012 128.228C309.664 127.574 309.144 127.005 308.651 126.441C305.593 122.931 303.99 118.679 302.887 114.219C302.534 112.794 302.615 111.26 302.501 109.775C304.591 109.053 305.351 111.095 306.566 111.992C310.323 114.775 314.034 117.644 317.545 120.743C321.21 123.976 324.143 127.924 326.709 132.125C330.07 137.616 332.745 143.484 334.516 149.678C336.031 154.965 337.137 160.398 338.06 165.834C339.918 176.809 343.739 187.089 348.182 197.161C351.255 204.132 352.174 211.34 350.919 218.856C350.827 219.42 350.711 219.984 350.557 220.534C348.599 227.593 346.102 229.392 337.726 228.838C336.879 228.928 334.84 229.042 332.838 229.389C329.926 229.895 327.464 229.27 325.023 227.433C317.554 221.798 309.975 216.321 302.383 210.864C296.758 206.819 290.568 203.756 284.469 200.576C272.356 194.258 259.376 190.24 246.411 186.295C238.762 183.966 231.109 181.698 223.799 178.406C215.16 174.512 206.543 170.555 198.005 166.442C187.373 161.327 177.847 154.367 168.485 147.186C165.819 145.142 163.217 142.913 160.961 140.414C153.017 131.617 144.959 122.899 137.478 113.698C131.314 106.119 125.658 98.0969 121.009 89.3457C117.198 82.1672 113.325 75.0374 109.797 67.701C106.434 60.7073 102.729 53.8765 98.9506 47.104ZM169.117 91.2491C177.698 94.3995 185.856 98.5394 193.464 103.639C197.47 106.323 200.914 109.896 204.536 113.164C205.178 113.745 205.49 114.756 205.845 115.616C206.723 117.717 207.594 119.822 208.359 121.966C210.475 127.909 213.899 133.133 216.891 138.598C217.977 140.577 218.91 142.648 219.862 144.702C219.987 144.965 219.904 145.465 219.722 145.694C219.587 145.862 219.062 145.893 218.841 145.757C218.046 145.273 217.371 144.549 216.538 144.172C211.392 141.834 207.005 138.382 202.711 134.711C194.132 127.377 186.27 119.321 179.033 110.604C174.824 105.528 170.592 100.472 166.439 95.3475C165.289 93.9279 164.387 92.2992 162.765 89.8562C165.578 90.4566 167.426 90.6268 169.117 91.2491ZM462.621 222.987C461.622 217.78 461.26 212.446 460.661 207.543C461.885 203.06 461.551 199.217 459.17 195.714C458.971 195.42 458.876 194.987 458.879 194.623C458.893 189.975 457.162 185.672 456.431 181.187C455.929 178.115 454.958 175.317 453.806 172.504C452.011 168.119 450.406 163.641 448.498 159.309C445.22 151.859 442.161 144.262 438.26 137.159C435.002 131.225 430.727 125.87 426.793 120.337C424.946 117.734 423.088 115.065 420.818 112.882C417.986 110.159 414.833 107.748 411.621 105.494C406.121 101.631 400.322 98.2331 394.65 94.6353C386.241 89.2971 377.428 84.9117 368.309 81.1365C361.067 78.1344 353.57 75.791 345.713 75.4385C332.731 74.8527 319.801 75.3753 306.928 77.5802C297.887 79.1262 289.308 82.0919 280.796 85.3298C276.281 87.046 271.954 89.2801 267.541 91.2734C265.081 92.3843 264.7 92.3892 263.775 90.0726C260.96 83.0327 258.027 76.0196 255.631 68.8266C252.776 60.248 249.204 52.1871 243.054 45.5313C242.675 45.1205 242.332 44.6537 242.062 44.1579C237.583 35.8564 230.23 30.6396 222.932 25.3695C222.182 24.8274 221.365 24.2294 220.501 24.0471C219.656 23.8647 218.344 23.8477 217.906 24.363C217.277 25.1045 216.794 26.5411 217.066 27.4089C217.494 28.7702 218.479 30.0245 219.457 31.1111C223.086 35.1683 225.38 39.7263 225.775 45.3562C226.071 49.5057 227.096 53.597 227.534 57.7417C228.211 64.1738 228.677 70.6303 229.196 77.0819C229.217 77.3541 228.9 77.7916 228.635 77.9156C228.391 78.0347 227.894 77.957 227.693 77.765C227.158 77.2496 226.713 76.637 226.253 76.0439C221.045 69.3565 215.842 62.6617 210.634 55.9768C208.653 53.4341 206.513 51.0858 203.693 49.4572C202.576 48.8105 201.537 47.9646 200.585 47.0676C196.731 43.4382 192.349 40.5771 187.806 38.0052C181.301 34.3176 174.488 31.296 167.448 28.8383C163.549 27.4819 159.899 25.7025 156.805 22.8145C155.578 21.672 154.082 20.8407 152.747 19.8197C150.519 18.1205 148.308 16.4018 146.119 14.6516C141.694 11.1146 137.959 6.86307 134.554 2.33188C133.387 0.776123 131.977 0.287506 130.303 0.0322571C128.92 -0.17923 128.293 0.673981 127.929 1.86267C127.254 4.06262 128.25 5.98059 128.951 7.92532C129.654 9.87247 130.651 11.7175 131.2 13.7036C132.528 18.4973 134.266 23.1112 136.839 27.3288C139.097 31.0335 141.401 34.7478 144.059 38.1487C147.648 42.743 151.293 47.369 155.45 51.3922C162.192 57.9142 169.391 63.938 176.356 70.2195C178.307 71.977 180.243 73.7831 181.957 75.7765C185.498 79.8968 189.085 84.0026 192.269 88.4074C194.563 91.5846 196.243 95.2284 198.154 98.69C198.282 98.9161 198.125 99.4776 197.917 99.677C197.73 99.8544 197.2 99.8836 196.968 99.7377C195.708 98.9404 194.487 98.0848 193.268 97.2219C189.608 94.6378 185.936 92.1169 181.777 90.3764C173.714 87.0023 165.329 84.4791 157.574 80.2664C155.701 79.2478 154.139 78.2049 152.863 76.5373C149.09 71.5953 145.323 66.6411 141.462 61.7696C139.59 59.4117 137.691 57.0148 135.487 55.0044C127.862 48.0521 120.178 41.1459 110.413 37.3781C109.897 37.1763 109.409 36.8797 108.933 36.5807C104.116 33.5445 98.7233 32.1079 93.2999 30.8438C89.8105 30.0319 86.5792 28.7751 83.6083 26.7234C81.7642 25.4496 79.868 24.2464 77.9031 23.1963C77.4178 22.9337 76.3905 23.1744 75.9336 23.5706C75.453 23.9936 74.9654 25.0582 75.169 25.5298C75.8342 27.071 76.6343 28.6244 77.7019 29.8933C81.0871 33.9335 84.5363 37.9299 88.1274 41.778C90.3361 44.1457 92.1257 46.7127 93.5934 49.6249C97.6723 57.7392 101.917 65.766 106.052 73.8487C106.561 74.843 107.444 76.4279 107.085 76.936C106.185 78.2025 104.769 77.0405 103.536 76.8825C99.9543 76.4254 96.9124 74.5756 93.6763 73.1876C91.309 72.1763 88.8566 71.187 86.3496 70.7615C77.7635 69.3006 69.1418 68.1094 60.6338 66.1331C52.8313 64.3197 45.4643 61.1521 37.8157 58.889C36.7788 58.5803 35.865 57.8243 34.8897 57.2919C33.9215 56.7668 32.9983 56.0473 31.9638 55.7823C26.2894 54.3238 21.24 51.3897 16.5102 48.1104C13.0705 45.7233 9.55743 42.9886 8.07552 38.5084C7.68965 37.3464 6.65278 36.3182 5.7035 35.4771C4.44884 34.3662 2.91488 34.6579 1.77148 35.9511C0.223282 37.7038 -0.143669 40.7667 1.21515 42.8451C2.86751 45.3611 4.81106 47.6754 6.5013 50.1646C8.83307 53.5897 11.3235 56.9419 13.2552 60.598C19.242 71.9162 27.6222 80.8716 38.0476 87.8701C46.165 93.3227 55.182 96.845 64.2297 100.222C70.3894 102.516 75.9904 105.929 81.2978 109.666C85.8501 112.872 89.6827 117.153 93.7971 120.996C94.4741 121.626 94.9854 122.44 95.5536 123.184C95.6601 123.325 95.6648 123.544 95.7121 123.731C95.3831 123.816 95.0209 124.047 94.7369 123.967C90.819 122.875 86.913 121.737 83.0022 120.619C81.3996 120.162 79.8159 119.464 78.1896 119.326C70.8084 118.696 63.4154 117.95 56.0176 117.797C50.5966 117.685 45.346 116.939 40.1048 115.66C32.6976 113.852 25.5437 111.238 18.3353 108.759C14.0363 107.281 10.9778 104.454 8.39512 100.88C7.62812 99.8204 7.0955 98.5709 6.51315 97.3822C5.77456 95.8653 4.44648 95.8337 3.16578 96.106C0.618592 96.6481 -0.84673 100.132 0.526291 102.378C2.30175 105.273 4.57908 107.908 5.97577 110.973C9.851 119.465 15.9585 126.047 22.5041 132.273C25.217 134.85 28.195 137.142 31.1494 139.432C33.5166 141.262 36.0212 142.91 38.4785 144.615C40.0172 145.682 41.5086 146.846 43.1397 147.726C50.0284 151.433 56.922 155.138 63.9031 158.66C66.8693 160.155 69.9633 161.781 73.1662 162.331C79.359 163.398 85.6583 163.838 91.9292 164.373C106.32 165.603 120.73 166.643 134.985 169.111C138.06 169.643 141.02 170.878 144.012 171.845C144.289 171.935 144.649 172.48 144.599 172.74C144.518 173.177 144.225 173.788 143.874 173.919C142.84 174.31 141.741 174.536 140.657 174.763C137.386 175.448 134.107 176.109 130.831 176.773C126.87 177.573 124.411 180.441 122.211 183.555C121.302 184.851 121.298 186.397 122.325 187.826C123.251 189.112 124.148 189.992 125.983 189.698C130.978 188.886 135.994 189.2 140.889 190.415C149.769 192.62 158.196 196.047 166.079 200.839C167.512 201.709 168.994 202.552 170.551 203.124C172.708 203.914 174.54 205.049 176.048 206.838C176.756 207.682 177.684 208.374 178.607 208.982C183.907 212.468 189.201 215.973 194.584 219.33C196.118 220.291 196.653 221.231 196.035 223.016C194.257 228.15 194.205 233.52 194.451 238.848C194.681 243.78 195.216 248.756 198.078 252.989C202.062 258.886 207.429 262.766 214.426 263.808C218.034 264.348 221.595 265.897 225.378 264.572C227.108 263.964 228.95 263.711 230.744 263.296C232.096 265.18 231.424 267.294 231.414 269.336C231.414 269.708 231.492 270.1 231.627 270.445C233.93 276.43 233.27 282.329 231.208 288.212C230.836 289.275 230.543 290.417 230.488 291.538C230.349 294.375 230.287 297.219 230.344 300.058C230.391 302.331 230.207 304.767 230.929 306.833C232.056 310.056 232.06 313.056 231.156 316.265C230.642 318.078 230.576 320.023 230.252 321.897C229.288 327.517 228.758 333.269 227.205 338.714C225.079 346.16 224.452 353.645 224.689 361.304C224.76 363.536 225.347 365.386 227.16 366.769C228.05 367.445 228.793 368.32 229.594 369.115C231.708 371.213 234.179 372.256 237.167 372C239.752 371.782 242.344 371.648 244.938 371.529C249.192 371.332 253.484 370.734 257.691 371.115C263.77 371.67 269.863 371.536 275.954 372.078C284.451 372.837 292.869 373.391 301.088 375.999C305.683 377.455 310.443 378.406 315.171 379.356C322.081 380.747 328.844 379.835 335.304 377.1C337.309 376.25 338.886 374.38 340.846 373.366C345.318 371.047 348.419 367.404 350.824 363.062C352.829 359.433 354.602 355.672 356.579 352.026C357.476 350.378 358.376 348.598 359.699 347.363C361.709 345.477 362.897 343.308 363.503 340.644C364.398 336.711 366.013 333.074 368.33 329.815C371.282 325.665 374.227 321.503 377.376 317.512C380.16 313.985 381.949 309.594 385.869 307.044C387.725 305.836 389.787 304.874 391.397 303.388C394.733 300.318 398.733 299.091 402.954 298.364C406.612 297.734 410.309 297.338 413.967 296.737C419.345 295.858 424.219 293.397 428.862 290.745C432.178 288.852 435.727 286.985 438.037 283.491C440.738 279.412 443.719 275.533 446.562 271.556C448.314 269.101 450.347 266.786 451.708 264.117C455.662 256.392 459.558 248.63 461.111 239.881C462.103 234.285 463.746 228.855 462.621 222.987Z" fill="#C0FFD5"/>
</svg>
