<svg width="499" height="137" viewBox="0 0 499 137" fill="none" xmlns="http://www.w3.org/2000/svg">
<path d="M69.9121 137C69.7717 137 69.6316 136.967 69.4924 136.893C67.3794 135.758 64.8597 136.567 62.8214 135.734C62.4868 135.597 62.219 135.541 61.9788 135.541C61.5913 135.541 61.2717 135.685 60.8464 135.853C60.4038 136.027 59.9256 136.139 59.4532 136.139C58.9818 136.139 58.515 136.03 58.0921 135.762C57.593 135.448 57.1195 135.239 56.6183 135.239C56.2666 135.239 55.9 135.343 55.4997 135.588C54.8479 135.986 54.2272 136.181 53.6248 136.181C52.8487 136.181 52.1039 135.858 51.3614 135.246C50.99 134.939 50.7634 134.778 50.5427 134.778C50.2475 134.778 49.9656 135.069 49.3634 135.676C49.1748 135.867 48.7472 136 48.4252 136C48.4126 136 48.4023 136 48.3908 136C48.0644 135.99 47.6401 135.82 47.4585 135.611C47.2607 135.385 47.2493 135.034 47.2342 134.736C47.2034 134.103 47.0859 133.361 46.1872 133.361C46.1745 133.361 46.163 133.361 46.1504 133.361C46.1053 133.363 46.0618 133.363 46.0191 133.363C44.4764 133.363 43.7799 132.751 43.2245 131.681C42.8808 131.018 42.5085 130.767 43.7498 130.499C45.3961 130.141 46.2493 129.17 45.9744 127.746L45.4823 127.786C44.3902 128.207 43.8222 129.475 42.5833 129.475C42.4738 129.475 42.3578 129.466 42.2372 129.445C41.221 129.264 40.4255 128.375 39.4723 127.87C39.3631 127.814 39.2125 127.793 39.0482 127.793C38.8263 127.793 38.5791 127.83 38.379 127.872C37.8608 127.981 37.8572 128.233 38.2757 128.547C38.6974 128.866 39.1262 129.187 39.4711 129.554C39.6412 129.738 39.6297 130.027 39.7013 130.266C39.6771 130.266 39.653 130.264 39.6298 130.264C39.0621 130.264 38.5526 130.543 38.0423 130.822C37.5309 131.099 37.0167 131.379 36.4408 131.379C36.0259 131.379 35.58 131.237 35.0788 130.846C34.736 130.578 34.0164 130.613 33.4694 130.513C33.105 130.446 32.7313 130.404 32.3737 130.318C32.022 130.231 31.7472 129.343 31.9979 129.115C32.6268 128.54 33.191 127.954 34.196 127.679C34.8799 127.493 35.5306 127.074 36.0076 126.632C36.3284 126.334 36.419 125.811 36.4076 125.394C36.4031 125.238 35.8237 124.973 35.4961 124.961C33.5509 124.898 31.6024 124.896 29.655 124.871C28.6836 124.859 27.7121 124.854 26.7419 124.815L26.2751 124.584C26.374 124.331 26.4891 124.056 26.7062 123.863C27.1824 123.44 27.7374 123.098 28.4802 123.098C28.5559 123.098 28.633 123.1 28.7136 123.107C28.9273 123.128 29.1341 123.137 29.3354 123.137C30.947 123.137 32.1898 122.511 33.2475 121.506C33.4361 121.325 33.8072 121.264 34.1303 121.171C34.0085 120.913 33.9511 120.582 33.7166 120.452C31.8334 119.4 29.3975 119.44 27.4376 118.493C27.3248 118.439 27.2074 118.414 27.0915 118.414C26.6018 118.414 26.1212 118.863 25.982 119.5C25.9178 119.803 26.0235 120.143 25.8969 120.419L25.2292 120.903L24.8613 120.55C24.7039 119.968 24.8554 119.119 24.4164 118.842C23.2463 118.104 21.4458 118.435 20.2401 117.548C20.21 117.525 20.1641 117.518 20.1068 117.518C19.8766 117.518 19.464 117.665 19.1871 117.748C18.8489 117.848 18.6271 118.121 18.2512 118.121C18.1053 118.121 17.9352 118.079 17.7271 117.972C16.4831 117.325 14.7012 117.143 15.3245 115.377C15.73 114.228 14.6541 113.791 13.4943 113.451C13.1194 113.342 13.2183 112.958 13.7471 112.869C15.3254 112.609 15.7256 111.957 14.7577 110.959C14.0323 110.21 15.0967 109.94 15.1968 109.437C15.406 108.381 15.7301 107.283 13.6217 107.043C12.9184 106.964 12.9057 106.077 13.4505 105.512C13.791 105.161 14.0461 104.977 14.3104 104.977C14.615 104.977 14.9325 105.216 15.4107 105.721C15.6061 105.928 15.7889 106.049 15.9428 106.049C16.0555 106.049 16.1544 105.987 16.2315 105.842C17.0903 104.251 18.2845 103.039 20.4929 102.387C21.5561 102.073 21.6229 100.654 23.1427 100.291C23.9084 100.109 23.361 99.2924 23.0002 98.727C22.2162 97.4938 22.2875 97.4612 23.4658 96.9633C24.2692 96.6259 25.0865 96.3095 25.9005 95.9838C25.9084 95.6906 25.9602 95.3905 25.9016 95.1043C25.796 94.5947 25.1303 94.1294 24.6359 94.1294C24.5255 94.1294 24.4243 94.1549 24.3393 94.2038C23.5623 94.6668 22.8151 95.1625 22.0897 95.6767C21.7242 95.9349 21.3275 95.9955 20.9205 95.9955C20.7492 95.9955 20.5756 95.9838 20.4031 95.9744C20.2318 95.9628 20.0594 95.9535 19.8905 95.9535C19.879 95.9535 19.8687 95.9535 19.8584 95.9535L19.3825 95.7255C19.072 95.5254 19.1744 95.3207 19.6618 95.1183C20.155 94.9135 21.0814 94.6785 21.0676 94.4947C20.9181 92.5774 22.1391 92.1841 23.768 92.1841C24.1129 92.1841 24.4761 92.2028 24.8487 92.2261C25.1889 92.2493 25.5326 92.2587 25.8763 92.2587C26.3142 92.2587 26.7545 92.2424 27.1892 92.2145C27.8201 92.1726 28.1709 91.8538 28.3007 91.3349C28.3675 91.0673 28.6606 90.8347 28.8513 90.5904C30.3334 91.9236 32.5818 90.9998 34.3475 91.7863C34.7854 91.9817 35.1971 92.0748 35.5753 92.0748C36.5709 92.0725 37.3355 91.4419 37.7148 90.4042C37.8204 90.118 37.7148 89.7877 37.7607 89.4805C37.8873 88.6243 38.6745 87.9355 39.5114 87.789C41.6047 87.4236 43.558 86.8978 45.3075 85.9182C45.7248 86.1928 46.04 86.3021 46.2869 86.3021C47.148 86.3021 47.1907 84.9968 47.8723 84.9363C49.9105 84.7501 51.736 83.7893 53.8167 83.7893C54.0615 83.7893 54.3111 83.8032 54.5639 83.8334L55.1884 83.3006L54.7307 83.0214C54.3582 82.9655 53.9697 82.9656 53.588 82.9563C52.4167 82.926 51.2384 82.9446 50.0727 82.8539C49.5474 82.812 48.854 82.6607 48.5886 82.3652C48.3114 82.0535 48.3723 81.5532 48.324 81.1135C45.3423 81.174 42.8614 82.6212 39.9552 83.0144C38.4367 83.2215 37.2319 84.3965 36.5709 85.6785C36.341 85.7088 36.1097 85.7251 35.8846 85.7251C34.6121 85.7251 33.4785 85.2388 33.3543 84.3499C33.1233 82.6793 31.3864 81.3741 31.8219 79.5964C32.0921 78.4935 31.6851 77.5395 30.5573 76.7275C29.2928 75.8154 27.8169 74.9173 28.2374 73.2653C27.258 72.3276 26.4408 71.1874 24.889 70.8245C23.8554 70.5848 23.2978 69.9938 22.5841 69.5052C21.854 69.0073 20.9631 68.4489 21.4022 67.6043C21.723 66.9853 22.7048 67.083 23.4646 67.0435L24.0291 66.9993C24.2795 66.7945 24.5682 66.5479 24.6244 66.2873C24.6786 66.0337 24.5785 65.6079 24.3519 65.4915C23.5623 65.0774 22.6483 64.8144 21.8619 64.3979C21.3769 64.142 20.0814 64.6283 20.464 63.544C20.6009 63.1554 20.8896 62.7971 21.125 62.4295C20.371 62.4062 19.6159 62.3807 18.8616 62.3551C17.8328 61.1405 16.974 59.7863 15.6703 58.7974C15.0152 58.3018 13.7609 58.1785 14.3875 57.2617C14.6794 56.8313 15.2498 56.6568 15.8095 56.6568C16.2557 56.6568 16.6947 56.7684 16.982 56.9476C17.489 57.2594 17.9099 57.3967 18.2718 57.3967C18.8501 57.3967 19.2813 57.0477 19.6789 56.5055C20.2457 55.7331 20.7112 54.9071 21.1135 54.0717C21.2136 53.8623 20.9055 53.5296 20.786 53.2527L20.3192 53.4063C19.5756 53.8344 18.8422 54.2719 18.1065 54.7047C17.6868 54.3929 17.3672 54.2556 17.1223 54.2556C16.713 54.2556 16.512 54.6442 16.4049 55.2771C16.3601 55.5423 16.2074 55.6586 16.0049 55.6586C15.8831 55.6586 15.7439 55.6167 15.5979 55.5399C15.1635 55.3096 14.683 55.1328 14.2186 54.9396C14.9702 53.8228 15.1521 52.422 17.1132 51.945C17.911 51.7519 17.7524 50.9073 17.665 50.293C17.5535 49.5042 16.8269 49.3717 16.0084 49.3391C15.8898 49.3345 15.7715 49.3345 15.6521 49.3345C15.5199 49.3345 15.3875 49.3344 15.2554 49.3368C15.1232 49.3391 14.9899 49.3414 14.8578 49.3414C14.0853 49.3414 13.3333 49.2716 12.7194 48.7225C12.6138 48.6294 12.5067 48.5876 12.3951 48.5876C12.2112 48.5876 12.0126 48.6992 11.7768 48.8621C11.3548 49.1553 10.9755 49.2717 10.6273 49.2717C9.94781 49.2717 9.381 48.8249 8.83156 48.3503C8.22002 47.8221 8.7109 47.6499 9.2674 47.4847C9.61202 47.3776 10.2271 47.2566 10.233 47.1263C10.2595 46.6237 9.7939 46.526 9.25799 46.526C9.22238 46.526 9.1856 46.526 9.14881 46.526C9.09025 46.5283 9.02933 46.5284 8.96958 46.5284C8.72591 46.5284 8.48106 46.5191 8.23621 46.5098C7.99342 46.5005 7.74975 46.4911 7.50725 46.4911C7.46693 46.4911 7.42691 46.4935 7.38659 46.4935C7.36923 46.4935 7.35216 46.4935 7.3348 46.4935C6.72914 46.4935 6.15292 46.3352 6.02667 45.8815C5.83567 45.1951 6.26563 44.7508 7.2315 44.6414C7.52579 44.6088 7.77388 44.3202 8.04404 44.1504C7.72002 44.0061 7.4119 43.8107 7.06464 43.7385C6.86687 43.6967 6.65645 43.6897 6.44515 43.6897C6.40365 43.6897 6.36128 43.6897 6.31978 43.6897C6.27829 43.692 6.23591 43.6921 6.19442 43.6921C6.09318 43.6921 5.99341 43.6897 5.89453 43.685L5.34715 43.5873C4.71619 43.3244 4.57817 42.7171 4.8551 42.4193C5.47929 41.7515 5.90365 41.1978 4.98635 40.5161L5.73238 40.0739C7.06817 40.2577 8.12232 41.0372 9.6132 41.0372C9.76859 41.0372 9.92839 41.0279 10.0938 41.0093C10.7342 40.9395 11.4331 40.8301 12.1241 40.8301C12.9769 40.8301 13.8172 40.9953 14.5196 41.6003C15.7542 41.3187 16.9914 41.0419 18.218 40.7464L18.6282 40.4486L18.2053 40.1298C17.4811 39.8878 16.5602 39.3665 15.9705 39.3665C15.8772 39.3665 15.7921 39.3805 15.7174 39.4085C15.0323 39.676 14.4425 39.9133 13.9737 39.9133C13.431 39.9133 13.047 39.5969 12.8586 38.6523L12.5079 38.3102C11.8457 38.6732 11.1894 38.9455 10.5317 38.9455C9.99725 38.9455 9.4637 38.7662 8.92692 38.3148C8.05346 38.8826 7.1956 39.0804 6.34392 39.0804C4.87599 39.0804 3.42396 38.4941 1.93984 38.2055C0.906292 38.0078 0.0810967 37.9217 0.00634664 36.9165C-0.0775265 35.7997 0.672917 34.8038 2.07904 34.4665C2.34096 34.406 2.64585 34.3687 2.94338 34.3687C3.25503 34.3687 3.55962 34.4083 3.8033 34.5014C4.23208 34.6642 4.45162 35.1691 4.75857 35.5274C5.14262 35.9741 5.58877 36.2045 6.01048 36.2045C6.35657 36.2045 6.68647 36.0509 6.95075 35.7298C7.24416 35.3762 7.39925 34.9504 7.61643 34.5549C8.16823 34.9783 8.72591 35.3971 9.25475 35.8346L8.91661 36.1905C8.80066 36.4255 8.74063 36.6815 8.65793 36.9281C8.97989 36.9932 9.31567 37.1283 9.62261 37.1283C9.66264 37.1283 9.70178 37.1259 9.73975 37.1212C10.0882 37.077 10.4328 36.8654 10.71 36.6676C12.1147 35.6624 12.047 35.2109 10.3995 34.3733C9.2833 33.8032 9.17059 33.3892 9.9846 32.5957C10.3536 32.2374 10.7789 31.9093 11.2147 31.5975C11.6008 31.3207 11.4193 31.1113 11.3825 30.846C11.1067 28.8427 11.1456 28.9008 13.0229 28.7984C13.2159 28.7891 13.4104 28.7844 13.6059 28.7844C14.0232 28.7844 14.4449 28.8031 14.8657 28.8241C15.2877 28.8427 15.7083 28.8612 16.1268 28.8612C17.2121 28.8612 18.2766 28.7309 19.256 28.1306C19.6894 28.3982 20.1194 28.5029 20.5332 28.5029C21.3607 28.5029 22.1277 28.0911 22.7357 27.7724C23.2704 27.4931 23.7221 27.3814 24.1541 27.3814C24.6727 27.3814 25.1636 27.542 25.736 27.7724C25.8463 27.8166 25.9626 27.8375 26.0765 27.8375C26.4926 27.8375 26.9005 27.5676 27.0226 27.1674C27.165 26.6974 26.9443 26.2809 26.3684 26.0389C25.8728 25.8318 24.9119 25.6108 24.9302 25.4456C25.143 23.419 23.7254 23.1444 22.0276 23.1444C21.7792 23.1444 21.5264 23.1513 21.2701 23.156C20.8849 21.6668 22.6518 20.7897 22.9967 19.5006C23.346 18.1907 24.4946 17.488 26.0523 17.0575C26.9467 16.8109 27.7813 16.4038 28.6009 16.0129C28.8722 15.8826 29.1171 15.8313 29.3516 15.8313C29.8137 15.8313 30.231 16.0291 30.7139 16.2059C31.5253 16.5037 32.0173 16.6783 32.4164 16.6783C32.9935 16.6783 33.3749 16.313 34.2486 15.4241C34.482 15.1891 34.6845 15.1031 34.8708 15.1031C35.1247 15.1031 35.3499 15.259 35.5856 15.3986C35.9661 15.6219 36.326 15.722 36.6559 15.722C37.2272 15.722 37.7101 15.4265 38.0585 14.9914C38.8667 13.9816 39.4438 12.8554 40.1495 11.7921C40.7036 10.9544 41.422 10.2821 42.7095 10.0889C43.4441 9.97958 43.4258 9.57238 43.0188 9.14891C42.4717 8.57652 42.9555 8.39499 43.4326 8.39499C43.4923 8.39499 43.5512 8.39734 43.6086 8.40431C44.1454 8.45085 44.6327 8.78122 45.1698 8.92316C45.8352 9.09766 46.4194 9.19537 46.932 9.19537C47.9067 9.19537 48.6242 8.83939 49.153 7.97383C49.7725 6.95937 50.3829 6.37997 51.6648 6.37997C51.8049 6.37997 51.9544 6.3847 52.113 6.40099C52.5085 6.43588 52.9108 6.4545 53.3122 6.4545C53.696 6.4545 54.0812 6.43822 54.4606 6.40564C54.5962 6.39401 54.726 6.38701 54.849 6.38701C56.0091 6.38701 56.6183 6.89186 56.9103 7.83885C56.9668 8.02731 57.093 8.11812 57.2322 8.11812C57.3908 8.11812 57.5656 7.9995 57.6736 7.76216C57.9288 7.20142 58.0012 6.63365 58.9774 6.44984C59.1222 6.42192 59.2622 6.41031 59.3991 6.41031C59.8888 6.41031 60.329 6.56383 60.7499 6.71739C61.1707 6.87096 61.573 7.02449 61.9868 7.02449C62.0398 7.02449 62.0936 7.02222 62.1478 7.01756C62.7443 6.95474 63.3411 6.47778 63.9388 6.47778C64.1884 6.47778 64.4388 6.55913 64.6896 6.79181C64.9126 6.99889 65.1216 7.07108 65.3205 7.07108C65.5666 7.07108 65.7976 6.9594 66.023 6.84772C66.2473 6.7337 66.4656 6.62196 66.6852 6.62196C66.8173 6.62196 66.9506 6.66393 67.0863 6.76863C67.8647 7.38057 68.8211 7.34099 69.8052 7.37589C69.8579 7.3782 69.9085 7.37817 69.9603 7.37817C70.9385 7.37817 71.7019 7.05241 72.4721 6.61731C72.7537 6.45909 73.1952 6.46379 73.5677 6.42191C73.8241 6.39398 74.086 6.38235 74.3506 6.38235C74.6104 6.38235 74.8712 6.39401 75.1334 6.40099C75.3956 6.41029 75.6575 6.41962 75.9174 6.41962C76.8623 6.41962 77.7752 6.29863 78.5372 5.60526C80.287 5.54475 82.0366 5.50517 83.7829 5.41211C84.1255 5.39349 84.4483 5.15613 84.7817 5.02118C84.4795 4.86528 84.2023 4.64885 83.8735 4.57207C83.6496 4.51855 83.4091 4.50935 83.1667 4.50935C83.1093 4.50935 83.0504 4.50931 82.993 4.51163C82.9356 4.51163 82.878 4.51163 82.8206 4.51163C82.7826 4.51163 82.7446 4.51163 82.7067 4.51163C82.031 4.50232 81.6722 4.22772 81.5516 3.7135C81.4203 3.1481 81.8538 2.76189 82.4033 2.76189C82.4112 2.76189 82.4194 2.76189 82.4274 2.76189C82.4883 2.76189 82.5469 2.76189 82.6069 2.76189C84.046 2.76189 85.0475 2.43149 85.3082 1.13315C85.3612 0.872543 85.7338 0.588684 86.0522 0.439774C86.5004 0.232697 87.0339 0 87.5213 0C87.5407 0 87.5613 0 87.581 0C88.1626 0.0232697 88.5075 0.407211 88.5157 0.958649C88.5248 1.65436 88.2856 2.52455 89.6572 2.61761C89.7526 2.15692 90.1007 1.77074 90.6308 1.77074C90.639 1.77074 90.6481 1.77074 90.6561 1.77074C90.7344 1.77306 90.8112 1.77301 90.8895 1.77301C91.1125 1.77301 91.3368 1.7684 91.5607 1.76143C91.785 1.75677 92.0081 1.74973 92.2311 1.74973C93.0543 1.74973 93.8668 1.83119 94.6119 2.29189C94.8335 2.42917 95.0004 2.48503 95.127 2.48503C95.519 2.48503 95.5281 1.95688 95.6167 1.71722C95.8983 0.940079 96.5419 0.798126 97.2535 0.798126C97.4869 0.798126 97.727 0.814438 97.9663 0.826065C98.9848 0.884232 99.0905 1.52409 99.1205 2.15465C99.1423 2.61768 99.1343 3.08528 99.1043 3.54831C99.0675 4.1207 99.5481 4.42326 100.105 4.50005C101.056 4.62802 102.022 4.55586 102.868 5.10265C103.036 5.21201 103.183 5.25385 103.319 5.25385C103.58 5.25385 103.795 5.09334 104.013 4.93279C104.231 4.77223 104.453 4.61172 104.728 4.61172C104.754 4.61172 104.78 4.61172 104.807 4.61638C105.175 4.65593 105.535 4.7466 105.893 4.83269C106.545 4.99556 106.895 5.084 107.128 5.084C107.389 5.084 107.507 4.97472 107.741 4.74203C108.651 3.84158 108.975 2.56184 110.781 2.2361C111.327 2.13605 111.67 1.30995 112.086 0.805038L112.258 0.381607L112.673 0.0534973C112.875 0.293152 113.216 0.518936 113.251 0.772552C113.312 1.22162 113.269 1.70091 113.129 2.14067C112.681 3.54604 112.829 4.00905 114.161 4.45811C114.218 4.4744 114.28 4.48367 114.347 4.48367C114.614 4.48367 114.951 4.35571 115.242 4.30917C115.179 4.06718 115.206 3.76935 115.033 3.59717C114.705 3.26909 114.598 2.94102 114.937 2.90845C116.277 2.78746 117.628 2.72699 118.976 2.68976C119.954 2.66183 120.237 2.20352 120.443 1.54272C120.527 1.27283 120.755 1.05635 120.992 1.05635C121.158 1.05635 121.328 1.16109 121.455 1.42401C121.738 2.00105 121.731 2.61069 122.796 2.67816C123.281 2.7084 124.053 2.84105 123.401 3.50185C122.809 4.09982 122.203 4.69077 121.638 5.3027L121.626 5.75874C121.724 6.03329 121.898 6.18228 122.098 6.18228C122.191 6.18228 122.29 6.14973 122.389 6.07993C123.272 5.46799 124.111 4.81416 125.001 4.20454C125.238 4.04399 125.595 3.99272 125.9 3.89267C126.028 4.17188 126.208 4.44414 126.276 4.73499C126.346 5.03514 126.224 5.37717 126.346 5.65637L127.025 6.1357L127.386 5.8076C127.394 4.78848 128.535 4.80711 129.254 4.37666C129.66 4.13235 129.989 4.04628 130.302 4.04628C130.741 4.04628 131.149 4.21848 131.693 4.36041C132.425 4.55353 133.227 4.6024 134.041 4.6024C134.615 4.6024 135.193 4.57915 135.755 4.56287C135.799 4.56287 135.842 4.56047 135.886 4.56047C136.122 4.56047 136.369 4.57681 136.619 4.59309C136.868 4.60706 137.121 4.62331 137.366 4.62331C138.014 4.62331 138.613 4.51625 138.981 4.00902C139.415 3.41104 139.146 2.50832 139.277 1.75212C139.325 1.48222 139.621 1.23782 139.803 0.984207C140.021 1.20293 140.382 1.40544 140.427 1.6451C140.525 2.15932 140.825 2.54549 141.425 2.62227C141.742 2.66415 142.065 2.67111 142.39 2.67111C142.485 2.67111 142.58 2.67111 142.674 2.67111C142.767 2.66879 142.86 2.66884 142.951 2.66884C143.229 2.66884 143.504 2.67348 143.776 2.69907C144.11 2.73164 144.434 2.75031 144.75 2.75031C146.405 2.75031 147.808 2.28722 148.999 1.17735C149.262 0.933044 149.501 0.812088 149.741 0.812088C150.137 0.812088 150.538 1.14482 151.049 1.80096C151.496 2.37567 151.865 2.6525 152.294 2.6525C152.581 2.6525 152.895 2.52927 153.276 2.28961C153.733 2.0011 154.078 1.60091 154.534 1.31006C155.101 0.951736 155.698 0.784149 156.319 0.784149C156.797 0.784149 157.291 0.884186 157.797 1.06567C158.114 1.17969 158.34 1.56363 158.713 1.56363C158.857 1.56363 159.023 1.50549 159.225 1.35425C159.64 1.04478 160.07 0.88652 160.507 0.88652C160.934 0.88652 161.369 1.03773 161.806 1.34254C162.079 1.53566 162.476 1.61485 162.802 1.7661C163.153 1.92432 164.151 1.73351 163.501 2.4548C163.332 2.64095 162.789 2.60368 162.44 2.71304L162.04 3.03877L162.22 3.33893L162.7 3.55536C162.838 3.54839 162.976 3.54366 163.112 3.54366C164.717 3.54366 166.142 4.02533 167.657 4.45811C168.145 4.59772 168.672 4.63728 169.22 4.63728C169.614 4.63728 170.016 4.61629 170.421 4.59535C170.824 4.57442 171.23 4.55354 171.63 4.55354C171.866 4.55354 172.099 4.56046 172.329 4.58139C173.023 4.63724 173.635 5.17941 174.338 5.38882C174.397 5.40744 174.465 5.41438 174.538 5.41438C174.823 5.41438 175.19 5.29808 175.384 5.15614C175.622 4.98163 175.765 4.61636 175.733 4.3511C175.698 4.07887 175.364 3.8369 175.233 3.56001C175.042 3.15283 174.645 2.63396 174.817 2.32915C175.065 1.88705 175.607 1.72882 176.156 1.72882C176.394 1.72882 176.633 1.75903 176.85 1.80789C177.939 2.05685 179.016 2.42914 179.974 2.90379C180.348 3.08994 180.463 3.68796 180.562 4.11841C180.66 4.54189 180.621 4.98633 180.625 5.42143C180.715 5.41911 180.803 5.41905 180.892 5.41905C180.953 5.41905 181.013 5.41905 181.074 5.41905C181.135 5.42137 181.195 5.42143 181.255 5.42143C181.754 5.42143 182.249 5.3958 182.765 5.15149C184.401 4.37434 186.119 3.6926 187.854 3.05739C188.605 2.78284 189.414 2.59431 190.193 2.59431C190.927 2.59431 191.634 2.7619 192.24 3.17839C193.343 3.94157 195.227 3.00623 195.787 4.30223C196.114 5.05145 196.495 5.42143 197.053 5.42143C197.393 5.42143 197.798 5.28415 198.294 5.01425C198.745 4.76761 199.332 4.59772 199.877 4.55583C200.118 4.53722 200.362 4.53026 200.607 4.53026C200.836 4.53026 201.067 4.5372 201.296 4.54185C201.527 4.54651 201.758 4.55116 201.987 4.55116C203.024 4.55116 204.031 4.4442 204.888 3.74384C204.909 3.74384 204.929 3.74384 204.95 3.74384C205.371 3.74384 205.794 3.72513 206.215 3.70885C206.636 3.69023 207.057 3.67169 207.475 3.67169C208.517 3.67169 209.55 3.78107 210.583 4.26271C211.098 4.50237 211.801 4.6024 212.507 4.6024C213.022 4.6024 213.54 4.54887 213.993 4.46278C216.624 3.9509 217.872 3.69499 219.108 3.69499C220.232 3.69499 221.348 3.90439 223.478 4.32088C223.946 4.10915 224.408 4.03003 224.865 4.03003C225.485 4.03003 226.1 4.17429 226.719 4.31622C227.334 4.46048 227.952 4.6024 228.581 4.6024C228.849 4.6024 229.117 4.57672 229.391 4.5139C229.535 4.48132 229.697 4.4697 229.865 4.4697C230.065 4.4697 230.274 4.48602 230.477 4.5023C230.683 4.52092 230.886 4.53719 231.071 4.53719C231.312 4.53719 231.524 4.50926 231.686 4.4162C232.878 3.72282 234.132 3.55536 235.406 3.55536C236 3.55536 236.598 3.59261 237.195 3.6275C237.796 3.66473 238.393 3.70192 238.985 3.70192C239.023 3.70192 239.058 3.70192 239.096 3.70192H239.108C239.814 3.70192 240.503 4.19984 241.236 4.28827C241.262 4.29292 241.289 4.2952 241.312 4.2952C241.527 4.2952 241.733 4.19051 241.948 4.0858C242.16 3.98109 242.375 3.87642 242.607 3.87642C242.787 3.87642 242.975 3.93919 243.178 4.11603C243.367 4.28355 243.523 4.36269 243.681 4.36269C243.826 4.36269 243.973 4.29291 244.146 4.15796C244.594 3.80894 245.012 3.66466 245.409 3.66466C246.018 3.66466 246.583 4.00206 247.136 4.44879C247.525 4.75826 248.028 5.22591 248.443 5.22591C248.455 5.22591 248.464 5.22591 248.475 5.22591C248.943 5.19798 249.391 4.69542 249.809 4.36734C250.3 3.97878 250.856 3.65068 251.516 3.65068C251.633 3.65068 251.751 3.66235 251.875 3.68329C252.978 3.87874 254.029 4.31387 255.135 4.42323C255.162 4.42789 255.188 4.42789 255.215 4.42789C255.483 4.42789 255.742 4.30455 256.006 4.17657C256.271 4.05093 256.542 3.92528 256.836 3.92528C257.081 3.92528 257.342 4.01375 257.628 4.26271C257.831 4.43723 258.081 4.5047 258.346 4.5047C258.637 4.5047 258.949 4.42552 259.247 4.3278C259.397 4.27661 260.374 4.25339 261.368 4.25339C262.407 4.25339 263.467 4.27895 263.634 4.3278C263.923 4.41158 264.22 4.48367 264.497 4.48367C264.77 4.48367 265.026 4.41156 265.235 4.21146C265.453 4.00438 265.694 3.93221 265.953 3.93221C266.236 3.93221 266.536 4.01828 266.836 4.1067C267.134 4.19279 267.431 4.27895 267.71 4.27895C268.043 4.27895 268.349 4.15562 268.596 3.75542C268.985 3.69492 269.364 3.65533 269.735 3.65533C270.506 3.65533 271.233 3.82294 271.875 4.3069C272.443 3.91833 272.984 3.77632 273.523 3.77632C274.347 3.77632 275.162 4.10683 276.045 4.38371C276.174 4.42326 276.301 4.44188 276.424 4.44188C276.851 4.44188 277.254 4.23711 277.684 4.03468C278.114 3.82993 278.57 3.62512 279.099 3.62512C279.161 3.62512 279.223 3.62746 279.285 3.63443C279.756 3.67632 280.232 3.69034 280.712 3.69034C281.177 3.69034 281.645 3.67862 282.113 3.66466C282.581 3.6507 283.049 3.63681 283.514 3.63681C284.997 3.63681 286.463 3.774 287.84 4.48367C288.164 4.44878 288.493 4.43721 288.823 4.43721C289.4 4.43721 289.985 4.47667 290.568 4.51855C291.154 4.55811 291.739 4.60002 292.316 4.60002C293.523 4.60002 294.7 4.42087 295.789 3.6926C295.927 3.70422 296.068 3.70885 296.21 3.70885C296.513 3.70885 296.816 3.68793 297.122 3.66466C297.425 3.64139 297.731 3.61818 298.031 3.61818C298.629 3.61818 299.208 3.70885 299.744 4.06252C300.141 4.32544 300.509 4.43256 300.871 4.43256C301.354 4.43256 301.828 4.24405 302.357 3.99275C303.287 3.55531 304.382 3.34357 305.406 3.02945C305.983 3.51807 306.695 3.5925 307.434 3.5925C307.599 3.5925 307.766 3.59024 307.934 3.58559C308.102 3.58093 308.27 3.57864 308.437 3.57864C309.12 3.57864 309.791 3.64378 310.362 4.03468C310.909 4.41162 311.801 4.46739 312.375 4.82803C312.746 5.06303 313.055 5.19807 313.352 5.19807C313.658 5.19807 313.949 5.05841 314.273 4.74429C315.047 3.99741 315.898 3.54831 316.834 3.54831C317.463 3.54831 318.131 3.75081 318.838 4.19987C319.17 4.41161 319.494 4.50696 319.806 4.50696C320.2 4.50696 320.574 4.35806 320.924 4.1091C321.486 3.70889 322.093 3.60182 322.784 3.60182C322.878 3.60182 322.975 3.60422 323.075 3.60887C323.729 3.63214 324.22 3.80893 324.447 4.25566C324.612 4.58606 324.794 5.20033 325.085 5.20033C325.13 5.20033 325.18 5.18411 325.233 5.14922C325.497 4.97238 325.756 4.9095 326.004 4.9095C326.283 4.9095 326.551 4.98865 326.795 5.06776C327.04 5.14688 327.263 5.22363 327.457 5.22363C327.546 5.22363 327.631 5.20728 327.705 5.16772C328.467 4.76752 329.164 4.56979 329.859 4.56979C330.553 4.56979 331.245 4.76752 331.99 5.16307C332.322 5.3399 332.625 5.42609 332.896 5.42609C333.452 5.42609 333.861 5.0654 334.067 4.39529C334.223 3.88806 334.635 3.64375 335.109 3.64375C335.35 3.64375 335.603 3.70659 335.848 3.82758C336.486 4.151 337.048 4.47437 337.672 4.47437C338.058 4.47437 338.467 4.35112 338.932 4.03003C339.406 3.70195 339.938 3.54831 340.477 3.54831C341.045 3.54831 341.619 3.71585 342.146 4.02298C342.814 4.4162 343.452 4.6024 344.058 4.6024C344.862 4.6024 345.606 4.27431 346.292 3.66237C347.016 3.0132 347.778 2.6409 348.811 2.6409C348.985 2.6409 349.17 2.65256 349.362 2.67349C349.653 2.70607 349.947 2.7177 350.244 2.7177C350.506 2.7177 350.768 2.70844 351.03 2.70146C351.295 2.69215 351.557 2.68509 351.819 2.68509C352.737 2.68509 353.635 2.78516 354.441 3.33893C355.171 3.15744 355.907 2.80847 356.634 2.80847C357.104 2.80847 357.572 2.95499 358.034 3.38777C358.623 3.06668 359.197 2.95038 359.768 2.95038C360.518 2.95038 361.26 3.1528 361.998 3.35756C362.74 3.55998 363.482 3.76474 364.235 3.76474C364.509 3.76474 364.785 3.73912 365.062 3.67397L365.492 3.94391C365.374 4.15332 365.168 4.50935 365.018 4.50935H365.012C364.868 4.50005 364.729 4.49538 364.591 4.49538C363.305 4.49538 362.246 4.87465 361.422 5.71693C360.751 6.40565 359.768 6.36839 358.832 6.43587C358.829 6.72672 358.829 7.01755 358.826 7.3084C359.503 7.3689 360.171 7.40146 360.83 7.40146C363.046 7.40146 365.162 7.01756 367.069 5.93097C367.749 5.5424 368.417 5.48425 369.173 5.48425C369.194 5.48425 369.217 5.48425 369.238 5.48425C369.282 5.48425 369.326 5.48425 369.37 5.48425C369.93 5.48425 370.492 5.4702 371.051 5.45857C371.613 5.44695 372.172 5.43301 372.731 5.43301C373.332 5.43301 373.932 5.44698 374.529 5.49583C374.588 5.50049 374.65 5.5005 374.706 5.5005C375.271 5.5005 375.727 5.2888 376.166 5.07707C376.607 4.86534 377.028 4.65352 377.525 4.65352C377.602 4.65352 377.681 4.65826 377.761 4.66989C378.673 4.79553 379.5 5.33296 380.409 5.42836C380.91 5.47955 381.413 5.49358 381.919 5.49358C382.202 5.49358 382.484 5.48891 382.77 5.48425C383.052 5.4796 383.332 5.47722 383.614 5.47722C383.917 5.47722 384.22 5.48187 384.521 5.49583C384.697 5.50514 384.874 5.50743 385.05 5.50743C385.365 5.50743 385.683 5.49815 386.004 5.48653C386.322 5.47722 386.639 5.46564 386.954 5.46564C388.073 5.46564 389.165 5.59819 390.109 6.32646C390.256 6.32414 390.406 6.32181 390.554 6.32181C393.92 6.32181 396.987 7.25954 400.1 8.18094C400.568 8.31822 401.083 8.36011 401.619 8.36011C402.016 8.36011 402.422 8.33681 402.828 8.31354C403.235 8.2926 403.644 8.26933 404.041 8.26933C404.091 8.26933 404.141 8.26939 404.194 8.27171C405.562 8.29033 406.937 8.31818 408.308 8.36703C409.456 8.40659 409.688 8.84171 409.064 10.0004C408.873 10.3588 408.249 10.7403 409.156 10.9707C409.256 10.9963 409.371 11.0079 409.491 11.0079C409.762 11.0079 410.056 10.9475 410.265 10.8498C411.116 10.4449 411.748 9.90044 411.99 9.07211C412.137 8.56953 412.54 8.33215 413.011 8.33215C413.252 8.33215 413.514 8.39499 413.767 8.51598C414.585 8.91153 415.33 9.25355 416.345 9.25355C416.375 9.25355 416.41 9.25128 416.442 9.25128C417.287 9.23499 418.135 9.22798 418.979 9.22798C420.68 9.22798 422.381 9.25129 424.079 9.25594H424.082C424.218 9.25594 424.365 9.23968 424.512 9.22106C424.656 9.20245 424.8 9.18607 424.93 9.18607C425.05 9.18607 425.156 9.20003 425.236 9.24424C425.951 9.63514 426.64 10.0726 427.372 10.0726C427.82 10.0726 428.282 9.91202 428.779 9.48157C430.212 10.054 431.698 10.1842 433.199 10.1842C433.82 10.1842 434.441 10.161 435.065 10.1401C435.686 10.1168 436.307 10.0959 436.928 10.0959C437.811 10.0959 438.688 10.1401 439.553 10.2937L440.003 10.5868L439.63 10.9033C438.759 11.1406 437.923 11.6036 437.016 11.6036C436.551 11.6036 436.066 11.4803 435.551 11.1406C435.436 11.0662 435.259 11.0382 435.056 11.0382C434.68 11.0382 434.206 11.1383 433.856 11.2244C433.597 11.2872 433.438 11.6758 433.294 11.941C433.099 12.29 433.249 12.66 433.697 12.6926C435.433 12.8159 437.178 12.8857 438.923 12.9392C438.941 12.9416 438.962 12.9415 438.979 12.9415C439.833 12.9415 440.254 12.3482 440.81 11.9526C441.392 11.5385 441.99 11.1336 442.531 10.6869C442.764 10.4984 442.982 10.4193 443.188 10.4193C443.461 10.4193 443.717 10.5542 443.959 10.7404C444.221 10.9428 444.494 11.0126 444.771 11.0126C445.036 11.0126 445.304 10.9474 445.574 10.8776C445.966 10.7752 446.251 10.403 446.681 10.403C446.793 10.403 446.913 10.4286 447.052 10.4915C447.358 10.6311 447.646 10.8312 447.961 10.8312C448.135 10.8312 448.317 10.7729 448.514 10.6101C448.717 10.4425 448.9 10.3798 449.068 10.3798C449.415 10.3798 449.694 10.6474 449.936 10.8405C450.477 11.2733 450.998 11.6827 451.628 11.6827C451.954 11.6827 452.311 11.571 452.717 11.2941C453.847 11.6711 454.588 12.9159 454.321 14.0234C453.856 15.9593 453.832 15.9779 455.457 16.6759C455.845 16.8434 456.893 16.6806 456.245 17.3879C454.95 18.8003 455.748 19.9753 456.672 21.1875L456.843 21.632C457.087 21.9833 457.508 22.1624 457.964 22.1624C458.405 22.1624 458.879 21.995 459.259 21.6553C459.633 21.3179 460.286 20.8781 460.215 20.571C459.806 18.8189 461.566 18.1325 462.714 17.1483C462.89 17.0017 463.085 16.9296 463.255 16.9296C463.558 16.9296 463.794 17.1506 463.732 17.5531C463.526 18.9212 465.03 19.7148 465.257 20.9037L465.627 21.1527L466.01 20.8152C466.26 20.0916 466.366 19.3238 466.743 18.6514C466.946 18.2931 467.602 18.093 468.049 17.8208C468.205 18.0953 468.485 18.3675 468.488 18.6421C468.505 19.4495 468.923 20.0963 469.409 20.785C470.062 21.7087 469.318 22.0717 468.217 22.3556C467.49 22.5441 467.111 23.7377 467.422 24.3264C467.646 24.7429 468.008 25.0546 468.688 25.0546C468.7 25.0546 468.711 25.0546 468.723 25.0546C468.879 25.0523 469.032 25.05 469.185 25.05C470.012 25.05 470.839 25.0849 471.663 25.1268C472.028 25.1431 472.396 25.2361 472.746 25.3315L472.967 25.6061L472.54 25.9179C472.096 26.1273 471.637 26.3158 471.186 26.5135C471.707 26.6601 472.214 26.8672 472.752 26.9394C473.049 26.9812 473.355 26.9905 473.661 26.9905C473.773 26.9905 473.882 26.9905 473.994 26.9882C474.103 26.9859 474.209 26.9858 474.318 26.9858C474.341 26.9858 474.365 26.9858 474.388 26.9858C474.438 27.8793 474.447 28.71 476.081 28.8798C476.94 28.9683 476.372 29.5849 476.078 29.892C475.754 30.2317 475.757 30.4854 476.325 30.5458C477.249 30.6482 478.191 30.6575 479.124 30.7017C479.156 31.2974 479.185 31.8976 479.218 32.4933C479.965 32.5072 480.713 32.5212 481.457 32.5398C482.143 32.5585 482.573 32.9144 482.593 33.3798C482.634 34.4245 483.052 35.5065 481.975 36.4605C481.131 37.2097 481.743 37.8821 482.487 38.4452C482.746 38.6406 482.99 38.8152 483.299 38.8152C483.476 38.8152 483.676 38.7569 483.909 38.6057C484.868 37.9844 486.407 37.9053 486.628 36.5977C486.66 36.4116 487.108 36.3139 487.505 36.3139C487.814 36.3139 488.094 36.372 488.126 36.4953C488.185 36.7234 488.152 37.0398 487.988 37.2143C487.487 37.7471 487.246 38.2242 487.776 38.8594C488.3 39.4853 488.585 40.2461 489.171 40.8254C490.006 41.6561 489.821 42.5589 489.786 43.4734C489.762 44.1784 489.362 44.5972 488.406 44.6461C487.449 44.6926 486.484 44.7461 485.551 44.895C485.365 44.9252 485.271 45.3254 485.145 45.5906C486.634 45.9047 486.137 47.4986 487.437 47.9151C488.915 48.3898 490.31 48.8365 489.9 50.4955C489.821 50.8142 490.392 51.2028 491.057 51.2028C491.092 51.2028 491.125 51.2006 491.16 51.2006C491.248 51.1936 491.337 51.1912 491.425 51.1912C492.334 51.1912 493.091 51.4937 493.77 52.0265C494.312 52.45 494.265 52.6664 493.176 53.0782C492.652 53.2783 492.275 53.5156 492.149 53.9577C491.937 53.9437 491.731 53.9392 491.525 53.9392C490.03 53.9392 488.656 54.2625 487.317 54.9117C486.531 55.2909 486.201 55.6912 486.231 56.3264C486.272 57.2501 485.825 57.7132 484.591 57.7248C484.059 57.7318 483.503 57.9156 483.005 58.0994C482.643 58.2297 482.77 59.1929 483.147 59.2837C483.673 59.4117 484.224 59.4815 484.762 59.5885C484.874 59.6118 484.995 59.6187 485.115 59.6187C485.262 59.6187 485.413 59.6072 485.566 59.5955C485.716 59.5862 485.866 59.5723 486.013 59.5723C486.446 59.5723 486.84 59.6723 487.075 60.1679C486.345 60.2912 485.613 60.4052 484.886 60.5401L484.388 60.7449C484.076 60.9195 484.094 61.1893 484.515 61.4313C485.121 61.7826 485.739 62.1293 486.41 62.3946C486.934 62.6017 487.302 62.8599 487.44 63.302C490.66 63.8953 491.887 64.8214 492.087 67.1389C492.178 68.1929 492.42 68.9002 493.882 69.1096C494.474 69.1957 494.441 69.5006 493.865 69.7123C493.353 69.9008 492.846 70.0962 492.334 70.2894C492.805 70.4848 493.376 70.6011 493.726 70.8873C494.995 71.925 496.61 71.6528 498.147 71.7505C498.444 71.7668 498.717 72.0367 499 72.1903C498.759 72.4346 498.523 72.6812 498.276 72.9208C497.67 73.5095 496.887 73.6492 496.084 73.6492C495.727 73.6492 495.366 73.6212 495.015 73.5933C494.285 73.5351 493.614 73.0139 492.888 72.9674C492.858 72.9651 492.829 72.9651 492.802 72.9651C491.913 72.9651 492.325 73.9516 491.716 74.2238C491.128 74.4844 490.513 74.5473 489.889 74.5473C489.615 74.5473 489.335 74.5356 489.059 74.524C488.782 74.51 488.506 74.4984 488.229 74.4984C487.858 74.4984 487.49 74.5217 487.128 74.5939C486.328 74.7591 486.563 75.1755 486.925 75.5548L487.258 75.934C487.343 76.3854 487.431 77.0602 486.784 77.1067C484.179 77.3022 482.211 78.6797 479.839 79.2916C478.938 79.5243 477.808 79.8454 477.396 80.4061C477.09 80.8249 477.773 81.6951 478.008 82.3652C478.482 83.7171 477.581 84.8921 476.702 85.7833C474.933 87.5772 474.115 89.4735 474.309 91.7003L474 92.0888C473.355 92.745 473.482 93.052 474.589 93.2452C475.51 93.4057 476.36 93.8245 477.219 94.1619C478.167 94.5342 478.17 95.5254 477.049 95.8674C474.883 96.5305 473.735 97.9988 472.314 99.2483C471.434 100.021 472.214 101.384 473.694 101.538C474.756 101.649 475.551 101.933 476.207 102.55L476.522 102.922L475.801 103.409C475.327 103.42 474.853 103.448 474.385 103.448C473.514 103.448 472.658 103.355 471.84 102.901C471.749 102.85 471.643 102.829 471.525 102.829C470.889 102.829 469.98 103.511 470.136 104.076C470.286 104.618 471.116 104.988 469.777 105.314C468.497 105.621 468.538 105.733 469.256 106.41C469.736 106.859 470.209 107.308 470.683 107.757C468.608 109.181 470.766 111.468 468.994 112.948C468.606 113.269 468.644 113.523 469.232 113.583C470.198 113.681 471.178 113.667 472.146 113.749C472.882 113.811 473.361 114.444 473.258 115.128C473.064 116.434 471.157 118.246 469.583 118.263C469.577 118.263 469.568 118.263 469.568 118.263C469.259 118.263 468.962 118.169 468.664 118.074C468.367 117.981 468.073 117.886 467.767 117.886C467.414 117.886 467.046 118.011 466.648 118.409C465.975 119.086 464.633 119.319 463.785 119.924C461.834 121.32 459.665 122.134 456.993 122.153C456.201 122.158 455.454 122.69 454.644 122.69C454.265 122.69 453.873 122.574 453.455 122.232C453.379 122.172 453.273 122.141 453.152 122.141C452.77 122.141 452.243 122.418 452.111 122.793C451.351 124.959 448.938 125.192 446.766 125.72C446.348 125.352 445.98 125.208 445.648 125.208C445.036 125.208 444.535 125.683 444.02 126.113L443.579 126.411C443.179 126.481 442.637 126.641 442.278 126.641C442.158 126.641 442.058 126.623 441.99 126.576C440.989 125.871 439.85 125.871 438.711 125.871C438.311 125.871 437.911 125.871 437.517 125.841C436.381 125.752 435.256 125.953 434.135 125.345C433.77 125.147 433.514 125.038 433.288 125.038C432.873 125.038 432.561 125.403 431.849 126.255C431.672 126.462 431.463 126.578 431.298 126.578C431.163 126.578 431.054 126.502 431.019 126.334C430.854 125.576 430.589 125.303 430.18 125.303C429.836 125.303 429.385 125.494 428.806 125.755C427.252 126.446 425.568 126.816 423.65 126.816C423.529 126.816 423.408 126.816 423.288 126.811C421.027 126.758 418.764 126.741 416.498 126.741C412.472 126.741 408.444 126.797 404.415 126.811C404.391 126.811 404.368 126.811 404.344 126.811C404.091 126.811 403.838 126.809 403.585 126.804C403.332 126.799 403.079 126.797 402.826 126.797C401.631 126.797 400.454 126.883 399.379 127.465C398.811 127.097 398.243 126.848 397.652 126.848C397.202 126.848 396.734 126.995 396.245 127.346L395.309 127.172C394.55 126.436 393.844 126.064 392.993 126.064C392.381 126.064 391.698 126.255 390.868 126.644C389.191 127.43 387.584 127.781 385.871 127.781C384.329 127.781 382.702 127.495 380.857 126.983C380.577 126.907 380.33 126.874 380.103 126.874C379.627 126.874 379.223 127.02 378.741 127.223C378.326 127.397 378.055 127.5 377.825 127.5C377.422 127.5 377.134 127.188 376.369 126.404C376.157 126.188 375.789 126.053 375.465 125.925L374.885 125.904C374.37 126.039 374.259 126.276 374.538 126.555C375.133 127.144 375.295 127.614 374.038 127.681C373.858 127.691 373.676 127.698 373.499 127.698C372.911 127.698 372.355 127.614 371.869 127.237C370.96 126.532 370.518 126.192 370.077 126.192C369.712 126.192 369.344 126.423 368.714 126.869C367.923 127.432 367.169 127.742 366.375 127.742C365.783 127.742 365.171 127.572 364.506 127.204C364.194 127.032 363.626 126.869 363.255 126.869C363.131 126.869 363.031 126.888 362.967 126.93C362.534 127.218 362.163 127.344 361.792 127.344C361.386 127.344 360.974 127.19 360.477 126.937C360.297 126.846 360.1 126.802 359.906 126.802C359.397 126.802 358.9 127.109 358.761 127.688C358.623 128.27 358.143 128.577 357.64 128.577C357.443 128.577 357.243 128.528 357.057 128.433C356.657 128.226 356.316 128.151 355.992 128.151C355.527 128.151 355.091 128.305 354.538 128.451C354.067 128.575 353.688 128.642 353.37 128.642C352.458 128.642 352.09 128.079 351.657 126.709C351.528 126.302 351.345 126.097 351.098 126.097C350.951 126.097 350.783 126.169 350.592 126.309C349.871 126.837 349.179 127.391 348.455 127.916C348.17 128.126 347.849 128.433 347.516 128.454C346.107 128.549 344.679 128.705 343.287 128.705C341.277 128.705 339.341 128.379 337.637 127.067C337.384 126.874 337.39 126.488 337.175 126.25C337.101 126.169 336.998 126.127 336.892 126.127C336.698 126.127 336.495 126.264 336.445 126.523C336.28 127.386 335.715 127.76 334.771 127.76C334.665 127.76 334.553 127.756 334.435 127.746C333.67 127.684 332.669 127.821 332.181 127.493C331.525 127.051 330.951 126.858 330.433 126.858C329.629 126.858 328.95 127.316 328.276 128.005C328.067 128.219 327.669 128.317 327.36 128.468C327.201 128.04 327.054 127.607 326.878 127.183C326.713 126.79 326.522 126.404 326.342 126.015C326.033 126.206 325.677 126.362 325.421 126.588C324.918 127.034 324.447 127.444 323.876 127.444C323.526 127.444 323.134 127.29 322.678 126.89C322.525 126.758 322.222 126.732 321.887 126.732C321.781 126.732 321.672 126.734 321.563 126.737C321.454 126.739 321.345 126.741 321.239 126.741C321.165 126.741 321.092 126.741 321.024 126.737C320.912 126.281 320.553 125.973 319.988 125.911C319.671 125.876 319.303 125.827 318.967 125.827C318.693 125.827 318.443 125.857 318.261 125.955C317.296 126.464 316.38 127.088 315.633 127.791C315.241 128.161 314.906 128.3 314.562 128.3C314.173 128.3 313.776 128.121 313.276 127.898C313.058 127.798 312.855 127.758 312.66 127.758C311.931 127.758 311.366 128.354 310.851 128.777C310.303 129.222 309.759 129.492 309.188 129.492C308.755 129.492 308.308 129.338 307.828 128.989C307.534 128.773 307.248 128.691 306.966 128.691C306.56 128.691 306.157 128.863 305.733 129.059C305.341 129.238 304.706 129.492 304.359 129.492C304.285 129.492 304.223 129.48 304.179 129.452C303.464 128.998 302.799 128.768 302.137 128.768C301.445 128.768 300.762 129.019 300.038 129.531C299.897 129.629 299.673 129.659 299.42 129.659C299.253 129.659 299.07 129.645 298.891 129.633C298.708 129.622 298.529 129.608 298.364 129.608C298.343 129.608 298.326 129.608 298.308 129.608C298.067 129.613 297.822 129.617 297.581 129.617C296.457 129.617 295.362 129.517 294.473 128.807C293.284 129.319 292.11 129.855 290.898 130.327C290.718 130.394 290.447 130.443 290.212 130.443C290.038 130.443 289.882 130.418 289.794 130.357C288.738 129.652 287.59 129.492 286.416 129.492C285.93 129.492 285.441 129.519 284.953 129.547C284.464 129.573 283.973 129.601 283.49 129.601C283.328 129.601 283.167 129.599 283.005 129.592C282.201 129.554 281.469 129.515 280.853 129.052C280.491 128.777 280.15 128.673 279.815 128.673C279.294 128.673 278.793 128.931 278.281 129.217C278.164 129.282 278.055 129.31 277.952 129.31C277.743 129.31 277.557 129.203 277.381 129.096C277.204 128.989 277.036 128.884 276.866 128.884C276.845 128.884 276.825 128.887 276.801 128.889C275.865 129.038 276.327 130.378 275.227 130.378C275.188 130.378 275.15 130.378 275.106 130.373C274.22 130.301 273.361 129.729 272.516 129.729C272.49 129.729 272.466 129.729 272.443 129.731C271.504 129.768 270.765 130.567 269.735 130.567C269.576 130.567 269.411 130.548 269.238 130.504C268.882 130.415 268.555 130.255 268.214 130.127L268.888 129.603C269.202 129.45 269.673 129.433 269.894 129.231C270.109 129.033 270.206 128.67 270.168 128.396C270.129 128.121 269.932 127.963 269.709 127.963C269.614 127.963 269.517 127.991 269.423 128.047C268.623 128.531 267.725 128.71 266.751 128.71C266.733 128.71 266.713 128.71 266.695 128.71C266.689 128.71 266.686 128.71 266.68 128.71C265.215 128.71 265.848 130.327 264.397 130.499C264.25 130.518 264.111 130.525 263.976 130.525C262.922 130.525 262.145 130.048 261.218 129.831C260.135 130.755 258.643 130.341 257.369 130.604C256.71 130.741 256.098 130.79 255.486 130.79C254.926 130.79 254.361 130.748 253.755 130.694C253.649 130.685 253.543 130.681 253.437 130.681C253.125 130.681 252.807 130.715 252.484 130.75C252.163 130.785 251.833 130.82 251.498 130.82C251.08 130.82 250.653 130.767 250.215 130.592C250.068 130.532 249.862 130.506 249.632 130.506C249.043 130.506 248.314 130.683 248.087 130.941C247.428 131.681 246.71 131.949 245.992 131.949C245.197 131.949 244.402 131.623 243.687 131.253C243.061 130.927 242.534 130.795 242.022 130.795C241.398 130.795 240.792 130.99 240.041 131.276C239.535 131.467 238.946 131.516 238.325 131.516C238.002 131.516 237.672 131.504 237.342 131.49C237.013 131.476 236.683 131.462 236.359 131.462C236.236 131.462 236.115 131.465 235.992 131.469C235.836 131.476 235.683 131.479 235.527 131.479C235.241 131.479 234.959 131.469 234.673 131.462C234.391 131.455 234.108 131.448 233.826 131.448C232.831 131.448 231.842 131.541 230.88 132.06C230.809 132.1 230.733 132.116 230.65 132.116C230.406 132.116 230.123 131.958 229.82 131.8C229.514 131.641 229.185 131.483 228.837 131.483C228.684 131.483 228.525 131.516 228.364 131.593C227.616 131.956 226.93 132.344 226.039 132.344C225.927 132.344 225.809 132.337 225.688 132.323C224.912 132.237 224.208 131.863 223.408 131.863C222.993 131.863 222.551 131.965 222.063 132.256C221.771 132.43 221.362 132.484 220.903 132.484C220.544 132.484 220.153 132.451 219.764 132.421C219.376 132.388 218.985 132.356 218.628 132.356C218.62 132.356 218.614 132.356 218.605 132.356C217.231 132.358 215.856 132.358 214.482 132.363C214.432 132.363 214.382 132.363 214.332 132.363C214.055 132.363 213.776 132.36 213.499 132.358C213.222 132.356 212.946 132.353 212.672 132.353C212.095 132.353 211.521 132.363 210.95 132.409C210.209 132.467 209.432 132.649 208.784 132.937C208.399 133.107 208.043 133.203 207.701 133.203C207.348 133.203 207.01 133.1 206.663 132.875C206.23 132.588 205.8 132.449 205.374 132.449C204.932 132.449 204.492 132.598 204.052 132.893L203.581 133.133C202.641 132.582 201.735 132.37 200.83 132.37C199.604 132.37 198.378 132.758 197.068 133.214C196.562 133.389 195.989 133.442 195.388 133.442C194.953 133.442 194.502 133.414 194.05 133.387C193.6 133.361 193.147 133.333 192.706 133.333C192.605 133.333 192.504 133.335 192.405 133.338C192.011 133.349 191.618 133.356 191.223 133.356C190.309 133.356 189.394 133.326 188.479 133.298C187.563 133.273 186.648 133.245 185.735 133.245C183.722 133.245 181.72 133.38 179.753 133.95C179.27 133.549 178.819 133.405 178.38 133.405C177.625 133.405 176.905 133.833 176.119 134.115C175.908 134.192 175.639 134.224 175.353 134.224C174.835 134.224 174.266 134.11 173.899 133.917C173.308 133.605 172.782 133.431 172.256 133.431C171.77 133.431 171.285 133.58 170.75 133.917C170.353 134.166 169.654 134.189 169.089 134.194C164.77 134.229 160.453 134.22 156.132 134.252C156.1 134.252 156.067 134.252 156.035 134.252C154.882 134.252 153.884 134.094 152.844 133.554C152.449 133.347 151.999 133.242 151.546 133.242C150.871 133.242 150.189 133.477 149.671 133.961C148.733 134.834 147.65 135.143 146.217 135.143C146.174 135.143 146.129 135.143 146.084 135.143C144.847 135.127 143.609 135.12 142.372 135.12C139.487 135.12 136.6 135.16 133.718 135.225C133.656 135.227 133.596 135.227 133.536 135.227C132.128 135.227 131.074 134.841 130.112 134.029C129.697 133.68 129.415 133.547 129.215 133.547C128.732 133.547 128.717 134.317 128.427 134.697L127.464 135.057C126.847 134.848 126.252 134.722 125.657 134.722C125.091 134.722 124.526 134.836 123.944 135.104C123.905 135.12 123.856 135.129 123.799 135.129C123.544 135.129 123.143 134.969 122.911 134.831C122.29 134.457 121.809 133.78 121.139 133.654C121.052 133.638 120.975 133.631 120.908 133.631C120.162 133.631 120.585 134.583 120.053 134.838C119.743 134.99 119.38 135.113 119.022 135.155C118.07 135.267 116.908 135.085 116.201 135.46C115.776 135.685 115.434 135.783 115.135 135.783C114.655 135.783 114.281 135.532 113.837 135.146C113.312 134.69 112.758 134.292 112.098 134.292C111.727 134.292 111.321 134.417 110.87 134.731C110.223 135.18 109.41 135.371 108.647 135.371C108.024 135.371 107.434 135.243 106.994 135.032C105.767 134.441 104.604 134.206 103.475 134.206C101.696 134.206 99.9998 134.787 98.2768 135.467C97.9271 135.606 97.6432 135.881 97.2835 135.96C96.8465 136.058 96.3651 136.139 95.913 136.139C95.3751 136.139 94.8786 136.02 94.5487 135.662C93.423 134.441 91.6631 134.103 90.1502 133.505C89.6319 133.303 89.0295 133.175 88.4133 133.175C87.6867 133.175 86.9406 133.352 86.29 133.789C86.3188 135.295 84.3185 135.039 83.4804 135.804C83.2367 136.027 82.9139 136.13 82.5963 136.13C82.3494 136.13 82.1046 136.067 81.9021 135.948C80.8709 135.341 79.8294 135.106 78.7811 135.106C77.6396 135.106 76.4898 135.383 75.3391 135.758C75.1622 135.816 75.0171 135.855 74.8782 135.855C74.7093 135.855 74.5483 135.797 74.3458 135.646C73.955 135.355 73.5816 135.222 73.2137 135.222C72.7561 135.222 72.3067 135.427 71.8432 135.785C71.2858 136.218 70.5983 137 69.9121 137ZM80.7779 133.521L80.4203 133.759C80.5342 133.959 80.672 134.059 80.8112 134.059C80.9042 134.059 80.9986 134.012 81.086 133.922L81.1102 133.645L80.7779 133.521ZM155.839 132.426C155.878 132.728 155.934 133.042 156.352 133.042C156.416 133.042 156.489 133.035 156.573 133.019C156.729 132.989 156.793 132.658 156.888 132.421C156.538 132.421 156.189 132.423 155.839 132.426ZM155.676 132.298L155.722 132.426H155.839L155.827 132.335L155.676 132.298ZM156.916 132.344L156.888 132.421H157.011L157.036 132.344H156.916ZM157.036 132.344C157.483 132.346 157.934 132.363 158.38 132.363C158.829 132.363 159.275 132.347 159.707 132.277C159.995 132.23 160.304 131.572 160.284 131.204C160.263 130.82 159.846 130.557 159.403 130.557C159.298 130.557 159.193 130.573 159.09 130.604C158.084 130.911 157.195 131.388 157.036 132.344ZM155.129 131.632C154.907 131.632 154.746 131.821 154.899 132.009C155.031 132.17 155.377 132.221 155.676 132.298C155.592 132.065 155.537 131.8 155.342 131.69C155.269 131.651 155.197 131.632 155.129 131.632ZM48.9114 131.644L48.5447 131.895C48.6622 132.104 48.8022 132.209 48.945 132.209C49.0403 132.209 49.1357 132.163 49.2254 132.067L49.2531 131.779L48.9114 131.644ZM57.0206 127.777L55.9838 127.935C55.0171 128.847 55.8458 130.348 54.3537 131.146C54.226 131.213 54.4044 131.697 54.5147 131.97C54.5536 132.067 54.648 132.109 54.7722 132.109C55.0559 132.109 55.4997 131.893 55.8273 131.646C57.1539 130.646 56.1469 129.008 57.4818 128.063C57.5068 127.893 57.5321 127.816 57.5448 127.788C57.5392 127.798 57.5277 127.809 57.5115 127.821C57.4794 127.847 57.4288 127.87 57.3493 127.87C57.2702 127.87 57.1633 127.847 57.0206 127.777ZM120.908 130.729L120.552 130.967C120.665 131.171 120.8 131.274 120.937 131.274C121.025 131.274 121.115 131.232 121.199 131.144L121.236 131.016V130.864L121.059 130.771L120.908 130.729ZM51.3429 129.717C51.1554 130.085 50.9244 130.446 50.8152 130.825L51.5015 131.171C51.6245 130.923 51.7475 130.676 51.8705 130.427C51.6936 130.19 51.5188 129.955 51.3429 129.717ZM59.4094 129.822L59.2566 130.062L59.5545 130.336C59.9762 130.199 60.0486 130.001 59.7614 129.829L59.4094 129.822ZM285.074 127.893C284.482 128.047 284.461 128.286 285.021 128.503L285.433 128.216L285.074 127.893ZM60.083 127.788L59.721 127.879L59.3267 128.068C59.1645 128.263 59.3093 128.451 59.5244 128.451C59.5901 128.451 59.6613 128.433 59.7337 128.393C59.9326 128.284 59.9924 128.019 60.083 127.788ZM60.2407 127.719C60.7016 127.921 61.1545 128.137 61.6316 128.312C61.7672 128.361 61.8891 128.382 62.0018 128.382C62.4479 128.382 62.7296 128.044 63.0168 127.807C63.234 127.628 63.2893 127.328 63.417 127.083C63.0698 126.974 62.7237 126.779 62.3764 126.776C62.1719 126.774 61.9591 126.767 61.7511 126.767C61.4868 126.767 61.2293 126.779 61.0027 126.837C60.6074 126.939 60.3108 127.181 60.2407 127.719ZM70.2673 126.995C70.204 126.995 70.1351 127.011 70.0648 127.051C69.8797 127.153 69.82 127.397 69.7384 127.619L69.5613 127.663L69.4992 127.772C69.1039 127.8 68.7211 127.842 68.8085 128.324L69.1775 128.356L69.4992 127.772L69.6854 127.758L69.7384 127.619C70.0177 127.553 70.327 127.504 70.4591 127.356C70.6189 127.176 70.4777 126.995 70.2673 126.995ZM60.1292 127.672L60.083 127.788L60.2325 127.751L60.2407 127.719L60.1292 127.672ZM44.8281 126.811C45.4261 126.811 45.8664 127.114 46.0262 127.67L45.9732 127.684L46.0606 127.746L46.0262 127.67C47.8414 127.381 48.4921 126.418 48.3746 125.047C48.3517 124.771 48.1413 124.277 47.9885 124.27C47.9711 124.27 47.9541 124.27 47.9379 124.27C47.6883 124.27 47.4367 124.359 47.1848 124.447C46.932 124.536 46.6801 124.624 46.4285 124.624C46.1583 124.624 45.8893 124.522 45.6259 124.205C43.9202 124.926 42.7431 126.094 41.5635 127.253L41.8843 127.528L42.412 127.628C43.0924 127.383 43.7142 126.997 44.4202 126.855C44.5627 126.825 44.6995 126.811 44.8281 126.811ZM230.48 126.139C230.285 126.322 230.165 126.66 230.235 126.895C230.385 127.39 230.8 127.651 231.333 127.651C231.501 127.651 231.683 127.623 231.872 127.57C232.434 127.456 232.481 127.26 232.063 126.944C231.798 126.744 231.627 126.453 231.336 126.292L230.48 126.139ZM207.231 127L206.871 127.393L207.207 127.514L207.578 127.267L207.231 127ZM309.756 122.279L309.406 122.632C309.347 124.131 309.308 125.629 309.3 127.13L309.662 127.446L310.356 126.981C310.442 126.381 310.389 125.766 310.389 125.159H310.418C310.418 124.401 310.465 123.637 310.389 122.884C310.365 122.67 309.977 122.479 309.756 122.279ZM91.4713 126.937L91.1011 127.167L91.6264 127.444L91.8079 127.197L91.4713 126.937ZM333.382 125.087L333.014 125.355C333.117 125.594 333.249 125.713 333.387 125.713C333.517 125.713 333.655 125.604 333.785 125.382L333.382 125.087ZM313.514 125.62L313.699 125.355L313.364 125.08L312.993 125.324L313.514 125.62ZM384.011 123.267C383.567 123.523 383.199 123.865 382.828 124.196L382.667 124.545C382.976 124.659 383.305 124.838 383.617 124.838C383.632 124.838 383.647 124.838 383.661 124.838L384.176 124.71L384.65 124.261C384.768 124.061 384.833 123.837 384.777 123.609L384.562 123.495L384.011 123.267ZM387.511 124.245L387.352 124.505L387.672 124.796C388.117 124.638 388.193 124.426 387.89 124.252L387.511 124.245ZM316.907 124.156C316.304 124.31 316.289 124.545 316.872 124.743L317.29 124.463L316.907 124.156ZM338.061 124.184L337.699 124.419C337.819 124.612 337.958 124.71 338.099 124.71C338.196 124.71 338.293 124.666 338.385 124.573L338.393 124.298L338.061 124.184ZM268.49 124.14L268.125 124.373L268.617 124.67L268.814 124.41L268.49 124.14ZM447.531 122.151C447.417 122.151 447.296 122.176 447.175 122.234C445.86 122.865 444.4 122.979 443.029 123.367C442.814 123.43 442.661 123.877 442.684 124.133L443.273 124.654L443.75 124.438C444.494 124.049 445.289 123.975 446.098 123.975C446.345 123.975 446.595 123.982 446.849 123.989C447.099 123.996 447.349 124.003 447.599 124.003C447.979 124.003 448.355 123.986 448.723 123.928L449.335 123.409L449.029 123.051C448.576 122.725 448.085 122.151 447.531 122.151ZM389.88 123.316L389.735 123.57L390.03 123.854C390.439 123.698 390.509 123.495 390.227 123.323L389.88 123.316ZM69.0683 123.233C68.4647 123.379 68.4485 123.614 69.0268 123.817L69.4477 123.537L69.0683 123.233ZM351.142 123.181L350.789 123.442L351.298 123.719L351.463 123.465L351.142 123.181ZM47.5745 121.201C47.1492 121.201 46.7342 121.341 46.3629 121.629C46.1492 121.797 46.0871 122.234 46.2031 122.472C46.3019 122.672 46.7457 122.935 46.9803 122.935C47.0009 122.935 47.0194 122.935 47.0365 122.93C47.8687 122.721 48.661 122.407 49.4623 122.123C48.8873 121.52 48.2195 121.201 47.5745 121.201ZM49.6507 122.19C49.744 122.42 49.8093 122.686 50.0094 122.786C50.0806 122.823 50.1519 122.839 50.2163 122.839C50.4417 122.839 50.5853 122.644 50.4141 122.455C50.2749 122.302 49.9414 122.258 49.6507 122.19ZM299.891 121.236C300.1 121.574 300.28 121.93 300.565 122.22C300.786 122.444 301.036 122.735 301.424 122.735C301.533 122.735 301.657 122.711 301.789 122.658L302.001 122.297C302.04 121.643 301.719 121.229 300.824 121.229C300.812 121.229 300.801 121.229 300.789 121.229C300.492 121.234 300.191 121.234 299.891 121.236ZM49.4623 122.123L49.5024 122.155L49.6507 122.19L49.6036 122.074L49.4623 122.123ZM34.2981 121.22C34.4084 121.464 34.4741 121.771 34.6901 121.867C35.1156 122.06 35.5706 122.16 36.0191 122.16C36.4732 122.16 36.9202 122.058 37.326 121.837C37.8861 121.532 38.3572 121.05 38.6745 120.568C38.7837 120.401 38.4988 120.278 38.0688 120.278C37.6895 120.278 37.1974 120.373 36.7628 120.627C35.972 121.083 35.1718 121.185 34.2981 121.22ZM299.45 121.115C299.553 121.115 299.656 121.118 299.756 121.125L299.7 121.236H299.891L299.826 121.129L299.756 121.125C299.856 120.701 300.162 120.413 300.706 120.268C301.057 120.177 301.383 120.042 301.719 119.926L301.16 119.361C299.409 118.432 297.142 118.519 295.374 117.52C295.247 117.448 295.074 117.418 294.871 117.418C294.361 117.418 293.679 117.604 293.172 117.741C292.722 117.862 293.773 119.061 294.691 119.284C294.853 119.324 295.027 119.335 295.203 119.335C295.421 119.335 295.642 119.319 295.856 119.317C295.874 119.317 295.892 119.314 295.909 119.314C296.76 119.314 297.278 119.591 297.463 120.312C297.652 121.036 298.225 121.125 298.846 121.125C298.947 121.125 299.049 121.12 299.15 121.12C299.25 121.118 299.35 121.115 299.45 121.115ZM34.2613 121.134L34.1521 121.229L34.2981 121.22L34.2613 121.134ZM395.474 118.435C395.424 118.435 395.368 118.437 395.312 118.442C394.644 118.498 394.335 118.728 394.291 119.242C394.247 119.759 394.747 120.177 395.368 120.177C395.483 120.177 395.601 120.164 395.721 120.133C396.295 119.989 396.584 119.645 396.472 119.13C396.28 118.765 396.077 118.435 395.474 118.435ZM376.893 119.607L376.754 119.852L377.054 120.145L377.252 119.607H376.893ZM453.832 119.486C453.258 119.647 453.241 119.882 453.782 120.101L454.15 119.791L453.832 119.486ZM389.991 117.381C389.703 117.381 389.418 117.402 389.141 117.444C388.906 117.476 388.726 117.806 388.57 118.025L388.991 118.304C389.359 118.37 389.741 118.367 389.936 118.381C390.171 118.381 390.345 118.398 390.483 118.398C390.565 118.398 390.636 118.393 390.698 118.372C391.036 118.258 391.348 118.093 391.672 117.946C391.407 117.772 391.169 117.488 390.874 117.444C390.589 117.402 390.292 117.381 389.991 117.381ZM396.389 116.615C396.378 116.615 396.366 116.615 396.354 116.615L395.727 117.085C395.795 117.332 396.013 117.46 396.278 117.46C396.401 117.46 396.536 117.432 396.669 117.376L397.39 116.918C397.034 116.804 396.704 116.615 396.389 116.615ZM46.4664 116.538C45.9894 116.643 45.5468 116.841 45.0915 117.008L45.4697 117.311C45.7054 117.369 45.9467 117.43 46.1777 117.43C46.4447 117.43 46.6975 117.35 46.9146 117.099L46.4664 116.538ZM407.752 110.833C406.551 110.833 405.748 111.759 404.6 111.845C403.27 111.95 401.916 111.936 400.607 112.129C400.133 112.199 399.75 112.709 399.359 113.041C399.07 113.288 399.22 113.5 399.706 113.674C400.162 113.839 400.598 114.044 401.045 114.23C400.524 114.849 399.768 115.526 402.066 115.566C402.534 115.505 403.538 115.517 404.382 115.233C405.471 114.863 405.721 113.851 406.381 113.16C407.16 112.336 409.082 113.151 409.921 112.032C410.109 111.78 410.321 111.541 410.521 111.296C410.171 111.185 409.833 111.038 409.468 110.975C409.309 110.947 409.141 110.945 408.973 110.945C408.959 110.945 408.941 110.945 408.926 110.945C408.714 110.945 408.505 110.945 408.311 110.898C408.114 110.854 407.929 110.833 407.752 110.833ZM373.588 113.781L373.155 114.191C372.955 114.614 372.849 115.061 373.438 115.347C373.702 115.475 373.982 115.561 374.262 115.561C374.494 115.561 374.727 115.503 374.953 115.359L375.109 115.07C374.621 114.633 374.103 114.212 373.588 113.781ZM24.2095 113.725C23.0414 113.725 22.1506 114.172 21.5344 115.04L21.6538 115.352L22.115 115.557C22.4932 115.54 22.829 115.489 23.1253 115.403C23.9864 115.147 24.4979 114.582 24.6992 113.751C24.5303 113.735 24.3669 113.725 24.2095 113.725ZM48.0747 113.758C47.5871 113.821 47.3066 114.109 47.2619 114.61L47.1504 114.612L47.1101 114.719C46.8193 114.796 46.4732 114.849 46.364 115.003C46.2157 115.217 46.3617 115.403 46.563 115.403C46.6262 115.403 46.6963 115.384 46.7631 115.34C46.9617 115.217 47.0194 114.952 47.1101 114.719L47.2445 114.684L47.2619 114.61C47.7837 114.603 48.3069 114.609 48.8243 114.57L49.2151 114.298L48.6574 113.777L48.0747 113.758ZM301.554 113.9L301.16 114.163C301.266 114.398 301.395 114.514 301.533 114.514C301.666 114.514 301.804 114.409 301.937 114.198L301.554 113.9ZM419.665 113.926L419.268 114.335L419.65 114.468L420.059 114.202L419.665 113.926ZM24.8175 113.753L24.8119 113.642C25.3922 113.393 25.959 113.016 26.5626 112.972C28.3228 112.841 28.3916 111.976 28.2698 110.963H28.3778L28.3284 110.875C28.3731 110.873 28.4181 110.873 28.464 110.873C28.5847 110.873 28.7089 110.877 28.8319 110.882C28.9561 110.887 29.0803 110.889 29.2021 110.889C29.809 110.889 30.3655 110.791 30.6412 110.105C30.8104 109.681 31.0573 109.246 31.4023 108.9C31.7483 108.553 31.7633 108.371 31.1965 108.239L30.6483 108.202C30.0815 108.467 29.5273 108.592 28.9732 108.592C28.3766 108.592 27.7801 108.446 27.1697 108.174C27.1421 108.16 27.1109 108.155 27.0765 108.155C26.8513 108.155 26.4729 108.371 26.1833 108.465C26.3487 108.714 26.5179 108.965 26.6809 109.216C26.8387 109.465 26.9902 109.714 27.1444 109.965L27.0856 109.944L27.0844 110.021C26.6271 110.051 26.1374 110.093 26.3028 110.603L26.4178 110.696L27.0753 110.854L27.0741 110.963H27.158C27.0582 111.396 26.7466 111.743 26.2027 111.794C24.6141 111.941 24.7786 112.811 24.8119 113.642L24.728 113.679L24.6992 113.751L24.8175 113.753ZM49.9841 109.916C49.3955 109.916 48.837 110.04 48.4553 110.566C48.1115 111.036 49.1151 112.227 50.2784 112.713C50.9464 112.992 51.6695 113.192 52.3431 113.465C52.6339 113.583 52.9108 113.637 53.1707 113.637C53.6466 113.637 54.0627 113.448 54.387 113.104C55.1872 112.26 55.8561 111.336 56.6298 110.473C56.8034 110.279 56.9759 110.21 57.1507 110.21C57.447 110.21 57.7449 110.41 58.0471 110.54C58.2425 110.621 58.3897 110.656 58.5024 110.656C58.9256 110.656 58.8679 110.177 59.0221 109.935C59.0992 108.693 58.8911 108.36 57.8117 108.15C57.2528 108.041 56.6472 108.081 56.0942 107.962C55.4744 107.829 55.0021 107.75 54.6271 107.75C54.0341 107.75 53.6857 107.95 53.3891 108.46C52.9247 109.26 52.6213 110.005 51.367 110.005C51.2625 110.005 51.151 110 51.0324 109.991C50.6934 109.961 50.3334 109.916 49.9841 109.916ZM31.2413 112.939L30.8666 113.2C30.9702 113.435 31.1 113.553 31.2392 113.553C31.369 113.553 31.5082 113.448 31.6392 113.237L31.2413 112.939ZM364.827 113.234L365.253 113.542L365.68 113.267L365.265 112.962L364.827 113.234ZM24.3498 105.368L23.9002 105.928C24.2289 106.028 24.5579 106.124 24.8866 106.224C25.2003 106.08 25.5144 105.935 25.8269 105.793C25.3372 105.64 24.8566 105.456 24.3498 105.368ZM37.0974 105.542L36.7122 105.768L37.432 105.917V105.652L37.0974 105.542ZM37.2457 100.637C36.8434 100.637 36.4364 100.723 36.0282 100.856L35.5868 101.11L35.9835 101.398C36.6306 101.473 37.2848 101.547 37.9364 101.547C37.9826 101.547 38.0285 101.545 38.0744 101.545L38.5918 101.01C38.148 100.744 37.6998 100.637 37.2457 100.637ZM26.0453 96.0606C26.1386 96.2956 26.2051 96.5631 26.4052 96.6678C26.4764 96.705 26.5464 96.7213 26.6109 96.7213C26.8351 96.7213 26.9823 96.526 26.8122 96.3305C26.6777 96.1746 26.3396 96.1304 26.0453 96.0606ZM25.9982 95.9442L25.8969 96.028L26.0453 96.0606L25.9982 95.9442ZM30.0723 95.2718L29.8793 95.2835L29.7286 95.5486L30.0356 95.8349C30.4667 95.6814 30.5344 95.4743 30.2333 95.2928L30.0723 95.2718ZM54.8641 84.7873C54.5088 84.8176 54.1457 84.8246 53.8008 84.8921L53.3764 85.1643L54.003 85.6623C54.2778 85.7018 54.5639 85.7204 54.8502 85.7204C55.1204 85.7204 55.3917 85.7041 55.6528 85.6669L56.0124 85.4784L56.3505 85.1945L56.1457 85.0364L55.9241 84.9223C55.5824 84.8478 55.2181 84.8315 54.8641 84.7873ZM46.8019 75.4896C46.0547 75.4896 45.3087 75.5059 44.573 75.5804C44.0547 75.6315 43.6201 75.9783 43.6489 76.5437C43.681 77.151 43.5924 77.8256 44.3408 78.1561C45.3169 78.5842 46.379 78.9006 47.4297 79.2078C48.5874 79.5428 48.3252 80.3083 48.4185 80.9715L48.3149 81.0157L48.4379 81.1064L48.4185 80.9715C48.8667 80.7853 49.337 80.6224 49.7496 80.3944C50.4473 80.0105 50.7728 79.5662 49.9497 79.0054C49.515 78.7099 49.1507 78.3516 48.7496 78.0258C48.284 77.6466 48.2678 77.1603 48.5771 76.795C49.1574 76.1063 49.7393 75.5105 48.0241 75.4989C47.6171 75.4942 47.2101 75.4896 46.8019 75.4896ZM36.1006 76.5413L35.6501 76.7391C35.2636 77.0416 34.8752 77.3487 34.5603 77.6977L34.919 78.0583L35.0832 78.205C35.1695 78.212 35.2522 78.2166 35.3316 78.2166C35.6477 78.2166 35.9123 78.1538 36.1089 78.0305C36.3546 77.8769 36.495 77.6279 36.4997 77.2928C36.5029 77.0439 36.2422 76.7926 36.1006 76.5413ZM40.7645 75.4524C40.4208 75.478 40.0494 75.4803 39.6977 75.5455L39.3102 75.8223L39.8022 76.3621C40.0597 76.397 40.3255 76.4134 40.5909 76.4134C40.8817 76.4134 41.1748 76.3924 41.4555 76.3528C41.7519 76.3086 42.0003 76.0574 42.2681 75.8992C41.9579 75.7595 41.6577 75.6036 41.3334 75.492L40.7645 75.4524ZM489.898 69.931C489.848 69.931 489.792 69.9333 489.736 69.938C489.082 69.9961 488.773 70.2172 488.738 70.7268C488.703 71.2247 489.209 71.6342 489.818 71.6342C489.93 71.6342 490.048 71.6202 490.162 71.59C490.725 71.4457 491.007 71.106 490.895 70.6034C490.695 70.2474 490.483 69.931 489.898 69.931ZM480.242 68.8398L480.295 68.9746L480.342 68.9793C480.086 69.3353 479.809 69.6821 479.591 70.052C479.435 70.3126 479.271 70.6197 479.303 70.8942C479.327 71.1036 479.792 71.469 479.818 71.469C480.624 71.0455 481.546 70.6476 481.469 69.7308C481.428 69.2259 480.966 68.9909 480.342 68.9793L480.413 68.8793L480.242 68.8398ZM483.314 69.0678L482.952 69.326L483.456 69.6145L483.635 69.3563L483.314 69.0678ZM479.703 68.2162C479.497 68.2162 479.365 68.3906 479.524 68.5768C479.653 68.7234 479.965 68.7723 480.242 68.8398C480.165 68.6211 480.106 68.379 479.921 68.2766C479.847 68.2347 479.771 68.2162 479.703 68.2162ZM44.1615 67.0783C43.8202 67.0783 43.4682 67.1389 43.1395 67.2133L42.7119 67.5042L43.0821 67.7904C43.6121 67.8904 44.1568 67.9463 44.3075 67.9672C46.9194 67.944 47.4953 67.46 47.1619 65.8801L46.8355 65.5497C46.5538 65.5823 46.0641 65.6916 46.0538 65.7963C45.9641 66.6968 45.379 67.0783 44.3052 67.0783C44.2754 67.0783 44.2454 67.0783 44.2145 67.0783C44.1972 67.0783 44.1786 67.0783 44.1615 67.0783ZM30.1021 67.19L29.7436 67.46L30.2504 67.7577L30.4264 67.4879L30.1021 67.19ZM482.375 64.5049C482.349 64.5049 482.328 64.5073 482.308 64.5142C481.69 64.705 481.142 65.1123 480.68 65.5102C480.271 65.8568 480.354 66.3431 480.727 66.6898C481.016 66.9527 481.569 67.0761 482.134 67.0761C482.782 67.0761 483.438 66.9131 483.706 66.6037L483.803 66.1872C483.806 65.6637 482.835 64.5049 482.375 64.5049ZM487.39 63.2927L487.346 63.3881C487.055 63.4649 486.716 63.5114 486.569 63.6697C486.398 63.8581 486.54 64.0513 486.763 64.0513C486.828 64.0513 486.896 64.0349 486.969 64C487.175 63.8977 487.243 63.6231 487.346 63.3881L487.476 63.3579L487.39 63.2927ZM21.2986 62.3504L21.178 62.3527L21.2804 62.4365L21.2986 62.3504ZM21.2986 62.3504C21.5276 62.3504 21.7551 62.3527 21.9837 62.3527C22.276 62.3527 22.5679 62.3481 22.8563 62.3318L23.2451 62.0618L22.685 61.5383C22.5438 61.515 22.4105 61.5034 22.2886 61.5034C21.693 61.5034 21.3481 61.7943 21.2986 62.3504ZM24.9222 52.1499C24.6818 52.1499 24.4302 52.2382 24.1842 52.3127L23.7736 52.5756L24.1692 52.8525C24.4084 52.9362 24.6533 53.0061 24.8878 53.0061C25.1291 53.0061 25.359 52.934 25.5626 52.7245L25.5694 52.4896C25.3763 52.2337 25.1556 52.1499 24.9222 52.1499ZM481.666 51.2377C481.428 51.2377 481.181 51.3192 480.942 51.3913L480.542 51.6612C481.004 51.7939 481.454 51.9568 481.931 52.0289L482.337 51.5705C482.134 51.3192 481.905 51.2377 481.666 51.2377ZM483.144 44.881C483.044 45.1626 482.832 45.451 482.867 45.7209C482.926 46.1863 483.285 46.4749 483.867 46.4749C483.926 46.4749 483.985 46.4725 484.047 46.4678C484.689 46.4073 484.986 46.0862 485.006 45.5953L485.124 45.6441L485.018 45.5558L485.006 45.5953C484.541 45.3952 484.079 45.1928 483.611 45.002L483.144 44.881ZM15.145 44.6461C15.0082 44.6461 14.8278 44.6646 14.5599 44.6646C14.4496 44.6716 14.0829 44.6716 13.7345 44.7321L13.3575 45.0113L13.8519 45.5371C14.1114 45.572 14.3816 45.5906 14.6518 45.5906C14.9325 45.5906 15.213 45.5697 15.4831 45.5325C15.7636 45.4929 15.997 45.2393 16.2509 45.0811C15.9519 44.9415 15.6647 44.7809 15.3495 44.6739C15.2921 44.653 15.2268 44.6461 15.145 44.6461ZM11.3251 44.0294L11.0273 44.0573L10.6526 44.3413C10.7904 44.7228 10.9952 45.0881 11.1756 45.4581C11.3619 45.2463 11.5482 45.03 11.7342 44.8159L11.6285 44.29L11.3251 44.0294ZM23.0541 37.4121C22.9287 37.4121 22.17 37.8425 21.8104 38.1241C21.2975 38.5243 21.477 38.9268 22.1368 39.0362C23.361 39.2386 24.3601 40.0856 25.6097 40.0856C25.8534 40.0856 26.105 40.053 26.3707 39.9786C26.8201 39.9413 27.2569 39.9879 27.5617 39.8529C27.8446 39.7273 28.0559 39.4248 28.1765 39.1642C28.4193 38.6384 27.9997 38.245 27.449 38.159C27.0868 38.1031 26.7133 38.0939 26.3363 38.0939C26.2236 38.0939 26.1097 38.0938 25.997 38.0961C25.8843 38.0961 25.7719 38.0961 25.6591 38.0961C24.7439 38.0961 23.8393 38.0357 23.0691 37.4145C23.0656 37.4121 23.0611 37.4121 23.0541 37.4121ZM13.399 36.4838L13.215 36.7629L13.5414 37.0561C13.999 36.9049 14.077 36.6931 13.7689 36.5093L13.399 36.4838ZM28.9237 36.3837L28.5697 36.6605L29.0779 36.9584L29.2469 36.6838L28.9237 36.3837ZM25.3016 35.5344L24.9373 35.7764C25.0556 35.9765 25.1959 36.0766 25.3372 36.0766C25.4314 36.0766 25.5279 36.03 25.6165 35.9392L25.6268 35.653L25.3016 35.5344ZM28.7274 33.701L28.557 33.9708L28.8755 34.2616C29.3204 34.1081 29.394 33.901 29.0918 33.7219L28.7274 33.701ZM22.9852 31.5905C22.8069 31.5905 22.6229 31.6091 22.4299 31.6487C22.0794 31.7208 21.7539 31.872 21.4172 31.9837C21.6206 32.2257 21.7563 32.5492 22.0391 32.6934C23.1162 33.2542 24.2095 33.8126 25.3775 34.2268C25.389 34.2314 25.4028 34.2361 25.4187 34.2361C25.6615 34.2361 26.2627 33.7032 26.5891 33.3798C26.7418 33.2262 26.8708 33.1867 26.9626 33.1867C27.0385 33.1867 27.0891 33.2146 27.1109 33.2286L26.9281 33.0168L26.5753 32.7283C25.2695 32.6027 24.3313 31.5905 22.9852 31.5905ZM479.121 32.491L479.071 32.6073C478.794 32.6771 478.476 32.7283 478.347 32.8795C478.185 33.0657 478.317 33.2449 478.52 33.2449C478.585 33.2449 478.656 33.2263 478.729 33.1867C478.92 33.082 478.982 32.8284 479.071 32.6073L479.221 32.5678L479.121 32.491ZM83.0104 31.8627L82.8391 32.1071L83.1655 32.3816C83.6172 32.242 83.6955 32.0466 83.3921 31.8837L83.0104 31.8627ZM45.4341 31.7814L44.9962 32.0582L45.3858 32.356L45.8193 32.1024L45.4341 31.7814ZM52.0706 30.7436C51.7566 30.8228 51.4382 30.8925 51.136 30.9948L51.1474 31.2694C51.4108 31.3765 51.7072 31.5323 51.9753 31.5323C51.9935 31.5323 52.0132 31.5324 52.0315 31.5301C52.3396 31.5021 52.6189 31.2834 52.9108 31.1484C52.6304 31.0135 52.3511 30.8786 52.0706 30.7436ZM64.3158 30.8436L63.8791 31.1158L64.2652 31.4067L64.701 31.1624L64.3158 30.8436ZM42.9603 28.8798C42.4603 28.9147 41.9714 29.0428 41.3714 29.1591C41.7875 29.3895 42.0509 29.6383 42.352 29.6709C42.3752 29.6732 42.3993 29.6756 42.4235 29.6756C42.7004 29.6756 43.0073 29.5127 43.2993 29.4289L42.9603 28.8798ZM46.5435 29.0148L46.1801 29.2428C46.2996 29.436 46.4411 29.5337 46.5824 29.5337C46.678 29.5337 46.7746 29.4895 46.864 29.4011L46.8734 29.1288L46.5435 29.0148ZM85.6393 27.1767C85.1646 27.1767 84.7679 27.5326 84.3565 27.9258C84.0036 28.2609 83.9312 28.4936 84.3747 28.5983C85.2761 28.8054 86.3256 28.7961 87.0831 29.1684C87.4695 29.3592 87.742 29.4336 87.9409 29.4336C88.6031 29.4336 88.4283 28.5843 88.7938 28.2655C89.0066 28.0817 89.3388 27.9864 89.634 27.8654V27.9072L89.7538 27.9003C89.7767 28.3331 90.0031 28.6588 90.5757 28.7728C90.6355 28.7845 90.6999 28.7915 90.7653 28.7915C91.2918 28.7915 91.9148 28.4308 91.6873 28.24C91.4677 28.0538 91.0825 27.9491 90.7494 27.9003C90.6272 27.884 90.5033 27.877 90.3768 27.877C90.1711 27.877 89.9618 27.8933 89.7538 27.9003L89.7297 27.8259L89.634 27.8654C89.6331 27.5676 89.6296 27.2697 89.6284 26.9719C89.4433 26.9416 89.2641 26.93 89.0893 26.93C88.1811 26.93 87.388 27.2883 86.5843 27.6164C86.229 27.3023 85.9197 27.1767 85.6393 27.1767ZM34.6133 28.1121L34.4567 28.3796L34.7707 28.6727C35.2086 28.5122 35.2787 28.3005 34.9776 28.119L34.6133 28.1121ZM89.6284 26.9719L89.7467 26.9812L89.6858 26.8905C89.8962 26.8928 90.1102 26.9021 90.3203 26.9021C90.4801 26.9021 90.639 26.8974 90.7941 26.8741C91.9895 26.702 92.3391 25.9598 91.5872 25.278C91.3309 25.0453 91.071 24.8126 90.7814 24.6055C90.3895 24.331 89.9595 24.189 89.5916 24.189C89.2514 24.189 88.9639 24.3101 88.8112 24.5591C88.5581 24.9639 88.4442 25.3943 88.88 25.8271C89.202 26.1482 89.4283 26.5275 89.6858 26.8905H89.6284V26.9719ZM36.987 26.2436L36.8157 26.5158L37.1398 26.8044C37.5906 26.6508 37.6665 26.4414 37.3617 26.2669L36.987 26.2436ZM44.8467 22.1624C43.3119 22.1624 42.1177 23.0466 40.7072 23.3584C40.0426 23.5027 40.0253 24.6196 40.6127 24.9034C40.9691 25.0756 41.8464 25.157 42.8993 25.157C43.4452 25.157 44.0397 25.1361 44.6306 25.0919C45.1916 25.0524 45.7572 25.036 46.3216 25.036C46.7354 25.036 47.1504 25.0453 47.5621 25.0569C47.6689 25.0616 47.7746 25.064 47.8805 25.064C48.5783 25.064 49.2416 24.9708 49.7198 24.5474C50.3243 24.0122 51.7487 24.4334 51.844 23.2887C51.9049 22.5674 51.2531 22.2649 49.123 22.2416C48.9276 22.2416 48.7322 22.2393 48.5368 22.2393C48.1448 22.2393 47.754 22.2416 47.3631 22.2416V22.2532C46.9929 22.2532 46.6124 22.2881 46.2434 22.2881C46.0262 22.2881 45.8134 22.2765 45.6089 22.237C45.3443 22.1858 45.0915 22.1624 44.8467 22.1624ZM38.3596 23.3142L37.9882 23.5911L38.5194 23.8866L38.7022 23.6144L38.3596 23.3142ZM64.1228 22.5603L63.9871 22.8023L64.2861 23.0909L64.4803 22.5603H64.1228ZM31.3634 19.7333C31.2792 19.7333 31.1783 19.7636 31.0553 19.8287C30.015 20.3825 28.8996 20.3499 27.7984 20.5291C27.2236 20.6198 27.2339 20.8269 27.5626 21.1736C27.8949 21.5226 28.0653 21.967 28.3031 22.3742C28.4549 22.6325 28.5526 23.0187 28.8628 23.0187C28.987 23.0187 29.1468 22.9559 29.3572 22.7976C30.155 22.202 31.1103 22.3207 32.0588 22.2486C32.6312 22.2044 32.9738 21.8367 32.9726 21.3434C32.422 21.2573 32.0232 21.02 31.8666 20.5779C31.7586 20.2708 31.7289 19.7333 31.3634 19.7333ZM32.9726 21.3434L33.083 21.3784L33.1186 21.3085L32.9785 21.2923L32.9726 21.3434ZM33.1186 21.3085C33.2934 21.3388 33.4635 21.3505 33.6268 21.3505C34.9891 21.3505 35.9732 20.4383 37.2319 20.1847L37.4744 19.8776C37.1409 19.7426 36.8213 19.5285 36.4708 19.4913C36.2628 19.4704 36.065 19.4588 35.8764 19.4588C34.4211 19.4588 33.5279 20.1219 33.1186 21.3085ZM55.5492 20.45C55.6631 20.6594 55.7687 20.8734 55.9126 21.0712L56.2908 21.0317C56.4079 20.5105 55.9803 20.4779 55.5492 20.45ZM55.3699 20.3336L55.4079 20.4384L55.5492 20.45L55.4985 20.3639L55.3699 20.3336ZM54.809 19.6542C54.5721 19.6542 54.4032 19.8543 54.5639 20.0475C54.7007 20.2103 55.0642 20.2569 55.3699 20.3336C55.2778 20.0917 55.2216 19.8101 55.0191 19.7054C54.9467 19.6705 54.8755 19.6542 54.809 19.6542ZM65.5274 17.7904C64.94 17.937 64.9229 18.1651 65.4827 18.3652L65.6598 18.2744L65.8897 18.093L65.6896 17.8952L65.5274 17.7904ZM55.5068 16.6899C55.2893 16.6899 55.0665 16.7458 54.8423 16.8319L54.4388 17.1157C54.9055 17.253 55.3629 17.4275 55.8458 17.4996L56.2884 17.0087C56.0424 16.7783 55.779 16.6899 55.5068 16.6899ZM379.135 9.26286C378.673 9.26286 378.149 9.39081 377.772 9.58393C376.943 10.0167 376.51 10.6776 376.304 11.485C376.174 11.9992 375.262 12.3436 375.945 13.0462C376.401 13.5116 376.575 14.1398 377.013 14.6191C377.11 14.7261 377.416 14.7889 377.693 14.7889C377.846 14.7889 377.987 14.7703 378.084 14.7308C379.986 13.9583 380.312 12.3621 381.095 11.0173C381.151 10.6031 380.05 9.34902 379.376 9.27457C379.3 9.26526 379.217 9.26286 379.135 9.26286ZM46.0032 14.7563C47.1895 14.7563 48.015 14.7867 48.6816 14.7867C49.1519 14.7867 49.5427 14.7703 49.9244 14.7168C50.4208 14.6493 50.8761 14.2305 51.2613 13.9024C51.452 13.7419 51.4888 13.4347 51.4982 13.1904L51.0497 12.9415L50.4853 12.9346C50.2187 12.8392 49.9553 12.8019 49.6933 12.8019C49.1598 12.8019 48.6357 12.9624 48.1104 13.1207C47.585 13.2812 47.0594 13.4395 46.525 13.4395C46.1307 13.4395 45.7319 13.3533 45.3237 13.116L44.9915 13.4534C44.9385 13.7373 44.8317 14.1072 45.0018 14.3073C45.3352 14.7052 45.8399 14.775 46.0135 14.775C46.0906 14.775 46.1021 14.761 46.0032 14.7563ZM66.1749 13.9071C65.9447 13.9071 65.7046 13.9792 65.4712 14.042L65.2631 14.1584L65.0701 14.3096L65.7219 14.5214L66.385 14.6866L66.8588 14.2468C66.6551 13.9885 66.4209 13.9071 66.1749 13.9071ZM417.302 12.9717L416.804 12.9788C416.457 13.0579 416.125 13.1789 415.786 13.2789L416.331 13.8164C416.813 14.0328 417.361 14.1607 417.87 14.3469C418.049 14.412 418.211 14.4423 418.352 14.4423C418.697 14.4423 418.917 14.2584 418.953 13.935C418.997 13.5697 418.917 13.3044 418.467 13.1858C418.117 13.0927 417.746 13.0508 417.302 12.9717ZM444.173 12.0457C443.346 12.0457 441.766 12.874 441.628 13.4301L441.707 13.5139L442.461 13.8466C442.976 13.7699 443.349 13.6651 443.676 13.4837C443.997 13.2998 444.274 13.0369 444.586 12.6437L444.609 12.3086L444.194 12.0457C444.188 12.0457 444.179 12.0457 444.173 12.0457ZM429.98 12.9834C429.497 13.0625 429.041 13.2323 428.576 13.3742C428.861 13.5278 429.144 13.6837 429.429 13.8396C429.75 13.7395 430.068 13.6395 430.389 13.5394L429.98 12.9834ZM65.5551 11.2755C65.4874 11.2755 65.4115 11.2918 65.3344 11.336C65.1448 11.4454 65.086 11.699 65.0033 11.9247L64.8423 11.9666L64.8079 12.0527C63.4974 12.0783 62.1869 12.0968 60.8776 12.1387L60.4073 12.3738C60.5833 12.6344 60.7613 12.9019 61.0062 13.1207C61.2637 13.3487 61.5924 13.5255 61.8891 13.7256C62.6145 12.909 64.4712 13.2789 64.8079 12.0527L64.9562 12.0503L65.0033 11.9247C65.2873 11.8479 65.6104 11.792 65.7449 11.6338C65.9012 11.45 65.7631 11.2755 65.5551 11.2755ZM92.6517 13.0765L92.2932 13.3371L92.7897 13.6302L92.9701 13.3673L92.6517 13.0765ZM241.557 11.108C241.168 11.108 240.783 11.1103 240.394 11.1196L239.988 11.4035L240.023 11.6711C240.536 11.7758 241.05 11.8991 241.574 11.934C241.648 11.9386 241.724 11.941 241.795 11.941C242.454 11.941 242.949 11.7246 243.04 11.1127C242.546 11.1127 242.051 11.108 241.557 11.108ZM84.2173 11.343L84.0657 11.6036L84.3621 11.8991L84.5645 11.3569L84.2173 11.343ZM80.7664 11.2895L80.3974 11.5268C80.518 11.7292 80.6605 11.8316 80.8044 11.8316C80.8986 11.8316 80.9927 11.7875 81.0813 11.699L81.1169 11.4222L80.7664 11.2895ZM176.382 11.2708L176.024 11.5128C176.137 11.7129 176.275 11.813 176.416 11.813C176.511 11.813 176.607 11.7664 176.696 11.6734L176.704 11.3918L176.382 11.2708ZM243.04 11.1127H243.169L243.181 11.0219C243.861 11.0056 244.22 10.7334 244.235 10.1913L244.358 10.1796L244.414 10.0819C244.814 10.054 245.224 10.0307 245.121 9.53042L244.747 9.48862L244.414 10.0819L244.247 10.0936L244.235 10.1913C243.567 10.2169 243.175 10.4612 243.181 11.0219L243.063 11.0335L243.04 11.1127ZM401.798 9.34898C401.648 9.59096 401.401 9.826 401.372 10.075C401.286 10.8172 401.928 10.9684 402.622 10.9684C402.67 10.9684 402.714 10.9684 402.761 10.9684C402.97 10.9614 403.167 10.6846 403.588 10.3658C403.123 10.0889 402.696 9.82829 402.26 9.57234L401.798 9.34898ZM415.972 10.3123L415.592 10.5775C415.713 10.7939 415.86 10.9033 416.01 10.9033C416.113 10.9033 416.219 10.852 416.316 10.7473L416.325 10.4449L415.972 10.3123ZM102.101 9.32342L101.72 9.65845L102.071 9.99816L102.459 9.66778L102.101 9.32342ZM195.155 9.45373L194.999 9.698L195.287 9.97021C195.701 9.83061 195.773 9.63983 195.495 9.47463L195.155 9.45373ZM57.3264 9.38625L56.947 9.8073L57.2967 9.95396L57.6792 9.68176L57.3264 9.38625ZM199.573 8.38567L199.052 8.46713L198.525 8.63232L198.718 9.0069C198.958 9.24889 199.239 9.46294 199.492 9.69562C199.674 9.86547 199.842 9.95158 199.992 9.95158C200.14 9.95158 200.271 9.87019 200.384 9.70266L200.556 9.31171C200.604 8.74399 200.219 8.42522 199.573 8.38567ZM183.705 7.32465C183.392 7.32465 183.083 7.341 182.784 7.38986C182.272 7.47595 181.803 7.82722 181.378 8.12039C181.116 8.30188 180.974 8.59512 180.778 8.83943C181.074 8.92087 181.465 9.11858 181.696 9.11858C181.738 9.11858 181.774 9.11164 181.805 9.09768C183.197 8.39499 184.705 8.21355 186.284 8.21355C186.442 8.21355 186.602 8.21582 186.762 8.22047L187.273 7.66673L186.847 7.39452C186.585 7.37823 186.321 7.3735 186.057 7.3735C185.741 7.3735 185.424 7.38055 185.107 7.38055V7.35727C184.643 7.35727 184.17 7.32465 183.705 7.32465ZM175.987 8.38341C175.665 8.38341 175.326 8.52992 174.967 8.61369L175.645 9.09541C175.664 9.09541 175.683 9.09768 175.702 9.09768C176.017 9.09768 176.35 8.93018 176.675 8.84409L176.054 8.38567C176.032 8.38335 176.009 8.38341 175.987 8.38341ZM79.458 7.58299L79.2938 7.83885L79.6213 8.12971C80.0766 7.97847 80.1513 7.76677 79.8385 7.58994L79.458 7.58299ZM119.535 5.58197C119.528 5.58197 119.52 5.58423 119.513 5.58423C118.057 5.76338 116.888 6.43118 115.778 7.15015L115.736 7.58994C115.776 7.72256 115.92 7.83429 116.135 8.09721C117.132 7.03621 118.838 7.59457 120.031 6.94075C120.241 6.82674 120.309 6.38002 120.22 6.14037C120.137 5.91699 119.747 5.58197 119.535 5.58197ZM102.817 6.41962C102.035 6.41962 101.375 7.08737 101.622 7.7249L101.935 8.05994C101.95 8.05994 101.966 8.06223 101.982 8.06223C102.547 8.06223 103.568 7.1386 103.489 6.71046L103.072 6.44279C102.987 6.42651 102.901 6.41962 102.817 6.41962ZM358.741 7.30374L358.699 7.40146C358.408 7.47824 358.076 7.52715 357.928 7.68536C357.764 7.86685 357.902 8.05063 358.126 8.05063C358.19 8.05063 358.264 8.03439 358.34 7.9995C358.538 7.89944 358.602 7.62949 358.699 7.40146L358.826 7.36885L358.741 7.30374ZM91.9495 7.41077C91.6746 7.47824 91.3641 7.5248 91.232 7.67139C91.0666 7.85287 91.1941 8.02972 91.4057 8.02972C91.4701 8.02972 91.5425 8.01344 91.6172 7.97621C91.8024 7.88081 91.8633 7.62949 91.9495 7.41077ZM92.0599 7.31772C92.3803 7.42708 92.7094 7.5248 93.0184 7.65277C93.5151 7.85985 93.8027 7.98087 93.9842 7.98087C94.2279 7.98087 94.2829 7.7644 94.4048 7.25717C94.4763 6.96167 94.4095 6.64525 94.4842 6.34975C94.5993 5.89603 94.8715 5.58197 95.5463 5.58197C95.5693 5.58197 95.5934 5.58423 95.6175 5.58423C96.2994 5.60516 96.6879 5.84253 96.7673 6.35442C96.8465 6.87561 97.1914 7.15715 97.8238 7.24092L98.3883 7.26183L98.818 6.99428C98.5525 6.45912 98.2111 5.95189 97.9477 5.41905C97.3915 4.28592 96.4742 3.56001 94.9901 3.56001C94.8315 3.56001 94.6646 3.56931 94.4922 3.58559C94.2061 3.61351 93.9254 3.6275 93.6496 3.6275C92.2344 3.6275 90.9377 3.2738 89.6846 2.73633L89.7503 2.62932L89.6296 2.71304L89.6846 2.73633C89.3147 3.34129 88.9457 3.9462 88.5766 4.55116C90.1284 5.1631 91.3332 6.05196 92.0599 7.31772L91.9954 7.29443L91.9495 7.41077L92.0999 7.37589L92.0599 7.31772ZM370.212 6.46848L369.768 7.00359C370.089 7.09898 370.406 7.19676 370.724 7.29216C371.027 7.15488 371.33 7.01761 371.631 6.88033C371.16 6.73141 370.701 6.55225 370.212 6.46848ZM358.699 6.33577L358.741 6.44279L358.832 6.36838L358.699 6.33577ZM164.731 4.70239L164.275 4.9095C163.894 5.21431 163.512 5.51907 163.202 5.86577L163.39 6.07062L163.752 6.37077C163.831 6.37775 163.907 6.38235 163.981 6.38235C164.298 6.38235 164.561 6.31718 164.755 6.18921C164.996 6.03331 165.132 5.782 165.135 5.44461C165.137 5.19797 164.874 4.94904 164.731 4.70239ZM358.134 5.66342C357.925 5.66342 357.781 5.84482 357.937 6.04492C358.061 6.20547 358.405 6.25665 358.699 6.33577C358.605 6.10542 358.543 5.84026 358.343 5.72159C358.273 5.6797 358.199 5.66342 358.134 5.66342ZM145.508 4.46278C145.182 4.58145 144.695 4.7606 144.21 4.93744C144.69 5.37953 145.086 5.92166 145.681 6.22182C145.78 6.27301 145.918 6.29396 146.076 6.29396C146.428 6.29396 146.868 6.18452 147.139 6.04492C147.71 5.75175 147.446 4.73961 146.82 4.59535C146.468 4.51158 146.083 4.5163 145.508 4.46278ZM110.53 3.93459L109.832 4.24635C109.719 4.6675 109.678 5.11891 109.754 5.54471C109.799 5.79601 110.115 6.01709 110.309 6.25443C110.507 6.02174 110.735 5.80064 110.891 5.554L110.905 5.11888H110.883C110.883 4.83037 110.919 4.53487 110.867 4.25101L110.53 3.93459ZM161.104 5.60753L160.717 5.91699L161.057 6.25204L161.502 5.94962L161.104 5.60753ZM130.42 5.60526L130.071 5.87042L130.559 6.16592L130.733 5.89609L130.42 5.60526ZM180.508 5.42371L180.452 5.52606C180.029 5.54933 179.622 5.59354 179.737 6.10776L180.115 6.14502L180.452 5.52606L180.625 5.5121L180.508 5.42371ZM187.079 4.67682C186.899 5.03049 186.671 5.37714 186.57 5.74477L187.165 6.09843C187.779 5.78432 187.645 5.37946 187.445 4.9839L187.079 4.67682ZM86.6728 3.76474C86.5269 3.76474 86.413 3.85777 86.3141 4.06718L86.2061 4.4697C86.1049 5.00253 86.5142 5.27254 87.074 5.37724C87.2258 5.40517 87.365 5.42143 87.4913 5.42143C88.0902 5.42143 88.4018 5.1026 88.4454 4.54185C88.0028 4.36037 87.5316 4.20686 87.1523 3.96255C86.9568 3.83691 86.8015 3.76474 86.6728 3.76474ZM177.717 4.73033L177.342 5.13284L177.687 5.27477L178.065 5.01425L177.717 4.73033ZM347.578 4.68147L347.21 4.92346L347.728 5.21432L347.914 4.95369L347.578 4.68147ZM88.4454 4.54185L88.5569 4.58603L88.5766 4.55116L88.456 4.49767L88.4454 4.54185ZM119.878 3.77632L119.477 4.20918L119.85 4.36041L120.247 4.07889L119.878 3.77632Z" fill="#F5B6C7"/>
</svg>
