<svg width="25" height="25" viewBox="0 0 25 25" fill="none" xmlns="http://www.w3.org/2000/svg">
<g id="Close 24" clip-path="url(#clip0_9834_53449)">
<path id="Vector (Stroke)" fill-rule="evenodd" clip-rule="evenodd" d="M5.91332 5.91334C6.20621 5.62045 6.68108 5.62045 6.97398 5.91334L12.5 11.4394L18.026 5.91339C18.3189 5.6205 18.7938 5.6205 19.0867 5.91339C19.3796 6.20628 19.3796 6.68116 19.0867 6.97405L13.5607 12.5001L19.0866 18.026C19.3795 18.3189 19.3795 18.7938 19.0866 19.0867C18.7937 19.3796 18.3189 19.3796 18.026 19.0867L12.5 13.5607L6.97403 19.0867C6.68114 19.3796 6.20626 19.3796 5.91337 19.0867C5.62048 18.7938 5.62048 18.3189 5.91337 18.026L11.4394 12.5001L5.91332 6.974C5.62042 6.68111 5.62042 6.20624 5.91332 5.91334Z" fill="#1C274C"/>
</g>
<defs>
<clipPath id="clip0_9834_53449">
<rect width="24" height="24" fill="white" transform="translate(0.5 0.5)"/>
</clipPath>
</defs>
</svg>
