<svg width="401" height="401" viewBox="0 0 401 401" fill="none" xmlns="http://www.w3.org/2000/svg">
<path fill-rule="evenodd" clip-rule="evenodd" d="M214.974 144.282C210.887 139.754 205.264 138.283 199.609 140.736C194.619 142.901 192.651 147.268 192.227 152.64C191.637 160.099 197.324 167.097 204.464 166.619C208.916 166.629 213.127 165.468 216.09 162.002C221.045 156.209 220.861 151.641 216.066 145.595C215.711 145.148 215.352 144.704 214.974 144.282ZM127.998 187.611C125.825 187.508 123.648 187.746 121.679 189.132C113.792 194.692 114.158 205.62 119.291 210.828C123.224 214.819 128.249 217.694 132.884 220.919C133.394 221.275 134.706 220.902 135.368 220.446C136.371 219.747 135.921 218.707 135.188 218.027C132.412 215.459 129.626 212.901 126.764 210.435C124.34 208.345 123.097 205.667 122.51 202.559C121.861 199.135 122.714 196.773 125.279 195.082C127.737 193.468 131.154 193.775 133.595 195.943C134.436 196.687 135.068 197.67 135.849 198.487C137.061 199.753 137.959 199.817 139.291 198.831C140.903 197.631 141.327 196.336 140.409 194.933C137.475 190.437 134.048 186.747 127.998 187.611ZM269.775 207.904C269.057 207.899 268.314 208.164 267.617 208.414C264.585 209.503 261.852 211.117 259.371 213.219C252.616 218.94 245.055 222.587 236.293 224.221C227.45 225.869 218.863 225.705 210.128 223.875C205.683 222.948 201.513 221.363 197.309 219.752C195.443 219.035 194.459 219.55 193.599 221.204C192.773 222.791 192.945 224.24 194.488 225.204C196.713 226.598 199.012 227.957 201.441 228.908C208.155 231.543 215.223 232.323 223.802 232.718C225.896 232.362 229.373 231.57 232.894 231.229C237.414 230.79 241.79 229.843 245.936 228.023C248.846 226.747 251.589 225.077 254.444 223.661C256.999 222.393 259.196 220.725 261.176 218.606C262.968 216.685 265.126 215.13 267.136 213.423C268.429 212.324 269.78 211.291 271.009 210.119C271.289 209.854 271.368 209.003 271.162 208.664C270.91 208.26 270.259 207.906 269.775 207.904ZM283.219 123.312C278.872 119.675 274.577 115.959 270.098 112.497C266.52 109.733 262.786 107.15 258.963 104.746C254.513 101.95 250.231 98.7489 245.076 97.3262C238.58 95.5331 232.152 93.5266 225.484 92.3591C221.572 91.6747 217.738 91.2257 213.8 91.417C211.927 91.5078 210.054 91.5446 208.181 91.5544C198.935 91.6059 189.925 93.3157 181.029 95.6974C170.347 98.5576 161.233 104.707 151.957 110.498C151.166 110.989 150.407 111.602 149.782 112.296C145.358 117.224 140.522 121.765 136.874 127.421C134.412 131.238 131.928 135.138 127.902 137.539C126.453 138.403 124.951 139.171 123.509 140.049C121.854 141.057 121.614 142.899 122.872 144.466C124.125 146.026 125.921 146.412 127.935 145.386C131.622 143.517 134.443 140.451 137.36 137.633C139.782 135.29 141.554 132.243 143.621 129.513C148.002 123.724 152.632 118.09 158.706 114.158C164.826 110.202 170.862 106.1 177.872 103.65C186.203 100.738 194.538 98.3368 203.374 97.8119C210.322 97.3974 217.261 97.2869 224.094 98.5968C229.967 99.7227 235.886 100.993 241.517 102.99C246.068 104.604 250.221 107.39 254.544 109.667C254.877 109.841 255.162 110.103 255.466 110.332C262.393 115.571 269.504 120.58 276.187 126.131C280.486 129.705 285.241 132.244 290.132 134.667C290.762 134.981 291.588 135.212 292.23 135.069C292.814 134.939 293.279 134.243 294.021 133.595C293.013 132.329 292.323 131.191 291.384 130.342C288.721 127.934 285.974 125.616 283.219 123.312ZM232.116 156.456C231.816 161.181 229.742 165.373 226.149 168.427C223.577 170.615 220.684 172.432 217.817 174.223C212.011 177.848 205.678 177.387 199.297 176.524C190.833 175.378 185.74 169.783 181.884 162.665C181.099 161.22 180.876 159.378 180.684 157.683C179.793 149.713 181.137 142.406 187 136.531C187.134 136.396 187.333 136.298 187.403 136.136C189.13 132.214 192.581 131.603 196.193 131.363C199.182 131.164 202.176 131.056 205.168 130.909C205.184 130.791 205.199 130.674 205.218 130.558C209.479 131.042 213.754 131.424 217.994 132.055C220.051 132.364 221.809 133.095 222.15 135.898C222.291 137.073 224.02 138.101 225.117 139.092C230.248 143.708 232.545 149.618 232.116 156.456ZM268.736 147.518C262.436 143.753 256.075 140.081 249.605 136.644C243.965 133.647 238.063 131.353 231.843 129.702C225.12 127.919 218.413 126.199 211.548 125.15C210.437 124.98 209.314 124.635 208.217 124.706C203.367 125.017 198.521 125.405 193.683 125.851C185.225 126.626 177.003 128.356 169.403 132.459C168.078 133.176 166.68 133.777 165.446 134.633C159.245 138.942 152.996 143.191 146.941 147.712C142.4 151.099 138.124 154.855 133.739 158.46C131.674 160.158 129.526 161.502 126.8 162.022C123.284 162.692 119.993 164.161 116.973 166.189C115.806 166.974 114.934 167.956 114.87 169.41C114.776 171.559 114.93 173.794 116.573 175.302C119.21 177.726 121.888 180.166 125.926 179.683C129.351 179.276 132.795 179.808 135.796 181.444C139.923 183.694 144.064 185.874 148.294 187.915C151.839 189.625 155.159 191.83 158.553 193.858C168.136 199.598 178.351 203.933 188.799 207.619C196.267 210.256 204.083 211.463 210.071 211.495C220.686 211.08 229.153 209.815 237.155 206.133C241.426 204.168 245.826 202.495 250.058 200.457C256.647 197.28 260.882 191.052 266.568 186.679C267.212 186.181 267.497 185.033 267.711 184.125C268.211 182.006 266.513 180.257 264.484 180.767C262.451 181.277 260.81 182.232 259.55 184.172C256.159 189.394 251.636 193.478 246.022 195.98C240.188 198.583 234.238 200.979 228.193 203.018C224.849 204.144 221.215 204.794 217.692 204.884C206.713 205.166 196.018 203.307 185.757 199.203C178.785 196.417 171.913 193.461 165.403 189.558C158.491 185.413 151.106 182.097 144.136 178.044C138.122 174.547 131.995 172.091 124.944 172.758C123.662 172.879 122.048 172.947 121.638 171.392C121.526 170.973 123.133 169.942 124.067 169.405C124.867 168.949 125.873 168.888 126.719 168.495C131.324 166.356 136.177 164.605 140.069 161.195C147.214 154.938 154.821 149.377 162.639 144.045C167.178 140.947 171.925 138.332 176.747 135.803C177.171 135.577 177.762 135.682 178.277 135.636C178.248 136.146 178.414 136.813 178.16 137.147C175.647 140.478 174.854 144.444 174.153 148.423C172.418 158.225 175.357 166.668 181.75 173.879C189.199 182.286 199.218 183.63 209.522 183.98C209.889 183.995 210.269 183.887 210.629 183.784C221.017 180.838 230.288 176.131 235.594 165.88C238.262 160.732 239.529 155.306 237.718 149.306C236.604 145.634 235.907 141.871 233.74 138.628C233.57 138.376 233.563 137.679 233.701 137.603C234.149 137.355 234.767 137.068 235.201 137.203C236.99 137.755 238.818 138.292 240.485 139.139C244.348 141.096 248.123 143.245 251.945 145.291C254.099 146.441 256.25 147.584 258.441 148.646C263.272 150.979 262.841 150.407 262.525 156.015C262.494 156.581 262.185 157.131 262.156 157.697C261.878 162.907 259.09 167.2 256.793 171.495C253.009 178.574 248.379 185.121 241.356 189.436C238.274 191.332 234.976 192.612 231.608 193.778C230.547 194.145 229.412 194.428 228.497 195.038C228.022 195.352 227.661 196.375 227.79 196.952C227.924 197.555 228.631 198.144 229.23 198.48C229.649 198.715 230.317 198.612 230.844 198.497C233.409 197.943 235.994 197.454 238.504 196.701C240.465 196.115 242.6 195.556 244.188 194.339C251.399 188.823 258.64 183.262 262.07 174.191C262.269 173.661 262.638 173.197 262.927 172.702C265.866 167.73 268.352 162.596 268.527 156.611C268.554 155.679 269.1 155.08 269.962 155.659C274.994 159.044 279.797 162.677 283.016 168.095C284.082 169.891 285.365 171.579 286.714 173.173C287.784 174.441 289.456 174.228 290.647 172.901C291.796 171.618 291.736 170.725 290.548 168.787C285.037 159.8 277.627 152.833 268.736 147.518ZM384.806 306.654C384.688 306.695 384.425 306.548 384.336 306.411C382.241 303.129 379.045 301.007 376.32 298.39C375.649 297.745 374.918 297.058 374.521 296.236C372.902 292.878 370.31 290.383 367.759 287.83C365.623 285.691 363.328 283.758 361.632 281.114C359.929 278.452 357.218 278.604 355.012 281.111C353.642 282.674 352.449 284.408 351.022 285.909C349.946 287.04 349.204 286.873 348.27 285.617C347.702 284.855 347.101 284.092 346.667 283.248C343.628 277.295 339.899 271.82 336.033 266.404C333.398 262.714 331.219 258.675 328.989 254.703C328.162 253.229 327.623 251.536 327.235 249.876C327.046 249.061 327.219 247.855 327.712 247.227C332.603 241.006 334.033 233.397 335.913 225.987C336.289 224.505 336.766 223.696 338.301 223.313C341.027 222.634 343.683 221.657 346.37 220.809C347.932 220.316 348.009 220.446 348.401 222.33C348.823 224.37 349.003 226.605 349.973 228.361C352.998 233.841 353.439 240.074 355.245 245.895C356.088 248.613 356.593 251.441 356.428 254.377C356.313 256.437 356.986 256.965 358.916 257.558C360.401 258.017 361.491 257.59 362.308 256.315C363.747 254.061 365.105 251.757 366.602 249.547C367.618 248.051 368.959 248.201 369.46 249.9C370.806 254.49 372.035 259.116 373.273 263.737C373.668 265.214 373.869 266.749 374.31 268.209C377.886 280.125 381.505 292.032 385.103 303.941C385.325 304.667 385.51 305.403 385.702 306.099C385.333 306.337 385.088 306.551 384.806 306.654ZM320.586 245.833C319.2 247.393 317.932 249.074 316.673 250.749C310.989 258.307 303.102 262.013 294.347 264.201C292.347 264.701 290.254 264.858 288.297 265.476C283.456 267.01 278.671 266.597 273.864 265.442C270.601 264.657 267.126 264.647 264.19 262.67C263.72 262.356 263.284 261.988 262.8 261.697C261.574 260.953 261.423 260.053 262.257 258.871C264.451 255.76 266.63 252.638 268.772 249.491C269.308 248.708 270.015 247.84 270.067 246.974C270.132 245.932 269.813 244.69 269.239 243.832C268.57 242.831 266.681 242.983 265.653 243.913C264.956 244.546 264.309 245.262 263.744 246.02C263.176 246.78 262.767 247.661 262.233 248.448C256.4 257.048 249.569 264.613 240.681 269.992C239.086 270.959 237.344 271.729 235.601 272.372C230.655 274.189 225.678 275.896 220.71 277.638C219.644 278.011 218.586 278.516 217.489 278.663C205.206 280.29 193.285 280.15 181.982 273.547C173.508 268.597 166.344 262.383 160.368 254.586C158.311 251.904 156.96 248.735 154.083 246.586C152.797 245.625 152.5 243.246 151.813 241.484C151.085 239.615 150.012 238.84 148.464 239.186C146.651 239.593 145.815 241.006 146.239 243.106C146.467 244.229 146.931 245.311 147.09 246.442C147.142 246.824 146.61 247.317 146.299 247.725C146.206 247.847 145.959 247.879 145.777 247.894C140.733 248.326 135.689 249.062 130.647 249.062C127.533 249.059 124.359 248.159 121.325 247.268C115.186 245.47 109.174 243.292 103.648 239.905C102.693 239.318 101.605 238.958 100.578 238.494C90.0533 233.753 82.1803 226.075 76.7337 215.766C74.2667 211.098 73.6224 205.976 73.6176 200.759C73.6152 198.455 73.984 196.147 73.905 193.851C73.8499 192.382 73.5649 190.768 72.8799 189.509C71.6081 187.169 68.7698 187.454 67.5842 189.895C67.0117 191.074 66.5303 192.301 66.0105 193.505C64.6908 192.855 63.3375 192.269 62.0633 191.54C57.6561 189.024 54.5927 185.077 52.1377 180.76C48.3461 174.088 45.8743 166.979 44.8156 159.164C43.5103 149.559 46.4851 140.973 49.1365 132.194C55.2083 121.394 62.2046 111.519 73.8571 106.314C74.8846 105.855 75.9409 105.435 77.0211 105.139C78.9349 104.609 79.4762 105.112 80.1133 107.251C80.7049 109.238 81.3444 111.251 82.2905 113.074C82.8893 114.224 84.0821 115.117 85.6102 114.477C87.0425 113.876 87.5814 112.677 87.2605 111.21C85.2605 102.043 89.7371 94.677 94.0532 87.5537C96.6711 83.2316 99.9789 79.204 104.099 75.9833C106.204 74.3398 108.252 72.8288 110.678 71.7005C118.482 68.0653 126.565 65.6762 135.183 66.5322C139.375 66.9492 143.442 67.8665 147.296 70.3783C151.478 73.106 156.426 74.6857 161.612 74.5581C162.083 74.5483 162.886 74.1878 162.948 73.8713C163.08 73.1821 163.085 72.169 162.682 71.7349C161.94 70.9254 160.843 70.4691 159.937 69.8044C158.876 69.0268 157.813 68.2369 156.838 67.3489C156.04 66.6278 155.945 65.6467 156.639 64.8004C158.922 62.0066 161.207 59.2126 163.595 56.5144C164.85 55.0942 166.45 53.988 167.669 52.5407C171.223 48.3242 176.078 46.1802 180.751 43.7592C182.917 42.6407 185.19 41.7356 187.434 40.7838C188.116 40.4968 188.857 40.2663 189.587 40.2001C195.932 39.6114 202.282 39.0644 208.629 38.5076C208.634 38.5983 208.641 38.6915 208.648 38.7847C209.963 38.7847 211.292 38.9197 212.588 38.7627C219.409 37.9434 225.531 40.1853 231.522 43.1141C235.064 44.8459 238.573 46.6831 242.221 48.1597C250.465 51.5006 256.932 57.2528 262.963 63.6599C265.351 68.6736 270.506 71.6637 272.302 77.1215C272.891 78.9047 274.199 79.9079 276.036 80.2219C278.18 80.5874 279.84 78.7796 279.044 76.7142C278.216 74.5753 277.119 72.5468 276.175 70.452C275.274 68.4455 275.66 67.717 277.787 67.3858C279.447 67.1258 281.109 66.829 282.779 66.6818C286.551 66.3556 290.201 66.5003 293.722 68.416C297.023 70.2091 300.649 71.3817 303.993 73.1036C306.491 74.3914 308.699 76.2482 311.161 77.6292C318.301 81.6373 324.182 87.2717 330.112 92.8447C334.38 96.8553 337.111 101.896 338.327 107.614C339.487 113.064 340.006 118.637 338.869 124.222C338.488 126.104 338.191 128.007 337.966 129.916C337.369 134.981 335.896 139.666 332.641 143.647C332.294 144.074 331.87 144.672 331.916 145.146C331.983 145.83 332.284 146.713 332.785 147.069C333.288 147.425 334.246 147.464 334.84 147.221C335.472 146.963 336.023 146.284 336.421 145.663C339.187 141.339 342.423 137.267 343.573 132.05C343.872 130.676 344.478 130.225 345.937 130.813C351.52 133.07 356.145 136.514 359.117 141.933C361.503 146.282 363.743 150.716 365.905 155.188C366.555 156.532 366.993 158.107 367.062 159.598C367.378 166.697 368.018 173.83 367.64 180.9C367.031 192.24 361.628 201.279 353.295 208.618C349.513 211.946 345.271 214.279 340.497 215.623C338.191 216.271 337.834 216.028 336.785 213.651C336.399 212.783 336.15 211.691 335.489 211.152C334.687 210.494 333.523 210.023 332.5 210.001C331.094 209.972 330.809 211.39 330.684 212.496C330.265 216.295 330.016 220.115 329.607 223.917C328.73 232.131 326.126 239.61 320.586 245.833ZM275.358 302.349C277.741 300.835 280.012 299.133 282.412 297.651C283.54 296.955 284.68 297.727 284.747 299.079C284.795 300.033 284.843 301.012 284.709 301.954C283.868 307.836 282.951 313.711 282.105 319.593C281.013 327.163 279.986 334.745 278.882 342.314C278.405 345.586 279.212 349.153 276.836 352.006C274.448 349.754 273.394 346.68 271.962 343.825C270.343 340.592 268.451 337.504 266.853 334.261C263.818 328.104 260.896 321.889 257.953 315.683C255.253 310.004 254.211 309.936 249.629 314.513C248.401 315.742 247.692 317.974 245.349 317.76C244.88 316.134 244.286 314.532 243.962 312.877C242.679 306.313 241.555 299.714 240.221 293.165C239.426 289.253 238.391 285.387 237.373 281.526C236.621 278.681 236.494 278.514 238.717 277.793C244.604 275.882 249.335 272.286 253.553 267.78C255.325 265.881 255.392 266.146 257.806 267.468C259.761 268.538 261.847 269.673 263.986 269.987C266.599 270.372 267.454 271.883 267.912 274.094C268.774 278.232 269.493 282.387 268.985 288.6C269.116 291.06 269.208 295.471 269.629 299.847C269.948 303.178 272.451 304.196 275.358 302.349ZM169.585 278.612C166.524 281.977 163.269 285.156 160.119 288.438C159.073 289.53 158.11 290.71 157.073 291.816C155.753 293.224 154.474 294.62 154.96 296.84C155.034 297.173 154.85 297.583 154.728 297.936C153.19 302.373 153.149 302.432 156.402 304.775C158.388 306.202 160.543 307.38 162.579 308.741C164.768 310.201 166.977 311.643 169.039 313.279C170.804 314.675 170.725 315.278 168.579 316.576C165.207 318.619 161.688 320.415 158.325 322.473C150.596 327.192 142.927 332.007 135.226 336.773C133.629 337.762 132 338.704 130.381 339.653C129.08 340.413 127.746 341.112 126.47 341.914C123.773 343.609 121.126 345.393 118.412 347.061C117.097 347.868 116.048 349.477 114.139 348.763C114.762 347.225 115.279 345.631 116.024 344.159C118.261 339.734 120.568 335.345 122.891 330.967C123.607 329.618 124.374 328.288 125.243 327.04C129.152 321.43 133.104 315.852 137.039 310.264C137.26 309.953 137.478 309.639 137.708 309.335C138.546 308.221 139.197 307.031 138.362 305.655C137.581 304.372 136.278 304.157 134.91 304.211C134.723 304.218 134.536 304.242 133.327 304.35C132.857 304.441 131.348 304.598 129.926 305.049C124.46 306.781 118.783 306.325 113.2 306.801C112.127 306.894 111.507 305.81 112.072 304.878C113.552 302.427 115.124 300.033 116.618 297.593C121.296 289.957 125.892 282.269 130.651 274.687C133.284 270.498 136.17 266.477 138.97 262.398C139.722 261.304 140.682 260.347 141.363 259.209C142.11 257.956 142.321 256.082 143.353 255.373C144.455 254.615 146.249 254.951 147.724 254.715C148.457 254.6 149.157 254.092 149.868 254.097C150.505 254.1 151.456 254.379 151.724 254.858C156.048 262.53 162.754 267.839 169.147 273.463C171.468 275.506 171.674 276.316 169.585 278.612ZM90.3575 242.076C89.4713 243.53 88.4772 244.982 87.2629 246.15C83.5791 249.689 79.7588 253.079 76.0176 256.558C74.7697 257.718 73.5146 258.89 72.4128 260.19C70.4631 262.481 70.6428 264.4 73.1984 265.874C77.1241 268.143 80.7767 270.78 84.2689 273.672C84.6857 274.015 84.9252 274.584 85.2701 275.08C84.9324 275.58 84.7144 276.201 84.2857 276.483C82.5612 277.626 80.875 278.95 78.9828 279.674C76.1062 280.773 73.7062 282.546 71.2727 284.342C63.977 289.724 56.7628 295.235 49.3162 300.394C42.66 305.008 35.702 309.165 28.9452 313.63C23.1225 317.476 17.4029 321.482 11.6042 325.367C11.3167 325.561 10.6772 325.328 10.2772 325.134C10.1671 325.08 10.2461 324.398 10.3898 324.074C10.6197 323.554 10.9024 323.024 11.2856 322.62C18.6507 314.844 23.8866 305.471 29.7236 296.57C34.4445 289.37 39.8169 282.745 45.2947 276.181C46.1473 275.161 47.139 274.243 47.9006 273.157C49.3952 271.025 48.7126 268.565 46.2623 267.534C44.9043 266.963 43.3929 266.75 41.9366 266.438C38.8205 265.773 35.6853 265.199 32.5787 264.49C30.9428 264.115 30.55 263.207 31.5608 262.16C37.3786 256.143 42.169 249.253 47.4767 242.814C53.2634 235.794 59.8789 229.497 66.1375 222.886C66.5279 222.474 66.9351 222.072 67.3662 221.702C69.9674 219.455 70.4176 219.523 72.6475 222.501C73.2176 223.262 73.8404 224 74.3002 224.829C77.5217 230.672 82.5277 234.651 87.7324 238.431C88.4964 238.985 89.3946 239.421 89.9838 240.13C90.3623 240.587 90.6186 241.649 90.3575 242.076ZM400.137 325.043C399.936 324.141 399.287 323.353 398.873 322.492C397.474 319.568 396.065 316.654 394.715 313.711C392.468 308.822 391.158 303.612 389.666 298.456C387.484 290.908 384.945 283.464 382.789 275.909C380.902 269.288 379.333 262.57 377.623 255.898C376.437 251.254 375.443 246.55 373.989 241.997C373.254 239.686 371.762 237.606 370.471 235.514C369.891 234.572 368.181 234.648 367.503 235.622C366.753 236.696 366.207 237.925 365.596 239.103C364.899 240.442 364.32 241.86 363.527 243.135C362.722 244.425 361.549 244.303 361.096 242.858C359.565 237.918 357.997 232.98 356.708 227.969C355.934 224.942 354.94 222.119 352.835 219.813C352.001 218.898 352.069 218.209 353.106 217.578C357.544 214.89 360.837 210.911 364.243 207.082C368.775 201.983 371.398 195.804 372.835 189.2C373.972 183.968 374.746 178.631 374.195 173.175C373.623 167.448 373.366 161.686 372.907 155.949C372.832 155.019 372.507 154.07 372.119 153.214C369.251 146.946 366.238 140.74 362.176 135.185C358.291 129.879 353.415 125.653 347.261 123.435C345.357 122.748 345.041 121.833 344.955 120.207C344.706 115.61 344.682 110.979 344.076 106.431C343.082 98.999 340.124 92.4768 334.526 87.3722C331.884 84.9635 329.446 82.3118 326.785 79.9276C322.965 76.5107 318.986 73.29 314.206 71.3227C313.688 71.1118 313.032 71.0112 312.694 70.6236C309.686 67.1773 305.617 65.7472 301.571 64.1749C299.485 63.363 297.578 62.0875 295.559 61.0843C294.558 60.5863 293.526 60.0222 292.448 59.8333C286.335 58.7638 280.153 58.0132 274.163 60.2209C271.148 61.332 269.442 60.4588 267.411 58.1113C261.778 51.5865 255.121 46.1778 247.495 42.3464C240.774 38.9736 233.764 36.1822 226.772 33.4202C222.178 31.605 217.213 31.3621 212.356 31.47C206.557 31.5976 200.777 32.4095 194.976 32.7014C191.158 32.8952 187.561 33.8667 184.054 35.2575C180.56 36.6458 177.135 38.2157 173.683 39.7193C172.828 40.0946 171.884 40.384 171.171 40.958C167.058 44.2842 162.833 47.4975 158.979 51.118C155.818 54.086 153.054 57.5127 150.249 60.8536C149.398 61.8691 148.505 62.2984 147.351 62.1046C146.069 61.8863 144.747 61.6336 143.573 61.0989C138.421 58.7539 133.049 58.7196 127.593 59.2739C120.939 59.9509 114.999 62.8111 108.882 65.3008C103.114 67.6434 98.4053 71.1682 94.4724 75.9367C89.4832 81.9807 85.3755 88.5987 82.5492 95.9746C81.845 97.8192 80.8654 98.6188 78.9923 99.0726C75.7301 99.8649 72.4775 100.88 69.3925 102.215C64.4992 104.332 60.6285 107.763 57.0166 111.867C52.4538 117.053 48.8132 122.841 44.9594 128.498C43.4839 130.659 42.3774 133.239 41.7211 135.795C40.2936 141.354 39.1774 147.003 38.1259 152.652C37.8241 154.281 38.2049 156.039 38.2265 157.739C38.3127 164.97 39.7978 171.812 43.5989 178.01C44.9139 184.817 49.7186 189.377 53.879 194.258C55.9412 196.679 58.619 198.843 61.8285 199.476C65.2704 200.153 66.3722 202.299 66.6069 205.453C66.7051 206.793 66.8895 208.132 67.1602 209.447C67.6656 211.892 67.8141 214.021 64.7099 214.816C63.8956 215.025 63.1866 215.905 62.5639 216.604C60.0346 219.428 57.5149 222.261 55.0718 225.163C50.1736 230.981 45.3833 236.897 40.4492 242.681C34.5284 249.623 28.7775 256.722 22.0088 262.871C19.0651 265.543 19.9633 268.562 23.7453 269.619C24.2794 269.767 24.8806 269.664 25.4219 269.796C28.8925 270.635 32.3751 271.432 35.8074 272.404C37.7092 272.943 38.0301 274.302 36.8493 275.894C36.6217 276.198 36.3439 276.463 36.1068 276.762C30.1476 284.214 24.6842 291.997 20.2867 300.556C18.8112 303.428 16.876 306.077 14.979 308.694C11.1802 313.927 7.22338 319.041 3.41745 324.268C2.30609 325.794 1.3624 327.479 0.579175 329.201C0.231875 329.971 0.136074 331.193 0.49535 331.909C2.25101 335.402 5.90364 336.486 9.01977 334.426C13.5706 331.416 18.0112 328.227 22.5309 325.168C30.9284 319.492 38.3415 312.315 47.6132 307.964C48.612 307.493 49.4096 306.585 50.3269 305.918C51.6994 304.919 53.0766 303.928 54.4826 302.977C60.8968 298.628 67.3255 294.301 73.7397 289.957C75.4571 288.794 77.0571 287.415 78.8702 286.444C83.6726 283.866 88.6258 281.58 93.3945 278.943C97.5142 276.664 97.4687 273.733 93.1933 271.518C88.7239 269.202 85.409 265.557 81.8235 262.199C80.8342 261.272 80.9396 260.095 81.7564 259.109C82.4845 258.238 83.3564 257.49 84.1947 256.727C87.9839 253.276 91.8856 249.954 95.5238 246.351C97.0687 244.823 98.3693 244.936 100.029 245.713C103.1 247.16 106.144 248.676 109.289 249.935C112.587 251.257 115.928 252.591 119.368 253.415C123.909 254.509 128.565 255.098 133.169 255.94C134.12 256.114 134.299 256.857 133.94 257.654C133.468 258.697 132.932 259.712 132.342 260.688C128.68 266.73 124.992 272.754 121.325 278.791C118.153 284.011 115.459 289.628 111.701 294.355C107.912 299.116 105.426 304.87 100.832 308.982C100.302 309.455 100.051 310.284 99.7466 310.986C98.6711 313.461 100.072 315.764 102.75 315.688C104.424 315.639 106.161 315.411 107.742 314.869C113.148 313.019 118.738 312.734 124.35 312.509C126.546 312.42 127.04 313.107 126.065 315.232C125.349 316.789 124.652 318.462 123.538 319.696C120.043 323.576 117.789 328.21 115.351 332.765C113.186 336.807 110.755 340.698 108.451 344.659C104.714 351.079 100.915 357.461 97.2819 363.942C95.7107 366.745 96.9801 368.673 100.171 368.987C101.802 369.147 102.523 367.969 103.418 367.064C110.829 359.6 119.531 353.904 128.29 348.361C136.263 343.317 143.758 337.453 152.294 333.349C152.462 333.27 152.61 333.143 152.768 333.04C159.398 328.705 166.079 324.455 173.171 320.942C175.027 320.025 176.974 319.296 178.799 318.327C180.778 317.272 181.532 314.873 180.433 312.923C179.798 311.802 178.917 310.659 177.868 309.98C173.597 307.215 169.207 304.64 164.881 301.956C163.76 301.26 162.696 300.455 161.64 299.655C160.536 298.817 160.378 297.769 161.326 296.734C165.952 291.691 170.536 286.608 175.276 281.688C177.772 279.098 178.222 279.296 181.717 280.864C185.307 282.475 188.881 284.467 192.663 285.21C203.316 287.31 213.941 286.962 224.279 283.074C226.2 282.353 228.176 281.793 230.128 281.16C231.953 282.833 231.507 285.34 232.264 287.41C233.574 291.002 234.99 294.632 235.653 298.38C237.057 306.286 239.689 313.985 239.661 322.156C239.656 323.478 240.039 324.82 240.358 326.123C240.58 327.045 240.873 327.992 241.342 328.796C242.722 331.158 245.251 331.374 246.916 329.238C248.199 327.594 249.275 325.786 250.496 324.091C252.159 321.791 253.124 321.805 254.71 324.121C255.138 324.744 255.486 325.428 255.854 326.091C258.178 330.256 260.614 334.362 262.788 338.605C265.03 342.986 267.617 347.161 269.052 352.008C270.067 355.45 272.063 358.619 273.837 361.781C274.958 363.785 276.874 364.491 279.162 364.013C282.295 363.358 283.128 362.759 283.528 359.676C284.218 354.341 284.946 348.986 285.171 343.622C285.626 332.635 287.286 321.83 289.238 311.057C290.23 305.572 291.346 300.112 292.438 294.649C292.862 292.537 293.049 290.472 292.134 288.431C291.365 286.716 290.311 286.093 288.529 286.559C287.638 286.792 286.774 287.187 285.959 287.629C283.155 289.147 280.383 290.732 277.586 292.262C276.278 292.981 275.349 292.517 275.251 291.063C275.066 288.375 274.961 285.686 274.829 282.998C274.803 282.998 274.774 283 274.752 283C274.63 280.697 274.558 278.386 274.372 276.088C274.177 273.728 275.224 272.933 277.368 272.955C283.401 273.017 289.334 272.217 295.157 270.753C304.163 268.489 312.754 265.4 319.027 257.715C321.47 254.718 322.167 254.892 324.392 258.324C328.019 263.926 331.587 269.568 335.036 275.283C338.485 280.994 341.982 286.68 344.476 292.944C346.052 296.906 348.152 297.374 351.34 294.713C352.502 293.744 353.506 292.584 354.605 291.536C355.427 290.751 356.277 289.993 357.132 289.248C357.805 288.666 358.528 288.738 359.139 289.319C363.379 293.366 368.169 296.827 371.39 301.946C372.49 303.686 374.097 305.096 375.522 306.607C376.427 307.566 377.493 308.371 378.37 309.349C381.029 312.322 383.687 315.298 386.233 318.369C388.169 320.699 389.912 323.194 391.783 325.58C392.71 326.765 393.63 327.994 394.741 328.983C396.159 330.243 397.594 329.257 398.906 328.556C400.305 327.808 400.437 326.39 400.137 325.043Z" fill="#C0FFD5"/>
</svg>
