<svg width="400" height="401" viewBox="0 0 400 401" fill="none" xmlns="http://www.w3.org/2000/svg">
<path d="M186.353 157.117C200.767 157.117 212.495 168.948 212.495 183.493C212.495 198.035 200.767 209.866 186.353 209.866C171.944 209.866 160.216 198.035 160.216 183.493C160.216 168.948 171.944 157.117 186.353 157.117ZM186.353 212.826C202.387 212.826 215.426 199.667 215.426 183.493C215.426 167.316 202.387 154.157 186.353 154.157C170.324 154.157 157.285 167.316 157.285 183.493C157.285 199.667 170.324 212.826 186.353 212.826Z" fill="#C0FFD5"/>
<path d="M311.142 157.059C308.467 157.292 306.34 155.102 306.334 152.488C306.334 150.55 307.522 148.897 309.258 148.238C309.573 148.727 309.866 149.25 310.125 149.806C310.877 151.42 311.264 153.184 311.33 155.072C311.308 155.719 311.258 156.378 311.142 157.059ZM309.866 163.152C304.626 162.81 300.542 158.434 300.542 153.123C300.542 153.121 300.542 153.121 300.542 153.119C301.543 152.515 302.537 151.894 303.516 151.255C303.449 151.657 303.405 152.068 303.405 152.488C303.405 156.619 306.715 159.979 310.8 160.023C310.562 161.054 310.252 162.102 309.866 163.152ZM288.566 159.517C291.158 158.276 294.391 156.647 297.724 154.762C298.111 157.87 299.586 160.638 301.78 162.668C298.26 162.179 293.794 161.243 288.566 159.517ZM301.946 142.218C302.736 142.566 303.936 143.183 305.207 144.089C304.284 146.023 302.769 148.118 300.266 149.789C299.664 150.164 299.045 150.54 298.403 150.919C298.398 150.923 298.392 150.931 298.387 150.935C296.16 152.253 293.877 153.504 291.694 154.638C296.751 149.152 300.487 144.217 301.946 142.218ZM312.248 165.132C313.696 161.551 314.353 158.207 314.265 155.116C314.37 151.501 313.314 148.248 311.126 145.573C311.098 145.539 311.054 145.529 311.026 145.497C313.673 143.006 315.536 140.449 315.917 137.992C316.044 137.186 315.497 136.428 314.696 136.302C313.9 136.16 313.143 136.726 313.021 137.533C312.739 139.342 311.242 141.351 309.026 143.401C308.926 143.31 308.832 143.219 308.733 143.13C309.54 140.605 309.573 138.667 309.573 138.502C309.573 137.685 308.915 137.026 308.108 137.022C308.108 137.022 308.108 137.022 308.103 137.022C307.296 137.022 306.644 137.683 306.638 138.495C306.638 138.606 306.616 139.686 306.24 141.205C303.947 139.697 302.023 139.066 301.869 139.016C301.261 138.821 300.592 139.05 300.222 139.577C300.155 139.675 293.297 149.471 283.78 158.477C283.167 158.753 282.592 159.004 282.078 159.227C281.332 159.545 280.984 160.415 281.299 161.166C281.536 161.729 282.078 162.068 282.647 162.068C282.841 162.068 283.034 162.031 283.222 161.95C283.515 161.825 284.023 161.605 284.703 161.303C296.16 165.519 304.549 166.152 308.512 166.152C309.921 166.152 310.744 166.075 310.976 166.051C310.988 166.051 310.988 166.05 310.999 166.05C311.015 166.047 311.054 166.044 311.059 166.044C311.59 165.981 312.049 165.631 312.248 165.132Z" fill="#C0FFD5"/>
<path d="M327.076 196.863C327.838 197.153 328.599 197.279 329.344 197.279C333.102 197.279 336.439 194.028 337.86 191.976C338.668 190.816 339.668 190.974 339.879 191.025C340.646 191.224 341.448 190.776 341.664 190.001C341.885 189.214 341.436 188.397 340.657 188.172C339.492 187.84 337.099 187.912 335.456 190.277C334.449 191.732 331.163 195.243 328.105 194.093C326.098 193.335 326.615 190.865 326.678 190.595C326.877 189.802 326.393 188.999 325.615 188.8C324.836 188.608 324.028 189.084 323.835 189.879C323.38 191.699 323.477 195.506 327.076 196.863Z" fill="#C0FFD5"/>
<path fill-rule="evenodd" clip-rule="evenodd" d="M350.461 183.043C346.736 181.19 343.026 181.596 339.432 183.36C331.911 187.051 326.438 192.574 324.783 201.326C324.451 203.08 323.929 204.883 324.044 206.624C324.407 212.142 324.808 217.677 325.612 223.139C326.659 230.221 326.216 237.06 323.862 243.81C322.811 246.818 321.196 249.187 318.608 251.092C312.47 255.612 305.677 256.968 298.33 256.175C297.39 256.073 296.468 255.735 295.529 255.67C294.502 255.599 293.669 256.076 293.335 257.151C293.019 258.168 293.185 259.094 294.111 259.718C295.721 260.799 297.408 261.623 299.401 261.723C307.544 262.124 315.15 260.512 321.972 255.678C325.626 253.091 328.164 249.628 329.744 245.443C332.023 239.411 332.766 233.185 331.776 226.742C331.036 221.929 330.487 217.084 329.853 212.253C329.967 212.238 330.082 212.221 330.2 212.205C330.121 211.069 330.046 209.931 329.963 208.794C329.39 200.967 332.424 194.733 338.503 190.305C341.555 188.079 345.165 186.613 349.238 187.565C351.8 188.162 352.975 187.711 353.317 186.504C353.617 185.444 352.493 184.056 350.461 183.043ZM252 230.323C250.616 228.474 248.957 226.841 246.492 227.992C246.002 227.948 245.692 227.898 245.38 227.896C242.816 227.879 242.725 227.852 242.05 230.192C240.772 234.625 238.73 238.6 235.836 242.144C234.513 243.76 233.326 245.493 232.111 247.198C231.059 248.679 230.302 250.329 230.762 252.186C231.657 255.816 233.784 258.307 237.555 258.755C239.581 258.994 241.657 258.909 243.701 258.819C245.313 258.748 246.737 258.696 248.111 259.978C248.955 260.768 250.416 261.317 251.552 261.242C255.346 260.991 258.656 259.065 260.884 256.136C264.736 251.075 263.333 243.115 260.102 239.783C257.197 236.784 254.501 233.668 252 230.323ZM292.881 293.609C294.224 290.528 295.443 287.371 297.027 284.424C298.737 281.235 303.347 281.225 305.103 284.34C305.48 285.004 305.188 286.204 304.931 287.076C304.303 289.218 303.442 291.292 302.814 293.436C302.456 294.659 302.116 295.576 300.609 295.075C300.171 294.93 299.679 294.959 299.48 294.936C297.491 295.102 295.774 295.283 294.05 295.368C293.321 295.404 292.585 294.285 292.881 293.609ZM293.831 301.534C294.603 301.469 295.36 301.18 296.136 301.109C298.761 300.872 299.574 301.87 298.794 304.547C298.395 305.92 297.805 307.26 297.135 308.52C296.349 310.005 294.824 310.228 293.618 309.007C292.993 308.368 292.506 307.478 292.233 306.611C291.949 305.714 291.998 304.705 291.941 304.131C291.897 302.401 292.466 301.648 293.831 301.534ZM280.053 280.588C282.61 279.563 285.925 281.083 286.485 283.808C287.031 286.485 287.392 289.245 287.439 291.976C287.487 294.925 286.63 295.616 283.736 295.841C283.108 295.888 282.472 295.847 281.141 295.847C279.008 295.612 276.175 295.348 273.361 294.932C272.921 294.867 272.283 294.148 272.237 293.68C271.7 287.831 274.803 282.697 280.053 280.588ZM272.814 300.666C273.756 300.606 274.704 300.656 275.65 300.656C275.65 300.77 275.65 300.885 275.65 300.999C278.01 300.999 280.371 301.038 282.727 300.991C286.456 300.912 286.412 300.868 285.044 304.654C284.672 305.685 284.56 306.856 284.534 307.967C284.503 309.078 284.953 310.265 283.87 311.097C282.626 312.054 281.386 313.025 280.061 313.849C279.565 314.159 278.834 314.082 278.212 314.169C273.798 314.775 272.648 314.051 271.418 309.56C270.837 307.426 269.709 305.392 270.333 302.985C270.754 301.351 271.139 300.778 272.814 300.666ZM257.369 300.346C258.901 300.903 260.782 300.435 262.504 300.471C264.125 300.502 264.716 301.23 264.562 302.933C264.056 306.584 263.106 309.93 259.277 311.42C257.533 312.098 256.115 311.719 255.269 310.041C254.766 309.051 254.448 307.942 254.197 306.85C253.985 305.912 254.118 304.882 253.861 303.965C252.796 300.184 253.646 298.992 257.369 300.346ZM238.244 297.141C240.756 297.451 243.276 297.731 245.753 298.218C247.73 298.605 248.009 299.081 248.127 301.215C248.19 302.347 248.139 303.489 248.139 304.626C248.137 304.626 248.135 304.626 248.133 304.626C248.133 306.084 248.266 307.561 248.098 309.001C247.906 310.654 246.853 311.578 245.228 311.736C242.392 312.012 240.217 311.237 238.248 308.716C235.783 305.562 235.779 302.276 236.251 298.717C236.401 297.577 237.146 297.005 238.244 297.141ZM247.799 286.273C247.799 286.759 247.77 287.246 247.803 287.729C248.181 293.128 247.389 292.922 242.403 292.575C237.154 292.211 237.102 291.943 237.029 286.385C236.986 283.244 237.48 280.28 239.083 277.562C240.144 275.763 241.722 275.226 243.474 276.364C245.957 277.969 247.9 280.022 247.793 283.365C247.762 284.334 247.788 285.306 247.788 286.273C247.793 286.273 247.795 286.273 247.799 286.273ZM222.672 294.037C224.813 294.534 226.935 295.146 229.026 295.836C230.675 296.379 230.883 296.841 230.746 299.809C230.47 300.951 229.996 303.158 229.376 305.319C229.234 305.816 228.6 306.523 228.189 306.523C224.422 306.53 220.563 305.084 220.107 300.814C219.897 298.825 220.642 296.704 221.124 294.686C221.205 294.343 222.204 293.929 222.672 294.037ZM231.59 285.378C231.434 291.51 231.973 291.641 226.004 289.717C221.296 288.199 221.27 288.299 221.473 283.325C221.501 282.683 221.379 282.034 221.394 281.389C221.503 276.628 221.606 276.457 225.59 274.313C227.529 273.269 229.356 273.789 230.182 275.923C231.104 278.306 232.042 280.746 231.604 283.44C231.503 284.068 231.59 284.731 231.59 285.378ZM207.776 290.175C208.207 290.377 208.6 290.661 209.032 290.851C210.911 291.664 213.304 291.982 214.551 293.382C215.949 294.95 214.217 297.376 214.365 299.449C214.468 300.901 214.634 302.343 214.768 303.79C214.877 304.997 214.14 305.635 213.166 305.802C210.786 306.203 208.778 305.332 207.342 303.378C205.811 301.296 204.537 299.06 204.748 296.275C204.786 295.795 204.752 295.306 204.752 294.819C204.74 294.819 204.727 294.819 204.717 294.819C204.717 293.85 204.636 292.87 204.731 291.912C204.962 289.586 205.681 289.197 207.776 290.175ZM206.623 274.527C206.897 271.675 208.724 269.895 211.553 269.674C212.487 269.604 213.449 269.571 214.379 269.693C215.874 269.893 216.95 271.197 216.769 272.784C216.273 277.1 215.671 281.403 215.076 285.707C214.914 286.884 214.191 287.225 213.006 286.701C212.145 286.319 211.355 285.749 210.484 285.391C207.148 284.012 205.23 281.872 206.607 277.978C206.607 276.788 206.518 275.648 206.623 274.527ZM392.37 236.861C390.802 242.832 389.725 248.97 387.079 254.593C385.702 257.515 384.254 260.427 382.554 263.16C380.612 266.284 379.224 269.872 375.977 272.021C375.349 272.439 374.877 273.223 374.525 273.938C372.627 277.788 369.319 279.964 365.783 281.915C360.083 285.058 353.921 286.354 347.559 287.009C344.573 287.317 341.61 287.866 338.658 288.436C336.412 288.871 334.668 290.264 333.129 291.957C332.272 292.902 331.496 294.05 330.441 294.655C326.558 296.879 323.992 300.358 321.482 303.946C318.8 307.784 315.976 311.522 313.357 315.401C312.01 317.4 310.706 319.509 309.849 321.755C306.762 329.846 301.788 336.895 298.085 344.639C297.745 345.346 297.204 346.001 296.624 346.53C294.143 348.787 291.797 351.272 289.053 353.127C285.889 355.27 282.437 356.69 278.324 356.297C274.54 355.935 270.77 355.925 267.118 354.575C265.504 353.978 263.699 353.951 262.008 353.543C258.781 352.768 255.609 351.711 252.354 351.135C249.723 350.669 247.003 350.727 244.323 350.573C242.903 350.494 241.428 350.698 240.071 350.363C235.71 349.29 231.252 349.656 226.854 349.192C220.014 348.472 213.265 349.889 206.473 350.265C202.793 350.471 200.415 348.77 200.004 344.982C199.777 342.894 199.734 340.718 200.03 338.647C200.759 333.536 201.774 328.469 202.592 323.371C203.006 320.807 203.224 318.211 203.544 315.63C203.704 314.34 203.832 313.038 204.095 311.767C204.468 309.964 204.598 309.951 206.704 310.29C208.268 310.542 209.905 310.527 211.402 310.991C213.255 311.567 214.813 311.542 216.188 310.02C217.128 308.978 218.147 309.184 219.151 309.916C220.865 311.166 222.897 311.59 224.809 312.347C227.357 313.358 229.638 313.949 231.831 311.653C232.479 310.975 233.33 311.309 233.962 311.913C234.896 312.799 235.732 313.795 236.705 314.625C239.141 316.699 242.046 317.518 245.125 317.318C246.3 317.242 247.436 316.389 248.568 315.844C249.786 315.259 250.942 315.06 252.162 315.892C256.328 318.729 260.335 317.572 264.238 315.255C266.288 314.038 266.296 313.955 267.586 315.523C269.03 317.285 270.428 319.047 272.907 319.282C276.399 319.613 279.899 320.049 283.019 317.791C284.445 316.757 285.824 315.65 287.266 314.648C288.229 313.982 289.28 313.664 290.363 314.471C290.619 314.662 290.898 314.827 291.186 314.962C295.413 316.957 299.306 315.865 301.717 311.651C302.991 309.427 303.732 306.883 304.706 304.479C305.436 302.682 306.167 300.887 306.87 299.077C307.394 297.721 307.852 296.336 308.379 294.98C309.082 293.18 309.559 291.209 310.621 289.657C311.755 287.991 311.925 286.464 311.466 284.623C310.906 282.404 310.471 280.27 308.209 278.97C306.001 277.701 304.022 276.22 301.334 275.904C299.59 275.7 298.251 275.925 296.908 276.948C295.889 277.724 294.834 278.456 293.756 279.14C293.219 279.48 292.549 279.939 292.028 279.844C291.565 279.756 291.228 278.976 290.827 278.508C288.753 276.093 285.988 274.81 283.106 273.897C281.994 273.545 280.523 273.658 279.436 274.113C277.108 275.093 274.85 276.314 272.705 277.674C271.538 278.413 270.665 278.593 269.873 277.425C268.005 274.669 265.259 274.136 262.306 274.23C259.608 274.313 256.899 274.465 254.485 275.975C253.176 276.792 252.16 276.308 251.118 275.272C249.644 273.812 248.074 272.437 246.435 271.172C244.728 269.851 242.747 269.491 240.584 269.585C238.748 269.666 237.16 269.905 235.941 271.499C235.41 272.189 234.406 272.455 233.972 271.499C232.354 267.927 229.234 268.229 226.265 268.239C225.183 268.243 224.114 268.788 223.02 268.89C222.504 268.936 221.89 268.607 221.43 268.283C221.063 268.023 220.847 267.524 220.589 267.11C219.184 264.845 217.209 263.715 214.57 263.986C212.212 264.227 209.854 264.499 207.502 264.807C206.078 264.99 205.75 264.784 205.637 263.412C205.501 261.791 205.55 260.13 205.201 258.561C204.385 254.871 201.835 253.786 198.88 256.161C194.59 259.614 190.176 259.266 185.424 257.646C181.679 256.369 178.497 254.42 176.475 250.859C175.768 249.611 175.211 248.24 174.794 246.859C173.793 243.54 173.516 240.039 174.044 236.686C175.248 229.05 174.324 229.175 181.148 232.066C188.079 235.005 195.195 237.158 202.783 237.204C203.257 237.208 203.747 237.227 204.207 237.337C212.921 239.444 220.367 235.719 227.762 231.879C234.865 228.193 239.218 222.305 240.738 214.253C240.975 213.006 241.763 213.209 242.484 213.619C244.426 214.726 246.389 215.816 248.238 217.076C252.184 219.77 256.733 221.427 260.395 224.608C261.718 225.758 263.136 226.794 264.554 227.819C265.974 228.851 267.426 229.835 268.901 230.785C269.839 231.388 271.177 231.648 271.753 232.484C273.882 235.594 277.528 236.384 280.185 238.647C281.479 239.754 283.047 239.941 284.698 239.538C287.493 238.847 290.315 238.749 293.201 238.824C295.217 238.876 297.376 238.477 299.25 237.709C302.245 236.482 304.558 234.471 305.733 231.033C306.849 227.761 307.66 224.549 307.743 221.067C307.909 213.939 306.864 207.217 303.564 200.761C300.317 194.406 298.316 187.49 296.776 180.477C295.695 175.549 294.915 170.545 293.643 165.673C292.745 162.239 291.518 158.828 289.948 155.665C287.789 151.317 285.494 146.96 282.646 143.081C280.193 139.736 277.074 136.818 273.904 134.145C270.602 131.362 266.893 129.093 263.351 126.62C262.832 126.256 262.271 125.852 261.678 125.732C259.687 125.326 259.052 124.213 259.565 122.214C259.879 120.991 259.312 119.999 258.419 119.19C257.294 118.165 256.277 118.042 254.949 118.791C252.877 119.956 252.696 120.505 253.178 123.336C253.887 127.498 254.529 131.67 255.216 135.834C255.35 136.633 255.398 137.502 255.751 138.195C257.726 142.051 259.006 146.253 261.832 149.699C263.934 152.268 265.504 155.296 267.311 158.121C267.027 158.319 266.743 158.516 266.46 158.714C263.993 156.43 261.58 154.086 259.048 151.883C256.632 149.782 253.995 147.95 251.639 145.785C247.979 142.419 244.264 139.066 240.966 135.339C237.989 131.976 235.504 128.147 232.885 124.459C231.702 122.795 231.847 121.734 233.632 120.916C238.238 118.814 242.415 115.875 247.424 114.498C251.993 113.239 256.476 111.579 261.052 110.23C265.075 109.044 269.162 108.58 273.225 108.154C282.847 107.151 292.529 106.958 302.154 108.033C306.197 108.484 310.262 109.373 313.904 111.609C315.527 112.603 317.35 113.295 319.148 113.93C327.449 116.856 334.994 121.283 342.307 126.175C344.695 127.772 347.067 129.397 349.424 131.042C356.893 136.246 362.586 143.176 367.751 150.681C370.887 155.24 373.269 160.172 375.455 165.22C378.542 172.365 381.661 179.509 384.385 186.804C386.648 192.865 388.86 199.003 388.627 205.728C388.536 208.469 389.186 211.088 390.229 213.75C391.199 216.215 391.035 219.175 391.23 221.927C391.424 224.693 391.574 227.428 392.477 230.099C393.227 232.312 392.957 234.625 392.37 236.861ZM160.99 213.696C158.482 212.313 155.997 210.876 153.576 209.339C151.557 208.055 149.568 206.691 147.702 205.185C145.545 203.442 143.22 202.146 140.562 201.449C139.649 201.21 138.699 200.967 137.899 200.488C132.727 197.406 127.102 195.842 121.232 195.043C120.916 195.001 120.574 194.983 120.315 194.827C120.092 194.691 119.847 194.379 119.843 194.14C119.839 193.872 120.031 193.443 120.246 193.354C121.269 192.923 122.304 192.372 123.375 192.249C126.523 191.887 129.689 191.709 133.562 191.405C136.797 192.031 140.684 192.78 144.569 193.543C145.032 193.635 145.472 193.853 145.938 193.922C147.441 194.146 148.687 193.545 149.153 192.422C149.811 190.831 149.533 188.774 148.247 188.004C144.994 186.066 142.104 183.617 138.172 182.733C132.148 181.377 126.298 179.229 120.361 177.45C119.15 177.084 117.912 176.712 116.663 176.587C113.039 176.229 109.399 176.059 105.779 175.682C103.582 175.454 101.416 174.867 99.2207 174.636C94.801 174.176 90.365 173.86 85.9392 173.467C83.7415 173.272 81.5458 173.07 79.3542 172.816C75.4165 172.356 71.4769 171.897 67.5493 171.362C64.7257 170.982 61.9791 170.437 59.2952 169.234C53.6115 166.691 47.9866 164.099 43.0362 160.187C42.6594 159.891 42.2523 159.577 41.8127 159.438C34.8833 157.237 30.1456 151.796 24.865 147.214C22.09 144.811 19.7039 141.935 17.2023 139.214C16.8357 138.813 16.8094 138.083 16.623 137.504C17.2367 137.392 17.8748 137.115 18.4602 137.205C19.5479 137.369 20.6093 137.712 21.6585 138.049C24.6827 139.016 27.7331 139.907 30.7006 141.024C36.1452 143.07 41.8735 143.245 47.5268 143.915C48.4504 144.025 49.4247 143.815 50.3625 143.678C52.7385 143.328 55.074 143.295 57.454 143.834C58.9833 144.181 60.6077 144.106 62.1917 144.202C65.0417 144.375 67.8349 144.682 70.5269 145.855C71.961 146.477 73.6077 146.565 75.1552 146.906C78.8518 147.725 82.4553 148.457 85.7306 150.868C88.1228 152.628 90.8228 154.036 93.2413 155.856C94.2541 156.617 95.4715 157.181 96.8022 156.436C98.3133 155.592 98.9979 153.901 98.2242 152.301C96.6787 149.102 95.1372 145.928 92.4757 143.418C86.875 138.132 81.6957 132.354 75.1633 128.19C71.1305 123.458 65.2605 121.844 60.1054 119.096C55.7667 116.784 51.0431 115.145 46.3621 113.628C43.4149 112.674 40.8141 111.209 38.3754 109.435C34.7537 106.8 31.2799 103.944 27.7959 101.121C23.9677 98.0222 21.7193 93.6605 19.234 89.5068C18.7762 88.7351 19.3555 88.3753 20.0968 88.3836C20.7288 88.3898 21.4235 88.2774 21.9806 88.5041C26.6839 90.4052 31.288 92.5851 36.0662 94.2616C40.8404 95.938 45.3574 98.3987 50.4355 99.2036C52.9269 99.5988 55.3839 100.304 57.8166 101.007C63.3423 102.596 69.0705 102.812 74.6894 103.742C77.3833 104.185 79.9011 104.793 82.2588 106.371C83.9522 107.505 86.0709 107.95 87.9364 108.84C90.0795 109.863 92.1475 111.047 94.2602 112.137C94.961 112.499 95.757 113.154 96.4072 113.046C98.9736 112.613 99.7291 114.323 100.458 116.228C100.746 116.981 101.042 117.759 101.489 118.412C106.219 125.332 110.951 132.254 115.755 139.12C116.762 140.562 118.068 141.785 119.235 143.11C123.999 148.514 128.67 154.009 133.562 159.286C135.841 161.74 138.496 163.839 141.073 165.981C144.767 169.056 148.458 172.151 152.314 174.998C156.169 177.843 160.044 180.758 164.235 182.993C169.548 185.822 175.207 187.96 180.682 190.473C182.562 191.336 184.247 192.697 186.171 193.375C194.105 196.166 201.76 199.739 209.868 202.038C218.116 204.376 226.32 206.88 234.244 210.256C235.514 210.794 235.773 211.327 235.461 212.781C233.879 220.265 229.338 225.155 222.793 228.223C220.065 229.502 217.122 230.309 214.254 231.266C210.867 232.395 207.444 232.53 203.919 231.842C201.436 231.359 198.857 231.415 196.352 231.028C189.505 229.966 183.417 226.752 177.208 223.844C171.393 221.119 166.572 216.779 160.99 213.696ZM86.5854 77.9566C85.3377 75.7144 83.5471 73.7946 82.0522 71.6876C81.8051 71.3361 81.6167 70.4791 81.7524 70.3813C82.2122 70.0568 82.9131 69.6908 83.3729 69.8385C85.6354 70.5519 87.9466 71.2217 90.0632 72.2783C94.9063 74.6973 99.8709 76.9229 104.092 80.488C105.314 81.5218 106.646 82.4307 107.981 83.3105C114.394 87.5329 119.136 93.3859 123.428 99.7173C124.601 101.448 126.045 102.983 127.347 104.622C128.846 106.513 130.396 108.366 131.808 110.327C135.954 116.072 140.04 121.865 144.157 127.633C144.625 128.29 145.047 129.058 145.671 129.505C149.404 132.186 151.816 136.038 154.522 139.651C155.966 141.577 157.589 143.38 159.272 145.09C162.888 148.759 166.457 152.497 170.305 155.893C173.66 158.855 177.204 161.672 180.964 164.051C187.304 168.061 193.901 171.645 200.35 175.472C202.266 176.61 204.227 176.905 206.291 176.277C206.994 176.061 207.695 175.531 208.193 174.959C209.161 173.848 209.054 172.51 207.978 171.487C206.929 170.493 205.904 169.403 204.685 168.683C200.992 166.499 198.306 163.284 196.034 159.739C190.453 151.022 185.284 142.084 182.132 132.049C181.116 128.81 179.665 125.684 178.134 122.653C173.886 114.248 169.288 106.041 162.588 99.3783C159.4 96.2084 155.914 93.3589 152.622 90.2992C144.277 82.5492 135.3 75.442 128.94 65.664C127.273 63.0973 125.3 60.7386 123.641 58.1677C122.964 57.1257 122.723 55.7778 122.34 54.5506C122.261 54.2948 122.35 53.858 122.527 53.6853C122.67 53.546 123.136 53.5731 123.335 53.7124C124.119 54.2636 124.878 54.8564 125.601 55.4908C131.923 61.0214 138.737 65.5412 146.695 68.4262C155.699 71.6896 164.186 76.2927 171.515 82.6595C178.057 88.342 183.82 94.8793 188.914 101.989C190.792 104.612 192.603 107.293 194.377 109.992C196.98 113.955 198.351 118.479 199.882 122.934C200.405 124.457 200.883 126.042 201.681 127.416C204.525 132.315 207.357 137.234 210.468 141.958C212.945 145.72 215.823 149.208 218.519 152.819C219.291 153.851 220.026 154.914 220.83 155.916C221.422 156.655 222.019 157.435 222.757 157.996C224.051 158.976 225.183 158.889 226.227 157.951C227.442 156.856 227.74 155.357 226.784 154.026C225.657 152.459 224.264 151.097 223.156 149.518C218.252 142.534 212.795 135.899 209.724 127.722C209.269 126.505 208.681 125.318 208.41 124.059C206.303 114.219 203.364 104.562 203.301 94.3052C203.275 89.7979 202.137 85.299 201.511 80.7958C201.241 78.8781 200.942 76.9624 200.743 75.0343C200.699 74.6058 200.891 73.9464 201.193 73.7488C201.444 73.5866 202.204 73.8133 202.422 74.1108C207.357 80.8977 212.463 87.5745 215.07 95.8154C216.289 99.6779 217.999 103.386 219.119 107.278C220.474 112.004 222.783 116.222 224.902 120.571C228.193 127.327 232.172 133.509 237.602 138.688C239.67 140.664 241.284 143.137 243.328 145.14C246.077 147.833 249.044 150.29 251.917 152.848C257.179 157.537 262.536 162.121 266.754 167.895C269.918 172.221 272.312 177.005 274.449 181.912C275.295 183.859 276.492 185.148 278.396 185.851C279.816 186.375 281.012 185.893 281.421 184.418C282.087 182.022 282.053 179.674 281.267 177.224C279.662 172.25 277.704 167.454 275.32 162.836C272.648 157.659 269.914 152.513 267.179 147.37C266.881 146.81 266.436 146.323 266.014 145.841C263.397 142.837 262.026 139.2 261.082 135.383C260.78 134.164 260.849 132.851 260.752 131.581C262.541 130.963 263.191 132.71 264.23 133.477C267.444 135.859 270.62 138.313 273.624 140.965C276.76 143.732 279.269 147.11 281.465 150.704C284.341 155.403 286.63 160.424 288.145 165.723C289.442 170.247 290.388 174.896 291.178 179.547C292.768 188.938 296.037 197.734 299.839 206.352C302.468 212.317 303.254 218.484 302.18 224.915C302.101 225.398 302.002 225.881 301.871 226.351C300.195 232.391 298.058 233.93 290.892 233.456C290.167 233.533 288.423 233.631 286.709 233.928C284.218 234.361 282.111 233.826 280.023 232.254C273.632 227.432 267.147 222.746 260.651 218.076C255.838 214.615 250.541 211.995 245.323 209.274C234.959 203.868 223.853 200.43 212.759 197.054C206.214 195.062 199.666 193.121 193.411 190.305C186.019 186.972 178.646 183.586 171.34 180.067C162.244 175.691 154.093 169.736 146.082 163.591C143.801 161.842 141.575 159.935 139.645 157.797C132.847 150.269 125.952 142.81 119.551 134.938C114.277 128.452 109.438 121.588 105.459 114.1C102.198 107.958 98.8845 101.858 95.8664 95.5802C92.9881 89.5961 89.8182 83.7514 86.5854 77.9566ZM146.623 115.729C153.965 118.425 160.945 121.967 167.455 126.331C170.883 128.627 173.83 131.685 176.929 134.48C177.478 134.977 177.745 135.842 178.049 136.579C178.8 138.376 179.546 140.177 180.2 142.012C182.011 147.097 184.94 151.567 187.5 156.243C188.43 157.936 189.228 159.708 190.042 161.466C190.15 161.69 190.079 162.119 189.923 162.314C189.807 162.458 189.358 162.485 189.169 162.368C188.489 161.954 187.911 161.335 187.198 161.012C182.795 159.011 179.041 156.058 175.367 152.917C168.027 146.642 161.3 139.749 155.108 132.29C151.506 127.947 147.884 123.62 144.332 119.236C143.347 118.021 142.576 116.628 141.188 114.537C143.594 115.051 145.176 115.197 146.623 115.729ZM397.758 228.449C396.903 223.994 396.593 219.43 396.081 215.235C397.128 211.4 396.842 208.111 394.805 205.114C394.635 204.862 394.553 204.492 394.555 204.18C394.568 200.203 393.087 196.522 392.461 192.684C392.032 190.055 391.201 187.661 390.215 185.254C388.679 181.502 387.306 177.671 385.673 173.964C382.868 167.589 380.251 161.089 376.913 155.011C374.126 149.934 370.468 145.352 367.101 140.618C365.521 138.39 363.931 136.107 361.989 134.239C359.566 131.909 356.868 129.846 354.119 127.918C349.414 124.613 344.452 121.705 339.598 118.626C332.404 114.059 324.863 110.306 317.06 107.076C310.864 104.508 304.449 102.502 297.726 102.201C286.618 101.7 275.555 102.147 264.54 104.033C256.804 105.356 249.464 107.894 242.18 110.664C238.317 112.133 234.614 114.044 230.839 115.75C228.734 116.7 228.408 116.705 227.616 114.722C225.208 108.699 222.698 102.698 220.648 96.5433C218.205 89.2031 215.149 82.3059 209.886 76.6109C209.562 76.2594 209.269 75.86 209.038 75.4357C205.205 68.3326 198.914 63.869 192.669 59.3596C192.027 58.8957 191.328 58.3841 190.589 58.2281C189.866 58.0721 188.744 58.0575 188.369 58.4984C187.83 59.1328 187.417 60.362 187.65 61.1046C188.017 62.2694 188.859 63.3426 189.696 64.2724C192.801 67.7439 194.764 71.6439 195.102 76.4611C195.355 80.0116 196.232 83.5123 196.607 87.0586C197.186 92.5622 197.585 98.0867 198.029 103.607C198.047 103.84 197.776 104.214 197.549 104.32C197.34 104.422 196.915 104.356 196.743 104.191C196.285 103.75 195.904 103.226 195.511 102.719C191.055 96.9968 186.603 91.2684 182.147 85.5485C180.451 83.3728 178.62 81.3636 176.208 79.97C175.252 79.4168 174.362 78.6929 173.548 77.9254C170.251 74.82 166.501 72.3719 162.614 70.1713C157.048 67.016 151.219 64.4306 145.195 62.3277C141.859 61.1671 138.735 59.6445 136.088 57.1735C135.039 56.1959 133.758 55.4845 132.616 54.611C130.71 53.1571 128.818 51.6865 126.944 50.1889C123.159 47.1625 119.962 43.5247 117.05 39.6476C116.051 38.3164 114.844 37.8983 113.412 37.6799C112.229 37.499 111.692 38.229 111.38 39.2461C110.803 41.1285 111.656 42.7696 112.255 44.4336C112.857 46.0996 113.709 47.6784 114.179 49.3777C115.316 53.4794 116.802 57.4273 119.004 61.036C120.937 64.2059 122.907 67.3841 125.182 70.294C128.253 74.2251 131.372 78.1833 134.929 81.6257C140.698 87.2063 146.858 92.3605 152.817 97.7352C154.486 99.239 156.143 100.784 157.609 102.49C160.639 106.016 163.708 109.529 166.432 113.298C168.395 116.016 169.833 119.134 171.468 122.096C171.577 122.289 171.444 122.77 171.265 122.94C171.105 123.092 170.652 123.117 170.453 122.992C169.376 122.31 168.33 121.578 167.287 120.84C164.156 118.629 161.014 116.472 157.455 114.982C150.556 112.095 143.382 109.936 136.746 106.332C135.144 105.46 133.807 104.568 132.715 103.141C129.486 98.9124 126.264 94.6734 122.96 90.5051C121.358 88.4875 119.733 86.4367 117.848 84.7165C111.323 78.7678 104.748 72.8586 96.3931 69.6346C95.9515 69.462 95.5342 69.2082 95.1271 68.9523C91.0051 66.3545 86.3909 65.1253 81.7504 64.0437C78.7647 63.349 75.9999 62.2736 73.4578 60.5181C71.8799 59.4282 70.2574 58.3986 68.5762 57.5001C68.161 57.2754 67.282 57.4814 66.891 57.8204C66.4798 58.1823 66.0626 59.0933 66.2368 59.4968C66.806 60.8155 67.4906 62.1446 68.4041 63.2304C71.3006 66.6873 74.2519 70.1068 77.3246 73.3994C79.2144 75.4253 80.7457 77.6217 82.0016 80.1135C85.4916 87.0565 89.1234 93.9246 92.662 100.841C93.0975 101.691 93.853 103.047 93.5452 103.482C92.7754 104.566 91.5642 103.572 90.5089 103.436C87.4442 103.045 84.8414 101.462 82.0725 100.275C80.0469 99.4095 77.9485 98.563 75.8034 98.199C68.4568 96.9489 61.0797 95.9297 53.7999 94.2387C47.1237 92.6871 40.8202 89.9768 34.2757 88.0403C33.3885 87.7762 32.6066 87.1293 31.7721 86.6738C30.9436 86.2245 30.1537 85.6089 29.2685 85.3821C24.4133 84.1342 20.0928 81.6236 16.0458 78.8177C13.1026 76.7752 10.0967 74.4352 8.82871 70.6018C8.49854 69.6076 7.61135 68.7278 6.79911 68.0081C5.72557 67.0576 4.41304 67.3071 3.4347 68.4137C2.11 69.9133 1.79602 72.5341 2.95868 74.3125C4.37251 76.4652 6.0355 78.4454 7.48174 80.5753C9.4769 83.506 11.6078 86.3743 13.2606 89.5026C18.3832 99.187 25.5537 106.85 34.4742 112.838C41.4198 117.503 49.135 120.517 56.8767 123.406C62.1472 125.37 66.9396 128.29 71.4809 131.487C75.376 134.23 78.6554 137.893 82.1758 141.182C82.7551 141.72 83.1926 142.417 83.6787 143.054C83.7699 143.174 83.7739 143.362 83.8144 143.522C83.5329 143.595 83.223 143.792 82.9799 143.724C79.6276 142.79 76.2855 141.816 72.9393 140.859C71.568 140.468 70.2129 139.871 68.8213 139.753C62.5057 139.214 56.1799 138.575 49.8501 138.444C45.2116 138.349 40.7189 137.71 36.2344 136.616C29.8964 135.069 23.7752 132.833 17.6074 130.711C13.9291 129.447 11.312 127.027 9.10218 123.97C8.4459 123.063 7.99016 121.994 7.49188 120.977C6.85991 119.679 5.72355 119.652 4.62773 119.885C2.44824 120.349 1.19445 123.329 2.36926 125.251C3.88842 127.728 5.837 129.983 7.03207 132.606C10.3479 139.871 15.5738 145.504 21.1744 150.831C23.4957 153.036 26.0438 154.997 28.5717 156.956C30.5972 158.522 32.7403 159.933 34.8428 161.391C36.1594 162.304 37.4355 163.3 38.8311 164.053C44.7255 167.225 50.6238 170.395 56.5972 173.409C59.1352 174.688 61.7826 176.08 64.5231 176.55C69.8219 177.463 75.2119 177.839 80.5776 178.297C92.8909 179.349 105.22 180.24 117.418 182.351C120.049 182.806 122.581 183.863 125.142 184.691C125.379 184.768 125.687 185.234 125.644 185.456C125.575 185.831 125.324 186.353 125.024 186.465C124.139 186.8 123.199 186.993 122.271 187.187C119.472 187.773 116.667 188.339 113.863 188.907C110.475 189.591 108.37 192.046 106.488 194.71C105.711 195.819 105.707 197.141 106.586 198.365C107.378 199.465 108.145 200.218 109.715 199.966C113.989 199.271 118.281 199.54 122.47 200.58C130.068 202.466 137.279 205.399 144.024 209.499C145.249 210.243 146.517 210.965 147.85 211.454C149.695 212.13 151.263 213.101 152.553 214.632C153.159 215.354 153.953 215.947 154.743 216.467C159.278 219.449 163.807 222.449 168.413 225.321C169.726 226.143 170.184 226.948 169.655 228.474C168.134 232.867 168.089 237.462 168.3 242.021C168.496 246.241 168.954 250.499 171.403 254.12C174.812 259.166 179.404 262.486 185.392 263.378C188.478 263.84 191.525 265.165 194.762 264.032C196.242 263.512 197.818 263.295 199.354 262.94C200.51 264.551 199.935 266.361 199.927 268.108C199.927 268.427 199.994 268.761 200.109 269.057C202.08 274.178 201.515 279.226 199.751 284.259C199.433 285.168 199.181 286.146 199.135 287.105C199.015 289.532 198.963 291.966 199.011 294.395C199.052 296.34 198.894 298.424 199.512 300.192C200.476 302.95 200.48 305.517 199.706 308.262C199.266 309.814 199.21 311.478 198.932 313.082C198.108 317.891 197.654 322.812 196.325 327.471C194.506 333.842 193.97 340.246 194.172 346.8C194.233 348.71 194.735 350.292 196.287 351.476C197.049 352.054 197.685 352.803 198.369 353.483C200.178 355.278 202.293 356.17 204.849 355.952C207.061 355.765 209.279 355.65 211.499 355.548C215.139 355.38 218.811 354.868 222.41 355.195C227.612 355.669 232.826 355.555 238.037 356.019C245.307 356.668 252.51 357.142 259.543 359.374C263.474 360.619 267.548 361.433 271.593 362.246C277.505 363.436 283.292 362.656 288.82 360.316C290.536 359.588 291.885 357.988 293.562 357.121C297.388 355.137 300.041 352.019 302.099 348.304C303.815 345.199 305.332 341.981 307.024 338.861C307.791 337.451 308.561 335.928 309.693 334.871C311.413 333.257 312.43 331.402 312.948 329.122C313.714 325.757 315.095 322.645 317.078 319.856C319.604 316.306 322.124 312.745 324.818 309.329C327.2 306.311 328.731 302.555 332.086 300.373C333.674 299.339 335.438 298.516 336.815 297.245C339.669 294.618 343.092 293.567 346.704 292.945C349.833 292.407 352.997 292.068 356.127 291.554C360.729 290.801 364.899 288.696 368.872 286.427C371.709 284.806 374.746 283.209 376.723 280.22C379.034 276.73 381.584 273.41 384.017 270.007C385.515 267.906 387.255 265.926 388.42 263.643C391.803 257.032 395.137 250.391 396.466 242.905C397.314 238.117 398.72 233.47 397.758 228.449Z" fill="#C0FFD5"/>
</svg>
