<svg width="400" height="401" viewBox="0 0 400 401" fill="none" xmlns="http://www.w3.org/2000/svg">
<path d="M225.512 231.205C226.188 231.426 226.934 231.234 227.394 230.712C227.855 230.193 227.928 229.453 227.58 228.857C227.484 228.689 225.76 225.798 222.101 224.094C225.16 223.301 229.24 223.224 232.308 226.77C232.823 227.37 233.707 227.539 234.428 227.18C235.144 226.816 235.502 226.025 235.284 225.279C235.238 225.13 234.538 222.821 232.631 220.686C235.703 221.034 239.886 222.396 243.693 226.628C242.139 227.635 239.6 229.435 236.36 232.272C235.678 232.867 235.035 233.445 234.419 234.002C230.634 237.414 228.166 239.703 223.857 239.374C220.645 239.153 219.83 237.764 218.701 235.841C217.671 234.089 216.391 231.91 213.128 230.986C212.993 230.947 212.856 230.909 212.721 230.874C216.187 230.018 220.757 229.613 225.512 231.205ZM245.749 229.269C246.764 230.877 247.489 232.867 247.194 234.512C246.988 235.649 246.315 236.545 245.134 237.245C241.567 239.363 238.196 237.924 236.372 236.755C236.507 236.632 236.639 236.516 236.775 236.393C237.381 235.846 238.009 235.279 238.677 234.696C240.069 233.478 241.306 232.48 242.395 231.647C242.288 231.893 242.221 232.156 242.244 232.44C242.327 233.389 243.194 234.094 244.186 234.015C245.177 233.936 245.914 233.106 245.832 232.158C245.752 231.209 244.882 230.504 243.89 230.583C243.854 230.585 243.824 230.607 243.787 230.612C244.568 230.051 245.237 229.597 245.749 229.269ZM205.723 233.544C205.75 233.537 208.765 233.176 212.153 234.135C214.079 234.683 214.798 235.905 215.706 237.449C216.975 239.611 218.557 242.302 223.608 242.651C223.949 242.675 224.281 242.686 224.606 242.686C228.37 242.686 231.113 241.135 233.759 239.006C235.559 240.316 238.274 241.606 241.347 241.606C243.135 241.606 245.042 241.168 246.945 240.036C248.95 238.846 250.207 237.129 250.578 235.073C251.169 231.796 249.442 228.286 247.611 226.071C247.611 226.069 247.611 226.069 247.611 226.067C247.606 226.06 247.599 226.056 247.597 226.05C247.588 226.041 247.579 226.028 247.57 226.017C247.567 226.014 247.565 226.012 247.563 226.01C238.966 214.882 227.745 217.548 227.266 217.666C226.545 217.845 226.028 218.454 225.986 219.168C225.961 219.643 226.154 220.097 226.492 220.419C222.298 220.081 218.216 221.687 215.88 223.139C215.253 223.529 214.96 224.265 215.162 224.954C215.361 225.647 216.009 226.133 216.76 226.157C218.067 226.198 219.198 226.47 220.164 226.862C211.558 226.376 204.92 230.32 204.577 230.528C203.896 230.942 203.608 231.753 203.884 232.475C204.159 233.198 204.903 233.64 205.723 233.544Z" fill="#C0FFD5"/>
<path d="M289.529 44.8575C290.47 48.0989 293.633 49.0899 297.293 50.2331C299.825 51.022 302.69 51.9188 305.716 53.6931C309.36 55.8328 310.757 57.7815 312.372 60.0347C313.755 61.964 315.321 64.1535 318.443 66.4454C321.574 68.7484 325.269 70.4148 329.497 71.4417C324.248 71.6908 319.644 70.8327 315.758 68.8425C312.577 67.2149 311 65.5126 309.177 63.5417C307.282 61.4989 305.132 59.1793 300.922 56.5802C290.192 49.9618 276.843 47.8913 271.982 49.3252C270.758 49.6878 269.951 50.294 269.583 51.1271C268.625 53.2973 271.12 55.4674 272.94 57.0507C275.738 59.4866 278.394 60.2644 281.47 61.164C282.99 61.6097 284.708 62.1162 286.667 62.8885C290.169 64.2697 292.938 65.3576 295.004 67.381C296.801 69.1387 298.008 71.6466 298.566 74.7052C296.341 71.45 293.638 68.8425 290.478 66.9104C286.974 64.768 284.381 64.3832 281.873 64.0068C279.529 63.6608 277.107 63.2982 273.475 61.4436C269.699 59.5115 267.245 57.3137 265.081 55.3761C262.05 52.6606 259.428 50.3244 254.876 50.4905C251.225 50.6317 248.539 51.8911 247.312 54.0363C245.753 56.7656 247.12 59.8077 247.577 60.6796C249.002 63.3757 251.742 64.9811 257.69 66.606C262.214 67.8377 264.911 68.073 267.08 68.2612C268.874 68.4162 270.058 68.5159 271.626 69.1276C273.533 69.8667 275.275 71.1123 276.843 72.8479C274.494 71.5469 272.04 70.5725 269.494 69.9276C266.276 69.1138 264.426 69.2245 262.633 69.3408C261.207 69.4293 259.723 69.5207 257.262 69.1221C251.277 68.1505 247.028 65.4904 243.614 63.3535C239.846 60.9924 236.59 58.9579 232.924 60.5855C230.523 61.6567 228.275 64.2698 228.666 66.7887C229.731 73.6617 251.376 76.2027 255.705 76.6428L256.861 76.7536C260.742 77.1217 264.408 77.4705 267.08 80.1084C267.093 80.1278 267.109 80.1389 267.123 80.1555C263.833 78.6054 259.414 77.1937 254.849 77.7999L254.347 77.8635C246.224 78.9348 238.566 79.9396 225.898 71.0653C222.558 68.7263 217.168 66.0717 208.86 64.494C216.032 62.4207 220.891 59.5945 225.584 56.8431C228.982 54.8501 232.494 52.7935 236.913 51.0192C244.462 47.9882 250.224 47.2104 253.32 46.7924C253.782 46.726 254.178 46.6762 254.503 46.6236C267.338 44.6195 277.205 45.6547 280.449 45.9924C281.708 46.1225 282.185 46.1779 282.778 45.7018C283.131 45.425 283.354 45.0153 283.395 44.578C283.438 44.0936 283.25 43.6064 282.891 43.2659C281.768 42.1975 259.444 37.6026 232.464 39.9526C221.811 40.8799 215.384 42.3663 210.222 43.5566C208.637 43.922 207.166 44.2597 205.71 44.5531C209.521 42.2445 213.32 38.7042 216.094 33.1875C216.513 32.3516 216.944 31.4575 217.388 30.5275C221.47 22.0047 226.828 10.8246 242.763 7.88776C238.284 10.3264 233.094 14.03 229.312 19.3723C223.421 27.6819 221.717 32.1772 223.435 34.8788C225.023 37.3811 228.758 36.9576 229.98 36.8247C238.564 35.8587 241.925 30.1981 245.485 24.2053C247.106 21.4816 248.782 18.6582 251.055 16.0617C259.263 6.6809 270.773 2.52056 285.345 3.62224C277.254 4.86508 267.341 7.86561 259.256 14.83C250.767 22.1403 247.122 28.493 249.251 32.2547C250.412 34.3031 252.972 35.0532 256.111 34.2532C262.649 32.5841 266.597 28.2245 270.414 24.0088C275.362 18.5364 280.067 13.3823 290.319 13.8888C298.17 14.2847 301.697 15.6604 305.109 16.9918C309.027 18.5198 312.514 19.8706 320.902 19.5356C316.857 21.3099 311.637 22.7715 307.259 21.3127C296.937 17.861 286.066 15.796 276.493 23.9147C271.348 28.2826 271.068 32.764 273.073 35.2663C273.99 36.4151 276.062 37.4974 284.014 35.6428C289.185 34.4332 292.183 33.0713 294.596 31.9724C296.789 30.9731 298.378 30.2562 300.815 29.9766C305.233 29.4729 310.155 30.7738 314.661 33.6443C318.261 35.9334 319.762 38.3776 321.507 41.2093C323.18 43.9275 325.075 47.0111 329.123 49.9286C330.208 50.7147 331.357 51.4206 332.564 52.0489C329.019 51.642 325.903 50.6427 323.235 49.0539C320.341 47.3294 318.622 45.3143 316.958 43.3656C314.698 40.7138 312.357 37.9707 307.412 36.2573C306.298 35.8725 296.381 32.6423 291.587 37.7188C290.131 39.2634 288.713 42.0618 289.529 44.8575ZM172.147 59.4035C166.079 57.7123 160.094 55.6335 154.476 53.5436C155.041 53.5381 155.679 53.5907 156.445 53.7678C157.01 53.8979 157.654 54.0363 158.353 54.1886C162.314 55.0411 169.724 56.6383 172.147 59.4035ZM159.108 50.9832C158.427 50.8365 157.799 50.7009 157.248 50.5763C153.292 49.6601 150.919 50.7839 149.695 51.7389C149.045 51.4898 148.409 51.2462 147.773 50.9998C149.16 49.4829 152.147 47.5066 157.756 49.0318C158.881 49.339 160.051 49.6352 161.241 49.9369C170.902 52.3783 177.9 54.6841 178.32 60.9592C177.654 60.8069 176.988 60.6575 176.322 60.4914C175.578 54.5401 165.395 52.334 159.108 50.9832ZM216.836 57.8756C214.073 59.2402 211 60.4831 207.251 61.5183C207.707 60.699 208.672 60.0319 209.574 59.553C212.099 58.2105 214.984 57.8119 216.836 57.8756ZM220.799 55.7691C218.457 53.9782 213.542 54.5014 210.167 55.6972C205.966 57.1836 203.624 59.6416 203.573 62.3626C203.098 62.4539 202.637 62.5702 202.155 62.6421C202.052 60.7045 202.414 57.4078 205.764 55.9823C208.69 54.7367 216.456 51.4178 220.575 53.1423C221.397 53.4827 222.031 54.0363 222.517 54.7865C221.946 55.1159 221.372 55.4453 220.799 55.7691ZM130.075 44.7635C128.739 42.5463 124.778 37.0738 117.751 36.1244C109.371 34.9812 102.099 41.1761 99.2578 47.8775C95.8655 55.8688 97.9588 67.2426 106.385 70.7885C108.152 71.5303 109.943 71.8154 111.643 71.8154C114.959 71.8154 117.926 70.7386 119.742 69.8972C120.981 70.6058 122.286 71.2784 123.654 71.9178C123.691 71.94 123.72 71.9676 123.757 71.9898C123.817 72.023 123.883 72.0258 123.945 72.0534C126.814 73.3738 129.921 74.5696 133.238 75.6657C132.76 77.6089 132.383 80.9527 134.199 84.2632C136.267 88.0277 140.516 90.5771 146.828 91.8393L149.285 92.3348C154.191 93.334 159.208 94.3472 162.871 94.469C161.89 94.9118 160.903 95.4654 159.944 96.174C158.996 96.8744 158.224 97.6217 157.561 98.3746C155.538 97.201 153.354 96.0938 151.013 95.0558C150.977 95.0391 150.949 95.0142 150.911 95.0004C150.899 94.9949 150.886 94.9976 150.873 94.9921C145.262 92.5147 138.781 90.4193 131.464 88.7502C109.916 83.8369 93.4045 73.2492 87.2968 60.4333C84.801 55.1961 84.2052 49.8428 85.433 44.6693C86.0699 42.6182 86.8523 40.556 87.802 38.4911C97.3086 21.13 109.211 16.3745 151.039 36.2407C168.439 44.5032 179.919 48.1432 190.663 48.7937C190.71 48.7965 190.75 48.7965 190.796 48.7992C190.803 48.7992 190.809 48.8048 190.817 48.8048C190.83 48.8048 190.884 48.8048 190.907 48.8048C199.845 49.3252 204.793 48.1875 211.025 46.7509C216.346 45.5247 222.374 44.1296 232.776 43.2244C242.051 42.4134 250.616 42.4438 257.88 42.8424C256.605 42.9947 255.293 43.1718 253.949 43.3822C253.645 43.4265 253.274 43.4791 252.836 43.54C249.819 43.9469 243.541 44.7967 235.585 47.9882C231.647 49.5687 228.46 51.3292 225.449 53.0758C224.598 51.75 223.435 50.7479 221.944 50.1279C217.061 48.0934 209.986 50.5874 204.366 52.9817C199.499 55.0577 198.518 59.7357 198.728 62.9992C193.349 63.3618 187.605 62.7944 181.774 61.6761C181.917 51.7915 170.998 49.0068 162.118 46.7592C160.951 46.463 159.801 46.1724 158.694 45.8707C151.109 43.8085 146.488 46.964 144.462 49.7238C140.716 48.2816 137.166 46.9198 134.012 45.8347C132.707 45.3863 131.388 45.0292 130.075 44.7635ZM108.642 51.2572C107.62 53.2281 106.385 57.5822 110.882 62.9356C110.41 62.6809 109.946 62.3903 109.514 62.0166C107.759 60.5025 106.696 58.1136 106.597 55.4591C106.49 52.5997 107.509 49.8123 109.325 48.0103C111.641 45.7046 114.865 45.3586 115.796 45.3088C116.023 45.2949 116.235 45.306 116.452 45.306C112.896 46.4768 110.074 48.4947 108.642 51.2572ZM123.85 44.1572C122.273 43.1718 119.417 41.8349 115.601 42.0286C114.001 42.1172 109.945 42.6542 106.849 45.7323C104.367 48.1986 103.024 51.7887 103.165 55.5754C103.295 59.1157 104.773 62.3487 107.215 64.458C110.078 66.9215 113.624 67.3893 115.821 67.4059C115.964 67.5111 116.095 67.6135 116.243 67.7187C113.946 68.4716 110.735 69.0308 107.767 67.7796C101.437 65.1168 99.7054 55.5588 102.44 49.112C104.724 43.7282 110.653 38.4855 117.269 39.3768C121.09 39.8917 123.822 42.239 125.489 44.196C124.938 44.1711 124.391 44.1517 123.85 44.1572ZM121.212 56.8321C125.607 63.5058 133.171 69.2162 138.707 70.913C141.186 71.6687 143.185 71.6106 144.648 70.7414C146.574 69.5899 146.809 68.0758 146.779 67.2758C146.689 64.9811 144.24 62.6477 141.664 60.818C144.667 61.0478 148.412 61.618 151.947 62.9494C156.855 64.7929 159.148 68.992 161.172 72.7012C163.274 76.5515 165.445 80.5485 170.298 79.1507C172.704 78.4614 173.494 77.058 173.732 76.0034C174.293 73.5067 172.124 70.4175 169.984 68.0813C176.882 69.0086 189.072 71.9372 189.415 81.0634C189.658 87.5239 193.198 88.4513 194.276 88.5814C197.222 88.9716 200.007 86.4998 201.237 82.5249C202.229 79.3223 205.44 78.5583 207.573 78.4199C205.379 87.4271 207.287 92.1798 209.473 97.6273C211.598 102.917 213.928 108.771 213.013 120.286C211.41 114.31 208.614 108.409 204.532 102.568C202.498 99.6535 199.956 97.1318 197.058 94.8869C197.01 94.8482 196.965 94.8094 196.912 94.7762C190.792 90.0761 183.022 86.6686 174.571 83.8729C174.499 83.8425 174.429 83.8203 174.353 83.801C167.64 81.5893 160.523 79.7403 153.478 77.9272C143.073 75.2422 133.174 72.6596 125.414 69.0833C120.588 66.1326 120.545 60.5938 121.212 56.8321ZM226.491 127.575C227.173 127.588 227.86 127.605 228.552 127.611C228.584 127.611 228.618 127.611 228.653 127.611C231.871 127.611 236.718 126.08 241.405 124.596C245.171 123.409 249.066 122.174 251.259 122.055C251.882 122.005 252.599 122.11 253.37 122.299C253.45 122.324 253.528 122.351 253.61 122.362C255.481 122.863 257.672 123.882 259.824 124.865C263.497 126.548 266.942 128.153 269.902 127.901C280.484 127.079 282.871 127.409 286.939 130.301C290.377 132.745 291.448 142.818 287.611 151.662C287.125 152.791 286.494 153.813 285.77 154.746C285.218 154.178 284.627 153.818 284.13 153.6C282.842 153.04 281.551 153.087 280.628 153.24C275.897 147.665 278.027 142.06 278.122 141.822C278.392 141.163 278.195 140.415 277.631 139.962C277.066 139.51 276.262 139.447 275.634 139.815C267.558 144.498 262.233 138.929 262.017 138.699C261.573 138.212 260.868 138.016 260.227 138.207C259.582 138.389 259.112 138.923 259.02 139.563C257.693 149.071 243.209 153.04 243.063 153.079C242.332 153.276 241.822 153.904 241.806 154.632C241.794 155.357 242.28 156.008 243.001 156.226C245.363 156.946 246.357 159.307 246.744 160.644C245.932 161.248 244.949 162.225 244.599 163.614C244.484 164.068 244.429 164.647 244.532 165.308C242.797 165.2 241.078 164.91 239.434 164.342C235.184 162.875 232.002 159.98 230.704 156.401C228.325 149.841 240.782 140.648 245.785 137.661C246.504 137.232 246.788 136.36 246.451 135.616C246.115 134.871 245.267 134.478 244.434 134.68C234.25 137.257 227.295 140.047 223.76 142.973C222.166 144.291 216.797 145.107 212.596 145.448C212.598 145.439 212.6 145.434 212.603 145.428C212.605 145.412 212.617 145.401 212.619 145.387C212.621 145.379 212.619 145.373 212.619 145.365C213.805 141.24 214.45 137.166 214.553 133.138C214.814 131.876 215.055 130.655 215.261 129.482C218.354 127.408 222.141 127.469 226.491 127.575ZM258.263 113.477C258.334 111.894 258.169 110.432 258.02 109.14C257.599 105.436 257.368 103.396 262.333 101.212C266.239 99.4929 272.899 99.4542 278.076 102.696C279.555 103.623 280.819 104.769 281.876 106.103C281.441 106.352 281.01 106.646 280.605 107.058C279.26 108.431 278.999 110.047 279.008 111.155C278.169 111.589 277.058 112.002 275.7 112.123C273.249 112.337 271.299 111.495 270.362 110.964C269.725 110.604 268.921 110.676 268.362 111.135C267.803 111.598 267.618 112.35 267.897 113.004C268.556 114.537 269.274 116.987 268.947 119.94C268.776 121.471 268.323 122.991 267.641 124.405C265.795 123.954 263.524 122.916 261.306 121.9C259.765 121.197 258.208 120.488 256.683 119.918C257.423 118.584 258.125 116.558 258.263 113.477ZM282.44 111.191C282.425 110.687 282.518 109.909 283.108 109.306C283.276 109.134 283.455 109.012 283.638 108.91C284.344 110.341 284.876 111.921 285.218 113.649C284.364 112.76 283.424 111.946 282.44 111.191ZM281.114 156.495C281.528 156.412 282.15 156.348 282.709 156.592C282.995 156.716 283.236 156.935 283.447 157.217C281.809 158.668 280.012 159.794 278.409 160.63L281.114 156.495ZM248.074 165.245C247.939 164.935 247.875 164.644 247.937 164.392C248.022 164.043 248.29 163.722 248.58 163.462C249.379 163.958 250.343 164.345 251.378 164.625C250.286 164.926 249.183 165.12 248.074 165.245ZM197.777 166.858C196.162 165.452 193.788 162.474 195.89 158.192L196.1 157.757C199.215 151.388 202.35 146.145 208.709 146.444C206.537 153.087 202.893 159.88 197.777 166.858ZM159.299 188.798C156.19 189.869 152.946 190.993 149.618 192.199C149.337 191.209 149.149 189.786 149.749 188.327C150.672 186.087 153.175 184.334 157.191 183.119C164.394 180.938 168.154 181.726 170.043 182.771C170.908 183.25 171.455 183.824 171.811 184.324C167.899 185.83 163.726 187.274 159.299 188.798ZM120.872 213.325C122.791 214.843 125.855 214.711 129.129 213.139C128.31 215.397 127.147 217.401 125.657 219.122C123.461 221.658 120.998 223.06 118.823 224.295C116.027 225.885 113.388 227.39 112.553 230.706C111.939 233.146 112.501 236.142 113.982 238.336C114.951 239.771 116.222 240.695 117.561 240.938C120.22 241.424 123.19 239.304 125.466 235.513C126.288 240.368 125.781 244.486 123.949 247.799C123.36 248.87 122.629 249.869 121.92 250.835C120.191 253.202 118.398 255.651 119.207 258.715C119.924 261.446 122.876 264.333 125.823 264.02C128.883 263.744 131.275 260.268 132.452 254.65C133.991 257.565 134.924 260.513 135.237 263.457C135.575 266.639 135.178 269.398 134.827 271.834C134.295 275.507 133.837 278.676 136.418 281.124C138.328 282.94 141.866 284.028 144.476 282.712C147.645 281.115 147.71 276.965 147.738 275.185C147.776 272.592 147.074 270.299 146.1 268.38C148.167 269.263 150.8 270.739 153.551 273.174C155.785 275.15 157.008 277.287 158.087 279.175C159.692 281.983 161.346 284.876 165.817 284.874C166.517 284.874 167.288 284.804 168.137 284.652C169.841 284.344 171.371 282.938 172.336 280.791C173.423 278.373 173.841 274.685 171.756 271.591C170.301 269.434 167.725 268.148 164.663 267.946C166.758 264.896 168.952 263.117 171.323 262.539C173.395 262.031 175.531 262.143 177.422 262.234C180.232 262.375 182.882 262.51 184.259 260.382C185.327 258.739 184.875 256.575 183.956 255.163C181.96 252.092 176.808 251.227 170.104 252.694C170.43 252.283 170.808 251.875 171.25 251.479C172.98 249.928 174.862 249.285 176.192 249.013C178.394 249.103 180.444 249.162 182.276 249.184C183.287 250.347 185.67 252.373 190.884 254.044C191.879 254.361 192.819 254.506 193.732 254.578C193.819 254.589 193.897 254.624 193.988 254.624C194.086 254.622 194.17 254.622 194.265 254.62C194.385 254.624 194.513 254.65 194.631 254.65C194.799 254.65 194.955 254.617 195.12 254.611C202.662 254.547 203.78 255.147 204.862 255.725C206.171 256.424 207.477 256.983 211.282 257.261C211.634 257.287 211.978 257.3 212.317 257.3C219.547 257.298 223.817 251.634 225.504 248.79C227.446 249.676 231.001 251.063 235.386 251.827C233.641 253.724 232.435 256.282 233.65 259.103C235.056 262.353 237.268 263.325 239.876 263.325C241.767 263.325 243.864 262.817 246.009 262.296C249.226 261.514 253.249 260.489 257.972 260.603C259.357 260.62 260.662 260.708 261.917 260.826C261.949 261.352 261.979 261.878 262.008 262.392C262.113 264.105 262.212 265.824 262.267 267.462C256.93 267.079 251.884 268.216 248.436 269.32L246.978 269.793C237.554 272.841 232.821 274.377 227.015 267.609C221.177 260.802 225.93 255.331 226.136 255.101C226.754 254.418 226.679 253.384 225.967 252.791C225.252 252.191 224.169 252.259 223.544 252.944C221.124 255.59 218.185 262.491 224.359 269.692C225.937 271.531 227.496 272.848 229.067 273.785C226.606 277.016 219.648 285.025 208.088 289.624C209.562 286.17 211.527 280.15 212.969 270.478C213.079 269.734 212.649 269.015 211.92 268.726C211.195 268.443 210.357 268.663 209.89 269.267C209.821 269.357 203.439 277.403 190.537 280.664C192.836 276.483 196.388 268.991 196.489 262.447C196.502 261.597 195.84 260.881 194.957 260.789C194.854 260.78 183.784 259.749 178.563 269.804C177.668 271.525 176.951 273.323 176.267 275.108C176.253 275.145 176.236 275.18 176.224 275.22C176.038 275.71 175.837 276.205 175.655 276.689C172.891 284.044 170.503 290.393 160.293 291.902C147.397 293.796 125.128 283.354 116.811 258.774C108.754 234.961 109.423 220.075 119.294 210.85C119.548 211.741 120.021 212.653 120.872 213.325ZM142.843 242.261C142.887 241.547 143.051 240.927 143.591 240.48C144.276 239.917 146.229 239.092 151.576 239.904C162.025 241.496 181.476 244.457 196.642 236.882C197.294 236.558 197.658 235.87 197.546 235.176C197.433 234.481 196.871 233.932 196.148 233.809C195.68 233.728 149.138 225.791 141.319 223.209C140.918 223.075 140.787 222.946 140.773 222.946C140.773 222.867 140.87 222.541 141.353 222.092C142.135 221.363 143.715 220.566 145.653 220.732C149.808 221.082 155.646 222.315 161.826 223.619C168.465 225.02 175.331 226.47 180.627 226.912C186.258 227.388 191.161 227 195.903 226.63C200.781 226.251 205.381 225.89 209.97 226.608C210.899 226.757 211.788 226.148 211.944 225.254C212.099 224.359 211.463 223.513 210.529 223.367C206.958 222.804 203.483 222.845 199.937 223.056C202.125 220.89 205.931 217.946 210.705 217.609C215.174 217.3 216.291 217.76 217.12 218.095C218.164 218.52 219.057 218.792 221.124 218.454C223.054 218.135 225.935 216.523 229.229 214.604C230.168 214.057 230.974 213.586 231.5 213.325C233.865 212.156 237.009 212.12 240.835 213.202C241.915 215.355 242.154 217.164 242.17 217.307C242.252 218.023 242.811 218.605 243.553 218.743C245.554 219.116 247.756 221.271 249.714 223.452C249.716 223.457 249.721 223.457 249.723 223.461C249.741 223.483 249.762 223.505 249.78 223.524C250.24 224.037 250.684 224.552 251.113 225.044C252.788 226.974 254.233 228.641 255.666 229.457C255.76 229.51 255.87 229.545 255.971 229.591C256.033 229.622 256.092 229.652 256.161 229.674C257.029 230.029 258.109 230.187 259.311 230.187C262.024 230.187 265.257 229.46 267.666 228.792C267.67 230.114 267.959 231.284 268.211 232.011C267.599 233.17 266.196 235.907 263.847 240.894C263.609 241.4 263.398 241.934 263.201 242.488C258.215 242.361 255.254 244.089 252.397 245.789C249.789 247.344 247.33 248.811 243.072 249.052C233.749 249.576 225.701 245.196 225.621 245.152C225.198 244.92 224.68 244.871 224.22 245.018C223.753 245.165 223.373 245.498 223.178 245.931C223.144 246.015 219.274 254.582 211.543 253.984C208.189 253.739 207.388 253.31 206.539 252.857C205.59 252.351 204.632 251.934 202.785 251.665C203.976 250.813 205.062 249.895 206.039 249.059C206.634 248.551 207.208 248.058 207.769 247.616C210.911 245.126 216.719 246.295 216.774 246.306C217.718 246.514 218.615 245.936 218.817 245.053C219.02 244.166 218.436 243.292 217.512 243.097C217.212 243.034 210.02 241.569 205.579 245.082C204.986 245.552 204.377 246.074 203.748 246.613C200.369 249.503 196.878 252.497 191.972 250.927C189.899 250.261 188.402 249.558 187.309 248.923C198.824 247.471 208.105 240.309 208.539 239.97C209.272 239.394 209.379 238.358 208.777 237.657C208.177 236.956 207.096 236.856 206.361 237.427C206.251 237.513 195.379 245.912 183.343 245.912C183.288 245.912 183.231 245.912 183.177 245.912C169.442 245.826 146.958 243.752 142.843 242.261ZM169.6 206.551C169.745 205.616 169.877 205.162 170.342 204.884C171.264 204.33 174.211 203.844 183.591 206.746C191.993 209.35 199.456 210.907 206.405 211.505C208.429 211.678 209.599 211.667 210.95 211.658C212.369 211.643 213.979 211.632 217.138 211.814C220.131 211.985 223.107 212.265 226.063 212.596C224.096 213.721 221.692 215.027 220.538 215.217C219.322 215.419 219.068 215.32 218.466 215.073C217.028 214.488 215.332 213.989 210.453 214.333C207.83 214.516 205.486 215.318 203.453 216.367C188.624 212.854 172.6 208.4 169.6 206.551ZM248.491 210.938C248.896 211.474 249.602 211.728 250.275 211.571C250.948 211.422 251.458 210.898 251.575 210.246C251.625 209.954 251.907 208.141 251.392 206.255C253.482 206.564 256.285 207.697 257.496 211.407C258.066 213.159 254.515 217.243 251.213 220.11C249.439 218.253 247.513 216.595 245.384 215.837C245.142 214.749 244.603 212.983 243.546 211.089C243.541 211.076 243.534 211.067 243.529 211.056C242.774 209.709 241.762 208.299 240.368 207.009C242.971 207.129 246.231 207.966 248.491 210.938ZM259.767 222.839C259.54 225.496 257.979 226.218 257.136 226.418C256.223 225.769 254.979 224.354 253.755 222.944C253.656 222.83 253.555 222.718 253.457 222.6C254.045 222.096 254.751 221.463 255.486 220.745C255.456 220.896 255.417 221.047 255.431 221.207C255.511 222.156 256.381 222.861 257.372 222.784C258.361 222.705 259.098 221.873 259.018 220.927C258.936 219.979 258.066 219.273 257.077 219.352C256.965 219.359 256.873 219.409 256.77 219.435C257.123 219.054 257.471 218.658 257.809 218.251C258.769 219.035 259.968 220.495 259.767 222.839ZM278.392 225.16C278.996 225.417 279.688 225.314 280.191 224.913C280.692 224.51 280.912 223.862 280.756 223.253C280.75 223.235 280.275 221.35 281.175 219.966C281.667 219.203 282.509 218.708 283.739 218.45C284.925 218.2 285.99 218.463 287.029 219.251C288.1 220.06 289.034 221.415 289.769 223.036C288.751 223.01 287.958 223.33 287.446 223.643C285.276 224.981 284.662 228.065 285.325 230.27C285.585 231.139 286.517 231.65 287.449 231.396C288.357 231.146 288.887 230.235 288.624 229.363C288.279 228.211 288.71 226.772 289.309 226.402C289.642 226.196 290.264 226.393 290.999 226.899C291.205 227.953 291.329 229.041 291.347 230.121C291.352 230.712 291.734 231.273 292.272 231.556C292.348 231.595 293.609 232.294 294.524 234.608L293.401 233.827C292.866 233.459 292.163 233.406 291.575 233.708C290.993 234.008 290.643 234.6 290.675 235.23C290.678 235.268 290.771 238.54 288.841 240.879L283.12 237.134C282.553 236.766 281.809 236.75 281.227 237.107C280.649 237.46 280.345 238.111 280.458 238.759C280.461 238.798 281.005 242.182 278.554 244.937C277.535 243.043 276.479 241.95 275.405 241.58C275.298 241.534 275.197 241.494 275.087 241.468C275.041 241.459 274.994 241.426 274.948 241.42C274.867 241.411 274.783 241.422 274.702 241.424C274.638 241.424 274.581 241.42 274.517 241.426C274.323 241.446 274.135 241.488 273.958 241.566C273.95 241.569 273.637 241.707 273.076 241.882C274.329 238.651 276.152 235.355 278.802 231.996C279.407 231.227 281.479 232.162 282.165 232.589C282.961 233.089 284.023 232.876 284.541 232.121C285.067 231.365 284.847 230.344 284.054 229.845C282.11 228.616 278.232 227.265 276.062 230.018C272.413 234.639 270.202 239.206 268.892 243.616C268.877 243.667 268.86 243.717 268.848 243.77C267.093 249.764 267.009 255.467 267.313 260.614C267.405 262.189 267.533 263.715 267.654 265.185C268.016 269.53 268.33 273.281 267.586 276.271C266.006 282.646 261.017 283.546 255.735 284.499C251.49 285.266 247.101 286.056 244.972 289.918C242.509 294.388 243.875 298.827 245.462 303.965C246.868 308.523 248.459 313.682 248.067 320.408C247.683 326.989 243.369 332.305 239.028 336.037C242.369 331.361 245.696 325.507 246.138 320.286C246.669 314.022 244.558 307.885 242.694 302.469C240.544 296.234 238.692 290.848 241.27 287.084C243.731 283.487 248.578 282.749 253.265 282.035C256.848 281.49 260.234 280.975 262.686 279.225C266.315 276.641 265.928 270.268 265.438 262.202C265.081 256.315 264.676 249.641 266.104 244.615C266.104 244.613 266.104 244.611 266.104 244.611C266.352 243.748 266.645 242.951 266.979 242.243C270.139 235.539 271.591 232.911 271.603 232.885C271.855 232.429 271.872 231.889 271.644 231.424C271.626 231.389 270.017 227.988 272.321 225.809C274.615 223.627 278.247 225.099 278.392 225.16ZM301.003 225.371C302.939 227.97 303.436 230.975 303.873 233.625C304.336 236.453 304.741 238.897 306.802 240.195C308.147 241.05 309.95 241.187 312.302 240.62C314.852 240.009 316.481 238.2 316.88 235.528C317.838 229.131 311.625 218.835 304.336 214.74C302.866 213.916 301.254 213.091 299.582 212.232C291.06 207.872 281.404 202.931 281.193 193.163C281.112 189.449 281.855 186.533 283.007 184.254C281.557 187.909 281.303 192.094 283.557 196.424C287.345 203.686 293.306 206.389 299.62 209.249C302.724 210.66 305.942 212.114 309.041 214.199C315.471 218.524 320.159 228.925 318.883 236.023C318.206 239.771 316.015 242.162 312.372 243.135C308.775 244.092 306.165 244.063 304.62 243.051C302.461 241.636 302.096 238.095 301.741 234.674C301.373 231.113 301.023 227.749 298.751 225.787C297.09 224.357 295.267 224.006 293.821 224.076C293.589 223.318 293.306 222.581 292.987 221.86C295.218 221.79 298.688 222.256 301.003 225.371ZM294.749 229.217C294.712 228.616 294.645 227.999 294.553 227.375C295.114 227.438 295.783 227.653 296.451 228.229C297.736 229.339 298.034 232.215 298.323 234.998C298.346 235.228 298.375 235.465 298.398 235.699C297.559 231.978 295.84 230.068 294.749 229.217ZM300.1 253.912C300.658 254.622 301.11 255.338 301.489 256.043C300.305 255.296 298.951 254.584 297.478 254.048C297.522 253.135 297.536 252.219 297.493 251.306C298.468 252.075 299.345 252.951 300.1 253.912ZM313.009 276.142L306.463 272.716C305.899 272.416 305.193 272.449 304.657 272.811C304.122 273.168 303.847 273.785 303.943 274.403C304.6 278.564 304.009 282.243 303.43 284.53L297.527 278.943C296.998 278.441 296.188 278.323 295.528 278.652C294.865 278.982 294.501 279.681 294.625 280.384C295.299 284.188 293.994 287.077 292.808 288.807L289.442 281.468C289.153 280.831 288.479 280.45 287.753 280.487C287.026 280.537 286.413 281.015 286.219 281.685C285.559 283.943 284.431 285.329 283.482 286.146C281.271 278.332 277.202 272.916 271.412 269.946C271.343 268.352 271.227 266.698 271.079 264.924C271.027 264.311 270.987 263.649 270.935 263.019C273.938 264.355 275.998 266.061 277.984 267.725C279.639 269.114 281.259 270.448 283.244 271.396C283.264 271.404 283.279 271.422 283.299 271.431C283.311 271.435 283.322 271.433 283.334 271.437C285.024 272.232 286.98 272.754 289.483 272.754H289.486C291.153 272.754 292.721 272.436 294.194 271.924C294.226 271.913 294.258 271.902 294.289 271.889C299.837 269.924 303.873 265.084 305.511 262.83C311.481 265.441 312.768 272.322 313.009 276.142ZM292.371 241.683C292.53 241.418 292.68 241.159 292.814 240.892C292.811 240.903 292.811 240.912 292.811 240.923C292.75 241.312 292.675 241.7 292.579 242.084L292.371 241.683ZM295.377 267.763C295.27 266.021 294.888 263.969 293.948 261.816C292.981 259.602 291.679 257.854 290.345 256.479C291.231 256.433 292.09 256.4 292.906 256.424C296.963 256.532 300.872 259.514 302.617 261.043C301.416 262.675 298.818 265.807 295.377 267.763ZM280.249 265.255C277.833 263.231 275.099 260.964 270.689 259.357C270.55 256.413 270.561 253.391 270.955 250.294C271.042 250.419 271.123 250.546 271.23 250.666C275.495 255.443 280.139 256.547 284.405 256.676C284.59 259.085 284.471 261.499 284.014 263.868C283.777 265.075 283.427 266.264 283.027 267.438C282.119 266.812 281.23 266.076 280.249 265.255ZM289.486 269.468H289.483C288.178 269.468 287.087 269.28 286.1 268.974C286.636 267.497 287.093 265.997 287.388 264.466C287.753 262.6 287.935 260.71 287.941 258.816C288.994 259.924 290.013 261.33 290.779 263.084C291.778 265.38 291.998 267.508 291.963 269.147C291.161 269.341 290.337 269.468 289.486 269.468ZM283.785 241.549L283.916 241.635C284.156 242.951 284.15 244.311 283.863 245.612C283.817 245.826 283.762 246.039 283.704 246.249C283.565 246.01 283.424 245.772 283.279 245.531C283.111 245.246 282.94 244.97 282.77 244.69C283.314 243.59 283.629 242.506 283.785 241.549ZM276.357 248.264C276.551 248.73 276.956 249.087 277.46 249.23C277.622 249.276 277.787 249.298 277.952 249.298C278.302 249.298 278.643 249.197 278.936 249.002C279.563 248.579 280.096 248.126 280.582 247.659C281.184 248.689 281.771 249.714 282.31 250.714C282.59 251.238 283.146 251.575 283.762 251.602C283.785 251.604 283.811 251.604 283.837 251.604C284.422 251.604 284.969 251.319 285.287 250.842C286.219 249.438 286.87 247.905 287.229 246.286C287.394 245.531 287.469 244.757 287.501 243.98L288.094 244.368C288.655 244.733 289.376 244.727 289.949 244.394L291.303 246.97C291.595 247.524 292.189 247.874 292.837 247.874H292.84C293.17 247.874 293.479 247.784 293.748 247.624C293.687 247.845 293.659 248.08 293.702 248.314C293.884 249.335 294.003 250.368 294.058 251.393C294.087 252.002 294.098 252.613 294.084 253.225C293.728 253.185 293.366 253.15 293.002 253.139C291.636 253.1 290.215 253.187 288.838 253.27C287.889 253.328 286.948 253.382 286.016 253.404C286.011 253.404 286.011 253.404 286.005 253.404C281.786 253.503 277.746 252.905 273.84 248.531C273.51 248.159 274.019 246.843 274.922 245.504C275.391 246.234 275.941 247.274 276.357 248.264ZM255.474 253.428C256.058 251.58 256.166 249.6 255.843 247.638C257.702 246.606 259.62 245.822 262.32 245.758C261.612 249.407 261.585 253.505 261.747 257.511C260.548 257.41 259.314 257.333 258.018 257.318C256.284 257.292 254.691 257.418 253.162 257.592C254.103 256.455 254.945 255.099 255.474 253.428ZM252.603 249.512C252.624 250.414 252.521 251.422 252.186 252.478C251.44 254.832 249.837 256.461 248.404 257.504C248.413 256.486 248.354 255.465 248.23 254.453C248.111 253.492 247.912 252.543 247.676 251.606C249.604 251.067 251.188 250.307 252.603 249.512ZM239.99 252.333C241.061 252.383 242.156 252.397 243.278 252.333C243.635 252.313 243.962 252.27 244.301 252.234C244.523 253.091 244.711 253.958 244.819 254.836C244.997 256.282 244.972 257.738 244.837 259.188C239.324 260.513 237.975 260.509 236.826 257.848C235.764 255.386 238.877 253.065 239.99 252.333ZM260.71 353.196C261.56 352.991 262.691 352.857 263.446 353.242C263.604 353.323 264.012 353.562 264.303 354.32C262.862 356.068 260.957 357.728 259.218 359.062C259.904 357.062 260.529 354.883 260.71 353.196ZM221.239 347.537C221.017 347.984 221.017 348.501 221.237 348.948C221.457 349.394 221.878 349.723 222.377 349.841C227.475 351.039 239.644 353.707 242.392 352.62C242.699 352.498 242.962 352.296 243.15 352.033C243.429 351.648 249.988 342.5 251.74 337.627C253.196 333.58 255.943 328.939 260.63 329.81C262.459 330.148 265.033 331.639 266.773 334.817C268.163 337.357 269.89 342.828 266.233 351.175C265.834 350.796 265.42 350.524 265.044 350.336C263.128 349.366 260.912 349.716 259.561 350.089C258.428 348.733 256.447 345.544 258.675 341.674C259.13 340.879 258.828 339.88 257.997 339.443C257.166 339.002 256.122 339.298 255.664 340.091C252.582 345.448 255.167 350.369 257.335 352.664C257.171 354.957 255.316 360.008 254.077 362.896C253.796 363.553 253.99 364.311 254.556 364.771C254.874 365.032 255.27 365.163 255.666 365.163C255.978 365.163 256.291 365.082 256.568 364.918C256.91 364.716 263.817 360.592 267.544 355.649C267.57 355.616 267.597 355.586 267.62 355.551C268.22 354.745 268.742 353.921 269.126 353.085C272.318 346.164 272.225 340.807 271.302 337.134C273.782 333.7 279.783 326.166 283.884 324.265C286.173 323.205 289.552 323.457 292.704 324.926C296.098 326.512 298.424 329.097 299.084 332.02C299.816 335.26 300.239 338.284 300.378 341.105C299.926 341.057 299.515 341.078 299.165 341.144C296.908 341.547 295.299 343.641 294.414 345.132C292.455 344.331 288.806 342.362 287.428 338.418C287.269 337.956 286.899 337.585 286.427 337.408C285.944 337.226 285.414 337.266 284.969 337.5C284.523 337.736 274.042 343.378 273.252 351.587C273.209 352.058 273.377 352.524 273.718 352.868C274.057 353.21 274.56 353.424 275.032 353.376C275.145 353.383 286.942 353.091 288.288 359.116C289.405 364.14 289.495 370.47 285.18 375.231C284.827 374.76 284.419 374.331 283.916 373.994C282.197 372.846 280.067 372.769 278.695 372.872C277.764 370.873 276.244 365.928 281.175 361.433C281.861 360.807 281.887 359.769 281.23 359.11C280.582 358.455 279.488 358.428 278.805 359.057C277.541 360.209 276.609 361.416 275.92 362.631C273.718 362.211 269.297 361.668 264.998 362.958C263.371 363.446 262.063 363.985 260.797 364.504C257.734 365.765 255.305 366.762 249.753 366.416C247.749 366.291 245.588 365.965 243.299 365.616C237.616 364.756 230.788 363.768 222.001 365.069C221.905 365.076 221.809 365.058 221.711 365.084C221.624 365.106 221.543 365.132 221.454 365.155C219.396 365.479 217.264 365.888 214.977 366.499C209.846 367.866 205.264 357.336 201.894 349.646C200.15 345.66 198.895 342.881 197.666 341.155C199.226 340.354 200.742 339.495 202.176 338.534C205.032 336.622 207.575 334.396 209.869 331.968C209.897 331.941 209.924 331.911 209.949 331.882C213.947 327.629 217.141 322.734 219.68 317.651C228.419 332.645 221.317 347.382 221.239 347.537ZM297.096 347.281C297.765 346.022 298.911 344.532 299.799 344.372C299.88 344.362 300.082 344.344 300.404 344.526C300.259 348.152 299.562 351.379 298.303 354.18C298.135 351.79 297.773 349.186 297.096 347.281ZM279.998 379.035C278.539 379.745 277.139 380.01 275.92 380.051C277.17 379.072 278.357 377.761 279.014 376.144C279.917 376.087 281.149 376.149 281.954 376.692C282.165 376.834 282.42 377.073 282.616 377.478C281.826 378.034 280.973 378.562 279.998 379.035ZM201.581 378.838C198.525 382.699 196.113 385.75 191.3 386.878C185.863 388.159 181.424 386.95 178.366 385.454C183.698 385.214 191.268 383.315 196.418 375.463C196.846 374.813 196.743 373.963 196.17 373.422C195.598 372.881 194.709 372.798 194.032 373.21C193.536 373.516 182.847 379.964 174.673 372.861C179.402 372.596 187.153 370.857 192.517 363.036C192.895 362.487 192.893 361.771 192.508 361.221C192.124 360.676 191.432 360.402 190.757 360.524C190.655 360.538 182.277 361.99 173.725 356.608C178.854 356.311 186.661 354.929 191.561 349.662C191.974 349.217 192.105 348.593 191.901 348.03C191.695 347.467 191.188 347.053 190.575 346.952C190.334 346.911 187.75 346.475 184.08 345.998C187.728 345.159 191.244 344.035 194.559 342.609C195.67 343.936 197.41 347.909 198.727 350.914C201.971 358.319 205.846 367.149 211.33 369.379C206.776 372.274 203.994 375.79 201.581 378.838ZM124.274 334.578C125.315 333.621 127.513 333.192 130.056 332.697C131.832 332.353 133.815 331.959 135.849 331.313C134.496 334.453 133.989 337.708 133.802 339.817C129.689 338.339 126.332 336.619 124.07 334.791C124.136 334.723 124.217 334.631 124.274 334.578ZM127.093 352.848C132.778 348.442 138.051 350.586 146.876 354.756C148.181 355.371 149.263 356.269 150.193 357.303C150.016 357.364 149.83 357.393 149.657 357.467C147.485 358.378 146.198 359.924 145.468 361.157C144.971 361.199 144.476 361.289 143.991 361.46C138.53 363.38 135.188 360.903 134.089 360.089C133.637 359.756 133.041 359.659 132.498 359.828C132.262 359.905 127.014 361.606 123.926 365.446C119.912 364.951 116.068 364.044 113.247 361.468C112.948 361.197 112.723 360.824 112.573 360.356C115.369 359.423 121.722 357.009 127.093 352.848ZM149.212 361.799C149.668 361.3 150.248 360.807 151.039 360.474C151.408 360.318 151.796 360.218 152.195 360.148C153.062 361.729 153.695 363.407 154.133 364.942C152.689 363.7 150.988 362.513 149.212 361.799ZM222.194 301.197C218.524 301.685 214.824 301.713 211.167 301.225C208.821 300.91 206.515 300.342 204.258 299.635C204.907 297.719 205.498 295.778 206.058 293.831C214.803 291.043 221.358 286.424 225.804 282.338C225.349 286.637 224.346 293.551 222.194 301.197ZM166.119 344.738C166.108 344.738 166.099 344.745 166.088 344.745C155.635 344.896 145.312 343.358 137.167 340.912C137.316 338.455 138.01 332.605 141.26 328.91C141.291 328.875 141.298 328.831 141.326 328.796C141.789 328.501 142.249 328.192 142.702 327.844C142.735 327.82 142.759 327.793 142.792 327.769C145.106 328.584 150.97 330.277 159.803 330.277C161.413 330.277 163.149 330.2 164.951 330.071C165.185 333.117 166.051 339.537 169.216 344.646C168.291 344.69 167.367 344.721 166.443 344.736C166.336 344.738 166.225 344.736 166.119 344.738ZM173.158 344.375C169.545 339.777 168.611 332.769 168.377 329.756C178.859 328.494 186.254 325.073 191.66 320.338C193.863 322.598 198.985 327.43 205.874 331.217C204.134 332.907 202.259 334.471 200.209 335.844C192.72 340.853 183.099 343.461 173.158 344.375ZM208.266 328.731C201.38 325.08 196.146 320.117 194.082 317.997C198.194 313.608 200.982 308.358 203.124 302.78C205.59 303.558 208.126 304.136 210.691 304.48C212.672 304.744 214.663 304.874 216.662 304.874C218.162 304.874 219.661 304.773 221.159 304.624C218.498 312.931 214.448 321.727 208.266 328.731ZM151.715 294.924C152.594 296.398 154.85 299.455 159.011 300.678C160.178 301.019 161.39 301.19 162.651 301.19C166.033 301.19 169.749 299.961 173.742 297.515C178.355 294.692 180.73 291.573 180.8 288.251C180.869 285.064 178.78 282.688 177.446 281.49C177.827 280.575 178.188 279.65 178.538 278.724C180.783 281.188 184.214 285.855 183.402 290.684C182.674 295.012 178.62 298.717 171.355 301.7C165.161 304.241 160.029 304.497 156.098 302.458C152.407 300.542 150.459 296.946 149.505 294.462C150.246 294.64 150.982 294.797 151.715 294.924ZM175.94 284.74C176.679 285.61 177.401 286.817 177.366 288.201C177.311 290.325 175.419 292.59 171.893 294.749C167.315 297.548 163.335 298.492 160.058 297.546C158.482 297.092 157.282 296.245 156.39 295.389C156.598 295.393 156.812 295.421 157.019 295.421C158.318 295.421 159.587 295.332 160.819 295.15C169.283 293.899 173.309 289.725 175.94 284.74ZM185.462 282.955C183.81 279.372 181.22 276.569 179.869 275.264C180.41 273.895 180.978 272.537 181.64 271.262C184.723 265.322 190.211 264.214 192.95 264.05C192.048 272.327 185.772 282.07 185.705 282.173C185.548 282.412 185.477 282.684 185.462 282.955ZM124.212 203.294C123.837 203.419 123.477 203.564 123.134 203.73C119.242 201.853 115.644 201.544 112.437 202.852C107.551 204.845 103.877 210.467 101.517 219.563C100.158 224.808 104.609 228.386 107.89 229.935C107.862 230.662 107.848 231.393 107.855 232.129C105.372 230.999 101.532 228.781 99.781 225.268C98.5326 222.762 98.5454 219.919 99.8189 216.816C103.735 207.261 108.118 201.956 113.217 200.596C116.545 199.716 120.331 200.583 124.503 203.143C124.405 203.196 124.309 203.242 124.212 203.294ZM108.183 226.319C106.368 225.213 104.109 223.215 104.85 220.355C107.45 210.338 111.143 206.952 113.783 205.874C115.594 205.138 117.659 205.178 119.947 205.971C112.59 211.341 109.183 218.468 108.183 226.319ZM122.28 280.312C120.838 280.169 119.493 279.265 118.278 277.624C114.728 272.837 110.786 266.851 111.805 263.047C112.079 262.027 112.752 261.159 113.78 260.399C116.419 267.909 120.488 274.368 125.327 279.633C124.518 280.045 123.425 280.428 122.28 280.312ZM112.681 257.165C110.478 258.479 109.034 260.163 108.478 262.23C107.118 267.298 111.038 273.538 115.475 279.526C117.288 281.974 119.459 283.336 121.929 283.579C122.19 283.603 122.446 283.617 122.698 283.617C124.806 283.617 126.594 282.784 127.728 282.088C128.358 282.692 128.988 283.297 129.637 283.862C126.741 285.54 120.747 288.139 116.437 284.125C110.237 278.356 104.02 269.758 105.163 262.94C105.717 259.648 107.978 256.867 111.894 254.65C112.15 255.493 112.413 256.332 112.681 257.165ZM138.381 389.603C137.955 390.356 137.444 391.131 136.837 391.883C135.161 389.14 132.209 388.242 129.945 388.175C129.445 387.009 128.894 386.212 128.463 385.594C127.578 384.322 127.172 383.74 128.471 379.931C128.679 379.318 128.492 378.643 127.992 378.207C127.494 377.776 126.775 377.664 126.151 377.916C126.059 377.956 116.881 381.659 106.605 377.097C96.7504 372.715 95.6008 368.974 95.5964 368.974C95.441 368.15 94.6276 367.552 93.7931 367.629C93.6652 367.627 80.6764 368.356 77.4925 359.87C77.2508 359.226 76.6099 358.799 75.8931 358.79C75.2186 358.761 74.5247 359.21 74.2663 359.85C74.1022 360.262 72.5475 363.545 67.2428 363.161C66.7653 361.188 65.3168 358.823 62.0128 357.991C63.8196 353.512 66.9824 348.875 72.4777 345.4C74.1381 344.351 75.7878 343.982 77.3894 344.296C79.7099 344.76 82.0974 346.718 84.2978 349.964C88.0347 355.474 94.6615 355.583 95.1783 355.583C95.1887 355.583 95.1951 355.583 95.2014 355.583C96.1326 355.577 96.887 354.861 96.9038 353.972C96.9061 353.886 97.0343 348.115 98.249 342.242C98.2612 342.191 98.2722 342.141 98.2803 342.088C98.2803 342.086 98.2803 342.086 98.2803 342.084C98.8605 339.322 99.6823 336.545 100.845 334.339C103.592 329.123 103.745 323.98 103.879 319.44C104.012 315.003 104.115 311.497 106.601 309.456C112.547 304.578 125.161 303.888 125.289 303.882C126.073 303.842 126.729 303.299 126.882 302.563C127.036 301.827 126.649 301.085 125.941 300.759C125.857 300.721 117.404 296.81 112.601 291.54C102.677 280.651 97.7655 279.125 91.9081 278.157C90.7923 277.97 89.6493 277.931 88.4939 277.96C86.5902 274.628 73.5275 250.222 80.2961 219.398C86.7944 189.79 124.518 177.138 129.73 175.524C134.376 177.556 139.439 178.809 144.551 179.034C138.145 185.046 139.523 192.484 140.539 195.682C136.413 197.361 132.188 199.234 127.893 201.393C122.279 197.524 117.033 196.166 112.297 197.432C106.086 199.087 100.958 205.033 96.6199 215.616C94.985 219.608 95.0078 223.334 96.6894 226.698C99.3718 232.057 105.507 234.838 108.018 235.787C108.419 240.958 109.522 246.249 110.952 251.409C105.639 254.19 102.535 257.883 101.773 262.421C100.069 272.565 110.733 283.402 114.041 286.481C116.408 288.682 119.165 289.497 121.897 289.497C125.872 289.497 129.789 287.773 132.369 286.102C136.576 289.313 141.064 291.725 145.53 293.295C146.157 295.717 148.342 302.156 154.436 305.334C156.706 306.516 159.243 307.108 162.029 307.108C165.262 307.108 168.831 306.313 172.708 304.721C181.127 301.265 185.867 296.716 186.794 291.205C187.209 288.737 186.79 286.368 185.986 284.217C186.371 284.572 186.902 284.742 187.452 284.661C197.683 282.997 204.705 278.496 208.69 275.156C206.321 287.342 203.282 291.562 203.252 291.6C203.132 291.757 203.053 291.93 202.998 292.11C202.994 292.121 202.985 292.13 202.981 292.141C198.2 309.046 191.768 324.412 165.939 326.711C156.18 327.587 149.159 326.19 145.653 325.202C149.521 321.229 150.609 317.417 150.735 314.72C150.909 310.936 149.365 307.259 146.5 304.635C145.815 304.007 144.726 304.031 144.072 304.686C143.417 305.34 143.44 306.381 144.125 307.007C146.275 308.978 147.433 311.735 147.303 314.576C147.145 318.021 145.138 321.422 141.524 324.477C141.364 324.569 141.226 324.683 141.103 324.826C140.917 324.975 140.748 325.13 140.554 325.279C137.019 327.99 132.957 328.781 129.373 329.48C126.305 330.075 123.656 330.59 121.895 332.204C119.293 334.591 108.902 349.771 108.913 358.691C108.917 360.925 109.577 362.66 110.876 363.845C114.65 367.292 119.64 368.28 124.433 368.805C124.458 368.81 124.481 368.81 124.506 368.814C125.525 368.924 126.537 369.022 127.523 369.11C132.521 369.55 136.838 369.935 139.056 372.493C141.628 375.468 141.886 383.415 138.381 389.603ZM130.708 391.539C131.967 391.744 133.522 392.441 134.254 394.342C132.692 395.498 130.772 396.409 128.373 396.769C129.594 395.384 130.652 393.6 130.708 391.539ZM59.8191 367.358C59.9756 365.535 60.3113 363.389 60.9508 361.118C62.7559 361.521 63.4903 362.627 63.7967 363.527C62.4532 364.243 61.0966 365.66 59.8191 367.358ZM83.5075 333.582C93.0072 335.119 95.4558 329.296 95.5652 329.013C95.731 328.595 95.7101 328.126 95.5061 327.721C95.3024 327.316 94.9343 327.007 94.489 326.871C82.3327 323.106 78.474 316.475 77.3032 311.921C78.6737 313.19 80.3656 314.438 82.4357 315.485C85.3381 316.952 88.6253 317.804 91.9394 317.953C92.6984 318.01 93.3373 317.577 93.6105 316.933C93.8836 316.289 93.7051 315.548 93.1628 315.086C90.1595 312.524 87.7152 309.315 86.0924 305.807C84.8233 303.056 84.0394 300.086 83.7784 297.081C85.931 298.534 88.0662 300.031 90.1575 301.556C92.839 303.507 95.5165 305.555 98.1165 307.642C98.6232 308.047 99.3252 308.139 99.9282 307.881C100.529 307.618 100.92 307.053 100.937 306.42C100.994 304.136 100.674 296.208 94.1588 290.183C90.0166 286.354 84.4512 284.28 78.6548 284.219C83.2237 281.709 87.4629 280.754 91.3239 281.394C96.4749 282.246 100.832 283.625 110.012 293.698C112.845 296.81 116.706 299.425 119.724 301.205C115.092 301.946 108.526 303.549 104.365 306.963C100.725 309.951 100.59 314.515 100.447 319.348C100.321 323.545 100.18 328.299 97.7759 332.861C96.6789 334.944 95.8592 337.426 95.2498 339.942C89.1968 338.709 85.5505 335.864 83.5075 333.582ZM76.9337 218.724C76.5656 220.399 76.2684 222.048 76.0068 223.682C73.1939 222.585 68.0252 221.032 62.5116 221.615C64.5083 211.284 68.5733 201.798 74.7359 193.745C79.8227 194.065 83.8154 198.719 85.2984 200.719C81.4579 205.892 78.4404 211.86 76.9337 218.724ZM62.8108 255.334C60.8249 244.882 60.5196 234.62 61.9393 225.003C67.6169 224.092 73.2709 226.104 75.5308 227.064C74.3404 236.954 74.9643 245.953 76.3717 253.617C73.132 253.408 67.1331 253.371 62.8108 255.334ZM72.5 284.234C68.4032 275.794 65.4122 267.197 63.5091 258.689C67.0721 256.597 73.6352 256.656 77.0497 256.961C79.413 267.57 83.092 275.174 84.825 278.373C80.8998 279.186 76.7777 281.155 72.5 284.234ZM81.2059 292.423C80.6468 292.695 80.2877 293.233 80.2646 293.831C80.2111 295.34 80.3207 296.847 80.503 298.35C78.2708 294.913 76.214 291.431 74.3627 287.912C80.749 286.7 87.269 288.382 91.7716 292.548C95.2961 295.805 96.6769 299.74 97.2001 302.666C95.5588 301.396 93.9004 300.15 92.238 298.941C89.2075 296.733 86.082 294.576 82.9505 292.53C82.4296 292.195 81.7632 292.151 81.2059 292.423ZM102.163 173.237C103.217 173.975 104.199 174.803 105.05 175.743C106.5 177.35 107.579 179.201 108.311 181.236C101.204 185.259 93.5543 190.756 87.4591 197.981C85.5866 195.646 81.9664 191.941 77.1493 190.784C77.2879 190.624 77.4152 190.458 77.5555 190.298C84.7431 182.221 93.5205 176.84 102.163 173.237ZM121.757 169.137C122.684 170.908 123.97 172.328 125.586 173.404C122.269 174.558 117.115 176.571 111.351 179.58C110.477 177.383 109.223 175.34 107.648 173.596C107.076 172.961 106.457 172.368 105.805 171.809C111.215 169.842 116.461 168.547 121.135 167.689C121.322 168.182 121.515 168.674 121.757 169.137ZM129.865 137.78C130.081 137.351 130.09 136.847 129.888 136.407C129.686 135.97 129.293 135.638 128.814 135.497L110.166 130.093C110.002 130.046 109.834 130.024 109.667 130.024C109.211 130.024 108.766 130.196 108.438 130.52C107.99 130.957 107.837 131.599 108.036 132.181C108.064 132.261 110.699 140.213 105.336 150.494C103.015 154.942 97.8517 158.167 91.8618 158.911C91.2406 158.989 90.6335 159 90.0244 159.019C90.1144 158.46 90.1222 157.843 89.9578 157.17C89.621 155.786 88.6611 154.635 87.3819 153.935C87.7855 152.429 88.726 149.888 90.7562 148.44C92.093 147.482 93.6903 147.158 95.6514 147.455C96.2732 147.551 96.8913 147.311 97.2756 146.843C97.6605 146.369 97.7447 145.733 97.4964 145.182C96.9246 143.914 96.538 142.58 96.3511 141.215C96.042 138.979 96.2669 136.731 97.0195 134.536C97.282 133.764 96.9185 132.925 96.1618 132.557C95.4072 132.192 94.4826 132.41 93.989 133.072C93.8541 133.252 80.2979 151.205 70.126 145.24C64.806 142.121 62.6858 138.09 62.4347 134.287C62.8016 134.365 63.1783 134.434 63.6046 134.434C63.6107 134.434 63.615 134.434 63.6211 134.434C64.909 134.431 65.9948 133.969 66.8571 133.379C67.5976 133.753 68.4118 133.963 69.2137 134.154C69.6633 134.262 70.1405 134.373 70.6388 134.531C73.9929 135.577 74.3841 137.379 74.3925 137.407C74.468 137.993 74.8653 138.494 75.4368 138.724C76.0045 138.948 76.6602 138.868 77.1498 138.506L84.2199 133.266C84.6887 132.917 84.9367 132.358 84.8759 131.793C84.8696 131.738 84.2726 125.911 86.9588 120.112C88.9803 115.752 92.3199 112.951 96.6179 112.013C101.509 110.947 106.689 112.514 109.277 114.617L110.306 115.459C116.643 120.641 117.137 120.693 129.745 122.019L133.921 122.462C150.749 124.275 153.364 128.596 153.614 142.508C153.698 147.15 153.314 162.82 144.848 169.599C141.386 172.37 136.91 173.266 131.546 172.254C128.324 171.645 126.128 170.147 124.827 167.667C119.802 158.07 129.762 137.982 129.865 137.78ZM85.5808 156.714C86.1 156.96 86.4857 157.397 86.6119 157.918C86.6987 158.269 86.6321 158.582 86.5355 158.851C84.9081 158.604 83.3767 158.145 82.0025 157.48C83.2917 157.375 84.5762 157.148 85.5808 156.714ZM64.1969 127.123C64.2687 128.422 64.4414 129.72 64.7765 130.788C64.4761 130.976 64.0913 131.148 63.6083 131.151C63.6066 131.151 63.6046 131.151 63.6023 131.151C63.2403 131.151 62.9376 131.054 62.6844 130.938C62.8739 130.055 63.1451 129.202 63.4972 128.408C63.7137 127.923 63.9512 127.497 64.1969 127.123ZM76.923 122.791C72.3284 119.611 69.0623 114.02 68.5979 108.547C68.3175 105.261 69.1138 102.535 70.8335 100.866C71.1064 101.314 71.4728 101.76 71.9736 102.161C72.8988 102.903 74.0548 103.293 75.2377 103.324C75.5745 104.121 76.1258 104.777 76.6183 105.35C77.2549 106.086 77.8539 106.787 78.1505 107.797C78.5371 109.123 78.2868 110.695 77.4019 112.467C77.1478 112.979 77.1878 113.582 77.5052 114.058C77.8244 114.537 78.3267 114.781 78.972 114.817C80.6703 114.847 82.2884 115.168 83.7156 115.888C84.1545 116.109 84.5721 116.364 84.9714 116.649C84.5666 117.311 84.1763 118.008 83.8186 118.781C82.6148 121.38 81.9889 123.962 81.6741 126.157C80.5803 125.357 79.0608 124.275 76.923 122.791ZM75.3783 100.038C74.9402 100.035 74.5128 99.9109 74.178 99.6424C73.9156 99.4292 73.7776 99.1801 73.6812 98.9365C74.7397 98.4798 75.7803 98.2695 76.7317 98.2196C76.219 98.6985 75.725 99.3158 75.3783 100.038ZM142.265 109.851C142.113 110.615 141.987 111.384 141.922 112.157C141.379 111.202 140.924 110.202 140.552 109.17C141.123 109.397 141.696 109.618 142.265 109.851ZM143.123 106.634C139.511 105.176 135.822 103.789 132.166 102.485C132.323 101.065 132.536 99.6451 132.851 98.2528C133.266 96.4342 133.857 94.6461 134.541 92.8884C139.38 94.1451 143.786 95.6066 147.759 97.2508C146.478 99.2106 144.438 102.69 143.123 106.634ZM167.689 96.39C165.878 98.3553 163.732 101.173 162.294 104.658C161.136 107.462 159.755 111.739 161.109 116.478C166.17 134.193 163.539 144.579 162.143 148.274C161.912 148.828 161.659 149.389 161.386 149.957C161.002 150.757 161.342 151.701 162.158 152.102C162.977 152.506 163.976 152.224 164.434 151.463C164.505 151.344 164.972 150.546 165.522 149.035C168.826 140.872 168.156 134.331 167.559 128.505C166.857 121.64 166.249 115.716 172 108.256C178.383 99.9829 185.255 97.7629 189.909 97.356C189.797 97.4197 189.705 97.4861 189.595 97.5525C189.528 97.5802 189.475 97.6273 189.412 97.6632C172.83 107.382 174.191 119.445 175.657 132.147C176.784 141.905 177.948 151.989 171.096 162.239C162.79 174.661 150.788 176.807 140.815 175.279C143.1 174.659 145.187 173.612 147.053 172.118C156.422 164.616 157.164 148.875 157.048 142.453C156.79 128.106 153.673 121.601 135.62 119.367C135.421 117.798 135.404 115.747 136.05 113.455C136.355 112.375 136.788 111.323 137.332 110.324C137.963 112.06 138.804 113.707 139.85 115.243C140.787 116.619 141.891 117.906 143.133 119.071C143.707 119.614 144.596 119.697 145.272 119.276C145.947 118.855 146.227 118.044 145.943 117.325C144.192 112.849 146.25 107.113 148.377 102.964C148.459 105.923 148.789 108.871 149.363 111.777C150.043 115.229 151.076 118.639 152.433 121.919C152.698 122.562 153.341 122.96 154.03 122.96C154.184 122.96 154.341 122.938 154.495 122.897C155.344 122.67 155.873 121.867 155.722 121.036C154.972 116.901 154.692 110.698 157.609 104.633C158.423 102.945 159.539 100.625 162.044 98.776C163.912 97.3948 165.953 96.7166 167.689 96.39ZM164.713 108.01C165.666 109.037 166.261 109.848 166.599 110.368C165.604 112.195 164.888 113.964 164.442 115.68C164.434 115.658 164.428 115.633 164.421 115.611C163.628 112.832 164.049 110.169 164.713 108.01ZM189.524 93.8683C189.642 93.9347 189.767 93.9984 189.884 94.0676C189.676 94.0814 189.463 94.1008 189.248 94.123C189.335 94.0371 189.434 93.9541 189.524 93.8683ZM196.153 112.53C192.325 107.753 190.843 103.487 191.781 100.127C192.991 99.4376 194.311 98.7594 195.736 98.0951C198.033 99.9773 200.045 102.053 201.678 104.392C204.756 108.799 207.038 113.244 208.61 117.74C202.351 120.275 199.739 117.009 196.153 112.53ZM188.061 102.516C188.16 106.153 189.949 110.186 193.49 114.609C196.174 117.956 199.334 121.906 204.654 121.903C206.122 121.903 207.757 121.601 209.59 120.904C209.807 121.712 210.036 122.517 210.206 123.331C207.597 124.616 200.506 127.325 195.577 121.861C191.504 117.347 186.002 111.232 185.115 104.932C185.986 104.11 186.972 103.307 188.061 102.516ZM171.893 180.002C168.278 177.926 162.981 177.918 156.155 179.987C151.105 181.516 147.874 183.916 146.555 187.123C145.548 189.567 145.922 191.875 146.402 193.382C145.509 193.719 144.605 194.07 143.701 194.422C142.732 191.286 141.626 183.829 150.536 178.818C154.567 178.323 158.529 177.105 162.237 175.046C172.33 173.785 176.673 179.124 178.149 181.687C177.13 182.149 176.088 182.6 175.025 183.04C174.463 182.081 173.505 180.927 171.893 180.002ZM181.201 180.237C179.62 177.508 175.561 172.361 167.175 171.649C169.646 169.585 171.945 167.066 173.988 164.007C181.493 152.783 180.207 141.628 179.07 131.788C178.063 123.054 177.151 115.102 182.314 108.077C184.191 114.252 189.167 119.785 192.975 124.009C195.928 127.281 199.576 128.394 203.055 128.394C205.905 128.394 208.628 127.641 210.771 126.722C211.245 130.475 211.199 134.27 210.652 138.112C206.248 137.249 195.826 136.9 188.692 150.245C185.499 156.221 184.711 161.61 186.346 166.266C187.598 169.829 189.994 172.109 191.724 173.377C188.605 176.058 185.09 178.279 181.201 180.237ZM195.673 169.471C195.198 170.014 194.719 170.551 194.22 171.058C192.919 170.194 190.7 168.348 189.602 165.22C188.271 161.433 188.994 156.899 191.752 151.742C198.008 140.028 206.722 140.584 210.062 141.315C209.926 141.949 209.789 142.583 209.626 143.217C199.896 142.289 195.604 151.02 192.99 156.368L192.779 156.797C189.94 162.59 192.869 167.124 195.673 169.471ZM175.229 87.5793C179.19 88.9523 182.959 90.4719 186.429 92.2102C185.48 93.1901 184.671 94.2032 184 95.2385C179.426 96.7443 174.165 99.9164 169.236 106.308C168.979 106.64 168.78 106.961 168.544 107.29C167.947 106.535 167.141 105.635 166.088 104.622C168.73 99.2742 173.14 95.8668 173.187 95.8336C173.73 95.4239 173.965 94.7485 173.784 94.1119C173.605 93.4752 173.049 93.0019 172.365 92.9133C172.275 92.8995 171.51 92.8054 170.336 92.8247C173.183 91.3743 174.626 89.3426 175.229 87.5793ZM152.584 81.0966C156.986 82.2342 161.417 83.3802 165.752 84.6175C162.356 87.0479 153.342 84.3158 148.696 82.9069C147.803 82.6356 147.025 82.4003 146.408 82.2343C144.014 81.5838 143.287 79.934 143.098 78.6054C146.187 79.4468 149.363 80.2662 152.584 81.0966ZM136.511 76.6982C137.527 77.0082 138.551 77.3155 139.594 77.6144C139.552 80.316 140.715 84.1027 145.47 85.3953C146.061 85.5531 146.805 85.7801 147.656 86.0375C151.433 87.1863 156.994 88.872 161.704 88.872C164.965 88.872 167.802 88.0443 169.373 85.686C170.244 85.9517 171.11 86.2202 171.969 86.497C171.529 87.87 170.055 90.1979 165.085 91.0975C162.238 91.6123 155.449 90.2311 149.999 89.1211L147.53 88.6229C142.288 87.5766 138.831 85.6057 137.254 82.7629C136.018 80.5291 136.199 78.1625 136.511 76.6982ZM155.617 101.09C155.159 101.884 154.794 102.629 154.49 103.26C153.503 105.311 152.839 107.371 152.416 109.372C151.875 105.981 151.704 102.541 151.867 99.0971C153.179 99.7365 154.424 100.406 155.617 101.09ZM103.331 92.1632C102.238 91.6954 101.176 91.1501 100.143 90.5384C100.446 89.5363 100.815 88.5537 101.313 87.6264C102.36 85.6832 103.811 84.003 105.597 82.583C112.789 86.5856 121.27 89.8021 130.67 91.9445C130.85 91.986 131.02 92.0331 131.199 92.0746C130.517 93.8711 129.919 95.698 129.497 97.5553C129.215 98.7954 129.012 100.055 128.846 101.32C126.329 100.442 123.844 99.587 121.479 98.7815C114.72 96.4785 108.335 94.3001 103.331 92.1632ZM83.3356 59.7689C83.6019 60.4443 83.851 61.1225 84.1716 61.7951C87.5899 68.9699 93.9881 75.4609 102.518 80.77C100.779 82.3201 99.3281 84.1387 98.2612 86.1206C97.8422 86.8984 97.4831 87.7039 97.1778 88.5287C89.2017 82.3976 83.737 71.8984 83.3356 59.7689ZM121.044 12.336C127.293 10.5506 132.261 10.6087 135.327 10.9769C133.045 12.7982 130.414 15.4113 130.279 17.8693C130.212 19.1204 130.739 20.2221 131.805 21.0525C137.767 25.7056 141.147 22.8545 143.86 20.5626C145.993 18.7634 148.051 17.0555 151.655 17.3267C154.968 17.5676 158.095 18.9931 160.531 20.4906C159.251 20.5792 157.98 20.8947 156.907 21.5923C155.749 22.3452 154.362 23.8704 154.335 26.8349C154.321 28.5096 154.783 29.7663 155.747 30.6797C157.614 32.443 160.718 32.3682 165.43 32.2796C167.452 32.2354 169.743 32.1911 172.34 32.2741C177.889 32.454 181.842 34.1702 184.337 35.748C177.67 36.1272 174.749 38.5077 174.297 40.9159C174.219 41.3283 174.239 41.7684 174.317 42.2196C168.12 40.246 161.082 37.3424 152.565 33.2955C129.725 22.4476 114.587 18.1821 103.592 20.6622C109.421 16.6541 115.703 13.8612 121.044 12.336ZM306.246 39.3464C310.297 40.7498 312.152 42.9255 314.296 45.4388C316.05 47.4982 318.041 49.8317 321.42 51.8441C326.907 55.1103 333.921 56.2231 342.281 55.1519C343.114 55.0411 343.745 54.374 343.768 53.5685C343.791 52.7603 343.201 52.06 342.376 51.9077C338.1 51.1244 334.338 49.577 331.189 47.3073C327.691 44.78 326.123 42.2362 324.467 39.5429C322.673 36.6282 320.819 33.6138 316.559 30.9095C311.376 27.61 305.647 26.1208 300.409 26.7159C297.415 27.0536 295.421 27.9588 293.12 29.0051C290.733 30.0929 288.027 31.3191 283.201 32.4485C279.951 33.2042 278.056 33.373 277 33.373C276.059 33.373 275.767 33.2401 275.802 33.2706C274.795 32.0167 275.295 29.3234 278.774 26.3727C286.557 19.7709 295.34 20.8117 306.127 24.4129C316.302 27.8203 329.011 18.9322 329.546 18.553C330.171 18.1073 330.408 17.3157 330.116 16.6237C329.829 15.9289 329.074 15.5109 328.307 15.6023C314.814 17.2326 310.919 15.7102 306.408 13.9497C302.901 12.5851 298.928 11.0322 290.499 10.6087C278.551 10.033 272.847 16.2998 267.817 21.8552C264.179 25.8744 260.745 29.6694 255.222 31.0783C253.78 31.4465 252.614 31.2942 252.273 30.6908C251.442 29.2237 253.228 24.4406 261.555 17.2714C276.8 4.13985 299.984 6.22417 300.221 6.24908C301.133 6.3432 301.917 5.75638 302.082 4.91767C302.247 4.07896 301.715 3.25962 300.855 3.02987C278.105 -3.01827 259.973 0.754551 248.425 13.9497C245.95 16.7787 244.196 19.7294 242.499 22.5832C239.111 28.2854 236.437 32.789 229.58 33.5585C227.526 33.7882 226.573 33.492 226.37 33.1737C226.07 32.7059 225.607 30.4527 232.153 21.2158C239.436 10.9381 252.978 7.14594 253.114 7.10996C253.931 6.88575 254.455 6.12453 254.347 5.31904C254.24 4.51354 253.53 3.90457 252.683 3.88796C226.603 3.30944 219.197 18.8685 214.267 29.1573C213.828 30.0708 213.409 30.9427 212.999 31.762C206.314 45.0624 192.901 45.5219 191.1 45.5219C191.05 45.5219 191.021 45.5219 190.991 45.5219C190.952 45.5191 190.92 45.5191 190.881 45.5164C187.921 45.3364 184.883 44.9046 181.661 44.1988C178.723 43.3628 177.56 42.1172 177.677 41.4944C177.861 40.5145 180.934 38.5326 188.853 39.0696C189.528 39.0834 190.173 38.7734 190.491 38.2004C190.808 37.6247 190.743 36.9244 190.323 36.4151C190.087 36.1272 184.406 29.3787 172.458 28.9884C169.764 28.9054 167.42 28.9497 165.354 28.994C161.945 29.066 158.994 29.1269 158.16 28.3407C157.895 28.0888 157.763 27.5934 157.769 26.8626C157.786 24.9942 158.579 24.4793 158.839 24.3105C160.695 23.1008 164.772 24.1555 166.054 24.6205C166.804 24.8918 167.654 24.6343 168.097 23.9977C168.54 23.3555 168.465 22.5085 167.91 21.9521C167.613 21.6559 160.548 14.6722 151.914 14.0522C146.846 13.6951 143.923 16.131 141.59 18.099C138.904 20.3577 137.683 21.393 133.974 18.5087C133.696 18.2928 133.703 18.1571 133.709 18.0409C133.793 16.5185 137.212 13.4653 140.333 11.5083C140.874 11.1679 141.17 10.5672 141.098 9.9527C141.029 9.34097 140.605 8.81504 139.999 8.59637C139.68 8.47734 131.981 5.78407 120.06 9.18598C108.148 12.5907 91.7831 21.9106 84.7547 36.9742C84.7486 36.9853 84.7417 36.9991 84.735 37.0102C84.7243 37.0296 84.7177 37.049 84.7069 37.0683C84.7009 37.0822 84.6928 37.096 84.6864 37.1099C84.6818 37.1209 84.6777 37.132 84.6725 37.1431C83.4763 39.3547 82.6336 41.6245 82.0833 43.922C75.7968 64.4331 83.7364 83.7871 97.0924 92.559C97.1468 92.5978 97.2044 92.631 97.264 92.6642C98.758 93.633 100.317 94.4717 101.931 95.161C107.055 97.3532 113.503 99.5483 120.327 101.873C123.345 102.903 126.406 103.958 129.472 105.037C129.571 105.093 129.682 105.115 129.792 105.151C131.634 105.801 133.474 106.468 135.314 107.152C134.162 108.829 133.277 110.676 132.734 112.6C132.152 114.664 131.948 116.829 132.12 118.963L130.119 118.753C118.07 117.488 118.07 117.488 112.538 112.962L111.5 112.115C108.364 109.566 102.141 107.434 95.8531 108.807C93.1811 109.391 89.8233 110.806 86.9739 113.975C86.4469 113.604 85.8936 113.269 85.3149 112.979C84.0897 112.361 82.7531 111.935 81.3659 111.714C81.8619 110.011 81.8934 108.403 81.4582 106.911C80.9666 105.231 80.0273 104.14 79.2706 103.263C78.5096 102.377 78.3122 102.089 78.373 101.738C78.5159 100.885 79.777 100.002 80.1891 99.7974C81.1998 99.3158 82.2025 99.1275 82.2086 99.1275C82.9337 98.9974 83.4928 98.4411 83.5958 97.7407C83.6985 97.0404 83.3226 96.3567 82.6629 96.0412C80.4385 94.981 75.6712 94.0288 71.2109 96.4674C70.9918 96.5394 70.7974 96.6585 70.6313 96.8079C69.8752 97.2757 69.13 97.8376 68.413 98.5296C65.9603 100.891 64.8107 104.545 65.1744 108.816C65.7167 115.199 69.5354 121.731 74.9052 125.454C78.9963 128.289 80.6891 129.565 81.3815 130.116C81.3801 130.531 81.3853 130.905 81.3975 131.201L76.734 134.658C75.8196 133.459 74.2452 132.2 71.7022 131.403C71.1223 131.226 70.5653 131.09 70.0418 130.965C69.2539 130.78 68.5076 130.603 68.2576 130.373C67.7636 129.725 67.4778 126.462 67.6479 123.395C67.6797 122.825 67.3979 122.277 66.9042 121.953C66.408 121.629 65.7754 121.576 65.2291 121.812C64.9073 121.95 62.0429 123.273 60.3362 127.123C57.5745 133.354 58.2241 142.115 68.3311 148.041C77.3371 153.317 87.3642 145.226 92.7887 139.599C92.8014 140.288 92.8538 140.969 92.9464 141.644C93.0598 142.472 93.2343 143.291 93.4655 144.097C91.6917 144.233 90.0921 144.808 88.686 145.816C85.4558 148.13 84.2535 152.102 83.8649 153.854C82.5052 154.303 79.4847 154.377 77.072 154.142C76.3616 154.056 75.6932 154.419 75.3699 155.025C75.0461 155.623 75.1387 156.351 75.6052 156.86C79.4196 161.01 85.6766 163.008 92.3052 162.169C99.4135 161.286 105.584 157.375 108.409 151.961C112.448 144.219 112.412 137.625 111.921 134.038L125.945 138.099C123.871 142.666 118.804 155.128 120.307 164.495C106.65 167.03 88.2612 173.2 74.9411 188.167C66.3284 197.848 60.9907 209.873 58.8011 223.097C58.7397 223.268 58.7122 223.441 58.7125 223.625C55.5712 243.404 59.4825 265.82 70.1593 287.132C70.192 287.281 70.2311 287.432 70.3089 287.572C70.3581 287.657 70.4322 287.721 70.495 287.798C74.209 295.106 78.7026 302.283 84 309.169C84.9211 310.811 85.9961 312.381 87.2172 313.842C86.1159 313.514 85.0501 313.089 84.0394 312.579C80.2247 310.653 77.9193 307.907 76.6559 305.941C76.2797 305.353 75.5693 305.043 74.8485 305.192C74.1401 305.332 73.5999 305.877 73.4948 306.562C73.4697 306.72 71.3703 321.968 91.1514 329.228C89.6531 330.36 86.4961 331.448 80.2414 329.37C79.6025 329.16 78.9028 329.324 78.4361 329.789C77.9716 330.255 77.833 330.936 78.0851 331.536C78.2468 331.922 82.0425 340.634 94.5729 343.161C93.9236 346.784 93.6545 350.148 93.5431 352.121C91.782 351.79 88.9931 350.851 87.1793 348.175C84.4321 344.123 81.3743 341.736 78.0914 341.081C75.563 340.571 73.0368 341.107 70.5844 342.658C53.8755 353.223 56.303 372.555 56.4144 373.372C56.511 374.081 57.0744 374.649 57.8077 374.776C58.5372 374.896 59.2771 374.563 59.6298 373.937C61.7318 370.185 64.5861 366.545 65.4455 366.295C70.4475 367.13 73.7368 365.542 75.6428 363.683C80.0588 370.27 89.3799 370.925 92.7719 370.936C93.8249 372.826 96.8028 376.363 105.159 380.076C113.129 383.617 120.407 382.818 124.381 381.889C123.885 384.499 124.466 385.779 125.605 387.415C126.124 388.162 126.662 388.935 127.108 390.334C128.24 393.882 122.902 397.016 122.847 397.049C122.219 397.41 121.9 398.118 122.055 398.805C122.212 399.491 122.807 400.008 123.537 400.087C124.369 400.179 125.184 400.225 125.983 400.225C130.329 400.225 134.133 398.856 137.19 396.28C137.191 396.28 137.192 396.278 137.193 396.278C138.818 394.909 140.242 393.216 141.401 391.168C145.321 384.25 145.458 374.738 141.7 370.4C138.651 366.878 133.611 366.352 128.243 365.875C129.88 364.541 131.75 363.663 132.786 363.245C136.531 365.68 140.695 366.118 145.176 364.543C148.446 363.396 154.558 369.765 155.333 371.033C155.628 371.607 156.233 371.953 156.876 371.953C157.021 371.953 157.168 371.933 157.313 371.898C158.106 371.698 158.639 370.993 158.591 370.211C158.555 369.64 157.607 356.16 148.398 351.808C140.272 347.973 132.602 344.351 124.932 350.295C120.611 353.643 115.455 355.807 112.519 356.871C113.484 350.877 118.661 342.031 121.991 337.393C124.911 339.679 129.303 341.799 134.639 343.538C134.737 343.586 134.839 343.615 134.948 343.645C143.312 346.328 153.927 348.078 164.77 348.078C165.441 348.078 166.115 348.039 166.786 348.026C173.59 347.991 181.793 349 186.401 349.648C179.491 354.182 169.055 353.326 168.936 353.313C168.246 353.251 167.51 353.632 167.21 354.274C166.909 354.913 167.065 355.665 167.599 356.144C174.852 362.669 182.725 363.926 187.359 364.007C180.585 370.813 171.493 369.55 171.073 369.486C170.39 369.388 169.709 369.679 169.341 370.238C168.976 370.8 168.996 371.517 169.396 372.058C175.253 379.975 183.093 380.113 188.717 378.779C181.67 383.827 173.347 381.909 172.912 381.804C172.181 381.628 171.403 381.935 171.012 382.559C170.625 383.184 170.711 383.981 171.229 384.513C171.514 384.808 177.353 390.706 186.735 390.706C188.42 390.706 190.219 390.518 192.119 390.071C198.116 388.663 201.13 384.852 204.32 380.822C208.167 375.963 212.152 370.943 222.153 368.376C230.64 367.069 237.259 368.028 242.76 368.862C245.13 369.222 247.369 369.561 249.53 369.695C255.914 370.078 258.943 368.843 262.153 367.522C263.341 367.036 264.568 366.532 266.029 366.092C269.253 365.122 272.677 365.426 274.667 365.75C273.782 369.377 274.74 372.787 275.877 374.872C275 377.209 271.8 378.873 270.555 379.344C269.919 379.585 269.491 380.163 269.467 380.818C269.441 381.471 269.826 382.075 270.44 382.358C270.579 382.417 272.648 383.339 275.582 383.339C277.338 383.339 279.407 383.008 281.551 381.963C282.992 381.263 284.28 380.446 285.441 379.541C285.461 379.53 285.478 379.508 285.501 379.495C291.474 374.802 293.661 367.487 291.647 358.433C290.122 351.6 281.239 350.336 277.055 350.124C278.394 346.135 282.651 342.901 285.015 341.357C287.449 345.813 292.015 347.815 293.933 348.488C294.943 351.536 295.068 357.581 295.024 359.808C295.01 360.511 295.464 361.144 296.153 361.385C296.836 361.624 297.617 361.418 298.077 360.873C301.767 356.501 303.676 350.853 303.841 344.029C303.867 343.862 303.862 343.7 303.836 343.534C303.879 339.802 303.439 335.746 302.441 331.328C301.561 327.412 298.558 324.002 294.211 321.974C290.134 320.075 285.605 319.819 282.388 321.311C277.989 323.345 272.639 329.789 269.87 333.4C269.852 333.367 269.835 333.325 269.815 333.293C267.886 329.771 264.619 327.2 261.283 326.586C255.724 325.564 251.177 329.099 248.491 336.558C247.12 340.382 242.126 347.609 240.7 349.633C238.607 349.771 231.585 348.54 225.133 347.093C227.034 342.13 230.901 328.106 221.381 314.002C228.252 298.233 229.41 281.869 229.58 278.489C230.805 277.108 231.7 275.953 232.268 275.165C233.453 275.493 234.655 275.66 235.887 275.66C239.569 275.66 243.523 274.379 248.079 272.903L249.53 272.436C252.722 271.411 257.402 270.36 262.276 270.767C262.187 273.575 261.77 275.783 260.635 276.591C258.86 277.857 255.879 278.31 252.724 278.792C247.552 279.58 241.691 280.472 238.394 285.283C234.912 290.371 237.108 296.746 239.429 303.496C241.279 308.866 243.191 314.418 242.717 320.018C241.911 329.521 229.417 342.391 229.291 342.52C228.726 343.098 228.671 343.978 229.161 344.615C229.493 345.047 230.01 345.283 230.544 345.283C230.795 345.283 231.052 345.233 231.29 345.121C232.077 344.758 250.593 336.03 251.497 320.592C251.923 313.299 250.167 307.609 248.757 303.036C247.271 298.22 246.197 294.74 248.01 291.449C249.366 288.991 252.612 288.404 256.374 287.727C261.924 286.727 268.831 285.48 270.926 277.033C271.183 275.99 271.317 274.891 271.392 273.759C275.929 276.744 279.063 281.876 280.698 289.09C280.802 289.55 281.106 289.942 281.531 290.172C281.959 290.402 282.466 290.45 282.929 290.299C283.076 290.251 285.791 289.335 287.863 286.201L290.774 292.55C290.991 293.03 291.439 293.38 291.972 293.494C292.096 293.523 292.22 293.533 292.348 293.533C292.756 293.533 293.161 293.393 293.476 293.128C293.676 292.962 297.47 289.718 298.147 284.149L303.028 288.772C303.436 289.16 304.018 289.326 304.573 289.214C305.135 289.11 305.601 288.741 305.824 288.238C305.922 288.012 307.898 283.391 307.647 277.081L313.917 280.362C314.424 280.629 315.043 280.627 315.555 280.366C316.067 280.102 316.406 279.607 316.452 279.052C316.507 278.419 317.549 263.976 306.373 259.652C305.96 257.519 305.008 254.696 302.849 251.941C301.098 249.707 298.789 247.85 296.173 246.573C295.644 246.315 295.016 246.354 294.509 246.648C295.34 244.976 295.924 243.218 296.208 241.407C296.286 240.903 296.3 240.395 296.338 239.887C296.844 240.128 297.441 240.134 297.941 239.867C298.433 239.604 298.734 239.131 298.795 238.61C299.29 241.455 300.236 244.16 302.678 245.761C304.061 246.665 305.763 247.116 307.82 247.116C309.423 247.116 311.243 246.843 313.292 246.299C318.185 244.999 321.371 241.547 322.265 236.58C323.764 228.264 318.506 216.551 311.018 211.514C307.675 209.267 304.328 207.747 301.089 206.279C295.079 203.557 289.888 201.203 286.633 194.954C281.34 184.806 293.523 176.389 294.041 176.034C294.7 175.589 294.946 174.764 294.631 174.054C294.318 173.342 293.525 172.94 292.733 173.08C292.579 173.108 277.39 176.025 277.758 193.233C278.01 204.922 289.072 210.583 297.961 215.13C299.593 215.964 301.165 216.768 302.597 217.574C309.189 221.277 314.172 230.439 313.48 235.062C313.22 236.799 312.265 237.243 311.463 237.436C310.135 237.756 309.177 237.76 308.694 237.456C307.898 236.952 307.592 235.088 307.262 233.113C306.793 230.252 306.206 226.694 303.801 223.465C299.857 218.161 293.742 218.36 291.156 218.724C290.562 217.95 289.911 217.243 289.162 216.676C287.316 215.279 285.189 214.784 282.998 215.241C280.831 215.697 279.228 216.715 278.235 218.264C277.547 219.339 277.28 220.482 277.208 221.47C275.154 221.164 272.237 221.267 269.902 223.472C269.372 223.973 268.99 224.508 268.669 225.049C266.491 225.739 264.105 226.317 262.056 226.639C262.631 225.714 263.064 224.576 263.19 223.108C263.531 219.135 261.36 216.744 259.749 215.533C260.756 213.785 261.287 212 260.774 210.43C258.469 203.354 251.587 202.469 248.292 202.988C247.658 203.086 247.133 203.515 246.936 204.1C246.785 204.547 246.843 205.027 247.078 205.423C241.707 202.559 235.569 204.133 235.239 204.221C234.559 204.403 234.065 204.963 233.992 205.635C233.92 206.306 234.284 206.952 234.912 207.263C236.068 207.834 237.037 208.522 237.856 209.262C235.351 208.982 233.099 209.186 231.125 209.9C226.613 209.265 221.983 208.798 217.344 208.531C214.066 208.345 212.321 208.36 210.92 208.371C209.608 208.386 208.569 208.393 206.712 208.233C200.022 207.657 192.805 206.148 184.65 203.623C176.144 200.988 171.17 200.52 168.522 202.096C166.622 203.233 166.353 205.053 166.174 206.255L166.102 206.711C165.822 208.279 165.41 210.622 199.639 218.844C197.146 220.828 195.573 222.826 195.155 223.391C190.698 223.739 186.085 224.076 180.926 223.64C175.852 223.213 169.097 221.79 162.565 220.412C156.275 219.083 150.331 217.828 145.956 217.458C141.645 217.094 137.988 219.672 137.421 222.215C137.101 223.647 137.662 225.474 140.197 226.312C146.666 228.452 177.08 233.844 189.894 236.069C176.617 240.388 160.989 238.01 152.114 236.661C146.922 235.874 143.393 236.306 141.349 237.99C139.358 239.633 139.383 241.939 139.396 243.047C139.413 244.622 139.428 245.982 156.88 247.681C160.881 248.071 165.218 248.404 169.411 248.663C169.24 248.8 169.068 248.932 168.9 249.083C166.701 251.056 165.65 253.286 165.154 254.81C164.963 255.399 165.132 256.043 165.594 256.473C166.054 256.906 166.725 257.057 167.342 256.856C174.682 254.488 179.877 255.112 181.039 256.899C181.415 257.478 181.561 258.31 181.34 258.652C181.031 259.127 179.131 259.03 177.603 258.954C175.575 258.853 173.053 258.726 170.474 259.355C166.504 260.325 163.091 263.481 160.041 268.998C159.732 269.556 159.785 270.233 160.176 270.739C160.565 271.249 161.239 271.505 161.874 271.38C164.198 270.969 167.433 271.24 168.868 273.374C170.224 275.386 169.884 277.929 169.18 279.495C168.597 280.791 167.855 281.359 167.498 281.422C163.671 282.112 162.925 280.789 161.101 277.598C159.955 275.594 158.53 273.102 155.884 270.761C148.877 264.563 142.505 263.851 142.235 263.823C141.529 263.748 140.865 264.096 140.537 264.688C140.209 265.281 140.291 266.006 140.743 266.518C142.397 268.389 144.358 271.404 144.304 275.145C144.287 276.229 144.242 279.116 142.874 279.804C141.857 280.316 139.934 279.834 138.837 278.794C137.536 277.557 137.734 275.71 138.227 272.28C138.587 269.795 139.034 266.696 138.654 263.124C138.137 258.284 136.172 253.478 132.811 248.838C132.395 248.266 131.647 247.997 130.947 248.187C130.245 248.371 129.741 248.958 129.686 249.652C129.098 257.278 126.668 260.645 125.498 260.752C124.642 260.848 122.969 259.56 122.536 257.914C122.133 256.38 123.11 254.942 124.735 252.721C125.466 251.718 126.296 250.587 126.985 249.337C129.819 244.214 130.031 237.666 127.62 229.871C127.406 229.181 126.75 228.704 125.998 228.695C125.292 228.641 124.575 229.142 124.342 229.825C122.404 235.463 119.394 237.922 118.201 237.71C117.896 237.655 117.387 237.322 116.868 236.554C116.05 235.344 115.432 233.303 115.891 231.472C116.365 229.593 117.824 228.687 120.579 227.121C122.872 225.815 125.726 224.192 128.301 221.218C131.012 218.089 132.784 214.206 133.566 209.681C133.684 209.002 133.345 208.325 132.721 207.986C132.097 207.644 131.315 207.714 130.765 208.156C127.2 211.032 123.997 211.529 123.058 210.791C122.717 210.522 122.475 209.911 122.486 209.337C122.495 208.787 122.778 208.246 123.211 207.758C124.038 207.215 124.898 206.693 125.813 206.201C138.042 199.611 149.955 195.509 160.464 191.89C174.33 187.114 186.604 182.867 195.576 174.398C195.668 174.326 195.753 174.247 195.829 174.155C197.139 172.898 198.375 171.547 199.535 170.089C199.552 170.067 199.582 170.058 199.597 170.031C199.606 170.02 199.605 170.006 199.613 169.992C199.911 169.615 200.218 169.253 200.505 168.862C205.53 162.028 209.169 155.36 211.506 148.819C214.911 148.617 223.066 147.889 226.003 145.459C227.496 144.224 230.393 142.522 236.013 140.582C230.752 145.041 225.268 151.429 227.457 157.478C229.096 162.001 233.037 165.629 238.268 167.434C240.688 168.267 243.223 168.68 245.778 168.68C246.222 168.68 246.666 168.616 247.113 168.591C247.117 168.591 247.124 168.594 247.129 168.594C247.149 168.594 247.17 168.586 247.188 168.586C251.041 168.359 254.902 167.254 258.434 165.206C259.085 164.829 259.398 164.09 259.204 163.387C259.011 162.681 258.357 162.183 257.599 162.158C254.79 162.073 251.302 161.45 250.284 160.653C250.052 159.554 249.336 157.01 247.39 155.089C251.822 153.342 259.268 149.503 261.734 142.757C264.557 144.559 268.978 145.921 274.173 144.122C273.938 146.951 274.413 151.125 277.882 155.241L272.581 163.338C272.205 163.916 272.237 164.658 272.665 165.2C273.093 165.743 273.825 165.978 274.508 165.79C275 165.657 286.685 162.38 290.785 152.919C294.535 144.269 294.564 131.624 288.988 127.66C284.173 124.239 280.851 123.818 271.308 124.502C271.832 123.146 272.202 121.742 272.361 120.286C272.575 118.374 272.431 116.635 272.13 115.138C273.264 115.395 274.578 115.523 276.025 115.395C277.934 115.221 279.506 114.64 280.678 114.031C281.609 114.783 282.477 115.606 283.262 116.494C284.271 117.632 285.151 118.866 285.88 120.17C286.248 120.829 287.026 121.175 287.796 120.989C288.554 120.818 289.095 120.176 289.113 119.425C289.341 108.209 284.26 102.643 279.957 99.9469C273.446 95.8723 265.521 96.199 260.9 98.2279C253.686 101.4 254.151 105.513 254.606 109.494C254.746 110.728 254.89 112.004 254.833 113.339C254.687 116.613 253.832 118.235 253.31 118.941C252.534 118.805 251.781 118.733 251.062 118.775C248.415 118.922 244.487 120.162 240.327 121.479C236.066 122.825 231.294 124.375 228.588 124.325C227.913 124.322 227.242 124.303 226.573 124.289C222.963 124.206 219.268 124.134 215.893 125.427C218.027 109.818 215.103 102.485 212.681 96.4509C210.464 90.9314 208.715 86.5717 211.428 77.2573C211.563 76.8006 211.481 76.3107 211.206 75.9121C210.931 75.5135 210.487 75.2505 209.997 75.1896C206.634 74.7689 199.807 75.5744 197.943 81.5921C197.099 84.3241 195.518 85.3981 194.707 85.3206C193.887 85.2237 192.956 83.812 192.849 80.9471C192.254 65.2109 166.527 64.4026 165.432 64.3749C164.709 64.3528 164.049 64.7791 163.786 65.424C163.524 66.0717 163.715 66.8053 164.263 67.2592C167.487 69.9331 170.711 73.8084 170.373 75.3142C170.31 75.5882 169.955 75.818 169.314 76.0034C167.452 76.5376 166.55 75.4553 164.215 71.1815C162.029 67.1706 159.305 62.1827 153.204 59.8907C144.871 56.7573 135.796 57.4383 135.411 57.4687C134.65 57.5296 134.024 58.0611 133.871 58.778C133.719 59.4949 134.079 60.2201 134.754 60.5578C138.772 62.584 143.288 65.8918 143.345 67.3976C143.352 67.5609 143.177 67.7464 142.828 67.954C142.298 68.2751 141.147 68.2086 139.754 67.7824C134.02 66.0274 125.428 58.9883 122.265 51.6946C121.998 51.0828 121.372 50.6815 120.678 50.6815C120.674 50.6815 120.67 50.6815 120.664 50.6815C119.966 50.687 119.34 51.0967 119.081 51.7195C117.794 54.828 116.682 60.2257 118.192 64.9977C112.287 60.782 109.869 56.2868 111.719 52.716C114.07 48.182 123.122 45.5717 132.847 48.9266C136.298 50.114 140.256 51.642 144.444 53.2613C153.238 56.6549 163.61 60.6492 174.135 63.3397C174.228 63.3674 174.309 63.4172 174.408 63.4283C174.435 63.4283 174.462 63.4283 174.488 63.431C176.176 63.8601 177.866 64.2504 179.555 64.5991C179.633 64.6185 179.7 64.66 179.783 64.6683C179.852 64.6766 179.919 64.6822 179.987 64.6822C179.987 64.6822 179.988 64.6822 179.989 64.6822C184.722 65.6399 189.427 66.2489 193.987 66.3568C194.066 66.3679 194.135 66.4011 194.217 66.4039C210.409 66.6226 219.277 70.5006 223.867 73.717C237.655 83.3719 246.375 82.2342 254.812 81.1187L255.316 81.0551C262.72 80.0613 270.307 85.8881 270.385 85.9434C270.697 86.1898 271.079 86.3143 271.467 86.3143C271.756 86.3143 272.049 86.2451 272.312 86.1012C272.925 85.769 273.267 85.1102 273.168 84.4404C273.148 84.2964 272.604 80.8447 269.546 77.8276C265.999 74.3205 261.326 73.8776 257.203 73.4845L256.065 73.3738C243.667 72.1143 232.451 68.8121 232.062 66.307C231.952 65.5873 232.996 64.1784 234.372 63.5667C236.224 62.7529 238.168 63.8711 241.732 66.1022C245.414 68.4079 249.997 71.2756 256.69 72.3635C259.538 72.823 261.299 72.715 262.855 72.6181C264.506 72.5129 265.937 72.4271 268.616 73.1025C273.296 74.2872 277.657 76.7591 281.577 80.4572C282.162 81.008 283.068 81.0883 283.742 80.6509C284.419 80.2136 284.682 79.3804 284.37 78.6607C281.557 72.1752 277.706 67.9457 272.923 66.0828C270.877 65.2884 269.262 65.15 267.389 64.9867C265.365 64.815 262.844 64.5936 258.631 63.4449C253.061 61.9224 251.408 60.6492 250.643 59.2015C250.529 58.98 249.533 56.9981 250.327 55.6141C250.934 54.5512 252.685 53.8619 255.021 53.7706C258.038 53.6626 259.961 55.2903 262.732 57.7759C264.937 59.7468 267.682 62.2048 271.858 64.3417C275.998 66.4593 278.84 66.8828 281.346 67.2564C283.699 67.6052 285.736 67.9097 288.632 69.6813C293.088 72.405 296.544 76.7425 298.896 82.5719C299.185 83.2833 299.926 83.7152 300.736 83.6072C301.526 83.502 302.134 82.8903 302.209 82.1318C303.106 72.7593 300.123 67.6883 297.458 65.0835C294.9 62.5785 291.691 61.3107 287.975 59.852C285.869 59.0188 284.066 58.4901 282.477 58.0251C279.575 57.1753 277.48 56.5608 275.252 54.6176C274.789 54.2163 273.542 53.134 273.024 52.4253C275.92 51.5064 288.412 52.7741 299.061 59.3427C302.875 61.6983 304.773 63.7438 306.605 65.7202C308.564 67.835 310.413 69.8335 314.137 71.7379C321.441 75.4775 330.753 75.7598 341.815 72.5849C342.637 72.3468 343.152 71.569 343.022 70.7608C342.891 69.9581 342.168 69.3684 341.323 69.3684C341.312 69.3684 341.306 69.3684 341.297 69.3684C332.697 69.4709 325.689 67.6301 320.535 63.8379C317.844 61.8643 316.562 60.0734 315.205 58.1773C313.524 55.8273 311.782 53.3969 307.511 50.8919C304.139 48.9127 300.936 47.9162 298.364 47.108C295.024 46.0672 293.268 45.4527 292.834 43.9773C292.426 42.5712 293.224 40.8882 294.139 39.9194C296.813 37.0849 303.228 38.3056 306.246 39.3464Z" fill="#C0FFD5"/>
</svg>
