<svg width="400" height="401" viewBox="0 0 400 401" fill="none" xmlns="http://www.w3.org/2000/svg">
<path d="M221.451 226.25C222.015 226.435 222.637 226.274 223.022 225.839C223.406 225.406 223.467 224.788 223.176 224.291C223.096 224.15 221.657 221.737 218.604 220.315C221.157 219.653 224.562 219.589 227.122 222.549C227.552 223.049 228.29 223.19 228.892 222.89C229.49 222.587 229.788 221.927 229.606 221.304C229.568 221.179 228.984 219.253 227.392 217.471C229.956 217.761 233.447 218.898 236.625 222.43C235.328 223.271 233.209 224.773 230.505 227.14C229.935 227.637 229.398 228.12 228.884 228.584C225.725 231.432 223.666 233.342 220.069 233.068C217.388 232.884 216.708 231.725 215.766 230.12C214.906 228.657 213.838 226.839 211.115 226.067C211.002 226.034 210.887 226.003 210.775 225.974C213.668 225.259 217.482 224.921 221.451 226.25ZM238.341 224.634C239.188 225.976 239.793 227.637 239.547 229.01C239.375 229.959 238.813 230.707 237.827 231.291C234.85 233.059 232.037 231.858 230.514 230.882C230.627 230.78 230.738 230.683 230.85 230.58C231.357 230.123 231.88 229.65 232.438 229.164C233.6 228.147 234.632 227.314 235.542 226.619C235.452 226.824 235.396 227.043 235.416 227.281C235.484 228.073 236.209 228.661 237.036 228.595C237.863 228.529 238.479 227.837 238.41 227.045C238.343 226.254 237.617 225.665 236.79 225.731C236.759 225.733 236.734 225.751 236.704 225.755C237.355 225.287 237.913 224.908 238.341 224.634ZM204.934 228.202C204.957 228.197 207.473 227.895 210.301 228.696C211.908 229.153 212.508 230.173 213.266 231.461C214.325 233.266 215.645 235.512 219.861 235.803C220.146 235.823 220.423 235.832 220.694 235.832C223.836 235.832 226.125 234.538 228.334 232.761C229.836 233.854 232.102 234.931 234.667 234.931C236.159 234.931 237.751 234.565 239.339 233.62C241.013 232.628 242.062 231.195 242.371 229.478C242.864 226.744 241.423 223.813 239.895 221.965C239.895 221.964 239.895 221.964 239.895 221.962C239.891 221.956 239.885 221.953 239.883 221.947C239.876 221.94 239.868 221.929 239.86 221.92C239.858 221.918 239.857 221.916 239.855 221.914C232.679 212.627 223.314 214.851 222.915 214.95C222.313 215.1 221.881 215.608 221.846 216.204C221.825 216.6 221.986 216.979 222.269 217.248C218.768 216.966 215.361 218.306 213.412 219.518C212.888 219.843 212.643 220.457 212.812 221.033C212.978 221.611 213.519 222.017 214.145 222.037C215.237 222.071 216.181 222.298 216.987 222.625C209.804 222.219 204.264 225.512 203.978 225.685C203.409 226.031 203.169 226.707 203.399 227.31C203.629 227.913 204.25 228.283 204.934 228.202Z" fill="#C0FFD5"/>
<path d="M394.091 93.5959C388.039 112.376 374.192 109.105 353.24 104.169C351.204 103.689 349.097 103.194 346.939 102.707C346.911 102.699 346.878 102.692 346.845 102.684C335.621 100.147 322.827 97.7905 308.852 98.5416C308.613 98.5021 308.359 98.5243 308.114 98.5934C297.3 99.2581 285.794 101.81 273.78 107.591C273.554 107.642 273.343 107.743 273.145 107.891C264.493 112.132 255.578 118.05 246.475 126.159C260.417 110.132 278.332 92.7906 299.279 79.5426C322.498 64.8606 347.118 56.8834 365.836 56.8834C375.729 56.8834 383.977 59.1149 389.488 63.7645C396.799 69.9345 398.389 80.2517 394.091 93.5959ZM338.8 189.459C330.176 205.165 306.257 200.461 274.523 189.897C274.137 189.764 273.724 189.631 273.347 189.498C273.338 189.495 273.329 189.498 273.324 189.495C271.744 188.966 270.159 188.429 268.542 187.875C272.445 188.648 276.343 189.323 280.184 189.89C280.368 189.954 280.556 189.995 280.748 189.998C280.748 189.998 280.748 189.998 280.753 189.998C280.777 189.998 280.795 189.984 280.819 189.984C280.922 189.998 281.026 190.015 281.129 190.03C281.186 190.045 281.228 190.082 281.284 190.092C284.67 190.68 287.754 191.006 290.576 191.122C306.238 192.444 319.578 190.907 325.122 183.59C342.825 160.221 357.185 118.23 360.053 109.519C365.329 110.669 370.247 111.529 374.719 111.652C370.031 122.76 351.307 166.706 338.8 189.459ZM272.238 193.008C274.123 193.663 276.084 194.321 278.101 194.995C288.718 198.552 300.953 202.653 310.489 209.756C310.343 209.731 310.197 209.699 310.052 209.679C300.163 208.231 289.828 214.283 285.568 220.977C278.788 231.637 278.501 244.575 278.962 251.493C274.321 247.737 265.429 242.24 253.928 243.259C243.936 244.114 235.19 250.478 231.645 259.473C230.808 261.591 230.333 263.753 230.15 265.918C228.203 257.648 228.791 246.991 229.365 236.595C230.098 223.307 230.785 210.759 225.711 204.574C222.044 200.106 217.426 199.047 213.928 199C216.613 193.523 216.838 184.929 214.567 172.947C216.994 173.785 220.727 175.046 225.42 176.533C232.891 179.107 240.203 181.725 247.364 184.287C256.035 187.39 264.352 190.365 272.238 193.006V193.008ZM324.529 265.409C322.808 264.914 320.777 264.554 318.802 264.655C320.189 262.382 321.51 260.077 322.723 257.746C323.043 260.776 323.772 263.404 324.529 265.409ZM314.979 287.57C312.017 286.91 307.87 286.489 304.315 287.873C306.215 284.191 308.791 280.174 311.509 276.029C312.097 280.117 313.7 284.516 314.979 287.57ZM312.708 326.45C315.906 329.957 318.666 332.987 318.261 335.081C317.894 336.962 314.984 339.156 309.605 341.595C305.73 343.353 303.21 343.848 301.898 343.097C300.196 342.125 299.585 338.265 298.809 333.379C297.624 325.901 296.002 315.658 289.344 304.289C284.487 295.996 276.112 294.7 267.244 293.329C257.779 291.861 247.256 290.196 238.125 280.08C233.479 274.206 232.322 267.406 234.894 260.887C237.941 253.16 245.525 247.688 254.21 246.942C269.322 245.656 279.85 257.197 279.954 257.313C280.49 257.917 281.336 258.074 282.032 257.702C282.728 257.333 283.114 256.523 282.968 255.715C282.935 255.527 279.742 236.789 288.497 223.028C292.076 217.408 301.155 212.113 309.567 213.339C314.706 214.091 318.863 217.192 321.858 222.354C321.995 222.593 322.145 222.817 322.277 223.061C322.517 223.502 322.723 223.992 322.949 224.462C323.194 224.984 323.448 225.501 323.678 226.043C324.012 226.866 324.313 227.74 324.604 228.637C328.883 243.003 318.684 258.589 309.605 272.413C302.618 283.053 296.585 292.24 297.854 299.712C300.041 312.554 307.357 320.586 312.708 326.45ZM271.269 304.338C270.78 301.974 270.056 299.442 269.031 297.343C271.716 297.777 274.203 298.24 276.46 298.924C274.17 300.04 272.463 302.153 271.269 304.338ZM252.118 305.16C250.768 301.592 248.483 296.144 245.328 290.575C249.734 293.114 254.22 294.553 258.536 295.513C255.983 298.082 253.707 302.006 252.118 305.16ZM200 275.115C197.358 270.593 191.781 259.806 188.711 245.121C192.12 247.163 196.573 247.18 200 247.18C203.428 247.18 207.881 247.163 211.29 245.121C208.22 259.806 202.638 270.593 200 275.115ZM174.29 204.574C169.211 210.759 169.903 223.307 170.636 236.595C171.205 246.988 171.793 257.646 169.846 265.916C169.668 263.749 169.193 261.589 168.36 259.473C164.81 250.478 156.065 244.114 146.077 243.259C134.586 242.247 125.685 247.74 121.034 251.493C121.5 244.575 121.213 231.639 114.428 220.977C110.168 214.283 99.8184 208.249 89.9432 209.679C89.8026 209.699 89.6522 209.731 89.5092 209.756C99.0464 202.653 111.273 198.552 121.895 194.995C123.912 194.321 125.873 193.663 127.758 193.008C127.763 193.008 127.763 193.006 127.763 193.006C135.648 190.365 143.966 187.39 152.637 184.287C159.798 181.725 167.114 179.107 174.581 176.533C179.274 175.046 183.007 173.785 185.433 172.947C183.162 184.919 183.383 193.51 186.064 198.988C182.57 199.044 177.948 200.121 174.29 204.574ZM147.878 305.16C146.289 302.006 144.004 298.084 141.451 295.516C145.772 294.558 150.258 293.117 154.673 290.578C151.518 296.144 149.233 301.592 147.878 305.16ZM128.727 304.338C127.533 302.151 125.826 300.04 123.536 298.924C125.793 298.24 128.28 297.777 130.97 297.343C129.94 299.442 129.216 301.974 128.727 304.338ZM101.187 333.379C100.415 338.265 99.8019 342.125 98.105 343.097C96.7912 343.848 94.2728 343.353 90.3937 341.595C85.015 339.156 82.1026 336.962 81.7391 335.081C81.3329 332.987 84.0948 329.957 87.2913 326.45C92.637 320.586 99.9567 312.554 102.142 299.712C103.414 292.24 97.3776 283.053 90.3913 272.413C81.314 258.589 71.1172 243.008 75.3956 228.642C75.6843 227.745 75.9871 226.871 76.3224 226.046C76.5546 225.491 76.8133 224.962 77.0686 224.428C77.2849 223.972 77.4866 223.494 77.7189 223.066C77.8524 222.812 78.0146 222.58 78.1552 222.332C81.15 217.184 85.3037 214.091 90.4313 213.339C98.8494 212.108 107.93 217.408 111.499 223.028C120.259 236.789 117.061 255.527 117.028 255.715C116.887 256.523 117.268 257.333 117.964 257.702C118.669 258.074 119.511 257.917 120.047 257.313C120.15 257.197 130.65 245.68 145.791 246.942C154.475 247.688 162.055 253.158 165.102 260.887C167.674 267.401 166.517 274.197 161.886 280.065C152.75 290.196 142.222 291.861 132.752 293.329C123.884 294.7 115.51 295.996 110.652 304.289C103.993 315.66 102.372 325.903 101.187 333.379ZM85.0221 287.57C86.3034 284.516 87.9016 280.117 88.4903 276.029C91.2081 280.174 93.7848 284.191 95.6858 287.873C92.1278 286.489 87.9811 286.91 85.0221 287.57ZM75.4709 265.409C76.2265 263.404 76.9539 260.776 77.2755 257.746C78.491 260.077 79.8146 262.382 81.197 264.658C79.2254 264.554 77.1909 264.914 75.4709 265.409ZM61.1978 189.459C48.6941 166.706 29.9669 122.76 25.2851 111.652C29.7534 111.529 34.6699 110.669 39.9427 109.519C42.8128 118.23 57.1776 160.221 74.8769 183.59C80.4249 190.912 93.7683 192.446 109.444 191.122C112.26 191.003 115.336 190.68 118.716 190.092C118.773 190.082 118.815 190.045 118.872 190.03C118.975 190.015 119.078 189.998 119.177 189.984C119.201 189.984 119.224 189.998 119.248 189.998C119.248 189.998 119.248 189.998 119.252 189.998C119.445 189.995 119.633 189.954 119.812 189.89C123.658 189.323 127.556 188.646 131.459 187.872C129.841 188.427 128.252 188.966 126.677 189.495C126.668 189.498 126.663 189.495 126.653 189.498C126.254 189.636 125.821 189.779 125.417 189.917C93.7166 200.468 69.8218 205.155 61.1978 189.459ZM5.90753 93.5959C1.60846 80.2517 3.19964 69.9345 10.5122 63.7645C26.4441 50.3122 65.2293 57.0976 100.719 79.5426C121.65 92.7782 139.556 110.11 153.497 126.132C144.389 118.026 135.479 112.107 126.823 107.871C126.635 107.736 126.437 107.642 126.226 107.593C114.217 101.812 102.717 99.2705 91.9026 98.6033C91.6374 98.5243 91.3698 98.5046 91.1046 98.5564C89.3211 98.4602 87.5494 98.3965 85.8036 98.3965C73.8938 98.3965 62.9319 100.478 53.1508 102.689C53.1225 102.694 53.0967 102.702 53.0685 102.709C50.9116 103.197 48.7924 103.689 46.7579 104.169C25.8061 109.112 11.96 112.373 5.90753 93.5959ZM173.406 152.928C158.811 140.682 143.726 134.466 129.898 131.232C131.351 128.762 132.968 124.818 132.559 119.878C132.371 117.634 131.802 115.686 131.087 114.024C144.629 121.817 158.787 134.114 173.406 152.928ZM202.944 144.936C202.657 146.675 202.634 149.234 204.03 151.81C205.356 154.256 207.326 155.532 208.831 156.19C208.727 156.384 208.61 156.568 208.478 156.746H191.565C191.424 156.566 191.278 156.391 191.165 156.19C192.665 155.534 194.64 154.261 195.966 151.81C197.367 149.229 197.339 146.67 197.057 144.931C197.96 144.613 198.938 144.424 200 144.424C201.058 144.424 202.036 144.621 202.944 144.936ZM210.1 149.123C210.599 150.512 210.415 151.835 210.133 152.771C209.179 152.35 207.933 151.532 207.091 149.982C206.226 148.387 206.226 146.768 206.395 145.658C208.116 146.17 209.503 147.434 210.1 149.123ZM270.103 131.232C256.274 134.466 241.19 140.682 226.595 152.926C241.214 134.114 255.372 121.817 268.913 114.024C268.199 115.686 267.625 117.634 267.442 119.878C267.033 124.821 268.65 128.762 270.103 131.232ZM297.615 114.748C296.608 119.659 297.116 123.991 298 127.304C294.427 126.738 289.414 125.255 284.609 121.432C280.142 117.878 277.49 113.635 275.966 110.332C285.573 105.805 294.845 103.438 303.727 102.48C301.334 105.221 298.729 109.278 297.615 114.748ZM344.955 106.032C346.553 119.435 329.922 127.72 329.748 127.802C328.874 128.227 328.483 129.316 328.883 130.24C336.585 148.133 318.308 157.992 317.523 158.403C316.785 158.793 316.404 159.67 316.601 160.512C318.529 168.467 317.311 175.454 313.164 180.191C309.755 184.084 304.428 186.434 297.633 187.181C301.39 184.651 305.016 181.023 307.663 176.878C311.73 170.499 313.033 163.795 311.41 157.805C315.421 155.638 321.238 151.298 323.56 143.628C325.535 137.092 324.308 131.294 323.227 128.07C327.867 125.144 339.077 115.878 340.469 105.063C341.983 105.379 343.478 105.701 344.955 106.032ZM262.058 182.681C261.235 180.222 260.022 174.839 262.556 169.142C263.84 166.265 265.678 164.241 267.381 162.839C266.863 165.724 266.722 169.176 267.54 172.962C268.711 178.358 271.42 182.336 274.062 185.106C270.094 184.395 266.073 183.577 262.058 182.681ZM264.141 160.879C262.406 162.509 260.652 164.689 259.368 167.576C256.909 173.107 257.361 178.383 258.146 181.787C247.044 179.178 236.192 176.085 227.098 173.223C224.033 172.166 220.896 171.137 217.779 170.098C235.905 163.805 251.229 161.549 264.141 160.879ZM140.628 167.576C139.344 164.689 137.59 162.509 135.86 160.879C148.767 161.549 164.096 163.802 182.217 170.098C179.1 171.135 175.968 172.164 172.903 173.223C163.809 176.083 152.957 179.176 141.855 181.784C142.64 178.383 143.092 173.117 140.628 167.576ZM132.456 172.962C133.279 169.174 133.137 165.721 132.616 162.839C134.322 164.241 136.156 166.263 137.44 169.142C139.979 174.851 138.766 180.225 137.943 182.678C133.927 183.572 129.902 184.392 125.939 185.105C128.581 182.334 131.285 178.353 132.456 172.962ZM51.3879 106.869C50.6464 119.693 62.8637 127.846 67.2592 130.348C60.9862 147.566 75.2875 158.199 79.6735 160.982C77.9136 169.622 79.5141 177.292 84.2406 182.69C85.5971 184.24 87.3924 185.814 89.7485 187.178C84.2359 186.257 79.9857 184.397 77.6342 181.294C60.7751 159.034 46.535 118.07 43.4161 108.736C44.7679 108.425 46.1386 108.1 47.5299 107.773C48.7995 107.475 50.0855 107.172 51.3879 106.869ZM115.387 121.432C110.587 125.255 105.573 126.738 102.003 127.304C102.883 123.991 103.39 119.659 102.388 114.748C101.269 109.278 98.666 105.221 96.2745 102.48C105.152 103.435 114.423 105.805 124.034 110.332C122.511 113.635 119.859 117.876 115.387 121.432ZM126.169 130.424C120.903 129.373 115.858 128.725 111.118 128.304C113.215 127.328 115.383 126.077 117.517 124.378C121.998 120.809 124.834 116.639 126.606 113.152C127.702 114.826 128.802 117.186 129.051 120.194C129.451 125.053 127.41 128.69 126.169 130.424ZM122.281 183.644C122.84 180.279 122.915 175.878 121.223 171.098C119.525 166.329 116.69 163.032 114.104 160.835C118.472 160.709 123.244 160.581 128.454 160.647C129.352 163.509 130.02 167.548 129.023 172.142C127.852 177.528 124.871 181.275 122.281 183.644ZM91.8654 159.305C96.0705 160.854 101.304 161.088 107.831 160.985C109.886 161.994 115.392 165.277 117.922 172.388C120.033 178.336 118.919 183.639 118.002 186.392C115.919 186.688 113.878 186.942 111.87 187.158C106.725 186.811 99.5203 181.499 95.2608 174.821C93.2568 171.676 90.3467 165.701 91.8654 159.305ZM125.191 134.018C125.323 137.077 124.932 141.185 122.826 145.355C119.704 151.539 114.513 154.507 111.019 155.877C111.762 152.443 112.119 147.818 110.695 142.636C109.34 137.68 106.821 134.043 104.507 131.535C110.77 131.888 117.767 132.542 125.191 134.018ZM128.92 156.955C124.575 156.891 120.527 156.96 116.76 157.063C120.019 155.034 123.508 151.899 125.934 147.086C127.852 143.293 128.544 139.567 128.694 136.419C130.119 137.939 131.609 140.099 132.324 143.025C133.974 149.756 130.288 155.216 128.92 156.955ZM79.9998 129.612C83.4685 130.75 88.6337 130.934 95.3924 131.161C96.512 131.198 97.6781 131.237 98.8705 131.282C101.041 132.885 105.443 136.836 107.314 143.658C108.88 149.37 107.949 154.33 106.995 157.305C100.332 157.381 95.2189 157.059 91.5156 155.182C91.4944 155.172 91.4709 155.174 91.4497 155.165C91.4286 155.155 91.4145 155.132 91.3933 155.123C87.9999 153.514 81.9827 149.731 79.7981 142.513C78.174 137.146 79.1036 132.392 79.9998 129.612ZM181.893 166.09C162.629 159.563 146.557 157.547 133.152 157.063C135.061 153.877 137.289 148.461 135.733 142.104C135.112 139.567 134.031 137.486 132.841 135.813C148.682 140.121 165.911 148.695 181.893 166.09ZM189.868 152.771C189.585 151.83 189.402 150.505 189.896 149.123C190.493 147.434 191.885 146.17 193.606 145.658C193.775 146.768 193.775 148.387 192.91 149.985C192.068 151.53 190.822 152.35 189.868 152.771ZM209.964 198.771C209.748 199.079 209.503 199.333 209.263 199.594C209.094 199.594 208.925 199.584 208.76 199.636L203.386 201.372C208.083 190.651 209.988 179.826 210.721 171.721C213.481 185.072 213.241 194.155 209.964 198.771ZM189.275 171.723C190.009 179.829 191.913 190.651 196.61 201.37L191.241 199.636C191.076 199.581 190.902 199.594 190.733 199.594C190.493 199.333 190.253 199.079 190.032 198.771C186.76 194.158 186.52 185.075 189.275 171.723ZM207.613 161.982C207.632 168.711 206.851 184.819 200 200.242C193.145 184.819 192.369 168.711 192.388 161.984C194.24 162.844 196.526 163.167 200 163.167C203.471 163.167 205.765 162.844 207.613 161.982ZM266.854 157.061C253.448 157.542 237.377 159.556 218.113 166.08C234.095 148.692 251.318 140.121 267.155 135.816C265.965 137.486 264.888 139.567 264.268 142.104C262.711 148.448 264.945 153.872 266.854 157.061ZM271.542 160.647C276.752 160.581 281.524 160.709 285.892 160.835C283.311 163.029 280.471 166.327 278.778 171.098C277.081 175.88 277.165 180.284 277.72 183.649C275.125 181.282 272.148 177.533 270.978 172.142C269.981 167.551 270.648 163.512 271.542 160.647ZM288.986 155.877C285.483 154.507 280.292 151.539 277.175 145.355C275.064 141.178 274.678 137.072 274.81 134.018C282.23 132.542 289.226 131.888 295.489 131.535C293.176 134.04 290.66 137.678 289.301 142.636C287.881 147.818 288.234 152.443 288.986 155.877ZM267.677 143.022C268.391 140.097 269.877 137.936 271.307 136.417C271.453 139.562 272.148 143.286 274.062 147.084C276.493 151.899 279.982 155.034 283.241 157.063C279.474 156.963 275.426 156.891 271.081 156.955C269.713 155.206 266.026 149.731 267.677 143.022ZM304.738 174.821C300.473 181.506 293.256 186.823 288.112 187.161C286.113 186.944 284.073 186.693 281.999 186.395C281.087 183.641 279.968 178.338 282.079 172.388C284.604 165.27 290.115 161.994 292.165 160.985C298.696 161.088 303.929 160.854 308.138 159.305C309.652 165.701 306.741 171.679 304.738 174.821ZM320.001 129.612C320.894 132.392 321.825 137.143 320.203 142.513C317.937 150.002 311.335 153.827 308.523 155.165C308.514 155.167 308.514 155.174 308.505 155.177C308.5 155.179 308.49 155.179 308.486 155.182C304.785 157.059 299.669 157.386 293.007 157.307C292.052 154.332 291.116 149.372 292.682 143.658C294.558 136.825 298.964 132.88 301.132 131.282C302.321 131.237 303.487 131.198 304.607 131.161C311.368 130.934 316.531 130.75 320.001 129.612ZM270.949 120.194C271.199 117.191 272.299 114.831 273.394 113.152C275.167 116.644 278.002 120.814 282.483 124.378C284.618 126.077 286.786 127.328 288.883 128.304C284.143 128.725 279.093 129.373 273.832 130.424C272.59 128.69 270.55 125.053 270.949 120.194ZM90.6236 102.046C92.7851 103.746 97.4364 108.14 98.9452 115.521C99.9684 120.538 99.0981 124.885 98.239 127.56C97.3075 127.526 96.392 127.496 95.5048 127.466C88.1973 127.223 82.4289 127.033 79.8075 125.58C79.7722 125.56 79.7323 125.563 79.697 125.545C79.6665 125.531 79.6434 125.501 79.6129 125.489C77.4278 124.612 64.2156 114.937 63.0236 104.372C71.6617 102.741 80.8871 101.613 90.6236 102.046ZM59.5291 105.063C60.9209 115.878 72.1314 125.144 76.7733 128.07C75.6913 131.294 74.4641 137.094 76.4423 143.628C78.7514 151.264 84.5222 155.596 88.589 157.8C86.9626 163.79 88.2651 170.494 92.3347 176.876C94.9819 181.025 98.61 184.653 102.369 187.186C95.5753 186.439 90.2437 184.087 86.8337 180.191C82.6894 175.454 81.4664 168.467 83.3956 160.512C83.5997 159.67 83.2151 158.793 82.4759 158.403C81.6944 157.992 63.4176 148.133 71.1149 130.24C71.5117 129.316 71.1266 128.227 70.2469 127.802C70.0729 127.72 53.4348 119.467 55.0466 106.032C56.5231 105.701 58.0155 105.376 59.5291 105.063ZM212.607 221.221C211.14 223.019 206.466 223.019 200 223.019C193.53 223.019 188.861 223.019 187.39 221.221C186.924 220.654 186.717 219.753 186.736 218.529C187.385 210.165 189.393 206.002 190.643 204.185C193.954 206.219 197.692 206.244 199.996 206.244C199.996 206.244 199.996 206.244 200 206.244C202.304 206.244 206.043 206.219 209.353 204.187C210.613 206.017 212.611 210.179 213.26 218.514C213.284 219.748 213.077 220.652 212.607 221.221ZM213.058 233.228C212.954 234.425 212.828 235.599 212.682 236.762C211.614 242.998 206.748 243.486 200 243.486C193.248 243.486 188.386 242.998 187.319 236.762C187.173 235.599 187.042 234.425 186.938 233.228C186.68 230.23 186.562 227.546 186.538 225.088C189.374 226.684 193.831 226.713 200 226.713C206.169 226.713 210.627 226.684 213.462 225.088C213.439 227.543 213.321 230.23 213.058 233.228ZM352.469 107.773C353.86 108.1 355.233 108.423 356.583 108.736C353.465 118.068 339.228 159.029 322.366 181.291C320.01 184.4 315.76 186.262 310.24 187.183C312.605 185.816 314.401 184.242 315.76 182.69C320.481 177.292 322.084 169.622 320.325 160.982C324.712 158.199 339.011 147.566 332.739 130.348C337.135 127.846 349.351 119.693 348.613 106.869C349.915 107.172 351.199 107.475 352.469 107.773ZM336.975 104.372C335.781 114.937 322.573 124.612 320.387 125.489C320.358 125.501 320.335 125.531 320.307 125.545C320.269 125.563 320.227 125.56 320.194 125.58C317.575 127.033 311.801 127.223 304.494 127.466C303.61 127.496 302.693 127.526 301.762 127.56C300.901 124.885 300.031 120.538 301.056 115.521C302.566 108.14 307.216 103.746 309.374 102.046C319.112 101.613 328.338 102.741 336.975 104.372ZM391.693 60.8831C374.667 46.5144 334.154 53.1764 297.459 76.3774C252.437 104.847 221.287 151.909 212.922 165.443C212.423 163.401 211.859 161.268 211.248 159.064C211.981 158.093 212.475 156.958 212.738 155.731C213.34 154.593 214.685 151.443 213.401 147.83C212.339 144.842 209.828 142.67 206.795 141.971C206.583 138.237 207.19 135.092 208.694 132.683C211.77 127.797 217.647 126.668 223.863 125.479C230.554 124.196 237.466 122.871 240.791 116.415C241.496 115.046 243.649 110.176 241.778 105.046C241.533 104.379 239.206 98.507 233.314 97.4974C232.698 97.3987 227.206 96.6081 223.976 100.903C223.633 101.367 220.666 105.546 222.664 109.733C224.291 113.152 228.33 114.797 232.261 113.647C233.201 113.374 233.747 112.356 233.484 111.371C233.23 110.388 232.252 109.802 231.321 110.088C229.035 110.753 226.675 109.888 225.81 108.081C224.766 105.889 226.67 103.293 226.746 103.189C228.725 100.554 232.35 101.084 232.75 101.145C236.775 101.837 238.425 106.194 238.496 106.374C239.864 110.122 238.068 113.935 237.692 114.662C235.172 119.555 229.374 120.666 223.233 121.844C216.561 123.122 209.663 124.442 205.76 130.651C203.96 133.52 203.113 137.065 203.202 141.195C202.192 140.919 201.138 140.729 200 140.729C198.863 140.729 197.809 140.921 196.798 141.193C196.888 137.062 196.041 133.518 194.24 130.648C190.338 124.442 183.44 123.122 176.768 121.844C176.001 121.696 175.235 121.551 174.487 121.398C169.23 120.329 164.509 118.942 162.304 114.657C162.304 114.657 162.304 114.652 162.299 114.649C161.914 113.901 160.146 110.105 161.51 106.371C161.524 106.327 163.202 101.837 167.246 101.147C167.415 101.12 171.233 100.502 173.255 103.189C173.274 103.216 175.244 105.871 174.186 108.083C173.326 109.891 170.961 110.753 168.68 110.088C167.749 109.805 166.771 110.388 166.513 111.371C166.254 112.356 166.799 113.374 167.735 113.647C171.671 114.797 175.71 113.152 177.341 109.736C179.349 105.519 176.363 101.359 176.02 100.901C172.785 96.6007 167.302 97.3913 166.682 97.4998C160.644 98.5317 158.312 104.79 158.218 105.051C157.978 105.711 157.809 106.364 157.691 107.009C157.682 107.041 157.687 107.071 157.677 107.101C157.113 110.29 157.88 113.181 158.566 114.962C158.585 115.007 158.599 115.036 158.613 115.078C158.726 115.353 158.829 115.612 158.928 115.827C159.046 116.085 159.144 116.29 159.21 116.415C162.53 122.871 169.447 124.196 176.133 125.479C182.354 126.668 188.227 127.797 191.302 132.683C192.816 135.092 193.418 138.237 193.206 141.971C190.173 142.67 187.662 144.842 186.6 147.83C185.316 151.423 186.656 154.584 187.253 155.724C187.521 156.955 188.015 158.091 188.758 159.064C188.137 161.268 187.578 163.401 187.075 165.443C178.714 151.909 147.563 104.847 102.538 76.3774C65.8396 53.1739 25.3274 46.5144 8.30605 60.8831C2.33353 65.925 -3.5097 75.8997 2.57285 94.7807C6.35141 106.507 12.8919 110.832 21.3942 111.558C24.5483 119.065 44.8197 167.053 58.1467 191.304C62.8567 199.872 71.0683 203.264 81.9902 203.264C85.9441 203.261 90.2719 202.796 94.8973 201.993C87.3477 206.157 80.5749 211.559 75.9424 219.051C74.9263 220.603 73.9827 222.403 73.1358 224.479C73.0347 224.718 72.9129 224.935 72.8165 225.177C72.6524 225.588 72.5466 226.002 72.4056 226.413C72.2203 226.937 72.0327 227.457 71.8611 228.014C71.8568 228.028 71.8611 228.043 71.8569 228.056C70.0381 234.57 70.7514 241.139 72.8847 247.616C76.1301 258.562 70.5214 267.606 70.465 267.699C70.024 268.389 70.0776 269.31 70.5986 269.938C71.1219 270.566 71.9786 270.751 72.6919 270.389C75.0505 269.192 82.2973 266.559 84.581 270.044C86.8009 273.441 83.074 283.836 80.2015 289.59C79.8639 290.27 79.9622 291.1 80.4456 291.674C80.9318 292.245 81.7062 292.452 82.3866 292.174C82.4688 292.144 90.2883 289.09 95.2165 291.656C96.9224 292.548 98.0467 294.021 98.6683 296.141C98.8094 297.176 98.8305 298.158 98.6777 299.063C96.6784 310.806 89.7814 318.372 84.7474 323.896C80.7089 328.329 77.5195 331.829 78.2869 335.812C78.9273 339.13 82.1308 341.873 88.9976 344.986C92.1513 346.417 94.6297 347.119 96.6267 347.119C97.845 347.119 98.8846 346.858 99.7878 346.341C102.994 344.509 103.693 340.095 104.66 333.987C105.798 326.81 107.352 316.98 113.652 306.224C114.217 305.257 114.847 304.417 115.528 303.666C117.917 301.927 120.033 301.395 121.791 302.102C125.313 303.525 127.312 309.591 127.782 311.808C127.97 312.655 128.685 313.254 129.498 313.254C129.54 313.254 129.583 313.252 129.625 313.249C130.495 313.185 131.186 312.466 131.257 311.554C131.722 305.555 133.716 296.988 136.255 296.508C138.493 296.08 143.482 303.592 146.505 310.606C146.806 311.298 147.46 311.739 148.203 311.69C148.927 311.648 149.552 311.143 149.783 310.419C149.839 310.239 155.552 292.237 165.549 281.376C165.553 281.373 165.553 281.369 165.553 281.366C167.02 279.62 168.445 277.659 169.823 275.46C175.78 265.946 174.948 250.917 174.149 236.383C173.462 223.861 172.809 212.037 176.956 206.985C180.195 203.04 184.498 202.52 187.314 202.695C184.897 206.596 181.841 215.28 183.43 233.563C183.539 234.789 183.689 235.979 183.835 237.171C183.84 237.218 183.825 237.262 183.83 237.309C183.844 237.371 183.858 237.422 183.872 237.484C186.976 262.096 198.063 278.842 198.557 279.578C198.891 280.068 199.427 280.359 200 280.359C200.569 280.359 201.105 280.068 201.439 279.578C201.933 278.842 213.025 262.096 216.133 237.484C216.142 237.422 216.161 237.371 216.171 237.309C216.175 237.262 216.161 237.218 216.166 237.171C216.312 235.979 216.458 234.789 216.566 233.563C218.16 215.275 215.103 206.591 212.682 202.69C215.498 202.513 219.801 203.035 223.04 206.985C227.188 212.037 226.539 223.861 225.847 236.381C225.048 250.917 224.221 265.946 230.173 275.46C231.551 277.659 232.976 279.617 234.443 281.366C234.448 281.369 234.447 281.373 234.452 281.376C244.449 292.237 250.162 310.239 250.218 310.419C250.444 311.143 251.074 311.648 251.793 311.69C252.564 311.742 253.194 311.296 253.495 310.606C256.519 303.592 261.479 296.075 263.746 296.508C266.276 296.988 268.274 305.555 268.739 311.554C268.81 312.466 269.506 313.185 270.371 313.249C270.413 313.252 270.456 313.254 270.498 313.254C271.311 313.252 272.031 312.655 272.214 311.808C272.684 309.591 274.688 303.525 278.209 302.102C279.968 301.392 282.079 301.927 284.468 303.666C285.15 304.417 285.78 305.257 286.349 306.224C292.645 316.98 294.201 326.807 295.339 333.987C296.303 340.095 297.008 344.509 300.21 346.341C301.113 346.858 302.157 347.119 303.375 347.119C305.368 347.119 307.846 346.417 311.001 344.986C317.866 341.873 321.068 339.13 321.708 335.812C322.479 331.829 319.286 328.329 315.247 323.896C310.216 318.372 303.318 310.806 301.32 299.063C301.165 298.156 301.188 297.176 301.329 296.139C301.95 294.021 303.078 292.548 304.785 291.656C309.708 289.09 317.537 292.144 317.612 292.174C318.294 292.449 319.07 292.245 319.554 291.674C320.039 291.1 320.137 290.27 319.799 289.59C316.926 283.836 313.197 273.441 315.421 270.044C318.13 265.904 327.219 270.347 327.308 270.391C328.027 270.751 328.883 270.564 329.4 269.935C329.918 269.308 329.974 268.389 329.532 267.699C329.476 267.606 323.866 258.559 327.115 247.614C329.25 241.139 329.96 234.57 328.145 228.058C328.14 228.043 328.145 228.028 328.14 228.014C327.962 227.44 327.769 226.908 327.581 226.366C327.44 225.97 327.341 225.573 327.186 225.177C327.087 224.937 326.965 224.721 326.866 224.484C326.015 222.403 325.07 220.593 324.049 219.036C319.413 211.552 312.647 206.157 305.105 201.993C309.732 202.798 314.053 203.264 318.007 203.264C328.93 203.264 337.145 199.872 341.851 191.304C355.182 167.053 375.452 119.065 378.607 111.558C387.108 110.832 393.649 106.507 397.425 94.7807C403.509 75.8997 397.669 65.925 391.693 60.8831Z" fill="#C0FFD5"/>
</svg>
