<svg width="400" height="401" viewBox="0 0 400 401" fill="none" xmlns="http://www.w3.org/2000/svg">
<path d="M271.836 301.208C256.357 305.887 245.929 311.288 235.776 321.159C235.826 320.374 235.826 319.592 235.695 318.833C235.451 317.487 234.856 316.319 233.992 315.334C238.455 312.071 252.338 302.587 269.101 297.649C277.67 295.126 314.85 283.064 329.052 260.301C324.57 272.379 311.032 289.352 271.836 301.208ZM220.985 326.776C218.281 324.971 215.59 324.521 212.999 324.906C213.512 324.372 213.988 323.858 214.463 323.348C214.495 323.31 214.545 323.29 214.576 323.248C214.607 323.201 214.651 323.155 214.689 323.106C215.39 322.345 216.053 321.607 216.667 320.895C220.804 316.886 226.725 314.397 230.262 316.605C231.295 317.248 231.902 318.152 232.121 319.372C232.653 322.397 230.656 326.458 229.06 328.379C229.054 328.383 229.054 328.392 229.047 328.396C227.689 329.988 226.312 331.689 224.916 333.474C224.81 330.971 223.733 328.609 220.985 326.776ZM182.572 380.29C183.699 377.428 183.686 374.394 182.416 371.355C181.809 369.913 180.951 368.547 179.906 367.286C194.296 354.973 202.765 351.343 209.011 354.962C200.555 365.521 191.736 373.964 182.572 380.29ZM85.6908 371.383C89.8345 374.237 94.1972 376.104 98.1093 376.895C99.6991 377.217 101.226 377.377 102.679 377.377C105.833 377.377 108.612 376.618 110.847 375.146C114.371 376.459 121.181 378.729 128.098 379.594C139.045 381.388 140.873 384.964 140.203 389.775C139.878 392.104 137.161 394.299 131.834 394.017C126.251 393.436 120.58 392.237 114.822 390.394C102.009 386.297 92.5698 379.534 85.6908 371.383ZM68.7907 315.164C72.4649 313.547 74.6932 310.935 76.3645 307.507C76.6336 309.117 77.0843 310.647 77.779 312.04C79.4315 315.381 82.2482 317.632 86.129 318.745C86.0288 320.164 85.9474 322.525 86.1039 325.312C86.0601 325.461 86.0163 325.607 86.0163 325.767C86.5233 339.47 82.3797 347.019 73.3725 348.811C69.6107 337.368 68.5216 325.445 68.7907 315.164ZM77.754 275.232C78.3174 277.031 79.2437 278.689 80.6083 280.071C80.9776 280.445 81.3781 280.787 81.785 281.108C81.109 282.596 79.9636 285.326 78.862 288.649C77.9105 291.448 77.1218 294.083 76.4271 296.447C74.3678 303.439 72.853 308.421 68.966 311.135C69.4041 303.964 70.4557 297.82 71.5949 293.556C73.1284 287.842 75.0688 281.7 77.754 275.232ZM117.745 221.953C115.253 228.105 114.671 235.5 120.342 241.356C119.998 241.627 119.616 241.933 119.197 242.286C109.163 249.669 100.932 251.57 93.0393 248.305C99.3361 239.766 107.367 230.934 117.745 221.953ZM159.112 165.827C157.497 157.19 154.869 151.9 152.753 147.651C150.925 143.983 149.554 141.142 149.404 137.433C149.611 137.451 149.805 137.451 150.005 137.462C152.208 138.014 154.355 138.25 156.321 138.25C161.91 138.25 166.11 136.588 166.373 136.479C167.293 136.111 167.7 135.128 167.299 134.288C166.893 133.448 165.822 133.075 164.915 133.437C164.865 133.454 162.054 134.558 158.111 134.84C158.599 134.104 158.774 133.374 158.818 132.81C166.943 125.387 169.885 119.395 167.744 114.531C166.98 112.806 165.672 111.374 163.832 110.213C163.826 110.207 163.819 110.201 163.819 110.201C163.801 110.19 163.782 110.19 163.769 110.178C161.629 108.85 158.737 107.901 155.106 107.303C155.1 107.303 155.094 107.297 155.088 107.297C153.754 107.079 152.352 106.889 150.813 106.768C150.218 106.722 149.673 106.74 149.11 106.734C152.371 104.33 156.415 100.99 161.259 95.3661C161.879 94.6474 161.747 93.6008 160.965 93.0316C160.176 92.4566 159.037 92.5831 158.418 93.3018C153.842 98.6206 150.018 101.795 146.907 104.089C144.146 101.001 136.685 93.1408 127.102 86.9653C123.697 84.7746 120.749 82.9403 118.189 81.3418C107.573 74.735 103.999 72.5098 101.289 65.949C98.9918 60.3715 98.3909 55.5184 99.6741 52.9712C100.043 52.2237 100.55 51.7579 101.22 51.5394C105.595 50.1019 117.657 47.1292 135.064 50.5389C151.313 53.7244 171.881 58.5487 175.893 59.4974C176.707 61.6307 177.778 63.511 179.167 65.052C169.159 66.1445 161.228 67.49 152.221 69.0252L146.074 70.066C133.768 72.1303 118.634 65.5638 118.483 65.4948C117.576 65.1038 116.499 65.4545 116.067 66.2767C115.635 67.1047 116.017 68.0995 116.918 68.4962C117.482 68.7435 128.93 73.7115 140.635 73.7862C144.24 76.3393 156.74 84.8493 163.25 84.8493C163.807 84.8493 164.32 84.786 164.783 84.6538C173.978 81.9628 183.436 84.5273 183.53 84.5561C184.4 84.8091 185.326 84.4123 185.702 83.6475C186.609 81.8075 187.135 76.1841 187.392 72.366C190.747 74.7868 194.246 76.4543 197.92 76.4543C201.275 76.4543 204.48 75.0628 207.572 72.9755C207.478 74.9478 207.522 77.61 207.935 81.0946C208.267 83.9121 209.775 85.2346 210.983 85.8441C211.759 86.2408 212.604 86.4478 213.456 86.5225C211.096 88.5753 208.448 90.7546 205.381 93.1984C204.617 93.8021 204.536 94.8486 205.193 95.5444C205.85 96.2401 206.99 96.3091 207.747 95.7169C212.761 91.7206 216.729 88.3856 220.047 85.2346C220.284 85.0966 220.466 84.901 220.616 84.6825C226.275 79.2028 229.936 74.229 233.385 67.329C233.642 66.8977 234.274 65.742 234.962 64.0055C236.296 61.0787 237.641 57.8185 239.106 54.0579C245.121 38.6479 255.85 29.1258 270.997 25.7448L271.248 25.6873C273.413 25.2043 274.246 25.5321 274.684 25.8196C275.798 26.5556 276.518 28.6141 276.825 31.9376C278.177 46.5196 260.094 72.3718 251.124 82.6068C250.354 83.4808 249.584 84.5273 248.814 85.6486C248.808 85.6601 248.789 85.6658 248.783 85.6773C243.826 91.8644 235.751 97.3613 235.67 97.4188C234.869 97.9651 234.7 99.0059 235.288 99.7419C235.645 100.185 236.189 100.42 236.746 100.42C237.122 100.42 237.497 100.317 237.823 100.098C237.992 99.9834 240.014 98.5976 242.661 96.4586C241.284 99.1726 239.87 102.076 238.393 105.135C234.85 112.455 231.038 120.31 226.763 127.463V127.468C223.339 133.196 219.621 138.474 215.502 142.649C212.46 145.736 210.013 148.818 208.004 151.762C207.997 151.768 207.997 151.774 207.991 151.78C201.319 161.572 199.81 169.674 199.729 170.111C199.572 171.019 200.242 171.87 201.231 172.02C201.325 172.031 201.425 172.037 201.519 172.037C202.395 172.037 203.159 171.462 203.309 170.645C203.315 170.605 203.572 169.231 204.323 166.983C207.121 168.736 212.573 172.388 218.037 177.448C214.194 178.759 206.602 181.818 195.886 188.355C192.944 190.149 190.371 191.823 188.011 193.358C177.853 199.976 172.257 203.628 158.893 202.955C154.806 202.748 151.983 201.558 150.493 199.424C147.445 195.031 150.068 187.292 151.902 183.077C151.908 183.071 151.902 183.071 151.908 183.065L159.012 166.724C159.137 166.442 159.169 166.132 159.112 165.827ZM154.437 133.621C153.773 133.983 152.39 134.374 149.542 134.116C147.101 133.886 145.536 133.414 144.572 132.896L154.437 133.621ZM138.563 114.956C138.544 115.244 138.519 115.531 138.525 115.813C138.563 117.739 138.982 119.62 139.777 121.408C140.065 122.052 140.741 122.443 141.455 122.443C141.686 122.443 141.918 122.403 142.137 122.316C143.063 121.971 143.508 121 143.126 120.149C142.506 118.746 142.168 117.268 142.143 115.761C142.112 114.18 142.45 112.582 143.082 111.092C143.827 110.788 144.66 110.552 145.548 110.368C145.21 111.673 144.954 112.984 144.835 114.318C144.622 116.808 144.791 119.315 145.348 121.77C145.523 122.558 146.281 123.098 147.12 123.098C147.245 123.098 147.364 123.087 147.489 123.064C148.465 122.874 149.097 121.994 148.897 121.097C148.409 118.947 148.259 116.756 148.446 114.583C148.578 113.047 148.922 111.535 149.385 110.052C149.761 110.063 150.111 110.052 150.5 110.08C151.219 110.138 151.889 110.218 152.559 110.299C152.152 111.34 151.789 112.398 151.507 113.467C150.781 116.29 150.493 119.194 150.65 122.109C150.706 123.001 151.501 123.691 152.459 123.691C152.49 123.691 152.521 123.691 152.553 123.685C153.554 123.639 154.324 122.857 154.268 121.943C154.124 119.344 154.38 116.75 155.031 114.243C155.325 113.105 155.732 111.989 156.189 110.891C157.716 111.225 159.037 111.639 160.158 112.127C159.162 113.548 158.249 115.02 157.529 116.578C156.577 118.619 155.876 120.775 155.438 122.978C155.263 123.88 155.914 124.743 156.897 124.91C157.003 124.927 157.116 124.938 157.222 124.938C158.08 124.938 158.843 124.375 159 123.57C159.388 121.615 160.014 119.7 160.859 117.883C161.478 116.543 162.267 115.273 163.118 114.042C163.663 114.577 164.107 115.146 164.389 115.784C165.885 119.177 163.093 124.225 156.321 130.424L142.575 129.412C138.876 122.978 136.986 118.268 138.563 114.956ZM163.062 42.6614C163.356 41.8966 163.606 41.1319 163.826 40.3729C165.24 36.6756 167.256 33.4499 169.897 30.7416C183.605 16.6655 192.406 16.6541 195.191 17.1256C195.216 23.2206 192.431 24.1636 187.592 25.7966C183.524 27.1651 178.41 28.9016 174.06 34.4446C174.034 34.4734 174.009 34.5021 173.991 34.5366C172.119 36.9401 170.392 40.0451 168.952 44.1507C168.864 44.4152 168.77 44.7142 168.677 44.9844C168.67 45.0132 168.658 45.0361 168.652 45.0649C167.794 47.6294 166.93 50.6367 166.148 53.8049C164.677 53.4714 163.106 53.1149 161.46 52.7469C161.604 49.0957 162.142 45.7319 163.062 42.6614ZM165.378 28.5163C165.378 24.2153 169.572 19.23 176.319 15.5098C183.161 11.7262 190.665 10.329 195.153 11.8643C195.153 11.8815 195.153 11.8987 195.153 11.916V13.7618C190.747 13.25 181.007 14.3483 167.193 28.5221C166.517 29.2179 165.885 29.9596 165.278 30.7128C165.315 29.9711 165.347 29.2351 165.378 28.5163ZM172.188 10.3693C179.674 5.35526 187.548 5.16548 191.698 7.09749C192.193 7.32749 192.718 7.63803 193.2 8.02328C187.267 7.38502 179.981 9.60451 174.454 12.6578C171.136 14.4863 168.42 16.5966 166.329 18.8218C167.143 15.5385 168.764 12.6693 172.188 10.3693ZM221.743 10.375C225.918 13.1523 227.708 16.0905 228.503 19.3623C226.356 17.0163 223.514 14.7853 220.003 12.8533C214.282 9.69078 206.783 7.37925 200.73 8.029C201.206 7.6495 201.719 7.34473 202.201 7.11473C206.345 5.18272 214.219 5.37248 221.743 10.375ZM226.731 28.5221C212.923 14.3426 203.184 13.25 198.777 13.7618V11.916C198.777 11.8987 198.784 11.8873 198.784 11.8643C203.334 10.3175 211.046 11.7895 218.137 15.6996C224.966 19.4716 229.21 24.4511 229.21 28.7003C229.229 29.5858 229.266 30.5001 229.323 31.4316C228.528 30.4656 227.683 29.4939 226.731 28.5221ZM220.297 80.0308C219.402 74.6085 218.532 69.1518 217.737 63.7295C218.344 62.867 218.882 61.9297 219.352 60.9177C221.167 65.512 222.97 70.135 224.722 74.758C223.395 76.5578 221.937 78.2885 220.297 80.0308ZM211.528 69.9108C212.567 69.0195 213.587 68.0823 214.595 67.122C215.383 72.3373 216.21 77.564 217.086 82.7506C215.721 83.1646 213.837 83.4981 212.729 82.9346C212.485 82.8081 211.734 82.4286 211.534 80.7323C210.77 74.298 211.34 70.8193 211.528 69.9108ZM221.943 50.4527C222.244 47.7559 222.369 44.9096 222.413 42.0289C222.851 42.5866 223.289 43.1732 223.721 43.7884C224.084 46.3702 223.157 48.6644 221.943 50.4527ZM231.464 41.5861C231.476 41.6149 231.501 41.6322 231.514 41.6609C233.504 46.3587 233.936 50.7517 233.642 54.4662C232.596 51.4359 230.775 48.2619 228.303 44.3001C227.877 43.6101 227.445 42.9547 227.007 42.3222C227.007 42.3222 227.001 42.3164 226.994 42.3107C220.51 32.9324 213.299 29.6721 207.941 27.2513C202.383 24.7443 199.172 23.2895 198.809 17.1198C201.694 16.654 210.464 16.8093 224.034 30.7416C227.576 34.3699 229.911 37.9809 231.407 41.4251C231.432 41.4826 231.445 41.5344 231.464 41.5861ZM172.257 45.5939C172.307 45.4559 172.357 45.3064 172.401 45.1684C172.733 44.2312 173.077 43.3687 173.434 42.5407C173.477 45.0189 173.596 47.4626 173.828 49.8087C172.839 47.9744 172.401 46.2839 172.257 45.5939ZM170.542 51.2289C171.355 52.7297 172.482 54.3052 174.066 55.6335C172.864 55.3517 171.362 55.0009 169.659 54.6099C169.947 53.4599 170.241 52.3272 170.542 51.2289ZM182.378 63.4017C178.835 59.946 177.583 53.3622 177.189 46.3069C177.208 46.3184 177.22 46.3414 177.239 46.3529C177.871 46.8187 179.205 47.7674 180.976 47.4569C182.084 47.2557 182.704 46.6231 183.154 46.1689C183.367 45.9504 183.536 45.7779 183.749 45.6514C184.275 45.3236 184.863 45.2489 185.652 45.2259C185.652 45.2834 185.633 45.3351 185.633 45.3926C185.633 47.0257 187.085 48.3597 188.863 48.3597C189.827 48.3597 190.69 47.9571 191.285 47.3361C191.992 47.9169 192.431 48.3999 192.481 48.4459C192.837 48.8427 193.351 49.0497 193.87 49.0497C194.277 49.0497 194.69 48.9232 195.028 48.6644C195.798 48.0779 195.904 47.0314 195.266 46.3242C194.828 45.8354 193.132 44.1047 190.697 42.9547C190.421 42.7822 190.115 42.6556 189.795 42.5636C188.731 42.1669 187.555 41.8909 186.29 41.8909C186.278 41.8909 186.259 41.8909 186.246 41.8909C185.533 41.8967 184.713 41.9139 183.862 42.0807C183.843 42.0864 183.83 42.0806 183.818 42.0864C182.528 42.4716 181.834 41.6896 181.646 41.4366C181.107 40.6776 180.006 40.4476 179.161 40.9364C178.316 41.4251 178.065 42.4544 178.591 43.2307C178.641 43.2997 178.704 43.3744 178.76 43.4434C178.166 43.3169 177.533 43.4894 177.089 43.9091C177.039 42.2014 177.02 40.4879 177.026 38.8031C177.033 38.3201 177.058 37.8371 177.102 37.3599C177.684 37.5784 178.36 37.5094 178.885 37.1414C179.831 36.4686 181.377 35.6291 183.361 35.4221C188.662 34.8701 192.456 39.3379 192.612 39.5334C192.963 39.9589 193.501 40.1831 194.052 40.1831C194.352 40.1831 194.659 40.1141 194.941 39.9704C195.723 39.5621 196.061 38.6881 195.735 37.9119C193.839 33.4671 189.845 30.5001 185.696 30.0401C186.753 29.6203 187.811 29.2638 188.844 28.9188C192.13 27.8033 195.304 26.7223 197.156 23.8588C199.209 27.0098 202.614 28.5566 206.339 30.2356C207.878 30.9314 209.512 31.6731 211.215 32.5931C207.866 33.3004 204.123 35.7613 201.037 39.5736C200.505 40.2349 200.574 41.1606 201.212 41.7414C201.557 42.0634 202.026 42.2301 202.489 42.2301C202.865 42.2301 203.247 42.1209 203.566 41.9024C205.293 40.7236 207.134 39.7174 209.024 38.9124C211.734 37.7566 213.092 37.2219 214.282 37.6071C214.952 37.8256 215.552 38.3029 216.066 39.0274C216.541 39.7001 217.468 39.9589 218.269 39.6599C218.469 39.5794 218.651 39.4701 218.807 39.3379C218.807 40.8559 218.795 42.3854 218.751 43.9091C218.3 43.4894 217.674 43.3169 217.08 43.4434C217.136 43.3687 217.199 43.2997 217.242 43.2307C217.774 42.4544 217.524 41.4251 216.673 40.9364C215.828 40.4419 214.714 40.6777 214.175 41.4597C214.15 41.4999 213.443 42.5234 212.016 42.0864C212.003 42.0806 211.991 42.0864 211.972 42.0807C211.121 41.9139 210.307 41.8967 209.587 41.8909C209.575 41.8909 209.562 41.8909 209.543 41.8909C204.843 41.8909 201.25 45.5767 200.574 46.3184C199.935 47.0257 200.036 48.0722 200.799 48.6644C201.137 48.9232 201.55 49.0497 201.963 49.0497C202.477 49.0497 202.996 48.8427 203.353 48.4517C203.447 48.3424 205.356 46.3069 207.791 45.5307C207.828 47.2269 209.331 48.5954 211.183 48.5954C212.373 48.5954 213.418 48.0319 214.025 47.1867C214.275 47.3017 214.545 47.3994 214.864 47.4569C216.623 47.7789 217.962 46.8186 218.601 46.3586C218.619 46.3414 218.626 46.3184 218.644 46.3069C218.256 53.3622 217.005 59.9517 213.462 63.4017C208.623 68.111 203.04 73.1308 197.92 73.1308C192.8 73.1308 187.217 68.111 182.378 63.4017ZM179.856 80.4793C177.89 76.7533 176.507 72.8375 175.712 68.8067C177.796 68.548 179.975 68.3065 182.259 68.0765C182.816 68.5882 183.373 69.0942 183.937 69.5887C183.736 73.378 183.311 78.4265 182.785 80.9565C182.021 80.8013 181.014 80.6345 179.856 80.4793ZM166.786 80.7496C166.329 78.1965 166.348 74.5453 166.843 70.0085C168.57 69.7498 170.329 69.5025 172.119 69.261C172.851 72.9985 174.047 76.6383 175.706 80.14C173.027 80.0308 169.972 80.1458 166.786 80.7496ZM159.832 71.124C160.934 75.7873 162.217 79.4903 162.999 81.5603C160.014 81.5373 152.822 77.7883 146.156 73.4068C146.343 73.378 146.537 73.3665 146.725 73.3378L152.878 72.297C155.25 71.8888 157.548 71.4977 159.832 71.124ZM227.176 71.1412C225.267 66.156 223.326 61.1649 221.361 56.2487C222.876 54.9837 225.599 52.3099 226.819 48.6702C231.138 55.9784 232.021 59.7045 230.024 66.041C229.104 67.8638 228.165 69.5485 227.176 71.1412ZM260.475 135.323C264.344 137.623 268.475 137.658 272.85 137.686C277.037 137.721 281.375 137.755 286.195 139.722C288.511 140.671 290.651 142.12 292.567 143.741C290.739 142.867 288.855 142.131 286.902 141.585C279.848 139.613 275.034 140.671 270.791 141.608C267.542 142.327 264.725 142.942 261.32 142.085C253.002 139.992 249.04 131.12 240.815 108.304C241.115 107.7 241.41 107.09 241.697 106.487C242.58 104.675 243.425 102.927 244.264 101.225C244.808 116.227 255.7 132.482 260.475 135.323ZM275.435 148.054C272.155 148.813 268.756 149.606 263.999 149.261C255.612 148.669 245.453 139.981 241.491 132.299C239.469 127.94 237.754 122.955 236.339 117.354C237.116 115.83 237.873 114.307 238.624 112.794C245.929 132.868 250.429 142.792 260.363 145.294C264.675 146.38 268.212 145.598 271.636 144.845C275.617 143.96 279.735 143.051 285.85 144.77C288.817 145.598 291.647 146.881 294.326 148.588C285.487 145.731 280.568 146.863 275.435 148.054ZM273.238 158.335C278.239 158.743 283.409 159.168 289.518 161.957C295.133 164.51 300.072 168.403 304.309 173.532C301.843 171.79 299.233 170.3 296.485 169.081C287.96 165.281 280.568 165.068 273.42 164.861C266.178 164.648 259.342 164.447 252.113 160.261C245.922 156.679 242.949 152.263 238.023 144.937C234.562 139.797 232.296 134.978 230.28 128.475C231.526 126.376 232.728 124.225 233.892 122.052C234.825 125.226 235.864 128.21 237.009 130.976C237.015 130.988 237.015 130.999 237.015 131.01C237.347 131.942 237.792 132.902 238.292 133.868C243.275 144.483 250.029 151.665 258.472 155.281C263.78 157.558 268.587 157.955 273.238 158.335ZM270.847 173.4C270.834 173.405 270.816 173.394 270.797 173.4C243.888 178.718 223.946 148.226 220.435 142.447C223.064 139.452 225.517 136.076 227.827 132.477C229.698 137.796 231.87 142.12 234.944 146.691C239.964 154.154 243.281 159.082 250.185 163.078C258.247 167.742 265.902 167.966 273.307 168.184C280.073 168.38 287.071 168.587 294.914 172.071C298.125 173.503 301.142 175.332 303.946 177.545C298.782 175.297 293.468 173.785 288.048 173.043C281.375 172.123 275.804 172.554 270.847 173.4ZM245.384 176.884C233.466 175.441 222.131 167.299 211.665 152.7C213.399 150.244 215.458 147.697 217.931 145.156C222.112 151.866 236.133 171.991 256.332 176.464C252.845 177.068 249.29 177.356 245.384 176.884ZM208.598 250.785C210.013 247.492 211.002 244.226 211.346 243.032C218.169 234.729 221.924 225.656 222.97 222.884C223.007 222.879 223.038 222.879 223.07 222.873C226.093 222.338 228.522 220.797 230.274 218.307C233.348 213.932 233.83 207.164 233.466 201.121C236.803 213.489 235.62 232.682 208.598 250.785ZM187.392 262.235C179.831 265.569 172.676 268.563 166.367 271.204C158.956 274.303 152.246 277.115 146.199 279.904C147.007 277.432 149.166 273.501 154.9 268.913C154.906 268.906 154.912 268.897 154.919 268.891C162.736 264.235 168.846 258.886 171.049 256.856C173.634 257.612 176.544 258.133 179.824 258.374C180.682 258.436 181.514 258.467 182.341 258.467C191.717 258.467 199.341 254.527 205.369 249.245C204.542 251.219 203.566 253.181 202.495 254.596C198.045 257.186 193.05 259.74 187.392 262.235ZM114.872 302.039C111.079 301.7 108.205 300.392 106.409 298.046C103.924 294.793 103.542 289.612 105.389 284.186C107.686 277.447 113.269 272.738 115.692 270.944C119.992 274.678 125.131 276.625 131.002 276.694C131.108 276.696 131.208 276.696 131.315 276.696C136.078 276.696 140.917 275.445 145.536 273.587C142.876 277.326 142.237 280.272 142.125 281.831C130.244 287.61 121.219 293.563 114.872 302.039ZM105.126 325.942C104.031 331.955 104.606 337.576 106.697 342.59C102.253 343.704 98.6663 343.31 96.0187 341.394C89.4339 336.638 89.4715 324 89.7218 319.392C90.2288 319.436 90.742 319.499 91.2365 319.499C101.132 319.499 107.724 310.853 110.528 304.641C111.235 304.853 111.98 305.019 112.75 305.152C109.194 310.813 106.659 317.545 105.126 325.942ZM84.9084 282.897C86.6485 283.594 88.5889 283.955 90.6544 283.955C92.9203 283.955 95.3364 283.527 97.8025 282.658C99.7554 281.97 101.539 281.168 103.123 280.354C102.685 281.261 102.272 282.201 101.934 283.192C99.7242 289.693 100.275 295.802 103.448 299.957C104.462 301.285 105.739 302.378 107.229 303.241C105.395 307.232 98.9668 318.84 87.312 315.614C84.3576 314.793 82.3171 313.175 81.0715 310.665C77.0092 302.454 82.7802 287.766 84.9084 282.897ZM123.059 243.682C126.802 246.363 130.776 247.421 134.707 247.421C143.664 247.421 152.334 242.019 157.26 238.285C156.953 241.534 157.278 245.813 159.982 249.665C161.71 252.126 164.189 254.073 167.362 255.516C161.898 260.376 145.918 273.37 131.327 273.37C131.233 273.37 131.14 273.37 131.046 273.368C125.656 273.306 120.981 271.37 117.156 267.616C114.096 264.612 112.718 261.343 113.075 257.911C113.651 252.347 118.502 247.416 121.575 244.811C122.082 244.434 122.577 244.057 123.059 243.682ZM124.361 217.244C127.071 220.843 130.451 222.942 134.451 223.448C135.095 223.528 135.734 223.569 136.379 223.569C142.175 223.569 147.758 220.429 151.307 217.911C150.975 221.591 151.157 226.754 153.867 230.745C154.75 232.044 155.864 233.096 157.141 233.965C152.089 238.157 136.441 249.563 124.874 240.773C114.928 233.223 121.181 221.832 124.361 217.244ZM150.418 214.282C147.213 216.761 140.866 220.889 134.939 220.153C131.74 219.745 128.999 217.865 126.777 214.587C131.089 211.246 135.753 207.9 140.785 204.542C141.893 207.342 144.516 211.793 150.418 214.282ZM222.381 219.607C218.181 220.349 214.476 219.687 211.384 217.635C204.868 213.299 202.527 203.99 201.92 200.931C214.664 193.157 224.578 190.845 228.284 190.207C229.317 194.945 232.008 209.711 227.226 216.502C226.018 218.227 224.434 219.245 222.381 219.607ZM155.257 215.68C156.196 215.846 157.184 215.973 158.242 216.042C171.33 216.904 181.884 213.569 197.976 203.415C197.469 209.429 195.322 222.315 186.228 229.181C180.494 233.51 172.795 234.764 163.331 232.93C160.458 232.372 158.374 231.084 156.947 228.991C154.092 224.805 154.743 218.583 155.257 215.68ZM180.112 255.059C171.712 254.441 165.966 252.026 163.043 247.882C160.02 243.598 160.715 238.396 161.334 235.833C161.754 235.948 162.142 236.098 162.586 236.184C165.66 236.782 168.576 237.081 171.33 237.081C178.065 237.081 183.824 235.299 188.531 231.751C196.293 225.892 199.491 216.502 200.818 209.464C202.489 213.334 205.124 217.577 209.249 220.32C212.122 222.235 215.377 223.201 218.964 223.224C215.709 230.946 203.084 256.716 180.112 255.059ZM147.445 201.213C149.592 204.306 153.373 206.008 158.693 206.273C159.77 206.33 160.809 206.353 161.804 206.353C174.322 206.353 180.744 202.173 190.108 196.072C192.437 194.554 194.978 192.898 197.889 191.127C210.013 183.732 218.044 180.926 220.76 180.104C222.857 182.243 224.885 184.583 226.7 187.09C221.83 188.022 211.096 190.909 197.563 199.631C181.289 210.119 171.055 213.535 158.499 212.724C146.706 211.948 144.128 203.852 143.689 201.966L145.774 197.165C146.068 198.614 146.594 199.988 147.445 201.213ZM82.4297 265.232C82.436 265.23 82.436 265.228 82.436 265.226C84.8396 260.629 87.675 255.904 91.0487 251.077C94.3161 252.5 97.5146 253.152 100.588 253.152C104.606 253.152 108.418 252.126 111.942 250.574C110.684 252.702 109.733 255.064 109.47 257.582C109.069 261.469 110.327 265.133 113.213 268.496C111.936 269.45 110.065 270.999 108.155 273.081C107.648 273.503 103.054 277.243 96.5069 279.551C91.0675 281.467 86.2542 280.842 83.2935 277.837C80.264 274.765 79.926 269.818 82.4297 265.232ZM74.5555 351.993C82.0416 350.385 86.7487 345.463 88.6765 337.339C89.8345 339.969 91.4619 342.334 93.7715 344.006C97.4958 346.698 102.347 347.248 108.199 345.658C108.343 345.913 108.512 346.157 108.662 346.408C111.254 351.259 117.044 364.095 110.127 371.288C107.724 373.791 103.73 374.627 98.8854 373.647C90.0723 371.862 79.1811 363.909 74.5555 351.993ZM123.791 359.263C127.947 361.226 132.742 362.689 137.862 363.547C137.868 363.549 137.875 363.554 137.875 363.556C137.95 363.578 145.298 365.749 144.603 370.088C144.234 372.407 143.051 374.057 140.979 375.128C135.897 377.758 125.331 376.747 113.632 372.587C117.97 367.274 117.494 360.242 115.811 354.337C118.139 356.186 120.793 357.844 123.791 359.263ZM162.492 362.813C167.143 362.383 172.532 364.674 176.05 368.221C176.069 368.243 176.075 368.27 176.094 368.29C176.119 368.31 176.15 368.317 176.169 368.336C177.402 369.607 178.397 371.033 179.036 372.545C181.151 377.62 178.66 382.603 172.013 386.576C172.006 386.581 172 386.589 171.994 386.594C162.204 391.494 152.052 394.086 141.561 394.386C142.826 393.166 143.583 391.703 143.796 390.199C144.553 384.749 142.237 381.474 138.695 379.41C140.147 379.104 141.524 378.665 142.757 378.026C145.824 376.439 147.658 373.929 148.19 370.571C148.603 367.966 147.539 365.931 146.012 364.379C151.438 364.578 157.034 364.095 162.492 362.813ZM185.207 351.093L191.028 345.734C191.823 344.999 192.568 344.317 193.332 343.611C194.152 344.815 195.103 346.676 194.915 348.762C194.715 350.964 193.263 353.024 190.609 354.891C186.178 357.583 181.727 361.155 177.465 364.822C175.268 362.938 172.632 361.447 169.866 360.514C175.418 358.361 180.657 355.286 185.207 351.093ZM202.977 334.68C210.013 328.148 214.607 326.636 218.857 329.467C223.746 332.731 220.422 339.244 216.56 344.857C214.77 347.432 212.961 349.911 211.127 352.286C207.065 349.836 202.602 349.844 197.995 351.37C198.277 350.603 198.458 349.811 198.527 349C198.821 345.594 197.131 342.763 195.942 341.208C198.471 338.876 200.812 336.707 202.952 334.694C202.965 334.687 202.971 334.685 202.977 334.68ZM235.601 253.148C241.347 241.232 248.72 218.365 253.271 203.518C252.075 215.22 248.852 233.436 240.345 255.738C228.196 287.574 228.346 305.915 229.054 312.645C226.775 312.239 224.29 312.598 221.849 313.529C222.794 311.636 223.345 309.855 223.495 308.086C224.378 297.283 227.332 270.299 235.601 253.148ZM258.147 226.593C260.982 230.106 263.43 233.142 263.079 238.303C262.835 241.822 260.1 244.507 255.95 248.567C251.043 253.37 244.652 259.671 238.981 270.687C240.308 266.385 241.866 261.795 243.757 256.838C248.977 243.17 252.238 231.101 254.272 221.062C255.393 223.137 256.801 224.926 258.147 226.593ZM267.379 259.554C267.386 261.252 265.858 262.763 262.397 266.017C260.081 268.19 257.221 270.886 253.859 274.713C252.607 274.895 251.318 275.226 250.016 275.716C245.209 277.527 239.907 281.698 235.826 288.429C242.242 266.909 251.863 257.429 258.585 250.844C259.749 249.707 260.838 248.636 261.827 247.582C263.53 248.206 267.336 250.594 267.379 259.554ZM276.349 264.044C278.051 265.554 278.358 267.48 278.383 268.567C275.51 270.212 272.862 273.408 267.273 280.155L266.897 280.609C266.159 279.496 265.189 278.412 263.974 277.365C262.416 276.015 260.544 275.175 258.491 274.796C260.976 272.117 263.154 270.059 264.982 268.341C267.386 266.086 269.226 264.334 270.209 262.503C272.449 262.09 274.74 262.62 276.349 264.044ZM232.784 311.964C233.83 293.529 242.805 282.033 251.393 278.794C255.349 277.303 259.036 277.665 261.496 279.787C264.106 282.042 265.251 284.29 264.988 286.667C264.268 293.25 253.064 299.74 246.717 303.348C240.458 306.698 235.595 309.953 232.784 311.964ZM287.465 269.902C293.036 269.414 295.665 271.319 296.698 272.412C296.253 273.084 295.84 273.796 295.427 274.543C293.143 278.611 289.7 284.756 272.75 292.982C270.747 293.647 269.107 294.152 267.993 294.483C266.428 294.944 264.894 295.45 263.392 295.978C266.253 293.204 268.237 290.221 268.594 286.999C268.694 286.062 268.637 285.137 268.45 284.226L270.158 282.17C279.773 270.552 279.773 270.551 287.465 269.902ZM302.619 271.698C307.138 269.747 311.739 270.84 314.105 271.669C306.951 277.527 298.488 282.255 290.676 285.882C295.365 281.9 297.217 278.609 298.645 276.066C299.865 273.882 300.604 272.565 302.619 271.698ZM334.373 244.847C334.185 244.05 333.434 243.496 332.495 243.547C331.612 243.596 330.892 244.23 330.805 245.042C329.772 254.45 324.314 262.485 316.978 269.186C315.038 268.303 308.146 265.645 301.079 268.684C300.278 269.031 299.608 269.425 299.026 269.862C297.236 268.186 293.637 266.046 287.134 266.589C284.993 266.769 283.322 266.953 281.882 267.268C281.638 265.609 280.912 263.465 278.865 261.652C276.756 259.782 273.889 258.866 270.978 259.024C270.784 249.864 266.879 246.294 264.093 244.92C265.57 242.935 266.528 240.895 266.691 238.509C267.123 232.136 264.043 228.312 261.057 224.615C258.172 221.039 255.455 217.646 255.919 211.804C258.022 197.843 257.54 189.592 257.502 188.982C257.446 188.166 256.757 187.51 255.875 187.43C255.024 187.338 254.172 187.873 253.941 188.66C253.815 189.109 240.928 233.878 232.29 251.8C223.796 269.425 220.785 296.86 219.878 307.838C219.627 310.906 217.825 314.188 214.157 318.494C213.249 319.363 212.404 320.29 211.665 321.27C206.608 326.685 199.053 333.64 188.468 343.383L182.641 348.744C167.124 363.055 141.38 363.831 125.45 356.303C119.166 353.337 114.515 349.257 111.629 344.392C111.442 344.055 111.279 343.769 111.141 343.532C108.437 338.529 107.555 332.744 108.7 326.492C110.359 317.401 113.194 310.392 117.338 304.607C117.363 304.567 117.394 304.536 117.413 304.496C126.858 291.394 143.082 284.598 167.863 274.23C174.191 271.585 181.364 268.583 188.957 265.234C249.353 238.607 240.377 204.973 233.704 191.748C232.978 190.305 232.146 188.919 231.276 187.562C231.226 187.476 231.176 187.389 231.113 187.315C223.032 174.906 209.731 166.247 205.55 163.728C206.489 161.457 207.803 158.76 209.594 155.839C220.41 170.456 232.277 178.655 244.908 180.179C252.05 181.041 257.859 179.684 264.012 178.253C270.822 176.654 277.882 175.015 287.515 176.332C296.128 177.517 304.491 180.771 312.365 186.009C312.421 186.05 312.49 186.061 312.546 186.09C312.603 186.119 312.653 186.147 312.709 186.17C312.941 186.262 313.185 186.326 313.429 186.326C313.623 186.326 313.817 186.297 313.999 186.239C314.067 186.216 314.124 186.176 314.186 186.153C314.286 186.107 314.393 186.073 314.487 186.015C314.499 186.004 314.506 185.992 314.518 185.981C314.537 185.969 314.556 185.969 314.568 185.958C314.731 185.837 314.862 185.693 314.969 185.538C314.988 185.509 314.994 185.475 315.013 185.44C315.094 185.296 315.156 185.147 315.194 184.986C315.213 184.917 315.207 184.854 315.213 184.785C315.219 184.652 315.219 184.526 315.2 184.394C315.182 184.319 315.163 184.25 315.138 184.175C315.119 184.112 315.113 184.049 315.088 183.991C309.292 171.991 301.23 163.579 291.127 158.973C284.405 155.914 278.896 155.46 273.564 155.023C269.019 154.649 264.738 154.298 260.006 152.268C259.28 151.958 258.573 151.613 257.878 151.245C259.831 151.964 261.796 152.441 263.724 152.579C269.069 152.953 272.925 152.067 276.324 151.279C282.702 149.802 288.21 148.525 302.744 155.77C302.763 155.776 302.782 155.776 302.801 155.782C303.051 155.902 303.326 155.971 303.608 155.971C303.827 155.971 304.04 155.931 304.247 155.856C304.322 155.833 304.378 155.787 304.447 155.753C304.553 155.701 304.66 155.667 304.76 155.592C304.779 155.575 304.785 155.552 304.81 155.54C304.829 155.523 304.854 155.511 304.879 155.494C305.004 155.385 305.098 155.253 305.185 155.115C305.192 155.097 305.211 155.086 305.217 155.074C305.317 154.896 305.367 154.706 305.398 154.517C305.405 154.453 305.398 154.396 305.398 154.333C305.398 154.2 305.386 154.068 305.354 153.93C305.336 153.861 305.311 153.792 305.286 153.723C305.254 153.666 305.248 153.602 305.217 153.545C304.929 153.033 298.025 140.912 287.666 136.68C282.158 134.432 277.225 134.397 272.875 134.363C268.875 134.334 265.426 134.305 262.447 132.534C257.965 129.872 241.654 105.59 250.21 90.0186C251.481 87.9141 252.72 86.0856 253.941 84.6883C261.314 76.2818 281.995 48.4919 280.436 31.6559C280.017 27.1364 278.896 24.5028 276.793 23.1228C274.671 21.7198 272.124 22.0648 270.39 22.4558L270.146 22.5133C251.643 26.6361 242.06 38.9124 237.116 49.6304C236.872 46.7842 236.196 43.7251 234.881 40.5511C234.869 40.5051 234.875 40.4591 234.856 40.4131C232.947 35.7441 232.872 31.3856 232.803 27.1593C232.684 20.1213 232.578 13.4743 223.865 7.67828C216.36 2.68726 206.771 1.24395 200.555 4.15347C199.053 4.86072 197.857 5.78652 196.969 6.87327C196.067 5.77502 194.865 4.8435 193.338 4.1305C187.098 1.22099 177.527 2.67573 170.06 7.684C162.355 12.8418 162.079 20.0408 161.791 27.6596C161.647 31.4776 161.478 35.3933 160.395 39.2861C160.095 40.0681 159.845 40.8846 159.594 41.7011C159.544 41.8219 159.513 41.9427 159.463 42.0634C159.444 42.1094 159.45 42.1496 159.438 42.1899C158.574 45.1971 158.061 48.4574 157.879 51.9419C150.863 50.3837 142.932 48.6817 135.822 47.2844C117.507 43.6907 104.669 46.8762 99.9995 48.4057C98.4159 48.9232 97.1704 50.0214 96.388 51.5739C94.6479 55.0182 95.1924 60.5382 97.9027 67.1277C101.02 74.6718 105.451 77.4318 116.155 84.0961C118.702 85.6831 121.638 87.5116 125.024 89.6908C135.34 96.3321 143.326 105.285 144.885 107.085C140.084 108.033 136.923 110.586 135.534 112.984C132.529 118.159 135.847 124.887 139.615 131.384C139.633 132.028 139.821 133.035 140.647 134.064C141.686 135.352 143.414 136.283 145.78 136.864C145.799 141.591 147.495 145.092 149.46 149.037C151.451 153.033 153.917 157.984 155.457 165.93L140.322 200.73C89.1522 234.338 74.8372 267.558 68.0834 292.762C66.7627 297.707 65.561 305.092 65.248 313.682C65.1854 313.9 65.1791 314.119 65.2167 314.345C64.3779 341.518 72.515 380.39 113.632 393.538C122.533 396.383 131.227 397.805 139.702 397.805C166.348 397.802 190.834 383.704 212.83 355.767C212.861 355.74 212.898 355.727 212.923 355.698C212.986 355.629 213.017 355.543 213.067 355.465C214.995 352.999 216.911 350.445 218.807 347.765C218.826 347.74 218.857 347.731 218.876 347.707C219.126 347.355 219.421 346.935 219.727 346.49C219.74 346.478 219.746 346.467 219.752 346.454C237.704 320.618 249.14 311.572 272.969 304.365C342.854 283.23 334.748 246.403 334.373 244.847Z" fill="#C0FFD5"/>
<path d="M188.188 112.791C188.963 112.842 189.66 112.923 190.385 112.989C189.815 113.98 189.306 114.997 188.902 116.049C187.706 119.14 187.241 122.399 187.518 125.733C187.59 126.608 188.381 127.269 189.322 127.269C189.366 127.269 189.411 127.269 189.461 127.269C190.457 127.198 191.204 126.399 191.126 125.484C190.894 122.612 191.292 119.811 192.31 117.158C192.814 115.866 193.495 114.641 194.275 113.467C196.964 113.884 199.255 114.433 201.081 115.114C200.036 116.268 199.039 117.463 198.165 118.728C196.488 121.143 195.133 123.746 194.125 126.471C193.805 127.345 194.314 128.285 195.26 128.58C195.454 128.641 195.653 128.667 195.841 128.667C196.599 128.667 197.302 128.229 197.556 127.538C198.469 125.068 199.698 122.704 201.214 120.513C202.133 119.191 203.19 117.951 204.308 116.766C205.337 117.513 206.045 118.347 206.377 119.277C207.683 122.938 203.693 128.814 195.42 135.453L178.138 133.882C175.311 129.449 173.883 125.474 173.877 122.2C174.032 121.56 174.21 120.919 174.436 120.274C174.508 120.843 174.597 121.423 174.741 122.017C175.123 123.639 175.765 125.205 176.644 126.669C176.976 127.218 177.596 127.533 178.233 127.533C178.526 127.533 178.83 127.467 179.107 127.325C179.981 126.882 180.302 125.871 179.821 125.068C179.107 123.878 178.587 122.612 178.277 121.306C177.618 118.53 178.022 116.1 178.548 114.382C179.262 113.98 180.07 113.614 181.066 113.335C180.485 116.044 180.286 118.779 180.496 121.509C180.607 123.019 180.845 124.539 181.199 126.018C181.387 126.796 182.139 127.325 182.969 127.325C183.097 127.325 183.23 127.309 183.362 127.284C184.336 127.086 184.956 126.196 184.74 125.301C184.419 123.98 184.209 122.627 184.104 121.28C183.894 118.439 184.192 115.582 184.939 112.765C185.93 112.72 186.987 112.71 188.188 112.791ZM193.948 138.661C193.544 139.108 192.1 140.044 187.574 139.769C184.624 139.525 182.007 138.768 179.86 137.542C179.793 137.487 179.716 137.425 179.66 137.364L184.879 137.837L193.948 138.661ZM171.044 132.789C172.4 135.987 174.741 138.524 177.812 140.303C179.76 141.802 182.698 142.728 186.6 143.048C186.826 143.068 187.02 143.063 187.236 143.078C187.513 143.099 187.773 143.15 188.061 143.165C188.763 143.2 189.455 143.221 190.119 143.221C208.165 143.221 211.9 129.694 214.158 121.499C214.567 120.009 214.927 118.728 215.303 117.727C217.777 111.19 223.814 105.659 223.869 105.608C224.583 104.957 224.589 103.905 223.886 103.254C223.183 102.603 222.038 102.593 221.329 103.239C221.058 103.483 214.639 109.349 211.883 116.634C211.452 117.773 211.081 119.12 210.649 120.68C208.845 127.213 206.51 135.626 197.811 138.696C197.872 138.396 197.888 138.127 197.894 137.878C204.767 132.347 212.105 124.641 209.819 118.24C208.297 113.97 203.002 111.266 193.727 110.005C193.716 110.005 193.705 110.005 193.694 110C192.067 109.781 190.335 109.604 188.464 109.471C185.675 109.273 183.196 109.415 181.016 109.893C181.547 109.324 182.101 108.76 182.687 108.206C183.379 107.545 183.362 106.492 182.643 105.852C181.929 105.211 180.778 105.227 180.081 105.893C177.353 108.485 175.139 111.245 173.462 114.052C173.147 114.387 172.832 114.712 172.544 115.084C171.293 116.71 170.275 118.977 170.236 122.022C169.417 125.805 169.644 129.49 171.044 132.789Z" fill="#C0FFD5"/>
<path d="M246.275 289.27C249.058 285.549 252.077 283.55 254.86 283.55C255.131 283.55 255.391 283.57 255.657 283.607C257.446 283.86 258.514 284.902 258.636 285.264C259.502 288.927 256.586 290.92 249.895 295.077C247.026 296.865 243.631 298.975 239.983 301.718C241.155 297.55 243.337 293.193 246.275 289.27ZM251.927 297.834C258.705 293.619 263.6 290.574 262.169 284.557C261.793 282.951 259.698 280.942 256.557 280.374C253.919 279.908 248.683 280.173 243.291 287.385C238.932 293.204 236.098 299.955 235.509 305.907C235.439 306.592 235.843 307.246 236.513 307.55C236.767 307.665 237.038 307.721 237.31 307.721C237.754 307.721 238.199 307.57 238.54 307.279C243.458 303.097 248.152 300.179 251.927 297.834Z" fill="#C0FFD5"/>
<path d="M194.86 56.4259L195.031 56.5098C195.3 56.6381 195.59 56.6973 195.869 56.6973C196.524 56.6973 197.158 56.3766 197.48 55.8093C197.942 54.9953 197.598 53.9889 196.712 53.5646C196.702 53.5597 196.46 53.4364 196.444 53.4364C195.563 53.0269 194.516 53.3673 194.059 54.1813C193.603 54.9903 193.979 56.0017 194.86 56.4259Z" fill="#C0FFD5"/>
<path d="M197.949 67.1367C199.298 67.1367 200.419 66.7535 201.373 66.2358C201.443 66.206 201.503 66.1562 201.573 66.1164C202.879 65.3549 203.8 64.3396 204.331 63.6129C205.116 63.4338 205.712 62.8066 205.712 62.0302C205.712 61.1094 204.9 60.3628 203.903 60.3628C202.684 60.3628 202.462 60.0592 202.055 59.5118C201.698 59.019 201.031 58.1082 199.677 58.1082C199 58.1082 198.387 58.3422 197.916 58.7354C197.45 58.3422 196.838 58.1082 196.161 58.1082C194.806 58.1082 194.134 59.019 193.777 59.5118C193.387 60.0443 193.154 60.3628 191.935 60.3628C190.932 60.3628 190.125 61.1094 190.125 62.0302C190.125 62.8315 190.753 63.4686 191.577 63.6228C191.897 64.0608 192.336 64.6034 192.931 65.1309C194.389 66.4449 196.123 67.1367 197.949 67.1367Z" fill="#C0FFD5"/>
<path d="M200.019 56.6992C200.299 56.6992 200.591 56.6397 200.855 56.5108L201.033 56.4265C201.913 56.0002 202.285 54.9888 201.832 54.1807C201.379 53.3676 200.326 53.0255 199.446 53.437C199.436 53.437 199.187 53.5609 199.177 53.5659C198.292 53.9873 197.951 54.9937 198.416 55.8068C198.739 56.377 199.365 56.6992 200.019 56.6992Z" fill="#C0FFD5"/>
</svg>
