<svg width="400" height="401" viewBox="0 0 400 401" fill="none" xmlns="http://www.w3.org/2000/svg">
<path fill-rule="evenodd" clip-rule="evenodd" d="M194.79 119.577C195.898 119.37 196.923 119.213 197.929 118.977C199.073 118.709 199.282 117.998 198.405 117.179C193.347 112.443 187.995 108.071 182.138 104.337C180.532 103.315 178.873 102.341 177.406 101.142C171.637 96.43 165.042 92.8794 159.342 88.0327C155.004 84.343 150.195 81.1943 145.509 77.9307C141.961 75.4643 138.284 73.1812 134.64 70.8561C134.267 70.6154 133.728 70.6353 133.265 70.5381C133.195 71.1939 132.843 71.9999 133.101 72.479C134.661 75.3628 136.334 78.1847 138.036 80.9889C138.477 81.7176 139.073 82.4131 139.749 82.9254C142.639 85.1247 145.427 87.5226 148.56 89.3067C150.888 90.6316 153.349 91.9696 156.357 91.8195C159.908 91.6406 160.871 92.568 161.804 95.964C162.124 97.1255 162.375 98.3112 162.637 99.4881C163.291 102.438 164.756 104.807 166.921 107.007C171.176 111.332 176.248 114.024 181.955 115.762C185.258 116.766 188.535 117.853 191.835 118.868C192.816 119.171 193.833 119.354 194.79 119.577ZM226.489 119.851C226.514 119.942 226.54 120.032 226.564 120.123C229.609 119.626 232.734 119.405 235.675 118.555C239.172 117.541 242.566 115.952 244.688 112.794C246.609 109.937 248.234 106.881 249.895 103.86C250.893 102.052 251.785 100.175 252.591 98.2693C253.35 96.4675 254.636 95.5887 256.545 95.4297C258.26 95.2862 259.967 95.0433 261.679 94.8644C267.448 94.2727 272.301 91.506 276.227 87.5955C281.198 82.6361 283.483 75.9677 286.037 69.5687C286.219 69.1161 286.15 68.5376 286.112 68.0231C286.046 67.1862 285.557 66.738 284.76 67.1597C281.257 69.0189 277.712 70.8097 274.908 73.7376C269.854 79.0105 263.833 83.1528 257.891 87.2576C251.739 91.5104 246.235 96.4631 240.495 101.168C237.043 103.997 234.13 107.397 230.357 109.932C226.938 112.229 224.017 115.263 220.899 117.998C220.337 118.495 220.625 119.515 221.322 119.566C223.041 119.701 224.765 119.76 226.489 119.851ZM229.587 102.306C229.446 101.879 229.41 101.509 229.22 101.244C226.62 97.6201 223.325 94.8998 218.923 93.7891C215.073 92.8176 211.196 91.9255 207.305 91.124C205.108 90.6735 202.864 90.254 200.634 90.2142C197.524 90.159 194.346 90.148 191.309 90.7132C187.77 91.369 184.334 92.6144 180.888 93.7162C179.875 94.0408 179.766 95.0941 180.637 95.7146C183.034 97.4236 185.482 99.0554 187.928 100.692C190.802 102.615 194.229 104.037 196.458 106.525C200.232 110.74 205.025 113.428 209.392 116.762C210.452 117.572 211.218 117.391 212.125 116.669C217.655 112.257 223.199 107.863 228.722 103.441C229.096 103.143 229.326 102.654 229.587 102.306ZM199.139 83.4244C204.256 84.1575 209.458 84.1707 214.413 85.935C218.635 87.4409 222.906 88.8121 227.162 90.2231C228.193 90.5653 228.912 89.9735 229.151 89.1124C229.868 86.5179 229.247 83.9786 228.58 81.4703C227.047 75.7249 223.334 71.4346 218.976 67.6809C214.289 63.6423 208.783 61.8582 202.64 63.1565C193.297 65.1328 187.304 71.2955 183.149 79.4896C182.301 81.1589 181.856 83.0424 181.32 84.8575C181.003 85.935 181.622 86.4429 182.788 86.0057C188.065 84.0162 193.681 84.3694 199.139 83.4244ZM370.95 302.737C372.26 302.675 373.143 302.721 373.986 302.558C374.413 302.474 374.975 302.074 375.097 301.699C375.217 301.315 374.986 300.681 374.697 300.339C374.141 299.69 373.495 299.076 372.778 298.617C369.722 296.665 366.728 294.582 363.526 292.895C356.44 289.168 350.633 283.633 343.919 279.391C343.49 279.119 342.998 278.762 342.812 278.329C342.062 276.562 340.465 275.94 338.942 275.101C336.364 273.676 333.885 272.082 331.365 270.559C327.824 268.417 324.319 266.211 320.725 264.164C318.634 262.974 316.43 261.285 314.219 261.19C311.789 261.088 309.266 262.486 306.839 263.378C305.732 263.789 304.752 264.546 303.725 265.164C302.774 265.734 302.701 266.474 303.433 267.264C303.783 267.642 304.239 267.918 304.644 268.245C311.063 273.44 316.543 279.289 318.663 287.612C318.946 288.72 319.641 290.023 320.55 290.617C323.701 292.681 326.886 294.819 330.336 296.278C335.058 298.277 340.234 298.332 345.125 297.168C351.326 295.689 356.637 297.495 362.127 299.926C365.033 301.213 367.861 303.298 370.95 302.737ZM336.125 235.009C335.322 235.24 334.474 235.38 333.717 235.722C328.462 238.098 327.895 239.754 330.393 245.23C331.225 247.056 331.177 248.427 329.564 249.151C326.412 250.567 324.896 253.704 322.172 255.53C321.172 256.204 321.19 257.368 322.079 258.22C323.193 259.291 324.328 260.382 325.622 261.199C331.896 265.16 338.238 269.017 344.532 272.95C347.01 274.498 349.653 275.829 351.346 278.428C351.866 279.223 352.981 279.638 353.84 280.206C355.995 281.637 358.33 282.853 360.277 284.527C363.056 286.912 366.086 288.839 369.266 290.599C371.988 292.105 374.659 293.695 377.359 295.238C377.808 295.494 378.264 295.775 378.755 295.921C379.204 296.053 379.707 296.02 380.182 296.06C380.213 295.607 380.419 295.068 380.247 294.713C379.346 292.847 378.133 291.105 377.43 289.175C375.949 285.105 373.012 282.23 369.941 279.433C368.536 278.154 366.976 277.046 365.579 275.761C364.322 274.606 363.178 273.33 362.008 272.087C358.907 268.794 357.748 264.573 356.794 260.384C355.856 256.261 354.079 252.585 351.945 249.043C349.265 244.594 346.282 240.363 341.912 237.347C340.188 236.157 338.422 235.064 336.125 235.009ZM32.4173 321.15C32.8661 321.077 34.0856 320.998 35.2355 320.669C38.5662 319.721 41.838 318.558 45.1875 317.688C50.5143 316.303 54.4042 312.876 57.5749 308.727C60.2676 305.203 63.6284 302.573 67.1069 300.003C69.2231 298.44 71.6131 297.543 74.249 297.08C79.1743 296.212 84.0636 295.134 88.9606 294.099C90.4579 293.783 91.3636 292.825 91.5427 291.253C91.8157 288.85 92.5057 286.415 92.2955 284.057C91.8401 278.932 93.3139 274.566 96.2184 270.437C98.536 267.143 98.4037 267.074 94.8499 265.44C93.1185 264.643 91.4406 263.738 89.7092 262.947C87.9769 262.155 86.3812 262.336 84.9704 263.74C81.4142 267.277 77.851 270.806 74.2549 274.299C71.901 276.587 69.4867 278.808 67.0932 281.054C65.0781 282.944 63.0269 284.798 61.0421 286.72C59.8111 287.914 58.6882 289.217 57.4919 290.445C54.3584 293.655 50.4702 296.071 47.8052 299.787C46.8189 301.167 45.5281 302.357 44.2532 303.499C39.0959 308.109 33.8904 312.662 28.7133 317.253C28.332 317.591 28.0365 318.032 27.7243 318.443C26.9179 319.507 27.2611 320.446 28.5749 320.671C29.5949 320.843 30.6314 320.934 32.4173 321.15ZM18.9737 312.618C19.0828 313.76 19.0929 314.813 19.3136 315.817C19.4424 316.409 19.9055 316.922 20.2193 317.469C20.6473 317.222 21.133 317.039 21.4971 316.716C27.854 311.108 34.2447 305.537 40.5135 299.833C42.8086 297.744 44.7338 295.252 46.9632 293.083C49.4372 290.674 52.1514 288.508 54.616 286.088C59.9157 280.888 65.1637 275.633 70.3495 270.322C73.7216 266.869 76.9771 263.303 80.2255 259.739C81.9319 257.867 81.8836 257.811 80.7373 255.842C80.2153 254.945 79.5392 254.12 79.1433 253.17C76.9598 247.926 74.0699 242.646 79.4199 237.504C79.5746 237.356 79.3031 236.364 79.0957 236.311C76.8439 235.762 75.956 233.671 74.4355 232.315C73.6395 231.602 72.8986 231.317 71.7395 231.235C67.5745 230.95 64.3961 232.712 61.5097 235.388C59.085 237.636 57.3328 240.332 55.597 243.148C52.0607 248.891 49.8677 254.919 49.7353 261.682C49.6957 263.756 49.329 265.825 49.3058 267.896C49.2591 271.897 47.7782 275.291 45.2455 278.305C43.7984 280.031 42.2607 281.696 40.9847 283.542C39.6914 285.417 38.1857 286.978 36.4439 288.457C30.7447 293.291 25.8701 298.901 21.4727 304.943C19.7466 307.314 19.2693 309.959 18.9737 312.618ZM296.438 139.657C296.511 139.655 296.584 139.653 296.659 139.651C296.527 137.061 296.67 134.424 296.208 131.894C294.539 122.728 293.004 113.545 289.512 104.79C287.772 100.427 285.889 96.1937 283.448 92.2015C282.368 90.4372 281.819 90.3798 280.363 91.9454C275.751 96.9069 270.321 100.314 263.441 101.078C262.932 101.138 262.452 101.431 261.943 101.504C258.772 101.946 256.665 103.547 255.233 106.519C253.308 110.513 251.259 114.401 247.897 117.616C245.906 119.524 244.219 121.675 241.692 122.94C241.075 123.247 240.42 123.543 239.908 123.991C239.576 124.28 239.386 124.819 239.315 125.276C239.287 125.448 239.731 125.819 240.017 125.901C244.35 127.133 248.696 128.308 253.029 129.538C257.192 130.719 261.529 131.514 265.457 133.241C274.477 137.204 283.911 140.198 292.616 144.91C296.387 146.951 296.478 146.778 296.438 142.254C296.431 141.389 296.438 140.523 296.438 139.657ZM106.68 130.865C106.68 132.282 106.679 132.976 106.681 133.667C106.688 136.171 107.102 136.533 109.324 135.698C116.776 132.914 124.122 129.876 131.951 128.156C140.566 126.261 149.093 123.971 157.677 121.935C160.873 121.18 164.141 120.732 167.342 119.992C169.056 119.599 171.093 120.622 172.491 118.853C171.128 117.859 169.764 116.87 168.403 115.87C166.868 114.746 165.235 113.721 163.829 112.452C162.298 111.072 160.779 109.597 159.617 107.912C157.954 105.505 156.329 102.988 155.242 100.294C154.4 98.2097 153.1 97.3927 151.134 96.8915C147.393 95.9376 143.948 94.085 141.089 91.6671C136.777 88.0216 131.991 84.7029 129.523 79.2489C128.878 77.8225 127.872 77.902 126.629 79.1275C126.138 79.6111 125.606 80.0924 125.255 80.6709C122.741 84.8 120.196 88.9159 117.813 93.1223C116.712 95.0632 116.099 97.2756 115.016 99.2254C109.423 109.305 107.781 120.368 106.68 130.865ZM77.0289 342.97C78.2323 345.622 76.6113 348.177 78.3653 350.246C79.77 348.771 81.1644 347.285 82.5847 345.825C83.1861 345.207 83.9184 344.701 84.4648 344.043C85.7744 342.465 86.9793 340.797 88.2839 339.212C91.8981 334.82 95.3133 330.23 99.2466 326.142C102.394 322.868 105.081 319.346 107.584 315.603C108.917 313.612 110.495 311.755 112.138 310.001C115.793 306.1 119.707 302.43 123.239 298.424C126.544 294.673 129.587 290.681 132.569 286.667C134.748 283.732 137.139 281.056 139.856 278.611C141.508 277.123 142.908 275.332 144.288 273.573C145.055 272.594 144.702 271.744 143.535 271.082C136.602 267.152 129.078 266.511 121.383 267.425C117.062 267.94 112.804 268.395 108.493 267.509C106.648 267.132 105.028 267.721 103.848 269.181C100.887 272.842 98.5464 276.704 98.0854 281.634C97.5194 287.662 97.4355 293.679 97.547 299.712C97.5869 301.829 97.0724 303.753 96.2936 305.729C94.7946 309.529 91.9049 312.324 89.5484 315.488C87.9163 317.683 85.5436 319.339 83.9686 321.565C82.3944 323.789 81.3881 326.418 80.1677 328.887C79.6368 329.956 78.9625 331.027 78.7492 332.168C78.0568 335.882 77.5485 339.627 77.0289 342.97ZM82.2198 357.594C85.1364 356.896 87.9077 356.775 90.1078 355.594C94.5093 353.231 99.0027 350.749 102.719 347.483C108.159 342.696 113.165 337.412 118.919 332.954C123.002 329.788 126.888 326.31 132.085 324.946C132.901 324.729 133.646 324.221 134.401 323.806C136.829 322.477 139.2 321.037 141.676 319.81C145.991 317.67 150.503 315.89 154.68 313.521C158.486 311.362 162.753 309.251 162.353 303.638C162.296 302.852 162.894 302.015 163.201 301.209C164.686 297.32 166.42 293.576 168.919 290.197C170.478 288.091 170.293 287.695 168.011 286.126C165.872 284.657 163.779 283.116 161.599 281.707C158.545 279.735 155.433 277.852 152.335 275.944C151.348 275.337 150.39 275.324 149.517 276.205C146.841 278.907 143.972 281.444 141.523 284.337C137.409 289.195 133.71 294.408 129.558 299.23C125.84 303.547 121.768 307.562 117.808 311.666C116.127 313.408 114.486 315.109 113.228 317.251C111.748 319.768 109.882 322.088 107.999 324.338C104.12 328.98 100.141 333.539 96.1595 338.09C92.2973 342.509 89.1974 347.55 84.8667 351.595C83.6367 352.745 82.8155 354.364 81.95 355.852C81.74 356.216 82.0969 356.908 82.2198 357.594ZM203.834 330.879C203.834 323.963 203.843 317.043 203.824 310.125C203.82 309.089 203.667 308.054 203.6 307.021C203.466 304.945 202.673 303.386 200.488 302.805C199.653 302.58 198.869 302.187 198.046 301.915C191.261 299.683 184.962 296.437 178.872 292.756C178.28 292.399 177.731 291.878 177.089 291.716C176.505 291.571 175.583 291.566 175.229 291.917C174.015 293.125 172.669 294.366 171.953 295.868C170.471 298.983 169.311 302.256 168.134 305.504C167.792 306.449 167.721 307.535 167.739 308.555C167.798 312.185 167.843 315.82 168.085 319.443C168.694 328.536 171.617 336.622 178.38 343.111C182.866 347.419 187.219 351.842 190.485 357.252C192.474 360.544 194.59 363.638 194.411 367.725C194.367 368.712 194.909 369.719 195.123 370.726C195.586 372.92 196.007 375.124 196.458 377.321C196.626 378.147 196.649 379.061 197.043 379.763C199.25 383.7 201.879 387.333 205.273 390.355C205.487 390.548 205.938 390.623 206.214 390.539C206.431 390.477 206.69 390.079 206.688 389.834C206.672 388.803 206.582 387.772 206.491 386.745C206.203 383.477 205.798 380.216 205.634 376.944C205.321 370.571 205.442 364.163 204.831 357.822C203.965 348.841 203.986 339.872 203.834 330.879ZM211.207 369.641C211.125 369.646 211.045 369.65 210.965 369.657C210.965 371.386 211.023 373.121 210.952 374.848C210.735 380.256 211.837 385.526 212.579 390.83C212.84 392.698 213.979 393.038 215.537 392.007C215.825 391.815 216.095 391.596 216.369 391.384C223.716 385.659 226.091 377.666 225.819 368.926C225.628 362.841 226.409 357.089 229.474 351.968C231.924 347.879 234.113 343.416 238.304 340.585C238.864 340.206 239.391 339.656 239.709 339.064C242.402 334.067 245.454 329.203 247.598 323.972C250.334 317.297 250.761 310.209 249.254 303.068C248.9 301.388 248.63 299.654 248.634 297.948C248.645 294.134 248.729 294.125 245.047 293.516C243.85 293.317 242.639 293.191 241.438 293.01C238.098 292.509 235.027 293.059 231.86 294.412C225.19 297.263 219.009 301.31 211.771 302.792C211.605 302.825 211.399 302.891 211.306 303.011C210.81 303.651 209.959 304.298 209.93 304.971C209.704 310.33 209.604 315.692 209.531 321.048C209.485 324.493 209.56 327.94 209.556 331.384C209.551 336.041 209.323 340.709 209.554 345.355C209.958 353.456 210.642 361.547 211.207 369.641ZM205.887 40.6916C187.803 40.6761 172.393 46.3509 158.889 58.3782C155.547 61.3547 152.211 64.4394 149.974 68.4316C147.728 72.4392 147.729 72.4635 151.374 74.9299C157.102 78.8073 163.063 82.3557 168.226 87.028C169.235 87.9421 170.523 88.5648 171.715 89.267C172.986 90.0133 173.676 89.6357 173.773 88.2336C173.866 86.8734 173.812 85.4647 174.152 84.1663C175.615 78.5755 178.363 73.5786 181.712 68.9151C185.499 63.6445 190.994 60.8115 196.89 58.588C200.523 57.2168 204.259 56.5809 208.115 57.2212C218.339 58.9214 226.075 64.5829 231.172 73.2805C234.378 78.7565 236.498 84.9369 235.797 91.6119C235.708 92.462 235.706 93.3586 235.883 94.1844C236.007 94.7651 236.416 95.3767 236.881 95.7432C237.058 95.8868 237.826 95.4783 238.187 95.1625C244.589 89.596 251.082 84.1486 258.482 79.9047C258.63 79.8186 258.767 79.7082 258.904 79.6067C260.568 78.3238 260.847 77.6923 260.053 75.6675C259.108 73.2651 257.875 70.9775 256.926 68.5751C255.696 65.4705 253.859 62.7833 251.708 60.2661C244.48 51.8114 235 47.0795 224.586 43.8911C222.605 43.2839 220.439 43.1072 218.616 42.2063C215.677 40.7578 212.627 40.7203 209.518 40.6938C208.305 40.6828 207.097 40.6916 205.887 40.6916ZM338.305 353.584C337.836 347.417 335.432 340.987 331.124 335.392C328.293 331.716 324.983 328.412 321.902 324.928C321.446 324.411 321.019 323.855 320.679 323.261C319.132 320.571 317.656 317.955 317.226 314.698C316.527 309.405 314.887 304.223 314.305 298.926C313.77 294.037 312.486 289.455 310.762 284.922C309.888 282.624 308.678 280.557 306.892 278.843C304.909 276.94 302.831 275.121 300.975 273.1C298.182 270.057 296.489 269.812 293.96 272.983C291.702 275.803 289.852 278.956 287.905 282.014C286.239 284.628 284.782 287.378 283.048 289.946C282.22 291.171 280.038 291.831 280.494 293.496C280.863 294.834 282.37 295.874 283.404 297.016C283.749 297.398 284.158 297.747 284.597 298.014C288.387 300.297 291.107 303.629 293.783 307.058C295.692 309.507 297.859 311.763 300.012 314.014C304.553 318.752 309.205 323.391 313.726 328.154C316.33 330.899 318.702 333.864 321.289 336.631C325.773 341.425 330.32 346.159 334.883 350.879C336.313 352.359 336.225 353.98 335.556 355.673C335.027 357.025 333.303 357.541 332.139 356.634C331.064 355.799 330.097 354.792 329.19 353.772C322.314 346.004 315.494 338.181 308.585 330.444C306.06 327.613 303.517 324.747 300.656 322.276C296.712 318.869 293.001 315.292 289.755 311.214C288.252 309.328 286.703 307.431 284.913 305.83C282.342 303.532 279.447 301.589 276.847 299.314C274.787 297.51 272.855 296.208 270.009 297.731C269.175 298.177 267.962 298.069 266.944 297.974C264.357 297.729 261.772 297.411 259.205 297.003C254.793 296.296 254.762 296.261 254.943 300.809C254.996 302.176 255.191 303.569 255.554 304.888C256.337 307.747 256.831 310.595 256.371 313.57C255.917 316.502 257.079 318.816 258.887 321.13C261.642 324.659 265.421 326.882 269.046 329.092C273.122 331.577 277.542 333.595 282.543 334.14C290.937 335.059 297.821 339.146 303.843 344.96C307.067 348.073 310.579 350.913 314.133 353.655C319.539 357.828 325.914 359.418 332.606 359.758C337.203 359.988 338.179 358.937 338.305 353.584ZM301.384 173.624C302.017 173.434 303.48 173.302 304.571 172.604C307.038 171.019 309.362 169.206 311.652 167.369C312.347 166.812 312.535 165.821 311.621 165.156C307.855 162.412 304.126 159.612 300.262 157.013C297.832 155.379 295.201 154.043 292.638 152.608C289.027 150.583 285.511 148.335 281.746 146.644C275.751 143.954 269.613 141.578 263.485 139.2C259.783 137.761 256.043 136.347 252.215 135.314C246.054 133.649 239.791 132.351 233.593 130.821C227.051 129.202 220.66 126.886 213.831 126.645C211.952 126.579 209.941 127.021 208.215 126.499C203.803 125.157 199.383 125.21 194.863 125.369C188.166 125.605 181.453 125.128 174.761 125.817C173.046 125.996 171.275 125.797 169.594 126.111C163.809 127.184 158.041 128.356 152.291 129.593C144.686 131.231 137.154 133.144 129.708 135.416C122.589 137.586 115.514 139.805 109.053 143.616C107.717 144.405 106.306 145.144 104.836 145.615C99.3269 147.377 94.672 150.762 89.6375 153.425C88.9442 153.791 88.8006 154.615 89.5656 155.068C93.9855 157.7 98.0943 160.623 103.766 160.747C107.695 160.831 111.355 160.568 114.89 159.122C119.728 157.145 124.319 154.714 127.589 150.404C128.107 149.717 128.757 149.123 129.397 148.54C131.942 146.218 133.468 146.251 136.136 148.545C137.297 149.543 138.421 150.735 139.786 151.331C147.432 154.663 155.313 154.304 163.221 152.413C164.377 152.137 165.583 151.676 166.529 150.98C170 148.426 173.826 146.264 176.233 142.475C176.685 141.762 177.4 141.201 178.042 140.625C179.379 139.419 180.161 139.357 181.718 140.419C182.42 140.892 183.09 141.47 183.628 142.122C185.798 144.749 188.61 146.421 191.779 147.456C196.377 148.962 201.075 150.17 205.648 151.742C210.443 153.394 214.862 152.431 219.195 150.344C220.435 149.746 221.561 148.911 222.752 148.209C224.391 147.24 225.993 146.195 227.702 145.365C229.477 144.5 231.172 145.091 232.092 146.809C232.745 148.026 233.389 149.291 233.741 150.614C234.569 153.74 236.914 155.52 239.415 157.053C244.33 160.056 249.774 161.838 255.366 163.014C257.676 163.5 260.274 163.644 262.538 163.101C266.546 162.138 270.403 160.548 274.313 159.19C276.96 158.271 278.378 158.605 280.111 160.934C281.138 162.314 281.886 163.893 282.848 165.328C283.406 166.161 284.032 167.009 284.809 167.62C289.436 171.27 295 172.467 301.384 173.624ZM336.209 92.0249C336.919 86.1934 332.396 82.6008 327.548 79.3859C326.384 78.6153 324.514 78.4938 323.053 78.6903C321.238 78.931 319.291 79.4852 317.791 80.4833C314.062 82.9696 310.307 85.5 307.647 89.2604C304.748 93.3541 301.897 97.5274 297.737 100.473C296.243 101.528 296.33 102.526 296.803 103.99C297.861 107.278 298.77 110.615 299.746 113.927C300.118 115.181 300.851 115.611 302.103 115.055C304.633 113.929 307.1 112.657 309.603 111.471C310.373 111.109 311.172 110.639 311.982 110.584C312.539 110.544 313.252 111.03 313.677 111.482C313.903 111.721 313.845 112.56 313.593 112.849C312.69 113.887 311.765 114.967 310.643 115.733C308.22 117.378 305.657 118.82 303.176 120.381C301.36 121.525 301.209 121.975 301.641 124.28C302.035 126.385 302.402 126.851 304.703 127.04C306.584 127.197 308.496 127.08 310.388 126.981C311.765 126.906 313.135 126.561 314.509 126.53C315.401 126.511 316.297 127.021 316.233 128.041C316.202 128.577 315.655 129.368 315.157 129.553C311.758 130.823 308.344 132.073 304.865 133.088C303.336 133.537 303.272 134.148 303.249 135.617C303.19 139.39 302.674 143.157 302.34 146.926C300.247 149.258 301.86 150.636 303.672 151.888C305.237 152.97 306.753 154.293 308.501 154.909C312.539 156.337 314.817 159.614 317.295 162.657C319.479 165.34 319.143 168.643 316.764 171.136C316.286 171.633 315.77 172.114 315.202 172.505C310.574 175.678 306.635 180.326 300.041 179.255C298.782 179.052 298.669 180.573 298.414 181.545C298.144 182.569 298.664 183.201 299.605 183.477C300.601 183.77 301.634 183.94 302.628 184.238C306.268 185.345 309.91 186.453 313.526 187.632C314.321 187.895 315.157 188.334 315.702 188.935C316.073 189.346 316.133 190.207 316.025 190.814C315.969 191.121 315.204 191.558 314.812 191.505C313.63 191.357 312.477 190.986 311.307 190.724C307.091 189.781 302.893 188.635 298.505 189.412C297.564 189.578 297.407 190.474 297.845 190.942C299.127 192.316 300.466 193.707 302.019 194.733C304.75 196.54 307.697 198.008 310.459 199.768C311.307 200.311 311.862 201.364 311.254 202.488C310.762 203.398 309.97 203.427 309.034 203.126C304.219 201.594 299.718 199.386 295.332 196.915C292.711 195.44 292.537 195.5 291.061 198.222C290.649 198.98 290.164 199.748 289.985 200.572C289.866 201.124 290.012 202.027 290.399 202.356C296.566 207.622 302.417 213.219 308.127 218.974C312.269 223.147 316.392 227.342 320.566 231.487C322.502 233.412 323.04 233.476 325.625 232.264C330.07 230.177 334.06 227.497 336.93 223.394C338.513 221.129 340.035 218.808 341.768 216.655C346.313 211.014 347.942 204.376 348.449 197.383C348.584 195.524 348.327 193.583 347.931 191.748C346.913 187.018 345.572 182.353 344.634 177.61C343.76 173.2 343.253 168.771 344.769 164.302C345.875 161.034 346.482 157.6 347.389 154.259C350.438 143.009 348.763 132.737 341.108 123.682C340.885 123.419 340.58 123.209 340.407 122.918C338.117 119.072 335.851 115.329 335.755 110.524C335.654 105.353 334.784 100.195 336.187 95.0632C336.362 94.4206 336.209 93.6876 336.209 92.0249ZM315.465 73.3843C314.83 70.527 313.925 68.0739 312.053 66.186C308.85 62.9578 306.653 59.0053 303.975 55.3995C303.254 54.428 302.659 53.3306 301.802 52.4982C294.256 45.2027 285.71 40.1153 274.815 39.5677C269.124 39.2806 263.439 38.3179 258.035 36.3416C255.277 35.3348 252.595 34.1005 249.953 32.8198C244.343 30.095 238.64 27.2819 234.157 23.0005C230.225 19.2468 226.047 16.0716 221.399 13.3623C219.919 12.5011 218.558 11.3728 217.297 10.1981C213.873 7.01404 209.666 5.85041 205.282 6.47088C200.361 7.17305 195.367 7.9922 190.764 10.0722C184.769 12.7837 178.908 15.7536 173.544 19.6133C172.849 20.1123 172.095 20.5407 171.333 20.9338C167.491 22.9144 163.349 24.4689 159.856 26.9353C154.714 30.5698 148.736 31.7665 142.971 33.2106C135.948 34.9749 128.603 35.4319 121.43 36.6398C119.252 37.0041 117.03 37.7041 115.087 38.7374C111.435 40.6827 108.084 43.1977 104.401 45.0724C100.945 46.8278 98.7011 49.5945 96.9263 52.772C93.5679 58.7912 90.2676 64.8545 87.8413 71.333C87.2637 72.8809 86.6605 74.4133 86.07 75.9523C87.5888 77.0806 89.0772 78.2509 90.6376 79.3196C91.7761 80.0969 92.9828 80.7879 94.2017 81.4371C99.5524 84.2811 104.918 87.092 110.277 89.9206C111.249 90.4373 111.869 90.0685 112.377 89.1963C113.249 87.7037 114.106 86.1911 115.073 84.7581C117.287 81.4747 118.726 77.7121 121.738 74.9079C123.195 73.5477 124.093 71.5935 125.243 69.9066C124.309 67.6875 123.417 65.4485 122.413 63.2603C122.137 62.6597 121.474 62.2468 121.09 61.6771C120.286 60.4825 120.882 59.2151 122.372 59.0407C126.237 58.5858 129.828 59.0319 132.976 61.7257C135.34 63.7461 137.95 65.4882 140.505 67.2746C142.267 68.5045 142.484 68.3941 143.605 66.5503C147.32 60.4472 152.201 55.3311 157.708 50.873C160.913 48.2763 164.397 45.9137 168.045 43.9949C174.144 40.7843 180.139 37.1807 187.266 36.4764C190.022 36.2048 192.767 35.7411 195.483 35.2001C201.164 34.0696 206.834 34.074 212.554 34.8844C222.769 36.3306 232.411 39.4263 241.542 44.2576C251.657 49.6078 259.515 57.0777 264.474 67.4623C265.067 68.7054 265.72 69.9309 266.395 71.1343C266.926 72.0837 267.699 72.1434 268.537 71.5185C268.953 71.2093 269.358 70.8738 269.717 70.5028C274.915 65.0798 281.596 61.5932 287.465 57.0468C288.272 56.4197 289.817 56.2452 290.855 56.5102C293.143 57.0865 294.774 60.9241 293.962 63.2757C291.935 69.1426 291.01 75.4003 287.706 80.8167C286.914 82.1173 287.029 83.3825 287.83 84.7206C289.339 87.2422 290.7 89.8477 292.152 92.4024C292.9 93.714 293.455 93.8863 294.601 93.0604C296.971 91.3492 299.587 89.8963 300.99 87.1141C301.289 86.5157 301.853 86.03 302.362 85.5663C306.064 82.1857 309.789 78.8272 313.487 75.4444C314.212 74.7776 314.854 74.0224 315.465 73.3843ZM75.2939 76.0494C74.3897 76.3718 73.8971 76.522 73.4215 76.7163C68.592 78.6859 65.0409 82.1614 62.2652 86.4362C60.9012 88.5383 60.5856 90.9076 61.2479 93.4226C62.2134 97.0924 62.8452 100.857 63.9327 104.489C65.9296 111.156 63.5195 116.762 59.7973 121.933C56.0586 127.131 51.8912 132.015 48.0325 137.125C46.2404 139.501 45.3061 142.208 45.1072 145.29C44.8002 150.051 45.6898 154.595 46.9483 159.102C48.3151 163.993 50.7856 168.219 54.3435 171.955C57.7918 175.574 60.8425 179.67 62.0163 184.643C63.2075 189.686 64.1471 194.811 64.7851 199.951C65.8526 208.536 68.1001 216.549 74.2687 223.008C74.6258 223.379 74.9301 223.818 75.1815 224.266C76.5785 226.781 78.4431 228.7 81.32 229.535C82.1073 229.762 83.0651 230.257 83.436 230.915C84.4767 232.767 85.5263 232.149 86.6932 231.206C87.3675 230.661 88.0254 230.098 88.684 229.535C96.8314 222.588 104.977 215.639 113.121 208.686C113.779 208.123 114.402 207.518 115.053 206.948C116.252 205.9 116.55 204.771 115.71 203.29C112.783 198.136 110.921 192.561 109.295 186.888C108.597 184.459 107.951 184.102 105.594 184.406C105.078 184.475 104.574 184.618 104.067 184.733C101.031 185.418 97.9956 186.104 94.9597 186.789C93.5421 187.107 92.5203 186.718 92.3864 185.811C92.2307 184.751 92.9153 184.249 93.7538 183.912C95.0411 183.393 96.368 182.971 97.6351 182.412C100.158 181.297 102.667 180.149 105.135 178.921C105.443 178.769 105.525 178.049 105.573 177.577C105.585 177.464 105.055 177.168 104.77 177.166C99.7341 177.102 94.7273 177.382 89.7845 178.442C89.1266 178.586 88.3746 178.833 87.7946 178.641C87.2232 178.456 86.6733 177.844 86.3967 177.279C86.2584 177 86.6405 176.201 86.9915 176.004C87.8749 175.51 88.8544 175.148 89.8329 174.865C93.9915 173.66 98.185 172.567 102.326 171.306C104.574 170.617 104.827 169.115 102.886 167.764C101.969 167.126 100.681 166.982 99.536 166.72C92.9906 165.211 87.1177 162.765 83.3625 156.66C81.4038 153.478 81.287 151.93 84.3818 149.751C88.0442 147.167 91.802 144.679 95.705 142.484C101.148 139.421 101.286 139.386 100.502 133.298C100.323 131.907 99.6987 131.218 98.3466 130.788C94.9968 129.723 91.5391 129.586 88.0885 129.302C86.5031 129.176 85.1908 128.189 85.4502 127.396C85.8426 126.206 86.9309 126.06 87.9796 125.978C88.8449 125.908 89.7205 125.978 90.5805 125.886C93.5066 125.57 96.4266 125.199 99.3528 124.879C100.757 124.729 101.546 124.02 101.743 122.611C101.837 121.929 102.082 121.266 102.179 120.582C102.399 119.025 101.868 117.842 100.283 117.345C98.1487 116.68 96.0247 115.956 93.8508 115.453C91.3187 114.867 88.7333 114.521 86.1816 114.015C85.0094 113.779 84.4699 112.893 84.4103 111.767C84.3592 110.82 85.3619 110.074 86.6795 110.215C89.9374 110.562 93.1816 111.032 96.437 111.412C98.4858 111.65 100.546 111.809 102.601 112.004C103.498 110.18 104.446 108.38 105.279 106.527C106.413 104.001 107.49 101.453 108.535 98.8897C109.397 96.7766 109.251 96.3549 107.373 95.0345C106.667 94.5376 105.934 94.0607 105.168 93.6655C99.9855 90.965 95.5182 86.8801 89.5736 85.6634C85.9255 83.0755 81.6138 81.4835 78.4639 78.1206C77.5779 77.1712 76.2335 76.6456 75.2939 76.0494ZM264.85 291.396C270.812 291.491 274.539 289.4 277.54 286.095C279.146 284.326 280.277 282.118 281.578 280.082C283.809 276.584 285.619 272.736 288.292 269.62C293.435 263.623 300.063 259.377 307.301 256.345C312.11 254.329 316.704 252.274 320.59 248.663C323.746 245.731 323.938 245.917 321.632 242.28C321.084 241.416 320.493 240.56 319.804 239.811C317.346 237.137 314.797 234.545 312.354 231.86C304.531 223.259 295.841 215.582 287.071 207.984C286 207.059 285.305 207.2 284.632 208.443C283.238 211.029 282.149 213.84 280.412 216.165C277.108 220.599 273.855 225.105 269.642 228.802C267.491 230.692 267.608 230.979 269.349 233.567C270.894 235.857 272.394 238.179 273.855 240.524C274.304 241.249 274.727 242.072 274.835 242.896C274.908 243.43 274.512 244.163 274.096 244.576C273.862 244.812 273.105 244.713 272.682 244.53C272.237 244.338 271.885 243.898 271.536 243.523C269.883 241.754 268.296 239.922 266.579 238.219C265.61 237.256 264.474 236.444 263.337 235.675C261.644 234.534 260.418 235.808 259.132 236.636C257.889 237.44 257.851 238.493 258.327 239.796C259.451 242.878 260.515 245.978 261.524 249.101C261.998 250.569 262.323 252.093 262.646 253.605C262.768 254.179 261.73 254.875 261.175 254.601C260.568 254.305 259.803 254.038 259.477 253.519C258.367 251.772 256.988 250.024 256.525 248.083C255.968 245.738 254.428 244.139 253.275 242.253C252.248 240.577 249.931 240.712 249.218 242.483C248.583 244.06 248.081 245.777 248.824 247.493C249.236 248.44 249.993 249.279 250.21 250.253C250.371 250.971 250.146 252.026 249.672 252.576C248.889 253.488 247.678 253.256 246.864 252.53C246.114 251.863 245.489 250.966 245.071 250.052C244.644 249.125 244.573 248.043 244.281 247.049C243.828 245.493 243.232 245.223 241.581 245.614C237.032 246.683 232.464 247.676 227.93 248.791C223.659 249.84 219.341 249.681 215.004 249.615C211.202 249.555 207.374 249.502 203.6 249.878C202.011 250.037 200.523 250.081 199.018 249.748C195.764 249.028 192.521 249.037 189.215 249.377C185.049 249.807 180.936 249.657 177.026 247.709C175.503 246.954 173.7 246.773 172.036 246.287C165.635 244.415 165.499 244.552 162.227 250.311C161.718 251.207 161.17 252.126 160.45 252.845C160.05 253.243 159.089 253.563 158.682 253.347C158.239 253.113 157.944 252.218 157.945 251.616C157.948 250.792 158.239 249.951 158.502 249.149C158.931 247.84 159.543 246.586 159.862 245.252C159.989 244.718 159.739 243.768 159.329 243.479C155.947 241.094 154.127 241.313 151.271 244.26C149.825 245.753 148.431 247.301 146.896 248.694C146.509 249.043 145.442 249.173 145.095 248.895C144.677 248.562 144.512 247.672 144.568 247.054C144.627 246.407 145.034 245.769 145.364 245.168C146.279 243.508 147.305 241.9 148.125 240.193C148.354 239.714 148.249 238.65 147.904 238.4C145.946 236.985 143.872 235.74 141.837 234.437C140.345 235.274 138.85 236.102 137.366 236.952C136.768 237.296 136.243 237.848 135.609 238.016C134.801 238.23 133.904 238.255 133.065 238.171C132.291 238.096 131.874 237.495 132.006 236.698C132.303 234.885 133.426 233.611 134.772 232.441C137.346 230.213 136.519 230.308 135.075 228.338C134.459 227.499 133.768 226.722 133.089 225.931C129.358 221.608 125.62 217.287 121.886 212.968C121.545 212.572 121.229 212.162 120.869 211.789C120.334 211.234 119.779 211.128 119.082 211.616C117.947 212.407 116.72 213.069 115.589 213.869C113.05 215.666 110.331 217.282 108.082 219.395C105.205 222.098 102.747 225.242 100.042 228.133C99.2267 229.007 98.1702 229.654 97.2428 230.422C93.5153 233.518 89.7809 236.603 86.0769 239.723C83.767 241.668 83.4904 244.234 84.5062 246.811C87.6804 254.868 93.2966 259.911 102.275 260.565C105.042 260.766 107.822 260.863 110.574 261.199C115.443 261.79 120.246 261.331 125.065 260.678C126.753 260.448 128.484 260.483 130.196 260.503C131.225 260.512 132.302 260.984 133.273 260.795C136.364 260.203 139.215 261.17 141.805 262.409C148.205 265.465 154.703 268.41 160.318 272.873C160.995 273.411 161.648 273.992 162.38 274.443C170.048 279.139 177.677 283.898 185.422 288.466C191.705 292.169 198.352 295.084 205.476 296.868C207.442 297.362 209.255 297.296 211.058 296.548C215.537 294.693 220.18 293.13 224.422 290.833C234.566 285.335 244.919 285.468 255.581 288.769C259.037 289.842 262.549 290.747 264.85 291.396ZM216.493 242.77C225.137 243.229 233.23 240.615 241.298 238.001C245.414 236.663 249.139 234.39 253.031 232.516C263.372 227.534 271.266 220.089 277.044 210.311C279.33 206.441 281.2 202.323 283.594 198.525C286.938 193.225 289.049 187.365 291.709 181.761C293.11 178.811 292.621 178.029 289.54 176.601C288.916 176.311 288.277 176.007 287.611 175.852C282.986 174.794 279.365 172.335 276.986 168.21C275.955 166.419 274.435 166.002 272.567 166.318C270.009 166.75 267.424 167.086 264.906 167.684C261.544 168.486 260.166 168.683 256.966 168.263C252.352 167.658 247.749 167.3 243.274 165.589C240.426 164.5 238.353 162.359 235.684 161.259C232.143 159.802 229.359 157.788 227.877 154.169C227.388 152.979 226.502 152.848 225.349 153.42C222.88 154.644 220.364 155.77 217.876 156.949C214.125 158.729 210.268 158.861 206.276 157.887C203.587 157.229 200.85 156.755 198.135 156.194C196.951 155.949 195.695 155.869 194.601 155.412C190.138 153.535 185.696 151.607 181.311 149.558C180.021 148.96 179.089 149.051 177.991 149.859C175.212 151.906 172.412 153.93 169.547 155.854C168.422 156.611 167.148 157.22 165.858 157.644C162.781 158.66 159.342 158.152 156.397 159.852C156.031 160.064 155.38 159.722 154.866 159.749C147.847 160.151 141.067 159.095 134.591 156.346C132.748 155.567 131.407 155.851 129.943 157.247C126.916 160.133 123.454 162.414 119.467 163.842C117.191 164.655 114.955 165.578 112.695 166.441C111.191 167.015 110.88 167.565 111.221 169.197C111.328 169.703 111.508 170.193 111.661 170.69C113.901 177.963 115.933 185.307 118.465 192.475C119.894 196.522 121.655 200.631 124.132 204.093C128.54 210.261 132.734 216.671 138.577 221.712C140.8 223.63 142.639 226.002 144.926 227.828C148.411 230.612 151.968 233.337 156.387 234.662C162.85 236.601 169.232 238.815 175.722 240.664C178.693 241.509 181.824 242.121 184.902 242.218C195.427 242.549 205.96 242.609 216.493 242.77ZM341.865 100.438C342.332 103.831 341.308 108.526 342.928 113.099C343.983 116.069 345.189 118.818 347.499 121.081C350.702 124.214 352.257 128.317 353.306 132.519C354.311 136.537 354.897 140.662 355.495 144.762C355.692 146.098 355.504 147.538 355.227 148.881C354.287 153.442 353.479 158.02 351.916 162.469C350.117 167.609 349.998 172.993 351.346 178.332C352.149 181.518 352.899 184.715 353.824 187.864C355.114 192.263 355.636 196.683 354.583 201.19C353.919 204.027 353.481 206.895 352.693 209.728C351.323 214.663 349.226 219.049 345.8 222.831C345.457 223.209 345.258 223.712 344.961 224.134C343.775 225.812 342.573 227.486 341.381 229.164C342.996 230.416 344.647 231.626 346.225 232.929C353.176 238.674 358.361 245.634 361.277 254.259C362.656 258.33 364.493 262.245 366.079 266.253C366.931 268.401 368.255 270.148 370.06 271.599C371.811 273.003 373.422 274.58 375.15 276.015C378.43 278.731 380.652 282.239 382.515 285.964C384.137 289.208 385.553 292.562 386.905 295.929C387.339 297.007 387.319 298.279 387.428 299.465C387.505 300.306 387.414 301.156 387.467 302.002C387.529 302.993 388.103 304.265 387.68 304.905C386.963 305.992 385.763 307.129 384.551 307.464C377.14 309.52 369.684 310.986 362.289 307.272C360.746 306.497 358.974 306.128 357.537 305.212C354.979 303.589 352.29 303.62 349.513 304.062C346.614 304.525 343.718 305.011 340.843 305.596C337.229 306.336 334.034 304.837 330.792 303.768C328.169 302.902 325.68 301.642 323.117 300.591C322.002 300.134 321.196 300.549 321.362 301.553C322.475 308.359 323.283 315.281 327.432 321.13C328.526 322.674 329.847 324.067 331.186 325.412C336.404 330.645 340.248 336.618 342.487 343.758C343.642 347.442 344.404 351.105 344.667 354.885C344.782 356.57 344.501 358.316 344.169 359.99C343.587 362.955 342.018 364.377 338.688 365.086C325.357 367.919 314.423 363.596 305.029 354.578C300.627 350.347 296.097 346.368 290.722 343.502C288.631 342.387 286.181 341.281 283.908 341.307C278.774 341.365 274.424 339.214 270.148 337.075C264.901 334.447 259.805 331.424 255.766 326.977C254.746 325.851 254.253 325.935 253.46 327.346C252.449 329.145 251.65 331.069 250.646 332.877C248.809 336.18 247.107 339.592 244.934 342.665C242.852 345.609 240.187 348.139 237.884 350.937C234.334 355.247 232.756 360.332 232.765 365.815C232.776 372.143 231.632 378.306 229.483 384.131C227.39 389.812 223.761 394.71 218.64 398.285C216.071 400.078 213.161 400.424 210.191 400.133C209.315 400.047 208.146 399.298 207.779 398.532C207.175 397.28 206.579 396.646 205.118 396.611C202.302 396.549 200.355 394.754 198.474 392.915C192.902 387.458 189.819 380.68 189.348 373.079C188.815 364.446 184.622 358.093 178.582 352.527C176.672 350.767 174.634 349.142 172.783 347.322C169.16 343.756 166.677 339.548 164.865 334.736C163.018 329.823 161.76 324.886 161.265 319.695C161.078 317.739 160.37 317.418 158.575 318.332C153.949 320.689 149.369 323.135 144.724 325.454C139.155 328.24 133.537 330.923 127.951 333.674C127.029 334.127 126.064 334.586 125.299 335.251C120.074 339.788 114.585 344.079 109.787 349.034C103.706 355.318 96.3281 359.33 88.4394 362.512C85.1216 363.847 81.4054 364.435 77.704 363.781C76.6856 363.602 75.6502 363.417 74.6845 363.064C72.3558 362.209 71.5242 361.129 72.0506 358.747C72.412 357.104 72.2071 355.786 71.6979 354.256C71.1059 352.487 70.6458 350.559 70.6925 348.713C70.8103 344.054 71.1161 339.389 71.6149 334.754C71.8121 332.919 72.5122 331.058 73.3421 329.391C76.0408 323.956 79.3861 318.911 83.0936 314.106C85.3075 311.236 87.4728 308.326 89.5822 305.376C90.1742 304.55 90.6238 303.563 90.8874 302.582C91.095 301.807 90.9177 300.933 90.9117 300.1C90.1277 300.129 89.3246 300.05 88.5629 300.195C86.5394 300.582 84.5338 301.061 82.5223 301.514C80.1573 302.041 77.7912 302.571 75.4289 303.114C72.5018 303.79 70.0183 305.062 67.8425 307.303C64.7366 310.505 61.0802 313.17 57.9475 316.345C54.3159 320.026 49.9991 322.428 45.2006 324.062C41.7645 325.235 38.3172 326.469 34.7765 327.2C31.0264 327.975 27.1859 327.659 23.4471 326.683C22.9474 326.553 22.3918 326.418 22.0078 326.107C20.8124 325.138 19.7916 323.453 18.5069 323.241C17.2571 323.036 15.8056 324.478 14.3541 324.842C13.8398 324.97 12.8604 324.184 12.4707 323.577C12.1689 323.104 12.2563 322.168 12.5183 321.596C13.4552 319.558 13.2131 317.527 12.7015 315.493C11.2673 309.807 12.7515 304.963 16.6414 300.659C18.4897 298.612 19.929 296.192 21.8056 294.176C24.0375 291.783 26.6351 289.729 28.9069 287.366C32.3819 283.758 35.8726 280.135 39.0519 276.269C41.1352 273.738 42.5036 270.711 42.7431 267.297C42.9495 264.363 43.2782 261.437 43.5539 258.509C44.216 251.463 46.8465 245.148 50.8013 239.352C52.2603 237.212 53.7385 235.055 55.4839 233.154C56.8712 231.644 58.6382 230.467 60.309 229.241C61.1388 228.634 62.1798 228.32 63.0484 227.76C67.1105 225.119 67.9126 226.039 65.0591 220.745C63.5058 217.856 62.1789 214.836 60.9375 211.8C59.621 208.582 58.8343 205.215 59.0695 201.698C59.3003 198.2 58.4012 194.897 57.7884 191.49C56.7588 185.76 54.2555 181.132 50.2567 177.082C49.4355 176.252 49.0429 175.006 48.4233 173.971C47.5432 172.489 46.8189 170.864 45.702 169.581C42.8389 166.293 41.5718 162.456 41.1006 158.227C40.8145 155.653 40.6926 152.999 39.9344 150.552C38.8383 147.015 39.286 143.619 40.4073 140.353C41.7532 136.429 43.7613 132.85 46.6675 129.692C49.7017 126.4 52.0806 122.512 54.9696 119.069C56.8331 116.85 57.7563 114.315 58.441 111.628C58.6486 110.818 58.7203 109.897 58.5638 109.082C57.6519 104.337 56.7545 99.5831 55.6264 94.8865C55.2469 93.3078 55.1969 91.9277 55.5565 90.3467C57.4755 81.9053 62.4425 75.8927 69.7737 71.4544C73.1631 69.4053 76.2968 69.4252 79.4985 71.3087C80.7813 72.0617 81.3795 71.7746 81.867 70.6397C82.8241 68.4139 83.9011 66.2169 84.6031 63.9095C86.2905 58.3584 89.8371 53.7965 92.4037 48.7179C95.5027 42.5861 101.236 39.667 106.622 36.2666C108.666 34.9749 110.738 33.6743 112.939 32.6961C116.683 31.0356 120.302 29.3333 124.777 29.7042C128.302 29.9979 131.951 28.7746 135.549 28.2557C141.746 27.3614 147.667 25.3808 153.51 23.303C157.058 22.04 160.288 19.8695 163.626 18.0434C167.269 16.0539 170.899 14.0357 174.482 11.9424C176.567 10.7236 178.526 9.29718 180.579 8.02974C181.605 7.39382 182.666 6.74464 183.8 6.36927C189.536 4.47253 195.31 2.68622 201.055 0.811564C203.264 0.0917319 205.477 0.142539 207.743 0.392051C212.41 0.904324 217.237 1.27749 220.879 4.53661C225.04 8.2528 229.709 11.152 234.374 14.1064C234.951 14.4707 235.522 14.93 235.927 15.4666C239.455 20.1764 244.283 23.0447 249.583 25.33C251.96 26.3524 254.248 27.6021 256.497 28.8872C261.927 31.9851 268.017 32.3892 273.992 33.3122C278.099 33.9415 282.202 34.6282 286.292 35.3679C287.299 35.549 288.35 35.878 289.215 36.4057C294.241 39.4595 299.302 42.4647 304.163 45.7613C305.819 46.8852 307.023 48.74 308.275 50.3806C311.528 54.6444 314.728 58.9457 317.875 63.2868C318.879 64.6734 319.939 66.133 320.46 67.7272C321.373 70.516 323.458 71.6488 325.961 71.6289C331.208 71.5847 334.726 74.835 337.836 78.0941C341.073 81.4857 342.607 86.0719 342.505 90.9275C342.447 93.692 342.144 96.452 341.865 100.438Z" fill="#C0FFD5"/>
</svg>
