<svg width="402" height="401" viewBox="0 0 402 401" fill="none" xmlns="http://www.w3.org/2000/svg">
<path fill-rule="evenodd" clip-rule="evenodd" d="M366.096 93.3283C359.795 89.5691 353.678 90.3648 347.886 94.8628C343.607 98.1856 341.582 103.354 340.827 109.295C340.64 110.778 340.534 112.395 342.177 113.168C343.793 113.93 344.533 113.853 345.952 111.868C346.657 110.887 347.201 109.714 347.738 108.571C349.349 105.134 349.318 105.154 352.098 106.822C353.217 107.492 354.41 107.974 355.624 108.571C357.265 107.812 358.838 107.256 360.282 106.377C363.541 104.401 365.433 100.847 367.102 97.1046C367.854 95.419 367.559 94.2039 366.096 93.3283ZM389.553 90.4561C387.783 92.4013 385.971 94.2894 384.166 96.1862C383.331 97.0618 382.257 97.7321 381.678 98.8017C378.366 104.925 374.547 110.681 372.205 117.529C369.95 124.129 367.882 130.832 365.435 137.327C362.343 145.538 360.514 154.198 359.094 162.957C356.658 177.959 352.284 192.149 347.309 206.08C343.509 216.724 339.669 227.403 335.1 237.568C330.719 247.32 326.309 257.209 320.066 265.503C313.959 273.617 307.062 280.722 299.497 286.712C295.369 289.983 290.889 292.784 286.304 294.983C276.742 299.57 267.011 303.674 256.82 305.731C253.027 306.495 249.168 306.8 245.331 307.214C244.923 307.259 244.231 306.735 244.098 306.29C243.99 305.919 244.405 305.094 244.77 304.772C253.245 297.259 260.688 288.378 267.812 279.074C268.937 277.605 270.138 276.216 271.317 274.804C272.1 273.868 273.131 273.124 273.666 272.014C276.969 265.169 282.199 260.383 286.227 254.351C289.288 249.758 292.573 245.204 294.028 239.291C294.272 238.304 294.931 237.377 295.571 236.641C297.034 234.95 298.616 233.412 300.128 231.784C301.003 230.84 301.436 229.687 301.206 228.204C300.951 226.559 299.476 225.406 298.344 226.193C297.24 226.964 296.244 227.97 295.212 228.894C292.994 230.88 290.81 232.925 288.571 234.867C282.319 240.295 275.438 239.55 268.485 237.748C267.681 237.54 267.285 236.538 267.904 235.706C269.127 234.054 270.377 232.374 271.819 231.036C278.671 224.673 284.822 217.289 291.71 210.985C292.294 210.452 292.88 209.836 293.259 209.103C293.496 208.649 293.541 207.751 293.318 207.32C293.077 206.85 292.362 206.356 291.965 206.465C291.1 206.701 290.277 207.255 289.483 207.785C282.696 212.32 276.381 217.691 270.569 223.906C265.234 229.61 259.298 233.658 252.293 235.668C248.73 236.69 245.26 238.141 241.57 238.253C239.941 238.304 238.3 238.141 236.68 237.927C236.467 237.899 236.073 236.755 236.211 236.513C236.734 235.614 237.452 234.881 238.082 234.071C242.63 228.241 247.185 222.414 251.709 216.559C252.333 215.751 252.865 214.827 253.357 213.892C253.878 212.908 254.15 211.844 253.259 210.908C252.413 210.016 251.559 210.204 250.819 211.079C250.296 211.693 249.909 212.477 249.4 213.113C244.913 218.704 240.553 224.436 235.274 229.02C232.121 231.758 229.104 234.599 225.036 234.941C224.326 234.998 223.597 235.349 222.95 235.74C214.946 240.583 207.29 238.367 199.758 234.034C198.344 233.218 198.259 232.277 199.465 231.056C203.835 226.627 208.429 222.497 212.607 217.816C216.92 212.988 220.856 207.657 224.928 202.511C225.289 202.058 225.592 201.371 225.636 200.76C225.679 200.184 225.475 199.391 225.139 199.023C224.799 198.652 224.134 198.493 223.66 198.587C223.161 198.687 222.664 199.126 222.254 199.545C220.566 201.271 218.789 202.902 217.265 204.825C211.758 211.775 205.265 217.286 199.175 223.384C193.283 229.285 186.186 230.443 178.928 230.144C176.654 230.052 174.365 228.586 172.199 227.434C171.105 226.849 169.66 225.714 169.455 224.548C169.126 222.668 170.985 222.394 172.095 221.907C182.772 217.186 190.665 207.771 198.718 198.632C200.594 196.502 202.381 194.243 204.088 191.91C204.925 190.775 205.623 189.405 206.094 187.996C206.294 187.403 205.905 186.279 205.501 185.68C204.857 184.722 203.849 184.571 203.047 185.384C201.925 186.525 200.928 187.851 199.877 189.095C196.332 193.302 192.815 197.543 189.235 201.707C183.164 208.764 175.86 213.41 168.228 217.383C166.544 218.259 164.853 219.131 163.118 219.839C155.043 223.122 147.595 221.81 140.953 215.13C140.145 214.317 140.772 213.273 141.435 213.17C146.823 212.334 150.695 208.036 154.917 204.571C159.02 201.205 163.054 197.717 167.102 194.251C167.698 193.741 168.365 193.176 168.713 192.437C171.247 187.064 175.687 183.946 179.009 179.503C180.343 177.72 182.236 176.57 183.74 174.945C184.13 174.525 184.273 173.287 184.071 172.634C183.714 171.482 182.791 171.017 181.815 171.616C180.179 172.623 178.424 173.496 177.016 174.873C172.586 179.206 168.243 183.678 163.961 188.227C156.858 195.777 149.198 202.183 140.219 206.005C139.178 206.45 138.109 206.835 137.131 207.44C129.364 212.232 121.224 212.192 112.922 210.341C111.846 210.104 110.736 210.084 109.643 209.936C107.199 209.608 105.04 208.501 103.212 206.456C102.171 205.292 102.255 204.206 103.513 203.416C103.675 203.313 103.829 203.17 104.002 203.113C109.836 201.188 114.981 197.015 120.95 195.489C123.472 194.847 125.702 193.436 127.845 191.505C130.778 188.866 134.08 186.821 137.257 184.594C141.229 181.804 145.24 179.103 149.217 176.328C149.672 176.009 150.152 175.541 150.388 174.993C150.965 173.653 151.828 172.289 150.782 170.683C150.035 169.537 148.633 169.386 147.441 171.08C144.303 175.532 139.688 176.993 135.789 179.822C122.748 189.289 108.542 195.224 93.6555 198.738C92.0476 199.12 90.3635 199.151 88.7178 199.126C79.7922 198.986 71.3017 196.359 63.0655 192.34C62.6597 192.144 62.3749 191.579 62.0343 191.182C62.4612 190.823 62.8557 190.244 63.3218 190.136C77.1164 186.941 89.9293 180.341 102.685 173.504C105.852 171.807 109.159 170.495 112.386 168.955C113.235 168.547 114.13 168.096 114.8 167.381C115.248 166.904 115.642 165.826 115.505 165.199C115.345 164.48 114.607 163.502 114.061 163.442C112.639 163.288 111.11 163.265 109.763 163.753C107.31 164.64 104.947 165.906 102.564 167.064C93.3588 171.531 84.1675 176.034 74.9545 180.472C73.9397 180.96 72.8271 181.188 71.7438 181.419C63.6368 183.139 55.6619 185.834 47.3441 186.023C43.8753 186.1 40.4159 186.756 36.9487 187.118C32.2456 187.609 27.8812 185.623 23.4417 184.26C22.1589 183.866 21.0324 182.877 20.9701 181.068C20.9134 179.428 21.4664 178.216 22.8382 177.363C24.5955 176.274 26.2072 174.805 27.8088 173.379C32.1621 169.508 37.0047 166.964 42.163 165.159C49.5731 162.566 57.0508 160.193 64.3174 157.09C70.3914 154.497 76.4664 152.09 82.7858 150.615C83.3252 150.487 83.9488 150.527 84.3928 150.204C89.2234 146.708 94.7637 145.815 99.9823 143.736C104.155 142.076 108.244 140.019 112.239 137.789C119.737 133.607 127.734 130.918 135.028 126.069C137.494 124.429 140.642 124.292 143.486 123.513C145.092 123.071 146.848 123.071 148.302 122.253C150.931 120.775 153.577 120.479 155.826 120.904C161.342 121.143 166.195 121.905 170.645 124.991C171.901 125.864 173.371 126.323 174.777 126.836C181.401 129.261 187.099 133.707 192.362 138.987C196.798 143.436 201.791 146.79 206.927 149.657C212.108 152.549 216.859 156.311 221.947 159.366C231.513 165.113 241.303 170.139 251.618 173.536C253.376 174.115 255.214 174.349 257.026 174.659C257.931 174.813 258.888 174.617 259.771 174.851C268.923 177.278 277.991 175.855 287.087 174.217C291.117 173.49 294.858 171.804 298.715 170.381C303.647 168.564 308.443 166.528 313.101 163.832C315.211 162.612 317.694 162.389 319.902 161.371C326.996 158.108 333.119 152.76 339.308 147.589C340.492 146.599 341.692 145.267 342.33 143.747C343.504 140.943 344.89 138.527 346.941 136.542C348.289 135.242 347.761 133.057 346.113 132.352C345.443 132.064 344.7 131.933 343.985 131.91C342.705 131.876 341.42 132.03 340.138 132.01C328.461 131.828 319.858 115.758 324.799 101.146C325.008 100.53 325.383 99.9882 325.564 99.3636C328.585 88.876 335.079 83.9102 343.762 82.6724C349.963 81.7882 356.187 81.1607 362.413 80.5959C363.628 80.4875 364.924 81.0608 366.129 81.5258C370.848 83.3426 375.532 85.2935 380.255 87.0876C383.05 88.1458 385.84 89.3836 388.875 88.7305C389.147 88.6734 389.628 88.9957 389.752 89.2981C389.869 89.5833 389.757 90.2336 389.553 90.4561ZM102.588 317.619C102.378 316.974 101.592 316.435 100.971 316.218C100.524 316.061 99.9438 316.558 99.41 316.672C94.7316 317.684 90.0732 318.911 85.3627 319.607C81.0018 320.251 76.5862 320.571 72.1963 320.554C69.1147 320.539 66.006 319.909 62.9638 319.204C58.4136 318.152 56.6314 311.506 59.8347 307.171C60.7515 305.936 61.7138 305.16 63.1652 305.354C65.896 305.722 68.6377 305.967 72.7218 306.412C75.7741 306.059 80.1394 305.468 84.5166 305.075C88.5265 304.709 92.5483 304.441 96.5676 304.339C102.432 304.19 108.303 304.35 114.106 303.007C115.185 302.756 116.283 302.53 117.377 302.47C127.044 301.923 136.638 300.22 146.35 300.2C150.5 300.194 154.7 298.894 158.781 297.693C162.179 296.695 165.535 295.708 169.04 295.716C169.346 295.719 169.847 295.956 169.907 296.21C169.982 296.521 169.78 297.148 169.545 297.314C168.279 298.192 166.983 299.016 165.661 299.764C161.679 302.02 157.724 304.265 154.092 307.382C151.584 309.541 148.693 311.107 145.855 312.607C139.315 316.064 132.758 319.49 126.104 322.599C121.504 324.746 116.715 326.278 112.042 328.195C99.5565 333.312 87.066 338.403 74.6303 343.691C71.5488 345.003 68.5608 345.294 65.5012 344.198C64.3209 343.779 63.0747 343.066 62.1965 342.051C58.4501 337.721 59.5208 331.115 64.4866 329.441C69.7695 327.661 75.2347 326.674 80.6284 325.394C86.7462 323.942 92.8789 322.573 98.9941 321.104C100.048 320.85 101.137 320.448 102.037 319.775C102.459 319.458 102.776 318.186 102.588 317.619ZM233.119 305.36C230.243 307.168 227.988 310.382 225.289 312.681C216.13 320.485 206.477 327.279 196.526 333.491C191.479 336.64 186.401 339.609 181.002 341.794C179.129 342.553 177.531 344.264 175.711 345.285C170.386 348.283 165.018 351.152 159.66 354.059C159.159 354.327 158.626 354.543 158.091 354.686C150.216 356.777 142.829 360.995 134.828 362.535C134.465 362.607 134.077 362.65 133.756 362.841C126.583 367.09 118.678 368.405 111.128 371.135C108.152 372.21 105.042 373.049 101.958 373.28C99.5162 373.462 97.3147 374.124 95.0649 375.137C91.6125 376.691 88.0548 377.378 84.3059 377.53C77.8994 377.781 71.5068 378.688 65.1222 379.503C60.9592 380.034 56.7864 380.33 52.637 381.275C49.6307 381.956 46.4348 381.406 43.3213 381.406C37.9762 381.942 32.7144 381.72 27.5753 379.455C25.3693 378.482 23.7823 376.802 22.3832 374.7C21.5644 373.468 21.6698 371.953 22.8593 371.295C25.8546 369.635 28.8703 367.932 32.0083 366.777C39.9158 363.865 47.8981 361.252 55.8477 358.505C57.7853 357.838 59.6919 357.022 61.6423 356.412C72.1304 353.137 82.4543 349.193 92.7068 344.991C100.003 341.999 107.123 338.309 114.502 335.676C122.616 332.784 130.495 329.239 138.272 325.274C138.945 324.932 139.79 324.986 140.376 324.518C146.221 319.863 153.094 317.519 158.718 312.373C159.735 311.444 160.907 310.75 162.047 310.04C167.432 306.68 172.93 303.626 177.834 299.153C179.817 297.348 182.489 296.643 184.866 295.497C187.626 294.17 188.475 291.601 187.098 288.651C186.503 287.379 185.711 286.618 184.445 286.775C175.167 287.913 165.75 287.67 156.737 291.412C154.167 292.479 151.346 292.81 148.612 293.092C142.939 293.68 137.244 293.934 131.567 294.47C129.008 294.71 126.478 295.366 123.921 295.714C110.408 297.536 96.8112 297.704 83.2582 298.717C75.1587 299.322 67.1322 299.202 59.0838 298.3C56.3476 297.995 53.605 297.736 50.8863 297.268C43.2656 295.962 35.6539 294.564 28.0404 293.195C21.9362 292.097 16.3669 289.504 11.6591 284.501C11.3843 284.21 11.0189 284.034 10.7633 283.723C8.5337 281.005 9.0281 278.164 12.0363 277.262C14.5233 276.518 17.0929 276.167 19.6322 275.691C22.5323 275.149 25.4317 274.567 28.3463 274.171C30.6705 273.851 32.9461 272.782 35.3864 274.031C36.4854 274.596 37.9241 274.219 39.2078 274.202C40.4944 274.188 41.8105 273.834 43.0604 274.062C49.833 275.294 56.6096 274.202 63.3731 274.094C70.4819 273.98 77.6019 273.657 84.695 272.61C90.3405 271.778 96.0511 271.626 101.729 271.102C103.55 270.933 105.363 270.583 107.169 270.24C112.405 269.242 117.69 268.509 122.854 267.111C130.903 264.932 139.039 263.549 147.194 262.243C147.558 262.186 147.95 262.206 148.28 262.043C157.326 257.556 167.078 256.199 176.332 252.636C177.364 252.24 178.347 251.615 179.322 251.019C182.448 249.122 185.59 247.4 189.084 246.601C191.213 246.116 193.292 245.041 195.264 243.9C197.238 242.756 199.162 242.585 201.119 243.515C208.593 247.069 216.175 246.561 223.838 244.682C225.06 244.382 226.396 244.51 227.648 244.727C230.004 245.135 232.348 245.7 234.681 246.296C238.905 247.377 243.066 247.174 247.187 245.623C248.24 245.229 249.295 244.841 250.338 244.411C254.368 242.753 258.191 242.46 262.481 244.214C268.185 246.544 274.217 247.984 280.356 246.051C280.795 245.917 281.604 246.187 281.801 246.59C282.016 247.035 281.922 248.039 281.632 248.469C279.536 251.567 277.384 254.613 275.19 257.614C273.851 259.445 272.227 261.002 271.038 262.959C266.31 270.745 260.573 277.314 254.644 283.691C251.219 287.376 248.127 291.526 244.644 295.12C241.024 298.86 237.442 302.642 233.119 305.36ZM80.2437 123.288C79.7502 122.738 79.2657 121.813 79.2877 121.086C79.3006 120.644 80.2592 119.965 80.848 119.868C85.5457 119.104 90.2774 118.61 94.9568 117.706C98.368 117.047 101.711 115.878 105.089 114.962C105.969 114.723 106.861 114.517 107.754 114.432C107.983 114.412 108.279 114.874 108.476 115.179C108.555 115.302 108.486 115.613 108.424 115.812C108.361 116.015 108.253 116.24 108.11 116.351C103.99 119.612 99.9419 123.026 95.692 126.015C94.1921 127.073 92.1986 127.084 90.9634 127.429C86.7043 127.141 83.111 126.48 80.2437 123.288ZM65.4042 107.15C62.8356 105.841 61.2213 102.892 59.822 99.954C58.9722 98.1742 59.1745 96.2774 60.2505 94.9825C61.5169 93.4509 63.0618 92.1304 64.6716 91.1777C72.264 86.6826 80.1631 83.1516 88.3085 80.4106C93.2535 78.7449 98.15 76.8624 103.057 75.0455C103.755 74.786 104.465 74.4437 105.066 73.9559C110.618 69.4437 116.839 66.8711 123.196 64.7319C127.112 63.4142 130.757 61.4803 134.282 58.9875C144.424 51.8056 154.78 45.1286 165.824 40.1514C168.223 39.0705 170.477 37.5102 172.78 36.1269C180.337 31.5861 187.729 26.5805 195.49 22.6501C200.122 20.3056 205.314 18.8424 210.342 22.1253C210.654 22.3278 211.067 22.5903 211.364 22.499C214.942 21.4009 216.747 24.1818 218.409 27.2251C222.16 34.079 226.016 40.8559 229.589 47.8495C234.531 57.5214 239.057 67.5128 244.123 77.0848C249.185 86.654 254.398 96.2889 261.38 103.896C267.224 110.262 273.842 115.684 281.625 118.359C282.682 118.722 283.716 119.187 284.764 119.589C285.873 120.014 286.231 120.829 285.544 122.039C281.329 129.455 275.757 134.72 268.532 136.91C265.913 137.703 263.079 137.446 260.341 137.669C249.039 138.02 239.158 133.274 229.936 125.789C225.676 122.333 221.166 119.338 216.866 115.949C214.11 113.776 211.282 111.582 208.926 108.839C205.719 105.105 202.146 102.016 198.527 99.0185C193.978 95.2478 189.226 91.8337 184.517 88.354C179.875 84.9284 174.734 82.8663 169.39 82.6923C164.477 82.5326 159.52 83.4453 154.613 84.1898C148.879 85.0654 143.617 87.4356 139.103 92.0961C137.595 93.6534 135.711 94.7943 133.858 95.707C130.753 97.2387 127.898 99.1411 125.521 102.045C124.66 103.097 123.888 103.157 122.637 102.472C121.644 101.928 120.152 102.433 118.953 102.809C115.247 103.976 111.728 105.81 108.004 107.025C98.8889 109.994 89.5751 110.767 80.2657 111.568C75.0305 112.019 70.1349 109.563 65.4042 107.15ZM297.294 114.968C299.317 110.002 301.917 105.299 304.714 100.909C306.591 97.9631 309.32 95.8354 311.585 93.237C315.907 88.2827 321.423 85.4732 326.096 81.1492C326.304 80.9553 326.775 81.1778 327.125 81.2035C327.099 81.5315 327.179 81.965 327.036 82.1675C325.723 84.0272 324.403 85.884 323.032 87.6752C317.216 95.2706 313.364 111.317 318.606 123.325C321.372 129.666 325.151 135.116 331.066 137.618C332.263 138.125 333.445 138.75 334.544 139.509C334.805 139.688 334.95 140.875 334.744 141.16C334.024 142.156 333.215 143.151 332.282 143.804C326.715 147.692 321.135 151.556 315.485 155.261C314.058 156.197 312.361 156.519 310.79 157.138C308.694 157.96 306.577 158.71 304.517 159.64C299.88 161.736 295.372 164.354 290.629 165.952C286.245 167.429 281.625 167.854 277.11 168.741C270.426 168.998 263.928 167.623 257.399 166.528C251.163 165.481 245.427 162.46 239.522 160.133C237.109 159.18 234.92 157.412 232.611 156.063C226.333 152.389 220.078 148.656 213.753 145.102C207.224 141.437 201.012 137.044 195.435 131.628C188.699 125.082 180.953 121.214 173.127 117.387C171.088 116.388 168.978 115.604 166.924 114.64C161.851 112.261 156.724 111.811 151.283 112.655C144.461 113.716 138.32 117.401 131.709 119.155C126.478 123.414 120.525 125.818 114.764 128.656C107.798 132.093 100.7 135.136 93.6417 138.294C93.2012 138.49 92.6069 138.185 92.0851 138.114C92.3076 137.626 92.4302 136.87 92.7663 136.688C101.517 131.865 108.565 123.73 116.921 118.217C123.911 113.605 129.316 106.317 136.414 101.988C138.862 100.493 141.51 99.3379 143.71 97.4212C149.69 92.2187 156.757 91.8394 163.563 90.3049C166.292 89.6917 175.206 92.0704 178.514 93.9044C186.433 98.2968 193.474 104.247 199.932 111.314C202.105 113.693 204.524 115.755 206.92 117.806C211.868 122.042 216.902 126.132 221.853 130.362C228.079 135.678 234.906 139.406 242.175 142.004C242.527 142.13 242.916 142.167 243.233 142.367C250.23 146.759 257.819 146.81 265.302 146.043C271.704 145.387 277.839 142.84 282.827 137.495C288.798 131.1 293.719 123.742 297.294 114.968ZM400.484 83.4539C398.67 81.908 396.82 80.5104 394.403 80.9211C392.964 81.1636 391.438 81.4002 390.038 81.0751C383.207 79.4864 376.399 77.7465 369.941 74.4494C359.771 69.2583 359.769 69.2412 350.417 68.5167C348.047 68.3313 345.663 68.3571 343.284 68.3713C336.27 68.4198 329.328 68.8932 323.2 73.8133C321.372 75.2794 319.515 76.697 317.713 78.2058C316.203 79.4722 314.822 80.9781 313.263 82.1361C305.311 88.0516 298.548 95.399 293.923 105.396C293.29 106.759 292.612 108.094 291.921 109.412C290.62 111.882 290.233 112.184 287.863 111.468C280.666 109.298 274.05 105.738 268.248 99.9198C261.051 92.7065 255.702 83.6193 250.633 74.3467C244.55 63.2117 239.756 51.0926 233.485 40.0573C230.468 34.7493 227.943 29.0249 225.231 23.463C222.46 17.7842 218.615 13.8967 213.134 12.907C209.536 12.2567 205.83 10.9731 202.28 12.519C195.752 15.3655 188.673 16.6349 183.017 22.0997C182.594 22.5104 182.079 22.7956 181.581 23.0722C171.568 28.6312 161.548 34.1675 151.539 39.735C144.363 43.7281 137.364 48.1319 130.661 53.2146C129.577 54.0389 128.399 54.712 127.212 55.2882C119.033 59.2556 110.772 62.9863 102.666 67.1648C93.5144 71.8824 83.8893 74.7004 74.4379 78.2172C67.7806 80.6986 61.2304 82.9747 55.3852 88.2171C50.04 93.0088 49.6657 102.119 53.834 107.47C57.2084 111.805 61.0839 115.022 65.7725 116.708C68.1826 117.572 69.9783 118.987 71.1467 121.905C72.7083 125.795 75.2438 128.702 78.4726 130.698C79.6018 131.394 80.6612 132.372 81.5532 133.465C81.85 133.827 81.7318 135.116 81.425 135.675C81.0487 136.363 80.3225 136.856 79.6649 137.215C71.9628 141.425 64.4693 146.228 56.3623 149.278C55.487 149.606 54.5821 149.839 53.7388 150.259C44.0649 155.039 34.4635 160.056 24.7083 164.568C18.7972 167.304 15.8788 173.034 13.5793 179.414C12.0775 183.581 13.7349 187.551 17.1789 189.24C19.0452 190.156 21.0571 190.64 22.9069 191.596C29.0067 194.748 35.2575 195.461 41.7427 193.858C43.3434 193.464 45.0292 193.367 46.6601 193.473C47.6775 193.538 48.9045 193.923 49.6197 194.719C51.6013 196.93 53.974 198.005 56.4502 198.881C61.3704 200.62 66.2669 202.4 71.3537 203.427C77.1303 204.591 82.7575 206.775 88.6601 207.169C89.4891 207.223 90.3067 208.028 91.086 208.572C97.3037 212.931 103.831 216.239 110.923 217.922C114.383 218.741 117.766 219.322 121.283 218.618C124.179 218.039 127.107 217.66 130.033 217.357C130.861 217.275 131.992 217.429 132.534 218.053C135.634 221.613 139.386 223.892 143.183 225.911C146.526 227.688 150.161 229.374 153.864 228.392C157.434 227.446 160.333 229.451 163.391 230.637C165.618 231.499 167.82 232.945 169.656 234.71C172.957 237.89 176.684 238.29 180.597 238.176C181.883 238.136 183.169 238.024 184.455 238.019C184.74 238.019 185.027 238.318 185.313 238.481C185.142 238.809 185.032 239.305 184.786 239.442C181.621 241.213 178.519 243.241 175.23 244.593C170.902 246.37 166.434 247.662 162.006 249.065C155.989 250.968 150.011 253.184 143.907 254.522C137.419 255.942 131.1 258.675 124.393 258.58C123.868 258.575 123.345 258.974 122.808 259.117C114.739 261.307 106.615 263.081 98.3431 263.7C92.2921 264.151 86.2481 264.761 80.1989 265.229C74.5258 265.668 68.8519 266.133 63.1717 266.364C58.5831 266.55 53.9859 266.401 49.3935 266.401C49.3935 266.287 49.3935 266.173 49.3935 266.059C47.5612 266.164 45.7088 266.532 43.8992 266.33C33.936 265.226 24.0772 266.732 14.2101 267.944C10.1224 268.443 6.42642 270.48 2.98597 273.112C1.01443 274.618 0.315835 277.362 1.10046 280.155C2.17742 283.991 3.82498 287.325 6.41283 290.106C12.2011 296.321 18.9976 299.336 26.5415 299.678C34.3189 300.032 41.6977 302.961 49.3232 304.227C50.5555 304.433 51.1986 305.226 51.0729 306.971C50.6453 312.904 51.3038 318.508 54.9063 323.038C56.0665 324.495 55.7416 325.836 54.7277 327.125C52.2955 330.205 52.4495 333.916 52.7095 337.815C52.954 341.472 54.3139 344.062 56.7058 346.058C57.1507 346.435 57.5858 346.88 57.9154 347.399C58.4968 348.314 58.1754 349.056 57.409 349.504C56.7562 349.889 56.0702 350.211 55.3733 350.453C49.9017 352.35 44.4386 354.278 38.946 356.069C36.8251 356.76 34.6356 357.139 32.4746 357.641C27.5863 358.788 22.9866 360.816 18.7165 363.987C16.5563 365.593 15.3438 368.106 14.1874 370.61C12.9116 373.365 13.4665 377.612 15.6397 379.027C18.484 380.884 20.4363 383.853 22.8666 386.195C24.0901 387.37 25.2549 387.917 26.8024 388.108C33.2189 388.91 39.6474 388.687 46.0529 388.394C52.085 388.117 58.0931 387.105 64.1139 386.448C66.6671 386.166 69.2237 385.878 71.7823 385.747C77.8162 385.442 83.9104 385.909 89.7453 383.354C90.4268 383.054 91.184 382.923 91.9119 382.889C98.7178 382.561 104.97 378.639 111.783 378.394C115.063 376.238 118.965 377.273 122.341 375.145C124.729 373.642 127.55 373.146 130.179 372.205C131.581 371.7 132.988 371.218 134.387 370.699C138.938 369.004 143.42 366.951 148.049 365.687C154.358 363.962 160.357 361.26 166.24 358.163C171.263 355.519 175.956 351.974 181.313 350.225C182.71 349.769 183.992 348.799 185.329 348.069C188.497 346.343 191.658 344.606 194.836 342.904C195.841 342.367 196.951 342.079 197.899 341.435C205.26 336.418 212.682 331.526 219.9 326.218C224.445 322.875 228.646 318.837 233.068 315.228C234.078 314.407 235.517 313.323 236.488 313.634C241.423 315.203 246.271 314.165 251.212 313.896C263.923 313.203 275.588 307.941 287.331 302.833C288.02 302.533 288.697 302.18 289.37 301.826C299.95 296.284 309.13 288.226 317.614 278.843C323.074 272.807 328.091 266.378 331.818 258.549C333.93 254.108 336.284 249.833 338.42 245.403C340.368 241.362 342.32 237.306 344.004 233.099C347.693 223.877 351.496 214.696 354.724 205.232C357.952 195.769 360.772 186.071 363.325 176.302C365.046 169.731 366.012 162.866 367.287 156.126C369.202 146.04 372.937 136.788 376.108 127.273C379.025 118.536 382.522 110.205 387.586 103.02C391.262 97.8063 394.309 91.7852 399.556 88.4481C400.015 88.1543 400.355 87.5383 400.702 87.0249C401.448 85.9068 401.384 84.2183 400.484 83.4539Z" fill="#C0FFD5"/>
</svg>
