<svg width="400" height="401" viewBox="0 0 400 401" fill="none" xmlns="http://www.w3.org/2000/svg">
<path fill-rule="evenodd" clip-rule="evenodd" d="M227.533 151.517C225.647 151.439 224.368 152.453 224.277 154.097C224.177 155.892 225.3 157.511 226.772 157.69C228.535 157.905 230.326 156.135 230.312 154.191C230.3 152.756 229.082 151.586 227.533 151.517ZM154.998 124.638C152.685 123.238 149.341 125.261 149.12 128.198C149.063 128.977 149.477 130.119 150.019 130.565C151.333 131.652 152.806 131.42 154.261 130.581C155.659 129.777 156.206 128.536 156.154 126.411C155.905 126.01 155.605 125.007 154.998 124.638ZM107.789 203.555C109.364 203.619 110.385 202.335 110.424 200.246C110.448 198.817 109.103 197.448 107.713 197.492C106.431 197.533 104.943 199.062 104.95 200.329C104.96 202.098 106.185 203.489 107.789 203.555ZM103.08 234.175C104.504 234.352 105.924 232.836 106.001 231.053C106.087 229.08 105.022 227.579 103.501 227.522C101.996 227.47 100.615 228.901 100.506 230.625C100.396 232.367 101.573 233.992 103.08 234.175ZM122.213 224.444C123.833 224.469 125.331 222.944 125.497 221.106C125.659 219.305 123.91 217.526 121.999 217.546C120.524 217.563 119.457 218.943 119.397 220.919C119.331 223.147 120.345 224.415 122.213 224.444ZM241.474 191.366C242.151 190.981 242.767 190.204 243.112 189.436C243.37 188.86 243.333 187.917 243.089 187.308C242.709 186.351 241.772 186.09 240.975 186.518C237.895 188.179 234.579 188.4 231.324 188.105C228.065 187.806 224.856 186.827 221.623 186.184C220.547 185.969 219.458 185.806 218.368 185.74C217.11 185.663 216.612 186.227 216.554 187.582C216.459 189.797 217.179 191.03 219.5 191.938C223.272 193.414 227.175 194.191 231.193 193.975C232.014 193.975 232.84 194.018 233.661 193.967C236.447 193.804 239.026 192.772 241.474 191.366ZM235.154 278.625C234.877 279.605 235.095 280.462 235.91 281.008C236.746 281.569 237.926 281.227 238.456 280.314C238.607 280.061 238.747 279.787 238.844 279.502C240.014 276.051 241.263 272.624 242.309 269.126C242.916 267.096 243.442 264.961 243.565 262.842C243.742 259.801 243.519 256.73 243.467 253.671C243.44 246.371 241.26 239.848 237.495 233.955C237.1 233.339 236.558 232.815 236.009 232.359C235.137 231.639 234.207 231.808 233.289 232.341C232.247 232.942 232.021 233.982 232.302 235.079C232.514 235.927 232.9 236.814 233.43 237.45C237.735 242.615 239.082 248.905 239.06 255.721C239.053 257.418 238.747 259.122 238.87 260.795C239.135 264.43 238.381 267.819 237.328 271.183C236.558 273.646 235.86 276.137 235.154 278.625ZM286.169 156.796C286.604 155.677 286.995 154.486 287.651 153.542C290.516 149.426 293.386 145.329 297.304 142.307C302.29 138.47 307.941 136.73 313.72 135.315C314.393 135.151 314.836 135.564 314.604 136.298C314.192 137.583 313.813 138.965 313.093 140.033C311.278 142.732 309.411 145.411 307.323 147.839C305.721 149.701 303.934 151.569 301.906 152.721C298.371 154.728 294.599 156.232 290.893 157.846C290.02 158.227 289.013 158.219 288.339 158.337C287.641 158.27 287.216 158.296 286.825 158.176C286.206 157.989 285.913 157.454 286.169 156.796ZM283.135 164.455C286.362 163.779 289.634 163.185 292.749 162.068C296.402 160.757 299.964 159.059 303.451 157.256C305.288 156.308 307.062 154.993 308.553 153.466C311.902 150.033 314.934 146.255 317.588 142.103C319.285 139.455 320.308 136.441 321.532 133.535C321.82 132.853 321.976 132.071 322.057 131.316C322.272 129.258 321.32 128.051 319.515 128.013C319.104 128.005 318.674 127.984 318.285 128.1C315.643 128.898 313.004 129.71 310.372 130.553C308.399 131.188 306.451 131.933 304.467 132.521C300.56 133.677 296.839 135.578 293.781 138.32C289.835 141.853 286.213 145.954 283.348 150.706C281.483 153.8 280.642 157.405 279.884 160.431C279.795 163.535 280.997 164.905 283.135 164.455ZM245.87 161.312C243.149 163.68 239.972 165.132 236.74 166.405C236.535 166.486 236.051 166.333 236.028 166.204C235.953 165.833 235.923 165.326 236.098 165.041C236.639 164.164 237.363 163.425 237.868 162.524C239.021 160.476 240.133 158.518 240.289 155.856C240.509 152.046 240.521 148.508 237.9 145.618C237.71 145.407 237.521 145.132 237.458 144.855C237.368 144.472 237.333 144.035 237.423 143.664C237.456 143.526 237.912 143.428 238.161 143.457C241.728 143.878 245.067 145.187 248.346 146.744C250.07 147.564 250.949 148.893 250.614 151.097C250.318 155.219 248.825 158.742 245.87 161.312ZM235.505 156.751C234.853 159.22 233.386 161.467 231.31 162.778C230.065 163.566 228.505 163.732 227.088 164.179C223.368 164.077 221.319 161.901 219.807 158.396C218.307 154.926 218.617 151.946 220.767 149.076C221.028 148.726 221.289 148.164 221.603 148.115C225.007 147.566 228.367 145.207 231.854 147.116C235.367 149.037 236.591 152.65 235.505 156.751ZM216.828 145.301C216.077 147.425 215.233 149.516 214.591 151.681C213.689 154.72 213.835 157.72 215.288 160.563C215.63 161.225 215.916 161.923 216.173 162.631C216.258 162.859 216.275 163.272 216.151 163.405C215.996 163.58 215.612 163.69 215.421 163.594C212.073 161.913 208.551 160.618 205.835 157.614C204.182 155.787 202.323 154.207 200.6 152.459C200.028 151.877 199.998 151.207 200.668 150.531C202.535 148.653 204.67 147.242 207.026 146.426C209.752 145.48 212.57 144.869 215.349 144.132C215.609 144.061 215.896 144.122 216.384 144.122C216.859 144.173 217.091 144.564 216.828 145.301ZM249.6 164.502C253.551 160.37 256.14 155.608 255.958 149.223C255.833 144.841 254.135 142.392 251.525 141.228C250.509 140.776 249.549 140.159 248.518 139.771C247.239 139.29 245.886 138.558 244.612 138.659C241.819 138.887 239.156 138.352 236.446 137.831C234.028 137.365 231.558 137.22 229.11 136.935C222.307 137.123 215.756 138.924 209.165 140.359C207.161 140.794 205.033 141.354 203.342 142.537C200.315 144.653 197.217 146.573 194.058 148.407C192.644 149.227 192.228 150.884 193.068 152.323C193.814 153.591 194.682 154.832 195.693 155.838C198.351 158.477 201.094 161.013 203.851 163.529C204.587 164.202 205.435 164.799 206.319 165.18C211.18 167.27 216.084 169.23 220.938 171.336C226.049 173.553 231.226 173.439 236.277 171.522C240.286 170.003 244.105 167.85 247.984 165.916C248.593 165.613 249.102 165.023 249.6 164.502ZM222.203 103.286C217 102.838 211.796 102.382 206.589 101.991C205.237 101.891 204.184 101.598 203.909 99.8343C203.793 99.0932 203.34 98.4247 203.205 97.6816C202.126 91.8174 200.34 86.0632 200.944 79.8235C200.445 75.532 201.368 71.3328 202.496 67.1966C203.5 63.5165 204.666 59.8933 205.796 56.2565C206.182 55.0199 206.679 54.9275 207.514 55.9124C208.173 56.6889 208.782 57.5264 209.375 58.3698C213.891 64.8199 217.644 71.8145 220.452 79.3576C223.061 86.3719 224.144 93.8265 224.314 101.423C224.347 103.013 223.768 103.424 222.203 103.286ZM165.828 125.709C167.17 126.743 167.449 128.489 168.159 129.962C169.105 131.922 169.445 134.005 169.501 136.176C169.542 137.711 168.989 138.472 167.584 138.584C166.084 138.71 164.57 138.613 163.063 138.613C163.061 138.653 163.061 138.694 163.061 138.733C161.691 138.733 160.317 138.751 158.947 138.718C158.731 138.712 158.403 138.515 158.342 138.324C158.284 138.136 158.435 137.744 158.603 137.605C159.04 137.243 159.515 136.909 160.017 136.673C161.964 135.751 162.861 133.885 163.552 131.831C163.696 131.401 163.705 130.915 163.85 130.486C164.41 128.843 164.099 126.743 165.828 125.709ZM153.898 134.613C153.264 134.817 152.534 134.898 151.894 134.77C148.927 134.169 146.31 130.638 146.252 126.23C146.527 125.184 146.943 123.101 147.633 121.139C148.157 119.643 149.003 119.34 150.55 120.223C151.727 120.893 152.726 120.671 153.617 120.016C154.764 119.171 155.936 119.22 157.154 119.371C159.97 119.723 161.633 122.346 161.338 125.454C160.85 130.612 158.027 133.264 153.898 134.613ZM141.587 124.604C141.492 125.91 140.917 127.174 140.562 128.458C138.878 128.422 138.548 126.604 137.626 125.587C137.061 124.966 136.633 124.089 136.361 123.246C135.571 120.789 134.859 118.304 134.191 115.805C133.998 115.086 134.061 114.278 134.036 113.943C134.154 109.599 137.44 106.9 140.84 108.008C142.42 108.524 143.987 109.133 145.503 109.847C146.88 110.495 148.18 111.345 149.513 112.103C149.096 113.942 147.555 114.525 146.387 115.43C143.485 117.681 141.873 120.631 141.587 124.604ZM52.5829 221.704C50.5075 223.456 48.4829 225.297 46.2969 226.86C41.5969 230.218 36.5127 230.182 31.2372 228.888C25.4196 227.462 22.6055 222.745 20.6231 217.142C19.0968 212.826 18.3248 208.308 18.8967 203.499C18.4915 198.132 19.9353 192.933 21.1161 187.752C22.209 182.956 25.3477 179.6 28.86 176.791C29.6038 176.195 30.6302 175.995 31.5565 175.751C32.7635 175.43 33.3828 176.162 33.0004 177.511C32.2425 180.192 31.9758 182.844 32.3512 185.68C32.7828 188.942 33.5144 191.981 35.3162 194.643C35.8074 195.37 36.3232 196.165 36.539 197.018C37.6039 201.25 40.3723 204.436 42.0092 208.327C42.6092 209.753 44.0723 210.728 45.1601 211.888C47.6302 214.532 50.1127 217.162 52.5917 219.795C53.1987 220.438 53.2706 221.123 52.5829 221.704ZM37.2653 239.624C35.953 243 34.2319 246.175 32.66 249.419C32.3161 250.129 31.8459 250.085 31.4372 249.421C30.1266 247.28 29.8284 244.879 30.0021 242.393C30.0442 241.437 30.0547 240.511 30.1372 239.593C30.5758 234.771 30.5793 234.869 34.7933 235.014C38.8425 235.154 38.753 235.799 37.2653 239.624ZM43.7496 178.214C44.9022 178.7 46.0039 179.333 47.139 179.867C48.1952 180.365 48.5583 181.23 48.3373 182.398C47.8969 185.649 46.611 187.275 44.0443 187.859C43.0864 188.075 42.4302 187.659 42.1828 186.6C41.7355 184.67 41.2548 182.739 40.9267 180.782C40.6074 178.873 42.1162 177.528 43.7496 178.214ZM60.0391 218.416C60.9953 211.369 62.4041 204.545 66.8216 198.933C68.8953 196.299 70.5023 193.2 72.3287 190.324C74.8234 186.39 78.1024 183.847 82.4182 183.064C85.6621 182.476 88.8849 181.739 92.1305 181.159C97.599 180.18 103.078 181.338 108.552 181.161C111.839 182.792 115.476 182.708 118.908 183.886C124.043 185.653 128.943 187.975 133.894 190.198C135.538 190.935 137.083 191.971 138.624 192.972C139.976 193.855 139.947 194.625 138.513 195.634C136.773 196.858 134.948 197.932 133.213 199.163C131.941 200.065 130.669 201.007 129.555 202.127C128.478 203.212 128.427 204.504 129.082 205.904C129.603 207.02 130.489 207.62 131.429 207.152C132.526 206.602 133.613 205.894 134.508 205.005C136.783 202.748 139.191 200.733 141.952 199.29C143.47 198.498 144.712 198.858 145.312 200.596C146.794 204.897 148.238 209.238 147.985 213.982C147.861 216.368 147.424 216.865 145.227 217.05C143.454 217.2 141.675 217.292 139.901 217.451C139.362 217.5 138.801 217.599 138.31 217.83C137.017 218.446 136.331 220.282 136.803 221.685C137.199 222.871 138.403 223.526 139.871 223.32C141.638 223.074 143.399 222.755 145.171 222.553C146.189 222.441 146.766 223.142 146.475 224.226C145.013 229.683 143.412 235.077 140.098 239.581C139.205 240.795 138.257 241.895 136.85 242.265C135.406 242.644 134.576 243.511 133.913 245.093C133.108 247.006 131.548 246.971 130.268 245.408C128.61 243.385 126.899 241.413 125.269 239.361C124.096 237.881 122.455 237.535 120.922 236.931C120.059 236.591 119.152 236.892 118.82 237.816C118.541 238.597 118.417 239.742 118.738 240.427C119.155 241.319 120.048 241.958 120.789 242.636C122.918 244.58 125.104 246.448 127.206 248.428C128.222 249.387 128.036 250.455 126.799 250.761C121.461 252.086 116.218 254.223 110.634 253.311C105.634 253.539 100.713 252.92 95.9341 251.563C91.692 250.362 87.5937 248.528 83.4112 247.052C80.5199 246.032 77.7094 244.865 75.1498 243.002C72.0094 240.712 69.3322 237.83 66.9813 234.633C65.8848 233.141 65.3023 231.13 64.6514 229.284C63.8953 227.124 63.1935 225.028 61.4918 223.465C60.1286 222.215 59.7865 220.276 60.0391 218.416ZM93.2762 257.166C92.6341 258.33 92.0271 259.602 91.1376 260.49C89.7463 261.88 88.7954 263.904 86.8252 264.513C85.2287 262.722 86.4568 260.49 86.0902 258.886C86.0902 258.358 86.0796 258.202 86.0902 258.05C86.2235 256.242 86.3621 254.434 86.4954 252.627C88.5674 252.236 90.0972 253.746 91.8253 254.546C92.2007 254.717 92.5411 254.988 92.8955 255.218C93.6516 255.709 93.6586 256.474 93.2762 257.166ZM106.72 290.591C103.948 289.826 100.99 289.88 98.4201 288.247C97.8306 287.874 97.1867 287.486 96.7797 286.92C96.5376 286.58 96.4885 285.648 96.7218 285.365C99.1517 282.441 101.648 279.587 104.141 276.73C104.689 276.104 105.492 276.198 105.818 276.975C106.227 277.936 106.611 278.936 106.832 279.966C107.443 282.807 107.964 285.67 108.518 288.522C108.817 290.059 108.194 290.775 106.72 290.591ZM57.0812 275.423C56.1268 276.257 55.111 277.012 54.0584 277.684C53.8566 277.814 53.2286 277.544 53.0847 277.267C52.7461 276.623 52.4724 275.882 52.3742 275.144C52.1759 273.644 51.4882 272.608 50.2987 271.985C49.0373 271.316 48.9233 270.192 49.3163 268.922C49.9356 266.919 50.604 264.931 51.3127 262.964C51.4408 262.616 51.8672 262.207 52.1724 262.187C52.4759 262.17 52.9356 262.529 53.0935 262.862C53.5338 263.803 53.8321 264.824 54.2268 265.794C55.1251 268.004 56.0584 270.2 56.9549 272.411C57.1777 272.96 57.3128 273.55 57.4777 274.089C57.3391 274.595 57.3409 275.195 57.0812 275.423ZM399.647 164.367C399.485 163.826 398.692 163.327 398.129 163.218C397.775 163.15 397.045 163.761 396.927 164.213C396.008 167.748 395.119 171.296 394.368 174.878C393.266 180.134 391.885 185.284 390.083 190.293C388.387 194.999 386.887 199.8 384.447 204.128C383.266 206.222 382.711 206.482 380.91 205.031C379.238 203.686 377.65 202.183 376.162 200.588C369.776 193.748 362.345 188.456 355.208 182.726C353.545 181.393 351.636 180.429 350.776 178.092C350.532 177.43 349.922 176.858 349.362 176.439C344.995 173.168 341.292 169.027 337.394 165.137C336.585 164.329 335.455 163.826 334.844 162.882C333.42 160.696 331.487 159.263 329.58 157.757C329.018 157.317 328.399 156.961 327.85 156.503C326.813 155.632 326.685 154.954 327.581 153.869C329.78 151.205 331.022 147.989 332.169 144.67C332.908 142.529 333.806 140.446 334.792 138.431C335.99 135.973 336.871 133.427 337.315 130.669C337.992 126.466 338.406 122.2 339.969 118.219C340.716 116.31 340.173 115.29 338.474 114.919C337.937 114.805 337.381 114.779 336.832 114.749C332.025 114.492 327.22 114.195 322.411 114.026C320.771 113.967 319.085 114.04 317.481 114.402C313.039 115.404 308.548 116.287 304.227 117.773C297.3 120.154 289.999 121.589 284.083 126.828C283.4 127.433 282.995 127.052 282.423 126.419C281.565 125.466 280.562 124.549 279.467 124.007C273.316 120.968 267.028 118.247 261.344 114.128C261.114 113.963 260.853 113.835 260.591 113.755C255.561 112.204 250.547 110.588 245.497 109.137C240.847 107.802 236.16 106.652 231.491 105.398C230.609 105.162 230.196 104.531 230.024 103.461C228.83 96.0598 227.579 88.6681 226.3 81.2822C226.145 80.3936 225.731 79.5522 225.388 78.7128C224.703 77.0359 223.938 75.3944 223.282 73.7017C221.414 68.8932 219.252 64.2615 216.63 59.9169C214.175 55.8436 211.589 51.8725 209.156 47.7855C207.165 44.4356 205.137 44.3393 203.217 47.6911C202.935 48.1865 202.826 48.8195 202.687 49.4034C202.116 51.7782 201.665 54.1942 200.989 56.5297C199.849 60.489 198.515 64.3776 197.377 68.3388C196.837 70.232 196.289 72.2077 196.214 74.1696C195.984 80.1754 195.991 86.1851 197.345 92.0907C197.887 94.4694 198.21 96.9149 198.614 99.331C198.954 101.344 198.777 101.653 196.73 101.765C192.887 101.975 189.036 102.001 185.198 102.254C183.572 102.36 181.901 102.634 180.363 103.208C173.852 105.64 167.243 107.66 160.592 109.524C158.538 110.1 156.642 109.964 154.599 108.962C149.943 106.681 145.163 104.714 140.408 102.691C137.641 101.513 135.099 102.362 132.645 103.98C130.09 105.661 128.58 107.902 128.88 111.407C128.957 112.3 128.587 113.232 128.575 114.148C128.561 115.052 128.575 116.033 128.855 116.857C130.227 120.881 131.583 124.923 133.187 128.833C133.79 130.3 134.883 131.684 136.052 132.651C137.483 133.836 138.91 134.916 139.98 136.571C140.655 137.615 142.12 137.945 142.227 139.559C141.038 139.856 139.852 140.194 138.654 140.43C137.982 140.562 137.285 140.508 136.601 140.569C131.954 140.988 127.294 141.281 122.662 141.871C117.762 142.496 112.889 143.365 108.01 144.193C102.85 145.069 97.6657 145.838 92.5516 146.988C85.3025 148.616 78.0813 150.401 70.8831 152.308C67.2304 153.273 63.7883 154.702 60.4619 156.574C56.9075 158.571 53.4338 160.773 49.797 162.564C46.7531 164.063 43.8987 165.737 41.3565 168.192C39.6793 169.812 37.6758 170.474 35.2495 169.781C30.4424 168.406 26.3108 169.969 23.0582 174.247C21.9898 175.654 20.9406 177.082 19.8494 178.468C18.9511 179.608 18.4248 179.697 17.3932 178.814C15.5371 177.226 13.7423 175.548 11.8862 173.962C10.316 172.621 8.80895 172.712 7.99666 174.107C7.26157 175.367 7.60369 176.908 8.93001 178.1C9.78791 178.869 10.7055 179.555 11.5616 180.327C12.9476 181.576 14.302 182.871 15.6757 184.139C16.3739 184.782 16.5862 185.437 16.309 186.532C15.5651 189.486 14.9616 192.493 14.4037 195.498C14.1932 196.639 13.6967 196.988 12.7335 196.99C9.16509 196.998 5.59491 197.008 2.02997 197.148C1.47383 197.171 0.677331 197.753 0.470312 198.3C0.259785 198.862 0.514171 199.774 0.798384 200.397C1.02646 200.891 1.55803 201.329 2.04225 201.531C3.3212 202.063 4.59489 202.349 6.04753 202.212C8.06859 202.023 10.1441 202.296 12.1704 202.579C12.6739 202.65 13.4055 203.474 13.4914 204.05C14.0722 207.996 14.502 211.967 14.9967 215.928C15.1529 217.184 14.7125 217.931 13.6546 218.416C9.59316 220.284 5.55279 222.209 1.50715 224.117C0.429946 224.627 -0.234954 225.734 0.077329 226.556C0.493121 227.644 1.40364 227.641 2.18785 227.43C4.72296 226.748 7.22999 225.94 9.75281 225.201C11.6107 224.653 13.4616 224.058 15.3423 223.642C16.4897 223.39 17.6599 223.748 18.0389 225.152C18.6968 227.597 20.4143 228.846 22.1319 230.127C23.274 230.976 24.9599 231.493 25.4722 232.671C26.0705 234.045 25.681 235.97 25.6652 237.66C25.6582 238.579 25.4827 239.495 25.4792 240.413C25.4634 245.679 25.4669 250.927 29.0249 255.143C29.66 255.898 29.9284 257.027 30.4196 257.948C30.7635 258.596 31.1284 259.261 31.6038 259.781C32.381 260.626 33.4951 260.534 34.1232 259.547C34.753 258.552 35.574 257.502 35.7337 256.376C36.2881 252.464 38.1916 249.196 39.5091 245.66C42.4653 237.73 48.5636 230.582 55.2672 226.917C56.7409 226.109 57.6935 226.547 58.5058 228.281C60.5409 232.634 62.4602 237.087 66.1497 240.104C66.5883 240.464 66.9848 240.922 67.3269 241.398C70.0146 245.125 73.5427 247.524 77.5304 248.9C79.7024 249.645 80.6234 251.221 81.2094 253.309C81.4919 254.32 81.6322 255.442 81.5796 256.498C81.3936 260.333 81.4235 264.185 80.1901 267.898C79.2814 270.632 81.148 272.903 83.5954 272.186C84.7691 271.842 85.9288 271.283 86.9849 270.605C91.7165 267.583 95.3674 263.251 98.4394 258.291C98.9833 257.412 99.5657 256.948 100.429 257.001C102.485 257.125 104.539 257.345 106.597 257.502C108.652 257.663 110.71 257.962 112.762 257.905C118.145 257.754 123.404 256.887 128.473 254.61C131.094 253.431 133.778 253.38 136.101 255.879C137.584 257.473 139.224 258.906 140.894 260.253C142.894 261.863 144.998 263.315 147.068 264.817C147.822 265.364 148.608 265.531 149.277 264.655C149.966 263.746 150.156 262.828 149.422 261.759C148.373 260.225 147.789 258.222 145.561 258.151C144.848 258.13 144.075 257.448 143.47 256.883C142.098 255.607 140.898 254.08 139.473 252.894C136.662 250.551 136.676 250.101 139.871 247.864C141.292 246.869 142.72 246.13 144.377 245.731C148.801 244.665 153.177 243.513 157.713 242.909C166.042 241.801 174.38 241.03 182.745 240.549C184.929 240.423 187.131 240.743 189.324 240.733C194.128 240.715 198.928 240.539 203.728 240.596C205.917 240.625 208.161 240.795 210.273 241.384C212.507 242.009 214.626 243.177 216.766 244.187C217.056 244.323 217.326 244.919 217.319 245.296C217.314 245.546 216.809 245.98 216.509 245.998C211.996 246.261 208.037 248.418 204.033 250.459C202.408 251.288 200.772 252.011 199.83 253.942C199.542 254.54 198.83 254.95 198.237 255.275C193.97 257.595 189.658 258.324 185.201 255.806C181.757 253.862 178.214 253.458 174.433 254.789C170.971 256.01 168.052 258.21 165.019 260.286C162.457 262.045 160.829 264.642 159.217 267.3C156.845 271.204 159.199 276.912 162.308 278.225C164.442 279.129 166.385 279.577 168.643 278.512C174.349 275.816 180.236 274.897 186.287 277.114C186.545 277.21 186.826 277.246 187.096 277.285C190.121 277.708 193.112 277.785 196.075 276.696C199.73 275.355 203.47 274.293 207.079 272.817C209.221 271.938 211.388 271.969 213.565 271.776C213.791 271.755 214.245 272.028 214.237 272.133C214.207 272.54 214.145 273.096 213.896 273.312C209.858 276.861 205.396 279.919 200.47 281.136C192.87 283.021 185.277 285.253 177.373 285.379C169.978 285.498 162.626 287.081 155.191 286.295C154.387 286.21 153.556 286.495 152.736 286.541C148.896 286.765 145.057 287.044 141.215 287.158C136.434 287.302 131.605 286.873 126.878 287.49C122.983 288.001 119.201 287.411 115.368 287.425C114.02 287.429 113.436 286.554 113.185 285.178C112.799 283.066 112.357 280.967 111.932 278.867C110.922 273.868 109.462 271.501 106.034 268.838C104.392 267.562 102.748 267.731 101.627 270.009C100.571 272.162 99.3955 274.279 98.0183 276.178C95.5937 279.52 92.613 281.592 88.4954 281.661C85.4165 281.708 82.5112 281.163 79.5901 280.323C75.3234 279.098 71.1638 277.568 67.1708 275.435C64.9567 274.254 63.2935 272.504 62.1146 270.21C60.9602 267.961 59.7023 265.667 59.0847 263.203C58.0847 259.221 55.9128 256.069 54.0093 252.707C53.3128 251.479 51.7636 251.21 50.7812 252.127C50.2724 252.601 49.8355 253.26 49.5566 253.932C46.4127 261.487 44.0636 269.374 42.5285 277.501C41.4478 283.22 40.96 289.09 42.9829 294.8C43.232 295.497 43.1951 296.318 43.3215 297.073C44.3004 302.932 47.3531 307.558 50.925 311.596C53.0163 313.957 55.697 315.632 57.29 318.651C57.9514 319.908 59.6865 319.619 60.4216 318.36C60.6479 317.975 60.8567 317.558 60.9777 317.125C61.1409 316.542 61.1795 315.919 61.3251 315.329C61.5479 314.413 62.2303 314.208 62.7496 314.989C65.1584 318.602 68.0918 321.555 71.5059 323.914C73.7252 325.451 76.0252 326.843 78.2217 328.42C81.2673 330.602 81.5498 330.569 82.7568 326.776C83.0147 325.968 82.8743 325.009 82.9726 324.128C83.02 323.706 83.1971 323.3 83.3164 322.886C83.6779 323.092 84.1095 323.212 84.3884 323.513C86.1691 325.426 87.9393 327.354 89.6692 329.326C91.9183 331.89 94.5534 333.786 97.4675 335.257C98.5692 335.811 99.6727 336.014 100.531 335.035C101.299 334.156 101.739 332.956 101.385 331.632C101.106 330.602 100.746 329.596 100.481 328.561C100.424 328.333 100.543 327.915 100.71 327.781C100.867 327.655 101.252 327.687 101.431 327.822C102.674 328.776 104.083 329.582 105.076 330.806C106.832 332.971 108.996 333.932 111.427 334.73C115.834 336.177 115.864 336.358 117.94 331.453C118.45 330.242 118.983 330.176 119.806 330.616C123.397 332.54 126.973 334.506 130.552 336.462C131.947 337.227 133.412 337.625 134.948 337.316C135.448 337.215 136.041 336.873 136.324 336.429C136.931 335.471 137.436 334.41 137.85 333.329C138.601 331.363 138.548 331.388 140.159 331.949C141.062 332.261 142.024 332.367 142.95 332.603C146.226 333.437 149.517 332.749 152.798 332.788C158.15 332.857 163.498 333.219 168.849 333.407C170.357 333.461 171.873 333.402 173.382 333.297C179.561 332.88 185.733 332.395 191.914 332.006C193.417 331.909 194.931 332.133 196.44 332.106C199.87 332.037 203.321 332.125 206.723 331.742C212.724 331.062 218.7 330.093 224.681 329.212C226.031 329.011 227.395 328.787 228.71 328.394C231.893 327.445 235.074 326.458 238.219 325.353C241.493 324.205 244.847 323.194 247.953 321.604C252.637 319.2 257.73 318.541 262.558 316.795C262.876 316.678 263.647 317.195 263.8 317.608C264.326 319.021 264.662 320.523 265.095 321.986C265.356 322.874 265.665 323.77 266.672 323.859C267.672 323.944 268.009 323.004 268.546 322.31C269.567 320.99 269.658 319.695 269.086 318.052C268.446 316.204 268.186 314.193 267.683 312.28C267.226 310.542 266.223 309.7 264.637 309.865C263.7 309.962 262.67 310.188 261.898 310.741C260.121 312.003 258.142 312.568 256.183 313.249C253.43 314.2 250.658 315.095 247.933 316.141C240.146 319.115 232.524 322.595 224.258 323.872C217.859 324.862 211.498 326.114 205.037 326.466C201.196 326.674 197.349 326.757 193.505 326.951C190.761 327.089 188.022 327.362 185.279 327.495C182.119 327.649 178.959 327.745 175.8 327.814C172.235 327.895 168.67 328.015 165.108 327.94C160.296 327.838 155.487 327.585 150.678 327.358C148.894 327.276 147.084 327.27 145.34 326.898C142.94 326.387 140.485 325.848 138.247 324.802C135.482 323.509 135.626 323.359 133.738 325.43C132.633 326.645 132.424 327.997 132.38 329.59C132.347 330.837 131.685 331.276 130.74 330.837C127.166 329.176 123.724 327.299 121.082 323.962C120.468 323.184 119.631 322.509 118.776 322.117C116.371 321.008 114.485 322.039 113.669 324.777C113.41 325.652 113.289 326.574 113.08 327.47C112.883 328.316 112.466 328.866 111.615 328.459C107.904 326.694 104.38 324.796 102.881 320.004C102.057 317.367 99.1183 317.112 97.5938 319.316C97.2657 319.789 97.0885 320.397 96.8464 320.944C96.0481 322.744 95.4429 324.588 95.4183 326.651C95.4078 327.541 94.5534 327.93 93.9429 327.423C93.5025 327.059 93.0464 326.688 92.699 326.222C89.9622 322.569 86.9165 319.198 84.8165 314.967C83.5919 312.502 81.0252 312.386 79.462 314.436C78.0919 316.237 77.9042 318.278 77.9586 320.491C77.9884 321.706 77.3287 322.088 76.3182 321.526C73.3252 319.86 70.6673 317.708 68.7059 314.621C67.5111 312.74 66.3269 310.843 65.2181 308.899C64.4584 307.568 63.4234 307.157 62.0813 307.151C60.7479 307.147 59.7321 307.698 58.776 308.702C57.2023 310.352 57.183 310.286 55.797 308.458C54.4654 306.705 52.9987 305.069 51.7584 303.239C50.6899 301.664 49.511 300.013 48.9987 298.178C47.8952 294.228 46.9566 290.179 46.418 286.088C46.1513 284.072 46.9075 281.879 47.2355 279.77C47.2759 279.51 47.5829 279.064 47.6601 279.089C48.0267 279.214 48.4741 279.38 48.6741 279.705C49.1408 280.454 49.3759 281.409 49.9022 282.09C50.7373 283.169 51.8865 283.889 53.1777 283.434C54.8619 282.843 56.8251 282.427 58.0461 281.177C60.4672 278.701 62.7023 279.233 65.1567 280.672C65.7655 281.028 66.3602 281.418 66.976 281.759C70.9357 283.963 75.2042 285.151 79.4515 286.348C82.106 287.096 84.8428 287.49 87.5463 288.027C88.0779 288.131 88.6621 288.314 89.1516 288.166C90.6323 287.722 91.4358 288.461 92.1744 289.802C93.6042 292.401 95.7025 294.105 98.3657 294.801C100.503 295.359 102.685 295.692 104.82 296.254C108.45 297.212 111.859 296.824 115.055 294.554C115.496 294.243 116.078 294.095 116.608 294.036C122.196 293.449 127.789 292.887 133.38 292.334C133.785 292.295 134.212 292.315 134.608 292.417C138.552 293.411 142.564 292.824 146.503 292.715C152.522 292.548 158.524 291.575 164.573 292.23C165.103 292.288 165.656 292.039 166.201 292.007C167.842 291.918 169.484 291.848 171.126 291.805C172.359 291.775 173.594 291.799 175.238 291.799C182.531 291.441 190.114 290.197 197.542 287.842C198.068 287.675 198.614 287.577 199.158 287.474C203.393 286.676 207.31 284.97 211.103 282.707C214.645 280.595 217.71 277.798 220.91 275.162C222.189 274.106 223.249 272.899 223.909 271.456C225.212 268.608 226.716 265.807 226.972 262.472C227.174 259.865 227.57 257.274 227.754 254.664C227.837 253.462 227.788 252.179 227.507 251.022C226.019 244.865 222.331 240.692 217.498 237.696C213.91 235.473 209.989 234.884 205.917 235.052C201.531 235.227 197.121 235.51 192.751 235.205C189.449 234.974 186.18 234.844 182.891 235.099C181.105 235.237 179.322 235.368 177.54 235.514C170.708 236.07 163.871 236.576 157.045 237.217C154.171 237.484 151.324 238.079 148.457 238.449C147.817 238.531 147.422 237.997 147.678 237.261C148.482 234.977 149.408 232.746 150.156 230.44C150.859 228.272 151.591 226.076 151.957 223.825C152.326 221.55 153.515 221.033 155.291 220.512C162.498 218.406 169.831 217.191 177.205 216.189C178.024 216.079 178.861 216.024 179.65 215.78C181.033 215.358 182.089 213.301 181.794 211.792C181.598 210.779 180.168 210.107 178.64 210.356C178.242 210.423 177.872 210.693 177.475 210.777C175.457 211.204 173.438 211.606 171.417 212.006C168.58 212.566 165.735 213.073 162.906 213.688C160.48 214.22 158.085 214.929 155.657 215.448C153.701 215.864 153.161 215.352 153.098 213.107C152.943 207.649 152.001 202.465 149.387 197.729C148.159 195.506 148.333 195.141 150.145 193.52C152.857 191.093 155.898 189.333 159.126 187.935C159.733 187.674 160.485 187.234 160.729 186.646C161.229 185.445 161.521 184.102 161.689 182.785C161.728 182.474 160.971 181.796 160.519 181.711C159.891 181.59 159.122 181.693 158.556 182.014C156.122 183.394 153.696 184.803 151.352 186.365C149.582 187.542 147.94 188.96 146.245 190.277C145.487 190.866 144.75 190.902 143.955 190.336C141.978 188.932 140.012 187.513 137.989 186.197C136.806 185.431 135.562 184.747 134.282 184.214C130.952 182.832 127.552 181.647 124.24 180.21C119.634 178.214 115.094 176.015 109.973 176.62C109.571 176.665 109.152 176.545 108.743 176.484C101.62 175.426 94.513 174.982 87.4691 177.149C87.0762 177.27 86.6621 177.357 86.2551 177.373C82.3814 177.516 78.7235 178.749 75.148 180.264C74.0813 180.717 73.4568 180.76 72.6866 179.744C70.6094 176.995 67.9795 175.118 65.0742 173.573C61.2356 171.532 57.4882 169.313 53.1268 169.004C52.9724 168.992 52.6496 168.149 52.7566 167.99C53.1566 167.394 53.6496 166.828 54.204 166.413C59.0198 162.786 64.2777 160.203 69.7445 158.072C72.6146 156.953 75.7234 156.814 78.4971 155.724C84.9217 153.2 91.7551 153.194 98.2078 151.063C98.4675 150.977 98.7534 150.941 99.0236 150.947C102.641 151.01 106.099 150.014 109.575 149.056C113.441 147.991 117.317 146.878 121.376 147.729C122.013 147.863 122.719 147.56 123.396 147.485C128.962 146.864 134.412 144.831 140.11 145.773C140.778 145.885 141.499 145.809 142.166 145.657C146.219 144.731 150.334 144.788 154.426 144.442C159.663 143.994 164.85 144.216 170.061 144.254C172.371 144.269 174.278 142.297 174.356 139.75C174.405 138.22 174.27 136.679 174.138 135.148C173.607 128.906 170.894 123.814 167.412 119.112C166.543 117.938 165.81 116.639 165.014 115.398C165.728 113.527 167.508 113.822 168.784 113.214C173.201 111.105 177.843 109.727 182.529 108.581C182.754 108.525 183.128 108.651 183.252 108.838C183.35 108.993 183.245 109.42 183.114 109.636C182.649 110.391 182.129 111.103 181.635 111.838C180.082 114.144 179.996 116.641 180.812 119.291C181.619 121.915 183.254 123.012 185.575 121.927C187.836 120.867 190.296 119.78 192.014 117.934C195.249 114.451 199.428 113.326 203.247 111.305C204.066 110.875 205.131 110.916 206.077 110.947C206.503 110.959 207.014 111.402 207.293 111.81C207.407 111.981 207.119 112.756 206.84 112.959C202.81 115.923 201.761 121.264 199.028 125.263C197.903 126.905 199.407 129.509 201.284 129.389C202.335 129.319 203.444 128.979 204.386 128.446C208.307 126.222 212.166 123.861 216.066 121.591C218.491 120.175 220.942 118.815 223.395 117.46C223.802 117.236 224.205 116.322 224.7 117.215C224.812 117.423 224.46 118.042 224.223 118.386C223.635 119.238 222.882 119.969 222.396 120.881C221.554 122.46 220.667 124.066 220.152 125.79C219.451 128.151 220.924 129.867 223.044 129.244C224.489 128.819 225.856 128.033 227.256 127.414C229.039 126.623 230.772 125.578 232.619 125.098C238.496 123.578 244.416 122.255 250.328 120.903C251.1 120.726 252.105 120.49 252.695 120.873C254.879 122.291 257.214 121.903 259.528 122.027C261.288 122.12 263.067 122.295 264.783 122.701C266.102 123.012 267.384 123.653 268.607 124.317C271.821 126.063 275.016 127.854 278.169 129.732C279.337 130.427 279.377 131.157 278.398 132.291C275.321 135.857 272.632 139.718 270.826 144.279C269.325 148.071 267.919 151.915 265.93 155.441C265.653 155.935 265.419 156.692 265.558 157.189C265.786 158.011 266.212 158.878 266.784 159.428C267.412 160.036 268.011 159.352 268.546 158.846C270.493 157.004 271.819 154.602 272.686 152.031C273.767 148.83 275.237 145.925 276.865 143.078C279.411 138.625 282.83 135.069 286.351 131.638C288.453 129.59 291.009 128.428 293.567 127.292C301.874 123.61 310.202 120.024 319.308 119.782C319.718 119.77 320.123 119.621 320.532 119.607C324.376 119.477 328.22 119.338 332.064 119.265C332.992 119.245 333.487 119.761 333.481 120.983C333.441 131.231 329.913 140.278 325.276 148.708C320.092 158.127 313.171 165.863 304.544 171.426C297.555 175.932 290.088 178.017 282.004 175.903C281.2 175.69 280.398 175.458 279.583 175.346C278.67 175.222 278.053 175.747 277.593 176.64C277.042 177.713 277.079 178.659 277.769 179.618C278.497 180.636 279.418 181.238 280.576 181.338C281.667 181.436 282.813 181.303 283.842 181.625C286.588 182.486 289.26 182.311 291.997 181.601C294.002 181.077 296.064 180.84 298.093 180.424C299.171 180.201 300.309 180.058 301.29 179.559C306.944 176.673 312.199 173.066 316.725 168.243C318.716 166.122 320.618 163.889 322.63 161.791C323.079 161.325 323.937 160.838 324.409 161.015C325.56 161.457 326.713 162.123 327.644 162.994C328.609 163.899 327.42 164.96 327.432 165.972C327.446 167.048 327.52 168.121 327.56 169.197C327.737 173.632 326.565 177.731 324.837 181.615C324.248 182.942 323.215 184.088 322.208 185.093C320.979 186.318 319.658 187.495 318.216 188.366C314.109 190.843 311.195 194.643 308.337 198.64C305.732 202.281 304.978 206.273 305.385 210.749C305.523 212.268 305.637 213.824 305.472 215.324C305.304 216.856 305.097 218.295 305.369 219.879C305.683 221.699 305.49 223.752 304.355 225.134C301.962 228.045 299.557 230.89 296.106 232.542C293.116 233.971 290.006 235.793 287.785 238.351C284.855 241.724 282.642 245.963 281.327 250.541C280.279 254.192 279.59 257.97 278.769 261.697C277.965 265.366 278.325 269.059 278.73 272.732C278.888 274.159 280.321 275.388 281.32 275.248C282.362 275.105 283.625 273.755 283.827 272.512C283.899 272.066 283.867 271.592 283.87 271.132C283.895 268.201 284.863 265.749 286.774 263.734C287.369 263.109 287.874 262.362 288.383 261.637C289.879 259.503 291.755 258.073 294.149 257.487C296.995 256.789 299.676 255.584 302.151 253.875C303.548 252.908 304.793 251.66 306.185 250.681C310.195 247.859 313.625 244.427 315.992 239.752C316.457 238.829 317.116 237.995 317.806 237.257C319.474 235.473 320.299 233.202 320.79 230.791C321.155 228.997 321.278 227.139 321.458 225.305C321.909 220.721 323.243 216.759 326.532 213.588C330.267 209.985 333.697 205.977 337.202 202.078C337.964 201.231 338.52 200.14 339.111 199.115C340.378 196.92 340.904 194.32 341.945 192.06C342.918 189.937 343.604 187.944 343.759 185.582C343.866 183.919 344.302 182.274 344.659 180.636C344.813 179.915 345.295 179.674 345.876 180.143C347.211 181.224 348.525 182.335 349.85 183.434C351.481 184.788 352.488 186.406 352.217 188.887C352.017 190.711 352.376 192.624 352.092 194.419C351.618 197.431 351.271 200.625 350.085 203.309C347.446 209.277 343.874 214.501 338.75 218.254C337.311 219.305 335.864 220.894 335.195 222.615C333.783 226.251 332.411 230.01 332.715 234.157C333.057 238.801 331.346 242.53 328.551 245.756C327.595 246.857 326.544 247.858 325.599 248.972C322.66 252.425 319.571 255.666 315.89 258.133C311.318 261.196 307.702 265.436 304.799 270.334C303.388 272.712 302.59 275.592 301.749 278.335C301.146 280.305 302.107 282.202 303.653 282.848C304.879 283.36 306.018 282.736 306.993 280.983C307.209 280.595 307.274 280.078 307.535 279.747C308.716 278.25 309.734 276.43 311.193 275.416C314.302 273.247 317.485 271.193 321.192 270.297C323.437 269.756 325.709 268.788 327.678 267.471C333.137 263.817 338.034 259.301 342.204 253.909C344.734 250.639 346.82 247.006 347.323 242.52C347.46 241.304 347.862 240.124 347.987 238.905C348.28 236.021 349.492 233.621 351.148 231.531C352.508 229.813 354.025 228.232 355.587 226.736C361.827 220.758 367.166 214.041 370.117 205.269C370.659 203.668 371.324 203.456 372.501 204.651C374.939 207.123 377.28 209.721 379.632 212.299C380.248 212.975 379.931 213.732 379.529 214.386C377.969 216.918 376.355 219.412 374.832 221.967C372.239 226.32 369.732 230.733 367.129 235.076C363.989 240.314 360.801 245.518 357.599 250.712C356.743 252.102 355.718 253.364 354.86 254.758C350.445 261.929 345.118 268.097 338.774 273.145C334.515 276.53 330.106 279.693 326.002 283.298C320.893 287.791 315.111 291.013 309.588 294.701C305.471 297.453 301.132 299.803 297.088 302.73C295.474 303.897 293.837 305.028 292.176 306.113C287.66 309.064 283.158 312.024 279.179 315.885C277.732 317.291 276.093 318.449 274.53 319.7C270.958 322.558 267.612 325.599 264.986 329.682C262.233 333.975 259.893 338.395 258.469 343.459C257.618 346.479 257.391 349.889 254.912 352.095C254.821 352.177 254.805 352.37 254.758 352.516C254.267 353.99 255.267 355.366 256.661 355.213C258.005 355.066 259.104 354.268 259.758 353.145C260.949 351.106 261.9 348.891 262.872 346.703C264.462 343.124 265.714 339.321 267.602 335.957C270.77 330.301 275.67 326.381 279.895 321.794C281.158 320.424 283.048 319.772 284.272 318.374C286.541 315.783 289.323 314.216 292.093 312.533C295.595 310.402 299.151 308.337 302.451 305.855C307.023 302.419 311.664 299.207 316.674 296.596C319.634 295.053 322.539 293.294 325.132 290.893C328.297 287.958 331.687 285.304 335.095 282.719C340.222 278.831 345.132 274.668 349.546 269.791C350.813 268.394 352.236 267.129 353.331 265.578C356.741 260.75 360.069 255.845 363.352 250.906C367.457 244.736 371.446 238.481 374.552 231.576C374.918 230.765 375.364 229.962 375.911 229.296C381.355 222.647 384.257 214.121 389.047 206.997C389.131 206.874 389.178 206.723 389.234 206.584C391.073 201.777 393.126 197.057 394.676 192.139C395.992 187.963 397.561 183.815 397.834 179.285C398.038 175.9 398.661 172.588 399.612 169.362C400.103 167.693 400.143 165.986 399.647 164.367Z" fill="#C0FFD5"/>
</svg>
