<svg width="402" height="401" viewBox="0 0 402 401" fill="none" xmlns="http://www.w3.org/2000/svg">
<path d="M378.169 222.532C372.983 224.618 367.79 226.898 362.736 229.296C362.078 229.608 361.642 230.27 361.606 231.02C361.565 231.769 361.929 232.481 362.544 232.862C367.802 236.147 375.181 242.13 380.451 251.992C382.555 255.908 384.138 260.099 385.19 264.489C378.946 261.572 367.767 257.594 353.194 257.594C353.026 257.594 352.859 257.6 352.698 257.6C342.887 257.663 333.177 261.092 328.72 262.903C328.421 257.913 327.746 253.884 326.48 250.418C334.767 249.388 339.511 244.76 339.553 237.365L339.738 206.144C348.653 204.826 357.633 204.895 366.476 206.387C376.4 208.067 385.877 211.446 394.72 216.449C389.139 218.304 383.588 220.346 378.169 222.532ZM324.777 246.577C321.407 239.982 315.946 234.117 308.758 229.308C320.349 227.853 328.953 228.309 333.112 231.569C334.892 232.962 335.711 234.792 335.699 237.34C335.657 244.241 329.987 246.221 324.777 246.577ZM324.502 291.17C324.34 295.585 324.119 300.013 323.857 304.391C318.294 298.945 312.361 295.585 306.189 294.38C304.265 294.012 302.436 293.868 300.674 293.724C297.513 293.481 294.245 293.225 290.008 291.613C286.776 290.383 283.711 288.615 280.855 286.405C281.542 280.815 280.401 276.099 277.431 272.365C274.27 268.38 269.311 265.913 263.659 264.389C269.329 262.934 274.318 260.536 277.527 256.595C280.52 252.916 281.727 248.245 281.124 242.686C285.396 249.419 290.307 254.727 295.81 258.475L296.85 259.168C299.825 261.135 304.324 264.108 307.342 269.717C308.824 272.471 309.797 275.562 310.234 278.897C310.365 279.909 311.196 280.64 312.146 280.64C312.229 280.64 312.319 280.634 312.408 280.621C313.46 280.465 314.201 279.453 314.058 278.354C313.55 274.507 312.426 270.941 310.7 267.743C307.21 261.248 302.215 257.944 298.911 255.758L297.919 255.09C291.406 250.662 285.754 243.798 281.07 234.729C288.867 232.831 296.115 231.282 302.627 230.208C312.504 235.729 319.244 242.767 322.626 251.155C325.577 258.481 325.332 268.711 324.502 291.17ZM257.092 322.791C253.155 326.357 249.301 327.725 245.316 326.956C238.05 325.557 231.418 317.376 226.028 308.638C223.399 303.13 220.448 297.971 218.052 293.805C217.753 293.281 217.502 292.837 217.221 292.344C220.92 289.815 224.027 286.548 226.429 282.795L250.263 297.384C250.568 297.571 250.908 297.665 251.237 297.665C251.9 297.665 252.545 297.309 252.904 296.666C253.442 295.704 253.131 294.474 252.211 293.912L228.377 279.316C230.342 275.294 231.537 270.853 231.836 266.244C232.362 266.263 232.9 266.275 233.467 266.294C236.264 266.382 239.454 266.481 242.83 266.481C245.1 266.481 247.461 266.438 249.833 266.313C259.739 266.962 269.759 269.005 274.467 274.932C277.055 278.198 277.801 282.37 276.75 287.71C274.402 299.626 277.306 308.439 279.457 312.923C274.659 313.154 265.893 314.821 257.092 322.791ZM227.893 337.311C226.488 341.29 223.399 344.05 218.452 345.774C207.404 349.609 201.561 356.635 198.92 360.826C196.327 356.604 190.567 349.496 179.562 345.518C174.634 343.738 171.581 340.928 170.221 336.943C167.744 329.667 171.206 319.58 175.747 310.331C179.001 305.197 181.803 299.938 184.06 295.685C184.332 295.173 184.592 294.686 184.849 294.205C188.733 296.26 192.999 297.478 197.366 297.777L197.193 326.638C197.187 327.75 198.042 328.655 199.111 328.661C199.111 328.661 199.117 328.661 199.123 328.661C200.181 328.661 201.041 327.775 201.047 326.663L201.22 297.74C205.588 297.496 209.842 296.335 213.75 294.336C214.013 294.83 214.276 295.348 214.55 295.879C216.755 300.163 219.492 305.459 222.688 310.637C227.122 319.943 230.462 330.073 227.893 337.311ZM152.926 326.351C148.916 327.063 145.094 325.651 141.201 322.035C132.497 313.947 123.748 312.173 118.957 311.874C121.16 307.421 124.167 298.646 121.964 286.698C121.607 284.774 121.545 283.032 121.659 281.408C134.954 278.148 150.307 273.757 167.453 268.574C167.934 272.196 168.941 275.687 170.465 278.922L146.423 293.225C145.498 293.774 145.176 295.005 145.701 295.973C146.056 296.622 146.708 296.991 147.379 296.991C147.703 296.991 148.029 296.903 148.331 296.722L172.367 282.426C174.719 286.205 177.803 289.484 181.463 292.057C181.168 292.563 180.901 293.018 180.585 293.556C178.138 297.696 175.117 302.824 172.424 308.307C166.926 316.97 160.205 325.058 152.926 326.351ZM119.011 321.904C114.878 323.453 111.252 322.647 106.232 321.535C102.85 320.78 99.0143 319.924 94.0897 319.543C87.2711 319.012 80.3569 319.555 73.4737 321.167C74.8641 316.901 75.7765 312.548 76.1906 308.17C76.4965 304.941 76.4529 302.487 76.414 300.319C76.3734 297.784 76.3322 295.592 76.8102 292.588C77.0749 290.926 77.514 289.277 78.0231 287.641C79.239 287.729 80.4985 287.785 81.8428 287.785C90.3297 287.785 101.418 286.067 114.847 283.019C111.547 287.035 107.982 290.826 104.193 294.336C99.4696 298.708 94.352 302.686 88.9829 306.153C88.0783 306.74 87.7981 307.976 88.358 308.926C88.723 309.544 89.3528 309.881 90.0005 309.881C90.3452 309.881 90.6972 309.788 91.0133 309.581C96.5676 305.99 101.863 301.881 106.751 297.353C110.727 293.674 114.472 289.683 117.929 285.461C118.003 286.123 118.052 286.773 118.178 287.466C121.036 302.955 114.051 312.598 113.984 312.692C113.501 313.329 113.439 314.209 113.824 314.921C114.207 315.633 114.999 316.033 115.742 315.933C115.814 315.921 119.926 315.452 125.612 317.276C123.602 319.468 121.43 320.998 119.011 321.904ZM188.034 263.896C188.034 263.321 188.087 262.765 188.177 262.21C192.485 260.873 196.859 259.512 201.352 258.094C203.563 257.401 205.773 256.707 207.984 256.014C209.836 258.15 210.977 260.948 210.96 264.046C210.942 267.25 209.729 270.247 207.554 272.496C205.373 274.75 202.373 275.975 199.422 275.95C196.363 275.931 193.489 274.669 191.338 272.39C189.187 270.116 188.01 267.093 188.034 263.896ZM199.398 279.984H199.5C203.557 279.984 207.375 278.348 210.26 275.363C213.17 272.358 214.789 268.349 214.813 264.071C214.837 260.598 213.768 257.4 211.975 254.765C216.337 253.403 220.687 252.048 225.019 250.712C226.99 254.84 228.084 259.399 228.06 264.158C227.994 274.85 222.408 284.756 213.481 290.008C209.179 292.538 204.178 293.799 199.314 293.824C194.301 293.793 189.378 292.381 185.082 289.752C185.076 289.746 185.076 289.746 185.07 289.74C185.07 289.74 185.064 289.74 185.058 289.74C185.052 289.733 185.052 289.727 185.046 289.727C185.046 289.727 185.046 289.727 185.04 289.721C177.295 284.962 172.28 276.63 171.245 267.431C175.451 266.15 179.791 264.814 184.206 263.446C184.201 263.59 184.176 263.727 184.176 263.871C184.121 272.702 190.955 279.928 199.398 279.984ZM274.587 253.984C269.801 259.867 259.697 261.779 249.749 262.284C243.882 261.91 238.14 262.003 233.491 262.085C232.912 262.097 232.35 262.103 231.806 262.116C231.573 257.707 230.551 253.46 228.783 249.55C245.549 244.397 261.812 239.601 276.415 235.891C276.517 237.602 276.678 239.357 277.025 241.243C278.011 246.59 277.216 250.755 274.587 253.984ZM68.4798 280.765C66.7035 279.372 65.8813 277.542 65.8969 274.988L66.2542 215.044C66.3617 215.131 66.4675 215.219 66.578 215.306C80.6013 226.273 129.21 212.171 201.758 189.412C259.9 171.169 320.021 152.314 333.524 162.881C335.305 164.274 336.123 166.11 336.111 168.659L335.896 204.376V204.383L335.753 228.609C335.645 228.515 335.538 228.428 335.43 228.34C329.831 223.962 318.724 223.588 302.801 226.148C302.657 226.161 302.52 226.167 302.383 226.211C295.242 227.379 287.14 229.133 278.148 231.369C277.867 231.376 277.592 231.432 277.329 231.569C277.323 231.569 277.317 231.575 277.312 231.575C256.232 236.865 230.3 244.803 200.246 254.234C142.108 272.477 81.9863 291.332 68.4798 280.765ZM62.4523 206.281L62.2647 237.502C53.3614 238.82 44.3732 238.752 35.5291 237.259C25.61 235.585 16.1284 232.206 7.2866 227.197C12.8618 225.342 18.4108 223.306 23.8367 221.114C29.0259 219.022 34.2158 216.749 39.2712 214.35C39.9243 214.038 40.3587 213.376 40.3969 212.627C40.4381 211.877 40.0784 211.165 39.4612 210.784C34.205 207.499 26.826 201.516 21.5495 191.654C19.457 187.751 17.876 183.579 16.8304 179.207C24.703 183.036 35.9222 186.702 49.3826 186.046C56.4074 185.709 63.3085 184.166 69.9652 181.593L70.865 194.334C65.475 196.332 62.4834 200.51 62.4523 206.281ZM72.2375 213.807C70.9266 213.351 69.7955 212.789 68.8885 212.077C67.1122 210.691 66.2924 208.854 66.3079 206.306C66.3133 205.238 66.4567 204.27 66.7244 203.39L70.3255 198.937C70.5824 198.787 70.8776 198.662 71.1608 198.531L72.2375 213.807ZM121.25 161.832C120.615 152.801 127.123 144.913 135.762 144.245C144.436 143.558 151.944 150.384 152.584 159.415C152.854 163.244 151.823 167.072 149.613 170.295C146.557 175.354 142.84 179.307 138.907 183.492C133.811 188.919 128.084 195.008 122.355 204.851C115.307 196.001 108.792 190.855 102.988 186.271C98.5083 182.73 94.2774 179.382 90.4659 174.76C87.9033 172 86.3432 168.371 86.0731 164.543C85.7648 160.165 87.1038 155.93 89.8439 152.608C92.5864 149.285 96.3979 147.28 100.585 146.956C100.981 146.931 101.371 146.912 101.767 146.912C105.528 146.912 109.123 148.305 112.002 150.896C115.179 153.763 117.099 157.748 117.405 162.126C117.482 163.237 118.405 164.006 119.469 163.987C120.484 163.912 121.255 163.025 121.255 161.976C121.255 161.926 121.253 161.882 121.25 161.832ZM69.5517 120.924C69.3098 117.502 70.3584 114.179 72.5022 111.581C74.6484 108.983 77.6323 107.415 80.9072 107.166L153.407 101.576C153.715 101.551 154.018 101.538 154.322 101.538C158.082 101.538 161.477 103.368 163.747 106.229L163.613 106.266L164.634 108.683C164.875 109.252 165.078 109.87 165.237 110.538L169.715 157.998L172.28 194.384C155.682 199.48 139.589 204.208 125.149 207.868C130.819 197.9 136.559 191.742 141.653 186.321C145.734 181.974 149.592 177.871 152.803 172.549C155.478 168.659 156.766 163.893 156.429 159.115C155.635 147.874 146.274 139.405 135.479 140.223C127.747 140.822 121.386 146.062 118.713 153.139C117.626 151.165 116.215 149.379 114.518 147.849C110.56 144.282 105.5 142.546 100.302 142.94C95.09 143.339 90.3375 145.838 86.9264 149.972C83.5105 154.113 81.8429 159.39 82.2282 164.836C82.5622 169.608 84.5053 174.13 87.6183 177.477C91.6227 182.336 96.0125 185.809 100.66 189.481C106.62 194.19 113.362 199.542 120.592 208.998C101.544 213.626 85.7624 216.143 76.1702 214.731L69.5517 120.924ZM189.008 137.125C193.375 137.7 197.319 139.986 200.097 143.577C202.953 147.268 204.262 151.896 203.784 156.611C203.312 161.333 201.107 165.573 197.582 168.559C194.05 171.55 189.617 172.912 185.106 172.418C181.289 171.994 177.716 170.207 174.969 167.359L172.085 136.775L170.416 113.149C170.327 111.862 170.088 110.632 169.741 109.451C170.959 109.302 172.185 109.277 173.398 109.414C182.718 110.438 189.497 119.194 188.518 128.937C188.344 130.686 187.92 132.385 187.275 133.984L186.145 136.757L189.008 137.125ZM175.613 184.191C175.601 183.673 175.585 183.098 175.565 182.486C176.298 183.248 177.025 183.885 177.721 184.422L175.613 184.191ZM130.691 86.4618C131.354 79.8666 136.703 74.9576 142.907 74.9576C143.336 74.9576 143.768 74.9764 144.2 75.0264L216.498 82.9831C219.767 83.3453 222.7 85.0129 224.768 87.6797C226.835 90.3465 227.785 93.6941 227.438 97.1041L219.109 179.794C213.14 181.643 206.992 183.56 200.653 185.553C192.449 188.126 184.211 190.705 176.066 193.222L175.753 188.775L182.666 189.537L183.024 189.556C184.688 189.556 186.128 188.257 186.373 186.527C186.629 184.653 185.446 182.917 183.671 182.548C183.325 182.467 178.264 181.106 174.994 173.63L174.734 173.03C177.667 175.179 181.068 176.54 184.652 176.94C185.417 177.021 186.181 177.065 186.94 177.065C191.798 177.065 196.476 175.341 200.318 172.094C204.752 168.34 207.518 163.013 208.109 157.092C208.713 151.165 207.064 145.35 203.479 140.716C200.551 136.938 196.602 134.302 192.156 133.128C192.485 131.923 192.718 130.674 192.843 129.412C194.074 117.177 185.554 106.179 173.853 104.892C171.846 104.674 169.815 104.767 167.808 105.155C164.682 100.202 159.143 97.1041 153.124 97.5538L129.39 99.3837L130.691 86.4618ZM230.784 91.3083C230.802 91.2958 230.82 91.2771 230.838 91.2583C231.89 95.499 234.298 103.387 239.693 115.266C245.328 127.657 249.695 134.44 252.043 137.662C248.351 139.105 240.996 142.496 229.476 149.997C228.144 150.865 226.919 151.69 225.736 152.495L231.274 97.5288C231.484 95.4053 231.304 93.3069 230.784 91.3083ZM195.616 57.3891C196.536 54.0915 198.621 51.3747 201.501 49.7197C204.381 48.0709 207.703 47.6899 210.852 48.6455L280.652 69.9051C283.8 70.8669 286.405 73.0528 287.983 76.0569C288.724 77.4559 289.166 78.9547 289.363 80.4849L273.523 140.335L273.535 140.698C273.541 140.866 273.565 141.029 273.577 141.203L266.73 165.767C253.71 169.296 239.114 173.636 223.113 178.564L225.216 157.685C227.11 156.349 229.189 154.931 231.519 153.42C248.01 142.677 255.718 140.623 255.79 140.61C256.459 140.435 256.997 139.898 257.188 139.205C257.379 138.499 257.194 137.75 256.71 137.231C256.656 137.175 251.273 131.342 243.177 113.536C235.063 95.6676 233.909 87.0802 233.897 86.999C233.796 86.212 233.27 85.5562 232.541 85.3314C231.812 85.1003 231.023 85.3314 230.528 85.9372C230.516 85.9497 230.079 86.4556 229.189 87.3425C228.771 86.5805 228.305 85.8373 227.767 85.144C225.048 81.6403 221.195 79.4482 216.905 78.9735L190.412 76.0569L195.616 57.3891ZM277.963 141.397C277.939 141.216 277.921 141.016 277.903 140.822L281.715 126.42L292.715 86.9615C292.787 86.7054 292.834 86.4431 292.894 86.1871C294.705 95.3054 297.358 102.107 299.759 108.24C301.946 113.817 304.014 119.088 305.047 125.196L305.071 125.321C305.979 129.343 305.507 133.59 303.751 137.287C301.731 141.534 298.254 144.701 293.952 146.212C289.656 147.724 285.055 147.393 280.986 145.282C279.958 144.745 278.961 144.076 278.011 143.277C278.029 143.071 278.04 142.865 278.046 142.665C278.052 142.353 278.017 141.903 277.963 141.397ZM262.739 44.6109C265.756 38.2593 273.153 35.6674 279.218 38.8213L344.321 72.6468C350.391 75.8008 352.871 83.5265 349.854 89.8719L318.455 155.893C306.9 156.186 290.923 159.372 271.074 164.605L275.907 147.268C276.917 148.061 277.957 148.785 279.05 149.354C282.05 150.909 285.282 151.696 288.527 151.696C290.815 151.696 293.109 151.309 295.338 150.522C300.739 148.623 305.113 144.645 307.646 139.311C309.851 134.689 310.437 129.375 309.319 124.334C308.196 117.783 306.051 112.312 303.781 106.516C300.871 99.084 297.567 90.6526 295.989 78.1616C295.84 76.9937 295.147 75.9882 294.149 75.4761C293.432 75.0951 292.619 75.0139 291.867 75.2012C291.711 74.839 291.556 74.4705 291.371 74.1208C289.291 70.1674 285.868 67.2944 281.727 66.0391L256.244 58.276L262.739 44.6109ZM400.515 215.281C390.191 208.742 378.94 204.414 367.085 202.409C358.051 200.885 348.874 200.767 339.768 202.053L339.965 168.684C339.989 164.855 338.597 161.82 335.836 159.659C332.932 157.385 328.523 156.205 322.745 155.937L353.307 91.6706C357.269 83.3329 354.006 73.1839 346.036 69.0369L280.938 35.2115C272.968 31.077 263.252 34.4808 259.285 42.8122L252.48 57.1268L211.933 44.7795C207.787 43.518 203.425 44.0176 199.649 46.1848C195.867 48.3582 193.118 51.9368 191.911 56.2649L186.516 75.6322L144.603 71.0168C135.762 70.0612 127.791 76.7813 126.856 86.0371L125.48 99.6835L80.6246 103.144C76.3214 103.475 72.4018 105.536 69.5852 108.952C66.768 112.362 65.3902 116.721 65.7063 121.218L69.67 177.421C63.0665 180.107 56.1965 181.68 49.2028 182.024C34.4136 182.723 22.4618 177.927 15.0385 173.767C14.3909 173.405 13.5992 173.461 13.0029 173.905C12.4066 174.354 12.1036 175.123 12.2267 175.878C13.2419 182.168 15.2495 188.138 18.185 193.622C22.9142 202.459 29.1986 208.405 34.4369 212.196C30.4832 214.007 26.4663 215.737 22.4487 217.354C15.7376 220.065 8.83173 222.538 1.92766 224.718C1.19752 224.949 0.668136 225.605 0.570744 226.392C0.475742 227.185 0.835438 227.959 1.48551 228.372C11.818 234.904 23.0659 239.232 34.9149 241.237C43.9544 242.761 53.1379 242.88 62.239 241.593L62.0412 274.963C62.0179 278.791 63.4059 281.827 66.1663 283.987C68.1405 285.53 70.8113 286.567 74.119 287.166C73.6613 288.74 73.2628 290.327 73.0089 291.925C72.4717 295.298 72.5153 297.778 72.559 300.394C72.5972 302.549 72.636 304.779 72.3534 307.777C71.8599 313.016 70.5926 318.231 68.588 323.278C68.3078 323.99 68.4386 324.808 68.9244 325.389C69.4125 325.963 70.166 326.201 70.883 325.995C78.5244 323.79 86.2404 322.972 93.8018 323.565C98.4694 323.927 102.165 324.752 105.427 325.476C108.62 326.188 111.411 326.806 114.223 326.806C116.197 326.806 118.178 326.5 120.312 325.701C123.699 324.433 126.753 322.072 129.441 318.787C132.361 320.155 135.502 322.135 138.638 325.045C142.589 328.711 146.716 330.56 150.949 330.56C151.821 330.56 152.695 330.485 153.577 330.329C158.452 329.455 162.973 326.201 167.065 321.848C165.433 327.706 164.929 333.42 166.589 338.292C168.34 343.438 172.283 347.148 178.302 349.328C192.569 354.486 197.062 365.635 197.104 365.735C197.396 366.497 198.095 366.99 198.878 366.996C198.878 366.996 198.89 366.996 198.896 366.996C199.667 366.996 200.372 366.509 200.671 365.766C200.718 365.653 205.343 354.568 219.671 349.596C225.712 347.498 229.697 343.838 231.513 338.717C233.234 333.864 232.792 328.143 231.233 322.266C235.272 326.669 239.753 329.985 244.622 330.916C245.561 331.103 246.499 331.191 247.431 331.191C251.601 331.191 255.688 329.398 259.62 325.832C271.026 315.496 282.498 316.995 282.611 317.02C283.388 317.12 284.147 316.751 284.547 316.046C284.942 315.34 284.894 314.453 284.422 313.803C284.356 313.71 278.184 304.941 280.15 290.845C282.844 292.737 285.706 294.261 288.694 295.404C293.426 297.203 297.125 297.49 300.387 297.746C302.126 297.884 303.763 298.009 305.478 298.346C311.96 299.607 318.21 303.642 324.06 310.343C324.43 310.768 324.95 311.005 325.488 311.005C325.697 311.005 325.912 310.968 326.115 310.893C326.844 310.631 327.352 309.937 327.406 309.132C327.818 303.28 328.135 297.29 328.356 291.326C328.72 281.427 329.007 273.601 328.881 267.187C332.156 265.782 342.54 261.691 352.722 261.629C352.877 261.629 353.032 261.629 353.194 261.629C370.366 261.629 382.513 267.387 386.964 269.879C387.251 270.041 387.568 270.116 387.878 270.116C388.273 270.116 388.667 269.991 389.002 269.742C389.599 269.292 389.904 268.524 389.778 267.768C388.763 261.479 386.755 255.508 383.821 250.025C379.089 241.187 372.809 235.242 367.563 231.457C371.525 229.639 375.54 227.909 379.555 226.292C386.259 223.588 393.166 221.108 400.073 218.928C400.802 218.704 401.334 218.048 401.43 217.255C401.525 216.468 401.167 215.687 400.515 215.281Z" fill="#C0FFD5"/>
<path d="M270.471 183.649C270.647 183.649 270.823 183.622 270.999 183.568L275.094 182.361L288.795 197.267L288.422 215.89L282.775 217.556C281.75 217.854 281.155 218.968 281.445 220.04C281.683 220.927 282.459 221.506 283.298 221.506C283.469 221.506 283.65 221.484 283.821 221.43L297.863 217.291C298.883 216.988 299.484 215.874 299.194 214.808C298.904 213.736 297.843 213.109 296.818 213.412L292.304 214.743L292.656 197.094L307.864 172.693L312.372 171.362C313.397 171.059 313.992 169.944 313.702 168.873C313.418 167.807 312.351 167.179 311.326 167.482L297.284 171.627C296.264 171.924 295.664 173.044 295.953 174.11C296.191 174.997 296.968 175.582 297.812 175.582C297.982 175.582 298.158 175.555 298.334 175.501L302.222 174.354L290.446 193.247L279.297 181.122L285.037 179.429C286.057 179.126 286.657 178.011 286.367 176.94C286.082 175.869 285.016 175.241 283.986 175.549L269.949 179.694C268.924 179.997 268.328 181.111 268.618 182.177C268.856 183.065 269.633 183.649 270.471 183.649Z" fill="#C0FFD5"/>
<path d="M179.655 234.704C180.689 239.433 183.205 243.196 186.734 245.305C188.983 246.649 191.649 247.305 194.511 247.305C199.19 247.305 204.402 245.552 209.186 242.178C215.994 237.376 219.644 230.826 221.21 227.347C221.667 226.339 221.251 225.138 220.287 224.665C219.328 224.188 218.178 224.623 217.726 225.631C216.597 228.129 213.303 234.416 207.027 238.835C200.526 243.421 193.311 244.586 188.642 241.8C185.338 239.832 183.973 236.363 183.415 233.807C182.155 228.055 183.651 221.018 187.316 215.445C191.273 209.436 197.589 205.028 203.417 204.214C209.969 203.301 213.544 207.116 214.483 208.302C215.04 209 215.969 209.226 216.757 208.859C217.545 208.486 218.002 207.615 217.877 206.717C217.781 206.061 217.686 204.303 218.811 202.189C220.447 199.108 223.279 197.953 223.6 197.833C224.594 197.45 225.111 196.29 224.745 195.245C224.378 194.201 223.279 193.666 222.275 194.049C221.532 194.332 217.706 195.964 215.437 200.231C214.95 201.155 214.613 202.042 214.392 202.871C211.927 201.128 208.112 199.496 202.905 200.221C195.942 201.191 188.752 206.151 184.138 213.162C179.816 219.732 178.139 227.788 179.655 234.704Z" fill="#C0FFD5"/>
<path d="M133.644 224.023C133.812 224.023 133.99 224.002 134.168 223.95L139.173 222.472C137.061 235.322 136.389 250.69 143.297 257.343C144.86 258.852 147.347 260.361 151.031 260.361C152.426 260.361 153.999 260.144 155.759 259.622C169.981 255.425 176.38 237.462 172.696 212.578L179.046 210.702C180.07 210.402 180.668 209.286 180.376 208.216C180.089 207.146 179.026 206.52 177.998 206.825L163.701 211.043C162.672 211.348 162.079 212.459 162.366 213.529C162.603 214.419 163.38 214.998 164.22 214.998C164.393 214.998 164.571 214.977 164.744 214.92L168.958 213.679C172.177 236.134 166.817 252.174 154.711 255.745C150.908 256.867 148.025 256.417 145.908 254.381C141.27 249.909 140.345 237.866 143.302 221.252L148.47 219.727C149.489 219.427 150.092 218.311 149.8 217.241C149.513 216.171 148.45 215.54 147.421 215.85L133.12 220.074C132.096 220.373 131.498 221.49 131.79 222.56C132.027 223.444 132.804 224.023 133.644 224.023Z" fill="#C0FFD5"/>
<path d="M94.7566 235.508C94.9257 235.508 95.0995 235.482 95.2782 235.432L100.489 233.892L99.76 270.164C98.6396 270.875 97.437 271.708 96.1234 272.698C95.2637 273.354 95.0657 274.611 95.6935 275.515C96.0702 276.06 96.6546 276.348 97.2583 276.348C97.6495 276.348 98.0407 276.226 98.3836 275.964C106 270.209 109.371 270.153 113.635 270.083C116.287 270.042 119.291 269.992 123.57 268.725C131.983 266.246 134.34 258.775 134.417 255.175C134.436 254.065 133.591 253.146 132.529 253.121C131.369 253.065 130.582 253.979 130.563 255.095C130.558 255.17 130.321 262.551 122.522 264.848C118.726 265.969 116.103 266.014 113.573 266.054C110.472 266.105 107.642 266.16 103.662 267.998L104.372 232.746L112.317 230.404C113.341 230.101 113.94 228.985 113.65 227.915C113.36 226.845 112.302 226.224 111.269 226.527L94.2302 231.555C93.2063 231.853 92.6075 232.968 92.8972 234.039C93.1387 234.927 93.9114 235.508 94.7566 235.508Z" fill="#C0FFD5"/>
<path d="M227.547 233.785C226.524 234.083 225.924 235.199 226.214 236.268C226.453 237.157 227.226 237.736 228.071 237.736C228.244 237.736 228.417 237.715 228.595 237.662L232.584 236.487C232.848 236.465 233.093 236.391 233.321 236.268L238.954 234.604C239.976 234.301 240.572 233.189 240.282 232.115C239.997 231.046 238.928 230.418 237.906 230.727L234.431 231.753L234.746 216.123C237.982 216.963 240.434 219.468 243.1 222.26C246.316 225.632 249.888 229.371 255.164 229.371C256.293 229.371 257.504 229.195 258.802 228.812C270.886 225.244 271.226 215.219 271.237 214.793C271.257 213.682 270.412 212.762 269.349 212.735C268.337 212.735 267.4 213.597 267.38 214.708C267.38 214.783 267.126 222.17 257.754 224.935C252.808 226.392 250.005 223.787 245.828 219.415C244.108 217.612 242.21 215.634 239.926 214.134C259.555 207.81 263.126 184.905 263.162 184.649C263.325 183.549 262.602 182.522 261.549 182.352C260.481 182.203 259.514 182.942 259.351 184.043C259.316 184.288 255.673 207.667 234.843 211.251L235.184 194.132L239.793 192.776C240.816 192.473 241.411 191.361 241.121 190.292C240.836 189.218 239.778 188.596 238.745 188.899L228.386 191.957C227.364 192.255 226.768 193.371 227.058 194.44C227.297 195.328 228.071 195.908 228.91 195.908C229.083 195.908 229.261 195.882 229.434 195.834L231.307 195.281L230.971 211.847C230.024 211.948 229.027 212.139 227.974 212.453C226.951 212.751 226.351 213.868 226.641 214.937C226.931 216.006 227.989 216.633 229.022 216.33C229.679 216.134 230.289 216.032 230.889 215.947L230.554 232.897L227.547 233.785Z" fill="#C0FFD5"/>
</svg>
