<svg width="400" height="401" viewBox="0 0 400 401" fill="none" xmlns="http://www.w3.org/2000/svg">
<path d="M184.355 149.376C201.2 149.376 214.907 163.204 214.907 180.202C214.907 197.198 201.2 211.025 184.355 211.025C167.515 211.025 153.808 197.198 153.808 180.202C153.808 163.204 167.515 149.376 184.355 149.376ZM184.355 214.484C203.094 214.484 218.333 199.105 218.333 180.202C218.333 161.297 203.094 145.917 184.355 145.917C165.622 145.917 150.383 161.297 150.383 180.202C150.383 199.105 165.622 214.484 184.355 214.484Z" fill="#C0FFD5"/>
<path d="M330.198 149.308C327.072 149.58 324.585 147.021 324.578 143.965C324.578 141.701 325.967 139.769 327.995 138.999C328.363 139.571 328.706 140.181 329.009 140.832C329.888 142.718 330.34 144.779 330.417 146.986C330.392 147.742 330.333 148.513 330.198 149.308ZM328.706 156.429C322.583 156.029 317.809 150.915 317.809 144.708C317.809 144.706 317.809 144.706 317.809 144.703C318.979 143.998 320.141 143.271 321.284 142.524C321.207 142.995 321.155 143.475 321.155 143.965C321.155 148.794 325.024 152.721 329.797 152.772C329.52 153.977 329.158 155.201 328.706 156.429ZM303.813 152.181C306.842 150.73 310.621 148.826 314.515 146.624C314.967 150.256 316.692 153.491 319.256 155.864C315.142 155.291 309.923 154.198 303.813 152.181ZM319.45 131.964C320.374 132.37 321.775 133.091 323.261 134.15C322.182 136.41 320.412 138.858 317.486 140.811C316.782 141.25 316.059 141.69 315.31 142.133C315.303 142.137 315.297 142.146 315.29 142.151C312.687 143.691 310.02 145.153 307.469 146.479C313.379 140.067 317.745 134.299 319.45 131.964ZM331.49 158.744C333.182 154.558 333.95 150.65 333.847 147.037C333.97 142.812 332.736 139.01 330.178 135.884C330.146 135.845 330.094 135.833 330.062 135.796C333.156 132.884 335.333 129.896 335.778 127.025C335.927 126.082 335.287 125.197 334.351 125.049C333.421 124.883 332.536 125.545 332.394 126.488C332.064 128.602 330.314 130.95 327.724 133.345C327.608 133.239 327.498 133.133 327.382 133.029C328.325 130.078 328.363 127.813 328.363 127.62C328.363 126.665 327.595 125.895 326.652 125.891C326.652 125.891 326.652 125.891 326.645 125.891C325.702 125.891 324.94 126.663 324.934 127.613C324.934 127.742 324.908 129.003 324.469 130.779C321.788 129.017 319.54 128.279 319.36 128.221C318.649 127.993 317.868 128.261 317.435 128.876C317.357 128.992 309.342 140.44 298.219 150.966C297.502 151.288 296.831 151.582 296.23 151.842C295.358 152.213 294.951 153.23 295.319 154.108C295.597 154.766 296.23 155.162 296.895 155.162C297.121 155.162 297.347 155.119 297.567 155.024C297.909 154.879 298.504 154.621 299.298 154.268C312.687 159.195 322.492 159.936 327.123 159.936C328.77 159.936 329.733 159.846 330.004 159.818C330.017 159.818 330.017 159.816 330.03 159.816C330.049 159.813 330.094 159.808 330.101 159.808C330.721 159.735 331.257 159.327 331.49 158.744Z" fill="#C0FFD5"/>
<path d="M365.297 216.905C364.215 218.272 362.268 219.045 359.508 219.201C359.494 219.203 359.481 219.211 359.461 219.211C359.448 219.213 359.441 219.206 359.427 219.208C356.614 219.505 353.551 220.172 350.314 220.873C349.039 221.149 347.756 221.426 346.473 221.687C347.937 220.55 349.448 219.308 350.993 218.03C354.444 215.171 359.172 211.258 360.804 211.258C362.12 211.258 364.598 212.618 366.297 213.79C366.297 214.534 366.163 215.81 365.297 216.905ZM363.625 229.634C362.819 230.719 362.026 231.496 361.247 232.109C354.223 235.658 344.25 225.904 344.15 225.805C344.089 225.745 344.015 225.72 343.948 225.671C346.372 225.263 348.763 224.752 351.033 224.256C354.028 223.605 356.862 222.997 359.394 222.701C360.797 223.264 363.792 224.818 364.39 226.785C364.491 227.103 364.78 228.067 363.625 229.634ZM289.882 134.208C294.744 127.318 300.868 120.47 307.134 118.167C316.932 115.411 322.996 114.579 326.757 114.579C331.975 114.579 332.74 116.181 332.841 116.486C333.284 117.841 333.156 118.257 333.17 118.257C332.713 118.669 330.175 118.653 328.133 118.646C323.748 118.628 317.12 118.587 309.048 121.063C302.413 123.096 295.557 128.589 289.882 134.208ZM353.498 272.568C345.761 281.96 327.435 283.973 299.035 278.559C285.242 275.93 275.86 272.027 271.233 269.783C266.646 260.924 261.106 251.844 254.901 243.001C269.903 236.896 278.459 229.259 280.292 220.278C281.38 214.991 279.816 211.357 278.17 207.511C276.626 203.909 275.034 200.183 275.356 194.396C275.773 186.803 279.063 182.691 282.549 178.34C286.061 173.962 289.687 169.434 289.795 161.543C289.875 155.495 287.8 151.667 285.598 147.612C285.201 146.883 284.798 146.126 284.395 145.347C290.238 138.301 300.56 127.289 310.048 124.381C317.624 122.059 323.694 122.08 328.12 122.116C332.008 122.137 334.607 122.149 335.937 120.313C337.025 118.801 336.554 116.79 336.111 115.409V115.407C334.305 109.864 324.527 109.677 306.086 114.867C296.409 118.418 287.498 130.883 282.052 139.97C281.192 137.508 280.48 134.648 280.124 131.093C279.513 125.013 280.01 118.773 281.548 112.536C290.453 106.161 300.076 99.8635 310.364 93.9262C311.566 96.3474 314.36 100.426 320.578 103.887C325.212 106.47 329.886 106.11 333.653 105.819C338.771 105.423 341.88 105.181 343.7 111.033C345.936 118.238 345.54 125.767 345.217 131.817C345.103 133.977 344.996 136.018 345.016 137.833C345.123 147.448 354.498 155.855 362.778 163.272C368.52 168.417 373.94 173.279 374.067 176.757C374.255 181.912 369.527 186.72 365.74 190.584C362.778 193.6 360.629 195.779 360.582 198.073C360.542 199.987 360.797 203.93 362.731 208.136C362.066 207.942 361.408 207.799 360.804 207.799C358.078 207.799 354.471 210.672 348.817 215.355C344.942 218.562 340.188 222.489 337.757 222.929C336.017 223.026 334.305 223.013 332.653 222.798C331.706 222.681 330.853 223.35 330.732 224.297C330.611 225.242 331.276 226.11 332.223 226.231C333.412 226.384 334.627 226.45 335.863 226.45C336.313 226.45 336.776 226.398 337.233 226.381C337.36 226.409 337.481 226.453 337.609 226.453C337.656 226.453 337.703 226.45 337.75 226.448C337.951 226.432 338.173 226.363 338.381 226.322C339.462 226.25 340.537 226.144 341.618 226.001C341.094 226.683 341.121 227.654 341.745 228.272C342.101 228.63 348.589 234.963 355.7 236.14C354.941 237.256 354.532 238.837 354.854 241.341C355.062 242.916 355.586 244.715 356.191 246.794C358.232 253.82 361.026 263.444 353.498 272.568ZM287.424 322.414C281.535 338.624 278.103 354.428 276.827 366.632C274.013 367.382 271.576 369.042 269.83 371.29C268.319 367.651 265.243 364.721 261.187 363.598C257.809 362.662 254.25 363.109 251.201 364.864C250.355 365.35 249.589 365.938 248.884 366.581C248.024 362.284 245.09 358.497 240.738 356.805C236.42 355.12 231.753 355.913 228.254 358.482C228.167 357.545 227.985 356.614 227.697 355.698C226.622 352.323 224.312 349.567 221.196 347.944C218.073 346.317 214.508 346.016 211.163 347.096C210.257 347.386 209.404 347.785 208.598 348.253C208.611 347.315 208.531 346.367 208.336 345.424C207.631 341.951 205.63 338.963 202.695 337.008C199.767 335.055 196.262 334.377 192.81 335.08C191.883 335.274 190.997 335.578 190.144 335.957C190.251 335.023 190.271 334.075 190.184 333.116C189.848 329.586 188.176 326.399 185.47 324.137C181.897 321.153 177.203 320.415 173.08 321.744C173.288 320.821 173.409 319.873 173.422 318.905C173.422 318.488 173.409 318.073 173.375 317.662C177.633 317.487 182.173 315.977 187.082 314.328C196.886 311.031 208 307.291 222.459 311.4C232.418 314.225 240.617 319.901 247.857 324.909C255.465 330.171 262.275 334.885 269.205 334.885C271.307 334.885 273.429 334.448 275.585 333.462C278.271 332.228 279.97 330.593 280.574 329.947C283.945 326.364 285.557 320.937 285.369 313.814C285.134 304.889 282.079 293.812 276.961 281.877C276.767 281.19 276.471 280.526 276.102 279.887C275.336 278.167 274.524 276.428 273.678 274.678C279.09 276.961 287.411 279.866 298.397 281.957C303.783 282.984 308.813 283.733 313.514 284.231C304.669 292.056 293.938 304.483 287.424 322.414ZM289.909 379.45C289.909 384.864 285.544 389.266 280.185 389.266C274.859 389.266 270.535 384.929 270.468 379.575C270.689 378.669 270.81 377.762 270.844 376.863C271.979 372.71 275.712 369.637 280.185 369.637C285.544 369.637 289.909 374.039 289.909 379.45ZM267.043 379.109C266.338 381.585 264.746 383.651 262.523 384.927C260.267 386.22 257.641 386.557 255.136 385.863C252.631 385.169 250.543 383.532 249.26 381.256C247.971 378.978 247.642 376.33 248.327 373.801C249.018 371.274 250.637 369.167 252.893 367.868C254.384 367.015 256.029 366.579 257.695 366.579C258.554 366.579 259.427 366.697 260.28 366.934C264.592 368.126 267.392 372.09 267.392 376.395C267.19 377.271 267.07 378.178 267.043 379.109ZM245.076 372.722C243.149 377.767 237.501 380.287 232.498 378.343C230.081 377.398 228.16 375.558 227.112 373.162C226.058 370.771 225.998 368.108 226.924 365.664C226.945 365.634 226.951 365.602 226.971 365.57C228.482 361.73 232.142 359.374 236.017 359.374C237.179 359.374 238.361 359.584 239.509 360.031C244.506 361.982 247.01 367.674 245.076 372.722ZM223.809 364.237C221.344 369.045 215.461 370.935 210.707 368.461C208.396 367.257 206.691 365.221 205.898 362.724C205.106 360.227 205.328 357.571 206.516 355.244C206.523 355.237 206.523 355.228 206.53 355.221C207.725 352.902 209.733 351.184 212.204 350.39C213.178 350.075 214.178 349.92 215.172 349.92C216.703 349.92 218.228 350.289 219.625 351.018C221.935 352.219 223.641 354.255 224.426 356.753C225.219 359.25 225.004 361.908 223.809 364.237ZM203.568 353.494C202.138 355.683 199.942 357.177 197.403 357.7C194.851 358.226 192.259 357.721 190.09 356.275C185.618 353.293 184.382 347.202 187.33 342.687C187.343 342.673 187.35 342.655 187.364 342.641C188.794 340.476 190.97 338.993 193.502 338.47C194.153 338.334 194.818 338.269 195.469 338.269C197.356 338.269 199.196 338.822 200.808 339.897C202.977 341.34 204.454 343.552 204.978 346.118C205.502 348.687 204.998 351.304 203.568 353.494ZM170.891 341.933C166.761 338.483 166.176 332.288 169.588 328.117C169.594 328.114 169.594 328.11 169.601 328.108C171.253 326.09 173.583 324.845 176.169 324.596C176.485 324.569 176.794 324.552 177.102 324.552C179.359 324.552 181.528 325.336 183.281 326.805C185.289 328.474 186.524 330.833 186.773 333.443C187.014 336.053 186.235 338.603 184.583 340.621C181.165 344.795 175.021 345.38 170.891 341.933ZM167.076 325.772C167.076 325.774 167.069 325.774 167.069 325.777C163.235 329.563 157.063 329.493 153.316 325.629C152.389 324.672 151.718 323.561 151.261 322.385C151.342 322.26 151.429 322.138 151.51 322.011C151.872 321.462 152.215 320.911 152.557 320.356C152.645 320.213 152.739 320.072 152.826 319.929C153.162 319.373 153.484 318.813 153.806 318.252C153.887 318.109 153.974 317.967 154.055 317.824C154.364 317.266 154.659 316.703 154.955 316.143C155.029 315.997 155.109 315.852 155.183 315.707C155.465 315.154 155.727 314.6 155.989 314.049C156.063 313.893 156.143 313.735 156.211 313.581C156.459 313.035 156.687 312.493 156.916 311.949C156.983 311.785 157.057 311.621 157.124 311.455C157.339 310.927 157.527 310.4 157.715 309.871C157.782 309.693 157.849 309.514 157.91 309.334C157.916 309.315 157.923 309.295 157.93 309.274C158.695 309.071 159.474 308.956 160.267 308.956C162.792 308.956 165.317 309.94 167.217 311.9C170.971 315.762 170.904 321.983 167.076 325.772ZM117.234 362.883C114.904 363.992 112.6 364.972 110.317 365.869C106.247 367.262 98.7732 368.846 91.3123 365.404C82.8239 361.486 78.8618 353.238 77.8612 348.984C74.5101 334.801 88.297 315.703 103.447 303.064C120.316 288.988 137.777 282.871 147.951 287.485C149.529 288.202 153.35 290.322 155.156 294.547C155.277 297.249 155.573 299.783 156.083 302.119C155.029 312.256 146.419 325.002 136.642 334.737C123.466 347.854 109.202 354.83 101.936 351.691C98.1217 350.04 96.6846 345.883 96.3421 344.647C93.4746 334.49 105.556 318.606 118.389 309.712C126.347 304.203 133.506 302.188 136.642 304.568C138.643 306.085 139.596 308.28 139.489 311.095C139.173 318.972 131.001 329.352 119.155 336.925C117.006 338.297 115.226 338.735 114.266 338.131C113.332 337.543 112.902 335.822 113.144 333.649C113.702 328.606 117.664 322.307 124.158 320.026C125.051 319.71 125.521 318.723 125.212 317.822C124.896 316.92 123.923 316.438 123.029 316.756C114.837 319.641 110.398 327.33 109.733 333.263C109.337 336.879 110.317 339.722 112.446 341.064C113.964 342.021 116.683 342.594 120.988 339.846C133.942 331.568 142.551 320.337 142.914 311.232C143.068 307.272 141.611 304.012 138.703 301.803C134.17 298.363 126.065 300.21 116.448 306.862C102.527 316.507 89.5864 333.36 93.0449 345.597C93.4948 347.202 95.3818 352.618 100.586 354.871C111.244 359.478 127.972 348.23 139.053 337.197C139.603 336.646 140.161 336.081 140.711 335.503C140.953 335.251 141.195 334.986 141.437 334.73C141.745 334.4 142.054 334.075 142.363 333.741C142.679 333.394 142.988 333.037 143.303 332.682C143.532 332.424 143.767 332.17 143.988 331.91C144.344 331.499 144.7 331.078 145.049 330.66C145.231 330.445 145.412 330.238 145.593 330.024C145.969 329.567 146.339 329.099 146.708 328.634C146.856 328.449 147.004 328.269 147.151 328.082C147.527 327.605 147.89 327.118 148.259 326.632C148.394 326.452 148.535 326.275 148.669 326.092C148.783 325.935 148.897 325.774 149.018 325.615C149.529 326.479 150.14 327.301 150.872 328.052C151.416 328.613 152 329.104 152.618 329.546C146.863 339.042 136.172 353.888 117.234 362.883ZM72.9992 370.633C66.7135 368.95 61.9522 364.809 59.2392 358.634C54.5115 347.882 56.318 332.533 64.0811 317.575C71.6964 302.871 94.5021 269.552 141.43 277.544C148.139 279.357 153.262 280.823 155.579 281.497C155.358 283.901 155.21 286.223 155.136 288.466C155.002 288.328 154.874 288.197 154.74 288.065C154.592 287.916 154.438 287.777 154.29 287.636C154.062 287.427 153.833 287.226 153.612 287.037C153.444 286.901 153.289 286.772 153.128 286.645C152.907 286.477 152.698 286.318 152.483 286.165C152.322 286.053 152.175 285.94 152.013 285.836C151.805 285.695 151.61 285.568 151.409 285.444C151.268 285.356 151.127 285.266 150.993 285.19C150.784 285.063 150.59 284.957 150.395 284.853C150.294 284.801 150.187 284.738 150.093 284.69C149.824 284.549 149.569 284.427 149.361 284.33C135.56 278.065 114.83 289.078 101.265 300.397C86.4637 312.744 70.5816 333.086 74.5236 349.784C76.0615 356.305 81.4069 364.636 89.8818 368.549C91.695 369.385 93.5082 369.948 95.2811 370.326C87.4442 371.844 80.0101 371.95 72.9992 370.633ZM59.0646 365.886C52.2148 362.378 45.7612 357.218 40.4023 350.969C40.3956 350.962 40.3956 350.958 40.3956 350.951C33.8816 341.333 33.5727 326.66 39.5562 311.695C46.6678 293.915 64.6653 272.755 93.8775 266.511C103.575 268.222 114.293 270.643 124.111 273.064C97.4972 274.475 74.6579 289.7 61.0389 315.97C52.8057 331.857 50.959 348.331 56.103 360.036C57.1506 362.408 58.4803 364.497 60.0249 366.337C59.7093 366.183 59.3802 366.049 59.0646 365.886ZM27.7436 301.633C32.1154 286.617 45.224 273.186 61.1329 267.415C66.3777 265.513 71.9314 264.478 77.6463 264.337C80.0773 264.514 82.7299 264.805 85.537 265.19C59.5011 273.488 43.1758 293.406 36.3798 310.404C32.3303 320.517 31.0208 330.568 32.3907 339.267C26.3737 327.907 23.9427 314.677 27.7436 301.633ZM61.3479 214.14C63.4028 202.724 69.346 194.486 74.4094 189.27C79.2043 194.149 85.0669 197.139 91.3928 198.832C87.9075 203.008 85.1744 207.573 83.3545 212.493C75.5645 233.538 85.8123 254.012 91.1108 262.541C86.5174 261.791 82.2128 261.228 78.4051 260.931C75.2959 257.95 56.8552 239.059 61.3479 214.14ZM69.7489 141.289C72.3209 136.219 75.175 134.265 78.1835 132.197C81.2995 130.06 84.5229 127.851 87.3837 122.458C92.2659 113.26 90.2848 105.782 87.9881 97.1219C87.1218 93.834 86.2152 90.3362 85.5974 86.4806C84.7512 77.8755 85.7586 71.7357 88.6127 68.2419C90.5601 65.86 93.4679 64.5298 97.5107 64.17C100.942 63.8563 105.515 65.1201 110.801 68.2723C108.618 75.8169 109.86 83.5594 111.177 91.6183C112.862 102.005 114.588 112.734 109.82 125.068C105.945 123.073 102.017 121.194 98.0345 119.483C97.1682 119.115 96.1541 119.518 95.7848 120.397C95.4087 121.275 95.8183 122.292 96.6914 122.665C100.667 124.374 104.589 126.249 108.443 128.241C105.052 135.416 100.808 139.657 97.0271 143.39C92.2591 148.105 88.1425 152.175 87.4777 160.21C87.4173 160.932 87.3971 161.656 87.3971 162.38C85.0064 161.653 82.6224 160.883 80.272 160.049C79.3789 159.74 78.3984 160.208 78.0828 161.107C77.7672 162.009 78.2439 162.996 79.1371 163.311C81.9576 164.312 84.8117 165.209 87.6926 166.06C89.1499 176.136 96.416 186.611 109.424 197.313C104.595 197.455 99.7603 197.183 95.1468 196.252C94.9252 196.158 94.6834 196.102 94.4417 196.109C87.3166 194.557 80.769 191.378 75.7122 185.636C65.5853 174.144 62.9663 154.662 69.7489 141.289ZM109.699 28.7951C115.004 25.7953 120.35 23.9345 123.593 23.9345C123.795 23.9345 123.99 23.9433 124.171 23.9576C135.44 24.8405 144.861 37.0335 152.604 54.1264C148.602 50.4666 143.109 47.1233 136.34 47.1233C136.333 47.1233 136.319 47.1233 136.313 47.1233C125.709 47.1375 118.288 55.3596 115.582 58.8948C114.044 60.91 112.869 62.9341 111.982 64.9751C106.221 61.6635 101.144 60.37 97.2085 60.723C92.2054 61.1703 88.5253 62.9063 85.9667 66.0403C85.9667 66.045 85.96 66.0518 85.9533 66.0586C87.5314 58.1725 93.0583 38.2072 109.699 28.7951ZM175.679 21.2159C175.813 21.1536 184.228 17.3075 196.9 14.3958C193.871 20.7735 191.111 27.2732 188.66 33.8887C181.159 35.8945 174.02 38.9356 167.432 42.9891C163.134 45.6338 159.091 48.7217 155.351 52.1478C153.135 47.3699 150.784 42.9641 148.286 39.0393C156.56 31.7488 165.76 25.7492 175.679 21.2159ZM201.11 13.4986C207.94 12.1562 215.75 11.1831 224.017 11.1831C235.124 11.1831 245.164 11.9624 254.297 13.3183C252.228 15.5023 250.2 17.7296 248.233 20.003C248.206 20.0308 248.179 20.0633 248.159 20.0931C241.195 28.1425 234.876 36.7151 229.322 45.7145C227.213 49.1317 225.219 52.6065 223.318 56.1301C223.318 56.1342 223.318 56.1389 223.312 56.1464C211.251 78.5884 203.588 103.159 200.465 129.373C198.713 129.147 196.933 129.403 195.295 130.175C194.348 130.62 193.522 131.238 192.79 131.946C191.238 128.808 188.062 126.625 184.355 126.625C181.83 126.625 179.554 127.66 177.868 129.306C176.733 109.887 178.016 90.4073 181.729 71.3087C185.618 51.2899 192.138 31.8498 201.097 13.5331C201.103 13.5216 201.104 13.5101 201.11 13.4986ZM258.386 14.0217C264.303 15.6615 268.688 20.4482 269.393 26.2404C270.266 33.3717 265.001 38.3366 264.397 38.878C264.027 39.21 263.819 39.6871 263.826 40.1878C263.833 40.6879 264.054 41.1582 264.424 41.4835C266.062 42.8922 267.244 44.5341 267.929 46.3582C269.762 51.2188 268.07 57.5524 264.41 61.5416C263.215 62.4225 262.073 63.361 260.898 64.2622C260.858 64.2832 260.817 64.311 260.777 64.3293C257.56 65.9108 253.484 65.9481 249.603 64.4235C246.164 63.075 243.203 60.6356 241.094 57.4881C249.166 60.0684 255.915 59.4342 258.574 55.6131C259.709 53.9787 260.038 51.8022 259.528 49.2957C258.769 45.5973 255.888 42.5283 251.799 40.7415C253.081 40.0198 254.23 39.0969 255.21 38.0066C257.325 35.6431 258.427 32.6501 258.245 29.8C258.004 26.1436 255.694 22.7657 252.201 20.6881C254.209 18.4187 256.271 16.1982 258.386 14.0217ZM286.33 21.6286C283.059 24.7551 281.226 29.2328 281.562 33.8054C281.931 38.7533 284.691 43.0887 288.807 45.6203C282.717 49.1297 276.787 52.8694 271.032 56.8558C272.341 52.9962 272.509 48.7794 271.132 45.1311C270.441 43.2961 269.386 41.6176 267.976 40.1235C270.044 37.7735 273.631 32.6087 272.798 25.8156C272.341 22.0738 270.669 18.6654 268.144 15.9705C274.772 17.5493 280.823 19.4609 286.33 21.6286ZM289.895 23.118C292.81 24.375 295.563 25.6936 298.162 27.0746C296.819 28.398 295.382 30.3882 294.838 33.2172C294.146 36.7916 295.281 39.6986 296.289 41.4651C294.979 42.1658 293.643 42.8394 292.34 43.561C288.19 41.8758 285.315 38.0317 284.98 33.5472C284.684 29.4842 286.598 25.5066 289.895 23.118ZM301.365 28.8269C304.555 30.6693 307.483 32.5972 310.196 34.5731C306.523 36.2563 302.903 38.0269 299.324 39.8721C298.585 38.6408 297.692 36.5097 298.202 33.8792C298.699 31.2968 300.291 29.6665 301.365 28.8269ZM220.175 80.9356C222.009 86.6859 219.88 93.5041 214.622 98.7312C214.004 99.3424 213.943 100.322 214.467 101.016C214.803 101.457 215.307 101.692 215.83 101.692C216.126 101.692 216.421 101.616 216.69 101.457C227.717 94.9291 234.07 83.8358 233.271 72.5081C232.78 65.5558 229.691 60.2134 226.911 56.7108C228.597 53.6141 230.369 50.5568 232.23 47.5434C237.461 39.0651 243.391 30.9716 249.905 23.3443C252.712 24.808 254.646 27.3788 254.821 30.031C254.948 31.9514 254.162 34.0154 252.665 35.6871C250.798 37.7735 248.038 39.0277 245.097 39.1294C244.19 39.1619 243.465 39.8999 243.438 40.8153C243.418 41.7301 244.103 42.5053 245.009 42.5812C250.784 43.0772 255.378 46.1271 256.177 50.0262C256.486 51.523 256.338 52.8024 255.761 53.6284C254.021 56.1389 247.266 56.6628 238.173 52.6919C237.542 52.4175 236.803 52.551 236.306 53.0382C235.802 53.522 235.648 54.262 235.896 54.9125C238.193 60.8016 242.733 65.4406 248.36 67.6469C250.509 68.4932 252.725 68.9249 254.881 68.9777C249.334 73.515 243.955 78.2794 238.784 83.2917C226.038 95.6534 214.555 109.41 204.582 124.256C207.013 107.514 211.378 91.4915 217.597 76.3055C218.765 77.7163 219.645 79.2592 220.175 80.9356ZM223.439 79.8772C222.606 77.246 221.109 74.892 219.061 72.8259C220.934 68.5 222.949 64.2439 225.131 60.0637C227.314 63.1299 229.47 67.4077 229.852 72.7548C230.329 79.5567 227.851 86.2895 223.103 91.7422C224.48 87.7816 224.641 83.6583 223.439 79.8772ZM265.626 285.879C262.194 287.247 258.977 284.9 253.585 280.641C249.77 277.632 245.446 274.22 239.912 271.964C239.2 271.676 238.495 271.427 237.79 271.194C236.427 266.988 234.788 262.877 232.921 259.114C231.766 256.785 230.584 254.505 229.389 252.263C232.163 252.902 234.701 253.684 236.978 254.399C243.095 256.315 247.924 257.83 251.516 254.323C253.054 252.819 253.961 250.7 254.236 248.014C259.568 255.847 264.343 263.815 268.366 271.593C268.419 271.784 268.513 271.957 268.634 272.121C269.608 274.016 270.548 275.905 271.428 277.772C270.071 282.144 268.124 284.883 265.626 285.879ZM273.033 287.327C271.408 290.519 268.03 292.817 265.888 292.963C258.292 293.461 254.773 290.562 250.314 286.878C247.568 284.605 244.532 282.14 240.261 280.284C239.905 278.651 239.496 277.011 239.046 275.374C243.935 277.45 247.937 280.576 251.469 283.366C255.741 286.735 259.541 289.737 263.645 289.737C264.706 289.737 265.78 289.539 266.888 289.096C269.601 288.012 271.791 285.693 273.422 282.186C273.456 282.266 273.49 282.347 273.53 282.428C274.215 284.261 273.678 286.064 273.033 287.327ZM237.683 309.371C242.021 304.369 242.692 294.865 241.04 284.492C243.807 285.995 246.003 287.784 248.145 289.555C252.443 293.108 256.52 296.479 264.209 296.477C264.82 296.477 265.458 296.456 266.116 296.412C269.682 296.172 274.06 292.878 276.082 288.91C276.095 288.875 276.109 288.841 276.129 288.806C279.668 298.144 281.75 306.751 281.944 313.909C282.105 320.081 280.809 324.674 278.09 327.568C277.727 327.958 276.364 329.302 274.161 330.312C266.68 333.736 259.233 328.585 249.797 322.057C244.976 318.721 239.724 315.108 233.788 312.159C235.487 311.478 236.763 310.431 237.683 309.371ZM159.474 277.08C160.388 278.886 161.57 280.558 163.087 282.054C171.401 290.24 185.618 290.692 190.809 289.64C197.054 288.381 202.138 286.558 206.624 284.946C215.119 281.898 221.834 279.49 232.659 281.547C234.358 281.87 235.856 282.301 237.239 282.795C239.247 293.509 238.697 302.947 235.104 307.093C232.874 309.657 229.611 310.148 225.125 308.594C225.058 308.571 224.997 308.582 224.93 308.569C224.413 308.405 223.916 308.218 223.385 308.068C218.557 306.698 214.051 306.154 209.834 306.154C200.56 306.154 192.716 308.79 186 311.049C180.809 312.795 176.471 314.231 172.623 314.227C171.992 312.472 170.998 310.854 169.668 309.479C167.197 306.936 163.96 305.626 160.683 305.525C157.829 298.686 158.138 288.69 159.474 277.08ZM136.024 235.837C138.065 227.29 141.786 219.369 147.064 212.245C146.91 213.07 146.816 213.912 146.889 214.774C147.111 217.311 148.293 219.607 150.227 221.242C151.946 222.697 154.068 223.474 156.284 223.474C156.56 223.474 156.842 223.46 157.124 223.434C158.165 223.345 159.145 223.047 160.079 222.635C160.408 225.551 162.046 228.219 164.612 229.764C163.907 232.441 163.228 235.122 162.604 237.809C162.49 238.042 162.436 238.295 162.436 238.551C162.107 239.963 161.798 241.374 161.496 242.785C161.428 242.958 161.381 243.133 161.375 243.318C160.401 247.876 159.548 252.448 158.809 257.025C158.783 257.143 158.756 257.258 158.756 257.38C158.507 258.914 158.245 260.444 158.024 261.978C157.238 267.54 156.479 272.912 155.928 277.999C153.356 277.256 148.454 275.859 142.142 274.157C142.135 274.157 142.128 274.15 142.122 274.15C142.115 274.148 142.108 274.148 142.101 274.146C140.832 273.804 139.489 273.447 138.119 273.085C135.07 264.415 132.377 251.166 136.024 235.837ZM114.004 200.487C114.084 200.487 114.158 200.446 114.239 200.435C115.595 200.333 116.939 200.206 118.275 200.059C113.225 206.586 109.498 214.013 107.436 221.786C102.292 241.201 108.282 258.056 112.6 266.797C106.912 265.518 101.191 264.325 95.7445 263.338C91.9637 257.915 78.2977 236.031 86.5644 213.704C88.4448 208.618 91.3593 203.918 95.1737 199.69C99.1224 200.423 103.185 200.729 107.248 200.729C109.457 200.729 111.66 200.619 113.843 200.462C113.896 200.466 113.95 200.487 114.004 200.487ZM95.2005 168.085C97.0204 174.472 101.218 180.056 103.87 183.586C107.698 188.664 112.305 193.04 117.55 196.718C116.562 196.828 115.575 196.927 114.575 197.013C101.103 186.593 93.3135 176.561 91.3257 167.097C92.615 167.446 93.9111 167.766 95.2005 168.085ZM114.105 131.293C111.143 136.076 107.685 139.855 104.495 143.309C98.5583 149.735 93.4276 155.318 94.4618 164.349C93.2597 164.041 92.0644 163.706 90.869 163.372C90.822 162.407 90.8153 161.449 90.8892 160.499C91.4533 153.745 94.9722 150.265 99.4313 145.861C103.393 141.941 107.846 137.489 111.479 129.852C112.359 130.327 113.232 130.805 114.105 131.293ZM143.196 55.1842C135.822 54.1264 127.643 57.2068 122.358 63.0222C120.511 65.0577 119.255 67.161 118.436 69.3396C117.247 68.4173 116.086 67.5873 114.944 66.8216C115.75 64.864 116.824 62.9273 118.295 61.0063C120.692 57.8757 127.233 50.596 136.319 50.5825C136.326 50.5825 136.333 50.5825 136.34 50.5825C143.357 50.5825 148.944 55.0161 152.544 58.9755C149.676 56.9832 146.513 55.6572 143.196 55.1842ZM161.509 78.0002C161.523 78.0463 161.556 78.0808 161.569 78.1269C163.369 83.8474 165.035 89.7386 166.573 95.669C162.657 92.4205 156.654 88.8881 150.18 90.4419C147.225 91.148 144.412 93.0358 141.779 96.0336C134.782 85.2934 127.797 77.3226 121.297 71.6984C121.942 69.4663 123.07 67.3589 124.89 65.3599C129.429 60.3611 136.427 57.7069 142.719 58.6089C151.1 59.8076 158.474 67.4165 161.509 78.0002ZM170.864 65.8051C168.05 67.6842 165.525 69.9277 163.329 72.4919C161.321 66.5336 159.159 60.8084 156.835 55.4661C160.636 51.8761 164.786 48.6662 169.212 45.9428C174.839 42.4823 180.903 39.8185 187.243 37.9097C184.563 45.5742 182.28 53.3723 180.406 61.2807C177.022 62.3303 173.812 63.8333 170.864 65.8051ZM174.06 111.844C171.448 100.103 168.312 87.9239 164.618 76.4139C166.902 73.391 169.621 70.7829 172.751 68.687C174.873 67.2735 177.136 66.1209 179.507 65.2238C179.11 67.0269 178.714 68.83 178.358 70.6447C175.719 84.2397 174.282 98.0237 174.06 111.844ZM163.497 139.592C163.141 136.837 164.679 134.095 167.365 133.106C168.043 132.857 168.735 132.735 169.433 132.735C170.3 132.735 171.159 132.928 171.965 133.309C173.019 133.8 173.845 134.593 174.443 135.559C170.588 136.431 166.922 137.798 163.497 139.592ZM140.738 200.654C141.04 199.529 141.651 198.553 142.484 197.787C144.002 201.454 146.01 204.855 148.374 207.97C145.741 208.821 142.786 207.774 141.343 205.258C140.543 203.856 140.328 202.219 140.738 200.654ZM139.093 182.275C139.274 186.284 139.912 190.173 141.054 193.854C139.939 193.808 138.858 193.485 137.918 192.823C136.601 191.894 135.722 190.501 135.446 188.904C134.943 186.047 136.541 183.33 139.093 182.275ZM131.954 187.504C128.046 182.341 125.85 177.37 125.313 172.627C127.529 172.756 129.738 172.837 131.954 172.876C132.062 175.811 133.512 178.497 135.802 180.201C133.519 181.9 132.068 184.576 131.954 187.504ZM118.732 172.117C119.752 172.217 120.773 172.297 121.801 172.38C122.405 179.364 126.166 186.662 133.042 194.151C132.357 194.292 131.672 194.43 130.967 194.569C123.426 186.881 119.302 179.346 118.732 172.117ZM106.066 170.406C109.115 170.943 112.197 171.364 115.287 171.732C115.689 179.461 119.591 187.377 126.918 195.334C125.561 195.576 124.164 195.809 122.754 196.026C116.421 192.177 110.982 187.303 106.597 181.488C104.24 178.354 100.962 173.976 99.1291 169.03C101.432 169.539 103.749 169.998 106.066 170.406ZM121.921 135.907C124.836 137.736 127.69 139.68 130.51 141.679C128.126 147.31 125.158 150.791 122.485 153.893C119.101 157.805 115.924 161.529 115.347 168.26C112.432 167.907 109.531 167.506 106.657 166.998C103.783 166.493 100.922 165.88 98.068 165.221C98.0345 165.009 97.9673 164.801 97.9337 164.589C96.7585 156.751 101.278 151.861 107 145.668C110.344 142.048 113.97 138.086 117.093 133.002C118.711 133.954 120.33 134.909 121.921 135.907ZM139.59 126.392C139.549 131.007 139.509 135.368 138.126 140.348C137.911 141.107 137.676 141.803 137.434 142.484C136.514 141.787 135.607 141.079 134.674 140.399C134.842 139.926 135.017 139.484 135.178 138.986C137.521 131.591 137.629 125.409 137.716 119.956C137.824 113.645 137.945 108.105 141.544 102.169C142.202 103.256 142.867 104.359 143.532 105.501C139.744 113.498 139.643 120.055 139.59 126.392ZM140.738 159.749C140.328 158.183 140.543 156.546 141.343 155.142C142.148 153.738 143.444 152.732 144.996 152.313C145.513 152.175 146.043 152.106 146.567 152.106C147.178 152.106 147.783 152.246 148.367 152.447C146.003 155.555 144.002 158.951 142.484 162.616C141.651 161.85 141.04 160.874 140.738 159.749ZM135.446 171.499C135.722 169.901 136.601 168.511 137.918 167.58C138.858 166.913 139.946 166.556 141.067 166.503C139.919 170.197 139.274 174.102 139.093 178.131C136.541 177.072 134.943 174.356 135.446 171.499ZM121.841 167.881C121.8 168.223 121.787 168.566 121.76 168.91C120.76 168.829 119.752 168.739 118.752 168.64C119.208 162.979 121.794 159.955 125.064 156.166C127.683 153.129 130.813 149.466 133.365 143.713C134.264 144.379 135.144 145.073 136.037 145.755C134.103 149.581 131.672 152.091 129.288 154.515C125.837 158.027 122.579 161.342 121.841 167.881ZM125.246 168.272C125.85 162.924 128.442 160.289 131.719 156.952C134.096 154.536 136.675 151.866 138.797 147.881C139.731 148.621 140.631 149.387 141.551 150.145C140.261 150.96 139.153 152.048 138.374 153.413C137.112 155.617 136.776 158.186 137.427 160.644C137.703 161.663 138.159 162.59 138.724 163.443C137.75 163.731 136.81 164.142 135.95 164.746C134.305 165.91 133.116 167.549 132.471 169.434C130.054 169.394 127.636 169.297 125.219 169.152C125.239 168.859 125.212 168.562 125.246 168.272ZM159.938 141.686C156.64 143.821 153.645 146.378 151.006 149.279C150.462 148.257 150.2 147.111 150.308 145.931C150.442 144.316 151.201 142.85 152.43 141.81C153.558 140.858 154.928 140.39 156.291 140.39C157.594 140.39 158.87 140.851 159.938 141.686ZM145.634 109.208C150.099 117.295 154.505 126.622 158.715 137.298C155.848 136.523 152.672 137.092 150.227 139.158C148.293 140.796 147.111 143.095 146.889 145.631C146.802 146.68 146.916 147.709 147.158 148.705C146.54 148.663 145.922 148.695 145.298 148.766C143.653 147.372 141.98 146 140.281 144.658C140.698 143.608 141.087 142.507 141.423 141.284C142.934 135.861 142.974 131.063 143.015 126.424C143.068 120.837 143.129 115.515 145.634 109.208ZM169.581 107.968C171.394 115.794 172.979 123.486 174.349 130.724C174.047 130.53 173.751 130.33 173.416 130.175C171.132 129.094 168.567 128.981 166.196 129.855C163.96 130.678 162.241 132.278 161.187 134.24C156.761 123.211 152.128 113.629 147.433 105.358C148.461 103.479 149.576 102.026 151.302 101.192C157.829 98.0373 167.519 106.133 169.581 107.968ZM149.817 98.0719C147.877 99.0124 146.527 100.406 145.466 101.955C144.882 100.97 144.297 100.008 143.713 99.0659C146.057 96.1745 148.494 94.4012 150.972 93.8083C158.957 91.9089 166.707 100.329 168.184 102.035C168.218 102.192 168.258 102.349 168.298 102.506C163.638 99.1235 156.11 95.0307 149.817 98.0719ZM122.217 89.7115C121.23 84.5256 120.357 79.9165 120.619 75.7383C126.602 81.2351 133.049 88.8556 139.523 98.9413C134.533 106.218 134.412 112.87 134.291 119.896C134.197 125.366 134.103 131.022 131.914 137.932C131.867 138.077 131.813 138.2 131.766 138.343C129.127 136.489 126.454 134.679 123.735 132.97C122.109 131.951 120.451 130.971 118.792 129.998C119.752 128.16 120.652 126.207 121.438 124.054C126.239 110.853 124.104 99.6236 122.217 89.7115ZM159.958 218.728C159.051 219.436 157.983 219.888 156.822 219.992C155.244 220.119 153.665 219.637 152.43 218.593C151.201 217.551 150.442 216.086 150.308 214.472C150.2 213.289 150.462 212.143 151.006 211.124C153.652 214.027 156.647 216.589 159.958 218.728ZM227.972 159.749C227.677 160.874 227.065 161.85 226.233 162.613C224.715 158.951 222.714 155.555 220.35 152.447C220.934 152.246 221.532 152.106 222.15 152.106C222.674 152.106 223.197 152.175 223.721 152.313C225.272 152.732 226.569 153.738 227.368 155.145C228.174 156.546 228.388 158.183 227.972 159.749ZM230.799 167.58C232.109 168.511 232.989 169.901 233.271 171.499C233.774 174.354 232.176 177.072 229.617 178.131C229.443 174.102 228.791 170.197 227.643 166.503C228.764 166.556 229.852 166.913 230.799 167.58ZM227.65 193.877C228.798 190.192 229.443 186.293 229.617 182.275C232.176 183.33 233.774 186.047 233.271 188.904C232.774 191.739 230.383 193.741 227.65 193.877ZM227.972 200.654C228.388 202.219 228.174 203.856 227.368 205.261C225.931 207.771 222.976 208.823 220.337 207.968C222.707 204.857 224.708 201.456 226.233 197.787C227.059 198.553 227.677 199.529 227.972 200.654ZM244.532 244.873C243.035 246.336 240.483 245.595 235.728 244.051C232.257 242.925 228.086 241.59 223.09 241.055C218.819 233.806 214.83 227.678 211.976 223.453C212.124 223.46 212.278 223.474 212.432 223.474C214.649 223.474 216.771 222.697 218.483 221.242C221.317 218.844 222.365 215.12 221.559 211.714C221.754 211.728 221.948 211.754 222.143 211.754C222.694 211.754 223.244 211.686 223.782 211.592C231.263 218.802 238.428 226.882 245.029 235.367C246.211 240.098 246.05 243.389 244.532 244.873ZM225.293 244.85C228.872 245.471 231.995 246.474 234.674 247.343C239.811 249.012 243.874 250.334 246.916 247.36C248.434 245.872 249.193 243.737 249.227 240.933C249.697 241.572 250.167 242.206 250.623 242.847C251.288 247.187 250.791 250.216 249.133 251.837C247.098 253.825 243.908 252.949 237.992 251.095C234.869 250.117 231.296 249.02 227.24 248.307C226.589 247.136 225.944 245.985 225.293 244.85ZM201.345 227.297C198.652 228.291 195.731 227.186 194.254 224.846C198.115 223.974 201.788 222.607 205.213 220.809C205.576 223.566 204.038 226.305 201.345 227.297ZM219.43 244.274C219.981 244.283 220.511 244.318 221.048 244.352C221.686 245.455 222.331 246.584 222.982 247.73C221.042 247.562 218.993 247.505 216.845 247.608C208.665 248.009 203.414 250.516 198.78 252.727C198.296 252.958 197.833 253.177 197.363 253.396L197.067 250.984C198.666 250.345 200.217 249.603 201.795 248.847C206.624 246.529 211.68 244.115 219.43 244.274ZM208.759 218.728C212.063 216.591 215.058 214.032 217.704 211.131C218.993 213.603 218.49 216.725 216.28 218.593C215.051 219.637 213.5 220.128 211.895 219.992C210.727 219.888 209.659 219.438 208.759 218.728ZM218.967 240.827C210.592 240.816 205.166 243.4 200.324 245.724C199.062 246.329 197.846 246.91 196.624 247.426L194.428 229.727C195.886 230.612 197.564 231.12 199.297 231.12C200.365 231.12 201.453 230.936 202.52 230.546C205.469 229.462 207.523 227.027 208.323 224.186C210.921 227.998 214.756 233.811 218.967 240.827ZM167.365 227.297C164.679 226.305 163.141 223.566 163.497 220.809C166.922 222.607 170.602 223.974 174.463 224.846C172.979 227.188 170.058 228.291 167.365 227.297ZM193.75 252.095L194.086 254.805C191.091 255.942 188.075 256.534 184.107 255.896C177.237 254.784 170.803 250.426 164.961 242.997C165.021 242.708 165.088 242.42 165.156 242.132C171.206 248.167 177.673 251.706 184.409 252.64C185.624 252.808 186.773 252.884 187.861 252.884C190.009 252.884 191.937 252.582 193.75 252.095ZM178.519 225.554C180.433 225.805 182.374 225.978 184.355 225.978C186.336 225.978 188.277 225.805 190.191 225.554C189.6 228.27 187.223 230.318 184.355 230.318C181.488 230.318 179.117 228.27 178.519 225.554ZM184.355 233.776C187.021 233.776 189.405 232.637 191.111 230.834L193.32 248.619C190.809 249.342 188.122 249.661 184.879 249.211C178.338 248.305 172.019 244.546 166.049 238.083C166.613 235.713 167.217 233.347 167.835 230.984C168.366 231.074 168.889 231.122 169.42 231.12C171.851 231.12 174.195 230.158 175.941 228.482C177.492 231.606 180.662 233.776 184.355 233.776ZM235.097 274.005C235.587 275.645 236.024 277.272 236.413 278.888C235.426 278.61 234.399 278.358 233.291 278.148C221.545 275.914 214.098 278.589 205.475 281.688C200.882 283.336 196.134 285.04 190.137 286.251C184.959 287.289 172.422 286.41 165.485 279.578C161.596 275.752 160.153 270.59 161.173 264.242C164.565 271.994 169.165 277.461 174.947 280.456C185.114 285.732 195.107 282.072 205.69 278.199C215.078 274.764 224.755 271.238 235.097 274.005ZM204.515 274.948C194.663 278.556 185.356 281.962 176.511 277.381C170.206 274.113 165.404 267.362 162.234 257.341C162.778 253.995 163.369 250.649 164.048 247.311C169.977 254.136 176.532 258.174 183.569 259.313C184.872 259.525 186.101 259.619 187.263 259.619C189.956 259.619 192.306 259.096 194.522 258.323L195.939 269.787C196.053 270.664 196.785 271.302 197.638 271.302C197.712 271.302 197.779 271.298 197.853 271.289C198.793 271.171 199.458 270.306 199.344 269.358L197.813 256.991C198.619 256.624 199.431 256.244 200.244 255.856C204.804 253.68 209.511 251.429 217.012 251.062C219.867 250.915 222.539 251.095 225.051 251.45C226.676 254.426 228.294 257.502 229.859 260.659C231.384 263.746 232.706 266.951 233.841 270.175C223.251 268.116 213.386 271.702 204.515 274.948ZM256.943 151.976C257.97 153.445 259.3 154.658 260.589 155.827C262.879 157.911 265.243 160.063 266.338 163.962C267.07 166.549 266.922 168.793 266.774 169.894C266.21 174.006 263.94 176.086 261.314 178.497C259.179 180.464 256.963 182.5 255.579 185.742C253.249 191.207 255.136 195.777 256.963 200.197C258.548 204.031 260.052 207.659 259.118 212.077C257.876 217.972 252.531 223.227 243.297 227.726C239.912 223.61 236.4 219.628 232.794 215.817C241.282 213.031 246.023 209.321 247.165 204.5C248.065 200.686 246.339 197.548 244.821 194.783C243.297 192.019 241.987 189.629 242.766 186.634C243.418 184.107 245.184 182.804 247.225 181.294C249.73 179.438 252.571 177.337 253.719 172.747C254.767 168.543 254.27 162.813 250.811 159.491C248.75 157.51 246.446 157.18 244.593 156.915C242.974 156.685 242.028 156.516 241.343 155.737C239.865 154.049 240.322 150.019 242.605 144.384C246.937 140.365 251.711 136.124 256.862 131.768C253.739 140.703 253.739 147.377 256.943 151.976ZM231.182 155.419C233.136 153.45 235.245 151.379 237.488 149.223C236.662 153.166 237.078 156.09 238.777 158.031C240.335 159.8 242.343 160.088 244.116 160.341C245.761 160.577 247.178 160.78 248.448 161.998C250.785 164.241 251.194 168.677 250.395 171.903C249.549 175.283 247.534 176.775 245.197 178.502C242.954 180.162 240.409 182.043 239.449 185.76C238.327 190.098 240.181 193.476 241.819 196.459C243.216 198.996 244.418 201.189 243.827 203.699C242.934 207.476 238.3 210.612 230.114 213.038C229.181 212.079 228.234 211.136 227.28 210.207C228.503 209.413 229.564 208.341 230.343 206.99C231.598 204.786 231.934 202.215 231.283 199.759C231.014 198.74 230.551 197.813 229.993 196.96C233.324 195.968 236.004 193.185 236.648 189.505C237.293 185.823 235.708 182.281 232.915 180.201C235.708 178.119 237.293 174.577 236.648 170.897C236.212 168.389 234.829 166.206 232.76 164.748C231.907 164.141 230.967 163.731 229.987 163.443C230.551 162.59 231.014 161.663 231.283 160.644C231.746 158.898 231.692 157.104 231.182 155.419ZM208.779 141.686C209.84 140.851 211.116 140.39 212.419 140.39C213.782 140.39 215.159 140.858 216.28 141.81C218.49 143.675 219 146.8 217.704 149.272C215.065 146.376 212.077 143.818 208.779 141.686ZM194.24 135.552C194.845 134.586 195.691 133.802 196.745 133.309C197.551 132.928 198.417 132.735 199.284 132.735C199.975 132.735 200.674 132.857 201.345 133.106C204.038 134.095 205.576 136.837 205.213 139.592C201.788 137.794 198.108 136.424 194.24 135.552ZM178.553 134.842C179.157 132.133 181.494 130.083 184.355 130.083C187.223 130.083 189.6 132.13 190.191 134.847C188.277 134.597 186.336 134.425 184.355 134.425C182.387 134.425 180.46 134.595 178.553 134.842ZM184.355 137.883C207.483 137.883 226.293 156.867 226.293 180.201C226.293 203.533 207.483 222.52 184.355 222.52C161.234 222.52 142.417 203.533 142.417 180.201C142.417 156.867 161.234 137.883 184.355 137.883ZM114.555 91.0551C113.332 83.5499 112.238 76.7344 113.829 70.234C115.011 71.0641 116.227 71.9796 117.469 72.9946C116.569 78.3227 117.65 84.0852 118.846 90.364C120.652 99.831 122.694 110.564 118.221 122.859C117.509 124.817 116.683 126.602 115.804 128.289C114.83 127.745 113.849 127.208 112.869 126.677C118.147 113.299 116.254 101.503 114.555 91.0551ZM134.157 272.045C128.845 270.666 122.996 269.207 117.006 267.807C113.03 260.652 105.321 243.156 110.747 222.678C112.983 214.23 117.315 206.204 123.251 199.415C128.697 198.602 133.707 197.557 137.884 196.669C138.159 196.778 138.428 196.902 138.71 196.985C138.153 197.831 137.696 198.749 137.427 199.759C136.776 202.217 137.112 204.786 138.374 206.987C139.57 209.076 141.443 210.518 143.545 211.232C138.394 218.457 134.741 226.444 132.693 235.028C129.147 249.93 131.283 262.958 134.157 272.045ZM275.027 208.883C276.579 212.503 277.801 215.362 276.935 219.579C275.316 227.507 267.197 234.408 252.839 240.106C251.275 237.945 249.676 235.801 248.045 233.684C247.971 233.571 247.897 233.474 247.803 233.382C247.051 232.407 246.292 231.434 245.52 230.469C255.297 225.546 261.039 219.616 262.469 212.796C263.624 207.322 261.771 202.828 260.132 198.862C258.433 194.767 256.969 191.228 258.729 187.109C259.817 184.552 261.67 182.855 263.624 181.057C266.351 178.555 269.433 175.719 270.165 170.369C270.36 168.993 270.541 166.21 269.642 163.019C268.272 158.16 265.411 155.557 262.886 153.261C261.684 152.168 260.549 151.137 259.75 149.989C256.661 145.557 257.56 137.876 262.382 127.192C267.103 123.341 272.106 119.44 277.398 115.536C276.431 120.88 276.189 126.214 276.713 131.444C277.579 140.044 280.239 144.946 282.589 149.272C284.738 153.23 286.437 156.36 286.37 161.495C286.269 168.188 283.314 171.887 279.883 176.166C276.384 180.54 272.415 185.495 271.932 194.2C271.562 200.806 273.402 205.097 275.027 208.883ZM340.745 75.6665C338.959 76.2086 336.192 77.2026 331.8 78.7822C331.773 78.7937 331.76 78.814 331.733 78.8255C331.706 78.8371 331.679 78.8323 331.652 78.8466C330.289 79.4896 328.959 80.1679 327.616 80.8272C327.549 80.8523 327.482 80.8523 327.415 80.8868C327.368 80.9099 327.341 80.9539 327.294 80.9838C321.539 83.8128 315.951 86.7808 310.532 89.8612C310.384 89.9256 310.243 89.9926 310.122 90.0943C299.109 96.3771 288.821 103.075 279.359 109.866C279.151 109.958 278.969 110.085 278.815 110.253C272.247 114.978 266.096 119.728 260.361 124.397C260.106 124.51 259.897 124.69 259.716 124.916C252.578 130.754 246.124 136.431 240.396 141.748C240.174 141.875 239.986 142.053 239.832 142.273C236.064 145.781 232.599 149.129 229.496 152.226C228.247 150.653 226.569 149.504 224.608 148.972C223.594 148.697 222.566 148.638 221.552 148.705C222.371 145.296 221.324 141.561 218.483 139.158C215.649 136.756 211.821 136.364 208.632 137.768C208.323 134.969 206.792 132.403 204.401 130.83C214.924 114.411 227.274 99.255 241.161 85.7846C248.024 79.1277 255.277 72.9391 262.812 67.1353C264.222 66.3655 265.505 65.362 266.64 64.1815C281.091 53.4969 296.705 44.3891 313.312 36.9224C332.915 52.4635 339.214 70.2761 340.745 75.6665ZM360.965 93.6403C365.458 102.324 366.479 115.386 360.435 122.22C359.32 123.479 358.024 124.439 356.647 125.453C354.821 126.809 352.813 128.305 350.912 130.726C351.349 129.015 351.839 127.332 352.45 125.706C353.598 122.656 354.787 120.463 355.835 118.531C357.601 115.278 358.998 112.709 358.756 108.593C358.427 102.854 355.049 96.9606 350.348 93.9262C347.716 92.2268 345.52 91.932 343.398 91.646C341.517 91.3919 339.738 91.1521 337.454 89.9161C334.775 88.466 332.518 86.1695 330.665 83.1745C331.457 82.7916 332.23 82.3905 333.029 82.0144C339.63 79.6421 341.893 78.9292 342.659 78.7151C345.936 79.6854 355.647 83.3452 360.965 93.6403ZM346.977 110C344.338 101.524 338.515 101.978 333.391 102.37C329.738 102.656 325.971 102.947 322.23 100.862C316.536 97.6843 314.219 94.0787 313.346 92.2288C317.966 89.6261 322.714 87.1101 327.583 84.6889C329.779 88.3575 332.525 91.173 335.836 92.9647C338.67 94.4981 340.94 94.8024 342.941 95.0741C344.855 95.3329 346.507 95.5539 348.501 96.8386C352.316 99.3058 355.062 104.109 355.338 108.792C355.512 111.92 354.505 113.784 352.833 116.869C351.785 118.801 350.482 121.204 349.247 124.478C349.106 124.844 349.012 125.231 348.877 125.603C348.951 120.71 348.629 115.344 346.977 110ZM369.642 212.6C369.642 212.586 369.635 212.544 369.635 212.538C369.601 212.355 369.534 212.182 369.447 212.021C369.42 211.975 369.386 211.938 369.36 211.897C369.299 211.814 369.252 211.726 369.185 211.655C364.363 206.609 363.96 200.527 364.014 198.147C364.034 197.236 366.425 194.797 368.171 193.019C372.435 188.682 377.734 183.282 377.492 176.63C377.311 171.677 371.629 166.581 365.048 160.685C358.803 155.084 351.893 148.882 349.401 142.449C349.885 139.957 350.711 137.611 351.879 135.483C353.941 131.748 356.244 130.046 358.675 128.241C360.132 127.166 361.637 126.053 362.987 124.524C370.293 116.274 368.963 101.632 364.007 92.0397C358.386 81.1755 348.427 76.9418 344.271 75.5953C343.048 70.8961 336.803 51.1056 315.293 34.0934C315.058 33.579 314.595 33.2633 314.085 33.1548C310.7 30.5589 306.939 28.0388 302.782 25.6543C302.487 25.2715 302.077 25.0479 301.627 24.997C298.33 23.162 294.791 21.4145 290.99 19.7841C290.695 19.5165 290.339 19.3735 289.949 19.3525C280.971 15.6012 270.562 12.5045 258.48 10.4547C258.393 10.4344 258.313 10.3971 258.225 10.3788C258.165 10.3673 258.104 10.3835 258.044 10.3788C257.97 10.3693 257.91 10.3463 257.836 10.3463C247.756 8.67459 236.528 7.72458 224.017 7.72458C196.859 7.72458 175.162 17.651 174.255 18.0705C164.168 22.6803 154.8 28.7673 146.359 36.1526C139.973 27.0475 132.693 21.1556 124.44 20.5078C118.651 20.0511 110.411 24.4279 108.02 25.777C87.7464 37.2504 82.8911 62.9849 82.1188 68.0277C80.9906 75.4408 81.3264 81.5624 82.1994 86.9718C82.1994 87.0159 82.2061 87.0552 82.2061 87.0985C82.2128 87.1216 82.2262 87.1378 82.2262 87.1609C82.8709 91.0924 83.7909 94.6594 84.6774 98.0143C86.8733 106.292 88.606 112.834 84.3618 120.823C81.8972 125.469 79.1572 127.348 76.2629 129.336C73.0193 131.559 69.675 133.855 66.7001 139.714C59.5548 153.8 61.9992 174.066 72.1329 186.676C66.6732 192.244 60.2062 201.131 57.9767 213.522C53.8601 236.368 67.6469 254.394 73.7782 261.095C69.0236 261.529 64.3966 262.554 59.9779 264.159C43.0683 270.29 29.127 284.618 24.453 300.66C18.9464 319.574 25.6417 338.82 37.555 352.895C37.555 352.897 37.5616 352.899 37.5616 352.902C37.5616 352.906 37.5683 352.906 37.5683 352.908C43.2765 359.653 50.18 365.215 57.5133 368.973C65.4107 373.017 73.9259 375.039 83.0052 375.039C91.8965 375.039 101.345 373.068 111.284 369.19C111.506 369.114 111.741 369.037 111.949 368.961C112.009 368.938 112.05 368.892 112.11 368.862C114.306 367.983 116.522 367.045 118.765 365.98C138.623 356.547 149.73 340.99 155.646 331.177C157.137 331.737 158.702 332.03 160.267 332.03C161.63 332.03 162.986 331.765 164.296 331.338C163.201 336.093 164.732 341.283 168.701 344.598C171.152 346.641 174.121 347.637 177.076 347.637C178.902 347.637 180.722 347.246 182.408 346.496C181.837 351.327 183.912 356.303 188.203 359.162C190.379 360.612 192.877 361.364 195.422 361.364C196.309 361.364 197.202 361.272 198.088 361.089C199.499 360.799 200.801 360.234 202.017 359.526C201.997 360.949 202.191 362.381 202.635 363.775C203.702 367.153 206.013 369.906 209.135 371.532C211.056 372.535 213.111 373.008 215.146 373.008C217.932 373.008 220.652 372.088 222.915 370.428C223.043 371.836 223.392 373.232 223.976 374.564C225.4 377.804 227.992 380.292 231.269 381.569C232.821 382.173 234.419 382.459 235.99 382.459C239.261 382.459 242.417 381.214 244.828 379.021C245.788 383.771 249.287 387.829 254.23 389.199C255.391 389.52 256.553 389.672 257.708 389.672C261.764 389.672 265.565 387.73 268.043 384.548C270.024 389.344 274.718 392.725 280.185 392.725C287.438 392.725 293.334 386.771 293.334 379.45C293.334 372.183 287.511 366.266 280.326 366.185C281.582 354.769 284.771 339.754 290.641 323.604C297.564 304.559 309.431 291.956 318.342 284.637C320.954 284.817 323.486 284.939 325.863 284.939C340.416 284.939 350.556 281.547 356.137 274.782C364.833 264.24 361.61 253.154 359.481 245.821C358.917 243.878 358.427 242.202 358.252 240.892C357.903 238.16 358.386 237.882 360.435 236.73C362.04 235.828 364.236 234.592 366.371 231.705C368.191 229.245 368.084 227.119 367.667 225.773C367.143 224.034 365.867 222.662 364.511 221.634C365.961 221.023 367.13 220.149 368.016 219.012C370.165 216.254 369.715 213.022 369.648 212.609C369.648 212.607 369.648 212.605 369.642 212.6Z" fill="#C0FFD5"/>
<path d="M348.819 195.828C349.709 196.167 350.599 196.314 351.47 196.314C355.862 196.314 359.762 192.514 361.423 190.116C362.366 188.761 363.536 188.945 363.782 189.005C364.679 189.238 365.615 188.714 365.868 187.808C366.127 186.888 365.602 185.933 364.692 185.671C363.33 185.283 360.533 185.366 358.612 188.131C357.436 189.831 353.596 193.934 350.021 192.59C347.676 191.705 348.281 188.818 348.354 188.502C348.586 187.575 348.021 186.637 347.111 186.404C346.201 186.18 345.257 186.736 345.032 187.665C344.5 189.793 344.613 194.241 348.819 195.828Z" fill="#C0FFD5"/>
</svg>
