<svg width="24" height="24" viewBox="0 0 24 24" fill="none" xmlns="http://www.w3.org/2000/svg">
<g id="Close 24" clip-path="url(#clip0_9761_12277)">
<path id="Vector (Stroke)" fill-rule="evenodd" clip-rule="evenodd" d="M5.41283 5.41334C5.70572 5.12045 6.1806 5.12045 6.47349 5.41334L11.9995 10.9394L17.5255 5.41339C17.8184 5.1205 18.2933 5.1205 18.5862 5.41339C18.8791 5.70628 18.8791 6.18116 18.5862 6.47405L13.0602 12.0001L18.5861 17.526C18.879 17.8189 18.879 18.2938 18.5861 18.5867C18.2933 18.8796 17.8184 18.8796 17.5255 18.5867L11.9995 13.0607L6.47354 18.5867C6.18065 18.8796 5.70577 18.8796 5.41288 18.5867C5.11999 18.2938 5.11999 17.8189 5.41288 17.526L10.9389 12.0001L5.41283 6.474C5.11994 6.18111 5.11994 5.70624 5.41283 5.41334Z" fill="#1C274C"/>
</g>
<defs>
<clipPath id="clip0_9761_12277">
<rect width="24" height="24" fill="white"/>
</clipPath>
</defs>
</svg>
