<svg width="23" height="23" viewBox="0 0 23 23" fill="none" xmlns="http://www.w3.org/2000/svg">
<path fill-rule="evenodd" clip-rule="evenodd" d="M11 2.34912C6.16751 2.34912 2.25 6.26663 2.25 11.0991C2.25 15.9316 6.16751 19.8491 11 19.8491C15.8325 19.8491 19.75 15.9316 19.75 11.0991C19.75 6.26663 15.8325 2.34912 11 2.34912ZM0.75 11.0991C0.75 5.4382 5.33908 0.849121 11 0.849121C16.6609 0.849121 21.25 5.4382 21.25 11.0991C21.25 13.6596 20.3111 16.0009 18.7589 17.7973L22.0303 21.0688C22.3232 21.3617 22.3232 21.8366 22.0303 22.1295C21.7374 22.4223 21.2626 22.4223 20.9697 22.1295L17.6982 18.858C15.9017 20.4102 13.5605 21.3491 11 21.3491C5.33908 21.3491 0.75 16.76 0.75 11.0991Z" fill="#707070"/>
</svg>
