<svg width="20" height="21" viewBox="0 0 20 21" fill="none" xmlns="http://www.w3.org/2000/svg">
<g id="Outline / Settings, Fine Tuning / Tuning 3">
<g id="Vector">
<path fill-rule="evenodd" clip-rule="evenodd" d="M15.2082 6.33301C15.2082 8.0589 13.8091 9.45801 12.0832 9.45801C10.3573 9.45801 8.95817 8.0589 8.95817 6.33301C8.95817 4.60712 10.3573 3.20801 12.0832 3.20801C13.8091 3.20801 15.2082 4.60712 15.2082 6.33301ZM12.0832 8.20801C13.1187 8.20801 13.9582 7.36854 13.9582 6.33301C13.9582 5.29747 13.1187 4.45801 12.0832 4.45801C11.0476 4.45801 10.2082 5.29747 10.2082 6.33301C10.2082 7.36854 11.0476 8.20801 12.0832 8.20801Z" fill="#707070"/>
<path fill-rule="evenodd" clip-rule="evenodd" d="M4.7915 14.6663C4.7915 16.3922 6.19061 17.7913 7.9165 17.7913C9.64239 17.7913 11.0415 16.3922 11.0415 14.6663C11.0415 12.9405 9.64239 11.5413 7.9165 11.5413C6.19061 11.5413 4.7915 12.9405 4.7915 14.6663ZM7.9165 16.5413C6.88097 16.5413 6.0415 15.7019 6.0415 14.6663C6.0415 13.6308 6.88097 12.7913 7.9165 12.7913C8.95204 12.7913 9.7915 13.6308 9.7915 14.6663C9.7915 15.7019 8.95204 16.5413 7.9165 16.5413Z" fill="#707070"/>
<path d="M11.8748 14.6318C11.8748 14.2866 12.1547 14.0068 12.4998 14.0068H18.3332C18.6783 14.0068 18.9582 14.2866 18.9582 14.6318C18.9582 14.977 18.6783 15.2568 18.3332 15.2568H12.4998C12.1547 15.2568 11.8748 14.977 11.8748 14.6318Z" fill="#707070"/>
<path d="M7.49984 5.67344C7.84502 5.67344 8.12484 5.95326 8.12484 6.29844C8.12484 6.64362 7.84502 6.92344 7.49984 6.92344L1.6665 6.92344C1.32133 6.92344 1.0415 6.64362 1.0415 6.29844C1.0415 5.95326 1.32133 5.67344 1.6665 5.67344L7.49984 5.67344Z" fill="#707070"/>
<path d="M1.0415 14.6318C1.0415 14.2866 1.32133 14.0068 1.6665 14.0068H3.33317C3.67835 14.0068 3.95817 14.2866 3.95817 14.6318C3.95817 14.977 3.67835 15.2568 3.33317 15.2568H1.6665C1.32133 15.2568 1.0415 14.977 1.0415 14.6318Z" fill="#707070"/>
<path d="M18.3332 5.67344C18.6783 5.67344 18.9582 5.95326 18.9582 6.29844C18.9582 6.64362 18.6783 6.92344 18.3332 6.92344H16.6665C16.3213 6.92344 16.0415 6.64362 16.0415 6.29844C16.0415 5.95326 16.3213 5.67344 16.6665 5.67344H18.3332Z" fill="#707070"/>
</g>
</g>
</svg>
