<svg width="81" height="81" viewBox="0 0 81 81" fill="none" xmlns="http://www.w3.org/2000/svg">
<path fill-rule="evenodd" clip-rule="evenodd" d="M73.5902 40.5788C73.5902 58.9883 58.6664 73.9121 40.2569 73.9121C21.8474 73.9121 6.92358 58.9883 6.92358 40.5788C6.92358 22.1693 21.8474 7.24548 40.2569 7.24548C58.6664 7.24548 73.5902 22.1693 73.5902 40.5788ZM53.6913 30.4777C54.6677 31.454 54.6677 33.0369 53.6913 34.0132L37.0247 50.6799C36.0484 51.6562 34.4655 51.6562 33.4891 50.6799L26.8225 44.0133C25.8462 43.0369 25.8462 41.454 26.8225 40.4777C27.7988 39.5014 29.3817 39.5014 30.358 40.4777L35.2569 45.3766L42.7064 37.9272L50.1558 30.4777C51.1321 29.5014 52.715 29.5014 53.6913 30.4777Z" fill="#4CAF50"/>
</svg>
