<svg width="22" height="23" viewBox="0 0 22 23" fill="none" xmlns="http://www.w3.org/2000/svg">
<path fill-rule="evenodd" clip-rule="evenodd" d="M11 2.25C5.89321 2.25 1.75 6.40121 1.75 11.5261C1.75 16.2885 5.32861 20.2112 9.93256 20.7412C10.395 20.7944 10.89 20.6004 11.2858 20.2036C11.6473 19.8412 11.6473 19.2528 11.2858 18.8904C10.9739 18.5776 10.6611 18.1609 10.4899 17.6872C10.3146 17.202 10.2713 16.5933 10.627 16.0276C10.9499 15.514 11.4341 15.239 11.9421 15.1053C12.4313 14.9766 12.9734 14.9693 13.494 15.0009C13.978 15.0303 14.4991 15.0978 15.0045 15.1633C15.0471 15.1689 15.0896 15.1744 15.132 15.1798C15.6889 15.2517 16.2328 15.3188 16.7581 15.3439C17.8324 15.3954 18.6599 15.26 19.2254 14.7976C19.7667 14.3552 20.25 13.4568 20.25 11.5261C20.25 6.40121 16.1068 2.25 11 2.25ZM0.25 11.5261C0.25 5.57647 5.0611 0.75 11 0.75C16.9389 0.75 21.75 5.57647 21.75 11.5261C21.75 13.6713 21.2132 15.1101 20.1748 15.959C19.1608 16.7879 17.8495 16.898 16.6863 16.8422C16.0929 16.8138 15.4934 16.739 14.9399 16.6675C14.901 16.6625 14.8625 16.6575 14.8241 16.6525C14.3046 16.5853 13.8335 16.5243 13.4032 16.4982C12.937 16.4699 12.5828 16.4878 12.3239 16.5559C12.0837 16.6191 11.968 16.7127 11.8968 16.826C11.858 16.8877 11.8307 16.9837 11.9007 17.1775C11.9749 17.3829 12.1368 17.6195 12.3478 17.8311C13.2933 18.779 13.2933 20.315 12.3478 21.2629C11.6976 21.9148 10.7682 22.3473 9.76101 22.2314C4.40565 21.6148 0.25 17.0562 0.25 11.5261ZM8.585 5.74977C8.17079 5.74977 7.835 6.08556 7.835 6.49977C7.835 6.91399 8.17079 7.24977 8.585 7.24977C8.99922 7.24977 9.335 6.91399 9.335 6.49977C9.335 6.08556 8.99922 5.74977 8.585 5.74977ZM6.335 6.49977C6.335 5.25713 7.34236 4.24977 8.585 4.24977C9.82764 4.24977 10.835 5.25713 10.835 6.49977C10.835 7.74241 9.82764 8.74977 8.585 8.74977C7.34236 8.74977 6.335 7.74241 6.335 6.49977ZM13.5 5.75C13.0858 5.75 12.75 6.08579 12.75 6.5C12.75 6.91421 13.0858 7.25 13.5 7.25C13.9142 7.25 14.25 6.91421 14.25 6.5C14.25 6.08579 13.9142 5.75 13.5 5.75ZM11.25 6.5C11.25 5.25736 12.2574 4.25 13.5 4.25C14.7426 4.25 15.75 5.25736 15.75 6.5C15.75 7.74264 14.7426 8.75 13.5 8.75C12.2574 8.75 11.25 7.74264 11.25 6.5ZM5.5 10.25C5.08579 10.25 4.75 10.5858 4.75 11C4.75 11.4142 5.08579 11.75 5.5 11.75C5.91421 11.75 6.25 11.4142 6.25 11C6.25 10.5858 5.91421 10.25 5.5 10.25ZM3.25 11C3.25 9.75736 4.25736 8.75 5.5 8.75C6.74264 8.75 7.75 9.75736 7.75 11C7.75 12.2426 6.74264 13.25 5.5 13.25C4.25736 13.25 3.25 12.2426 3.25 11ZM16.5 10.25C16.0858 10.25 15.75 10.5858 15.75 11C15.75 11.4142 16.0858 11.75 16.5 11.75C16.9142 11.75 17.25 11.4142 17.25 11C17.25 10.5858 16.9142 10.25 16.5 10.25ZM14.25 11C14.25 9.75736 15.2574 8.75 16.5 8.75C17.7426 8.75 18.75 9.75736 18.75 11C18.75 12.2426 17.7426 13.25 16.5 13.25C15.2574 13.25 14.25 12.2426 14.25 11Z" fill="#666666"/>
</svg>
