<svg width="18" height="22" viewBox="0 0 18 22" fill="none" xmlns="http://www.w3.org/2000/svg">
<path fill-rule="evenodd" clip-rule="evenodd" d="M17.6072 9.37311C17.2365 8.73114 16.5572 8.52011 15.9087 8.42944C15.255 8.33803 14.3802 8.33806 13.322 8.33809L13.2618 8.33809C12.6316 8.33809 12.2197 8.33188 11.9196 8.29015C11.6481 8.25241 11.5618 8.19655 11.525 8.16397C11.498 8.13587 11.45 8.07014 11.4172 7.83317C11.3787 7.55376 11.377 7.17061 11.377 6.55655V6.18206C11.377 4.59454 11.377 3.3228 11.2548 2.41611C11.1402 1.56505 10.8675 0.609203 9.92336 0.319858C8.99576 0.0355951 8.21775 0.645148 7.613 1.27356C6.96877 1.94301 6.20348 2.97846 5.2453 4.2749L2.10831 8.5192C1.49797 9.34492 0.989185 10.0332 0.686032 10.6024C0.382146 11.173 0.160988 11.8504 0.498062 12.5263L0.499236 12.5288L0.50279 12.536L0.506827 12.544L0.510801 12.5517L0.51515 12.5599L0.519572 12.568L0.523759 12.5755L0.528184 12.5833L0.532239 12.5902L0.533726 12.5927C0.901229 13.2291 1.57759 13.4519 2.23195 13.5518C2.90627 13.6548 3.80606 13.6614 4.8973 13.6614C5.53391 13.6614 5.93983 13.6628 6.23794 13.7008C6.5013 13.7344 6.58006 13.7862 6.61382 13.816C6.64373 13.8473 6.69617 13.9202 6.73315 14.1658C6.77547 14.4468 6.78211 14.8359 6.7821 15.443L6.78209 15.8173C6.78205 17.4049 6.78201 18.6766 6.90418 19.5833C7.01885 20.4344 7.29144 21.3902 8.23563 21.6796C9.16323 21.9639 9.94125 21.3543 10.546 20.7259C11.1903 20.0564 11.9556 19.021 12.9138 17.7245L16.0131 13.5312C16.6439 12.6778 17.1627 11.9648 17.4687 11.3713C17.7681 10.7906 17.9769 10.1092 17.6429 9.43954L17.6418 9.43713L17.6382 9.42986L17.6342 9.42183L17.6302 9.41413L17.6258 9.40592L17.6214 9.39776L17.6172 9.3902L17.6127 9.38241L17.6087 9.37545L17.6072 9.37311ZM8.69382 2.31367C8.12586 2.90386 7.41809 3.85878 6.41435 5.21684L3.35221 9.35988C2.69452 10.2497 2.25448 10.8485 2.00997 11.3076C1.89095 11.531 1.84627 11.672 1.83355 11.7573C1.8257 11.81 1.83049 11.8338 1.83677 11.8491C1.86096 11.8847 1.96597 11.9939 2.45834 12.069C2.99624 12.1512 3.76967 12.1614 4.8973 12.1614L4.94327 12.1614C5.5204 12.1614 6.02327 12.1613 6.42765 12.2129C6.86083 12.2681 7.29112 12.3937 7.64739 12.7288L7.65322 12.7343L7.65893 12.7399C8.00894 13.0834 8.15122 13.5094 8.21642 13.9424C8.27874 14.3563 8.28211 14.8654 8.2821 15.443L8.28209 15.7526C8.28207 17.4195 8.28375 18.5889 8.39074 19.383C8.44402 19.7784 8.51569 20.0103 8.5843 20.1399C8.63573 20.2369 8.66534 20.2433 8.67364 20.2451L8.67514 20.2454L8.67665 20.2459C8.68713 20.2495 8.72398 20.2623 8.83766 20.2051C8.97966 20.1336 9.18251 19.9795 9.46519 19.6858C10.0332 19.0956 10.7409 18.1407 11.7447 16.7826L14.8069 12.6396C15.4608 11.7548 15.8965 11.1473 16.1354 10.684C16.3402 10.2868 16.3179 10.1523 16.3042 10.1166C16.2818 10.0838 16.1809 9.98208 15.701 9.91498C15.1639 9.83988 14.3954 9.83809 13.2618 9.83809C12.6589 9.83809 12.1361 9.83468 11.713 9.77586C11.2762 9.71513 10.8449 9.58364 10.4917 9.25148L10.4859 9.24599L10.4801 9.24039C10.1269 8.8937 9.99071 8.46825 9.93134 8.03838C9.87688 7.64405 9.87693 7.15573 9.87697 6.60489L9.87697 6.24685C9.87697 4.57995 9.87528 3.4105 9.76827 2.61643C9.71499 2.22104 9.64332 1.98911 9.5747 1.85959C9.52327 1.76252 9.49367 1.75617 9.48536 1.75438L9.48386 1.75403L9.48235 1.75352C9.47188 1.74991 9.43502 1.73719 9.32135 1.79439C9.17934 1.86584 8.9765 2.01993 8.69382 2.31367Z" fill="#707070"/>
</svg>
