<svg width="24" height="25" viewBox="0 0 24 25" fill="none" xmlns="http://www.w3.org/2000/svg">
<path d="M12 18.25C12.4142 18.25 12.75 17.9142 12.75 17.5V11.5C12.75 11.0858 12.4142 10.75 12 10.75C11.5858 10.75 11.25 11.0858 11.25 11.5V17.5C11.25 17.9142 11.5858 18.25 12 18.25Z" fill="#707070"/>
<path d="M12 7.5C12.5523 7.5 13 7.94772 13 8.5C13 9.05228 12.5523 9.5 12 9.5C11.4477 9.5 11 9.05228 11 8.5C11 7.94772 11.4477 7.5 12 7.5Z" fill="#707070"/>
<path fill-rule="evenodd" clip-rule="evenodd" d="M1.25 12.5C1.25 6.56294 6.06294 1.75 12 1.75C17.9371 1.75 22.75 6.56294 22.75 12.5C22.75 18.4371 17.9371 23.25 12 23.25C6.06294 23.25 1.25 18.4371 1.25 12.5ZM12 3.25C6.89137 3.25 2.75 7.39137 2.75 12.5C2.75 17.6086 6.89137 21.75 12 21.75C17.1086 21.75 21.25 17.6086 21.25 12.5C21.25 7.39137 17.1086 3.25 12 3.25Z" fill="#707070"/>
</svg>
