<svg width="19" height="22" viewBox="0 0 19 22" fill="none" xmlns="http://www.w3.org/2000/svg">
<path fill-rule="evenodd" clip-rule="evenodd" d="M6.75961 1.59899C7.1636 0.588166 8.49484 -0.0368082 9.52722 0.749626C11.2471 2.05978 13.4044 3.98593 15.1398 6.18907C16.8595 8.3724 18.25 10.9352 18.25 13.5004C18.25 15.7937 17.5398 17.4979 16.5117 18.7184C15.4933 19.9274 14.1994 20.6197 13.0816 20.9675C12.5076 21.1462 11.9825 20.8829 11.7275 20.455C11.4871 20.0516 11.4859 19.5152 11.7863 19.0835C12.6436 17.8515 13.55 16.0797 13.55 14.5004C13.55 13.7169 13.2123 12.7894 12.6668 11.8376C12.2566 11.1219 11.7539 10.4355 11.2643 9.84691C11.1627 11.2498 10.8578 13.0125 9.91196 14.47C9.48216 15.1323 8.52667 15.2064 8.018 14.5631C7.85916 14.3622 7.70233 14.1416 7.55877 13.9397C7.55012 13.9276 7.54152 13.9155 7.53297 13.9035C7.4545 13.7931 7.37986 13.6886 7.30763 13.5904C6.62187 14.2735 5.98333 15.0906 5.98333 16.0004C5.98333 16.8042 6.38448 17.9029 6.85898 18.8339C7.11561 19.3374 7.00832 19.8955 6.6994 20.261C6.37092 20.6497 5.77312 20.8495 5.20569 20.521C3.26159 19.3957 0.75 16.9921 0.75 13.5004C0.75 12.5535 1.07109 11.574 1.5203 10.6172C1.97254 9.65401 2.5858 8.65042 3.22984 7.64782C3.45297 7.30047 3.67941 6.95349 3.90546 6.60711C5.01002 4.91454 6.10528 3.23622 6.75961 1.59899ZM8.39831 1.91786C8.29576 1.95335 8.19916 2.03889 8.15249 2.15567C7.43718 3.94546 6.24008 5.77756 5.13532 7.46832C4.91569 7.80446 4.69971 8.135 4.49189 8.45852C3.85264 9.45365 3.28547 10.3871 2.8781 11.2547C2.46769 12.1288 2.25 12.8741 2.25 13.5004C2.25 15.7949 3.65653 17.5766 5.13307 18.6786C4.77845 17.8375 4.48333 16.8674 4.48333 16.0004C4.48333 14.2698 5.7827 12.9633 6.50894 12.2756C6.97929 11.8303 7.79139 11.7903 8.26469 12.3745C8.4359 12.5858 8.60319 12.8202 8.7553 13.034L8.77337 13.0594C8.81605 13.1194 8.8576 13.1779 8.89829 13.2346C9.5671 11.9603 9.75434 10.406 9.80116 9.12666C9.82042 8.60021 10.1468 8.18387 10.5747 8.00978C11.0118 7.83196 11.5549 7.9103 11.9285 8.32362L11.3721 8.82652L11.9285 8.32362C12.5949 9.06087 13.3626 10.0352 13.9682 11.0917C14.5657 12.1341 15.05 13.3333 15.05 14.5004C15.05 16.193 14.2822 17.9105 13.5062 19.1889C14.1582 18.8696 14.8159 18.4033 15.3644 17.7521C16.1512 16.8181 16.75 15.4616 16.75 13.5004C16.75 11.4438 15.6125 9.21349 13.9614 7.11722C12.3259 5.04076 10.2696 3.20076 8.61826 1.94285C8.56361 1.90122 8.493 1.88509 8.39831 1.91786Z" fill="#666666"/>
</svg>
