<svg width="110" height="52" viewBox="0 0 110 52" fill="none" xmlns="http://www.w3.org/2000/svg">
<path d="M105.91 22.082C103.893 22.082 102.234 23.7498 102.234 25.758C102.234 27.775 103.902 29.434 105.91 29.434C107.927 29.434 109.586 27.7663 109.586 25.758C109.595 23.7323 107.936 22.082 105.91 22.082Z" fill="#212121"/>
<path d="M93.057 2.86426V11.5871C92.4021 10.7838 90.2804 9.26449 87.5648 9.26449C82.0203 9.26449 77.6807 13.7525 77.6807 19.2971C77.6807 24.8416 82.0116 29.3383 87.5648 29.3383C90.3939 29.3383 92.603 27.723 93.2054 26.9197H93.2578V29.0939H99.3088V2.86426H93.057ZM87.9141 23.8462C85.4431 23.8462 83.4261 21.8292 83.4261 19.3582C83.4261 16.8871 85.4431 14.8702 87.9141 14.8702C90.3939 14.8702 92.4021 16.8871 92.4021 19.3582C92.4021 21.8205 90.3851 23.8462 87.9141 23.8462Z" fill="#212121"/>
<path d="M28.9769 9.62207C26.6543 9.62207 24.0349 10.8794 22.8299 12.844H22.7775V10.1809H16.7353V29.1371H22.9784V19.0522C22.9784 16.9304 24.0436 14.8697 26.4622 14.8697C29.0293 14.8697 29.6318 16.4327 29.6318 18.3012V20.2658V29.1371H35.8749V17.1836C35.8399 14.5117 35.482 9.62207 28.9769 9.62207Z" fill="#212121"/>
<path d="M9.42656 0C7.30479 0 5.54102 1.71139 5.54102 3.88554C5.54102 6.00731 7.2524 7.77109 9.42656 7.77109C11.5483 7.77109 13.3121 6.0597 13.3121 3.88554C13.3034 1.76378 11.5396 0 9.42656 0Z" fill="#212121"/>
<path d="M48.5351 9.31641C42.9905 9.31641 38.6509 13.8044 38.6509 19.349C38.6509 24.8935 42.9818 29.3815 48.5351 29.3815C51.5125 29.3815 54.3852 28.0718 56.245 26.0024L52.2634 22.3264C51.4601 23.2345 50.2465 23.8457 48.8843 23.8457C46.4133 23.8457 44.3963 21.8287 44.3963 19.3577C44.3963 16.8867 46.4133 14.8697 48.8843 14.8697C50.2465 14.8697 51.399 15.4722 52.2634 16.389L56.245 12.713C54.3416 10.6261 51.5125 9.31641 48.5351 9.31641Z" fill="#212121"/>
<path d="M78.0387 10.1807H70.6344L64.8803 16.6333V2.91602H58.6372V29.1282H62.3132H64.8279V22.0818L71.0709 29.1456H78.5364L69.7088 19.3663L78.0387 10.1807Z" fill="#212121"/>
<path d="M6.31842 10.1807V24.8846L12.5178 29.1281V10.1807" fill="#212121"/>
<path d="M8.5176 48V37.086H10.4896V48H8.5176ZM4.8626 37.902V36.1H14.1446V37.902H4.8626ZM19.4794 48L19.3944 46.402V43.631C19.3944 43.053 19.3321 42.5713 19.2074 42.186C19.0827 41.8007 18.8844 41.506 18.6124 41.302C18.3517 41.098 18.0061 40.996 17.5754 40.996C17.1787 40.996 16.8274 41.081 16.5214 41.251C16.2154 41.421 15.9604 41.6817 15.7564 42.033L14.0224 41.421C14.2151 41.047 14.4644 40.6957 14.7704 40.367C15.0764 40.0383 15.4617 39.7777 15.9264 39.585C16.4024 39.3923 16.9634 39.296 17.6094 39.296C18.4367 39.296 19.1224 39.449 19.6664 39.755C20.2217 40.061 20.6354 40.5143 20.9074 41.115C21.1794 41.7157 21.3154 42.458 21.3154 43.342L21.2644 48H19.4794ZM17.0654 48.204C16.0454 48.204 15.2521 47.9773 14.6854 47.524C14.1301 47.0707 13.8524 46.4303 13.8524 45.603C13.8524 44.719 14.1471 44.0447 14.7364 43.58C15.3371 43.1153 16.1701 42.883 17.2354 42.883H19.5134V44.345H17.8474C17.0881 44.345 16.5554 44.4527 16.2494 44.668C15.9434 44.872 15.7904 45.1667 15.7904 45.552C15.7904 45.8807 15.9207 46.1413 16.1814 46.334C16.4534 46.5153 16.8274 46.606 17.3034 46.606C17.7227 46.606 18.0854 46.5097 18.3914 46.317C18.7087 46.113 18.9524 45.8523 19.1224 45.535C19.3037 45.2063 19.3944 44.855 19.3944 44.481H20.0914C20.0914 45.637 19.8421 46.5493 19.3434 47.218C18.8561 47.8753 18.0967 48.204 17.0654 48.204ZM26.6265 48.204C25.7311 48.204 25.0455 47.983 24.5695 47.541C24.1048 47.0877 23.8725 46.4417 23.8725 45.603V36.848H25.7595V45.246C25.7595 45.6427 25.8501 45.943 26.0315 46.147C26.2241 46.351 26.5018 46.453 26.8645 46.453C26.9778 46.453 27.1025 46.4303 27.2385 46.385C27.3745 46.3397 27.5275 46.2547 27.6975 46.13L28.3945 47.575C28.0998 47.779 27.8051 47.932 27.5105 48.034C27.2158 48.1473 26.9211 48.204 26.6265 48.204ZM22.4615 41.132V39.5H28.0545V41.132H22.4615ZM33.3003 48.204C32.4049 48.204 31.7193 47.983 31.2433 47.541C30.7786 47.0877 30.5463 46.4417 30.5463 45.603V36.848H32.4333V45.246C32.4333 45.6427 32.5239 45.943 32.7053 46.147C32.8979 46.351 33.1756 46.453 33.5383 46.453C33.6516 46.453 33.7763 46.4303 33.9123 46.385C34.0483 46.3397 34.2013 46.2547 34.3713 46.13L35.0683 47.575C34.7736 47.779 34.4789 47.932 34.1843 48.034C33.8896 48.1473 33.5949 48.204 33.3003 48.204ZM29.1353 41.132V39.5H34.7283V41.132H29.1353ZM40.4015 48.204C39.5515 48.204 38.7922 48.017 38.1235 47.643C37.4662 47.2577 36.9505 46.7307 36.5765 46.062C36.2025 45.3933 36.0155 44.6227 36.0155 43.75C36.0155 42.8773 36.1968 42.1067 36.5595 41.438C36.9335 40.7693 37.4492 40.248 38.1065 39.874C38.7638 39.4887 39.5175 39.296 40.3675 39.296C41.2175 39.296 41.9712 39.4887 42.6285 39.874C43.2858 40.248 43.7958 40.7693 44.1585 41.438C44.5325 42.1067 44.7195 42.8773 44.7195 43.75C44.7195 44.6227 44.5382 45.3933 44.1755 46.062C43.8128 46.7307 43.3028 47.2577 42.6455 47.643C41.9882 48.017 41.2402 48.204 40.4015 48.204ZM40.4015 46.453C40.8662 46.453 41.2798 46.3397 41.6425 46.113C42.0052 45.875 42.2885 45.5577 42.4925 45.161C42.6965 44.753 42.7985 44.2827 42.7985 43.75C42.7985 43.2173 42.6908 42.7527 42.4755 42.356C42.2715 41.948 41.9882 41.6307 41.6255 41.404C41.2628 41.166 40.8435 41.047 40.3675 41.047C39.8915 41.047 39.4722 41.1603 39.1095 41.387C38.7468 41.6137 38.4635 41.931 38.2595 42.339C38.0555 42.747 37.9535 43.2173 37.9535 43.75C37.9535 44.2827 38.0555 44.753 38.2595 45.161C38.4748 45.5577 38.7638 45.875 39.1265 46.113C39.5005 46.3397 39.9255 46.453 40.4015 46.453ZM50.2794 48.204C49.4294 48.204 48.6701 48.017 48.0014 47.643C47.3441 47.2577 46.8284 46.7307 46.4544 46.062C46.0804 45.3933 45.8934 44.6227 45.8934 43.75C45.8934 42.8773 46.0748 42.1067 46.4374 41.438C46.8114 40.7693 47.3271 40.248 47.9844 39.874C48.6418 39.4887 49.3954 39.296 50.2454 39.296C51.0954 39.296 51.8491 39.4887 52.5064 39.874C53.1638 40.248 53.6738 40.7693 54.0364 41.438C54.4104 42.1067 54.5974 42.8773 54.5974 43.75C54.5974 44.6227 54.4161 45.3933 54.0534 46.062C53.6908 46.7307 53.1808 47.2577 52.5234 47.643C51.8661 48.017 51.1181 48.204 50.2794 48.204ZM50.2794 46.453C50.7441 46.453 51.1578 46.3397 51.5204 46.113C51.8831 45.875 52.1664 45.5577 52.3704 45.161C52.5744 44.753 52.6764 44.2827 52.6764 43.75C52.6764 43.2173 52.5688 42.7527 52.3534 42.356C52.1494 41.948 51.8661 41.6307 51.5034 41.404C51.1408 41.166 50.7214 41.047 50.2454 41.047C49.7694 41.047 49.3501 41.1603 48.9874 41.387C48.6248 41.6137 48.3414 41.931 48.1374 42.339C47.9334 42.747 47.8314 43.2173 47.8314 43.75C47.8314 44.2827 47.9334 44.753 48.1374 45.161C48.3528 45.5577 48.6418 45.875 49.0044 46.113C49.3784 46.3397 49.8034 46.453 50.2794 46.453ZM59.3414 48.204C58.7747 48.204 58.2534 48.119 57.7774 47.949C57.3014 47.779 56.8934 47.541 56.5534 47.235C56.2134 46.9177 55.9527 46.5493 55.7714 46.13L57.4204 45.399C57.5904 45.7163 57.8397 45.9827 58.1684 46.198C58.5084 46.4133 58.8824 46.521 59.2904 46.521C59.7324 46.521 60.0837 46.4473 60.3444 46.3C60.6164 46.1413 60.7524 45.926 60.7524 45.654C60.7524 45.3933 60.6504 45.195 60.4464 45.059C60.2424 44.9117 59.9534 44.7927 59.5794 44.702L58.7804 44.481C57.9757 44.277 57.3467 43.954 56.8934 43.512C56.44 43.0587 56.2134 42.543 56.2134 41.965C56.2134 41.115 56.4854 40.4577 57.0294 39.993C57.5847 39.5283 58.378 39.296 59.4094 39.296C59.9307 39.296 60.4067 39.3753 60.8374 39.534C61.2794 39.6813 61.659 39.8967 61.9764 40.18C62.2937 40.452 62.5147 40.775 62.6394 41.149L61.0584 41.863C60.945 41.5797 60.7297 41.3643 60.4124 41.217C60.095 41.0583 59.7437 40.979 59.3584 40.979C58.973 40.979 58.6727 41.064 58.4574 41.234C58.242 41.3927 58.1344 41.6193 58.1344 41.914C58.1344 42.084 58.2307 42.2427 58.4234 42.39C58.616 42.526 58.8937 42.6393 59.2564 42.73L60.2594 42.968C60.8147 43.104 61.268 43.3193 61.6194 43.614C61.9707 43.8973 62.2314 44.2203 62.4014 44.583C62.5714 44.9343 62.6564 45.2913 62.6564 45.654C62.6564 46.164 62.509 46.6117 62.2144 46.997C61.931 47.3823 61.54 47.6827 61.0414 47.898C60.5427 48.102 59.976 48.204 59.3414 48.204ZM67.9573 48.204C67.13 48.204 66.3933 48.017 65.7473 47.643C65.1126 47.2577 64.6083 46.7307 64.2343 46.062C63.8716 45.3933 63.6903 44.6227 63.6903 43.75C63.6903 42.8773 63.8773 42.1067 64.2513 41.438C64.6253 40.7693 65.1353 40.248 65.7813 39.874C66.4386 39.4887 67.1866 39.296 68.0253 39.296C68.7846 39.296 69.4646 39.4943 70.0653 39.891C70.6773 40.2763 71.1646 40.8373 71.5273 41.574C71.89 42.3107 72.0713 43.189 72.0713 44.209H70.1503C70.1503 43.4723 70.0596 42.866 69.8783 42.39C69.7083 41.914 69.459 41.5627 69.1303 41.336C68.813 41.098 68.422 40.979 67.9573 40.979C67.47 40.979 67.0506 41.0867 66.6993 41.302C66.348 41.5173 66.0816 41.8347 65.9003 42.254C65.719 42.662 65.6283 43.1777 65.6283 43.801C65.6283 44.3563 65.736 44.8323 65.9513 45.229C66.178 45.6257 66.4783 45.9317 66.8523 46.147C67.2376 46.351 67.6626 46.453 68.1273 46.453C68.6373 46.453 69.0566 46.3397 69.3853 46.113C69.714 45.875 69.969 45.5747 70.1503 45.212L71.9013 45.96C71.6633 46.4133 71.3573 46.81 70.9833 47.15C70.6206 47.49 70.1843 47.7507 69.6743 47.932C69.1756 48.1133 68.6033 48.204 67.9573 48.204ZM64.9483 44.209V42.696H71.0683V44.209H64.9483ZM78.6806 48L78.5956 46.402V43.631C78.5956 43.053 78.5333 42.5713 78.4086 42.186C78.2839 41.8007 78.0856 41.506 77.8136 41.302C77.5529 41.098 77.2073 40.996 76.7766 40.996C76.3799 40.996 76.0286 41.081 75.7226 41.251C75.4166 41.421 75.1616 41.6817 74.9576 42.033L73.2236 41.421C73.4163 41.047 73.6656 40.6957 73.9716 40.367C74.2776 40.0383 74.6629 39.7777 75.1276 39.585C75.6036 39.3923 76.1646 39.296 76.8106 39.296C77.6379 39.296 78.3236 39.449 78.8676 39.755C79.4229 40.061 79.8366 40.5143 80.1086 41.115C80.3806 41.7157 80.5166 42.458 80.5166 43.342L80.4656 48H78.6806ZM76.2666 48.204C75.2466 48.204 74.4533 47.9773 73.8866 47.524C73.3313 47.0707 73.0536 46.4303 73.0536 45.603C73.0536 44.719 73.3483 44.0447 73.9376 43.58C74.5383 43.1153 75.3713 42.883 76.4366 42.883H78.7146V44.345H77.0486C76.2893 44.345 75.7566 44.4527 75.4506 44.668C75.1446 44.872 74.9916 45.1667 74.9916 45.552C74.9916 45.8807 75.1219 46.1413 75.3826 46.334C75.6546 46.5153 76.0286 46.606 76.5046 46.606C76.9239 46.606 77.2866 46.5097 77.5926 46.317C77.9099 46.113 78.1536 45.8523 78.3236 45.535C78.5049 45.2063 78.5956 44.855 78.5956 44.481H79.2926C79.2926 45.637 79.0433 46.5493 78.5446 47.218C78.0573 47.8753 77.2979 48.204 76.2666 48.204ZM83.7026 43.478C83.7026 42.56 83.8783 41.8063 84.2296 41.217C84.581 40.6277 85.0343 40.1913 85.5896 39.908C86.1563 39.6133 86.7456 39.466 87.3576 39.466V41.285C86.8363 41.285 86.3433 41.3587 85.8786 41.506C85.4253 41.642 85.057 41.8687 84.7736 42.186C84.4903 42.5033 84.3486 42.9227 84.3486 43.444L83.7026 43.478ZM82.4446 48V39.5H84.3486V48H82.4446ZM92.5984 48.204C91.7257 48.204 90.9551 48.017 90.2864 47.643C89.6177 47.2577 89.0907 46.7307 88.7054 46.062C88.3314 45.3933 88.1444 44.6227 88.1444 43.75C88.1444 42.8773 88.3314 42.1067 88.7054 41.438C89.0907 40.7693 89.6121 40.248 90.2694 39.874C90.9381 39.4887 91.7031 39.296 92.5644 39.296C93.4031 39.296 94.1624 39.5 94.8424 39.908C95.5224 40.3047 96.0267 40.877 96.3554 41.625L94.5874 42.305C94.4061 41.931 94.1284 41.6307 93.7544 41.404C93.3804 41.1773 92.9554 41.064 92.4794 41.064C92.0147 41.064 91.6011 41.183 91.2384 41.421C90.8757 41.6477 90.5924 41.965 90.3884 42.373C90.1844 42.7697 90.0824 43.2287 90.0824 43.75C90.0824 44.2713 90.1844 44.736 90.3884 45.144C90.6037 45.5407 90.8927 45.858 91.2554 46.096C91.6294 46.3227 92.0487 46.436 92.5134 46.436C92.9894 46.436 93.4144 46.317 93.7884 46.079C94.1624 45.8297 94.4401 45.4953 94.6214 45.076L96.3894 45.756C96.0607 46.5267 95.5564 47.1273 94.8764 47.558C94.2077 47.9887 93.4484 48.204 92.5984 48.204ZM97.8845 48L97.8675 35.947H99.7715L99.7885 48H97.8845ZM103.647 48V43.648L105.551 43.138V48H103.647ZM103.647 43.648C103.647 42.968 103.568 42.4467 103.409 42.084C103.251 41.71 103.03 41.4493 102.746 41.302C102.474 41.1547 102.157 41.081 101.794 41.081C101.148 41.0697 100.65 41.2793 100.298 41.71C99.9585 42.1407 99.7885 42.7583 99.7885 43.563H99.0575C99.0575 42.6677 99.1878 41.9027 99.4485 41.268C99.7205 40.622 100.1 40.1347 100.587 39.806C101.075 39.466 101.653 39.296 102.321 39.296C103.341 39.296 104.135 39.6133 104.701 40.248C105.268 40.8713 105.551 41.8347 105.551 43.138L103.647 43.648Z" fill="#212121"/>
</svg>
