<svg width="447" height="465" viewBox="0 0 447 465" fill="none" xmlns="http://www.w3.org/2000/svg">
<path d="M203.8 171.085C225.011 171.085 242.271 187.786 242.271 208.316C242.271 228.844 225.011 245.545 203.8 245.545C182.597 245.545 165.337 228.844 165.337 208.316C165.337 187.786 182.597 171.085 203.8 171.085ZM203.8 249.723C227.396 249.723 246.584 231.147 246.584 208.316C246.584 185.483 227.396 166.907 203.8 166.907C180.213 166.907 161.024 185.483 161.024 208.316C161.024 231.147 180.213 249.723 203.8 249.723Z" fill="#00D045" fill-opacity="0.5"/>
<path d="M387.439 171.004C383.503 171.333 380.371 168.241 380.363 164.551C380.363 161.817 382.112 159.483 384.666 158.553C385.129 159.243 385.56 159.981 385.942 160.767C387.049 163.045 387.618 165.534 387.715 168.2C387.683 169.113 387.61 170.043 387.439 171.004ZM385.56 179.604C377.85 179.122 371.84 172.945 371.84 165.448C371.84 165.445 371.84 165.445 371.84 165.442C373.312 164.591 374.776 163.713 376.215 162.811C376.118 163.379 376.053 163.958 376.053 164.551C376.053 170.383 380.924 175.126 386.935 175.187C386.585 176.644 386.129 178.122 385.56 179.604ZM354.216 174.474C358.03 172.722 362.788 170.422 367.692 167.762C368.262 172.149 370.433 176.056 373.662 178.922C368.481 178.231 361.91 176.91 354.216 174.474ZM373.906 150.056C375.069 150.546 376.834 151.417 378.704 152.696C377.346 155.426 375.118 158.383 371.433 160.741C370.547 161.271 369.636 161.802 368.693 162.338C368.684 162.343 368.676 162.354 368.668 162.36C365.391 164.22 362.032 165.985 358.819 167.587C366.261 159.842 371.759 152.877 373.906 150.056ZM389.065 182.4C391.196 177.345 392.164 172.625 392.034 168.261C392.188 163.159 390.635 158.566 387.414 154.79C387.374 154.743 387.309 154.729 387.268 154.684C391.164 151.167 393.905 147.558 394.466 144.091C394.653 142.951 393.848 141.883 392.668 141.704C391.497 141.504 390.383 142.303 390.204 143.442C389.789 145.995 387.585 148.831 384.324 151.724C384.178 151.596 384.039 151.468 383.893 151.343C385.08 147.778 385.129 145.043 385.129 144.809C385.129 143.656 384.161 142.726 382.974 142.721C382.974 142.721 382.974 142.721 382.966 142.721C381.778 142.721 380.819 143.654 380.811 144.801C380.811 144.957 380.778 146.48 380.225 148.625C376.85 146.497 374.02 145.606 373.792 145.536C372.897 145.26 371.913 145.584 371.368 146.327C371.271 146.466 361.178 160.293 347.173 173.006C346.27 173.396 345.425 173.75 344.668 174.065C343.57 174.513 343.058 175.742 343.521 176.802C343.871 177.596 344.668 178.075 345.506 178.075C345.79 178.075 346.075 178.022 346.352 177.908C346.783 177.732 347.531 177.421 348.531 176.995C365.391 182.946 377.736 183.84 383.568 183.84C385.642 183.84 386.853 183.731 387.195 183.697C387.211 183.697 387.211 183.695 387.227 183.695C387.252 183.692 387.309 183.686 387.317 183.686C388.098 183.597 388.773 183.105 389.065 182.4Z" fill="#00D045" fill-opacity="0.5"/>
<path d="M431.634 252.646C430.273 254.298 427.821 255.231 424.345 255.42C424.328 255.422 424.311 255.431 424.286 255.431C424.269 255.434 424.261 255.426 424.244 255.428C420.701 255.787 416.845 256.593 412.769 257.439C411.163 257.773 409.548 258.107 407.932 258.422C409.776 257.049 411.678 255.548 413.623 254.005C417.97 250.552 423.922 245.825 425.977 245.825C427.635 245.825 430.755 247.469 432.894 248.884C432.894 249.783 432.725 251.324 431.634 252.646ZM429.529 268.021C428.514 269.33 427.516 270.269 426.535 271.01C417.69 275.296 405.134 263.516 405.007 263.396C404.931 263.323 404.838 263.293 404.753 263.234C407.806 262.741 410.816 262.123 413.674 261.524C417.445 260.739 421.014 260.004 424.201 259.647C425.969 260.327 429.74 262.204 430.493 264.58C430.619 264.963 430.983 266.128 429.529 268.021ZM336.675 152.765C342.797 144.445 350.509 136.174 358.398 133.391C370.735 130.063 378.371 129.058 383.106 129.058C389.676 129.058 390.64 130.993 390.767 131.361C391.325 132.998 391.165 133.5 391.182 133.5C390.607 133.998 387.41 133.979 384.84 133.97C379.318 133.948 370.972 133.898 360.808 136.889C352.454 139.345 343.82 145.979 336.675 152.765ZM416.777 319.876C407.036 331.219 383.96 333.65 348.201 327.112C330.832 323.936 319.02 319.222 313.193 316.512C307.418 305.812 300.442 294.846 292.629 284.165C311.519 276.791 322.292 267.568 324.6 256.72C325.97 250.335 324 245.946 321.928 241.3C319.984 236.951 317.98 232.45 318.385 225.46C318.91 216.29 323.053 211.323 327.442 206.068C331.864 200.78 336.43 195.311 336.565 185.78C336.667 178.476 334.054 173.853 331.281 168.955C330.782 168.074 330.274 167.161 329.767 166.219C337.123 157.709 350.12 144.409 362.068 140.897C371.606 138.092 379.25 138.117 384.823 138.161C389.719 138.187 392.991 138.201 394.665 135.984C396.035 134.157 395.443 131.729 394.885 130.061V130.058C392.611 123.363 380.299 123.137 357.079 129.406C344.894 133.695 333.674 148.749 326.816 159.725C325.734 156.751 324.837 153.297 324.389 149.003C323.62 141.659 324.245 134.123 326.182 126.591C337.394 118.89 349.511 111.285 362.466 104.114C363.979 107.038 367.497 111.964 375.327 116.144C381.161 119.263 387.047 118.829 391.79 118.478C398.234 117.999 402.149 117.707 404.44 124.775C407.256 133.478 406.757 142.57 406.351 149.878C406.207 152.487 406.072 154.952 406.098 157.144C406.233 168.757 418.037 178.911 428.463 187.869C435.693 194.083 442.517 199.956 442.677 204.156C442.914 210.382 436.961 216.189 432.192 220.856C428.463 224.499 425.757 227.131 425.698 229.901C425.647 232.214 425.969 236.975 428.404 242.055C427.567 241.821 426.738 241.648 425.977 241.648C422.544 241.648 418.003 245.118 410.884 250.774C406.005 254.648 400.018 259.391 396.957 259.923C394.767 260.04 392.611 260.023 390.53 259.764C389.338 259.622 388.264 260.43 388.112 261.574C387.96 262.716 388.797 263.764 389.989 263.911C391.486 264.095 393.016 264.175 394.572 264.175C395.139 264.175 395.722 264.111 396.297 264.092C396.458 264.125 396.61 264.179 396.771 264.179C396.83 264.179 396.889 264.175 396.948 264.173C397.202 264.153 397.481 264.07 397.743 264.02C399.105 263.933 400.458 263.805 401.819 263.633C401.159 264.457 401.193 265.63 401.98 266.376C402.428 266.807 410.596 274.457 419.551 275.878C418.595 277.226 418.079 279.136 418.485 282.16C418.747 284.063 419.407 286.235 420.168 288.747C422.739 297.232 426.256 308.856 416.777 319.876ZM333.581 380.08C326.165 399.658 321.844 418.745 320.237 433.486C316.694 434.391 313.625 436.396 311.426 439.112C309.524 434.717 305.651 431.177 300.544 429.821C296.29 428.691 291.809 429.231 287.97 431.35C286.904 431.937 285.94 432.648 285.053 433.424C283.97 428.234 280.275 423.661 274.796 421.617C269.359 419.581 263.482 420.539 259.076 423.642C258.966 422.511 258.738 421.386 258.374 420.28C257.022 416.203 254.113 412.875 250.189 410.915C246.257 408.949 241.767 408.586 237.556 409.89C236.415 410.24 235.341 410.722 234.326 411.288C234.343 410.154 234.242 409.009 233.996 407.871C233.108 403.677 230.589 400.067 226.893 397.705C223.207 395.347 218.793 394.528 214.446 395.378C213.28 395.612 212.163 395.979 211.09 396.436C211.225 395.308 211.25 394.163 211.14 393.005C210.718 388.741 208.612 384.892 205.204 382.16C200.706 378.557 194.795 377.666 189.603 379.27C189.865 378.156 190.018 377.011 190.035 375.841C190.035 375.337 190.018 374.836 189.975 374.34C195.336 374.129 201.052 372.305 207.234 370.314C219.579 366.331 233.574 361.814 251.779 366.776C264.319 370.188 274.643 377.044 283.759 383.093C293.339 389.448 301.914 395.141 310.64 395.141C313.287 395.141 315.959 394.614 318.673 393.423C322.055 391.933 324.195 389.958 324.956 389.178C329.2 384.85 331.23 378.295 330.993 369.692C330.697 358.912 326.85 345.534 320.406 331.119C320.161 330.289 319.789 329.487 319.324 328.716C318.36 326.638 317.337 324.538 316.271 322.425C323.087 325.181 333.564 328.69 347.397 331.216C354.179 332.456 360.512 333.36 366.431 333.962C355.295 343.414 341.783 358.422 333.581 380.08ZM336.709 448.967C336.709 455.506 331.213 460.823 324.465 460.823C317.76 460.823 312.314 455.584 312.23 449.118C312.509 448.023 312.661 446.928 312.703 445.842C314.132 440.827 318.834 437.115 324.465 437.115C331.213 437.115 336.709 442.431 336.709 448.967ZM307.917 448.555C307.029 451.546 305.025 454.041 302.226 455.582C299.385 457.144 296.079 457.55 292.925 456.712C289.771 455.874 287.141 453.897 285.526 451.148C283.903 448.396 283.488 445.199 284.351 442.145C285.222 439.092 287.26 436.547 290.101 434.979C291.978 433.948 294.05 433.422 296.147 433.422C297.229 433.422 298.328 433.564 299.402 433.851C304.831 435.29 308.357 440.078 308.357 445.278C308.103 446.336 307.951 447.43 307.917 448.555ZM280.258 440.841C277.831 446.934 270.72 449.978 264.42 447.631C261.376 446.489 258.958 444.266 257.639 441.373C256.311 438.485 256.235 435.268 257.402 432.316C257.427 432.28 257.436 432.241 257.461 432.203C259.364 427.565 263.972 424.719 268.851 424.719C270.314 424.719 271.802 424.973 273.248 425.513C279.539 427.869 282.693 434.745 280.258 440.841ZM253.479 430.593C250.375 436.399 242.968 438.683 236.981 435.695C234.072 434.24 231.925 431.782 230.927 428.766C229.929 425.749 230.208 422.542 231.705 419.731C231.713 419.723 231.713 419.712 231.722 419.704C233.227 416.902 235.755 414.828 238.867 413.869C240.093 413.488 241.353 413.301 242.604 413.301C244.532 413.301 246.452 413.747 248.211 414.627C251.119 416.078 253.267 418.537 254.256 421.553C255.254 424.569 254.984 427.78 253.479 430.593ZM227.993 417.618C226.192 420.261 223.427 422.066 220.23 422.697C217.017 423.333 213.753 422.723 211.022 420.976C205.39 417.375 203.834 410.018 207.547 404.565C207.563 404.548 207.572 404.526 207.589 404.51C209.39 401.894 212.13 400.103 215.317 399.472C216.138 399.307 216.975 399.229 217.795 399.229C220.171 399.229 222.488 399.897 224.517 401.195C227.249 402.938 229.109 405.61 229.768 408.709C230.428 411.812 229.794 414.972 227.993 417.618ZM186.847 403.654C181.646 399.488 180.911 392.005 185.206 386.967C185.215 386.964 185.215 386.959 185.223 386.956C187.303 384.519 190.238 383.016 193.493 382.714C193.89 382.682 194.279 382.662 194.668 382.662C197.51 382.662 200.241 383.609 202.448 385.382C204.976 387.399 206.532 390.248 206.845 393.4C207.149 396.553 206.168 399.633 204.088 402.07C199.784 407.111 192.047 407.818 186.847 403.654ZM182.044 384.135C182.044 384.138 182.035 384.138 182.035 384.141C177.207 388.713 169.436 388.63 164.718 383.962C163.551 382.807 162.705 381.465 162.13 380.044C162.232 379.893 162.342 379.746 162.443 379.593C162.9 378.93 163.331 378.265 163.762 377.594C163.872 377.421 163.991 377.251 164.101 377.078C164.523 376.407 164.929 375.73 165.335 375.053C165.437 374.88 165.547 374.708 165.648 374.535C166.037 373.862 166.409 373.182 166.781 372.505C166.874 372.329 166.976 372.154 167.069 371.979C167.424 371.31 167.753 370.642 168.083 369.976C168.176 369.787 168.278 369.598 168.362 369.411C168.675 368.751 168.963 368.097 169.25 367.439C169.335 367.242 169.428 367.044 169.512 366.844C169.783 366.206 170.02 365.568 170.256 364.93C170.341 364.716 170.425 364.499 170.502 364.281C170.51 364.259 170.519 364.234 170.527 364.209C171.491 363.964 172.472 363.824 173.47 363.824C176.649 363.824 179.828 365.014 182.221 367.381C186.948 372.045 186.864 379.559 182.044 384.135ZM119.285 428.958C116.351 430.297 113.45 431.481 110.575 432.564C105.451 434.246 96.0397 436.16 86.6453 432.002C75.9572 427.27 70.9682 417.309 69.7083 412.17C65.4888 395.041 82.8486 371.973 101.925 356.709C123.166 339.707 145.151 332.319 157.962 337.892C159.949 338.758 164.76 341.319 167.035 346.422C167.187 349.685 167.559 352.746 168.202 355.567C166.874 367.81 156.034 383.205 143.722 394.963C127.132 410.806 109.172 419.231 100.022 415.44C95.2195 413.446 93.4099 408.425 92.9787 406.932C89.3681 394.665 104.58 375.48 120.739 364.738C130.759 358.085 139.773 355.651 143.722 358.525C146.242 360.358 147.443 363.008 147.307 366.409C146.91 375.922 136.619 388.46 121.703 397.605C118.997 399.263 116.756 399.792 115.547 399.062C114.372 398.352 113.831 396.274 114.135 393.648C114.837 387.558 119.826 379.95 128.003 377.195C129.127 376.814 129.719 375.622 129.33 374.533C128.933 373.444 127.707 372.861 126.582 373.246C116.266 376.73 110.677 386.018 109.84 393.183C109.341 397.55 110.575 400.984 113.256 402.604C115.167 403.76 118.591 404.453 124.012 401.134C140.323 391.136 151.163 377.571 151.62 366.573C151.814 361.791 149.979 357.854 146.318 355.186C140.61 351.031 130.404 353.262 118.295 361.296C100.767 372.945 84.4722 393.3 88.8269 408.08C89.3935 410.018 91.7695 416.559 98.3228 419.281C111.742 424.845 132.806 411.26 146.758 397.935C147.451 397.268 148.153 396.587 148.846 395.888C149.151 395.584 149.455 395.263 149.759 394.955C150.148 394.556 150.537 394.163 150.926 393.76C151.324 393.342 151.713 392.91 152.11 392.481C152.398 392.17 152.694 391.863 152.973 391.548C153.421 391.052 153.869 390.543 154.309 390.039C154.537 389.78 154.765 389.529 154.994 389.271C155.467 388.719 155.932 388.154 156.397 387.591C156.583 387.368 156.769 387.151 156.955 386.925C157.429 386.349 157.886 385.761 158.351 385.174C158.52 384.957 158.697 384.742 158.866 384.522C159.01 384.332 159.154 384.138 159.306 383.945C159.949 384.99 160.718 385.981 161.64 386.889C162.325 387.566 163.061 388.159 163.838 388.694C156.592 400.162 143.13 418.094 119.285 428.958ZM63.5863 438.318C55.6717 436.285 49.6765 431.283 46.2603 423.825C40.3074 410.839 42.5821 392.301 52.357 374.235C61.9459 356.475 90.6618 316.233 149.751 325.886C158.198 328.075 164.65 329.846 167.567 330.66C167.288 333.564 167.102 336.368 167.009 339.078C166.84 338.911 166.68 338.752 166.511 338.593C166.324 338.412 166.13 338.246 165.944 338.075C165.656 337.822 165.369 337.58 165.09 337.352C164.878 337.187 164.684 337.031 164.481 336.878C164.202 336.675 163.94 336.483 163.669 336.298C163.466 336.163 163.28 336.026 163.077 335.901C162.815 335.731 162.57 335.577 162.316 335.427C162.139 335.321 161.961 335.212 161.792 335.121C161.53 334.968 161.285 334.839 161.04 334.714C160.913 334.65 160.777 334.575 160.659 334.517C160.321 334.347 159.999 334.199 159.737 334.082C142.361 326.515 116.258 339.816 99.1768 353.487C80.5402 368.4 60.5422 392.969 65.5058 413.137C67.4422 421.012 74.1729 431.075 84.8442 435.8C87.1273 436.811 89.4104 437.49 91.6427 437.947C81.7748 439.78 72.4142 439.908 63.5863 438.318ZM46.0405 432.584C37.4156 428.348 29.2895 422.116 22.5417 414.568C22.5333 414.56 22.5333 414.554 22.5333 414.546C14.3312 402.93 13.9422 385.207 21.4763 367.133C30.4311 345.659 53.0926 320.102 89.8754 312.56C102.086 314.627 115.581 317.551 127.943 320.475C94.4331 322.179 65.6748 340.568 48.5264 372.297C38.1596 391.485 35.8343 411.382 42.3114 425.519C43.6305 428.384 45.3048 430.907 47.2497 433.13C46.8522 432.943 46.4379 432.781 46.0405 432.584ZM6.60253 354.98C12.1073 336.844 28.613 320.622 48.6449 313.652C55.2489 311.355 62.2418 310.104 69.4377 309.934C72.4988 310.148 75.8388 310.499 79.3733 310.964C46.5901 320.988 26.034 345.043 17.4768 365.573C12.3779 377.788 10.729 389.928 12.454 400.435C4.87756 386.714 1.81654 370.734 6.60253 354.98ZM48.9155 249.307C51.5029 235.519 58.9863 225.569 65.362 219.269C71.3995 225.162 78.7814 228.774 86.7467 230.818C82.3582 235.861 78.9167 241.376 76.6252 247.318C66.8164 272.736 79.72 297.464 86.3917 307.765C80.6079 306.86 75.1877 306.18 70.3932 305.821C66.4782 302.22 43.2585 279.404 48.9155 249.307ZM59.4937 161.318C62.7322 155.194 66.326 152.835 70.1142 150.337C74.0377 147.756 78.0965 145.088 81.6987 138.574C87.8461 127.465 85.3516 118.434 82.4597 107.973C81.3689 104.002 80.2273 99.7776 79.4494 95.1208C78.3839 84.7277 79.6524 77.312 83.2461 73.0923C85.6983 70.2155 89.3596 68.6089 94.45 68.1743C98.771 67.7954 104.529 69.3218 111.184 73.1291C108.436 82.2414 110 91.5927 111.658 101.326C113.78 113.872 115.953 126.83 109.95 141.727C105.071 139.317 100.124 137.048 95.1096 134.981C94.0188 134.536 92.742 135.023 92.2769 136.084C91.8034 137.145 92.3192 138.374 93.4184 138.824C98.4243 140.888 103.362 143.152 108.216 145.558C103.946 154.225 98.6018 159.346 93.8412 163.855C87.8376 169.55 82.6541 174.466 81.817 184.171C81.7409 185.043 81.7155 185.917 81.7155 186.792C78.7053 185.914 75.7035 184.984 72.7439 183.976C71.6193 183.603 70.3848 184.168 69.9874 185.254C69.59 186.344 70.1902 187.535 71.3149 187.917C74.8663 189.125 78.4601 190.209 82.0876 191.236C83.9225 203.406 93.0717 216.058 109.451 228.983C103.371 229.155 97.2827 228.827 91.4736 227.702C91.1945 227.588 90.8901 227.521 90.5857 227.529C81.6141 225.655 73.3696 221.815 67.0024 214.88C54.251 201 50.9533 177.47 59.4937 161.318ZM109.797 25.4488C116.477 21.8256 123.208 19.5782 127.292 19.5782C127.546 19.5782 127.791 19.5889 128.02 19.606C142.208 20.6725 154.072 35.3991 163.822 56.0438C158.782 51.6235 151.865 47.5854 143.342 47.5854C143.333 47.5854 143.316 47.5854 143.308 47.5854C129.956 47.6026 120.612 57.5333 117.205 61.8029C115.268 64.2369 113.788 66.6816 112.672 69.1467C105.417 65.1471 99.0246 63.5847 94.0695 64.0111C87.7699 64.5512 83.1361 66.648 79.9145 70.4332C79.9145 70.4389 79.906 70.4471 79.8975 70.4553C81.8846 60.9305 88.8438 36.8166 109.797 25.4488ZM192.876 16.2947C193.045 16.2195 203.64 11.5741 219.596 8.05734C215.783 15.7603 212.307 23.6106 209.221 31.6008C199.776 34.0233 190.787 37.6964 182.492 42.5922C177.08 45.7865 171.99 49.516 167.28 53.654C164.49 47.8833 161.53 42.562 158.384 37.8217C168.802 29.0163 180.386 21.77 192.876 16.2947ZM224.898 6.97375C233.497 5.35245 243.332 4.17722 253.741 4.17722C267.727 4.17722 280.368 5.11841 291.868 6.75607C289.264 9.39383 286.71 12.084 284.232 14.8298C284.198 14.8633 284.165 14.9026 284.139 14.9386C275.371 24.6606 267.414 35.0145 260.421 45.8839C257.766 50.0112 255.254 54.208 252.861 58.4638C252.861 58.4687 252.861 58.4745 252.853 58.4835C237.666 85.5887 228.018 115.265 224.086 146.926C221.879 146.653 219.638 146.962 217.575 147.895C216.383 148.433 215.343 149.179 214.421 150.034C212.468 146.243 208.468 143.606 203.801 143.606C200.621 143.606 197.755 144.857 195.632 146.845C194.203 123.391 195.818 99.8636 200.494 76.7964C205.39 52.6178 213.601 29.1382 224.881 7.0155C224.889 7.00159 224.889 6.98764 224.898 6.97375ZM297.018 7.60559C304.467 9.58615 309.989 15.3675 310.877 22.3633C311.976 30.9763 305.346 36.9729 304.585 37.6268C304.12 38.0279 303.858 38.604 303.867 39.2089C303.875 39.8128 304.154 40.3808 304.619 40.7737C306.683 42.4752 308.171 44.4582 309.033 46.6614C311.342 52.5319 309.211 60.1817 304.602 64.9997C303.097 66.0637 301.66 67.1972 300.18 68.2857C300.129 68.3111 300.079 68.3446 300.028 68.3667C295.978 70.2769 290.845 70.3219 285.957 68.4805C281.628 66.8518 277.899 63.9055 275.244 60.1039C285.408 63.2205 293.906 62.4544 297.254 57.8394C298.683 55.8653 299.098 53.2366 298.455 50.2092C297.5 45.7423 293.872 42.0357 288.722 39.8775C290.337 39.0059 291.783 37.8912 293.018 36.5744C295.682 33.7197 297.068 30.1048 296.84 26.6625C296.536 22.2463 293.627 18.1665 289.23 15.6572C291.758 12.9163 294.354 10.2343 297.018 7.60559ZM332.202 16.7932C328.084 20.5693 325.776 25.9775 326.199 31.5002C326.664 37.4763 330.139 42.7125 335.322 45.7701C327.653 50.0087 320.186 54.5256 312.94 59.3403C314.589 54.6786 314.8 49.5856 313.067 45.1792C312.196 42.963 310.868 40.9357 309.092 39.1311C311.697 36.2928 316.212 30.0548 315.164 21.8502C314.589 17.3308 312.483 13.2142 309.304 9.95935C317.65 11.8662 325.268 14.175 332.202 16.7932ZM336.692 18.592C340.362 20.1102 343.829 21.7029 347.101 23.3708C345.41 24.9692 343.601 27.3729 342.916 30.7898C342.045 35.1069 343.474 38.618 344.742 40.7516C343.093 41.5978 341.411 42.4113 339.77 43.283C334.544 41.2476 330.925 36.6046 330.503 31.1883C330.13 26.2811 332.54 21.477 336.692 18.592ZM351.135 25.4872C355.151 27.7125 358.838 30.0409 362.254 32.4274C357.629 34.4604 353.071 36.5989 348.564 38.8275C347.634 37.3404 346.509 34.7664 347.152 31.5894C347.778 28.4704 349.782 26.5012 351.135 25.4872ZM248.904 88.4237C251.212 95.3688 248.532 103.604 241.911 109.917C241.133 110.655 241.057 111.839 241.716 112.677C242.139 113.209 242.773 113.494 243.433 113.494C243.805 113.494 244.177 113.401 244.515 113.209C258.4 105.325 266.399 91.9265 265.393 78.245C264.776 69.8481 260.886 63.3956 257.385 59.1652C259.508 55.425 261.74 51.7323 264.082 48.0928C270.669 37.8528 278.136 28.0775 286.338 18.8654C289.872 20.6332 292.308 23.7383 292.528 26.9416C292.688 29.261 291.699 31.7539 289.813 33.7729C287.462 36.2928 283.987 37.8077 280.284 37.9305C279.142 37.9698 278.229 38.8611 278.195 39.9667C278.17 41.0716 279.032 42.0078 280.174 42.0995C287.446 42.6986 293.229 46.3823 294.236 51.0915C294.625 52.8994 294.439 54.4445 293.711 55.4422C291.521 58.4745 283.015 59.1071 271.566 54.3112C270.771 53.9797 269.841 54.1409 269.215 54.7294C268.581 55.3137 268.386 56.2075 268.699 56.9931C271.591 64.106 277.307 69.7089 284.393 72.3737C287.099 73.3959 289.889 73.9172 292.604 73.981C285.619 79.4612 278.846 85.2155 272.335 91.2693C256.286 106.2 241.826 122.815 229.27 140.746C232.331 120.525 237.827 101.173 245.657 82.8315C247.128 84.5354 248.236 86.3989 248.904 88.4237ZM253.014 87.1454C251.965 83.9674 250.079 81.1242 247.5 78.6289C249.859 73.4041 252.396 68.2635 255.144 63.2147C257.892 66.9181 260.607 72.0847 261.089 78.5429C261.689 86.7582 258.569 94.89 252.591 101.476C254.324 96.6922 254.527 91.7121 253.014 87.1454ZM306.133 335.953C301.812 337.605 297.762 334.77 290.972 329.626C286.169 325.992 280.723 321.871 273.756 319.147C272.859 318.798 271.971 318.498 271.084 318.216C269.367 313.136 267.304 308.171 264.953 303.626C263.499 300.813 262.01 298.059 260.505 295.352C263.998 296.124 267.194 297.068 270.06 297.931C277.764 300.245 283.843 302.075 288.367 297.839C290.304 296.023 291.445 293.464 291.792 290.22C298.506 299.68 304.518 309.305 309.583 318.698C309.651 318.929 309.769 319.138 309.921 319.336C311.147 321.625 312.331 323.906 313.439 326.162C311.731 331.442 309.278 334.75 306.133 335.953ZM315.46 337.702C313.413 341.557 309.16 344.333 306.463 344.509C296.899 345.11 292.468 341.609 286.854 337.159C283.395 334.414 279.573 331.436 274.195 329.195C273.747 327.223 273.231 325.242 272.665 323.265C278.821 325.772 283.86 329.548 288.308 332.918C293.686 336.987 298.472 340.612 303.638 340.612C304.974 340.612 306.327 340.373 307.723 339.838C311.139 338.53 313.895 335.728 315.95 331.492C315.992 331.589 316.035 331.687 316.085 331.784C316.948 333.999 316.271 336.177 315.46 337.702ZM270.948 364.326C276.411 358.285 277.256 346.806 275.176 334.277C278.66 336.093 281.425 338.254 284.122 340.392C289.534 344.684 294.667 348.756 304.349 348.753C305.118 348.753 305.922 348.728 306.75 348.675C311.24 348.385 316.753 344.406 319.299 339.613C319.316 339.571 319.332 339.53 319.358 339.488C323.814 350.767 326.435 361.162 326.681 369.807C326.883 377.262 325.252 382.809 321.827 386.305C321.37 386.775 319.654 388.398 316.88 389.619C307.461 393.754 298.083 387.532 286.203 379.649C280.131 375.619 273.519 371.255 266.044 367.693C268.183 366.871 269.79 365.607 270.948 364.326ZM172.472 325.326C173.622 327.507 175.11 329.526 177.021 331.333C187.489 341.22 205.39 341.766 211.927 340.495C219.791 338.975 226.192 336.772 231.84 334.825C242.537 331.144 250.993 328.236 264.623 330.721C266.763 331.111 268.648 331.631 270.39 332.228C272.919 345.169 272.225 356.567 267.701 361.575C264.894 364.671 260.784 365.265 255.136 363.387C255.051 363.36 254.975 363.373 254.891 363.357C254.24 363.159 253.614 362.933 252.946 362.752C246.866 361.098 241.192 360.441 235.882 360.441C224.204 360.441 214.328 363.624 205.872 366.353C199.336 368.462 193.874 370.197 189.028 370.191C188.233 368.072 186.982 366.117 185.308 364.457C182.196 361.386 178.12 359.804 173.994 359.681C170.4 351.42 170.789 339.348 172.472 325.326ZM142.944 275.513C145.515 265.189 150.199 255.623 156.845 247.018C156.651 248.015 156.533 249.031 156.626 250.073C156.905 253.136 158.393 255.91 160.828 257.885C162.993 259.642 165.665 260.58 168.455 260.58C168.802 260.58 169.157 260.564 169.512 260.532C170.823 260.424 172.058 260.065 173.233 259.567C173.647 263.089 175.71 266.311 178.941 268.177C178.053 271.411 177.199 274.649 176.412 277.894C176.268 278.175 176.201 278.481 176.201 278.791C175.787 280.495 175.398 282.199 175.017 283.904C174.932 284.113 174.873 284.324 174.865 284.547C173.639 290.053 172.565 295.576 171.635 301.103C171.601 301.246 171.567 301.385 171.567 301.532C171.254 303.384 170.924 305.233 170.645 307.085C169.656 313.803 168.701 320.291 168.007 326.435C164.769 325.538 158.596 323.85 150.647 321.795C150.639 321.795 150.63 321.786 150.622 321.786C150.614 321.784 150.605 321.784 150.597 321.781C148.999 321.369 147.307 320.938 145.582 320.5C141.743 310.029 138.353 294.027 142.944 275.513ZM115.217 232.818C115.319 232.818 115.412 232.768 115.513 232.754C117.222 232.631 118.913 232.478 120.595 232.299C114.237 240.183 109.544 249.154 106.948 258.542C100.471 281.991 108.013 302.348 113.45 312.906C106.288 311.36 99.0838 309.92 92.2262 308.728C87.4656 302.179 70.2579 275.747 80.6671 248.781C83.0347 242.637 86.7045 236.961 91.5074 231.854C96.4795 232.74 101.595 233.11 106.711 233.11C109.493 233.11 112.266 232.976 115.015 232.787C115.082 232.792 115.15 232.818 115.217 232.818ZM91.5412 193.681C93.8327 201.396 99.1177 208.141 102.458 212.404C107.278 218.537 113.078 223.822 119.682 228.265C118.439 228.398 117.196 228.518 115.936 228.621C98.9739 216.036 89.1651 203.919 86.6622 192.489C88.2857 192.91 89.9177 193.297 91.5412 193.681ZM115.344 149.245C111.615 155.022 107.261 159.586 103.244 163.758C95.7691 171.519 89.3089 178.262 90.6111 189.17C89.0975 188.797 87.5923 188.393 86.0872 187.989C86.028 186.825 86.0195 185.667 86.1125 184.519C86.8228 176.362 91.2537 172.16 96.8684 166.841C101.857 162.106 107.464 156.729 112.038 147.505C113.146 148.078 114.245 148.655 115.344 149.245ZM151.975 57.3213C142.69 56.0438 132.391 59.7643 125.737 66.788C123.411 69.2465 121.83 71.7869 120.798 74.4181C119.302 73.3042 117.839 72.3017 116.401 71.3769C117.416 69.0125 118.769 66.6734 120.621 64.3531C123.64 60.5721 131.875 51.7798 143.316 51.7634C143.325 51.7634 143.333 51.7634 143.342 51.7634C152.178 51.7634 159.213 57.1183 163.745 61.9004C160.135 59.4942 156.152 57.8925 151.975 57.3213ZM175.034 84.8783C175.051 84.934 175.093 84.9757 175.11 85.0314C177.376 91.9405 179.473 99.0558 181.41 106.219C176.48 102.295 168.92 98.0287 160.769 99.9053C157.048 100.758 153.505 103.038 150.191 106.659C141.38 93.687 132.586 84.0599 124.401 77.267C125.212 74.5711 126.633 72.0258 128.924 69.6115C134.641 63.574 143.452 60.3683 151.375 61.4576C161.927 62.9054 171.212 72.0954 175.034 84.8783ZM186.813 70.1492C183.27 72.4187 180.091 75.1285 177.325 78.2254C174.797 71.029 172.074 64.1142 169.149 57.6618C173.935 53.3258 179.16 49.4489 184.733 46.1597C191.819 41.98 199.454 38.7628 207.437 36.4573C204.063 45.7144 201.188 55.1329 198.829 64.6846C194.567 65.9524 190.525 67.7676 186.813 70.1492ZM190.838 125.755C187.549 111.574 183.6 96.864 178.949 82.9624C181.824 79.3114 185.249 76.1613 189.189 73.6299C191.861 71.9227 194.711 70.5306 197.696 69.447C197.197 71.6248 196.698 73.8026 196.25 75.9944C192.926 92.4143 191.117 109.063 190.838 125.755ZM177.537 159.269C177.089 155.941 179.025 152.63 182.407 151.435C183.261 151.133 184.132 150.986 185.012 150.986C186.103 150.986 187.185 151.22 188.2 151.679C189.527 152.273 190.567 153.231 191.32 154.397C186.466 155.451 181.849 157.101 177.537 159.269ZM148.88 233.018C149.261 231.659 150.03 230.481 151.079 229.556C152.99 233.985 155.518 238.092 158.494 241.854C155.18 242.882 151.459 241.618 149.641 238.579C148.635 236.886 148.364 234.909 148.88 233.018ZM146.808 210.82C147.037 215.663 147.84 220.36 149.277 224.805C147.874 224.75 146.513 224.36 145.329 223.56C143.671 222.438 142.564 220.756 142.217 218.827C141.583 215.376 143.595 212.095 146.808 210.82ZM137.82 217.136C132.899 210.9 130.134 204.896 129.457 199.167C132.248 199.324 135.029 199.421 137.82 199.469C137.955 203.014 139.782 206.258 142.665 208.316C139.79 210.368 137.964 213.599 137.82 217.136ZM121.17 198.552C122.456 198.672 123.741 198.77 125.035 198.869C125.796 207.305 130.531 216.119 139.19 225.164C138.327 225.335 137.465 225.502 136.577 225.669C127.081 216.384 121.889 207.283 121.17 198.552ZM105.223 196.485C109.062 197.134 112.943 197.642 116.833 198.087C117.34 207.422 122.253 216.983 131.478 226.593C129.77 226.886 128.011 227.167 126.235 227.429C118.262 222.78 111.412 216.894 105.891 209.87C102.923 206.085 98.7963 200.797 96.4879 194.823C99.3882 195.439 102.305 195.993 105.223 196.485ZM125.187 154.818C128.857 157.027 132.45 159.374 136.002 161.789C133 168.59 129.263 172.795 125.897 176.541C121.635 181.266 117.636 185.764 116.909 193.893C113.239 193.467 109.586 192.983 105.967 192.37C102.348 191.76 98.7456 191.019 95.1519 190.223C95.1096 189.967 95.025 189.715 94.9827 189.459C93.503 179.993 99.1937 174.087 106.398 166.607C110.609 162.235 115.175 157.45 119.107 151.309C121.145 152.459 123.183 153.612 125.187 154.818ZM147.434 143.325C147.383 148.9 147.333 154.167 145.591 160.182C145.32 161.098 145.024 161.939 144.72 162.761C143.561 161.919 142.42 161.065 141.244 160.243C141.456 159.672 141.676 159.138 141.879 158.536C144.83 149.605 144.965 142.138 145.075 135.552C145.21 127.93 145.363 121.238 149.895 114.07C150.724 115.382 151.561 116.715 152.398 118.094C147.629 127.752 147.502 135.672 147.434 143.325ZM148.88 183.614C148.364 181.723 148.635 179.745 149.641 178.05C150.656 176.354 152.288 175.139 154.241 174.633C154.892 174.466 155.56 174.382 156.22 174.382C156.989 174.382 157.75 174.552 158.486 174.794C155.509 178.548 152.99 182.65 151.079 187.076C150.03 186.151 149.261 184.973 148.88 183.614ZM142.217 197.806C142.564 195.876 143.671 194.196 145.329 193.072C146.513 192.266 147.882 191.835 149.294 191.771C147.848 196.232 147.037 200.95 146.808 205.815C143.595 204.537 141.583 201.256 142.217 197.806ZM125.085 193.436C125.035 193.848 125.018 194.263 124.984 194.678C123.724 194.581 122.456 194.472 121.196 194.353C121.771 187.516 125.026 183.862 129.144 179.286C132.442 175.618 136.382 171.194 139.596 164.245C140.729 165.05 141.836 165.888 142.961 166.712C140.526 171.333 137.465 174.365 134.463 177.293C130.117 181.534 126.016 185.538 125.085 193.436ZM129.373 193.907C130.134 187.448 133.397 184.266 137.524 180.236C140.517 177.317 143.764 174.093 146.436 169.28C147.612 170.174 148.745 171.099 149.903 172.015C148.28 172.998 146.885 174.313 145.904 175.961C144.314 178.623 143.891 181.726 144.711 184.694C145.058 185.925 145.633 187.045 146.343 188.075C145.117 188.423 143.933 188.919 142.851 189.649C140.779 191.055 139.283 193.035 138.471 195.311C135.427 195.263 132.383 195.146 129.339 194.97C129.364 194.617 129.33 194.258 129.373 193.907ZM173.055 161.797C168.903 164.376 165.132 167.464 161.809 170.968C161.124 169.735 160.794 168.35 160.93 166.924C161.099 164.975 162.054 163.204 163.602 161.947C165.022 160.797 166.747 160.232 168.464 160.232C170.104 160.232 171.711 160.789 173.055 161.797ZM155.044 122.571C160.667 132.338 166.214 143.603 171.516 156.497C167.906 155.562 163.906 156.249 160.828 158.745C158.393 160.722 156.905 163.499 156.626 166.562C156.516 167.829 156.659 169.072 156.964 170.275C156.186 170.224 155.408 170.263 154.622 170.349C152.55 168.665 150.444 167.008 148.305 165.387C148.829 164.119 149.32 162.789 149.743 161.312C151.645 154.762 151.696 148.967 151.747 143.364C151.814 136.616 151.89 130.188 155.044 122.571ZM185.198 121.074C187.481 130.526 189.477 139.816 191.202 148.558C190.821 148.324 190.449 148.082 190.026 147.895C187.151 146.589 183.921 146.452 180.936 147.508C178.12 148.502 175.956 150.435 174.628 152.805C169.056 139.484 163.221 127.911 157.311 117.921C158.604 115.652 160.008 113.897 162.181 112.889C170.4 109.079 182.602 118.857 185.198 121.074ZM160.312 109.121C157.869 110.257 156.169 111.939 154.833 113.81C154.097 112.621 153.362 111.46 152.626 110.321C155.577 106.829 158.647 104.687 161.767 103.971C171.821 101.677 181.579 111.847 183.439 113.908C183.481 114.098 183.532 114.287 183.583 114.476C177.714 110.391 168.235 105.448 160.312 109.121ZM125.559 99.0231C124.316 92.7597 123.217 87.1928 123.546 82.1464C131.081 88.7855 139.198 97.9894 147.35 110.171C141.067 118.96 140.915 126.994 140.763 135.48C140.644 142.086 140.526 148.917 137.769 157.263C137.71 157.439 137.642 157.587 137.583 157.759C134.26 155.52 130.895 153.334 127.47 151.27C125.424 150.039 123.335 148.856 121.246 147.681C122.456 145.461 123.589 143.102 124.578 140.501C130.624 124.558 127.935 110.995 125.559 99.0231ZM173.081 254.849C171.939 255.704 170.595 256.25 169.132 256.375C167.145 256.528 165.158 255.946 163.602 254.685C162.054 253.426 161.099 251.658 160.93 249.708C160.794 248.279 161.124 246.895 161.809 245.664C165.141 249.17 168.912 252.265 173.081 254.849ZM258.721 183.614C258.349 184.973 257.58 186.151 256.531 187.073C254.62 182.65 252.1 178.548 249.124 174.794C249.859 174.552 250.612 174.382 251.39 174.382C252.05 174.382 252.709 174.466 253.369 174.633C255.322 175.139 256.954 176.354 257.96 178.053C258.975 179.745 259.245 181.723 258.721 183.614ZM262.281 193.072C263.93 194.196 265.038 195.876 265.393 197.806C266.027 201.254 264.015 204.537 260.793 205.815C260.573 200.95 259.753 196.232 258.307 191.771C259.719 191.835 261.089 192.266 262.281 193.072ZM258.315 224.833C259.761 220.383 260.573 215.674 260.793 210.82C264.015 212.095 266.027 215.376 265.393 218.827C264.767 222.252 261.757 224.669 258.315 224.833ZM258.721 233.018C259.245 234.909 258.975 236.886 257.96 238.582C256.151 241.615 252.43 242.885 249.107 241.852C252.092 238.095 254.612 233.987 256.531 229.556C257.571 230.481 258.349 231.659 258.721 233.018ZM279.573 286.426C277.688 288.193 274.474 287.298 268.488 285.433C264.116 284.074 258.865 282.461 252.574 281.815C247.196 273.059 242.173 265.657 238.579 260.555C238.765 260.564 238.96 260.58 239.154 260.58C241.945 260.58 244.617 259.642 246.773 257.885C250.341 254.989 251.661 250.49 250.646 246.377C250.891 246.394 251.136 246.425 251.381 246.425C252.075 246.425 252.768 246.344 253.445 246.23C262.865 254.938 271.887 264.697 280.199 274.945C281.687 280.659 281.484 284.633 279.573 286.426ZM255.347 286.399C259.854 287.148 263.786 288.36 267.16 289.41C273.629 291.425 278.745 293.021 282.575 289.429C284.486 287.633 285.442 285.054 285.484 281.667C286.076 282.439 286.668 283.205 287.243 283.979C288.08 289.221 287.454 292.88 285.365 294.837C282.803 297.238 278.787 296.18 271.337 293.94C267.405 292.759 262.907 291.434 257.799 290.573C256.979 289.159 256.168 287.769 255.347 286.399ZM225.194 265.197C221.803 266.398 218.125 265.064 216.264 262.237C221.127 261.185 225.752 259.533 230.064 257.361C230.521 260.691 228.585 264 225.194 265.197ZM247.965 285.703C248.659 285.714 249.327 285.755 250.003 285.797C250.807 287.129 251.618 288.493 252.438 289.877C249.995 289.674 247.416 289.604 244.71 289.73C234.411 290.214 227.798 293.241 221.964 295.912C221.355 296.191 220.771 296.455 220.18 296.72L219.808 293.807C221.82 293.035 223.773 292.139 225.76 291.226C231.84 288.427 238.207 285.511 247.965 285.703ZM234.529 254.849C238.689 252.267 242.461 249.176 245.792 245.672C247.416 248.658 246.782 252.428 244 254.685C242.452 255.946 240.499 256.539 238.478 256.375C237.007 256.25 235.662 255.706 234.529 254.849ZM247.382 281.54C236.837 281.526 230.005 284.647 223.909 287.454C222.319 288.184 220.788 288.886 219.249 289.509L216.484 268.133C218.319 269.202 220.433 269.815 222.615 269.815C223.959 269.815 225.329 269.592 226.674 269.122C230.386 267.812 232.973 264.872 233.979 261.441C237.252 266.045 242.08 273.065 247.382 281.54ZM182.407 265.197C179.025 264 177.089 260.691 177.537 257.361C181.849 259.533 186.483 261.185 191.345 262.237C189.476 265.067 185.798 266.398 182.407 265.197ZM215.63 295.149L216.053 298.421C212.282 299.795 208.485 300.51 203.488 299.739C194.837 298.397 186.737 293.133 179.38 284.16C179.456 283.812 179.541 283.464 179.625 283.116C187.244 290.404 195.387 294.679 203.868 295.806C205.399 296.009 206.845 296.102 208.215 296.102C210.92 296.102 213.347 295.737 215.63 295.149ZM196.453 263.092C198.862 263.396 201.306 263.605 203.801 263.605C206.295 263.605 208.739 263.396 211.149 263.092C210.405 266.373 207.411 268.846 203.801 268.846C200.19 268.846 197.205 266.373 196.453 263.092ZM203.801 273.023C207.158 273.023 210.159 271.647 212.307 269.47L215.089 290.95C211.927 291.824 208.544 292.209 204.46 291.665C196.224 290.571 188.267 286.031 180.75 278.225C181.46 275.362 182.221 272.505 182.999 269.65C183.667 269.759 184.327 269.817 184.995 269.815C188.056 269.815 191.007 268.654 193.205 266.629C195.159 270.403 199.15 273.023 203.801 273.023ZM267.693 321.611C268.31 323.592 268.86 325.558 269.35 327.509C268.107 327.173 266.813 326.869 265.418 326.616C250.629 323.917 241.251 327.148 230.394 330.89C224.61 332.882 218.632 334.94 211.081 336.402C204.562 337.655 188.775 336.594 180.04 328.343C175.144 323.722 173.326 317.487 174.611 309.82C178.881 319.183 184.674 325.786 191.954 329.403C204.756 335.776 217.338 331.355 230.665 326.677C242.486 322.528 254.671 318.27 267.693 321.611ZM229.185 322.75C216.78 327.108 205.061 331.222 193.924 325.689C185.984 321.742 179.938 313.588 175.947 301.485C176.632 297.444 177.376 293.403 178.23 289.37C185.697 297.613 193.95 302.49 202.811 303.866C204.452 304.122 205.999 304.236 207.462 304.236C210.853 304.236 213.812 303.604 216.603 302.671L218.387 316.517C218.531 317.576 219.452 318.347 220.526 318.347C220.619 318.347 220.704 318.342 220.797 318.331C221.981 318.189 222.818 317.144 222.674 315.999L220.746 301.061C221.761 300.619 222.784 300.16 223.807 299.691C229.549 297.063 235.476 294.345 244.921 293.901C248.515 293.723 251.88 293.94 255.043 294.369C257.089 297.965 259.127 301.679 261.097 305.492C263.017 309.221 264.682 313.092 266.112 316.985C252.777 314.498 240.355 318.829 229.185 322.75ZM295.2 174.226C296.493 176 298.168 177.465 299.791 178.877C302.674 181.395 305.651 183.993 307.029 188.702C307.951 191.827 307.765 194.537 307.579 195.867C306.869 200.833 304.011 203.345 300.704 206.258C298.015 208.633 295.225 211.093 293.483 215.008C290.549 221.608 292.925 227.128 295.225 232.466C297.22 237.098 299.115 241.479 297.939 246.815C296.375 253.935 289.644 260.282 278.017 265.716C273.756 260.744 269.333 255.935 264.792 251.332C275.481 247.967 281.45 243.486 282.888 237.663C284.021 233.057 281.848 229.267 279.937 225.928C278.017 222.589 276.368 219.703 277.349 216.086C278.17 213.034 280.393 211.46 282.964 209.636C286.118 207.394 289.695 204.857 291.141 199.312C292.46 194.236 291.834 187.315 287.479 183.302C284.883 180.91 281.983 180.511 279.649 180.191C277.611 179.913 276.419 179.709 275.557 178.768C273.696 176.73 274.271 171.862 277.146 165.056C282.6 160.202 288.612 155.08 295.098 149.819C291.166 160.611 291.166 168.671 295.2 174.226ZM262.763 178.384C265.224 176.006 267.879 173.505 270.703 170.901C269.663 175.663 270.187 179.195 272.327 181.539C274.288 183.675 276.817 184.023 279.049 184.329C281.121 184.613 282.905 184.859 284.503 186.33C287.446 189.039 287.961 194.397 286.955 198.293C285.89 202.376 283.353 204.178 280.41 206.264C277.586 208.269 274.381 210.541 273.172 215.03C271.76 220.269 274.094 224.348 276.157 227.952C277.916 231.016 279.429 233.665 278.685 236.697C277.561 241.259 271.726 245.046 261.419 247.975C260.243 246.817 259.051 245.678 257.85 244.556C259.389 243.598 260.725 242.303 261.706 240.671C263.287 238.009 263.71 234.904 262.89 231.938C262.552 230.707 261.968 229.587 261.266 228.557C265.46 227.359 268.834 223.997 269.646 219.553C270.458 215.105 268.462 210.828 264.945 208.316C268.462 205.801 270.458 201.524 269.646 197.079C269.096 194.049 267.355 191.412 264.75 189.652C263.676 188.919 262.492 188.423 261.258 188.075C261.968 187.045 262.552 185.925 262.89 184.694C263.473 182.586 263.406 180.42 262.763 178.384ZM234.554 161.797C235.89 160.789 237.497 160.232 239.137 160.232C240.854 160.232 242.587 160.797 244 161.947C246.782 164.2 247.424 167.974 245.792 170.96C242.469 167.462 238.706 164.373 234.554 161.797ZM216.248 154.389C217.009 153.222 218.074 152.275 219.402 151.679C220.416 151.22 221.507 150.986 222.598 150.986C223.469 150.986 224.348 151.133 225.194 151.435C228.585 152.63 230.521 155.941 230.064 159.269C225.752 157.096 221.118 155.442 216.248 154.389ZM196.495 153.531C197.256 150.259 200.198 147.784 203.801 147.784C207.411 147.784 210.405 150.256 211.149 153.537C208.739 153.236 206.295 153.027 203.801 153.027C201.323 153.027 198.896 153.234 196.495 153.531ZM203.801 157.205C232.923 157.205 256.607 180.133 256.607 208.316C256.607 236.496 232.923 259.428 203.801 259.428C174.687 259.428 150.994 236.496 150.994 208.316C150.994 180.133 174.687 157.205 203.801 157.205ZM115.911 100.646C114.372 91.5812 112.994 83.3495 114.998 75.4984C116.486 76.501 118.016 77.6066 119.581 78.8326C118.448 85.2679 119.809 92.2277 121.314 99.8112C123.589 111.245 126.159 124.209 120.528 139.059C119.631 141.423 118.591 143.579 117.484 145.617C116.258 144.959 115.023 144.311 113.789 143.67C120.435 127.512 118.05 113.264 115.911 100.646ZM140.593 319.244C133.905 317.579 126.54 315.816 118.997 314.125C113.991 305.484 104.284 284.352 111.116 259.619C113.932 249.416 119.386 239.722 126.861 231.523C133.719 230.54 140.027 229.278 145.286 228.206C145.633 228.337 145.971 228.487 146.326 228.587C145.625 229.609 145.05 230.717 144.711 231.938C143.891 234.906 144.314 238.009 145.904 240.668C147.409 243.191 149.768 244.932 152.415 245.795C145.929 254.52 141.329 264.167 138.75 274.536C134.285 292.534 136.974 308.268 140.593 319.244ZM317.971 242.958C319.924 247.33 321.463 250.783 320.372 255.876C318.335 265.451 308.112 273.786 290.033 280.668C288.063 278.058 286.05 275.469 283.996 272.912C283.903 272.775 283.81 272.658 283.691 272.547C282.744 271.369 281.789 270.194 280.816 269.029C293.128 263.083 300.358 255.921 302.159 247.683C303.613 241.072 301.279 235.644 299.216 230.854C297.077 225.908 295.233 221.634 297.449 216.659C298.819 213.571 301.152 211.521 303.613 209.349C307.046 206.328 310.927 202.902 311.849 196.441C312.094 194.779 312.323 191.417 311.19 187.563C309.465 181.695 305.862 178.551 302.683 175.778C301.169 174.458 299.74 173.213 298.734 171.826C294.844 166.473 295.977 157.196 302.049 144.292C307.993 139.64 314.293 134.929 320.956 130.214C319.738 136.669 319.434 143.111 320.093 149.427C321.184 159.814 324.533 165.735 327.492 170.96C330.198 175.741 332.337 179.52 332.253 185.722C332.126 193.807 328.406 198.274 324.085 203.443C319.679 208.726 314.682 214.71 314.073 225.223C313.608 233.202 315.925 238.384 317.971 242.958ZM400.72 82.0597C398.47 82.7144 394.987 83.915 389.457 85.8228C389.423 85.8367 389.406 85.8612 389.372 85.8752C389.338 85.8891 389.304 85.8834 389.27 85.9005C387.554 86.6772 385.88 87.4965 384.189 88.2928C384.104 88.3231 384.019 88.3231 383.935 88.3648C383.876 88.3926 383.842 88.4458 383.783 88.4818C376.536 91.8987 369.501 95.4834 362.677 99.2039C362.491 99.2817 362.313 99.3627 362.161 99.4855C348.294 107.074 335.339 115.164 323.425 123.365C323.163 123.477 322.935 123.63 322.74 123.833C314.47 129.539 306.725 135.277 299.504 140.916C299.182 141.052 298.92 141.27 298.692 141.542C289.703 148.594 281.577 155.451 274.364 161.872C274.085 162.026 273.849 162.24 273.654 162.507C268.91 166.743 264.547 170.787 260.641 174.527C259.068 172.628 256.954 171.24 254.485 170.597C253.208 170.266 251.914 170.194 250.637 170.275C251.669 166.158 250.35 161.647 246.773 158.745C243.205 155.843 238.385 155.37 234.368 157.065C233.979 153.685 232.052 150.585 229.041 148.686C242.292 128.854 257.842 110.55 275.328 94.2803C283.97 86.2401 293.103 78.7655 302.59 71.7558C304.366 70.826 305.981 69.614 307.41 68.1883C325.607 55.2834 345.266 44.2831 366.178 35.2649C390.86 54.0353 398.792 75.5492 400.72 82.0597ZM426.18 103.768C431.837 114.256 433.122 130.033 425.512 138.287C424.108 139.807 422.476 140.966 420.743 142.191C418.443 143.829 415.915 145.636 413.522 148.56C414.071 146.494 414.689 144.461 415.458 142.498C416.904 138.813 418.401 136.165 419.72 133.831C421.944 129.902 423.703 126.799 423.398 121.828C422.984 114.896 418.731 107.779 412.811 104.114C409.497 102.061 406.732 101.705 404.06 101.36C401.692 101.053 399.451 100.763 396.576 99.2702C393.202 97.5188 390.361 94.7452 388.027 91.1277C389.025 90.6653 389.998 90.1809 391.004 89.7267C399.316 86.8614 402.166 86.0003 403.13 85.7417C407.256 86.9137 419.483 91.334 426.18 103.768ZM408.567 123.527C405.244 113.29 397.912 113.838 391.461 114.312C386.861 114.657 382.117 115.008 377.407 112.491C370.236 108.653 367.319 104.298 366.22 102.063C372.038 98.92 378.016 95.8811 384.146 92.9569C386.911 97.3878 390.37 100.788 394.538 102.952C398.107 104.804 400.965 105.172 403.485 105.5C405.895 105.813 407.975 106.079 410.486 107.631C415.289 110.611 418.747 116.412 419.094 122.068C419.314 125.847 418.046 128.097 415.94 131.824C414.621 134.157 412.981 137.059 411.425 141.014C411.247 141.456 411.129 141.924 410.96 142.372C411.053 136.463 410.647 129.982 408.567 123.527ZM437.105 247.447C437.105 247.43 437.097 247.38 437.097 247.371C437.054 247.151 436.97 246.943 436.86 246.748C436.826 246.692 436.784 246.647 436.75 246.597C436.674 246.497 436.615 246.391 436.53 246.305C430.459 240.211 429.951 232.865 430.019 229.991C430.044 228.891 433.055 225.944 435.253 223.797C440.623 218.559 447.294 212.037 446.99 204.003C446.762 198.02 439.608 191.865 431.321 184.744C423.457 177.98 414.756 170.489 411.619 162.719C412.228 159.709 413.268 156.876 414.739 154.306C417.335 149.795 420.236 147.739 423.297 145.558C425.132 144.26 427.026 142.916 428.725 141.069C437.925 131.105 436.251 113.421 430.011 101.835C422.933 88.7134 410.393 83.6 405.159 81.9738C403.62 76.298 395.756 52.3952 368.672 31.848C368.376 31.2268 367.793 30.8454 367.15 30.7145C362.888 27.5791 358.153 24.5354 352.919 21.6554C352.547 21.193 352.031 20.9229 351.465 20.8615C347.313 18.6452 342.857 16.5345 338.071 14.5654C337.698 14.2422 337.25 14.0695 336.76 14.0441C325.454 9.51331 312.348 5.77313 297.136 3.29739C297.026 3.27286 296.925 3.22784 296.815 3.20575C296.739 3.19183 296.662 3.21146 296.586 3.20575C296.493 3.19427 296.417 3.16644 296.324 3.16644C283.632 1.1474 269.494 0 253.741 0C219.545 0 192.225 11.989 191.083 12.4956C178.382 18.0634 166.587 25.4152 155.958 34.3352C147.916 23.3381 138.75 16.2219 128.358 15.4395C121.069 14.8878 110.694 20.174 107.683 21.8035C82.1553 35.661 76.0417 66.743 75.0693 72.8336C73.6487 81.7871 74.0715 89.1807 75.1708 95.7142C75.1708 95.7674 75.1792 95.8148 75.1792 95.8672C75.1877 95.8951 75.2045 95.9147 75.2045 95.9425C76.0163 100.691 77.1748 104.999 78.2909 109.051C81.056 119.049 83.2376 126.95 77.8936 136.599C74.7903 142.211 71.3403 144.481 67.6958 146.881C63.6116 149.566 59.4007 152.34 55.6548 159.416C46.6578 176.429 49.7356 200.906 62.4955 216.136C55.6209 222.861 47.478 233.594 44.6706 248.561C39.4872 276.154 56.847 297.925 64.5671 306.019C58.5804 306.542 52.7544 307.781 47.1904 309.719C25.8987 317.125 8.34443 334.43 2.45918 353.804C-4.47459 376.649 3.95591 399.895 18.9565 416.894C18.9565 416.896 18.965 416.899 18.965 416.902C18.965 416.908 18.9734 416.908 18.9734 416.91C26.1608 425.056 34.8534 431.774 44.0871 436.313C54.0312 441.198 64.7532 443.64 76.1855 443.64C87.381 443.64 99.2783 441.258 111.793 436.575C112.072 436.483 112.368 436.39 112.63 436.299C112.706 436.271 112.757 436.215 112.833 436.179C115.598 435.118 118.388 433.984 121.213 432.698C146.217 421.305 160.202 402.515 167.652 390.663C169.529 391.34 171.499 391.693 173.47 391.693C175.186 391.693 176.894 391.373 178.543 390.858C177.165 396.6 179.093 402.869 184.09 406.873C187.176 409.341 190.914 410.544 194.635 410.544C196.935 410.544 199.226 410.071 201.348 409.166C200.63 415 203.243 421.01 208.646 424.463C211.386 426.215 214.531 427.123 217.736 427.123C218.852 427.123 219.977 427.011 221.093 426.791C222.869 426.44 224.509 425.758 226.039 424.903C226.014 426.622 226.259 428.351 226.817 430.035C228.162 434.115 231.071 437.44 235.003 439.404C237.421 440.615 240.008 441.186 242.571 441.186C246.08 441.186 249.504 440.075 252.354 438.07C252.515 439.771 252.954 441.456 253.69 443.066C255.483 446.979 258.747 449.984 262.873 451.527C264.826 452.256 266.839 452.602 268.817 452.602C272.935 452.602 276.91 451.098 279.945 448.449C281.154 454.186 285.56 459.088 291.783 460.742C293.246 461.129 294.709 461.313 296.164 461.313C301.271 461.313 306.057 458.968 309.177 455.125C311.671 460.917 317.582 465 324.465 465C333.597 465 341.022 457.809 341.022 448.967C341.022 440.19 333.69 433.043 324.643 432.946C326.224 419.158 330.24 401.022 337.631 381.517C346.349 358.514 361.29 343.292 372.511 334.452C375.8 334.67 378.988 334.817 381.982 334.817C400.305 334.817 413.074 330.721 420.1 322.55C431.051 309.817 426.992 296.428 424.311 287.571C423.601 285.224 422.984 283.199 422.764 281.617C422.324 278.318 422.933 277.983 425.512 276.591C427.533 275.501 430.298 274.009 432.987 270.522C435.279 267.55 435.143 264.983 434.619 263.357C433.959 261.257 432.353 259.6 430.645 258.358C432.471 257.62 433.943 256.565 435.059 255.191C437.765 251.86 437.198 247.957 437.113 247.457C437.113 247.455 437.113 247.452 437.105 247.447Z" fill="#00D045" fill-opacity="0.5"/>
<path d="M410.886 227.189C412.007 227.599 413.128 227.777 414.224 227.777C419.754 227.777 424.665 223.188 426.757 220.291C427.945 218.654 429.417 218.877 429.727 218.949C430.856 219.231 432.036 218.598 432.354 217.503C432.68 216.392 432.019 215.239 430.873 214.922C429.158 214.454 425.636 214.554 423.218 217.894C421.737 219.946 416.901 224.903 412.4 223.279C409.447 222.21 410.208 218.724 410.301 218.341C410.593 217.222 409.882 216.089 408.736 215.808C407.59 215.537 406.402 216.209 406.117 217.331C405.448 219.901 405.59 225.274 410.886 227.189Z" fill="#00D045" fill-opacity="0.5"/>
</svg>
